{
  "accessors": [
    {
      "bufferView": 0,
      "byteOffset": 0,
      "count": 6,
      "componentType": 5126,
      "type": "VEC3",
      "min": [
        0,
        -0.004110000096261501,
        -0.005289999768137932
      ],
      "max": [
        0.0010000000474974513,
        0.005140000022947788,
        -0.0004900000058114529
      ]
    },
    {
      "bufferView": 0,
      "byteOffset": 12,
      "count": 6,
      "componentType": 5126,
      "type": "VEC3"
    },
    {
      "bufferView": 1,
      "byteOffset": 0,
      "count": 6,
      "componentType": 5126,
      "type": "VEC3",
      "min": [
        0,
        -0.004110000096261501,
        -0.0004900000058114529
      ],
      "max": [
        0.0010000000474974513,
        0.005140000022947788,
        0.004310000222176313
      ]
    },
    {
      "bufferView": 1,
      "byteOffset": 12,
      "count": 6,
      "componentType": 5126,
      "type": "VEC3"
    },
    {
      "bufferView": 2,
      "byteOffset": 0,
      "count": 6,
      "componentType": 5126,
      "type": "VEC3",
      "min": [
        0,
        -0.004110000096261501,
        -0.005289999768137932
      ],
      "max": [
        0.0010000000474974513,
        -0.004110000096261501,
        0.004310000222176313
      ]
    },
    {
      "bufferView": 2,
      "byteOffset": 12,
      "count": 6,
      "componentType": 5126,
      "type": "VEC3"
    },
    {
      "bufferView": 3,
      "byteOffset": 0,
      "count": 3,
      "componentType": 5126,
      "type": "VEC3",
      "min": [
        0,
        -0.004110000096261501,
        -0.005289999768137932
      ],
      "max": [
        0,
        0.005140000022947788,
        0.004310000222176313
      ]
    },
    {
      "bufferView": 3,
      "byteOffset": 12,
      "count": 3,
      "componentType": 5126,
      "type": "VEC3"
    },
    {
      "bufferView": 4,
      "byteOffset": 0,
      "count": 3,
      "componentType": 5126,
      "type": "VEC3",
      "min": [
        0.0010000000474974513,
        -0.004110000096261501,
        -0.005289999768137932
      ],
      "max": [
        0.0010000000474974513,
        0.005140000022947788,
        0.004310000222176313
      ]
    },
    {
      "bufferView": 4,
      "byteOffset": 12,
      "count": 3,
      "componentType": 5126,
      "type": "VEC3"
    },
    {
      "bufferView": 5,
      "byteOffset": 0,
      "count": 6,
      "componentType": 5126,
      "type": "VEC3",
      "min": [
        0,
        0.003064770018681884,
        0.0002368199930060655
      ],
      "max": [
        0.0003499999875202775,
        0.004660539794713259,
        0.0023620999418199062
      ]
    },
    {
      "bufferView": 5,
      "byteOffset": 12,
      "count": 6,
      "componentType": 5126,
      "type": "VEC3"
    },
    {
      "bufferView": 6,
      "byteOffset": 0,
      "count": 6,
      "componentType": 5126,
      "type": "VEC3",
      "min": [
        0.0003499999875202775,
        0.003064770018681884,
        0.0004717299889307469
      ],
      "max": [
        0.0006500000017695129,
        0.004207860212773085,
        0.0023620999418199062
      ]
    },
    {
      "bufferView": 6,
      "byteOffset": 12,
      "count": 6,
      "componentType": 5126,
      "type": "VEC3"
    },
    {
      "bufferView": 7,
      "byteOffset": 0,
      "count": 6,
      "componentType": 5126,
      "type": "VEC3",
      "min": [
        0,
        0.0032866699621081352,
        0.0002368199930060655
      ],
      "max": [
        0.0006500000017695129,
        0.004660539794713259,
        0.00224695005454123
      ]
    },
    {
      "bufferView": 7,
      "byteOffset": 12,
      "count": 6,
      "componentType": 5126,
      "type": "VEC3"
    },
    {
      "bufferView": 8,
      "byteOffset": 0,
      "count": 3,
      "componentType": 5126,
      "type": "VEC3",
      "min": [
        0,
        0.003064770018681884,
        0.0002368199930060655
      ],
      "max": [
        0.0006500000017695129,
        0.0037393500097095966,
        0.0005868800217285752
      ]
    },
    {
      "bufferView": 8,
      "byteOffset": 12,
      "count": 3,
      "componentType": 5126,
      "type": "VEC3"
    },
    {
      "bufferView": 9,
      "byteOffset": 0,
      "count": 3,
      "componentType": 5126,
      "type": "VEC3",
      "min": [
        0,
        0.00398596003651619,
        0.002012040000408888
      ],
      "max": [
        0.0006500000017695129,
        0.004660539794713259,
        0.0023620999418199062
      ]
    },
    {
      "bufferView": 9,
      "byteOffset": 12,
      "count": 3,
      "componentType": 5126,
      "type": "VEC3"
    }
  ],
  "asset": {
    "generator": "zoo.dev",
    "version": "2.0"
  },
  "buffers": [
    {
      "byteLength": 1152,
      "uri": "data:application/octet-stream;base64,"
    }
  ],
  "bufferViews": [
    {
      "buffer": 0,
      "byteLength": 144,
      "byteOffset": 0,
      "byteStride": 24,
      "target": 34962
    },
    {
      "buffer": 0,
      "byteLength": 144,
      "byteOffset": 144,
      "byteStride": 24,
      "target": 34962
    },
    {
      "buffer": 0,
      "byteLength": 144,
      "byteOffset": 288,
      "byteStride": 24,
      "target": 34962
    },
    {
      "buffer": 0,
      "byteLength": 72,
      "byteOffset": 432,
      "byteStride": 24,
      "target": 34962
    },
    {
      "buffer": 0,
      "byteLength": 72,
      "byteOffset": 504,
      "byteStride": 24,
      "target": 34962
    },
    {
      "buffer": 0,
      "byteLength": 144,
      "byteOffset": 576,
      "byteStride": 24,
      "target": 34962
    },
    {
      "buffer": 0,
      "byteLength": 144,
      "byteOffset": 720,
      "byteStride": 24,
      "target": 34962
    },
    {
      "buffer": 0,
      "byteLength": 144,
      "byteOffset": 864,
      "byteStride": 24,
      "target": 34962
    },
    {
      "buffer": 0,
      "byteLength": 72,
      "byteOffset": 1008,
      "byteStride": 24,
      "target": 34962
    },
    {
      "buffer": 0,
      "byteLength": 72,
      "byteOffset": 1080,
      "byteStride": 24,
      "target": 34962
    }
  ],
  "scene": 0,
  "extensions": {
    "KITTYCAD_boundary_representation": {
      "solids": [
        {
          "shells": [
            [
              0,
              1
            ]
          ],
          "mesh": 0,
          "extras": {
            "KITTYCAD": {
              "material": 0
            }
          }
        }
      ],
      "shells": [
        {
          "faces": [
            [
              0,
              1
            ],
            [
              1,
              1
            ],
            [
              2,
              1
            ],
            [
              3,
              1
            ],
            [
              4,
              1
            ],
            [
              5,
              1
            ],
            [
              6,
              1
            ],
            [
              7,
              1
            ],
            [
              8,
              1
            ],
            [
              9,
              1
            ]
          ]
        }
      ],
      "faces": [
        {
          "surface": [
            0,
            1
          ],
          "loops": [
            [
              0,
              1
            ]
          ]
        },
        {
          "surface": [
            1,
            1
          ],
          "loops": [
            [
              1,
              1
            ]
          ]
        },
        {
          "surface": [
            2,
            1
          ],
          "loops": [
            [
              2,
              1
            ]
          ]
        },
        {
          "surface": [
            3,
            -1
          ],
          "loops": [
            [
              3,
              1
            ]
          ]
        },
        {
          "surface": [
            4,
            1
          ],
          "loops": [
            [
              4,
              1
            ]
          ]
        },
        {
          "surface": [
            5,
            1
          ],
          "loops": [
            [
              5,
              1
            ]
          ]
        },
        {
          "surface": [
            6,
            1
          ],
          "loops": [
            [
              6,
              1
            ]
          ]
        },
        {
          "surface": [
            7,
            1
          ],
          "loops": [
            [
              7,
              1
            ]
          ]
        },
        {
          "surface": [
            8,
            -1
          ],
          "loops": [
            [
              8,
              1
            ]
          ]
        },
        {
          "surface": [
            9,
            1
          ],
          "loops": [
            [
              9,
              1
            ]
          ]
        }
      ],
      "loops": [
        {
          "edges": [
            [
              0,
              1
            ],
            [
              1,
              1
            ],
            [
              2,
              -1
            ],
            [
              3,
              -1
            ]
          ]
        },
        {
          "edges": [
            [
              4,
              1
            ],
            [
              5,
              1
            ],
            [
              6,
              -1
            ],
            [
              1,
              -1
            ]
          ]
        },
        {
          "edges": [
            [
              7,
              1
            ],
            [
              3,
              1
            ],
            [
              8,
              -1
            ],
            [
              5,
              -1
            ]
          ]
        },
        {
          "edges": [
            [
              7,
              -1
            ],
            [
              4,
              -1
            ],
            [
              0,
              -1
            ]
          ]
        },
        {
          "edges": [
            [
              2,
              1
            ],
            [
              6,
              1
            ],
            [
              8,
              1
            ]
          ]
        },
        {
          "edges": [
            [
              9,
              1
            ],
            [
              10,
              1
            ],
            [
              11,
              -1
            ],
            [
              12,
              -1
            ]
          ]
        },
        {
          "edges": [
            [
              13,
              1
            ],
            [
              14,
              1
            ],
            [
              15,
              -1
            ],
            [
              10,
              -1
            ]
          ]
        },
        {
          "edges": [
            [
              16,
              1
            ],
            [
              12,
              1
            ],
            [
              17,
              -1
            ],
            [
              14,
              -1
            ]
          ]
        },
        {
          "edges": [
            [
              16,
              -1
            ],
            [
              13,
              -1
            ],
            [
              9,
              -1
            ]
          ]
        },
        {
          "edges": [
            [
              11,
              1
            ],
            [
              15,
              1
            ],
            [
              17,
              1
            ]
          ]
        }
      ],
      "edges": [
        {
          "curve": [
            0,
            1
          ],
          "start": 0,
          "end": 1,
          "t": [
            0,
            0.01042125232397719
          ]
        },
        {
          "curve": [
            1,
            1
          ],
          "start": 1,
          "end": 2,
          "t": [
            0,
            0.001
          ]
        },
        {
          "curve": [
            2,
            1
          ],
          "start": 3,
          "end": 2,
          "t": [
            0,
            0.01042125232397719
          ]
        },
        {
          "curve": [
            3,
            1
          ],
          "start": 0,
          "end": 3,
          "t": [
            0,
            0.001
          ]
        },
        {
          "curve": [
            4,
            1
          ],
          "start": 1,
          "end": 4,
          "t": [
            0,
            0.01042125232397719
          ]
        },
        {
          "curve": [
            5,
            1
          ],
          "start": 4,
          "end": 5,
          "t": [
            0,
            0.001
          ]
        },
        {
          "curve": [
            6,
            1
          ],
          "start": 2,
          "end": 5,
          "t": [
            0,
            0.01042125232397719
          ]
        },
        {
          "curve": [
            7,
            1
          ],
          "start": 4,
          "end": 0,
          "t": [
            0,
            0.0096
          ]
        },
        {
          "curve": [
            8,
            1
          ],
          "start": 5,
          "end": 3,
          "t": [
            0,
            0.0096
          ]
        },
        {
          "curve": [
            9,
            1
          ],
          "start": 6,
          "end": 7,
          "t": [
            0,
            0.0008367198933932427
          ]
        },
        {
          "curve": [
            10,
            1
          ],
          "start": 7,
          "end": 8,
          "t": [
            0,
            0.001999999266124865
          ]
        },
        {
          "curve": [
            11,
            1
          ],
          "start": 9,
          "end": 8,
          "t": [
            0,
            0.000836719893393243
          ]
        },
        {
          "curve": [
            12,
            1
          ],
          "start": 6,
          "end": 9,
          "t": [
            0,
            0.0019999992661248653
          ]
        },
        {
          "curve": [
            13,
            1
          ],
          "start": 7,
          "end": 10,
          "t": [
            0,
            0.00039051137307381974
          ]
        },
        {
          "curve": [
            14,
            1
          ],
          "start": 10,
          "end": 11,
          "t": [
            0,
            0.0019999992661248653
          ]
        },
        {
          "curve": [
            15,
            1
          ],
          "start": 8,
          "end": 11,
          "t": [
            0,
            0.0003905113730738194
          ]
        },
        {
          "curve": [
            16,
            1
          ],
          "start": 10,
          "end": 6,
          "t": [
            0,
            0.0008261972467274383
          ]
        },
        {
          "curve": [
            17,
            1
          ],
          "start": 11,
          "end": 9,
          "t": [
            0,
            0.0008261972467274388
          ]
        }
      ],
      "vertices": [
        [
          0,
          -0.00411,
          -0.00529
        ],
        [
          0,
          0.00514,
          -0.00049
        ],
        [
          0.001,
          0.00514,
          -0.00049
        ],
        [
          0.001,
          -0.00411,
          -0.00529
        ],
        [
          0,
          -0.00411,
          0.00431
        ],
        [
          0.001,
          -0.00411,
          0.00431
        ],
        [
          0,
          0.00373935,
          0.00023682
        ],
        [
          0.00035,
          0.00306477,
          0.00058688
        ],
        [
          0.00035,
          0.00398596,
          0.0023621
        ],
        [
          0,
          0.00466054,
          0.00201204
        ],
        [
          0.00065,
          0.00328667,
          0.00047173
        ],
        [
          0.00065,
          0.00420786,
          0.00224695
        ]
      ],
      "surfaces": [
        {
          "type": "plane",
          "plane": {
            "xAxis": [
              1,
              0,
              0
            ],
            "yAxis": [
              0,
              -0.8876092548955045,
              -0.4605972325403699
            ],
            "origin": [
              0.0005,
              0.000515,
              -0.00289
            ]
          }
        },
        {
          "type": "plane",
          "plane": {
            "xAxis": [
              1,
              0,
              -0
            ],
            "yAxis": [
              -0,
              0.8876092548955045,
              -0.4605972325403699
            ],
            "origin": [
              0.0005,
              0.000515,
              0.00191
            ]
          }
        },
        {
          "type": "plane",
          "plane": {
            "xAxis": [
              1,
              0,
              0
            ],
            "yAxis": [
              -0,
              0,
              1
            ],
            "origin": [
              0.0005,
              -0.00411,
              -0.00049
            ]
          }
        },
        {
          "type": "plane",
          "plane": {
            "xAxis": [
              -0,
              1,
              0
            ],
            "yAxis": [
              0,
              -0,
              1
            ],
            "origin": [
              0,
              0,
              -0
            ]
          }
        },
        {
          "type": "plane",
          "plane": {
            "xAxis": [
              -0,
              1,
              0
            ],
            "yAxis": [
              0,
              -0,
              1
            ],
            "origin": [
              0.001,
              0,
              -0
            ]
          }
        },
        {
          "type": "plane",
          "plane": {
            "xAxis": [
              0.4183001349183559,
              -0.8062233509235602,
              0.41836456058427224
            ],
            "yAxis": [
              0,
              0.46059724392494983,
              0.8876092489878303
            ],
            "origin": [
              0.000175,
              0.00386265,
              0.00129946
            ]
          }
        },
        {
          "type": "plane",
          "plane": {
            "xAxis": [
              0.7682212811889875,
              0.5682335951343652,
              -0.2948671641417967
            ],
            "yAxis": [
              0,
              0.46059723600894753,
              0.8876092530955937
            ],
            "origin": [
              0.0005,
              0.00363631,
              0.00141691
            ]
          }
        },
        {
          "type": "plane",
          "plane": {
            "xAxis": [
              0.7867381594882485,
              -0.5479095299122864,
              0.28432062084263343
            ],
            "yAxis": [
              0,
              -0.4605972343485013,
              -0.8876092539572309
            ],
            "origin": [
              0.000325,
              0.00397361,
              0.00124189
            ]
          }
        },
        {
          "type": "plane",
          "plane": {
            "xAxis": [
              1,
              0,
              -0
            ],
            "yAxis": [
              -0,
              0.8876092548955045,
              -0.4605972325403699
            ],
            "origin": [
              0,
              0.00089012,
              0.00171534
            ]
          }
        },
        {
          "type": "plane",
          "plane": {
            "xAxis": [
              1,
              0,
              -0
            ],
            "yAxis": [
              -0,
              0.8876092548955045,
              -0.4605972325403699
            ],
            "origin": [
              0,
              0.00181132,
              0.00349056
            ]
          }
        }
      ],
      "curves3D": [
        {
          "type": "line",
          "line": {
            "origin": [
              0,
              -0.00411,
              -0.00529
            ],
            "direction": [
              0,
              0.8876092539010522,
              0.46059723445676226
            ]
          }
        },
        {
          "type": "line",
          "line": {
            "origin": [
              0,
              0.00514,
              -0.00049
            ],
            "direction": [
              1,
              0,
              -0
            ]
          }
        },
        {
          "type": "line",
          "line": {
            "origin": [
              0.001,
              -0.00411,
              -0.00529
            ],
            "direction": [
              0,
              0.8876092539010522,
              0.46059723445676226
            ]
          }
        },
        {
          "type": "line",
          "line": {
            "origin": [
              0,
              -0.00411,
              -0.00529
            ],
            "direction": [
              1,
              0,
              -0
            ]
          }
        },
        {
          "type": "line",
          "line": {
            "origin": [
              0,
              0.00514,
              -0.00049
            ],
            "direction": [
              0,
              -0.8876092539010522,
              0.4605972344567622
            ]
          }
        },
        {
          "type": "line",
          "line": {
            "origin": [
              0,
              -0.00411,
              0.00431
            ],
            "direction": [
              1,
              0,
              -0
            ]
          }
        },
        {
          "type": "line",
          "line": {
            "origin": [
              0.001,
              0.00514,
              -0.00049
            ],
            "direction": [
              0,
              -0.8876092539010522,
              0.4605972344567622
            ]
          }
        },
        {
          "type": "line",
          "line": {
            "origin": [
              0,
              -0.00411,
              0.00431
            ],
            "direction": [
              0,
              0,
              -1
            ]
          }
        },
        {
          "type": "line",
          "line": {
            "origin": [
              0.001,
              -0.00411,
              0.00431
            ],
            "direction": [
              0,
              0,
              -1
            ]
          }
        },
        {
          "type": "line",
          "line": {
            "origin": [
              0,
              0.00373935,
              0.00023682
            ],
            "direction": [
              0.41830008197917495,
              -0.8062196265757477,
              0.41837179056465706
            ]
          }
        },
        {
          "type": "line",
          "line": {
            "origin": [
              0.00035,
              0.00306477,
              0.00058688
            ],
            "direction": [
              0,
              0.46059516900967096,
              0.8876103256975736
            ]
          }
        },
        {
          "type": "line",
          "line": {
            "origin": [
              0,
              0.00466054,
              0.00201204
            ],
            "direction": [
              0.4183000819791749,
              -0.8062196265757481,
              0.4183717905646567
            ]
          }
        },
        {
          "type": "line",
          "line": {
            "origin": [
              0,
              0.00373935,
              0.00023682
            ],
            "direction": [
              0,
              0.460595169009671,
              0.8876103256975736
            ]
          }
        },
        {
          "type": "line",
          "line": {
            "origin": [
              0.00035,
              0.00306477,
              0.00058688
            ],
            "direction": [
              0.7682234646295177,
              0.5682292893376337,
              -0.29486977317362995
            ]
          }
        },
        {
          "type": "line",
          "line": {
            "origin": [
              0.00065,
              0.00328667,
              0.00047173
            ],
            "direction": [
              0,
              0.4605951690096707,
              0.8876103256975737
            ]
          }
        },
        {
          "type": "line",
          "line": {
            "origin": [
              0.00035,
              0.00398596,
              0.0023621
            ],
            "direction": [
              0.7682234646295185,
              0.5682292893376331,
              -0.2948697731736293
            ]
          }
        },
        {
          "type": "line",
          "line": {
            "origin": [
              0.00065,
              0.00328667,
              0.00047173
            ],
            "direction": [
              -0.7867370686293687,
              0.5479079018879112,
              -0.2843267766026538
            ]
          }
        },
        {
          "type": "line",
          "line": {
            "origin": [
              0.00065,
              0.00420786,
              0.00224695
            ],
            "direction": [
              -0.7867370686293681,
              0.5479079018879118,
              -0.2843267766026537
            ]
          }
        }
      ]
    }
  },
  "extensionsUsed": [
    "KITTYCAD_boundary_representation"
  ],
  "materials": [
    {
      "alphaMode": "OPAQUE",
      "doubleSided": false,
      "pbrMetallicRoughness": {
        "baseColorFactor": [
          0.9,
          0.9,
          0.9,
          1
        ],
        "metallicFactor": 1,
        "roughnessFactor": 1
      },
      "emissiveFactor": [
        0,
        0,
        0
      ]
    }
  ],
  "meshes": [
    {
      "primitives": [
        {
          "attributes": {
            "POSITION": 0,
            "NORMAL": 1
          },
          "material": 0
        },
        {
          "attributes": {
            "POSITION": 2,
            "NORMAL": 3
          },
          "material": 0
        },
        {
          "attributes": {
            "POSITION": 4,
            "NORMAL": 5
          },
          "material": 0
        },
        {
          "attributes": {
            "POSITION": 6,
            "NORMAL": 7
          },
          "material": 0
        },
        {
          "attributes": {
            "POSITION": 8,
            "NORMAL": 9
          },
          "material": 0
        },
        {
          "attributes": {
            "POSITION": 10,
            "NORMAL": 11
          },
          "material": 0
        },
        {
          "attributes": {
            "POSITION": 12,
            "NORMAL": 13
          },
          "material": 0
        },
        {
          "attributes": {
            "POSITION": 14,
            "NORMAL": 15
          },
          "material": 0
        },
        {
          "attributes": {
            "POSITION": 16,
            "NORMAL": 17
          },
          "material": 0
        },
        {
          "attributes": {
            "POSITION": 18,
            "NORMAL": 19
          },
          "material": 0
        }
      ]
    }
  ],
  "nodes": [
    {
      "children": [
        1
      ]
    },
    {
      "children": [
        2
      ]
    },
    {
      "extensions": {
        "KITTYCAD_boundary_representation": {
          "solid": 0
        }
      },
      "mesh": 0
    }
  ],
  "scenes": [
    {
      "nodes": [
        0
      ]
    }
  ]
}