{
  "accessors": [
    {
      "bufferView": 0,
      "byteOffset": 0,
      "count": 6,
      "componentType": 5126,
      "type": "VEC3",
      "min": [
        -0.019999999552965164,
        0,
        0.019999999552965164
      ],
      "max": [
        0,
        0.03999999910593033,
        0.019999999552965164
      ]
    },
    {
      "bufferView": 0,
      "byteOffset": 12,
      "count": 6,
      "componentType": 5126,
      "type": "VEC3"
    },
    {
      "bufferView": 1,
      "byteOffset": 0,
      "count": 210,
      "componentType": 5126,
      "type": "VEC3",
      "min": [
        0,
        0,
        -0.019999999552965164
      ],
      "max": [
        0.019999999552965164,
        0.03999999910593033,
        0.019999999552965164
      ]
    },
    {
      "bufferView": 1,
      "byteOffset": 12,
      "count": 210,
      "componentType": 5126,
      "type": "VEC3"
    },
    {
      "bufferView": 2,
      "byteOffset": 0,
      "count": 12,
      "componentType": 5126,
      "type": "VEC3",
      "min": [
        -0.019999999552965164,
        0,
        -0.019999999552965164
      ],
      "max": [
        0.019999999552965164,
        0.03999999910593033,
        0.019999999552965164
      ]
    },
    {
      "bufferView": 2,
      "byteOffset": 12,
      "count": 12,
      "componentType": 5126,
      "type": "VEC3"
    },
    {
      "bufferView": 3,
      "byteOffset": 0,
      "count": 9,
      "componentType": 5126,
      "type": "VEC3",
      "min": [
        -0.019999999552965164,
        0,
        -0.019999999552965164
      ],
      "max": [
        0.019999999552965164,
        0,
        0.019999999552965164
      ]
    },
    {
      "bufferView": 3,
      "byteOffset": 12,
      "count": 9,
      "componentType": 5126,
      "type": "VEC3"
    },
    {
      "bufferView": 4,
      "byteOffset": 0,
      "count": 9,
      "componentType": 5126,
      "type": "VEC3",
      "min": [
        -0.019999999552965164,
        0.03999999910593033,
        -0.019999999552965164
      ],
      "max": [
        0.019999999552965164,
        0.03999999910593033,
        0.019999999552965164
      ]
    },
    {
      "bufferView": 4,
      "byteOffset": 12,
      "count": 9,
      "componentType": 5126,
      "type": "VEC3"
    },
    {
      "bufferView": 5,
      "byteOffset": 0,
      "count": 192,
      "componentType": 5126,
      "type": "VEC3",
      "min": [
        0.0035278641153126955,
        0.004999999888241291,
        -0.004944271873682737
      ],
      "max": [
        0.048249222338199615,
        0.014999999664723871,
        0.030832815915346146
      ]
    },
    {
      "bufferView": 5,
      "byteOffset": 12,
      "count": 192,
      "componentType": 5126,
      "type": "VEC3"
    },
    {
      "bufferView": 6,
      "byteOffset": 0,
      "count": 186,
      "componentType": 5126,
      "type": "VEC3",
      "min": [
        0.0393049530684948,
        0.004999999888241291,
        0.01294427178800106
      ],
      "max": [
        0.048249222338199615,
        0.02500000037252903,
        0.030832815915346146
      ]
    },
    {
      "bufferView": 6,
      "byteOffset": 12,
      "count": 186,
      "componentType": 5126,
      "type": "VEC3"
    },
    {
      "bufferView": 7,
      "byteOffset": 0,
      "count": 192,
      "componentType": 5126,
      "type": "VEC3",
      "min": [
        0.0035278641153126955,
        0.014999999664723871,
        -0.004944271873682737
      ],
      "max": [
        0.048249222338199615,
        0.02500000037252903,
        0.030832815915346146
      ]
    },
    {
      "bufferView": 7,
      "byteOffset": 12,
      "count": 192,
      "componentType": 5126,
      "type": "VEC3"
    }
  ],
  "asset": {
    "generator": "zoo.dev",
    "version": "2.0"
  },
  "buffers": [
    {
      "byteLength": 19584,
      "uri": "data:application/octet-stream;base64,"
    }
  ],
  "bufferViews": [
    {
      "buffer": 0,
      "byteLength": 144,
      "byteOffset": 0,
      "byteStride": 24,
      "target": 34962
    },
    {
      "buffer": 0,
      "byteLength": 5040,
      "byteOffset": 144,
      "byteStride": 24,
      "target": 34962
    },
    {
      "buffer": 0,
      "byteLength": 288,
      "byteOffset": 5184,
      "byteStride": 24,
      "target": 34962
    },
    {
      "buffer": 0,
      "byteLength": 216,
      "byteOffset": 5472,
      "byteStride": 24,
      "target": 34962
    },
    {
      "buffer": 0,
      "byteLength": 216,
      "byteOffset": 5688,
      "byteStride": 24,
      "target": 34962
    },
    {
      "buffer": 0,
      "byteLength": 4608,
      "byteOffset": 5904,
      "byteStride": 24,
      "target": 34962
    },
    {
      "buffer": 0,
      "byteLength": 4464,
      "byteOffset": 10512,
      "byteStride": 24,
      "target": 34962
    },
    {
      "buffer": 0,
      "byteLength": 4608,
      "byteOffset": 14976,
      "byteStride": 24,
      "target": 34962
    }
  ],
  "scene": 0,
  "extensions": {
    "KITTYCAD_boundary_representation": {
      "solids": [
        {
          "shells": [
            [
              0,
              1
            ]
          ],
          "mesh": 0
        }
      ],
      "shells": [
        {
          "faces": [
            [
              0,
              1
            ],
            [
              1,
              1
            ],
            [
              2,
              1
            ],
            [
              3,
              1
            ],
            [
              4,
              1
            ],
            [
              5,
              1
            ],
            [
              6,
              1
            ],
            [
              7,
              1
            ]
          ]
        }
      ],
      "faces": [
        {
          "surface": [
            0,
            1
          ],
          "loops": [
            [
              0,
              1
            ]
          ]
        },
        {
          "surface": [
            1,
            1
          ],
          "loops": [
            [
              1,
              1
            ],
            [
              2,
              1
            ]
          ]
        },
        {
          "surface": [
            2,
            1
          ],
          "loops": [
            [
              3,
              1
            ]
          ]
        },
        {
          "surface": [
            3,
            -1
          ],
          "loops": [
            [
              4,
              1
            ]
          ]
        },
        {
          "surface": [
            4,
            1
          ],
          "loops": [
            [
              5,
              1
            ]
          ]
        },
        {
          "surface": [
            5,
            1
          ],
          "loops": [
            [
              6,
              1
            ]
          ]
        },
        {
          "surface": [
            6,
            1
          ],
          "loops": [
            [
              7,
              1
            ]
          ]
        },
        {
          "surface": [
            5,
            1
          ],
          "loops": [
            [
              8,
              1
            ]
          ]
        }
      ],
      "loops": [
        {
          "edges": [
            [
              0,
              1
            ],
            [
              1,
              1
            ],
            [
              2,
              -1
            ],
            [
              3,
              -1
            ]
          ]
        },
        {
          "edges": [
            [
              4,
              1
            ],
            [
              5,
              1
            ],
            [
              6,
              -1
            ],
            [
              1,
              -1
            ]
          ]
        },
        {
          "edges": [
            [
              7,
              -1
            ],
            [
              8,
              -1
            ]
          ]
        },
        {
          "edges": [
            [
              9,
              1
            ],
            [
              3,
              1
            ],
            [
              10,
              -1
            ],
            [
              5,
              -1
            ]
          ]
        },
        {
          "edges": [
            [
              9,
              -1
            ],
            [
              4,
              -1
            ],
            [
              0,
              -1
            ]
          ]
        },
        {
          "edges": [
            [
              2,
              1
            ],
            [
              6,
              1
            ],
            [
              10,
              1
            ]
          ]
        },
        {
          "edges": [
            [
              11,
              1
            ],
            [
              7,
              1
            ],
            [
              12,
              -1
            ],
            [
              13,
              -1
            ]
          ]
        },
        {
          "edges": [
            [
              14,
              1
            ],
            [
              13,
              1
            ]
          ]
        },
        {
          "edges": [
            [
              11,
              -1
            ],
            [
              14,
              -1
            ],
            [
              12,
              1
            ],
            [
              8,
              1
            ]
          ]
        }
      ],
      "edges": [
        {
          "curve": [
            0,
            1
          ],
          "start": 0,
          "end": 1,
          "t": [
            0,
            0.02
          ]
        },
        {
          "curve": [
            1,
            1
          ],
          "start": 1,
          "end": 2,
          "t": [
            0,
            0.04
          ]
        },
        {
          "curve": [
            2,
            1
          ],
          "start": 3,
          "end": 2,
          "t": [
            0,
            0.02
          ]
        },
        {
          "curve": [
            3,
            1
          ],
          "start": 0,
          "end": 3,
          "t": [
            0,
            0.04
          ]
        },
        {
          "curve": [
            4,
            1
          ],
          "start": 1,
          "end": 4,
          "t": [
            0,
            0.04472135954999579
          ]
        },
        {
          "curve": [
            5,
            1
          ],
          "start": 4,
          "end": 5,
          "t": [
            0,
            0.04
          ]
        },
        {
          "curve": [
            6,
            1
          ],
          "start": 2,
          "end": 5,
          "t": [
            0,
            0.04472135954999579
          ]
        },
        {
          "curve": [
            7,
            1
          ],
          "start": 6,
          "end": 7,
          "t": [
            3.141592653589793,
            6.283185307179586
          ]
        },
        {
          "curve": [
            7,
            1
          ],
          "start": 7,
          "end": 6,
          "t": [
            0,
            3.141592653589793
          ]
        },
        {
          "curve": [
            8,
            1
          ],
          "start": 4,
          "end": 0,
          "t": [
            0,
            0.0565685424949238
          ]
        },
        {
          "curve": [
            9,
            1
          ],
          "start": 5,
          "end": 3,
          "t": [
            0,
            0.0565685424949238
          ]
        },
        {
          "curve": [
            10,
            -1
          ],
          "start": 8,
          "end": 6,
          "t": [
            -0.019999999999999993,
            0.020000000000000014
          ]
        },
        {
          "curve": [
            11,
            -1
          ],
          "start": 9,
          "end": 7,
          "t": [
            -0.020000000000000004,
            0.020000000000000004
          ]
        },
        {
          "curve": [
            12,
            1
          ],
          "start": 8,
          "end": 9,
          "t": [
            3.141592653589793,
            6.283185307179586
          ]
        },
        {
          "curve": [
            12,
            1
          ],
          "start": 9,
          "end": 8,
          "t": [
            0,
            3.141592653589793
          ]
        }
      ],
      "vertices": [
        [
          -0.02,
          0,
          0.02
        ],
        [
          0,
          0,
          0.02
        ],
        [
          0,
          0.04,
          0.02
        ],
        [
          -0.02,
          0.04,
          0.02
        ],
        [
          0.02,
          0,
          -0.02
        ],
        [
          0.02,
          0.04,
          -0.02
        ],
        [
          0.0035278640450004213,
          0.015000000000000008,
          0.012944271909999156
        ],
        [
          0.01247213595499958,
          0.015000000000000006,
          -0.004944271909999158
        ],
        [
          0.039304951684997064,
          0.015000000000000008,
          0.03083281572999747
        ],
        [
          0.04824922359499622,
          0.015000000000000006,
          0.01294427190999916
        ]
      ],
      "surfaces": [
        {
          "type": "plane",
          "plane": {
            "xAxis": [
              1,
              0,
              -0
            ],
            "yAxis": [
              -0,
              1,
              0
            ],
            "origin": [
              -0.01,
              0.02,
              0.02
            ]
          }
        },
        {
          "type": "plane",
          "plane": {
            "xAxis": [
              0.447213595499958,
              0,
              -0.894427190999916
            ],
            "yAxis": [
              -0,
              1,
              0
            ],
            "origin": [
              0.01,
              0.02,
              -0
            ]
          }
        },
        {
          "type": "plane",
          "plane": {
            "xAxis": [
              0.7071067811865476,
              0,
              -0.7071067811865476
            ],
            "yAxis": [
              0,
              -1,
              -0
            ],
            "origin": [
              0,
              0.02,
              -0
            ]
          }
        },
        {
          "type": "plane",
          "plane": {
            "xAxis": [
              1,
              0,
              0
            ],
            "yAxis": [
              0,
              0,
              -1
            ],
            "origin": [
              0,
              0,
              -0
            ]
          }
        },
        {
          "type": "plane",
          "plane": {
            "xAxis": [
              1,
              0,
              0
            ],
            "yAxis": [
              0,
              0,
              -1
            ],
            "origin": [
              0,
              0.04,
              -0
            ]
          }
        },
        {
          "type": "cylinder",
          "cylinder": {
            "xAxis": [
              0.4472135954999583,
              0.00000000000000035527136788005006,
              -0.8944271909999157
            ],
            "yAxis": [
              -0.0000000000000001588821858078255,
              1,
              0.0000000000000003177643716156509
            ],
            "origin": [
              0.025888543819998316,
              0.015000000000000005,
              0.01294427190999916
            ],
            "radius": 0.010000000000000002
          }
        },
        {
          "type": "plane",
          "plane": {
            "xAxis": [
              0.447213595499958,
              0,
              -0.894427190999916
            ],
            "yAxis": [
              -0,
              1,
              0
            ],
            "origin": [
              0.04377708763999664,
              0.000000000000000003552713678800501,
              0.02188854381999832
            ]
          }
        }
      ],
      "curves3D": [
        {
          "type": "line",
          "line": {
            "origin": [
              -0.02,
              0,
              0.02
            ],
            "direction": [
              1,
              0,
              -0
            ]
          }
        },
        {
          "type": "line",
          "line": {
            "origin": [
              0,
              0,
              0.02
            ],
            "direction": [
              0,
              1,
              0
            ]
          }
        },
        {
          "type": "line",
          "line": {
            "origin": [
              -0.02,
              0.04,
              0.02
            ],
            "direction": [
              1,
              0,
              -0
            ]
          }
        },
        {
          "type": "line",
          "line": {
            "origin": [
              -0.02,
              0,
              0.02
            ],
            "direction": [
              0,
              1,
              0
            ]
          }
        },
        {
          "type": "line",
          "line": {
            "origin": [
              0,
              0,
              0.02
            ],
            "direction": [
              0.447213595499958,
              0,
              -0.894427190999916
            ]
          }
        },
        {
          "type": "line",
          "line": {
            "origin": [
              0.02,
              0,
              -0.02
            ],
            "direction": [
              0,
              1,
              0
            ]
          }
        },
        {
          "type": "line",
          "line": {
            "origin": [
              0,
              0.04,
              0.02
            ],
            "direction": [
              0.447213595499958,
              0,
              -0.894427190999916
            ]
          }
        },
        {
          "type": "circle",
          "circle": {
            "xAxis": [
              0.4472135954999579,
              -0.00000000000000000000000000000004930380657631318,
              -0.894427190999916
            ],
            "yAxis": [
              0.000000000000000000000000000000035278932177324,
              1,
              -0.00000000000000000000000000000003748386543840671
            ],
            "origin": [
              0.008,
              0.015000000000000006,
              0.003999999999999998
            ],
            "radius": 0.009999999999999998
          }
        },
        {
          "type": "line",
          "line": {
            "origin": [
              0.02,
              0,
              -0.02
            ],
            "direction": [
              -0.7071067811865476,
              0,
              0.7071067811865476
            ]
          }
        },
        {
          "type": "line",
          "line": {
            "origin": [
              0.02,
              0.04,
              -0.02
            ],
            "direction": [
              -0.7071067811865476,
              0,
              0.7071067811865476
            ]
          }
        },
        {
          "type": "line",
          "line": {
            "origin": [
              0.02141640786499873,
              0.015,
              0.02188854381999832
            ],
            "direction": [
              0.8944271909999157,
              -0.00000000000000000000000000000009860761315262648,
              0.4472135954999583
            ]
          }
        },
        {
          "type": "line",
          "line": {
            "origin": [
              0.0303606797749979,
              0.015000000000000006,
              0.004
            ],
            "direction": [
              0.8944271909999157,
              -0.00000000000000000000000000000009860761315262648,
              0.4472135954999583
            ]
          }
        },
        {
          "type": "circle",
          "circle": {
            "xAxis": [
              0.4472135954999581,
              0.00000000000000000000000000000000000000000000003557984382074731,
              -0.8944271909999159
            ],
            "yAxis": [
              0.000000000000000000000000000000044098665221655017,
              1,
              0.000000000000000000000000000000022049332610827558
            ],
            "origin": [
              0.043777087639996645,
              0.015000000000000006,
              0.021888543819998316
            ],
            "radius": 0.009999999999999998
          }
        }
      ]
    }
  },
  "extensionsUsed": [
    "KITTYCAD_boundary_representation"
  ],
  "meshes": [
    {
      "primitives": [
        {
          "attributes": {
            "POSITION": 0,
            "NORMAL": 1
          }
        },
        {
          "attributes": {
            "POSITION": 2,
            "NORMAL": 3
          }
        },
        {
          "attributes": {
            "POSITION": 4,
            "NORMAL": 5
          }
        },
        {
          "attributes": {
            "POSITION": 6,
            "NORMAL": 7
          }
        },
        {
          "attributes": {
            "POSITION": 8,
            "NORMAL": 9
          }
        },
        {
          "attributes": {
            "POSITION": 10,
            "NORMAL": 11
          }
        },
        {
          "attributes": {
            "POSITION": 12,
            "NORMAL": 13
          }
        },
        {
          "attributes": {
            "POSITION": 14,
            "NORMAL": 15
          }
        }
      ]
    }
  ],
  "nodes": [
    {
      "children": [
        1
      ]
    },
    {
      "children": [
        2
      ]
    },
    {
      "extensions": {
        "KITTYCAD_boundary_representation": {
          "solid": 0
        }
      },
      "mesh": 0
    }
  ],
  "scenes": [
    {
      "nodes": [
        0
      ]
    }
  ]
}