{
  "accessors": [
    {
      "bufferView": 0,
      "byteOffset": 0,
      "count": 16623,
      "componentType": 5126,
      "type": "VEC3",
      "min": [
        -0.30000001192092896,
        -0.000000000000000012246467698671066,
        -0.30000001192092896
      ],
      "max": [
        0.30000001192092896,
        0.10000000149011612,
        0.00000000000000003673940557755504
      ]
    },
    {
      "bufferView": 0,
      "byteOffset": 12,
      "count": 16623,
      "componentType": 5126,
      "type": "VEC3"
    },
    {
      "bufferView": 1,
      "byteOffset": 0,
      "count": 16617,
      "componentType": 5126,
      "type": "VEC3",
      "min": [
        -0.30000001192092896,
        -0.10000000149011612,
        -0.30000001192092896
      ],
      "max": [
        0.30000001192092896,
        0.000000000000000012246467698671066,
        0.00000000000000003673940557755504
      ]
    },
    {
      "bufferView": 1,
      "byteOffset": 12,
      "count": 16617,
      "componentType": 5126,
      "type": "VEC3"
    },
    {
      "bufferView": 2,
      "byteOffset": 0,
      "count": 16140,
      "componentType": 5126,
      "type": "VEC3",
      "min": [
        -0.30000001192092896,
        -0.000000000000000012246467698671066,
        -0.00000000000000007344930396829908
      ],
      "max": [
        0.30000001192092896,
        0.10000000149011612,
        0.30000001192092896
      ]
    },
    {
      "bufferView": 2,
      "byteOffset": 12,
      "count": 16140,
      "componentType": 5126,
      "type": "VEC3"
    },
    {
      "bufferView": 3,
      "byteOffset": 0,
      "count": 16626,
      "componentType": 5126,
      "type": "VEC3",
      "min": [
        -0.30000001192092896,
        -0.10000000149011612,
        -0.00000000000000007336086843464981
      ],
      "max": [
        0.30000001192092896,
        0.000000000000000012246467698671066,
        0.30000001192092896
      ]
    },
    {
      "bufferView": 3,
      "byteOffset": 12,
      "count": 16626,
      "componentType": 5126,
      "type": "VEC3"
    }
  ],
  "asset": {
    "generator": "zoo.dev",
    "version": "2.0"
  },
  "buffers": [
    {
      "byteLength": 1584144,
      "uri": "data:application/octet-stream;base64,"
    }
  ],
  "bufferViews": [
    {
      "buffer": 0,
      "byteLength": 398952,
      "byteOffset": 0,
      "byteStride": 24,
      "target": 34962
    },
    {
      "buffer": 0,
      "byteLength": 398808,
      "byteOffset": 398952,
      "byteStride": 24,
      "target": 34962
    },
    {
      "buffer": 0,
      "byteLength": 387360,
      "byteOffset": 797760,
      "byteStride": 24,
      "target": 34962
    },
    {
      "buffer": 0,
      "byteLength": 399024,
      "byteOffset": 1185120,
      "byteStride": 24,
      "target": 34962
    }
  ],
  "scene": 0,
  "extensions": {
    "KITTYCAD_boundary_representation": {
      "solids": [
        {
          "shells": [
            [
              0,
              1
            ]
          ],
          "mesh": 0
        }
      ],
      "shells": [
        {
          "faces": [
            [
              0,
              1
            ],
            [
              1,
              1
            ],
            [
              2,
              1
            ],
            [
              3,
              1
            ]
          ]
        }
      ],
      "faces": [
        {
          "surface": [
            0,
            1
          ],
          "loops": [
            [
              0,
              1
            ]
          ]
        },
        {
          "surface": [
            0,
            1
          ],
          "loops": [
            [
              1,
              1
            ]
          ]
        },
        {
          "surface": [
            0,
            1
          ],
          "loops": [
            [
              2,
              1
            ]
          ]
        },
        {
          "surface": [
            0,
            1
          ],
          "loops": [
            [
              3,
              1
            ]
          ]
        }
      ],
      "loops": [
        {
          "edges": [
            [
              0,
              1
            ],
            [
              1,
              1
            ],
            [
              2,
              1
            ],
            [
              3,
              1
            ]
          ]
        },
        {
          "edges": [
            [
              0,
              -1
            ],
            [
              4,
              1
            ],
            [
              2,
              -1
            ],
            [
              5,
              1
            ]
          ]
        },
        {
          "edges": [
            [
              6,
              1
            ],
            [
              3,
              -1
            ],
            [
              7,
              1
            ],
            [
              1,
              -1
            ]
          ]
        },
        {
          "edges": [
            [
              6,
              -1
            ],
            [
              5,
              -1
            ],
            [
              7,
              -1
            ],
            [
              4,
              -1
            ]
          ]
        }
      ],
      "edges": [
        {
          "curve": [
            0,
            -1
          ],
          "start": 0,
          "end": 1,
          "t": [
            3.141592653589793,
            6.283185307179586
          ]
        },
        {
          "curve": [
            1,
            -1
          ],
          "start": 1,
          "end": 2,
          "t": [
            0,
            3.141592653589793
          ]
        },
        {
          "curve": [
            2,
            1
          ],
          "start": 2,
          "end": 3,
          "t": [
            3.141592653589793,
            6.283185307179586
          ]
        },
        {
          "curve": [
            3,
            1
          ],
          "start": 3,
          "end": 0,
          "t": [
            0,
            3.141592653589793
          ]
        },
        {
          "curve": [
            4,
            1
          ],
          "start": 0,
          "end": 3,
          "t": [
            3.141592653589793,
            6.283185307179586
          ]
        },
        {
          "curve": [
            1,
            -1
          ],
          "start": 2,
          "end": 1,
          "t": [
            3.141592653589793,
            6.283185307179586
          ]
        },
        {
          "curve": [
            5,
            -1
          ],
          "start": 1,
          "end": 0,
          "t": [
            0,
            3.141592653589793
          ]
        },
        {
          "curve": [
            6,
            1
          ],
          "start": 3,
          "end": 2,
          "t": [
            0,
            3.141592653589793
          ]
        }
      ],
      "vertices": [
        [
          -0.1,
          0.000000000000000012246467991473533,
          -0.000000000000000024492935982947065
        ],
        [
          0.1,
          0.000000000000000012246467991473533,
          0.000000000000000012246467991473533
        ],
        [
          0.30000000000000004,
          0,
          0.0000000000000000367394039744206
        ],
        [
          -0.30000000000000004,
          -0.000000000000000012246467991473533,
          -0.0000000000000000367394039744206
        ]
      ],
      "surfaces": [
        {
          "type": "torus",
          "torus": {
            "xAxis": [
              -1,
              0,
              -0
            ],
            "yAxis": [
              0,
              0,
              1
            ],
            "origin": [
              0,
              0,
              -0
            ],
            "majorRadius": 0.2,
            "minorRadius": 0.1
          }
        }
      ],
      "curves3D": [
        {
          "type": "circle",
          "circle": {
            "xAxis": [
              -1,
              0,
              0
            ],
            "yAxis": [
              0,
              -0,
              1
            ],
            "origin": [
              0,
              0.000000000000000012246467991473533,
              0
            ],
            "radius": 0.1
          }
        },
        {
          "type": "circle",
          "circle": {
            "xAxis": [
              1,
              0,
              0.00000000000000012246467991473532
            ],
            "yAxis": [
              0,
              1,
              -0
            ],
            "origin": [
              0.2,
              0,
              0.000000000000000024492935982947065
            ],
            "radius": 0.1
          }
        },
        {
          "type": "circle",
          "circle": {
            "xAxis": [
              -1,
              0,
              -0
            ],
            "yAxis": [
              0,
              0,
              1
            ],
            "origin": [
              0,
              0,
              -0
            ],
            "radius": 0.30000000000000004
          }
        },
        {
          "type": "circle",
          "circle": {
            "xAxis": [
              -1,
              0,
              -0.00000000000000024492935982947064
            ],
            "yAxis": [
              0,
              1,
              0
            ],
            "origin": [
              -0.2,
              0,
              -0.000000000000000048985871965894125
            ],
            "radius": 0.1
          }
        },
        {
          "type": "circle",
          "circle": {
            "xAxis": [
              -1,
              0,
              -0.00000000000000024492935982947064
            ],
            "yAxis": [
              0,
              1,
              0
            ],
            "origin": [
              -0.2,
              0,
              -0.000000000000000048985871965894125
            ],
            "radius": 0.1
          }
        },
        {
          "type": "circle",
          "circle": {
            "xAxis": [
              -1,
              0,
              0
            ],
            "yAxis": [
              0,
              -0,
              1
            ],
            "origin": [
              0,
              0.000000000000000012246467991473533,
              0
            ],
            "radius": 0.1
          }
        },
        {
          "type": "circle",
          "circle": {
            "xAxis": [
              -1,
              0,
              -0
            ],
            "yAxis": [
              0,
              0,
              1
            ],
            "origin": [
              0,
              0,
              -0
            ],
            "radius": 0.30000000000000004
          }
        }
      ]
    }
  },
  "extensionsUsed": [
    "KITTYCAD_boundary_representation"
  ],
  "meshes": [
    {
      "primitives": [
        {
          "attributes": {
            "POSITION": 0,
            "NORMAL": 1
          }
        },
        {
          "attributes": {
            "POSITION": 2,
            "NORMAL": 3
          }
        },
        {
          "attributes": {
            "POSITION": 4,
            "NORMAL": 5
          }
        },
        {
          "attributes": {
            "POSITION": 6,
            "NORMAL": 7
          }
        }
      ]
    }
  ],
  "nodes": [
    {
      "children": [
        1
      ]
    },
    {
      "children": [
        2
      ]
    },
    {
      "extensions": {
        "KITTYCAD_boundary_representation": {
          "solid": 0
        }
      },
      "mesh": 0
    }
  ],
  "scenes": [
    {
      "nodes": [
        0
      ]
    }
  ]
}