{
  "accessors": [
    {
      "bufferView": 0,
      "byteOffset": 0,
      "count": 6,
      "componentType": 5126,
      "type": "VEC3",
      "min": [
        0.0007949999999254942,
        0.004999999888241291,
        0.00039000000106170774
      ],
      "max": [
        0.002795000094920397,
        0.004999999888241291,
        0.004389999900013208
      ]
    },
    {
      "bufferView": 0,
      "byteOffset": 12,
      "count": 6,
      "componentType": 5126,
      "type": "VEC3"
    },
    {
      "bufferView": 1,
      "byteOffset": 0,
      "count": 6,
      "componentType": 5126,
      "type": "VEC3",
      "min": [
        0.0007949999999254942,
        0.0020000000949949026,
        0.00039000000106170774
      ],
      "max": [
        0.0007949999999254942,
        0.004999999888241291,
        0.004389999900013208
      ]
    },
    {
      "bufferView": 1,
      "byteOffset": 12,
      "count": 6,
      "componentType": 5126,
      "type": "VEC3"
    },
    {
      "bufferView": 2,
      "byteOffset": 0,
      "count": 6,
      "componentType": 5126,
      "type": "VEC3",
      "min": [
        0.0007949999999254942,
        0.0020000000949949026,
        0.00039000000106170774
      ],
      "max": [
        0.002795000094920397,
        0.004999999888241291,
        0.00039000000106170774
      ]
    },
    {
      "bufferView": 2,
      "byteOffset": 12,
      "count": 6,
      "componentType": 5126,
      "type": "VEC3"
    },
    {
      "bufferView": 3,
      "byteOffset": 0,
      "count": 6,
      "componentType": 5126,
      "type": "VEC3",
      "min": [
        0.0007949999999254942,
        0.0020000000949949026,
        0.00039000000106170774
      ],
      "max": [
        0.002795000094920397,
        0.0020000000949949026,
        0.004389999900013208
      ]
    },
    {
      "bufferView": 3,
      "byteOffset": 12,
      "count": 6,
      "componentType": 5126,
      "type": "VEC3"
    },
    {
      "bufferView": 4,
      "byteOffset": 0,
      "count": 6,
      "componentType": 5126,
      "type": "VEC3",
      "min": [
        0.0007949999999254942,
        0.0020000000949949026,
        0.004389999900013208
      ],
      "max": [
        0.002795000094920397,
        0.004999999888241291,
        0.004389999900013208
      ]
    },
    {
      "bufferView": 4,
      "byteOffset": 12,
      "count": 6,
      "componentType": 5126,
      "type": "VEC3"
    },
    {
      "bufferView": 5,
      "byteOffset": 0,
      "count": 6,
      "componentType": 5126,
      "type": "VEC3",
      "min": [
        0.002795000094920397,
        0.0020000000949949026,
        0.00039000000106170774
      ],
      "max": [
        0.002795000094920397,
        0.004999999888241291,
        0.004389999900013208
      ]
    },
    {
      "bufferView": 5,
      "byteOffset": 12,
      "count": 6,
      "componentType": 5126,
      "type": "VEC3"
    }
  ],
  "asset": {
    "generator": "zoo.dev",
    "version": "2.0"
  },
  "buffers": [
    {
      "byteLength": 864,
      "uri": "data:application/octet-stream;base64,"
    }
  ],
  "bufferViews": [
    {
      "buffer": 0,
      "byteLength": 144,
      "byteOffset": 0,
      "byteStride": 24,
      "target": 34962
    },
    {
      "buffer": 0,
      "byteLength": 144,
      "byteOffset": 144,
      "byteStride": 24,
      "target": 34962
    },
    {
      "buffer": 0,
      "byteLength": 144,
      "byteOffset": 288,
      "byteStride": 24,
      "target": 34962
    },
    {
      "buffer": 0,
      "byteLength": 144,
      "byteOffset": 432,
      "byteStride": 24,
      "target": 34962
    },
    {
      "buffer": 0,
      "byteLength": 144,
      "byteOffset": 576,
      "byteStride": 24,
      "target": 34962
    },
    {
      "buffer": 0,
      "byteLength": 144,
      "byteOffset": 720,
      "byteStride": 24,
      "target": 34962
    }
  ],
  "scene": 0,
  "extensions": {
    "KITTYCAD_boundary_representation": {
      "solids": [
        {
          "shells": [
            [
              0,
              1
            ]
          ],
          "mesh": 0,
          "extras": {
            "KITTYCAD": {
              "material": 0
            }
          }
        }
      ],
      "shells": [
        {
          "faces": [
            [
              0,
              1
            ],
            [
              1,
              1
            ],
            [
              2,
              1
            ],
            [
              3,
              1
            ],
            [
              4,
              1
            ],
            [
              5,
              1
            ]
          ]
        }
      ],
      "faces": [
        {
          "surface": [
            0,
            1
          ],
          "loops": [
            [
              0,
              1
            ]
          ]
        },
        {
          "surface": [
            1,
            1
          ],
          "loops": [
            [
              1,
              1
            ]
          ]
        },
        {
          "surface": [
            2,
            1
          ],
          "loops": [
            [
              2,
              1
            ]
          ]
        },
        {
          "surface": [
            3,
            -1
          ],
          "loops": [
            [
              3,
              1
            ]
          ]
        },
        {
          "surface": [
            4,
            1
          ],
          "loops": [
            [
              4,
              1
            ]
          ]
        },
        {
          "surface": [
            5,
            1
          ],
          "loops": [
            [
              5,
              1
            ]
          ]
        }
      ],
      "loops": [
        {
          "edges": [
            [
              0,
              1
            ],
            [
              1,
              1
            ],
            [
              2,
              1
            ],
            [
              3,
              1
            ]
          ]
        },
        {
          "edges": [
            [
              4,
              1
            ],
            [
              5,
              1
            ],
            [
              2,
              -1
            ],
            [
              6,
              -1
            ]
          ]
        },
        {
          "edges": [
            [
              1,
              -1
            ],
            [
              7,
              -1
            ],
            [
              8,
              -1
            ],
            [
              6,
              1
            ]
          ]
        },
        {
          "edges": [
            [
              8,
              1
            ],
            [
              9,
              1
            ],
            [
              10,
              -1
            ],
            [
              4,
              -1
            ]
          ]
        },
        {
          "edges": [
            [
              10,
              1
            ],
            [
              11,
              -1
            ],
            [
              3,
              -1
            ],
            [
              5,
              -1
            ]
          ]
        },
        {
          "edges": [
            [
              7,
              1
            ],
            [
              0,
              -1
            ],
            [
              11,
              1
            ],
            [
              9,
              -1
            ]
          ]
        }
      ],
      "edges": [
        {
          "curve": [
            0,
            1
          ],
          "start": 0,
          "end": 1,
          "t": [
            0,
            0.004
          ]
        },
        {
          "curve": [
            1,
            1
          ],
          "start": 1,
          "end": 2,
          "t": [
            0,
            0.002
          ]
        },
        {
          "curve": [
            2,
            1
          ],
          "start": 2,
          "end": 3,
          "t": [
            0,
            0.004
          ]
        },
        {
          "curve": [
            3,
            1
          ],
          "start": 3,
          "end": 0,
          "t": [
            0,
            0.002
          ]
        },
        {
          "curve": [
            4,
            1
          ],
          "start": 4,
          "end": 5,
          "t": [
            0,
            0.004
          ]
        },
        {
          "curve": [
            5,
            1
          ],
          "start": 5,
          "end": 3,
          "t": [
            0,
            0.003
          ]
        },
        {
          "curve": [
            6,
            1
          ],
          "start": 4,
          "end": 2,
          "t": [
            0,
            0.003
          ]
        },
        {
          "curve": [
            7,
            1
          ],
          "start": 6,
          "end": 1,
          "t": [
            0,
            0.003
          ]
        },
        {
          "curve": [
            8,
            1
          ],
          "start": 4,
          "end": 6,
          "t": [
            0,
            0.002
          ]
        },
        {
          "curve": [
            9,
            1
          ],
          "start": 6,
          "end": 7,
          "t": [
            0,
            0.004
          ]
        },
        {
          "curve": [
            10,
            1
          ],
          "start": 5,
          "end": 7,
          "t": [
            0,
            0.002
          ]
        },
        {
          "curve": [
            11,
            1
          ],
          "start": 0,
          "end": 7,
          "t": [
            0,
            0.003
          ]
        }
      ],
      "vertices": [
        [
          0.002795,
          0.005,
          0.00439
        ],
        [
          0.002795,
          0.005,
          0.00039
        ],
        [
          0.000795,
          0.005,
          0.00039
        ],
        [
          0.000795,
          0.005,
          0.00439
        ],
        [
          0.000795,
          0.002,
          0.00039
        ],
        [
          0.000795,
          0.002,
          0.00439
        ],
        [
          0.002795,
          0.002,
          0.00039
        ],
        [
          0.002795,
          0.002,
          0.00439
        ]
      ],
      "surfaces": [
        {
          "type": "plane",
          "plane": {
            "xAxis": [
              1,
              0,
              0
            ],
            "yAxis": [
              0,
              0,
              -1
            ],
            "origin": [
              0,
              0.005,
              -0
            ]
          }
        },
        {
          "type": "plane",
          "plane": {
            "xAxis": [
              0,
              1,
              0
            ],
            "yAxis": [
              0,
              0,
              -1
            ],
            "origin": [
              0.000795,
              0.0045,
              0.00189
            ]
          }
        },
        {
          "type": "plane",
          "plane": {
            "xAxis": [
              1,
              0,
              0
            ],
            "yAxis": [
              0,
              -1,
              0
            ],
            "origin": [
              0.000295,
              0.0025,
              0.00039
            ]
          }
        },
        {
          "type": "plane",
          "plane": {
            "xAxis": [
              1,
              0,
              0
            ],
            "yAxis": [
              0,
              0,
              -1
            ],
            "origin": [
              0.003,
              0.002,
              -0.001
            ]
          }
        },
        {
          "type": "plane",
          "plane": {
            "xAxis": [
              1,
              0,
              -0
            ],
            "yAxis": [
              -0,
              1,
              0
            ],
            "origin": [
              0.003295,
              0.0045,
              0.00439
            ]
          }
        },
        {
          "type": "plane",
          "plane": {
            "xAxis": [
              -0,
              1,
              0
            ],
            "yAxis": [
              0,
              -0,
              1
            ],
            "origin": [
              0.002795,
              0.0025,
              0.00289
            ]
          }
        }
      ],
      "curves3D": [
        {
          "type": "line",
          "line": {
            "origin": [
              0.002795,
              0.005,
              0.00439
            ],
            "direction": [
              0,
              0,
              -1
            ]
          }
        },
        {
          "type": "line",
          "line": {
            "origin": [
              0.002795,
              0.005,
              0.00039
            ],
            "direction": [
              -1,
              0,
              0
            ]
          }
        },
        {
          "type": "line",
          "line": {
            "origin": [
              0.000795,
              0.005,
              0.00039
            ],
            "direction": [
              0,
              0,
              1
            ]
          }
        },
        {
          "type": "line",
          "line": {
            "origin": [
              0.000795,
              0.005,
              0.00439
            ],
            "direction": [
              1,
              0,
              -0
            ]
          }
        },
        {
          "type": "line",
          "line": {
            "origin": [
              0.000795,
              0.002,
              0.00039
            ],
            "direction": [
              0,
              0,
              1
            ]
          }
        },
        {
          "type": "line",
          "line": {
            "origin": [
              0.000795,
              0.002,
              0.00439
            ],
            "direction": [
              0,
              1,
              0
            ]
          }
        },
        {
          "type": "line",
          "line": {
            "origin": [
              0.000795,
              0.002,
              0.00039
            ],
            "direction": [
              0,
              1,
              0
            ]
          }
        },
        {
          "type": "line",
          "line": {
            "origin": [
              0.002795,
              0.002,
              0.00039
            ],
            "direction": [
              0,
              1,
              0
            ]
          }
        },
        {
          "type": "line",
          "line": {
            "origin": [
              0.000795,
              0.002,
              0.00039
            ],
            "direction": [
              1,
              0,
              -0
            ]
          }
        },
        {
          "type": "line",
          "line": {
            "origin": [
              0.002795,
              0.002,
              0.00039
            ],
            "direction": [
              0,
              0,
              1
            ]
          }
        },
        {
          "type": "line",
          "line": {
            "origin": [
              0.000795,
              0.002,
              0.00439
            ],
            "direction": [
              1,
              0,
              -0
            ]
          }
        },
        {
          "type": "line",
          "line": {
            "origin": [
              0.002795,
              0.005,
              0.00439
            ],
            "direction": [
              0,
              -1,
              0
            ]
          }
        }
      ]
    }
  },
  "extensionsUsed": [
    "KITTYCAD_boundary_representation"
  ],
  "materials": [
    {
      "alphaMode": "OPAQUE",
      "doubleSided": false,
      "pbrMetallicRoughness": {
        "baseColorFactor": [
          0.13333334,
          0.6,
          0.13333334,
          1
        ],
        "metallicFactor": 1,
        "roughnessFactor": 1
      },
      "emissiveFactor": [
        0,
        0,
        0
      ]
    }
  ],
  "meshes": [
    {
      "primitives": [
        {
          "attributes": {
            "POSITION": 0,
            "NORMAL": 1
          },
          "material": 0
        },
        {
          "attributes": {
            "POSITION": 2,
            "NORMAL": 3
          },
          "material": 0
        },
        {
          "attributes": {
            "POSITION": 4,
            "NORMAL": 5
          },
          "material": 0
        },
        {
          "attributes": {
            "POSITION": 6,
            "NORMAL": 7
          },
          "material": 0
        },
        {
          "attributes": {
            "POSITION": 8,
            "NORMAL": 9
          },
          "material": 0
        },
        {
          "attributes": {
            "POSITION": 10,
            "NORMAL": 11
          },
          "material": 0
        }
      ]
    }
  ],
  "nodes": [
    {
      "children": [
        1
      ]
    },
    {
      "children": [
        2
      ]
    },
    {
      "extensions": {
        "KITTYCAD_boundary_representation": {
          "solid": 0
        }
      },
      "mesh": 0
    }
  ],
  "scenes": [
    {
      "nodes": [
        0
      ]
    }
  ]
}