{
  "accessors": [
    {
      "bufferView": 0,
      "byteOffset": 0,
      "count": 384,
      "componentType": 5126,
      "type": "VEC3",
      "min": [
        -0.05999999865889549,
        -0.05999999865889549,
        0
      ],
      "max": [
        0.05999999865889549,
        0.000000000000000007347880950074886,
        0.009999999776482582
      ]
    },
    {
      "bufferView": 0,
      "byteOffset": 12,
      "count": 384,
      "componentType": 5126,
      "type": "VEC3"
    },
    {
      "bufferView": 1,
      "byteOffset": 0,
      "count": 96,
      "componentType": 5126,
      "type": "VEC3",
      "min": [
        0.04600000008940697,
        -0.0000000000000000004898587368981641,
        0
      ],
      "max": [
        0.05400000140070915,
        0.004000000189989805,
        0.009999999776482582
      ]
    },
    {
      "bufferView": 1,
      "byteOffset": 12,
      "count": 96,
      "componentType": 5126,
      "type": "VEC3"
    },
    {
      "bufferView": 2,
      "byteOffset": 0,
      "count": 96,
      "componentType": 5126,
      "type": "VEC3",
      "min": [
        0.03930983319878578,
        0.023000000044703484,
        0
      ],
      "max": [
        0.04676536843180656,
        0.02899143658578396,
        0.009999999776482582
      ]
    },
    {
      "bufferView": 2,
      "byteOffset": 12,
      "count": 96,
      "componentType": 5126,
      "type": "VEC3"
    },
    {
      "bufferView": 3,
      "byteOffset": 0,
      "count": 96,
      "componentType": 5126,
      "type": "VEC3",
      "min": [
        0.0210085641592741,
        0.03983716666698456,
        0
      ],
      "max": [
        0.027000000700354576,
        0.04729270562529564,
        0.009999999776482582
      ]
    },
    {
      "bufferView": 3,
      "byteOffset": 12,
      "count": 96,
      "componentType": 5126,
      "type": "VEC3"
    },
    {
      "bufferView": 4,
      "byteOffset": 0,
      "count": 96,
      "componentType": 5126,
      "type": "VEC3",
      "min": [
        -0.004000000189989805,
        0.04600000008940697,
        0
      ],
      "max": [
        0.0000000000000000004898587368981641,
        0.05400000140070915,
        0.009999999776482582
      ]
    },
    {
      "bufferView": 4,
      "byteOffset": 12,
      "count": 96,
      "componentType": 5126,
      "type": "VEC3"
    },
    {
      "bufferView": 5,
      "byteOffset": 0,
      "count": 96,
      "componentType": 5126,
      "type": "VEC3",
      "min": [
        -0.02899143658578396,
        0.03930983319878578,
        0
      ],
      "max": [
        -0.023000000044703484,
        0.04676536843180656,
        0.009999999776482582
      ]
    },
    {
      "bufferView": 5,
      "byteOffset": 12,
      "count": 96,
      "componentType": 5126,
      "type": "VEC3"
    },
    {
      "bufferView": 6,
      "byteOffset": 0,
      "count": 96,
      "componentType": 5126,
      "type": "VEC3",
      "min": [
        -0.04729270562529564,
        0.0210085641592741,
        0
      ],
      "max": [
        -0.03983716666698456,
        0.027000000700354576,
        0.009999999776482582
      ]
    },
    {
      "bufferView": 6,
      "byteOffset": 12,
      "count": 96,
      "componentType": 5126,
      "type": "VEC3"
    },
    {
      "bufferView": 7,
      "byteOffset": 0,
      "count": 96,
      "componentType": 5126,
      "type": "VEC3",
      "min": [
        -0.05400000140070915,
        -0.004000000189989805,
        0
      ],
      "max": [
        -0.04600000008940697,
        0.0000000000000000004898587368981641,
        0.009999999776482582
      ]
    },
    {
      "bufferView": 7,
      "byteOffset": 12,
      "count": 96,
      "componentType": 5126,
      "type": "VEC3"
    },
    {
      "bufferView": 8,
      "byteOffset": 0,
      "count": 96,
      "componentType": 5126,
      "type": "VEC3",
      "min": [
        -0.04676536843180656,
        -0.02899143658578396,
        0
      ],
      "max": [
        -0.03930983319878578,
        -0.023000000044703484,
        0.009999999776482582
      ]
    },
    {
      "bufferView": 8,
      "byteOffset": 12,
      "count": 96,
      "componentType": 5126,
      "type": "VEC3"
    },
    {
      "bufferView": 9,
      "byteOffset": 0,
      "count": 96,
      "componentType": 5126,
      "type": "VEC3",
      "min": [
        -0.027000000700354576,
        -0.04729270562529564,
        0
      ],
      "max": [
        -0.0210085641592741,
        -0.03983716666698456,
        0.009999999776482582
      ]
    },
    {
      "bufferView": 9,
      "byteOffset": 12,
      "count": 96,
      "componentType": 5126,
      "type": "VEC3"
    },
    {
      "bufferView": 10,
      "byteOffset": 0,
      "count": 96,
      "componentType": 5126,
      "type": "VEC3",
      "min": [
        -0.0000000000000000004898587368981641,
        -0.05400000140070915,
        0
      ],
      "max": [
        0.004000000189989805,
        -0.04600000008940697,
        0.009999999776482582
      ]
    },
    {
      "bufferView": 10,
      "byteOffset": 12,
      "count": 96,
      "componentType": 5126,
      "type": "VEC3"
    },
    {
      "bufferView": 11,
      "byteOffset": 0,
      "count": 96,
      "componentType": 5126,
      "type": "VEC3",
      "min": [
        0.023000000044703484,
        -0.04676536843180656,
        0
      ],
      "max": [
        0.02899143658578396,
        -0.03930983319878578,
        0.009999999776482582
      ]
    },
    {
      "bufferView": 11,
      "byteOffset": 12,
      "count": 96,
      "componentType": 5126,
      "type": "VEC3"
    },
    {
      "bufferView": 12,
      "byteOffset": 0,
      "count": 96,
      "componentType": 5126,
      "type": "VEC3",
      "min": [
        0.03983716666698456,
        -0.027000000700354576,
        0
      ],
      "max": [
        0.04729270562529564,
        -0.0210085641592741,
        0.009999999776482582
      ]
    },
    {
      "bufferView": 12,
      "byteOffset": 12,
      "count": 96,
      "componentType": 5126,
      "type": "VEC3"
    },
    {
      "bufferView": 13,
      "byteOffset": 0,
      "count": 1602,
      "componentType": 5126,
      "type": "VEC3",
      "min": [
        -0.05999999865889549,
        -0.05999999865889549,
        0
      ],
      "max": [
        0.05999999865889549,
        0.05999999865889549,
        0
      ]
    },
    {
      "bufferView": 13,
      "byteOffset": 12,
      "count": 1602,
      "componentType": 5126,
      "type": "VEC3"
    },
    {
      "bufferView": 14,
      "byteOffset": 0,
      "count": 1602,
      "componentType": 5126,
      "type": "VEC3",
      "min": [
        -0.05999999865889549,
        -0.05999999865889549,
        0.009999999776482582
      ],
      "max": [
        0.05999999865889549,
        0.05999999865889549,
        0.009999999776482582
      ]
    },
    {
      "bufferView": 14,
      "byteOffset": 12,
      "count": 1602,
      "componentType": 5126,
      "type": "VEC3"
    },
    {
      "bufferView": 15,
      "byteOffset": 0,
      "count": 384,
      "componentType": 5126,
      "type": "VEC3",
      "min": [
        -0.05999999865889549,
        0,
        0
      ],
      "max": [
        0.05999999865889549,
        0.05999999865889549,
        0.009999999776482582
      ]
    },
    {
      "bufferView": 15,
      "byteOffset": 12,
      "count": 384,
      "componentType": 5126,
      "type": "VEC3"
    },
    {
      "bufferView": 16,
      "byteOffset": 0,
      "count": 96,
      "componentType": 5126,
      "type": "VEC3",
      "min": [
        0.04600000008940697,
        -0.004000000189989805,
        0
      ],
      "max": [
        0.05400000140070915,
        -0,
        0.009999999776482582
      ]
    },
    {
      "bufferView": 16,
      "byteOffset": 12,
      "count": 96,
      "componentType": 5126,
      "type": "VEC3"
    },
    {
      "bufferView": 17,
      "byteOffset": 0,
      "count": 96,
      "componentType": 5126,
      "type": "VEC3",
      "min": [
        0.03983716666698456,
        0.0210085641592741,
        0
      ],
      "max": [
        0.04729270562529564,
        0.027000000700354576,
        0.009999999776482582
      ]
    },
    {
      "bufferView": 17,
      "byteOffset": 12,
      "count": 96,
      "componentType": 5126,
      "type": "VEC3"
    },
    {
      "bufferView": 18,
      "byteOffset": 0,
      "count": 96,
      "componentType": 5126,
      "type": "VEC3",
      "min": [
        0.023000000044703484,
        0.03930983319878578,
        0
      ],
      "max": [
        0.02899143658578396,
        0.04676536843180656,
        0.009999999776482582
      ]
    },
    {
      "bufferView": 18,
      "byteOffset": 12,
      "count": 96,
      "componentType": 5126,
      "type": "VEC3"
    },
    {
      "bufferView": 19,
      "byteOffset": 0,
      "count": 96,
      "componentType": 5126,
      "type": "VEC3",
      "min": [
        0,
        0.04600000008940697,
        0
      ],
      "max": [
        0.004000000189989805,
        0.05400000140070915,
        0.009999999776482582
      ]
    },
    {
      "bufferView": 19,
      "byteOffset": 12,
      "count": 96,
      "componentType": 5126,
      "type": "VEC3"
    },
    {
      "bufferView": 20,
      "byteOffset": 0,
      "count": 96,
      "componentType": 5126,
      "type": "VEC3",
      "min": [
        -0.027000000700354576,
        0.03983716666698456,
        0
      ],
      "max": [
        -0.0210085641592741,
        0.04729270562529564,
        0.009999999776482582
      ]
    },
    {
      "bufferView": 20,
      "byteOffset": 12,
      "count": 96,
      "componentType": 5126,
      "type": "VEC3"
    },
    {
      "bufferView": 21,
      "byteOffset": 0,
      "count": 96,
      "componentType": 5126,
      "type": "VEC3",
      "min": [
        -0.04676536843180656,
        0.023000000044703484,
        0
      ],
      "max": [
        -0.03930983319878578,
        0.02899143658578396,
        0.009999999776482582
      ]
    },
    {
      "bufferView": 21,
      "byteOffset": 12,
      "count": 96,
      "componentType": 5126,
      "type": "VEC3"
    },
    {
      "bufferView": 22,
      "byteOffset": 0,
      "count": 96,
      "componentType": 5126,
      "type": "VEC3",
      "min": [
        -0.05400000140070915,
        0,
        0
      ],
      "max": [
        -0.04600000008940697,
        0.004000000189989805,
        0.009999999776482582
      ]
    },
    {
      "bufferView": 22,
      "byteOffset": 12,
      "count": 96,
      "componentType": 5126,
      "type": "VEC3"
    },
    {
      "bufferView": 23,
      "byteOffset": 0,
      "count": 96,
      "componentType": 5126,
      "type": "VEC3",
      "min": [
        -0.04729270562529564,
        -0.027000000700354576,
        0
      ],
      "max": [
        -0.03983716666698456,
        -0.0210085641592741,
        0.009999999776482582
      ]
    },
    {
      "bufferView": 23,
      "byteOffset": 12,
      "count": 96,
      "componentType": 5126,
      "type": "VEC3"
    },
    {
      "bufferView": 24,
      "byteOffset": 0,
      "count": 96,
      "componentType": 5126,
      "type": "VEC3",
      "min": [
        -0.02899143658578396,
        -0.04676536843180656,
        0
      ],
      "max": [
        -0.023000000044703484,
        -0.03930983319878578,
        0.009999999776482582
      ]
    },
    {
      "bufferView": 24,
      "byteOffset": 12,
      "count": 96,
      "componentType": 5126,
      "type": "VEC3"
    },
    {
      "bufferView": 25,
      "byteOffset": 0,
      "count": 96,
      "componentType": 5126,
      "type": "VEC3",
      "min": [
        -0.004000000189989805,
        -0.05400000140070915,
        0
      ],
      "max": [
        -0,
        -0.04600000008940697,
        0.009999999776482582
      ]
    },
    {
      "bufferView": 25,
      "byteOffset": 12,
      "count": 96,
      "componentType": 5126,
      "type": "VEC3"
    },
    {
      "bufferView": 26,
      "byteOffset": 0,
      "count": 96,
      "componentType": 5126,
      "type": "VEC3",
      "min": [
        0.0210085641592741,
        -0.04729270562529564,
        0
      ],
      "max": [
        0.027000000700354576,
        -0.03983716666698456,
        0.009999999776482582
      ]
    },
    {
      "bufferView": 26,
      "byteOffset": 12,
      "count": 96,
      "componentType": 5126,
      "type": "VEC3"
    },
    {
      "bufferView": 27,
      "byteOffset": 0,
      "count": 96,
      "componentType": 5126,
      "type": "VEC3",
      "min": [
        0.03930983319878578,
        -0.02899143658578396,
        0
      ],
      "max": [
        0.04676536843180656,
        -0.023000000044703484,
        0.009999999776482582
      ]
    },
    {
      "bufferView": 27,
      "byteOffset": 12,
      "count": 96,
      "componentType": 5126,
      "type": "VEC3"
    }
  ],
  "asset": {
    "generator": "zoo.dev",
    "version": "2.0"
  },
  "buffers": [
    {
      "byteLength": 150624,
      "uri": "data:application/octet-stream;base64,"
    }
  ],
  "bufferViews": [
    {
      "buffer": 0,
      "byteLength": 9216,
      "byteOffset": 0,
      "byteStride": 24,
      "target": 34962
    },
    {
      "buffer": 0,
      "byteLength": 2304,
      "byteOffset": 9216,
      "byteStride": 24,
      "target": 34962
    },
    {
      "buffer": 0,
      "byteLength": 2304,
      "byteOffset": 11520,
      "byteStride": 24,
      "target": 34962
    },
    {
      "buffer": 0,
      "byteLength": 2304,
      "byteOffset": 13824,
      "byteStride": 24,
      "target": 34962
    },
    {
      "buffer": 0,
      "byteLength": 2304,
      "byteOffset": 16128,
      "byteStride": 24,
      "target": 34962
    },
    {
      "buffer": 0,
      "byteLength": 2304,
      "byteOffset": 18432,
      "byteStride": 24,
      "target": 34962
    },
    {
      "buffer": 0,
      "byteLength": 2304,
      "byteOffset": 20736,
      "byteStride": 24,
      "target": 34962
    },
    {
      "buffer": 0,
      "byteLength": 2304,
      "byteOffset": 23040,
      "byteStride": 24,
      "target": 34962
    },
    {
      "buffer": 0,
      "byteLength": 2304,
      "byteOffset": 25344,
      "byteStride": 24,
      "target": 34962
    },
    {
      "buffer": 0,
      "byteLength": 2304,
      "byteOffset": 27648,
      "byteStride": 24,
      "target": 34962
    },
    {
      "buffer": 0,
      "byteLength": 2304,
      "byteOffset": 29952,
      "byteStride": 24,
      "target": 34962
    },
    {
      "buffer": 0,
      "byteLength": 2304,
      "byteOffset": 32256,
      "byteStride": 24,
      "target": 34962
    },
    {
      "buffer": 0,
      "byteLength": 2304,
      "byteOffset": 34560,
      "byteStride": 24,
      "target": 34962
    },
    {
      "buffer": 0,
      "byteLength": 38448,
      "byteOffset": 36864,
      "byteStride": 24,
      "target": 34962
    },
    {
      "buffer": 0,
      "byteLength": 38448,
      "byteOffset": 75312,
      "byteStride": 24,
      "target": 34962
    },
    {
      "buffer": 0,
      "byteLength": 9216,
      "byteOffset": 113760,
      "byteStride": 24,
      "target": 34962
    },
    {
      "buffer": 0,
      "byteLength": 2304,
      "byteOffset": 122976,
      "byteStride": 24,
      "target": 34962
    },
    {
      "buffer": 0,
      "byteLength": 2304,
      "byteOffset": 125280,
      "byteStride": 24,
      "target": 34962
    },
    {
      "buffer": 0,
      "byteLength": 2304,
      "byteOffset": 127584,
      "byteStride": 24,
      "target": 34962
    },
    {
      "buffer": 0,
      "byteLength": 2304,
      "byteOffset": 129888,
      "byteStride": 24,
      "target": 34962
    },
    {
      "buffer": 0,
      "byteLength": 2304,
      "byteOffset": 132192,
      "byteStride": 24,
      "target": 34962
    },
    {
      "buffer": 0,
      "byteLength": 2304,
      "byteOffset": 134496,
      "byteStride": 24,
      "target": 34962
    },
    {
      "buffer": 0,
      "byteLength": 2304,
      "byteOffset": 136800,
      "byteStride": 24,
      "target": 34962
    },
    {
      "buffer": 0,
      "byteLength": 2304,
      "byteOffset": 139104,
      "byteStride": 24,
      "target": 34962
    },
    {
      "buffer": 0,
      "byteLength": 2304,
      "byteOffset": 141408,
      "byteStride": 24,
      "target": 34962
    },
    {
      "buffer": 0,
      "byteLength": 2304,
      "byteOffset": 143712,
      "byteStride": 24,
      "target": 34962
    },
    {
      "buffer": 0,
      "byteLength": 2304,
      "byteOffset": 146016,
      "byteStride": 24,
      "target": 34962
    },
    {
      "buffer": 0,
      "byteLength": 2304,
      "byteOffset": 148320,
      "byteStride": 24,
      "target": 34962
    }
  ],
  "scene": 0,
  "extensions": {
    "KITTYCAD_boundary_representation": {
      "solids": [
        {
          "shells": [
            [
              0,
              1
            ]
          ],
          "mesh": 0,
          "extras": {
            "KITTYCAD": {
              "material": 0
            }
          }
        }
      ],
      "shells": [
        {
          "faces": [
            [
              0,
              1
            ],
            [
              1,
              1
            ],
            [
              2,
              1
            ],
            [
              3,
              1
            ],
            [
              4,
              1
            ],
            [
              5,
              1
            ],
            [
              6,
              1
            ],
            [
              7,
              1
            ],
            [
              8,
              1
            ],
            [
              9,
              1
            ],
            [
              10,
              1
            ],
            [
              11,
              1
            ],
            [
              12,
              1
            ],
            [
              13,
              1
            ],
            [
              14,
              1
            ],
            [
              15,
              1
            ],
            [
              16,
              1
            ],
            [
              17,
              1
            ],
            [
              18,
              1
            ],
            [
              19,
              1
            ],
            [
              20,
              1
            ],
            [
              21,
              1
            ],
            [
              22,
              1
            ],
            [
              23,
              1
            ],
            [
              24,
              1
            ],
            [
              25,
              1
            ],
            [
              26,
              1
            ],
            [
              27,
              1
            ]
          ]
        }
      ],
      "faces": [
        {
          "surface": [
            0,
            1
          ],
          "loops": [
            [
              0,
              1
            ]
          ]
        },
        {
          "surface": [
            1,
            -1
          ],
          "loops": [
            [
              1,
              1
            ]
          ]
        },
        {
          "surface": [
            2,
            -1
          ],
          "loops": [
            [
              2,
              1
            ]
          ]
        },
        {
          "surface": [
            3,
            -1
          ],
          "loops": [
            [
              3,
              1
            ]
          ]
        },
        {
          "surface": [
            4,
            -1
          ],
          "loops": [
            [
              4,
              1
            ]
          ]
        },
        {
          "surface": [
            5,
            -1
          ],
          "loops": [
            [
              5,
              1
            ]
          ]
        },
        {
          "surface": [
            6,
            -1
          ],
          "loops": [
            [
              6,
              1
            ]
          ]
        },
        {
          "surface": [
            7,
            -1
          ],
          "loops": [
            [
              7,
              1
            ]
          ]
        },
        {
          "surface": [
            8,
            -1
          ],
          "loops": [
            [
              8,
              1
            ]
          ]
        },
        {
          "surface": [
            9,
            -1
          ],
          "loops": [
            [
              9,
              1
            ]
          ]
        },
        {
          "surface": [
            10,
            -1
          ],
          "loops": [
            [
              10,
              1
            ]
          ]
        },
        {
          "surface": [
            11,
            -1
          ],
          "loops": [
            [
              11,
              1
            ]
          ]
        },
        {
          "surface": [
            12,
            -1
          ],
          "loops": [
            [
              12,
              1
            ]
          ]
        },
        {
          "surface": [
            13,
            -1
          ],
          "loops": [
            [
              13,
              1
            ],
            [
              14,
              1
            ],
            [
              15,
              1
            ],
            [
              16,
              1
            ],
            [
              17,
              1
            ],
            [
              18,
              1
            ],
            [
              19,
              1
            ],
            [
              20,
              1
            ],
            [
              21,
              1
            ],
            [
              22,
              1
            ],
            [
              23,
              1
            ],
            [
              24,
              1
            ],
            [
              25,
              1
            ]
          ]
        },
        {
          "surface": [
            14,
            1
          ],
          "loops": [
            [
              26,
              1
            ],
            [
              27,
              1
            ],
            [
              28,
              1
            ],
            [
              29,
              1
            ],
            [
              30,
              1
            ],
            [
              31,
              1
            ],
            [
              32,
              1
            ],
            [
              33,
              1
            ],
            [
              34,
              1
            ],
            [
              35,
              1
            ],
            [
              36,
              1
            ],
            [
              37,
              1
            ],
            [
              38,
              1
            ]
          ]
        },
        {
          "surface": [
            0,
            1
          ],
          "loops": [
            [
              39,
              1
            ]
          ]
        },
        {
          "surface": [
            1,
            -1
          ],
          "loops": [
            [
              40,
              1
            ]
          ]
        },
        {
          "surface": [
            2,
            -1
          ],
          "loops": [
            [
              41,
              1
            ]
          ]
        },
        {
          "surface": [
            3,
            -1
          ],
          "loops": [
            [
              42,
              1
            ]
          ]
        },
        {
          "surface": [
            4,
            -1
          ],
          "loops": [
            [
              43,
              1
            ]
          ]
        },
        {
          "surface": [
            5,
            -1
          ],
          "loops": [
            [
              44,
              1
            ]
          ]
        },
        {
          "surface": [
            6,
            -1
          ],
          "loops": [
            [
              45,
              1
            ]
          ]
        },
        {
          "surface": [
            7,
            -1
          ],
          "loops": [
            [
              46,
              1
            ]
          ]
        },
        {
          "surface": [
            8,
            -1
          ],
          "loops": [
            [
              47,
              1
            ]
          ]
        },
        {
          "surface": [
            9,
            -1
          ],
          "loops": [
            [
              48,
              1
            ]
          ]
        },
        {
          "surface": [
            10,
            -1
          ],
          "loops": [
            [
              49,
              1
            ]
          ]
        },
        {
          "surface": [
            11,
            -1
          ],
          "loops": [
            [
              50,
              1
            ]
          ]
        },
        {
          "surface": [
            12,
            -1
          ],
          "loops": [
            [
              51,
              1
            ]
          ]
        }
      ],
      "loops": [
        {
          "edges": [
            [
              0,
              1
            ],
            [
              1,
              1
            ],
            [
              2,
              -1
            ],
            [
              3,
              -1
            ]
          ]
        },
        {
          "edges": [
            [
              4,
              -1
            ],
            [
              5,
              1
            ],
            [
              6,
              1
            ],
            [
              7,
              -1
            ]
          ]
        },
        {
          "edges": [
            [
              8,
              -1
            ],
            [
              9,
              1
            ],
            [
              10,
              1
            ],
            [
              11,
              -1
            ]
          ]
        },
        {
          "edges": [
            [
              12,
              -1
            ],
            [
              13,
              1
            ],
            [
              14,
              1
            ],
            [
              15,
              -1
            ]
          ]
        },
        {
          "edges": [
            [
              16,
              -1
            ],
            [
              17,
              1
            ],
            [
              18,
              1
            ],
            [
              19,
              -1
            ]
          ]
        },
        {
          "edges": [
            [
              20,
              -1
            ],
            [
              21,
              1
            ],
            [
              22,
              1
            ],
            [
              23,
              -1
            ]
          ]
        },
        {
          "edges": [
            [
              24,
              -1
            ],
            [
              25,
              1
            ],
            [
              26,
              1
            ],
            [
              27,
              -1
            ]
          ]
        },
        {
          "edges": [
            [
              28,
              -1
            ],
            [
              29,
              1
            ],
            [
              30,
              1
            ],
            [
              31,
              -1
            ]
          ]
        },
        {
          "edges": [
            [
              32,
              -1
            ],
            [
              33,
              1
            ],
            [
              34,
              1
            ],
            [
              35,
              -1
            ]
          ]
        },
        {
          "edges": [
            [
              36,
              -1
            ],
            [
              37,
              1
            ],
            [
              38,
              1
            ],
            [
              39,
              -1
            ]
          ]
        },
        {
          "edges": [
            [
              40,
              -1
            ],
            [
              41,
              1
            ],
            [
              42,
              1
            ],
            [
              43,
              -1
            ]
          ]
        },
        {
          "edges": [
            [
              44,
              -1
            ],
            [
              45,
              1
            ],
            [
              46,
              1
            ],
            [
              47,
              -1
            ]
          ]
        },
        {
          "edges": [
            [
              48,
              -1
            ],
            [
              49,
              1
            ],
            [
              50,
              1
            ],
            [
              51,
              -1
            ]
          ]
        },
        {
          "edges": [
            [
              1,
              -1
            ],
            [
              52,
              -1
            ]
          ]
        },
        {
          "edges": [
            [
              5,
              -1
            ],
            [
              53,
              -1
            ]
          ]
        },
        {
          "edges": [
            [
              9,
              -1
            ],
            [
              54,
              -1
            ]
          ]
        },
        {
          "edges": [
            [
              13,
              -1
            ],
            [
              55,
              -1
            ]
          ]
        },
        {
          "edges": [
            [
              17,
              -1
            ],
            [
              56,
              -1
            ]
          ]
        },
        {
          "edges": [
            [
              21,
              -1
            ],
            [
              57,
              -1
            ]
          ]
        },
        {
          "edges": [
            [
              25,
              -1
            ],
            [
              58,
              -1
            ]
          ]
        },
        {
          "edges": [
            [
              29,
              -1
            ],
            [
              59,
              -1
            ]
          ]
        },
        {
          "edges": [
            [
              33,
              -1
            ],
            [
              60,
              -1
            ]
          ]
        },
        {
          "edges": [
            [
              37,
              -1
            ],
            [
              61,
              -1
            ]
          ]
        },
        {
          "edges": [
            [
              41,
              -1
            ],
            [
              62,
              -1
            ]
          ]
        },
        {
          "edges": [
            [
              45,
              -1
            ],
            [
              63,
              -1
            ]
          ]
        },
        {
          "edges": [
            [
              49,
              -1
            ],
            [
              64,
              -1
            ]
          ]
        },
        {
          "edges": [
            [
              65,
              1
            ],
            [
              3,
              1
            ]
          ]
        },
        {
          "edges": [
            [
              66,
              1
            ],
            [
              7,
              1
            ]
          ]
        },
        {
          "edges": [
            [
              67,
              1
            ],
            [
              11,
              1
            ]
          ]
        },
        {
          "edges": [
            [
              68,
              1
            ],
            [
              15,
              1
            ]
          ]
        },
        {
          "edges": [
            [
              69,
              1
            ],
            [
              19,
              1
            ]
          ]
        },
        {
          "edges": [
            [
              70,
              1
            ],
            [
              23,
              1
            ]
          ]
        },
        {
          "edges": [
            [
              71,
              1
            ],
            [
              27,
              1
            ]
          ]
        },
        {
          "edges": [
            [
              72,
              1
            ],
            [
              31,
              1
            ]
          ]
        },
        {
          "edges": [
            [
              73,
              1
            ],
            [
              35,
              1
            ]
          ]
        },
        {
          "edges": [
            [
              74,
              1
            ],
            [
              39,
              1
            ]
          ]
        },
        {
          "edges": [
            [
              75,
              1
            ],
            [
              43,
              1
            ]
          ]
        },
        {
          "edges": [
            [
              76,
              1
            ],
            [
              47,
              1
            ]
          ]
        },
        {
          "edges": [
            [
              77,
              1
            ],
            [
              51,
              1
            ]
          ]
        },
        {
          "edges": [
            [
              0,
              -1
            ],
            [
              65,
              -1
            ],
            [
              2,
              1
            ],
            [
              52,
              1
            ]
          ]
        },
        {
          "edges": [
            [
              4,
              1
            ],
            [
              66,
              -1
            ],
            [
              6,
              -1
            ],
            [
              53,
              1
            ]
          ]
        },
        {
          "edges": [
            [
              8,
              1
            ],
            [
              67,
              -1
            ],
            [
              10,
              -1
            ],
            [
              54,
              1
            ]
          ]
        },
        {
          "edges": [
            [
              12,
              1
            ],
            [
              68,
              -1
            ],
            [
              14,
              -1
            ],
            [
              55,
              1
            ]
          ]
        },
        {
          "edges": [
            [
              16,
              1
            ],
            [
              69,
              -1
            ],
            [
              18,
              -1
            ],
            [
              56,
              1
            ]
          ]
        },
        {
          "edges": [
            [
              20,
              1
            ],
            [
              70,
              -1
            ],
            [
              22,
              -1
            ],
            [
              57,
              1
            ]
          ]
        },
        {
          "edges": [
            [
              24,
              1
            ],
            [
              71,
              -1
            ],
            [
              26,
              -1
            ],
            [
              58,
              1
            ]
          ]
        },
        {
          "edges": [
            [
              28,
              1
            ],
            [
              72,
              -1
            ],
            [
              30,
              -1
            ],
            [
              59,
              1
            ]
          ]
        },
        {
          "edges": [
            [
              32,
              1
            ],
            [
              73,
              -1
            ],
            [
              34,
              -1
            ],
            [
              60,
              1
            ]
          ]
        },
        {
          "edges": [
            [
              36,
              1
            ],
            [
              74,
              -1
            ],
            [
              38,
              -1
            ],
            [
              61,
              1
            ]
          ]
        },
        {
          "edges": [
            [
              40,
              1
            ],
            [
              75,
              -1
            ],
            [
              42,
              -1
            ],
            [
              62,
              1
            ]
          ]
        },
        {
          "edges": [
            [
              44,
              1
            ],
            [
              76,
              -1
            ],
            [
              46,
              -1
            ],
            [
              63,
              1
            ]
          ]
        },
        {
          "edges": [
            [
              48,
              1
            ],
            [
              77,
              -1
            ],
            [
              50,
              -1
            ],
            [
              64,
              1
            ]
          ]
        }
      ],
      "edges": [
        {
          "curve": [
            0,
            -1
          ],
          "start": 0,
          "end": 1,
          "t": [
            -0.004999999999999999,
            0.005000000000000001
          ]
        },
        {
          "curve": [
            1,
            1
          ],
          "start": 1,
          "end": 2,
          "t": [
            3.141592653589793,
            6.283185307179586
          ]
        },
        {
          "curve": [
            2,
            -1
          ],
          "start": 3,
          "end": 2,
          "t": [
            -0.005,
            0.005
          ]
        },
        {
          "curve": [
            3,
            1
          ],
          "start": 0,
          "end": 3,
          "t": [
            3.141592653589793,
            6.283185307179586
          ]
        },
        {
          "curve": [
            4,
            -1
          ],
          "start": 4,
          "end": 5,
          "t": [
            -0.004999999999999999,
            0.005
          ]
        },
        {
          "curve": [
            5,
            1
          ],
          "start": 4,
          "end": 6,
          "t": [
            3.141592653589793,
            6.283185307179586
          ]
        },
        {
          "curve": [
            6,
            -1
          ],
          "start": 6,
          "end": 7,
          "t": [
            -0.005,
            0.005
          ]
        },
        {
          "curve": [
            7,
            1
          ],
          "start": 5,
          "end": 7,
          "t": [
            3.141592653589793,
            6.283185307179586
          ]
        },
        {
          "curve": [
            8,
            -1
          ],
          "start": 8,
          "end": 9,
          "t": [
            -0.005000000000000001,
            0.005
          ]
        },
        {
          "curve": [
            9,
            1
          ],
          "start": 8,
          "end": 10,
          "t": [
            9.42477796076938,
            12.566370414359104
          ]
        },
        {
          "curve": [
            10,
            -1
          ],
          "start": 10,
          "end": 11,
          "t": [
            -0.005,
            0.005
          ]
        },
        {
          "curve": [
            11,
            1
          ],
          "start": 9,
          "end": 11,
          "t": [
            9.42477796076938,
            12.566370414359104
          ]
        },
        {
          "curve": [
            12,
            -1
          ],
          "start": 12,
          "end": 13,
          "t": [
            -0.005,
            0.005
          ]
        },
        {
          "curve": [
            13,
            1
          ],
          "start": 12,
          "end": 14,
          "t": [
            3.141592653589793,
            6.283185507179656
          ]
        },
        {
          "curve": [
            14,
            -1
          ],
          "start": 14,
          "end": 15,
          "t": [
            -0.005,
            0.005
          ]
        },
        {
          "curve": [
            15,
            1
          ],
          "start": 13,
          "end": 15,
          "t": [
            3.141592653589793,
            6.283185507179656
          ]
        },
        {
          "curve": [
            16,
            -1
          ],
          "start": 16,
          "end": 17,
          "t": [
            -0.004999999999999999,
            0.005
          ]
        },
        {
          "curve": [
            17,
            1
          ],
          "start": 16,
          "end": 18,
          "t": [
            3.141592653589793,
            6.283185307179586
          ]
        },
        {
          "curve": [
            18,
            -1
          ],
          "start": 18,
          "end": 19,
          "t": [
            -0.005,
            0.005
          ]
        },
        {
          "curve": [
            19,
            1
          ],
          "start": 17,
          "end": 19,
          "t": [
            3.141592653589793,
            6.283185307179586
          ]
        },
        {
          "curve": [
            20,
            -1
          ],
          "start": 20,
          "end": 21,
          "t": [
            -0.005000000000000001,
            0.005
          ]
        },
        {
          "curve": [
            21,
            1
          ],
          "start": 20,
          "end": 22,
          "t": [
            9.42477796076938,
            12.566370414359104
          ]
        },
        {
          "curve": [
            22,
            -1
          ],
          "start": 22,
          "end": 23,
          "t": [
            -0.005,
            0.005
          ]
        },
        {
          "curve": [
            23,
            1
          ],
          "start": 21,
          "end": 23,
          "t": [
            9.42477796076938,
            12.566370414359104
          ]
        },
        {
          "curve": [
            24,
            -1
          ],
          "start": 24,
          "end": 25,
          "t": [
            -0.005,
            0.005
          ]
        },
        {
          "curve": [
            25,
            1
          ],
          "start": 24,
          "end": 26,
          "t": [
            3.141592653589793,
            6.283185507179656
          ]
        },
        {
          "curve": [
            26,
            -1
          ],
          "start": 26,
          "end": 27,
          "t": [
            -0.005,
            0.005
          ]
        },
        {
          "curve": [
            27,
            1
          ],
          "start": 25,
          "end": 27,
          "t": [
            3.141592653589793,
            6.283185507179656
          ]
        },
        {
          "curve": [
            28,
            -1
          ],
          "start": 28,
          "end": 29,
          "t": [
            -0.004999999999999999,
            0.005
          ]
        },
        {
          "curve": [
            29,
            1
          ],
          "start": 28,
          "end": 30,
          "t": [
            3.141592653589793,
            6.283185307179586
          ]
        },
        {
          "curve": [
            30,
            -1
          ],
          "start": 30,
          "end": 31,
          "t": [
            -0.005,
            0.005
          ]
        },
        {
          "curve": [
            31,
            1
          ],
          "start": 29,
          "end": 31,
          "t": [
            3.141592653589793,
            6.283185307179586
          ]
        },
        {
          "curve": [
            32,
            -1
          ],
          "start": 32,
          "end": 33,
          "t": [
            -0.005000000000000001,
            0.005
          ]
        },
        {
          "curve": [
            33,
            1
          ],
          "start": 32,
          "end": 34,
          "t": [
            9.42477796076938,
            12.566370414359104
          ]
        },
        {
          "curve": [
            34,
            -1
          ],
          "start": 34,
          "end": 35,
          "t": [
            -0.005,
            0.005
          ]
        },
        {
          "curve": [
            35,
            1
          ],
          "start": 33,
          "end": 35,
          "t": [
            9.42477796076938,
            12.566370414359104
          ]
        },
        {
          "curve": [
            36,
            -1
          ],
          "start": 36,
          "end": 37,
          "t": [
            -0.005,
            0.005
          ]
        },
        {
          "curve": [
            37,
            1
          ],
          "start": 36,
          "end": 38,
          "t": [
            3.141592653589793,
            6.283185507179656
          ]
        },
        {
          "curve": [
            38,
            -1
          ],
          "start": 38,
          "end": 39,
          "t": [
            -0.005,
            0.005
          ]
        },
        {
          "curve": [
            39,
            1
          ],
          "start": 37,
          "end": 39,
          "t": [
            3.141592653589793,
            6.283185507179656
          ]
        },
        {
          "curve": [
            40,
            -1
          ],
          "start": 40,
          "end": 41,
          "t": [
            -0.004999999999999999,
            0.005
          ]
        },
        {
          "curve": [
            41,
            1
          ],
          "start": 40,
          "end": 42,
          "t": [
            3.141592653589793,
            6.283185307179586
          ]
        },
        {
          "curve": [
            42,
            -1
          ],
          "start": 42,
          "end": 43,
          "t": [
            -0.005,
            0.005
          ]
        },
        {
          "curve": [
            43,
            1
          ],
          "start": 41,
          "end": 43,
          "t": [
            3.141592653589793,
            6.283185307179586
          ]
        },
        {
          "curve": [
            44,
            -1
          ],
          "start": 44,
          "end": 45,
          "t": [
            -0.005000000000000001,
            0.005
          ]
        },
        {
          "curve": [
            45,
            1
          ],
          "start": 44,
          "end": 46,
          "t": [
            9.42477796076938,
            12.566370414359104
          ]
        },
        {
          "curve": [
            46,
            -1
          ],
          "start": 46,
          "end": 47,
          "t": [
            -0.005,
            0.005
          ]
        },
        {
          "curve": [
            47,
            1
          ],
          "start": 45,
          "end": 47,
          "t": [
            9.42477796076938,
            12.566370414359104
          ]
        },
        {
          "curve": [
            48,
            -1
          ],
          "start": 48,
          "end": 49,
          "t": [
            -0.005,
            0.005
          ]
        },
        {
          "curve": [
            49,
            1
          ],
          "start": 48,
          "end": 50,
          "t": [
            3.141592653589793,
            6.283185507179656
          ]
        },
        {
          "curve": [
            50,
            -1
          ],
          "start": 50,
          "end": 51,
          "t": [
            -0.005,
            0.005
          ]
        },
        {
          "curve": [
            51,
            1
          ],
          "start": 49,
          "end": 51,
          "t": [
            3.141592653589793,
            6.283185507179656
          ]
        },
        {
          "curve": [
            1,
            1
          ],
          "start": 2,
          "end": 1,
          "t": [
            0,
            3.141592653589793
          ]
        },
        {
          "curve": [
            5,
            1
          ],
          "start": 6,
          "end": 4,
          "t": [
            0,
            3.141592653589793
          ]
        },
        {
          "curve": [
            9,
            1
          ],
          "start": 10,
          "end": 8,
          "t": [
            6.283185107179516,
            9.42477796076938
          ]
        },
        {
          "curve": [
            13,
            1
          ],
          "start": 14,
          "end": 12,
          "t": [
            0.00000020000007000573974,
            3.141592653589793
          ]
        },
        {
          "curve": [
            17,
            1
          ],
          "start": 18,
          "end": 16,
          "t": [
            0,
            3.141592653589793
          ]
        },
        {
          "curve": [
            21,
            1
          ],
          "start": 22,
          "end": 20,
          "t": [
            6.283185107179516,
            9.42477796076938
          ]
        },
        {
          "curve": [
            25,
            1
          ],
          "start": 26,
          "end": 24,
          "t": [
            0.00000020000007000573953,
            3.141592653589793
          ]
        },
        {
          "curve": [
            29,
            1
          ],
          "start": 30,
          "end": 28,
          "t": [
            0,
            3.141592653589793
          ]
        },
        {
          "curve": [
            33,
            1
          ],
          "start": 34,
          "end": 32,
          "t": [
            6.283185107179516,
            9.42477796076938
          ]
        },
        {
          "curve": [
            37,
            1
          ],
          "start": 38,
          "end": 36,
          "t": [
            0.00000020000007000573974,
            3.141592653589793
          ]
        },
        {
          "curve": [
            41,
            1
          ],
          "start": 42,
          "end": 40,
          "t": [
            0,
            3.141592653589793
          ]
        },
        {
          "curve": [
            45,
            1
          ],
          "start": 46,
          "end": 44,
          "t": [
            6.283185107179516,
            9.42477796076938
          ]
        },
        {
          "curve": [
            49,
            1
          ],
          "start": 50,
          "end": 48,
          "t": [
            0.00000020000007000573953,
            3.141592653589793
          ]
        },
        {
          "curve": [
            3,
            1
          ],
          "start": 3,
          "end": 0,
          "t": [
            0,
            3.141592653589793
          ]
        },
        {
          "curve": [
            7,
            1
          ],
          "start": 7,
          "end": 5,
          "t": [
            0,
            3.141592653589793
          ]
        },
        {
          "curve": [
            11,
            1
          ],
          "start": 11,
          "end": 9,
          "t": [
            6.283185107179516,
            9.42477796076938
          ]
        },
        {
          "curve": [
            15,
            1
          ],
          "start": 15,
          "end": 13,
          "t": [
            0.00000020000007000573974,
            3.141592653589793
          ]
        },
        {
          "curve": [
            19,
            1
          ],
          "start": 19,
          "end": 17,
          "t": [
            0,
            3.141592653589793
          ]
        },
        {
          "curve": [
            23,
            1
          ],
          "start": 23,
          "end": 21,
          "t": [
            6.283185107179516,
            9.42477796076938
          ]
        },
        {
          "curve": [
            27,
            1
          ],
          "start": 27,
          "end": 25,
          "t": [
            0.00000020000007000573953,
            3.141592653589793
          ]
        },
        {
          "curve": [
            31,
            1
          ],
          "start": 31,
          "end": 29,
          "t": [
            0,
            3.141592653589793
          ]
        },
        {
          "curve": [
            35,
            1
          ],
          "start": 35,
          "end": 33,
          "t": [
            6.283185107179516,
            9.42477796076938
          ]
        },
        {
          "curve": [
            39,
            1
          ],
          "start": 39,
          "end": 37,
          "t": [
            0.00000020000007000573974,
            3.141592653589793
          ]
        },
        {
          "curve": [
            43,
            1
          ],
          "start": 43,
          "end": 41,
          "t": [
            0,
            3.141592653589793
          ]
        },
        {
          "curve": [
            47,
            1
          ],
          "start": 47,
          "end": 45,
          "t": [
            6.283185107179516,
            9.42477796076938
          ]
        },
        {
          "curve": [
            51,
            1
          ],
          "start": 51,
          "end": 49,
          "t": [
            0.00000020000007000573953,
            3.141592653589793
          ]
        }
      ],
      "vertices": [
        [
          -0.06,
          0.000000000000000007347880794884118,
          0.01
        ],
        [
          -0.06,
          0.000000000000000007347880794884118,
          0
        ],
        [
          0.06,
          0,
          -0
        ],
        [
          0.06,
          0,
          0.01
        ],
        [
          0.046,
          -0.0000000000000000004898587196589414,
          0
        ],
        [
          0.046,
          -0.0000000000000000004898587196589414,
          0.01
        ],
        [
          0.054,
          -0,
          -0
        ],
        [
          0.054,
          -0,
          0.01
        ],
        [
          0.03983716838864668,
          0.02299999999344516,
          0
        ],
        [
          0.03983716838864668,
          0.02299999999344516,
          0.01
        ],
        [
          0.04676537,
          0.027,
          -0
        ],
        [
          0.04676537,
          0.027,
          0.01
        ],
        [
          0.02299999999344516,
          0.03983716838864668,
          0
        ],
        [
          0.02299999999344516,
          0.03983716838864668,
          0.01
        ],
        [
          0.027,
          0.04676537,
          -0
        ],
        [
          0.027,
          0.04676537,
          0.01
        ],
        [
          0.0000000000000000004898587196589414,
          0.046,
          0
        ],
        [
          0.0000000000000000004898587196589414,
          0.046,
          0.01
        ],
        [
          0,
          0.054,
          -0
        ],
        [
          0,
          0.054,
          0.01
        ],
        [
          -0.02299999999344516,
          0.03983716838864668,
          0
        ],
        [
          -0.02299999999344516,
          0.03983716838864668,
          0.01
        ],
        [
          -0.027,
          0.04676537,
          -0
        ],
        [
          -0.027,
          0.04676537,
          0.01
        ],
        [
          -0.03983716838864668,
          0.02299999999344516,
          0
        ],
        [
          -0.03983716838864668,
          0.02299999999344516,
          0.01
        ],
        [
          -0.04676537,
          0.027,
          -0
        ],
        [
          -0.04676537,
          0.027,
          0.01
        ],
        [
          -0.046,
          0.0000000000000000004898587196589414,
          0
        ],
        [
          -0.046,
          0.0000000000000000004898587196589414,
          0.01
        ],
        [
          -0.054,
          0,
          -0
        ],
        [
          -0.054,
          0,
          0.01
        ],
        [
          -0.03983716838864668,
          -0.02299999999344516,
          0
        ],
        [
          -0.03983716838864668,
          -0.02299999999344516,
          0.01
        ],
        [
          -0.04676537,
          -0.027,
          -0
        ],
        [
          -0.04676537,
          -0.027,
          0.01
        ],
        [
          -0.02299999999344516,
          -0.03983716838864668,
          0
        ],
        [
          -0.02299999999344516,
          -0.03983716838864668,
          0.01
        ],
        [
          -0.027,
          -0.04676537,
          -0
        ],
        [
          -0.027,
          -0.04676537,
          0.01
        ],
        [
          -0.0000000000000000004898587196589414,
          -0.046,
          0
        ],
        [
          -0.0000000000000000004898587196589414,
          -0.046,
          0.01
        ],
        [
          -0,
          -0.054,
          -0
        ],
        [
          -0,
          -0.054,
          0.01
        ],
        [
          0.02299999999344516,
          -0.03983716838864668,
          0
        ],
        [
          0.02299999999344516,
          -0.03983716838864668,
          0.01
        ],
        [
          0.027,
          -0.04676537,
          -0
        ],
        [
          0.027,
          -0.04676537,
          0.01
        ],
        [
          0.03983716838864668,
          -0.02299999999344516,
          0
        ],
        [
          0.03983716838864668,
          -0.02299999999344516,
          0.01
        ],
        [
          0.04676537,
          -0.027,
          -0
        ],
        [
          0.04676537,
          -0.027,
          0.01
        ]
      ],
      "surfaces": [
        {
          "type": "cylinder",
          "cylinder": {
            "xAxis": [
              1,
              0,
              -0
            ],
            "yAxis": [
              -0,
              1,
              0
            ],
            "origin": [
              0,
              -0,
              0.005
            ],
            "radius": 0.06
          }
        },
        {
          "type": "cylinder",
          "cylinder": {
            "xAxis": [
              1,
              -0,
              0
            ],
            "yAxis": [
              0,
              -1,
              -0
            ],
            "origin": [
              0.05,
              0,
              0.005
            ],
            "radius": 0.004
          }
        },
        {
          "type": "cylinder",
          "cylinder": {
            "xAxis": [
              0.8660254028383291,
              0.5000000016387101,
              0
            ],
            "yAxis": [
              0.5000000016387101,
              -0.8660254028383291,
              0
            ],
            "origin": [
              0.04330127,
              0.025,
              0.005
            ],
            "radius": 0.004
          }
        },
        {
          "type": "cylinder",
          "cylinder": {
            "xAxis": [
              0.5000000016387101,
              0.8660254028383291,
              0
            ],
            "yAxis": [
              0.8660254028383291,
              -0.5000000016387101,
              0
            ],
            "origin": [
              0.025,
              0.04330127,
              0.005
            ],
            "radius": 0.004
          }
        },
        {
          "type": "cylinder",
          "cylinder": {
            "xAxis": [
              -0,
              1,
              0
            ],
            "yAxis": [
              1,
              0,
              0
            ],
            "origin": [
              0,
              0.05,
              0.005
            ],
            "radius": 0.004
          }
        },
        {
          "type": "cylinder",
          "cylinder": {
            "xAxis": [
              -0.5000000016387101,
              0.8660254028383291,
              0
            ],
            "yAxis": [
              0.8660254028383291,
              0.5000000016387101,
              0
            ],
            "origin": [
              -0.025,
              0.04330127,
              0.005
            ],
            "radius": 0.004
          }
        },
        {
          "type": "cylinder",
          "cylinder": {
            "xAxis": [
              -0.8660254028383291,
              0.5000000016387101,
              0
            ],
            "yAxis": [
              0.5000000016387101,
              0.8660254028383291,
              0
            ],
            "origin": [
              -0.04330127,
              0.025,
              0.005
            ],
            "radius": 0.004
          }
        },
        {
          "type": "cylinder",
          "cylinder": {
            "xAxis": [
              -1,
              0,
              -0
            ],
            "yAxis": [
              0,
              1,
              0
            ],
            "origin": [
              -0.05,
              0,
              0.005
            ],
            "radius": 0.004
          }
        },
        {
          "type": "cylinder",
          "cylinder": {
            "xAxis": [
              -0.8660254028383291,
              -0.5000000016387101,
              -0
            ],
            "yAxis": [
              -0.5000000016387101,
              0.8660254028383291,
              0
            ],
            "origin": [
              -0.04330127,
              -0.025,
              0.005
            ],
            "radius": 0.004
          }
        },
        {
          "type": "cylinder",
          "cylinder": {
            "xAxis": [
              -0.5000000016387101,
              -0.8660254028383291,
              -0
            ],
            "yAxis": [
              -0.8660254028383291,
              0.5000000016387101,
              0
            ],
            "origin": [
              -0.025,
              -0.04330127,
              0.005
            ],
            "radius": 0.004
          }
        },
        {
          "type": "cylinder",
          "cylinder": {
            "xAxis": [
              0,
              -1,
              0
            ],
            "yAxis": [
              -1,
              -0,
              -0
            ],
            "origin": [
              -0,
              -0.05,
              0.005
            ],
            "radius": 0.004
          }
        },
        {
          "type": "cylinder",
          "cylinder": {
            "xAxis": [
              0.5000000016387101,
              -0.8660254028383291,
              0
            ],
            "yAxis": [
              -0.8660254028383291,
              -0.5000000016387101,
              -0
            ],
            "origin": [
              0.025,
              -0.04330127,
              0.005
            ],
            "radius": 0.004
          }
        },
        {
          "type": "cylinder",
          "cylinder": {
            "xAxis": [
              0.8660254028383291,
              -0.5000000016387101,
              0
            ],
            "yAxis": [
              -0.5000000016387101,
              -0.8660254028383291,
              -0
            ],
            "origin": [
              0.04330127,
              -0.025,
              0.005
            ],
            "radius": 0.004
          }
        },
        {
          "type": "plane",
          "plane": {
            "xAxis": [
              1,
              0,
              0
            ],
            "yAxis": [
              0,
              1,
              0
            ],
            "origin": [
              0,
              0,
              0
            ]
          }
        },
        {
          "type": "plane",
          "plane": {
            "xAxis": [
              1,
              0,
              -0
            ],
            "yAxis": [
              -0,
              1,
              0
            ],
            "origin": [
              0,
              0,
              0.01
            ]
          }
        }
      ],
      "curves3D": [
        {
          "type": "line",
          "line": {
            "origin": [
              -0.06,
              0.000000000000000007347880794884118,
              0.005
            ],
            "direction": [
              0,
              0,
              1
            ]
          }
        },
        {
          "type": "circle",
          "circle": {
            "xAxis": [
              1,
              0,
              -0
            ],
            "yAxis": [
              -0,
              1,
              0
            ],
            "origin": [
              0,
              0,
              0
            ],
            "radius": 0.06
          }
        },
        {
          "type": "line",
          "line": {
            "origin": [
              0.06,
              0,
              0.005
            ],
            "direction": [
              0,
              0,
              1
            ]
          }
        },
        {
          "type": "circle",
          "circle": {
            "xAxis": [
              1,
              0,
              -0
            ],
            "yAxis": [
              -0,
              1,
              0
            ],
            "origin": [
              0,
              0,
              0.01
            ],
            "radius": 0.06
          }
        },
        {
          "type": "line",
          "line": {
            "origin": [
              0.046,
              -0.0000000000000000004898587196589414,
              0.005
            ],
            "direction": [
              0,
              0,
              -1
            ]
          }
        },
        {
          "type": "circle",
          "circle": {
            "xAxis": [
              1,
              0,
              0
            ],
            "yAxis": [
              0,
              -1,
              0
            ],
            "origin": [
              0.05,
              0,
              0
            ],
            "radius": 0.004
          }
        },
        {
          "type": "line",
          "line": {
            "origin": [
              0.054000000000000006,
              0,
              0.005
            ],
            "direction": [
              0,
              0,
              -1
            ]
          }
        },
        {
          "type": "circle",
          "circle": {
            "xAxis": [
              1,
              0,
              0
            ],
            "yAxis": [
              0,
              -1,
              0
            ],
            "origin": [
              0.05,
              0,
              0.01
            ],
            "radius": 0.004
          }
        },
        {
          "type": "line",
          "line": {
            "origin": [
              0.03983716838864669,
              0.02299999999344516,
              0.005
            ],
            "direction": [
              0,
              0,
              -1
            ]
          }
        },
        {
          "type": "circle",
          "circle": {
            "xAxis": [
              0.8660254028383291,
              0.5000000016387101,
              0
            ],
            "yAxis": [
              0.5000000016387101,
              -0.8660254028383291,
              0
            ],
            "origin": [
              0.04330127,
              0.025,
              0
            ],
            "radius": 0.004
          }
        },
        {
          "type": "line",
          "line": {
            "origin": [
              0.04676537161135332,
              0.027000000006554843,
              0.005
            ],
            "direction": [
              0,
              0,
              -1
            ]
          }
        },
        {
          "type": "circle",
          "circle": {
            "xAxis": [
              0.8660254028383291,
              0.5000000016387101,
              0
            ],
            "yAxis": [
              0.5000000016387101,
              -0.8660254028383291,
              0
            ],
            "origin": [
              0.04330127,
              0.025,
              0.01
            ],
            "radius": 0.004
          }
        },
        {
          "type": "line",
          "line": {
            "origin": [
              0.02299999999344516,
              0.03983716838864668,
              0.005
            ],
            "direction": [
              0,
              0,
              -1
            ]
          }
        },
        {
          "type": "circle",
          "circle": {
            "xAxis": [
              0.5000000016387101,
              0.8660254028383291,
              0
            ],
            "yAxis": [
              0.8660254028383291,
              -0.5000000016387101,
              0
            ],
            "origin": [
              0.025,
              0.04330127,
              0
            ],
            "radius": 0.004
          }
        },
        {
          "type": "line",
          "line": {
            "origin": [
              0.027000000006554843,
              0.04676537161135332,
              0.005
            ],
            "direction": [
              0,
              0,
              -1
            ]
          }
        },
        {
          "type": "circle",
          "circle": {
            "xAxis": [
              0.5000000016387101,
              0.8660254028383291,
              0
            ],
            "yAxis": [
              0.8660254028383291,
              -0.5000000016387101,
              0
            ],
            "origin": [
              0.025,
              0.04330127,
              0.01
            ],
            "radius": 0.004
          }
        },
        {
          "type": "line",
          "line": {
            "origin": [
              0.0000000000000000004898587196589414,
              0.046,
              0.005
            ],
            "direction": [
              0,
              0,
              -1
            ]
          }
        },
        {
          "type": "circle",
          "circle": {
            "xAxis": [
              0,
              1,
              0
            ],
            "yAxis": [
              1,
              -0,
              0
            ],
            "origin": [
              0,
              0.05,
              0
            ],
            "radius": 0.004
          }
        },
        {
          "type": "line",
          "line": {
            "origin": [
              0,
              0.054000000000000006,
              0.005
            ],
            "direction": [
              0,
              0,
              -1
            ]
          }
        },
        {
          "type": "circle",
          "circle": {
            "xAxis": [
              0,
              1,
              0
            ],
            "yAxis": [
              1,
              -0,
              0
            ],
            "origin": [
              0,
              0.05,
              0.01
            ],
            "radius": 0.004
          }
        },
        {
          "type": "line",
          "line": {
            "origin": [
              -0.02299999999344516,
              0.03983716838864669,
              0.005
            ],
            "direction": [
              0,
              0,
              -1
            ]
          }
        },
        {
          "type": "circle",
          "circle": {
            "xAxis": [
              -0.5000000016387101,
              0.8660254028383291,
              0
            ],
            "yAxis": [
              0.8660254028383291,
              0.5000000016387101,
              0
            ],
            "origin": [
              -0.025,
              0.04330127,
              0
            ],
            "radius": 0.004
          }
        },
        {
          "type": "line",
          "line": {
            "origin": [
              -0.027000000006554843,
              0.04676537161135332,
              0.005
            ],
            "direction": [
              0,
              0,
              -1
            ]
          }
        },
        {
          "type": "circle",
          "circle": {
            "xAxis": [
              -0.5000000016387101,
              0.8660254028383291,
              0
            ],
            "yAxis": [
              0.8660254028383291,
              0.5000000016387101,
              0
            ],
            "origin": [
              -0.025,
              0.04330127,
              0.01
            ],
            "radius": 0.004
          }
        },
        {
          "type": "line",
          "line": {
            "origin": [
              -0.03983716838864668,
              0.02299999999344516,
              0.005
            ],
            "direction": [
              0,
              0,
              -1
            ]
          }
        },
        {
          "type": "circle",
          "circle": {
            "xAxis": [
              -0.8660254028383291,
              0.5000000016387101,
              0
            ],
            "yAxis": [
              0.5000000016387101,
              0.8660254028383291,
              0
            ],
            "origin": [
              -0.04330127,
              0.025,
              0
            ],
            "radius": 0.004
          }
        },
        {
          "type": "line",
          "line": {
            "origin": [
              -0.04676537161135332,
              0.027000000006554843,
              0.005
            ],
            "direction": [
              0,
              0,
              -1
            ]
          }
        },
        {
          "type": "circle",
          "circle": {
            "xAxis": [
              -0.8660254028383291,
              0.5000000016387101,
              0
            ],
            "yAxis": [
              0.5000000016387101,
              0.8660254028383291,
              0
            ],
            "origin": [
              -0.04330127,
              0.025,
              0.01
            ],
            "radius": 0.004
          }
        },
        {
          "type": "line",
          "line": {
            "origin": [
              -0.046,
              0.0000000000000000004898587196589414,
              0.005
            ],
            "direction": [
              0,
              0,
              -1
            ]
          }
        },
        {
          "type": "circle",
          "circle": {
            "xAxis": [
              -1,
              0,
              0
            ],
            "yAxis": [
              0,
              1,
              0
            ],
            "origin": [
              -0.05,
              0,
              0
            ],
            "radius": 0.004
          }
        },
        {
          "type": "line",
          "line": {
            "origin": [
              -0.054000000000000006,
              0,
              0.005
            ],
            "direction": [
              0,
              0,
              -1
            ]
          }
        },
        {
          "type": "circle",
          "circle": {
            "xAxis": [
              -1,
              0,
              0
            ],
            "yAxis": [
              0,
              1,
              0
            ],
            "origin": [
              -0.05,
              0,
              0.01
            ],
            "radius": 0.004
          }
        },
        {
          "type": "line",
          "line": {
            "origin": [
              -0.03983716838864669,
              -0.02299999999344516,
              0.005
            ],
            "direction": [
              0,
              0,
              -1
            ]
          }
        },
        {
          "type": "circle",
          "circle": {
            "xAxis": [
              -0.8660254028383291,
              -0.5000000016387101,
              0
            ],
            "yAxis": [
              -0.5000000016387101,
              0.8660254028383291,
              0
            ],
            "origin": [
              -0.04330127,
              -0.025,
              0
            ],
            "radius": 0.004
          }
        },
        {
          "type": "line",
          "line": {
            "origin": [
              -0.04676537161135332,
              -0.027000000006554843,
              0.005
            ],
            "direction": [
              0,
              0,
              -1
            ]
          }
        },
        {
          "type": "circle",
          "circle": {
            "xAxis": [
              -0.8660254028383291,
              -0.5000000016387101,
              0
            ],
            "yAxis": [
              -0.5000000016387101,
              0.8660254028383291,
              0
            ],
            "origin": [
              -0.04330127,
              -0.025,
              0.01
            ],
            "radius": 0.004
          }
        },
        {
          "type": "line",
          "line": {
            "origin": [
              -0.02299999999344516,
              -0.03983716838864668,
              0.005
            ],
            "direction": [
              0,
              0,
              -1
            ]
          }
        },
        {
          "type": "circle",
          "circle": {
            "xAxis": [
              -0.5000000016387101,
              -0.8660254028383291,
              0
            ],
            "yAxis": [
              -0.8660254028383291,
              0.5000000016387101,
              0
            ],
            "origin": [
              -0.025,
              -0.04330127,
              0
            ],
            "radius": 0.004
          }
        },
        {
          "type": "line",
          "line": {
            "origin": [
              -0.027000000006554843,
              -0.04676537161135332,
              0.005
            ],
            "direction": [
              0,
              0,
              -1
            ]
          }
        },
        {
          "type": "circle",
          "circle": {
            "xAxis": [
              -0.5000000016387101,
              -0.8660254028383291,
              0
            ],
            "yAxis": [
              -0.8660254028383291,
              0.5000000016387101,
              0
            ],
            "origin": [
              -0.025,
              -0.04330127,
              0.01
            ],
            "radius": 0.004
          }
        },
        {
          "type": "line",
          "line": {
            "origin": [
              -0.0000000000000000004898587196589414,
              -0.046,
              0.005
            ],
            "direction": [
              0,
              0,
              -1
            ]
          }
        },
        {
          "type": "circle",
          "circle": {
            "xAxis": [
              0,
              -1,
              0
            ],
            "yAxis": [
              -1,
              -0,
              -0
            ],
            "origin": [
              0,
              -0.05,
              0
            ],
            "radius": 0.004
          }
        },
        {
          "type": "line",
          "line": {
            "origin": [
              0,
              -0.054000000000000006,
              0.005
            ],
            "direction": [
              0,
              0,
              -1
            ]
          }
        },
        {
          "type": "circle",
          "circle": {
            "xAxis": [
              0,
              -1,
              0
            ],
            "yAxis": [
              -1,
              -0,
              -0
            ],
            "origin": [
              0,
              -0.05,
              0.01
            ],
            "radius": 0.004
          }
        },
        {
          "type": "line",
          "line": {
            "origin": [
              0.02299999999344516,
              -0.03983716838864669,
              0.005
            ],
            "direction": [
              0,
              0,
              -1
            ]
          }
        },
        {
          "type": "circle",
          "circle": {
            "xAxis": [
              0.5000000016387101,
              -0.8660254028383291,
              0
            ],
            "yAxis": [
              -0.8660254028383291,
              -0.5000000016387101,
              -0
            ],
            "origin": [
              0.025,
              -0.04330127,
              0
            ],
            "radius": 0.004
          }
        },
        {
          "type": "line",
          "line": {
            "origin": [
              0.027000000006554843,
              -0.04676537161135332,
              0.005
            ],
            "direction": [
              0,
              0,
              -1
            ]
          }
        },
        {
          "type": "circle",
          "circle": {
            "xAxis": [
              0.5000000016387101,
              -0.8660254028383291,
              0
            ],
            "yAxis": [
              -0.8660254028383291,
              -0.5000000016387101,
              -0
            ],
            "origin": [
              0.025,
              -0.04330127,
              0.01
            ],
            "radius": 0.004
          }
        },
        {
          "type": "line",
          "line": {
            "origin": [
              0.03983716838864668,
              -0.02299999999344516,
              0.005
            ],
            "direction": [
              0,
              0,
              -1
            ]
          }
        },
        {
          "type": "circle",
          "circle": {
            "xAxis": [
              0.8660254028383291,
              -0.5000000016387101,
              0
            ],
            "yAxis": [
              -0.5000000016387101,
              -0.8660254028383291,
              -0
            ],
            "origin": [
              0.04330127,
              -0.025,
              0
            ],
            "radius": 0.004
          }
        },
        {
          "type": "line",
          "line": {
            "origin": [
              0.04676537161135332,
              -0.027000000006554843,
              0.005
            ],
            "direction": [
              0,
              0,
              -1
            ]
          }
        },
        {
          "type": "circle",
          "circle": {
            "xAxis": [
              0.8660254028383291,
              -0.5000000016387101,
              0
            ],
            "yAxis": [
              -0.5000000016387101,
              -0.8660254028383291,
              -0
            ],
            "origin": [
              0.04330127,
              -0.025,
              0.01
            ],
            "radius": 0.004
          }
        }
      ]
    }
  },
  "extensionsUsed": [
    "KITTYCAD_boundary_representation"
  ],
  "materials": [
    {
      "alphaMode": "OPAQUE",
      "doubleSided": false,
      "pbrMetallicRoughness": {
        "baseColorFactor": [
          0.9,
          0.9,
          0.9,
          1
        ],
        "metallicFactor": 1,
        "roughnessFactor": 1
      },
      "emissiveFactor": [
        0,
        0,
        0
      ]
    }
  ],
  "meshes": [
    {
      "primitives": [
        {
          "attributes": {
            "POSITION": 0,
            "NORMAL": 1
          },
          "material": 0
        },
        {
          "attributes": {
            "POSITION": 2,
            "NORMAL": 3
          },
          "material": 0
        },
        {
          "attributes": {
            "POSITION": 4,
            "NORMAL": 5
          },
          "material": 0
        },
        {
          "attributes": {
            "POSITION": 6,
            "NORMAL": 7
          },
          "material": 0
        },
        {
          "attributes": {
            "POSITION": 8,
            "NORMAL": 9
          },
          "material": 0
        },
        {
          "attributes": {
            "POSITION": 10,
            "NORMAL": 11
          },
          "material": 0
        },
        {
          "attributes": {
            "POSITION": 12,
            "NORMAL": 13
          },
          "material": 0
        },
        {
          "attributes": {
            "POSITION": 14,
            "NORMAL": 15
          },
          "material": 0
        },
        {
          "attributes": {
            "POSITION": 16,
            "NORMAL": 17
          },
          "material": 0
        },
        {
          "attributes": {
            "POSITION": 18,
            "NORMAL": 19
          },
          "material": 0
        },
        {
          "attributes": {
            "POSITION": 20,
            "NORMAL": 21
          },
          "material": 0
        },
        {
          "attributes": {
            "POSITION": 22,
            "NORMAL": 23
          },
          "material": 0
        },
        {
          "attributes": {
            "POSITION": 24,
            "NORMAL": 25
          },
          "material": 0
        },
        {
          "attributes": {
            "POSITION": 26,
            "NORMAL": 27
          },
          "material": 0
        },
        {
          "attributes": {
            "POSITION": 28,
            "NORMAL": 29
          },
          "material": 0
        },
        {
          "attributes": {
            "POSITION": 30,
            "NORMAL": 31
          },
          "material": 0
        },
        {
          "attributes": {
            "POSITION": 32,
            "NORMAL": 33
          },
          "material": 0
        },
        {
          "attributes": {
            "POSITION": 34,
            "NORMAL": 35
          },
          "material": 0
        },
        {
          "attributes": {
            "POSITION": 36,
            "NORMAL": 37
          },
          "material": 0
        },
        {
          "attributes": {
            "POSITION": 38,
            "NORMAL": 39
          },
          "material": 0
        },
        {
          "attributes": {
            "POSITION": 40,
            "NORMAL": 41
          },
          "material": 0
        },
        {
          "attributes": {
            "POSITION": 42,
            "NORMAL": 43
          },
          "material": 0
        },
        {
          "attributes": {
            "POSITION": 44,
            "NORMAL": 45
          },
          "material": 0
        },
        {
          "attributes": {
            "POSITION": 46,
            "NORMAL": 47
          },
          "material": 0
        },
        {
          "attributes": {
            "POSITION": 48,
            "NORMAL": 49
          },
          "material": 0
        },
        {
          "attributes": {
            "POSITION": 50,
            "NORMAL": 51
          },
          "material": 0
        },
        {
          "attributes": {
            "POSITION": 52,
            "NORMAL": 53
          },
          "material": 0
        },
        {
          "attributes": {
            "POSITION": 54,
            "NORMAL": 55
          },
          "material": 0
        }
      ]
    }
  ],
  "nodes": [
    {
      "children": [
        1
      ]
    },
    {
      "children": [
        2
      ]
    },
    {
      "extensions": {
        "KITTYCAD_boundary_representation": {
          "solid": 0
        }
      },
      "mesh": 0
    }
  ],
  "scenes": [
    {
      "nodes": [
        0
      ]
    }
  ]
}