{
  "accessors": [
    {
      "bufferView": 0,
      "byteOffset": 0,
      "count": 6,
      "componentType": 5126,
      "type": "VEC3",
      "min": [
        -0.019999999552965164,
        0,
        0.019999999552965164
      ],
      "max": [
        0,
        0.017999999225139618,
        0.019999999552965164
      ]
    },
    {
      "bufferView": 0,
      "byteOffset": 12,
      "count": 6,
      "componentType": 5126,
      "type": "VEC3"
    },
    {
      "bufferView": 1,
      "byteOffset": 0,
      "count": 9,
      "componentType": 5126,
      "type": "VEC3",
      "min": [
        0,
        0,
        -0
      ],
      "max": [
        0,
        0.019999999552965164,
        0.019999999552965164
      ]
    },
    {
      "bufferView": 1,
      "byteOffset": 12,
      "count": 9,
      "componentType": 5126,
      "type": "VEC3"
    },
    {
      "bufferView": 2,
      "byteOffset": 0,
      "count": 6,
      "componentType": 5126,
      "type": "VEC3",
      "min": [
        -0.019999999552965164,
        0,
        -0
      ],
      "max": [
        0,
        0.019999999552965164,
        -0
      ]
    },
    {
      "bufferView": 2,
      "byteOffset": 12,
      "count": 6,
      "componentType": 5126,
      "type": "VEC3"
    },
    {
      "bufferView": 3,
      "byteOffset": 0,
      "count": 9,
      "componentType": 5126,
      "type": "VEC3",
      "min": [
        -0.019999999552965164,
        0,
        -0
      ],
      "max": [
        -0.019999999552965164,
        0.019999999552965164,
        0.019999999552965164
      ]
    },
    {
      "bufferView": 3,
      "byteOffset": 12,
      "count": 9,
      "componentType": 5126,
      "type": "VEC3"
    },
    {
      "bufferView": 4,
      "byteOffset": 0,
      "count": 6,
      "componentType": 5126,
      "type": "VEC3",
      "min": [
        -0.019999999552965164,
        0,
        -0
      ],
      "max": [
        0,
        0,
        0.019999999552965164
      ]
    },
    {
      "bufferView": 4,
      "byteOffset": 12,
      "count": 6,
      "componentType": 5126,
      "type": "VEC3"
    },
    {
      "bufferView": 5,
      "byteOffset": 0,
      "count": 6,
      "componentType": 5126,
      "type": "VEC3",
      "min": [
        -0.019999999552965164,
        0.019999999552965164,
        -0
      ],
      "max": [
        0,
        0.019999999552965164,
        0.017999999225139618
      ]
    },
    {
      "bufferView": 5,
      "byteOffset": 12,
      "count": 6,
      "componentType": 5126,
      "type": "VEC3"
    },
    {
      "bufferView": 6,
      "byteOffset": 0,
      "count": 6,
      "componentType": 5126,
      "type": "VEC3",
      "min": [
        -0.019999999552965164,
        0.017999999225139618,
        0.017999999225139618
      ],
      "max": [
        0,
        0.019999999552965164,
        0.019999999552965164
      ]
    },
    {
      "bufferView": 6,
      "byteOffset": 12,
      "count": 6,
      "componentType": 5126,
      "type": "VEC3"
    }
  ],
  "asset": {
    "generator": "zoo.dev",
    "version": "2.0"
  },
  "buffers": [
    {
      "byteLength": 1152,
      "uri": "data:application/octet-stream;base64,"
    }
  ],
  "bufferViews": [
    {
      "buffer": 0,
      "byteLength": 144,
      "byteOffset": 0,
      "byteStride": 24,
      "target": 34962
    },
    {
      "buffer": 0,
      "byteLength": 216,
      "byteOffset": 144,
      "byteStride": 24,
      "target": 34962
    },
    {
      "buffer": 0,
      "byteLength": 144,
      "byteOffset": 360,
      "byteStride": 24,
      "target": 34962
    },
    {
      "buffer": 0,
      "byteLength": 216,
      "byteOffset": 504,
      "byteStride": 24,
      "target": 34962
    },
    {
      "buffer": 0,
      "byteLength": 144,
      "byteOffset": 720,
      "byteStride": 24,
      "target": 34962
    },
    {
      "buffer": 0,
      "byteLength": 144,
      "byteOffset": 864,
      "byteStride": 24,
      "target": 34962
    },
    {
      "buffer": 0,
      "byteLength": 144,
      "byteOffset": 1008,
      "byteStride": 24,
      "target": 34962
    }
  ],
  "scene": 0,
  "extensions": {
    "KITTYCAD_boundary_representation": {
      "solids": [
        {
          "shells": [
            [
              0,
              1
            ]
          ],
          "mesh": 0
        }
      ],
      "shells": [
        {
          "faces": [
            [
              0,
              1
            ],
            [
              1,
              1
            ],
            [
              2,
              1
            ],
            [
              3,
              1
            ],
            [
              4,
              1
            ],
            [
              5,
              1
            ],
            [
              6,
              1
            ]
          ]
        }
      ],
      "faces": [
        {
          "surface": [
            0,
            1
          ],
          "loops": [
            [
              0,
              1
            ]
          ]
        },
        {
          "surface": [
            1,
            1
          ],
          "loops": [
            [
              1,
              1
            ]
          ]
        },
        {
          "surface": [
            2,
            1
          ],
          "loops": [
            [
              2,
              1
            ]
          ]
        },
        {
          "surface": [
            3,
            1
          ],
          "loops": [
            [
              3,
              1
            ]
          ]
        },
        {
          "surface": [
            4,
            -1
          ],
          "loops": [
            [
              4,
              1
            ]
          ]
        },
        {
          "surface": [
            5,
            1
          ],
          "loops": [
            [
              5,
              1
            ]
          ]
        },
        {
          "surface": [
            6,
            1
          ],
          "loops": [
            [
              6,
              1
            ]
          ]
        }
      ],
      "loops": [
        {
          "edges": [
            [
              0,
              1
            ],
            [
              1,
              1
            ],
            [
              2,
              -1
            ],
            [
              3,
              1
            ]
          ]
        },
        {
          "edges": [
            [
              4,
              1
            ],
            [
              5,
              1
            ],
            [
              6,
              -1
            ],
            [
              7,
              -1
            ],
            [
              1,
              -1
            ]
          ]
        },
        {
          "edges": [
            [
              8,
              1
            ],
            [
              9,
              1
            ],
            [
              10,
              -1
            ],
            [
              5,
              -1
            ]
          ]
        },
        {
          "edges": [
            [
              11,
              1
            ],
            [
              3,
              -1
            ],
            [
              12,
              -1
            ],
            [
              13,
              -1
            ],
            [
              9,
              -1
            ]
          ]
        },
        {
          "edges": [
            [
              11,
              -1
            ],
            [
              8,
              -1
            ],
            [
              4,
              -1
            ],
            [
              0,
              -1
            ]
          ]
        },
        {
          "edges": [
            [
              14,
              -1
            ],
            [
              6,
              1
            ],
            [
              10,
              1
            ],
            [
              13,
              1
            ]
          ]
        },
        {
          "edges": [
            [
              2,
              1
            ],
            [
              7,
              1
            ],
            [
              14,
              1
            ],
            [
              12,
              1
            ]
          ]
        }
      ],
      "edges": [
        {
          "curve": [
            0,
            1
          ],
          "start": 0,
          "end": 1,
          "t": [
            0,
            0.02
          ]
        },
        {
          "curve": [
            1,
            1
          ],
          "start": 1,
          "end": 2,
          "t": [
            0,
            0.018
          ]
        },
        {
          "curve": [
            2,
            1
          ],
          "start": 3,
          "end": 2,
          "t": [
            0,
            0.02
          ]
        },
        {
          "curve": [
            3,
            1
          ],
          "start": 3,
          "end": 0,
          "t": [
            0,
            0.018
          ]
        },
        {
          "curve": [
            4,
            1
          ],
          "start": 1,
          "end": 4,
          "t": [
            0,
            0.02
          ]
        },
        {
          "curve": [
            5,
            1
          ],
          "start": 4,
          "end": 5,
          "t": [
            0,
            0.02
          ]
        },
        {
          "curve": [
            6,
            1
          ],
          "start": 6,
          "end": 5,
          "t": [
            0,
            0.018
          ]
        },
        {
          "curve": [
            7,
            1
          ],
          "start": 2,
          "end": 6,
          "t": [
            0,
            0.002828427124746192
          ]
        },
        {
          "curve": [
            8,
            1
          ],
          "start": 4,
          "end": 7,
          "t": [
            0,
            0.02
          ]
        },
        {
          "curve": [
            9,
            1
          ],
          "start": 7,
          "end": 8,
          "t": [
            0,
            0.02
          ]
        },
        {
          "curve": [
            10,
            1
          ],
          "start": 5,
          "end": 8,
          "t": [
            0,
            0.02
          ]
        },
        {
          "curve": [
            11,
            1
          ],
          "start": 7,
          "end": 0,
          "t": [
            0,
            0.02
          ]
        },
        {
          "curve": [
            12,
            1
          ],
          "start": 9,
          "end": 3,
          "t": [
            0,
            0.002828427124746192
          ]
        },
        {
          "curve": [
            13,
            1
          ],
          "start": 8,
          "end": 9,
          "t": [
            0,
            0.018
          ]
        },
        {
          "curve": [
            14,
            1
          ],
          "start": 6,
          "end": 9,
          "t": [
            0,
            0.02
          ]
        }
      ],
      "vertices": [
        [
          -0.02,
          0,
          0.02
        ],
        [
          0,
          0,
          0.02
        ],
        [
          0,
          0.018,
          0.02
        ],
        [
          -0.02,
          0.018,
          0.02
        ],
        [
          0,
          0,
          -0
        ],
        [
          0,
          0.02,
          -0
        ],
        [
          0,
          0.02,
          0.018
        ],
        [
          -0.02,
          0,
          -0
        ],
        [
          -0.02,
          0.02,
          -0
        ],
        [
          -0.02,
          0.02,
          0.018
        ]
      ],
      "surfaces": [
        {
          "type": "plane",
          "plane": {
            "xAxis": [
              1,
              0,
              -0
            ],
            "yAxis": [
              -0,
              1,
              0
            ],
            "origin": [
              -0.01,
              0.01,
              0.02
            ]
          }
        },
        {
          "type": "plane",
          "plane": {
            "xAxis": [
              -0,
              1,
              0
            ],
            "yAxis": [
              0,
              -0,
              1
            ],
            "origin": [
              0,
              0.01,
              0.01
            ]
          }
        },
        {
          "type": "plane",
          "plane": {
            "xAxis": [
              1,
              0,
              0
            ],
            "yAxis": [
              0,
              -1,
              0
            ],
            "origin": [
              -0.01,
              0.01,
              -0
            ]
          }
        },
        {
          "type": "plane",
          "plane": {
            "xAxis": [
              0,
              1,
              0
            ],
            "yAxis": [
              0,
              0,
              -1
            ],
            "origin": [
              -0.02,
              0.01,
              0.01
            ]
          }
        },
        {
          "type": "plane",
          "plane": {
            "xAxis": [
              1,
              0,
              0
            ],
            "yAxis": [
              0,
              0,
              -1
            ],
            "origin": [
              0,
              0,
              -0
            ]
          }
        },
        {
          "type": "plane",
          "plane": {
            "xAxis": [
              1,
              0,
              0
            ],
            "yAxis": [
              0,
              0,
              -1
            ],
            "origin": [
              0,
              0.02,
              -0
            ]
          }
        },
        {
          "type": "plane",
          "plane": {
            "xAxis": [
              1,
              0,
              -0
            ],
            "yAxis": [
              -0,
              0.7071067811865476,
              -0.7071067811865476
            ],
            "origin": [
              -0.0095,
              0.019353553390593272,
              0.018646446609406727
            ]
          }
        }
      ],
      "curves3D": [
        {
          "type": "line",
          "line": {
            "origin": [
              -0.02,
              0,
              0.02
            ],
            "direction": [
              1,
              0,
              -0
            ]
          }
        },
        {
          "type": "line",
          "line": {
            "origin": [
              0,
              0,
              0.02
            ],
            "direction": [
              0,
              1,
              0
            ]
          }
        },
        {
          "type": "line",
          "line": {
            "origin": [
              -0.02,
              0.018,
              0.02
            ],
            "direction": [
              1,
              0,
              -0
            ]
          }
        },
        {
          "type": "line",
          "line": {
            "origin": [
              -0.02,
              0.018,
              0.02
            ],
            "direction": [
              0,
              -1,
              0
            ]
          }
        },
        {
          "type": "line",
          "line": {
            "origin": [
              0,
              0,
              0.02
            ],
            "direction": [
              0,
              0,
              -1
            ]
          }
        },
        {
          "type": "line",
          "line": {
            "origin": [
              0,
              0,
              -0
            ],
            "direction": [
              0,
              1,
              0
            ]
          }
        },
        {
          "type": "line",
          "line": {
            "origin": [
              0,
              0.02,
              0.018
            ],
            "direction": [
              0,
              0,
              -1
            ]
          }
        },
        {
          "type": "line",
          "line": {
            "origin": [
              0,
              0.018,
              0.02
            ],
            "direction": [
              0,
              0.7071067811865476,
              -0.7071067811865476
            ]
          }
        },
        {
          "type": "line",
          "line": {
            "origin": [
              0,
              0,
              -0
            ],
            "direction": [
              -1,
              0,
              0
            ]
          }
        },
        {
          "type": "line",
          "line": {
            "origin": [
              -0.02,
              0,
              -0
            ],
            "direction": [
              0,
              1,
              0
            ]
          }
        },
        {
          "type": "line",
          "line": {
            "origin": [
              0,
              0.02,
              -0
            ],
            "direction": [
              -1,
              0,
              0
            ]
          }
        },
        {
          "type": "line",
          "line": {
            "origin": [
              -0.02,
              0,
              -0
            ],
            "direction": [
              0,
              0,
              1
            ]
          }
        },
        {
          "type": "line",
          "line": {
            "origin": [
              -0.02,
              0.02,
              0.018
            ],
            "direction": [
              0,
              -0.7071067811865476,
              0.7071067811865476
            ]
          }
        },
        {
          "type": "line",
          "line": {
            "origin": [
              -0.02,
              0.02,
              -0
            ],
            "direction": [
              0,
              0,
              1
            ]
          }
        },
        {
          "type": "line",
          "line": {
            "origin": [
              0,
              0.02,
              0.018
            ],
            "direction": [
              -1,
              0,
              0
            ]
          }
        }
      ]
    }
  },
  "extensionsUsed": [
    "KITTYCAD_boundary_representation"
  ],
  "meshes": [
    {
      "primitives": [
        {
          "attributes": {
            "POSITION": 0,
            "NORMAL": 1
          }
        },
        {
          "attributes": {
            "POSITION": 2,
            "NORMAL": 3
          }
        },
        {
          "attributes": {
            "POSITION": 4,
            "NORMAL": 5
          }
        },
        {
          "attributes": {
            "POSITION": 6,
            "NORMAL": 7
          }
        },
        {
          "attributes": {
            "POSITION": 8,
            "NORMAL": 9
          }
        },
        {
          "attributes": {
            "POSITION": 10,
            "NORMAL": 11
          }
        },
        {
          "attributes": {
            "POSITION": 12,
            "NORMAL": 13
          }
        }
      ]
    }
  ],
  "nodes": [
    {
      "children": [
        1
      ]
    },
    {
      "children": [
        2
      ]
    },
    {
      "extensions": {
        "KITTYCAD_boundary_representation": {
          "solid": 0
        }
      },
      "mesh": 0
    }
  ],
  "scenes": [
    {
      "nodes": [
        0
      ]
    }
  ]
}