{
  "accessors": [
    {
      "bufferView": 0,
      "byteOffset": 0,
      "count": 6,
      "componentType": 5126,
      "type": "VEC3",
      "min": [
        0,
        0,
        -0
      ],
      "max": [
        0,
        0.0010000000474974513,
        0.004000000189989805
      ]
    },
    {
      "bufferView": 0,
      "byteOffset": 12,
      "count": 6,
      "componentType": 5126,
      "type": "VEC3"
    },
    {
      "bufferView": 1,
      "byteOffset": 0,
      "count": 6,
      "componentType": 5126,
      "type": "VEC3",
      "min": [
        0,
        0,
        0.004000000189989805
      ],
      "max": [
        0.03472964093089104,
        0.0010000000474974513,
        0.004000000189989805
      ]
    },
    {
      "bufferView": 1,
      "byteOffset": 12,
      "count": 6,
      "componentType": 5126,
      "type": "VEC3"
    },
    {
      "bufferView": 2,
      "byteOffset": 0,
      "count": 6,
      "componentType": 5126,
      "type": "VEC3",
      "min": [
        0.03472964093089104,
        0,
        -0
      ],
      "max": [
        0.03472964093089104,
        0.0010000000474974513,
        0.004000000189989805
      ]
    },
    {
      "bufferView": 2,
      "byteOffset": 12,
      "count": 6,
      "componentType": 5126,
      "type": "VEC3"
    },
    {
      "bufferView": 3,
      "byteOffset": 0,
      "count": 6,
      "componentType": 5126,
      "type": "VEC3",
      "min": [
        0.032993149012327194,
        0,
        -0.00984807964414358
      ],
      "max": [
        0.03472964093089104,
        0.0010000000474974513,
        -0
      ]
    },
    {
      "bufferView": 3,
      "byteOffset": 12,
      "count": 6,
      "componentType": 5126,
      "type": "VEC3"
    },
    {
      "bufferView": 4,
      "byteOffset": 0,
      "count": 6,
      "componentType": 5126,
      "type": "VEC3",
      "min": [
        0.03125666826963425,
        0,
        -0.00984807964414358
      ],
      "max": [
        0.032993149012327194,
        0.0010000000474974513,
        -0
      ]
    },
    {
      "bufferView": 4,
      "byteOffset": 12,
      "count": 6,
      "componentType": 5126,
      "type": "VEC3"
    },
    {
      "bufferView": 5,
      "byteOffset": 0,
      "count": 6,
      "componentType": 5126,
      "type": "VEC3",
      "min": [
        0.02952018938958645,
        0,
        -0.00984807964414358
      ],
      "max": [
        0.03125666826963425,
        0.0010000000474974513,
        -0
      ]
    },
    {
      "bufferView": 5,
      "byteOffset": 12,
      "count": 6,
      "componentType": 5126,
      "type": "VEC3"
    },
    {
      "bufferView": 6,
      "byteOffset": 0,
      "count": 6,
      "componentType": 5126,
      "type": "VEC3",
      "min": [
        0.02778371050953865,
        0,
        -0.00984807964414358
      ],
      "max": [
        0.02952018938958645,
        0.0010000000474974513,
        -0
      ]
    },
    {
      "bufferView": 6,
      "byteOffset": 12,
      "count": 6,
      "componentType": 5126,
      "type": "VEC3"
    },
    {
      "bufferView": 7,
      "byteOffset": 0,
      "count": 6,
      "componentType": 5126,
      "type": "VEC3",
      "min": [
        0.026047229766845703,
        0,
        -0.00984807964414358
      ],
      "max": [
        0.02778371050953865,
        0.0010000000474974513,
        -0
      ]
    },
    {
      "bufferView": 7,
      "byteOffset": 12,
      "count": 6,
      "componentType": 5126,
      "type": "VEC3"
    },
    {
      "bufferView": 8,
      "byteOffset": 0,
      "count": 6,
      "componentType": 5126,
      "type": "VEC3",
      "min": [
        0.02431073971092701,
        0,
        -0.00984807964414358
      ],
      "max": [
        0.026047229766845703,
        0.0010000000474974513,
        -0
      ]
    },
    {
      "bufferView": 8,
      "byteOffset": 12,
      "count": 6,
      "componentType": 5126,
      "type": "VEC3"
    },
    {
      "bufferView": 9,
      "byteOffset": 0,
      "count": 6,
      "componentType": 5126,
      "type": "VEC3",
      "min": [
        0.02257426083087921,
        0,
        -0.00984807964414358
      ],
      "max": [
        0.02431073971092701,
        0.0010000000474974513,
        -0
      ]
    },
    {
      "bufferView": 9,
      "byteOffset": 12,
      "count": 6,
      "componentType": 5126,
      "type": "VEC3"
    },
    {
      "bufferView": 10,
      "byteOffset": 0,
      "count": 6,
      "componentType": 5126,
      "type": "VEC3",
      "min": [
        0.020837780088186264,
        0,
        -0.00984807964414358
      ],
      "max": [
        0.02257426083087921,
        0.0010000000474974513,
        -0
      ]
    },
    {
      "bufferView": 10,
      "byteOffset": 12,
      "count": 6,
      "componentType": 5126,
      "type": "VEC3"
    },
    {
      "bufferView": 11,
      "byteOffset": 0,
      "count": 6,
      "componentType": 5126,
      "type": "VEC3",
      "min": [
        0.019101299345493317,
        0,
        -0.00984807964414358
      ],
      "max": [
        0.020837780088186264,
        0.0010000000474974513,
        -0
      ]
    },
    {
      "bufferView": 11,
      "byteOffset": 12,
      "count": 6,
      "componentType": 5126,
      "type": "VEC3"
    },
    {
      "bufferView": 12,
      "byteOffset": 0,
      "count": 6,
      "componentType": 5126,
      "type": "VEC3",
      "min": [
        0.01736482046544552,
        0,
        -0.00984807964414358
      ],
      "max": [
        0.019101299345493317,
        0.0010000000474974513,
        -0
      ]
    },
    {
      "bufferView": 12,
      "byteOffset": 12,
      "count": 6,
      "componentType": 5126,
      "type": "VEC3"
    },
    {
      "bufferView": 13,
      "byteOffset": 0,
      "count": 6,
      "componentType": 5126,
      "type": "VEC3",
      "min": [
        0.01562833972275257,
        0,
        -0.00984807964414358
      ],
      "max": [
        0.01736482046544552,
        0.0010000000474974513,
        -0
      ]
    },
    {
      "bufferView": 13,
      "byteOffset": 12,
      "count": 6,
      "componentType": 5126,
      "type": "VEC3"
    },
    {
      "bufferView": 14,
      "byteOffset": 0,
      "count": 6,
      "componentType": 5126,
      "type": "VEC3",
      "min": [
        0.013891849666833878,
        0,
        -0.00984807964414358
      ],
      "max": [
        0.01562833972275257,
        0.0010000000474974513,
        -0
      ]
    },
    {
      "bufferView": 14,
      "byteOffset": 12,
      "count": 6,
      "componentType": 5126,
      "type": "VEC3"
    },
    {
      "bufferView": 15,
      "byteOffset": 0,
      "count": 6,
      "componentType": 5126,
      "type": "VEC3",
      "min": [
        0.012155369855463505,
        0,
        -0.00984807964414358
      ],
      "max": [
        0.013891849666833878,
        0.0010000000474974513,
        -0
      ]
    },
    {
      "bufferView": 15,
      "byteOffset": 12,
      "count": 6,
      "componentType": 5126,
      "type": "VEC3"
    },
    {
      "bufferView": 16,
      "byteOffset": 0,
      "count": 6,
      "componentType": 5126,
      "type": "VEC3",
      "min": [
        0.010418890044093132,
        0,
        -0.00984807964414358
      ],
      "max": [
        0.012155369855463505,
        0.0010000000474974513,
        -0
      ]
    },
    {
      "bufferView": 16,
      "byteOffset": 12,
      "count": 6,
      "componentType": 5126,
      "type": "VEC3"
    },
    {
      "bufferView": 17,
      "byteOffset": 0,
      "count": 6,
      "componentType": 5126,
      "type": "VEC3",
      "min": [
        0.00868241023272276,
        0,
        -0.00984807964414358
      ],
      "max": [
        0.010418890044093132,
        0.0010000000474974513,
        -0
      ]
    },
    {
      "bufferView": 17,
      "byteOffset": 12,
      "count": 6,
      "componentType": 5126,
      "type": "VEC3"
    },
    {
      "bufferView": 18,
      "byteOffset": 0,
      "count": 6,
      "componentType": 5126,
      "type": "VEC3",
      "min": [
        0.006945929955691099,
        0,
        -0.00984807964414358
      ],
      "max": [
        0.00868241023272276,
        0.0010000000474974513,
        -0
      ]
    },
    {
      "bufferView": 18,
      "byteOffset": 12,
      "count": 6,
      "componentType": 5126,
      "type": "VEC3"
    },
    {
      "bufferView": 19,
      "byteOffset": 0,
      "count": 6,
      "componentType": 5126,
      "type": "VEC3",
      "min": [
        0.005209450144320726,
        0,
        -0.00984807964414358
      ],
      "max": [
        0.006945929955691099,
        0.0010000000474974513,
        -0
      ]
    },
    {
      "bufferView": 19,
      "byteOffset": 12,
      "count": 6,
      "componentType": 5126,
      "type": "VEC3"
    },
    {
      "bufferView": 20,
      "byteOffset": 0,
      "count": 6,
      "componentType": 5126,
      "type": "VEC3",
      "min": [
        0.003472960088402033,
        0,
        -0.00984807964414358
      ],
      "max": [
        0.005209450144320726,
        0.0010000000474974513,
        -0
      ]
    },
    {
      "bufferView": 20,
      "byteOffset": 12,
      "count": 6,
      "componentType": 5126,
      "type": "VEC3"
    },
    {
      "bufferView": 21,
      "byteOffset": 0,
      "count": 6,
      "componentType": 5126,
      "type": "VEC3",
      "min": [
        0.0017364800442010164,
        0,
        -0.00984807964414358
      ],
      "max": [
        0.003472960088402033,
        0.0010000000474974513,
        -0
      ]
    },
    {
      "bufferView": 21,
      "byteOffset": 12,
      "count": 6,
      "componentType": 5126,
      "type": "VEC3"
    },
    {
      "bufferView": 22,
      "byteOffset": 0,
      "count": 6,
      "componentType": 5126,
      "type": "VEC3",
      "min": [
        0,
        0,
        -0.00984807964414358
      ],
      "max": [
        0.0017364800442010164,
        0.0010000000474974513,
        -0
      ]
    },
    {
      "bufferView": 22,
      "byteOffset": 12,
      "count": 6,
      "componentType": 5126,
      "type": "VEC3"
    },
    {
      "bufferView": 23,
      "byteOffset": 0,
      "count": 63,
      "componentType": 5126,
      "type": "VEC3",
      "min": [
        0,
        0,
        -0.00984807964414358
      ],
      "max": [
        0.03472964093089104,
        0,
        0.004000000189989805
      ]
    },
    {
      "bufferView": 23,
      "byteOffset": 12,
      "count": 63,
      "componentType": 5126,
      "type": "VEC3"
    },
    {
      "bufferView": 24,
      "byteOffset": 0,
      "count": 63,
      "componentType": 5126,
      "type": "VEC3",
      "min": [
        0,
        0.0010000000474974513,
        -0.00984807964414358
      ],
      "max": [
        0.03472964093089104,
        0.0010000000474974513,
        0.004000000189989805
      ]
    },
    {
      "bufferView": 24,
      "byteOffset": 12,
      "count": 63,
      "componentType": 5126,
      "type": "VEC3"
    }
  ],
  "asset": {
    "generator": "zoo.dev",
    "version": "2.0"
  },
  "buffers": [
    {
      "byteLength": 6336,
      "uri": "data:application/octet-stream;base64,"
    }
  ],
  "bufferViews": [
    {
      "buffer": 0,
      "byteLength": 144,
      "byteOffset": 0,
      "byteStride": 24,
      "target": 34962
    },
    {
      "buffer": 0,
      "byteLength": 144,
      "byteOffset": 144,
      "byteStride": 24,
      "target": 34962
    },
    {
      "buffer": 0,
      "byteLength": 144,
      "byteOffset": 288,
      "byteStride": 24,
      "target": 34962
    },
    {
      "buffer": 0,
      "byteLength": 144,
      "byteOffset": 432,
      "byteStride": 24,
      "target": 34962
    },
    {
      "buffer": 0,
      "byteLength": 144,
      "byteOffset": 576,
      "byteStride": 24,
      "target": 34962
    },
    {
      "buffer": 0,
      "byteLength": 144,
      "byteOffset": 720,
      "byteStride": 24,
      "target": 34962
    },
    {
      "buffer": 0,
      "byteLength": 144,
      "byteOffset": 864,
      "byteStride": 24,
      "target": 34962
    },
    {
      "buffer": 0,
      "byteLength": 144,
      "byteOffset": 1008,
      "byteStride": 24,
      "target": 34962
    },
    {
      "buffer": 0,
      "byteLength": 144,
      "byteOffset": 1152,
      "byteStride": 24,
      "target": 34962
    },
    {
      "buffer": 0,
      "byteLength": 144,
      "byteOffset": 1296,
      "byteStride": 24,
      "target": 34962
    },
    {
      "buffer": 0,
      "byteLength": 144,
      "byteOffset": 1440,
      "byteStride": 24,
      "target": 34962
    },
    {
      "buffer": 0,
      "byteLength": 144,
      "byteOffset": 1584,
      "byteStride": 24,
      "target": 34962
    },
    {
      "buffer": 0,
      "byteLength": 144,
      "byteOffset": 1728,
      "byteStride": 24,
      "target": 34962
    },
    {
      "buffer": 0,
      "byteLength": 144,
      "byteOffset": 1872,
      "byteStride": 24,
      "target": 34962
    },
    {
      "buffer": 0,
      "byteLength": 144,
      "byteOffset": 2016,
      "byteStride": 24,
      "target": 34962
    },
    {
      "buffer": 0,
      "byteLength": 144,
      "byteOffset": 2160,
      "byteStride": 24,
      "target": 34962
    },
    {
      "buffer": 0,
      "byteLength": 144,
      "byteOffset": 2304,
      "byteStride": 24,
      "target": 34962
    },
    {
      "buffer": 0,
      "byteLength": 144,
      "byteOffset": 2448,
      "byteStride": 24,
      "target": 34962
    },
    {
      "buffer": 0,
      "byteLength": 144,
      "byteOffset": 2592,
      "byteStride": 24,
      "target": 34962
    },
    {
      "buffer": 0,
      "byteLength": 144,
      "byteOffset": 2736,
      "byteStride": 24,
      "target": 34962
    },
    {
      "buffer": 0,
      "byteLength": 144,
      "byteOffset": 2880,
      "byteStride": 24,
      "target": 34962
    },
    {
      "buffer": 0,
      "byteLength": 144,
      "byteOffset": 3024,
      "byteStride": 24,
      "target": 34962
    },
    {
      "buffer": 0,
      "byteLength": 144,
      "byteOffset": 3168,
      "byteStride": 24,
      "target": 34962
    },
    {
      "buffer": 0,
      "byteLength": 1512,
      "byteOffset": 3312,
      "byteStride": 24,
      "target": 34962
    },
    {
      "buffer": 0,
      "byteLength": 1512,
      "byteOffset": 4824,
      "byteStride": 24,
      "target": 34962
    }
  ],
  "scene": 0,
  "extensions": {
    "KITTYCAD_boundary_representation": {
      "solids": [
        {
          "shells": [
            [
              0,
              1
            ]
          ],
          "mesh": 0,
          "extras": {
            "KITTYCAD": {
              "material": 0
            }
          }
        }
      ],
      "shells": [
        {
          "faces": [
            [
              0,
              1
            ],
            [
              1,
              1
            ],
            [
              2,
              1
            ],
            [
              3,
              1
            ],
            [
              4,
              1
            ],
            [
              5,
              1
            ],
            [
              6,
              1
            ],
            [
              7,
              1
            ],
            [
              8,
              1
            ],
            [
              9,
              1
            ],
            [
              10,
              1
            ],
            [
              11,
              1
            ],
            [
              12,
              1
            ],
            [
              13,
              1
            ],
            [
              14,
              1
            ],
            [
              15,
              1
            ],
            [
              16,
              1
            ],
            [
              17,
              1
            ],
            [
              18,
              1
            ],
            [
              19,
              1
            ],
            [
              20,
              1
            ],
            [
              21,
              1
            ],
            [
              22,
              1
            ],
            [
              23,
              1
            ],
            [
              24,
              1
            ]
          ]
        }
      ],
      "faces": [
        {
          "surface": [
            0,
            1
          ],
          "loops": [
            [
              0,
              1
            ]
          ]
        },
        {
          "surface": [
            1,
            1
          ],
          "loops": [
            [
              1,
              1
            ]
          ]
        },
        {
          "surface": [
            2,
            1
          ],
          "loops": [
            [
              2,
              1
            ]
          ]
        },
        {
          "surface": [
            3,
            1
          ],
          "loops": [
            [
              3,
              1
            ]
          ]
        },
        {
          "surface": [
            4,
            1
          ],
          "loops": [
            [
              4,
              1
            ]
          ]
        },
        {
          "surface": [
            5,
            1
          ],
          "loops": [
            [
              5,
              1
            ]
          ]
        },
        {
          "surface": [
            6,
            1
          ],
          "loops": [
            [
              6,
              1
            ]
          ]
        },
        {
          "surface": [
            7,
            1
          ],
          "loops": [
            [
              7,
              1
            ]
          ]
        },
        {
          "surface": [
            8,
            1
          ],
          "loops": [
            [
              8,
              1
            ]
          ]
        },
        {
          "surface": [
            9,
            1
          ],
          "loops": [
            [
              9,
              1
            ]
          ]
        },
        {
          "surface": [
            10,
            1
          ],
          "loops": [
            [
              10,
              1
            ]
          ]
        },
        {
          "surface": [
            11,
            1
          ],
          "loops": [
            [
              11,
              1
            ]
          ]
        },
        {
          "surface": [
            12,
            1
          ],
          "loops": [
            [
              12,
              1
            ]
          ]
        },
        {
          "surface": [
            13,
            1
          ],
          "loops": [
            [
              13,
              1
            ]
          ]
        },
        {
          "surface": [
            14,
            1
          ],
          "loops": [
            [
              14,
              1
            ]
          ]
        },
        {
          "surface": [
            15,
            1
          ],
          "loops": [
            [
              15,
              1
            ]
          ]
        },
        {
          "surface": [
            16,
            1
          ],
          "loops": [
            [
              16,
              1
            ]
          ]
        },
        {
          "surface": [
            17,
            1
          ],
          "loops": [
            [
              17,
              1
            ]
          ]
        },
        {
          "surface": [
            18,
            1
          ],
          "loops": [
            [
              18,
              1
            ]
          ]
        },
        {
          "surface": [
            19,
            1
          ],
          "loops": [
            [
              19,
              1
            ]
          ]
        },
        {
          "surface": [
            20,
            1
          ],
          "loops": [
            [
              20,
              1
            ]
          ]
        },
        {
          "surface": [
            21,
            1
          ],
          "loops": [
            [
              21,
              1
            ]
          ]
        },
        {
          "surface": [
            22,
            1
          ],
          "loops": [
            [
              22,
              1
            ]
          ]
        },
        {
          "surface": [
            23,
            -1
          ],
          "loops": [
            [
              23,
              1
            ]
          ]
        },
        {
          "surface": [
            24,
            1
          ],
          "loops": [
            [
              24,
              1
            ]
          ]
        }
      ],
      "loops": [
        {
          "edges": [
            [
              0,
              1
            ],
            [
              1,
              1
            ],
            [
              2,
              -1
            ],
            [
              3,
              -1
            ]
          ]
        },
        {
          "edges": [
            [
              4,
              1
            ],
            [
              5,
              1
            ],
            [
              6,
              -1
            ],
            [
              1,
              -1
            ]
          ]
        },
        {
          "edges": [
            [
              7,
              1
            ],
            [
              8,
              1
            ],
            [
              9,
              -1
            ],
            [
              5,
              -1
            ]
          ]
        },
        {
          "edges": [
            [
              10,
              1
            ],
            [
              11,
              1
            ],
            [
              12,
              -1
            ],
            [
              8,
              -1
            ]
          ]
        },
        {
          "edges": [
            [
              13,
              1
            ],
            [
              14,
              1
            ],
            [
              15,
              -1
            ],
            [
              11,
              -1
            ]
          ]
        },
        {
          "edges": [
            [
              16,
              1
            ],
            [
              17,
              1
            ],
            [
              18,
              -1
            ],
            [
              14,
              -1
            ]
          ]
        },
        {
          "edges": [
            [
              19,
              1
            ],
            [
              20,
              1
            ],
            [
              21,
              -1
            ],
            [
              17,
              -1
            ]
          ]
        },
        {
          "edges": [
            [
              22,
              1
            ],
            [
              23,
              1
            ],
            [
              24,
              -1
            ],
            [
              20,
              -1
            ]
          ]
        },
        {
          "edges": [
            [
              25,
              1
            ],
            [
              26,
              1
            ],
            [
              27,
              -1
            ],
            [
              23,
              -1
            ]
          ]
        },
        {
          "edges": [
            [
              28,
              1
            ],
            [
              29,
              1
            ],
            [
              30,
              -1
            ],
            [
              26,
              -1
            ]
          ]
        },
        {
          "edges": [
            [
              31,
              1
            ],
            [
              32,
              1
            ],
            [
              33,
              -1
            ],
            [
              29,
              -1
            ]
          ]
        },
        {
          "edges": [
            [
              34,
              1
            ],
            [
              35,
              1
            ],
            [
              36,
              -1
            ],
            [
              32,
              -1
            ]
          ]
        },
        {
          "edges": [
            [
              37,
              1
            ],
            [
              38,
              1
            ],
            [
              39,
              -1
            ],
            [
              35,
              -1
            ]
          ]
        },
        {
          "edges": [
            [
              40,
              1
            ],
            [
              41,
              1
            ],
            [
              42,
              -1
            ],
            [
              38,
              -1
            ]
          ]
        },
        {
          "edges": [
            [
              43,
              1
            ],
            [
              44,
              1
            ],
            [
              45,
              -1
            ],
            [
              41,
              -1
            ]
          ]
        },
        {
          "edges": [
            [
              46,
              1
            ],
            [
              47,
              1
            ],
            [
              48,
              -1
            ],
            [
              44,
              -1
            ]
          ]
        },
        {
          "edges": [
            [
              49,
              1
            ],
            [
              50,
              1
            ],
            [
              51,
              -1
            ],
            [
              47,
              -1
            ]
          ]
        },
        {
          "edges": [
            [
              52,
              1
            ],
            [
              53,
              1
            ],
            [
              54,
              -1
            ],
            [
              50,
              -1
            ]
          ]
        },
        {
          "edges": [
            [
              55,
              1
            ],
            [
              56,
              1
            ],
            [
              57,
              -1
            ],
            [
              53,
              -1
            ]
          ]
        },
        {
          "edges": [
            [
              58,
              1
            ],
            [
              59,
              1
            ],
            [
              60,
              -1
            ],
            [
              56,
              -1
            ]
          ]
        },
        {
          "edges": [
            [
              61,
              1
            ],
            [
              62,
              1
            ],
            [
              63,
              -1
            ],
            [
              59,
              -1
            ]
          ]
        },
        {
          "edges": [
            [
              64,
              1
            ],
            [
              65,
              1
            ],
            [
              66,
              -1
            ],
            [
              62,
              -1
            ]
          ]
        },
        {
          "edges": [
            [
              67,
              1
            ],
            [
              3,
              1
            ],
            [
              68,
              -1
            ],
            [
              65,
              -1
            ]
          ]
        },
        {
          "edges": [
            [
              67,
              -1
            ],
            [
              64,
              -1
            ],
            [
              61,
              -1
            ],
            [
              58,
              -1
            ],
            [
              55,
              -1
            ],
            [
              52,
              -1
            ],
            [
              49,
              -1
            ],
            [
              46,
              -1
            ],
            [
              43,
              -1
            ],
            [
              40,
              -1
            ],
            [
              37,
              -1
            ],
            [
              34,
              -1
            ],
            [
              31,
              -1
            ],
            [
              28,
              -1
            ],
            [
              25,
              -1
            ],
            [
              22,
              -1
            ],
            [
              19,
              -1
            ],
            [
              16,
              -1
            ],
            [
              13,
              -1
            ],
            [
              10,
              -1
            ],
            [
              7,
              -1
            ],
            [
              4,
              -1
            ],
            [
              0,
              -1
            ]
          ]
        },
        {
          "edges": [
            [
              2,
              1
            ],
            [
              6,
              1
            ],
            [
              9,
              1
            ],
            [
              12,
              1
            ],
            [
              15,
              1
            ],
            [
              18,
              1
            ],
            [
              21,
              1
            ],
            [
              24,
              1
            ],
            [
              27,
              1
            ],
            [
              30,
              1
            ],
            [
              33,
              1
            ],
            [
              36,
              1
            ],
            [
              39,
              1
            ],
            [
              42,
              1
            ],
            [
              45,
              1
            ],
            [
              48,
              1
            ],
            [
              51,
              1
            ],
            [
              54,
              1
            ],
            [
              57,
              1
            ],
            [
              60,
              1
            ],
            [
              63,
              1
            ],
            [
              66,
              1
            ],
            [
              68,
              1
            ]
          ]
        }
      ],
      "edges": [
        {
          "curve": [
            0,
            1
          ],
          "start": 0,
          "end": 1,
          "t": [
            0,
            0.004
          ]
        },
        {
          "curve": [
            1,
            1
          ],
          "start": 1,
          "end": 2,
          "t": [
            0,
            0.001
          ]
        },
        {
          "curve": [
            2,
            1
          ],
          "start": 3,
          "end": 2,
          "t": [
            0,
            0.004
          ]
        },
        {
          "curve": [
            3,
            1
          ],
          "start": 0,
          "end": 3,
          "t": [
            0,
            0.001
          ]
        },
        {
          "curve": [
            4,
            1
          ],
          "start": 1,
          "end": 4,
          "t": [
            0,
            0.03472964
          ]
        },
        {
          "curve": [
            5,
            1
          ],
          "start": 4,
          "end": 5,
          "t": [
            0,
            0.001
          ]
        },
        {
          "curve": [
            6,
            1
          ],
          "start": 2,
          "end": 5,
          "t": [
            0,
            0.03472964
          ]
        },
        {
          "curve": [
            7,
            1
          ],
          "start": 4,
          "end": 6,
          "t": [
            0,
            0.004
          ]
        },
        {
          "curve": [
            8,
            1
          ],
          "start": 6,
          "end": 7,
          "t": [
            0,
            0.001
          ]
        },
        {
          "curve": [
            9,
            1
          ],
          "start": 5,
          "end": 7,
          "t": [
            0,
            0.004
          ]
        },
        {
          "curve": [
            10,
            1
          ],
          "start": 6,
          "end": 8,
          "t": [
            0,
            0.010000003860324257
          ]
        },
        {
          "curve": [
            11,
            1
          ],
          "start": 8,
          "end": 9,
          "t": [
            0,
            0.001
          ]
        },
        {
          "curve": [
            12,
            1
          ],
          "start": 7,
          "end": 9,
          "t": [
            0,
            0.010000003860324257
          ]
        },
        {
          "curve": [
            13,
            1
          ],
          "start": 8,
          "end": 10,
          "t": [
            0,
            0.010000002123839774
          ]
        },
        {
          "curve": [
            14,
            1
          ],
          "start": 10,
          "end": 11,
          "t": [
            0,
            0.001
          ]
        },
        {
          "curve": [
            15,
            1
          ],
          "start": 9,
          "end": 11,
          "t": [
            0,
            0.010000002123839774
          ]
        },
        {
          "curve": [
            16,
            1
          ],
          "start": 10,
          "end": 12,
          "t": [
            0,
            0.010000002123839774
          ]
        },
        {
          "curve": [
            17,
            1
          ],
          "start": 12,
          "end": 13,
          "t": [
            0,
            0.001
          ]
        },
        {
          "curve": [
            18,
            1
          ],
          "start": 11,
          "end": 13,
          "t": [
            0,
            0.010000002123839774
          ]
        },
        {
          "curve": [
            19,
            1
          ],
          "start": 12,
          "end": 14,
          "t": [
            0,
            0.010000002123839774
          ]
        },
        {
          "curve": [
            20,
            1
          ],
          "start": 14,
          "end": 15,
          "t": [
            0,
            0.001
          ]
        },
        {
          "curve": [
            21,
            1
          ],
          "start": 13,
          "end": 15,
          "t": [
            0,
            0.010000002123839774
          ]
        },
        {
          "curve": [
            22,
            1
          ],
          "start": 14,
          "end": 16,
          "t": [
            0,
            0.010000002123839774
          ]
        },
        {
          "curve": [
            23,
            1
          ],
          "start": 16,
          "end": 17,
          "t": [
            0,
            0.001
          ]
        },
        {
          "curve": [
            24,
            1
          ],
          "start": 15,
          "end": 17,
          "t": [
            0,
            0.010000002123839774
          ]
        },
        {
          "curve": [
            25,
            1
          ],
          "start": 16,
          "end": 18,
          "t": [
            0,
            0.010000003860324257
          ]
        },
        {
          "curve": [
            26,
            1
          ],
          "start": 18,
          "end": 19,
          "t": [
            0,
            0.001
          ]
        },
        {
          "curve": [
            27,
            1
          ],
          "start": 17,
          "end": 19,
          "t": [
            0,
            0.010000003860324257
          ]
        },
        {
          "curve": [
            28,
            1
          ],
          "start": 18,
          "end": 20,
          "t": [
            0,
            0.010000002123839774
          ]
        },
        {
          "curve": [
            29,
            1
          ],
          "start": 20,
          "end": 21,
          "t": [
            0,
            0.001
          ]
        },
        {
          "curve": [
            30,
            1
          ],
          "start": 19,
          "end": 21,
          "t": [
            0,
            0.010000002123839774
          ]
        },
        {
          "curve": [
            31,
            1
          ],
          "start": 20,
          "end": 22,
          "t": [
            0,
            0.010000002123839774
          ]
        },
        {
          "curve": [
            32,
            1
          ],
          "start": 22,
          "end": 23,
          "t": [
            0,
            0.001
          ]
        },
        {
          "curve": [
            33,
            1
          ],
          "start": 21,
          "end": 23,
          "t": [
            0,
            0.010000002123839774
          ]
        },
        {
          "curve": [
            34,
            1
          ],
          "start": 22,
          "end": 24,
          "t": [
            0,
            0.010000002123839774
          ]
        },
        {
          "curve": [
            35,
            1
          ],
          "start": 24,
          "end": 25,
          "t": [
            0,
            0.001
          ]
        },
        {
          "curve": [
            36,
            1
          ],
          "start": 23,
          "end": 25,
          "t": [
            0,
            0.010000002123839774
          ]
        },
        {
          "curve": [
            37,
            1
          ],
          "start": 24,
          "end": 26,
          "t": [
            0,
            0.010000002123839774
          ]
        },
        {
          "curve": [
            38,
            1
          ],
          "start": 26,
          "end": 27,
          "t": [
            0,
            0.001
          ]
        },
        {
          "curve": [
            39,
            1
          ],
          "start": 25,
          "end": 27,
          "t": [
            0,
            0.010000002123839774
          ]
        },
        {
          "curve": [
            40,
            1
          ],
          "start": 26,
          "end": 28,
          "t": [
            0,
            0.010000002123839774
          ]
        },
        {
          "curve": [
            41,
            1
          ],
          "start": 28,
          "end": 29,
          "t": [
            0,
            0.001
          ]
        },
        {
          "curve": [
            42,
            1
          ],
          "start": 27,
          "end": 29,
          "t": [
            0,
            0.010000002123839774
          ]
        },
        {
          "curve": [
            43,
            1
          ],
          "start": 28,
          "end": 30,
          "t": [
            0,
            0.010000003860324257
          ]
        },
        {
          "curve": [
            44,
            1
          ],
          "start": 30,
          "end": 31,
          "t": [
            0,
            0.001
          ]
        },
        {
          "curve": [
            45,
            1
          ],
          "start": 29,
          "end": 31,
          "t": [
            0,
            0.010000003860324257
          ]
        },
        {
          "curve": [
            46,
            1
          ],
          "start": 30,
          "end": 32,
          "t": [
            0,
            0.010000002123839774
          ]
        },
        {
          "curve": [
            47,
            1
          ],
          "start": 32,
          "end": 33,
          "t": [
            0,
            0.001
          ]
        },
        {
          "curve": [
            48,
            1
          ],
          "start": 31,
          "end": 33,
          "t": [
            0,
            0.010000002123839774
          ]
        },
        {
          "curve": [
            49,
            1
          ],
          "start": 32,
          "end": 34,
          "t": [
            0,
            0.010000002123839774
          ]
        },
        {
          "curve": [
            50,
            1
          ],
          "start": 34,
          "end": 35,
          "t": [
            0,
            0.001
          ]
        },
        {
          "curve": [
            51,
            1
          ],
          "start": 33,
          "end": 35,
          "t": [
            0,
            0.010000002123839774
          ]
        },
        {
          "curve": [
            52,
            1
          ],
          "start": 34,
          "end": 36,
          "t": [
            0,
            0.010000002123839774
          ]
        },
        {
          "curve": [
            53,
            1
          ],
          "start": 36,
          "end": 37,
          "t": [
            0,
            0.001
          ]
        },
        {
          "curve": [
            54,
            1
          ],
          "start": 35,
          "end": 37,
          "t": [
            0,
            0.010000002123839774
          ]
        },
        {
          "curve": [
            55,
            1
          ],
          "start": 36,
          "end": 38,
          "t": [
            0,
            0.010000002123839774
          ]
        },
        {
          "curve": [
            56,
            1
          ],
          "start": 38,
          "end": 39,
          "t": [
            0,
            0.001
          ]
        },
        {
          "curve": [
            57,
            1
          ],
          "start": 37,
          "end": 39,
          "t": [
            0,
            0.010000002123839774
          ]
        },
        {
          "curve": [
            58,
            1
          ],
          "start": 38,
          "end": 40,
          "t": [
            0,
            0.010000002123839774
          ]
        },
        {
          "curve": [
            59,
            1
          ],
          "start": 40,
          "end": 41,
          "t": [
            0,
            0.001
          ]
        },
        {
          "curve": [
            60,
            1
          ],
          "start": 39,
          "end": 41,
          "t": [
            0,
            0.010000002123839774
          ]
        },
        {
          "curve": [
            61,
            1
          ],
          "start": 40,
          "end": 42,
          "t": [
            0,
            0.010000003860324257
          ]
        },
        {
          "curve": [
            62,
            1
          ],
          "start": 42,
          "end": 43,
          "t": [
            0,
            0.001
          ]
        },
        {
          "curve": [
            63,
            1
          ],
          "start": 41,
          "end": 43,
          "t": [
            0,
            0.010000003860324257
          ]
        },
        {
          "curve": [
            64,
            1
          ],
          "start": 42,
          "end": 44,
          "t": [
            0,
            0.010000002123839774
          ]
        },
        {
          "curve": [
            65,
            1
          ],
          "start": 44,
          "end": 45,
          "t": [
            0,
            0.001
          ]
        },
        {
          "curve": [
            66,
            1
          ],
          "start": 43,
          "end": 45,
          "t": [
            0,
            0.010000002123839774
          ]
        },
        {
          "curve": [
            67,
            1
          ],
          "start": 44,
          "end": 0,
          "t": [
            0,
            0.010000002123839774
          ]
        },
        {
          "curve": [
            68,
            1
          ],
          "start": 45,
          "end": 3,
          "t": [
            0,
            0.010000002123839774
          ]
        }
      ],
      "vertices": [
        [
          0,
          0,
          -0
        ],
        [
          0,
          0,
          0.004
        ],
        [
          0,
          0.001,
          0.004
        ],
        [
          0,
          0.001,
          -0
        ],
        [
          0.03472964,
          0,
          0.004
        ],
        [
          0.03472964,
          0.001,
          0.004
        ],
        [
          0.03472964,
          0,
          -0
        ],
        [
          0.03472964,
          0.001,
          -0
        ],
        [
          0.03299315,
          0,
          -0.00984808
        ],
        [
          0.03299315,
          0.001,
          -0.00984808
        ],
        [
          0.03125667,
          0,
          -0
        ],
        [
          0.03125667,
          0.001,
          -0
        ],
        [
          0.02952019,
          0,
          -0.00984808
        ],
        [
          0.02952019,
          0.001,
          -0.00984808
        ],
        [
          0.02778371,
          0,
          -0
        ],
        [
          0.02778371,
          0.001,
          -0
        ],
        [
          0.02604723,
          0,
          -0.00984808
        ],
        [
          0.02604723,
          0.001,
          -0.00984808
        ],
        [
          0.02431074,
          0,
          -0
        ],
        [
          0.02431074,
          0.001,
          -0
        ],
        [
          0.02257426,
          0,
          -0.00984808
        ],
        [
          0.02257426,
          0.001,
          -0.00984808
        ],
        [
          0.02083778,
          0,
          -0
        ],
        [
          0.02083778,
          0.001,
          -0
        ],
        [
          0.0191013,
          0,
          -0.00984808
        ],
        [
          0.0191013,
          0.001,
          -0.00984808
        ],
        [
          0.01736482,
          0,
          -0
        ],
        [
          0.01736482,
          0.001,
          -0
        ],
        [
          0.01562834,
          0,
          -0.00984808
        ],
        [
          0.01562834,
          0.001,
          -0.00984808
        ],
        [
          0.01389185,
          0,
          -0
        ],
        [
          0.01389185,
          0.001,
          -0
        ],
        [
          0.01215537,
          0,
          -0.00984808
        ],
        [
          0.01215537,
          0.001,
          -0.00984808
        ],
        [
          0.01041889,
          0,
          -0
        ],
        [
          0.01041889,
          0.001,
          -0
        ],
        [
          0.00868241,
          0,
          -0.00984808
        ],
        [
          0.00868241,
          0.001,
          -0.00984808
        ],
        [
          0.00694593,
          0,
          -0
        ],
        [
          0.00694593,
          0.001,
          -0
        ],
        [
          0.00520945,
          0,
          -0.00984808
        ],
        [
          0.00520945,
          0.001,
          -0.00984808
        ],
        [
          0.00347296,
          0,
          -0
        ],
        [
          0.00347296,
          0.001,
          -0
        ],
        [
          0.00173648,
          0,
          -0.00984808
        ],
        [
          0.00173648,
          0.001,
          -0.00984808
        ]
      ],
      "surfaces": [
        {
          "type": "plane",
          "plane": {
            "xAxis": [
              0,
              1,
              0
            ],
            "yAxis": [
              0,
              0,
              -1
            ],
            "origin": [
              0,
              0.0005,
              0.002
            ]
          }
        },
        {
          "type": "plane",
          "plane": {
            "xAxis": [
              1,
              0,
              -0
            ],
            "yAxis": [
              -0,
              1,
              0
            ],
            "origin": [
              0.01736482,
              0.0005,
              0.004
            ]
          }
        },
        {
          "type": "plane",
          "plane": {
            "xAxis": [
              -0,
              1,
              0
            ],
            "yAxis": [
              0,
              -0,
              1
            ],
            "origin": [
              0.03472964,
              0.0005,
              0.002
            ]
          }
        },
        {
          "type": "plane",
          "plane": {
            "xAxis": [
              0.1736481804447673,
              0,
              0.9848077525224004
            ],
            "yAxis": [
              0,
              -1,
              0
            ],
            "origin": [
              0.03386139,
              0.0005,
              -0.00492404
            ]
          }
        },
        {
          "type": "plane",
          "plane": {
            "xAxis": [
              0.1736481804447673,
              0,
              -0.9848077525224004
            ],
            "yAxis": [
              0,
              -1,
              -0
            ],
            "origin": [
              0.03212491,
              0.0005,
              -0.00492404
            ]
          }
        },
        {
          "type": "plane",
          "plane": {
            "xAxis": [
              0.1736481804447673,
              0,
              0.9848077525224004
            ],
            "yAxis": [
              0,
              -1,
              0
            ],
            "origin": [
              0.03038843,
              0.0005,
              -0.00492404
            ]
          }
        },
        {
          "type": "plane",
          "plane": {
            "xAxis": [
              0.1736481804447673,
              0,
              -0.9848077525224004
            ],
            "yAxis": [
              0,
              -1,
              -0
            ],
            "origin": [
              0.02865195,
              0.0005,
              -0.00492404
            ]
          }
        },
        {
          "type": "plane",
          "plane": {
            "xAxis": [
              0.1736481804447673,
              0,
              0.9848077525224004
            ],
            "yAxis": [
              0,
              -1,
              0
            ],
            "origin": [
              0.02691547,
              0.0005,
              -0.00492404
            ]
          }
        },
        {
          "type": "plane",
          "plane": {
            "xAxis": [
              0.1736481804447673,
              0,
              -0.9848077525224004
            ],
            "yAxis": [
              0,
              -1,
              -0
            ],
            "origin": [
              0.02517899,
              0.0005,
              -0.00492404
            ]
          }
        },
        {
          "type": "plane",
          "plane": {
            "xAxis": [
              0.1736481804447673,
              0,
              0.9848077525224004
            ],
            "yAxis": [
              0,
              -1,
              0
            ],
            "origin": [
              0.0234425,
              0.0005,
              -0.00492404
            ]
          }
        },
        {
          "type": "plane",
          "plane": {
            "xAxis": [
              0.1736481804447673,
              0,
              -0.9848077525224004
            ],
            "yAxis": [
              0,
              -1,
              -0
            ],
            "origin": [
              0.02170602,
              0.0005,
              -0.00492404
            ]
          }
        },
        {
          "type": "plane",
          "plane": {
            "xAxis": [
              0.1736481804447673,
              0,
              0.9848077525224004
            ],
            "yAxis": [
              0,
              -1,
              0
            ],
            "origin": [
              0.01996954,
              0.0005,
              -0.00492404
            ]
          }
        },
        {
          "type": "plane",
          "plane": {
            "xAxis": [
              0.1736481804447673,
              0,
              -0.9848077525224004
            ],
            "yAxis": [
              0,
              -1,
              -0
            ],
            "origin": [
              0.01823306,
              0.0005,
              -0.00492404
            ]
          }
        },
        {
          "type": "plane",
          "plane": {
            "xAxis": [
              0.1736481804447673,
              0,
              0.9848077525224004
            ],
            "yAxis": [
              0,
              -1,
              0
            ],
            "origin": [
              0.01649658,
              0.0005,
              -0.00492404
            ]
          }
        },
        {
          "type": "plane",
          "plane": {
            "xAxis": [
              0.1736481804447673,
              0,
              -0.9848077525224004
            ],
            "yAxis": [
              0,
              -1,
              -0
            ],
            "origin": [
              0.0147601,
              0.0005,
              -0.00492404
            ]
          }
        },
        {
          "type": "plane",
          "plane": {
            "xAxis": [
              0.1736481804447673,
              0,
              0.9848077525224004
            ],
            "yAxis": [
              0,
              -1,
              0
            ],
            "origin": [
              0.01302361,
              0.0005,
              -0.00492404
            ]
          }
        },
        {
          "type": "plane",
          "plane": {
            "xAxis": [
              0.1736481804447673,
              0,
              -0.9848077525224004
            ],
            "yAxis": [
              0,
              -1,
              -0
            ],
            "origin": [
              0.01128713,
              0.0005,
              -0.00492404
            ]
          }
        },
        {
          "type": "plane",
          "plane": {
            "xAxis": [
              0.1736481804447673,
              0,
              0.9848077525224004
            ],
            "yAxis": [
              0,
              -1,
              0
            ],
            "origin": [
              0.00955065,
              0.0005,
              -0.00492404
            ]
          }
        },
        {
          "type": "plane",
          "plane": {
            "xAxis": [
              0.1736481804447673,
              0,
              -0.9848077525224004
            ],
            "yAxis": [
              0,
              -1,
              -0
            ],
            "origin": [
              0.00781417,
              0.0005,
              -0.00492404
            ]
          }
        },
        {
          "type": "plane",
          "plane": {
            "xAxis": [
              0.1736481804447673,
              0,
              0.9848077525224004
            ],
            "yAxis": [
              0,
              -1,
              0
            ],
            "origin": [
              0.00607769,
              0.0005,
              -0.00492404
            ]
          }
        },
        {
          "type": "plane",
          "plane": {
            "xAxis": [
              0.1736481804447673,
              0,
              -0.9848077525224004
            ],
            "yAxis": [
              0,
              -1,
              -0
            ],
            "origin": [
              0.0043412,
              0.0005,
              -0.00492404
            ]
          }
        },
        {
          "type": "plane",
          "plane": {
            "xAxis": [
              0.1736481804447673,
              0,
              0.9848077525224004
            ],
            "yAxis": [
              0,
              -1,
              0
            ],
            "origin": [
              0.00260472,
              0.0005,
              -0.00492404
            ]
          }
        },
        {
          "type": "plane",
          "plane": {
            "xAxis": [
              0.1736481804447673,
              0,
              -0.9848077525224004
            ],
            "yAxis": [
              0,
              -1,
              -0
            ],
            "origin": [
              0.00086824,
              0.0005,
              -0.00492404
            ]
          }
        },
        {
          "type": "plane",
          "plane": {
            "xAxis": [
              1,
              0,
              0
            ],
            "yAxis": [
              0,
              0,
              -1
            ],
            "origin": [
              0,
              0,
              -0
            ]
          }
        },
        {
          "type": "plane",
          "plane": {
            "xAxis": [
              1,
              0,
              0
            ],
            "yAxis": [
              0,
              0,
              -1
            ],
            "origin": [
              0,
              0.001,
              -0
            ]
          }
        }
      ],
      "curves3D": [
        {
          "type": "line",
          "line": {
            "origin": [
              0,
              0,
              -0
            ],
            "direction": [
              0,
              0,
              1
            ]
          }
        },
        {
          "type": "line",
          "line": {
            "origin": [
              0,
              0,
              0.004
            ],
            "direction": [
              0,
              1,
              0
            ]
          }
        },
        {
          "type": "line",
          "line": {
            "origin": [
              0,
              0.001,
              -0
            ],
            "direction": [
              0,
              0,
              1
            ]
          }
        },
        {
          "type": "line",
          "line": {
            "origin": [
              0,
              0,
              -0
            ],
            "direction": [
              0,
              1,
              0
            ]
          }
        },
        {
          "type": "line",
          "line": {
            "origin": [
              0,
              0,
              0.004
            ],
            "direction": [
              1,
              0,
              -0
            ]
          }
        },
        {
          "type": "line",
          "line": {
            "origin": [
              0.03472964,
              0,
              0.004
            ],
            "direction": [
              0,
              1,
              0
            ]
          }
        },
        {
          "type": "line",
          "line": {
            "origin": [
              0,
              0.001,
              0.004
            ],
            "direction": [
              1,
              0,
              -0
            ]
          }
        },
        {
          "type": "line",
          "line": {
            "origin": [
              0.03472964,
              0,
              0.004
            ],
            "direction": [
              0,
              0,
              -1
            ]
          }
        },
        {
          "type": "line",
          "line": {
            "origin": [
              0.03472964,
              0,
              -0
            ],
            "direction": [
              0,
              1,
              0
            ]
          }
        },
        {
          "type": "line",
          "line": {
            "origin": [
              0.03472964,
              0.001,
              0.004
            ],
            "direction": [
              0,
              0,
              -1
            ]
          }
        },
        {
          "type": "line",
          "line": {
            "origin": [
              0.03472964,
              0,
              -0
            ],
            "direction": [
              -0.17364893296588124,
              0,
              -0.984807619832326
            ]
          }
        },
        {
          "type": "line",
          "line": {
            "origin": [
              0.03299315,
              0,
              -0.00984808
            ],
            "direction": [
              0,
              1,
              0
            ]
          }
        },
        {
          "type": "line",
          "line": {
            "origin": [
              0.03472964,
              0.001,
              -0
            ],
            "direction": [
              -0.17364893296588124,
              0,
              -0.984807619832326
            ]
          }
        },
        {
          "type": "line",
          "line": {
            "origin": [
              0.03299315,
              0,
              -0.00984808
            ],
            "direction": [
              -0.17364796311995478,
              0,
              0.9848077908426044
            ]
          }
        },
        {
          "type": "line",
          "line": {
            "origin": [
              0.03125667,
              0,
              -0
            ],
            "direction": [
              0,
              1,
              0
            ]
          }
        },
        {
          "type": "line",
          "line": {
            "origin": [
              0.03299315,
              0.001,
              -0.00984808
            ],
            "direction": [
              -0.17364796311995478,
              0,
              0.9848077908426044
            ]
          }
        },
        {
          "type": "line",
          "line": {
            "origin": [
              0.03125667,
              0,
              -0
            ],
            "direction": [
              -0.17364796311995478,
              0,
              -0.9848077908426044
            ]
          }
        },
        {
          "type": "line",
          "line": {
            "origin": [
              0.02952019,
              0,
              -0.00984808
            ],
            "direction": [
              0,
              1,
              0
            ]
          }
        },
        {
          "type": "line",
          "line": {
            "origin": [
              0.03125667,
              0.001,
              -0
            ],
            "direction": [
              -0.17364796311995478,
              0,
              -0.9848077908426044
            ]
          }
        },
        {
          "type": "line",
          "line": {
            "origin": [
              0.02952019,
              0,
              -0.00984808
            ],
            "direction": [
              -0.17364796311995512,
              0,
              0.9848077908426044
            ]
          }
        },
        {
          "type": "line",
          "line": {
            "origin": [
              0.02778371,
              0,
              -0
            ],
            "direction": [
              0,
              1,
              0
            ]
          }
        },
        {
          "type": "line",
          "line": {
            "origin": [
              0.02952019,
              0.001,
              -0.00984808
            ],
            "direction": [
              -0.17364796311995512,
              0,
              0.9848077908426044
            ]
          }
        },
        {
          "type": "line",
          "line": {
            "origin": [
              0.02778371,
              0,
              -0
            ],
            "direction": [
              -0.17364796311995478,
              0,
              -0.9848077908426044
            ]
          }
        },
        {
          "type": "line",
          "line": {
            "origin": [
              0.02604723,
              0,
              -0.00984808
            ],
            "direction": [
              0,
              1,
              0
            ]
          }
        },
        {
          "type": "line",
          "line": {
            "origin": [
              0.02778371,
              0.001,
              -0
            ],
            "direction": [
              -0.17364796311995478,
              0,
              -0.9848077908426044
            ]
          }
        },
        {
          "type": "line",
          "line": {
            "origin": [
              0.02604723,
              0,
              -0.00984808
            ],
            "direction": [
              -0.17364893296588124,
              0,
              0.984807619832326
            ]
          }
        },
        {
          "type": "line",
          "line": {
            "origin": [
              0.02431074,
              0,
              -0
            ],
            "direction": [
              0,
              1,
              0
            ]
          }
        },
        {
          "type": "line",
          "line": {
            "origin": [
              0.02604723,
              0.001,
              -0.00984808
            ],
            "direction": [
              -0.17364893296588124,
              0,
              0.984807619832326
            ]
          }
        },
        {
          "type": "line",
          "line": {
            "origin": [
              0.02431074,
              0,
              -0
            ],
            "direction": [
              -0.17364796311995512,
              0,
              -0.9848077908426044
            ]
          }
        },
        {
          "type": "line",
          "line": {
            "origin": [
              0.02257426,
              0,
              -0.00984808
            ],
            "direction": [
              0,
              1,
              0
            ]
          }
        },
        {
          "type": "line",
          "line": {
            "origin": [
              0.02431074,
              0.001,
              -0
            ],
            "direction": [
              -0.17364796311995512,
              0,
              -0.9848077908426044
            ]
          }
        },
        {
          "type": "line",
          "line": {
            "origin": [
              0.02257426,
              0,
              -0.00984808
            ],
            "direction": [
              -0.17364796311995478,
              0,
              0.9848077908426044
            ]
          }
        },
        {
          "type": "line",
          "line": {
            "origin": [
              0.02083778,
              0,
              -0
            ],
            "direction": [
              0,
              1,
              0
            ]
          }
        },
        {
          "type": "line",
          "line": {
            "origin": [
              0.02257426,
              0.001,
              -0.00984808
            ],
            "direction": [
              -0.17364796311995478,
              0,
              0.9848077908426044
            ]
          }
        },
        {
          "type": "line",
          "line": {
            "origin": [
              0.02083778,
              0,
              -0
            ],
            "direction": [
              -0.17364796311995478,
              0,
              -0.9848077908426044
            ]
          }
        },
        {
          "type": "line",
          "line": {
            "origin": [
              0.0191013,
              0,
              -0.00984808
            ],
            "direction": [
              0,
              1,
              0
            ]
          }
        },
        {
          "type": "line",
          "line": {
            "origin": [
              0.02083778,
              0.001,
              -0
            ],
            "direction": [
              -0.17364796311995478,
              0,
              -0.9848077908426044
            ]
          }
        },
        {
          "type": "line",
          "line": {
            "origin": [
              0.0191013,
              0,
              -0.00984808
            ],
            "direction": [
              -0.17364796311995512,
              0,
              0.9848077908426044
            ]
          }
        },
        {
          "type": "line",
          "line": {
            "origin": [
              0.01736482,
              0,
              -0
            ],
            "direction": [
              0,
              1,
              0
            ]
          }
        },
        {
          "type": "line",
          "line": {
            "origin": [
              0.0191013,
              0.001,
              -0.00984808
            ],
            "direction": [
              -0.17364796311995512,
              0,
              0.9848077908426044
            ]
          }
        },
        {
          "type": "line",
          "line": {
            "origin": [
              0.01736482,
              0,
              -0
            ],
            "direction": [
              -0.17364796311995478,
              0,
              -0.9848077908426044
            ]
          }
        },
        {
          "type": "line",
          "line": {
            "origin": [
              0.01562834,
              0,
              -0.00984808
            ],
            "direction": [
              0,
              1,
              0
            ]
          }
        },
        {
          "type": "line",
          "line": {
            "origin": [
              0.01736482,
              0.001,
              -0
            ],
            "direction": [
              -0.17364796311995478,
              0,
              -0.9848077908426044
            ]
          }
        },
        {
          "type": "line",
          "line": {
            "origin": [
              0.01562834,
              0,
              -0.00984808
            ],
            "direction": [
              -0.17364893296588124,
              0,
              0.984807619832326
            ]
          }
        },
        {
          "type": "line",
          "line": {
            "origin": [
              0.01389185,
              0,
              -0
            ],
            "direction": [
              0,
              1,
              0
            ]
          }
        },
        {
          "type": "line",
          "line": {
            "origin": [
              0.01562834,
              0.001,
              -0.00984808
            ],
            "direction": [
              -0.17364893296588124,
              0,
              0.984807619832326
            ]
          }
        },
        {
          "type": "line",
          "line": {
            "origin": [
              0.01389185,
              0,
              -0
            ],
            "direction": [
              -0.17364796311995495,
              0,
              -0.9848077908426044
            ]
          }
        },
        {
          "type": "line",
          "line": {
            "origin": [
              0.01215537,
              0,
              -0.00984808
            ],
            "direction": [
              0,
              1,
              0
            ]
          }
        },
        {
          "type": "line",
          "line": {
            "origin": [
              0.01389185,
              0.001,
              -0
            ],
            "direction": [
              -0.17364796311995495,
              0,
              -0.9848077908426044
            ]
          }
        },
        {
          "type": "line",
          "line": {
            "origin": [
              0.01215537,
              0,
              -0.00984808
            ],
            "direction": [
              -0.17364796311995495,
              0,
              0.9848077908426044
            ]
          }
        },
        {
          "type": "line",
          "line": {
            "origin": [
              0.01041889,
              0,
              -0
            ],
            "direction": [
              0,
              1,
              0
            ]
          }
        },
        {
          "type": "line",
          "line": {
            "origin": [
              0.01215537,
              0.001,
              -0.00984808
            ],
            "direction": [
              -0.17364796311995495,
              0,
              0.9848077908426044
            ]
          }
        },
        {
          "type": "line",
          "line": {
            "origin": [
              0.01041889,
              0,
              -0
            ],
            "direction": [
              -0.17364796311995495,
              0,
              -0.9848077908426044
            ]
          }
        },
        {
          "type": "line",
          "line": {
            "origin": [
              0.00868241,
              0,
              -0.00984808
            ],
            "direction": [
              0,
              1,
              0
            ]
          }
        },
        {
          "type": "line",
          "line": {
            "origin": [
              0.01041889,
              0.001,
              -0
            ],
            "direction": [
              -0.17364796311995495,
              0,
              -0.9848077908426044
            ]
          }
        },
        {
          "type": "line",
          "line": {
            "origin": [
              0.00868241,
              0,
              -0.00984808
            ],
            "direction": [
              -0.17364796311995487,
              0,
              0.9848077908426044
            ]
          }
        },
        {
          "type": "line",
          "line": {
            "origin": [
              0.00694593,
              0,
              -0
            ],
            "direction": [
              0,
              1,
              0
            ]
          }
        },
        {
          "type": "line",
          "line": {
            "origin": [
              0.00868241,
              0.001,
              -0.00984808
            ],
            "direction": [
              -0.17364796311995487,
              0,
              0.9848077908426044
            ]
          }
        },
        {
          "type": "line",
          "line": {
            "origin": [
              0.00694593,
              0,
              -0
            ],
            "direction": [
              -0.17364796311995495,
              0,
              -0.9848077908426044
            ]
          }
        },
        {
          "type": "line",
          "line": {
            "origin": [
              0.00520945,
              0,
              -0.00984808
            ],
            "direction": [
              0,
              1,
              0
            ]
          }
        },
        {
          "type": "line",
          "line": {
            "origin": [
              0.00694593,
              0.001,
              -0
            ],
            "direction": [
              -0.17364796311995495,
              0,
              -0.9848077908426044
            ]
          }
        },
        {
          "type": "line",
          "line": {
            "origin": [
              0.00520945,
              0,
              -0.00984808
            ],
            "direction": [
              -0.1736489329658812,
              0,
              0.984807619832326
            ]
          }
        },
        {
          "type": "line",
          "line": {
            "origin": [
              0.00347296,
              0,
              -0
            ],
            "direction": [
              0,
              1,
              0
            ]
          }
        },
        {
          "type": "line",
          "line": {
            "origin": [
              0.00520945,
              0.001,
              -0.00984808
            ],
            "direction": [
              -0.1736489329658812,
              0,
              0.984807619832326
            ]
          }
        },
        {
          "type": "line",
          "line": {
            "origin": [
              0.00347296,
              0,
              -0
            ],
            "direction": [
              -0.17364796311995492,
              0,
              -0.9848077908426044
            ]
          }
        },
        {
          "type": "line",
          "line": {
            "origin": [
              0.00173648,
              0,
              -0.00984808
            ],
            "direction": [
              0,
              1,
              0
            ]
          }
        },
        {
          "type": "line",
          "line": {
            "origin": [
              0.00347296,
              0.001,
              -0
            ],
            "direction": [
              -0.17364796311995492,
              0,
              -0.9848077908426044
            ]
          }
        },
        {
          "type": "line",
          "line": {
            "origin": [
              0.00173648,
              0,
              -0.00984808
            ],
            "direction": [
              -0.17364796311995492,
              0,
              0.9848077908426044
            ]
          }
        },
        {
          "type": "line",
          "line": {
            "origin": [
              0.00173648,
              0.001,
              -0.00984808
            ],
            "direction": [
              -0.17364796311995492,
              0,
              0.9848077908426044
            ]
          }
        }
      ]
    }
  },
  "extensionsUsed": [
    "KITTYCAD_boundary_representation"
  ],
  "materials": [
    {
      "alphaMode": "OPAQUE",
      "doubleSided": false,
      "pbrMetallicRoughness": {
        "baseColorFactor": [
          0.9,
          0.9,
          0.9,
          1
        ],
        "metallicFactor": 1,
        "roughnessFactor": 1
      },
      "emissiveFactor": [
        0,
        0,
        0
      ]
    }
  ],
  "meshes": [
    {
      "primitives": [
        {
          "attributes": {
            "POSITION": 0,
            "NORMAL": 1
          },
          "material": 0
        },
        {
          "attributes": {
            "POSITION": 2,
            "NORMAL": 3
          },
          "material": 0
        },
        {
          "attributes": {
            "POSITION": 4,
            "NORMAL": 5
          },
          "material": 0
        },
        {
          "attributes": {
            "POSITION": 6,
            "NORMAL": 7
          },
          "material": 0
        },
        {
          "attributes": {
            "POSITION": 8,
            "NORMAL": 9
          },
          "material": 0
        },
        {
          "attributes": {
            "POSITION": 10,
            "NORMAL": 11
          },
          "material": 0
        },
        {
          "attributes": {
            "POSITION": 12,
            "NORMAL": 13
          },
          "material": 0
        },
        {
          "attributes": {
            "POSITION": 14,
            "NORMAL": 15
          },
          "material": 0
        },
        {
          "attributes": {
            "POSITION": 16,
            "NORMAL": 17
          },
          "material": 0
        },
        {
          "attributes": {
            "POSITION": 18,
            "NORMAL": 19
          },
          "material": 0
        },
        {
          "attributes": {
            "POSITION": 20,
            "NORMAL": 21
          },
          "material": 0
        },
        {
          "attributes": {
            "POSITION": 22,
            "NORMAL": 23
          },
          "material": 0
        },
        {
          "attributes": {
            "POSITION": 24,
            "NORMAL": 25
          },
          "material": 0
        },
        {
          "attributes": {
            "POSITION": 26,
            "NORMAL": 27
          },
          "material": 0
        },
        {
          "attributes": {
            "POSITION": 28,
            "NORMAL": 29
          },
          "material": 0
        },
        {
          "attributes": {
            "POSITION": 30,
            "NORMAL": 31
          },
          "material": 0
        },
        {
          "attributes": {
            "POSITION": 32,
            "NORMAL": 33
          },
          "material": 0
        },
        {
          "attributes": {
            "POSITION": 34,
            "NORMAL": 35
          },
          "material": 0
        },
        {
          "attributes": {
            "POSITION": 36,
            "NORMAL": 37
          },
          "material": 0
        },
        {
          "attributes": {
            "POSITION": 38,
            "NORMAL": 39
          },
          "material": 0
        },
        {
          "attributes": {
            "POSITION": 40,
            "NORMAL": 41
          },
          "material": 0
        },
        {
          "attributes": {
            "POSITION": 42,
            "NORMAL": 43
          },
          "material": 0
        },
        {
          "attributes": {
            "POSITION": 44,
            "NORMAL": 45
          },
          "material": 0
        },
        {
          "attributes": {
            "POSITION": 46,
            "NORMAL": 47
          },
          "material": 0
        },
        {
          "attributes": {
            "POSITION": 48,
            "NORMAL": 49
          },
          "material": 0
        }
      ]
    }
  ],
  "nodes": [
    {
      "children": [
        1
      ]
    },
    {
      "children": [
        2
      ]
    },
    {
      "extensions": {
        "KITTYCAD_boundary_representation": {
          "solid": 0
        }
      },
      "mesh": 0
    }
  ],
  "scenes": [
    {
      "nodes": [
        0
      ]
    }
  ]
}