{
  "accessors": [
    {
      "bufferView": 0,
      "byteOffset": 0,
      "count": 6,
      "componentType": 5126,
      "type": "VEC3",
      "min": [
        -0.004210304468870163,
        0.004153886344283819,
        -0
      ],
      "max": [
        -0.004155000206083059,
        0.0041552199982106686,
        0.0010000000474974513
      ]
    },
    {
      "bufferView": 0,
      "byteOffset": 12,
      "count": 6,
      "componentType": 5126,
      "type": "VEC3"
    },
    {
      "bufferView": 1,
      "byteOffset": 0,
      "count": 6,
      "componentType": 5126,
      "type": "VEC3",
      "min": [
        -0.004155000206083059,
        0.004112999886274338,
        -0
      ],
      "max": [
        0.0013538399944081905,
        0.0041552199982106686,
        0.0010000000474974513
      ]
    },
    {
      "bufferView": 1,
      "byteOffset": 12,
      "count": 6,
      "componentType": 5126,
      "type": "VEC3"
    },
    {
      "bufferView": 2,
      "byteOffset": 0,
      "count": 96,
      "componentType": 5126,
      "type": "VEC3",
      "min": [
        0.001312060048803687,
        0.004112999886274338,
        -0
      ],
      "max": [
        0.0021717578638345003,
        0.005845049861818552,
        0.0010000000474974513
      ]
    },
    {
      "bufferView": 2,
      "byteOffset": 12,
      "count": 96,
      "componentType": 5126,
      "type": "VEC3"
    },
    {
      "bufferView": 3,
      "byteOffset": 0,
      "count": 6,
      "componentType": 5126,
      "type": "VEC3",
      "min": [
        -0.004196779802441597,
        0.005845049861818552,
        -0
      ],
      "max": [
        0.001312060048803687,
        0.005887260194867849,
        0.0010000000474974513
      ]
    },
    {
      "bufferView": 3,
      "byteOffset": 12,
      "count": 6,
      "componentType": 5126,
      "type": "VEC3"
    },
    {
      "bufferView": 4,
      "byteOffset": 0,
      "count": 99,
      "componentType": 5126,
      "type": "VEC3",
      "min": [
        -0.005070223473012447,
        0.004112999886274338,
        -0
      ],
      "max": [
        0.0021717578638345003,
        0.005887260194867849,
        -0
      ]
    },
    {
      "bufferView": 4,
      "byteOffset": 12,
      "count": 99,
      "componentType": 5126,
      "type": "VEC3"
    },
    {
      "bufferView": 5,
      "byteOffset": 0,
      "count": 99,
      "componentType": 5126,
      "type": "VEC3",
      "min": [
        -0.005070223473012447,
        0.004112999886274338,
        0.0010000000474974513
      ],
      "max": [
        0.0021717578638345003,
        0.005887260194867849,
        0.0010000000474974513
      ]
    },
    {
      "bufferView": 5,
      "byteOffset": 12,
      "count": 99,
      "componentType": 5126,
      "type": "VEC3"
    },
    {
      "bufferView": 6,
      "byteOffset": 0,
      "count": 96,
      "componentType": 5126,
      "type": "VEC3",
      "min": [
        -0.005070223473012447,
        0.004153886344283819,
        0
      ],
      "max": [
        -0.004196779802441597,
        0.005887260194867849,
        0.0010000000474974513
      ]
    },
    {
      "bufferView": 6,
      "byteOffset": 12,
      "count": 96,
      "componentType": 5126,
      "type": "VEC3"
    }
  ],
  "asset": {
    "generator": "zoo.dev",
    "version": "2.0"
  },
  "buffers": [
    {
      "byteLength": 9792,
      "uri": "data:application/octet-stream;base64,"
    }
  ],
  "bufferViews": [
    {
      "buffer": 0,
      "byteLength": 144,
      "byteOffset": 0,
      "byteStride": 24,
      "target": 34962
    },
    {
      "buffer": 0,
      "byteLength": 144,
      "byteOffset": 144,
      "byteStride": 24,
      "target": 34962
    },
    {
      "buffer": 0,
      "byteLength": 2304,
      "byteOffset": 288,
      "byteStride": 24,
      "target": 34962
    },
    {
      "buffer": 0,
      "byteLength": 144,
      "byteOffset": 2592,
      "byteStride": 24,
      "target": 34962
    },
    {
      "buffer": 0,
      "byteLength": 2376,
      "byteOffset": 2736,
      "byteStride": 24,
      "target": 34962
    },
    {
      "buffer": 0,
      "byteLength": 2376,
      "byteOffset": 5112,
      "byteStride": 24,
      "target": 34962
    },
    {
      "buffer": 0,
      "byteLength": 2304,
      "byteOffset": 7488,
      "byteStride": 24,
      "target": 34962
    }
  ],
  "scene": 0,
  "extensions": {
    "KITTYCAD_boundary_representation": {
      "solids": [
        {
          "shells": [
            [
              0,
              1
            ]
          ],
          "mesh": 0,
          "extras": {
            "KITTYCAD": {
              "material": 0
            }
          }
        }
      ],
      "shells": [
        {
          "faces": [
            [
              0,
              1
            ],
            [
              1,
              1
            ],
            [
              2,
              1
            ],
            [
              3,
              1
            ],
            [
              4,
              1
            ],
            [
              5,
              1
            ],
            [
              6,
              1
            ]
          ]
        }
      ],
      "faces": [
        {
          "surface": [
            0,
            1
          ],
          "loops": [
            [
              0,
              1
            ]
          ]
        },
        {
          "surface": [
            1,
            1
          ],
          "loops": [
            [
              1,
              1
            ]
          ]
        },
        {
          "surface": [
            2,
            1
          ],
          "loops": [
            [
              2,
              1
            ]
          ]
        },
        {
          "surface": [
            3,
            1
          ],
          "loops": [
            [
              3,
              1
            ]
          ]
        },
        {
          "surface": [
            4,
            -1
          ],
          "loops": [
            [
              4,
              1
            ]
          ]
        },
        {
          "surface": [
            5,
            1
          ],
          "loops": [
            [
              5,
              1
            ]
          ]
        },
        {
          "surface": [
            0,
            1
          ],
          "loops": [
            [
              6,
              1
            ]
          ]
        }
      ],
      "loops": [
        {
          "edges": [
            [
              0,
              1
            ],
            [
              1,
              1
            ],
            [
              2,
              1
            ],
            [
              3,
              -1
            ]
          ]
        },
        {
          "edges": [
            [
              4,
              1
            ],
            [
              5,
              1
            ],
            [
              6,
              -1
            ],
            [
              2,
              -1
            ]
          ]
        },
        {
          "edges": [
            [
              7,
              1
            ],
            [
              8,
              1
            ],
            [
              9,
              -1
            ],
            [
              5,
              -1
            ]
          ]
        },
        {
          "edges": [
            [
              10,
              1
            ],
            [
              11,
              1
            ],
            [
              12,
              -1
            ],
            [
              8,
              -1
            ]
          ]
        },
        {
          "edges": [
            [
              10,
              -1
            ],
            [
              7,
              -1
            ],
            [
              4,
              -1
            ],
            [
              1,
              -1
            ],
            [
              13,
              -1
            ]
          ]
        },
        {
          "edges": [
            [
              14,
              1
            ],
            [
              3,
              1
            ],
            [
              6,
              1
            ],
            [
              9,
              1
            ],
            [
              12,
              1
            ]
          ]
        },
        {
          "edges": [
            [
              0,
              -1
            ],
            [
              14,
              -1
            ],
            [
              11,
              -1
            ],
            [
              13,
              1
            ]
          ]
        }
      ],
      "edges": [
        {
          "curve": [
            0,
            -1
          ],
          "start": 0,
          "end": 1,
          "t": [
            -0.0005,
            0.0005
          ]
        },
        {
          "curve": [
            1,
            1
          ],
          "start": 1,
          "end": 2,
          "t": [
            3.1415926535897936,
            3.205431603529892
          ]
        },
        {
          "curve": [
            2,
            1
          ],
          "start": 2,
          "end": 3,
          "t": [
            0,
            0.001
          ]
        },
        {
          "curve": [
            3,
            1
          ],
          "start": 0,
          "end": 3,
          "t": [
            3.1415926535897936,
            3.205431603529892
          ]
        },
        {
          "curve": [
            4,
            1
          ],
          "start": 2,
          "end": 4,
          "t": [
            0,
            0.005509001785623235
          ]
        },
        {
          "curve": [
            5,
            1
          ],
          "start": 4,
          "end": 5,
          "t": [
            0,
            0.001
          ]
        },
        {
          "curve": [
            6,
            1
          ],
          "start": 3,
          "end": 5,
          "t": [
            0,
            0.005509001785623235
          ]
        },
        {
          "curve": [
            7,
            1
          ],
          "start": 4,
          "end": 6,
          "t": [
            0.000002240826731544016,
            3.0777617180665096
          ]
        },
        {
          "curve": [
            8,
            1
          ],
          "start": 6,
          "end": 7,
          "t": [
            0,
            0.001
          ]
        },
        {
          "curve": [
            9,
            1
          ],
          "start": 5,
          "end": 7,
          "t": [
            0.000002240826731544016,
            3.0777617180665096
          ]
        },
        {
          "curve": [
            10,
            1
          ],
          "start": 6,
          "end": 8,
          "t": [
            0,
            0.005509001708994108
          ]
        },
        {
          "curve": [
            11,
            1
          ],
          "start": 8,
          "end": 9,
          "t": [
            0,
            0.001
          ]
        },
        {
          "curve": [
            12,
            1
          ],
          "start": 7,
          "end": 9,
          "t": [
            0,
            0.005509001708994108
          ]
        },
        {
          "curve": [
            1,
            1
          ],
          "start": 8,
          "end": 1,
          "t": [
            0.000005127420000201029,
            3.1415926535897936
          ]
        },
        {
          "curve": [
            3,
            1
          ],
          "start": 9,
          "end": 0,
          "t": [
            0.000005127420000201029,
            3.1415926535897936
          ]
        }
      ],
      "vertices": [
        [
          -0.004210304394223236,
          0.004153886397368225,
          0.001
        ],
        [
          -0.004210304394223236,
          0.004153886397368225,
          0
        ],
        [
          -0.004155,
          0.00415522,
          -0
        ],
        [
          -0.004155,
          0.00415522,
          0.001
        ],
        [
          0.00135384,
          0.004113,
          -0
        ],
        [
          0.00135384,
          0.004113,
          0.001
        ],
        [
          0.00131206,
          0.00584505,
          -0
        ],
        [
          0.00131206,
          0.00584505,
          0.001
        ],
        [
          -0.00419678,
          0.00588726,
          -0
        ],
        [
          -0.00419678,
          0.00588726,
          0.001
        ]
      ],
      "surfaces": [
        {
          "type": "cylinder",
          "cylinder": {
            "xAxis": [
              0.007804680023579054,
              0.999969543021051,
              -0
            ],
            "yAxis": [
              -0.999969543021051,
              0.007804680023579054,
              0
            ],
            "origin": [
              -0.00420354,
              0.00502057,
              0.0005
            ],
            "radius": 0.00086671
          }
        },
        {
          "type": "plane",
          "plane": {
            "xAxis": [
              0.999970636868806,
              -0.007663249976004173,
              0
            ],
            "yAxis": [
              0,
              0,
              1
            ],
            "origin": [
              -0.00140058,
              0.00413411,
              0.0005
            ]
          }
        },
        {
          "type": "cylinder",
          "cylinder": {
            "xAxis": [
              0.056001989840058435,
              -0.9984306571484842,
              0
            ],
            "yAxis": [
              0.9984306571484842,
              0.056001989840058435,
              -0
            ],
            "origin": [
              0.0013053,
              0.00497836,
              0.0005
            ],
            "radius": 0.00086671
          }
        },
        {
          "type": "plane",
          "plane": {
            "xAxis": [
              0.999970636868806,
              -0.007663249976004173,
              0
            ],
            "yAxis": [
              0,
              0,
              -1
            ],
            "origin": [
              -0.00144236,
              0.00586615,
              0.0005
            ]
          }
        },
        {
          "type": "plane",
          "plane": {
            "xAxis": [
              1,
              0,
              0
            ],
            "yAxis": [
              0,
              1,
              0
            ],
            "origin": [
              0,
              0,
              0
            ]
          }
        },
        {
          "type": "plane",
          "plane": {
            "xAxis": [
              1,
              0,
              -0
            ],
            "yAxis": [
              -0,
              1,
              0
            ],
            "origin": [
              0,
              0,
              0.001
            ]
          }
        }
      ],
      "curves3D": [
        {
          "type": "line",
          "line": {
            "origin": [
              -0.004210304394223236,
              0.004153886397368225,
              0.0005
            ],
            "direction": [
              0,
              0,
              1
            ]
          }
        },
        {
          "type": "circle",
          "circle": {
            "xAxis": [
              0.007804680023579054,
              0.999969543021051,
              0
            ],
            "yAxis": [
              -0.999969543021051,
              0.007804680023579054,
              0
            ],
            "origin": [
              -0.00420354,
              0.00502057,
              0
            ],
            "radius": 0.00086671
          }
        },
        {
          "type": "line",
          "line": {
            "origin": [
              -0.004155000000000001,
              0.004155220000000001,
              0
            ],
            "direction": [
              0,
              0,
              1
            ]
          }
        },
        {
          "type": "circle",
          "circle": {
            "xAxis": [
              0.007804680023579054,
              0.999969543021051,
              0
            ],
            "yAxis": [
              -0.999969543021051,
              0.007804680023579054,
              0
            ],
            "origin": [
              -0.00420354,
              0.00502057,
              0.001
            ],
            "radius": 0.00086671
          }
        },
        {
          "type": "line",
          "line": {
            "origin": [
              -0.004155,
              0.00415522,
              -0
            ],
            "direction": [
              0.9999706324975864,
              -0.007663820351298646,
              0
            ]
          }
        },
        {
          "type": "line",
          "line": {
            "origin": [
              0.0013538400000000005,
              0.004113,
              0
            ],
            "direction": [
              0,
              0,
              1
            ]
          }
        },
        {
          "type": "line",
          "line": {
            "origin": [
              -0.004155,
              0.00415522,
              0.001
            ],
            "direction": [
              0.9999706324975864,
              -0.007663820351298646,
              0
            ]
          }
        },
        {
          "type": "circle",
          "circle": {
            "xAxis": [
              0.056001989840058435,
              -0.9984306571484842,
              0
            ],
            "yAxis": [
              0.9984306571484842,
              0.056001989840058435,
              -0
            ],
            "origin": [
              0.0013053,
              0.00497836,
              0
            ],
            "radius": 0.00086671
          }
        },
        {
          "type": "line",
          "line": {
            "origin": [
              0.0013120600000000003,
              0.00584505,
              0
            ],
            "direction": [
              0,
              0,
              1
            ]
          }
        },
        {
          "type": "circle",
          "circle": {
            "xAxis": [
              0.056001989840058435,
              -0.9984306571484842,
              0
            ],
            "yAxis": [
              0.9984306571484842,
              0.056001989840058435,
              -0
            ],
            "origin": [
              0.0013053,
              0.00497836,
              0.001
            ],
            "radius": 0.00086671
          }
        },
        {
          "type": "line",
          "line": {
            "origin": [
              0.00131206,
              0.00584505,
              -0
            ],
            "direction": [
              -0.9999706464069807,
              0.007662005246991862,
              0
            ]
          }
        },
        {
          "type": "line",
          "line": {
            "origin": [
              -0.004196780000000001,
              0.005887260000000001,
              0
            ],
            "direction": [
              0,
              0,
              1
            ]
          }
        },
        {
          "type": "line",
          "line": {
            "origin": [
              0.00131206,
              0.00584505,
              0.001
            ],
            "direction": [
              -0.9999706464069807,
              0.007662005246991862,
              0
            ]
          }
        }
      ]
    }
  },
  "extensionsUsed": [
    "KITTYCAD_boundary_representation"
  ],
  "materials": [
    {
      "alphaMode": "OPAQUE",
      "doubleSided": false,
      "pbrMetallicRoughness": {
        "baseColorFactor": [
          0.9,
          0.9,
          0.9,
          1
        ],
        "metallicFactor": 1,
        "roughnessFactor": 1
      },
      "emissiveFactor": [
        0,
        0,
        0
      ]
    }
  ],
  "meshes": [
    {
      "primitives": [
        {
          "attributes": {
            "POSITION": 0,
            "NORMAL": 1
          },
          "material": 0
        },
        {
          "attributes": {
            "POSITION": 2,
            "NORMAL": 3
          },
          "material": 0
        },
        {
          "attributes": {
            "POSITION": 4,
            "NORMAL": 5
          },
          "material": 0
        },
        {
          "attributes": {
            "POSITION": 6,
            "NORMAL": 7
          },
          "material": 0
        },
        {
          "attributes": {
            "POSITION": 8,
            "NORMAL": 9
          },
          "material": 0
        },
        {
          "attributes": {
            "POSITION": 10,
            "NORMAL": 11
          },
          "material": 0
        },
        {
          "attributes": {
            "POSITION": 12,
            "NORMAL": 13
          },
          "material": 0
        }
      ]
    }
  ],
  "nodes": [
    {
      "children": [
        1
      ]
    },
    {
      "children": [
        2
      ]
    },
    {
      "extensions": {
        "KITTYCAD_boundary_representation": {
          "solid": 0
        }
      },
      "mesh": 0
    }
  ],
  "scenes": [
    {
      "nodes": [
        0
      ]
    }
  ]
}