{
  "accessors": [
    {
      "bufferView": 0,
      "byteOffset": 0,
      "count": 1635,
      "componentType": 5126,
      "type": "VEC3",
      "min": [
        -0.004999999888241291,
        0,
        0.001060659997165203
      ],
      "max": [
        0.004999999888241291,
        0.019999999552965164,
        0.004999999888241291
      ]
    },
    {
      "bufferView": 0,
      "byteOffset": 12,
      "count": 1635,
      "componentType": 5126,
      "type": "VEC3"
    },
    {
      "bufferView": 1,
      "byteOffset": 0,
      "count": 1392,
      "componentType": 5126,
      "type": "VEC3",
      "min": [
        -0.004999999888241291,
        0,
        -0.004999999888241291
      ],
      "max": [
        -0.001060659997165203,
        0.019999999552965164,
        0.004999999888241291
      ]
    },
    {
      "bufferView": 1,
      "byteOffset": 12,
      "count": 1392,
      "componentType": 5126,
      "type": "VEC3"
    },
    {
      "bufferView": 2,
      "byteOffset": 0,
      "count": 1392,
      "componentType": 5126,
      "type": "VEC3",
      "min": [
        -0.004999999888241291,
        0,
        -0.004999999888241291
      ],
      "max": [
        0.004999999888241291,
        0.019999999552965164,
        -0.001060659997165203
      ]
    },
    {
      "bufferView": 2,
      "byteOffset": 12,
      "count": 1392,
      "componentType": 5126,
      "type": "VEC3"
    },
    {
      "bufferView": 3,
      "byteOffset": 0,
      "count": 1308,
      "componentType": 5126,
      "type": "VEC3",
      "min": [
        0.001060659997165203,
        0,
        -0.004999999888241291
      ],
      "max": [
        0.004999999888241291,
        0.019999999552965164,
        0.004999999888241291
      ]
    },
    {
      "bufferView": 3,
      "byteOffset": 12,
      "count": 1308,
      "componentType": 5126,
      "type": "VEC3"
    },
    {
      "bufferView": 4,
      "byteOffset": 0,
      "count": 33,
      "componentType": 5126,
      "type": "VEC3",
      "min": [
        -0.004999999888241291,
        0,
        -0.004999999888241291
      ],
      "max": [
        0.004999999888241291,
        0,
        0.004999999888241291
      ]
    },
    {
      "bufferView": 4,
      "byteOffset": 12,
      "count": 33,
      "componentType": 5126,
      "type": "VEC3"
    },
    {
      "bufferView": 5,
      "byteOffset": 0,
      "count": 30,
      "componentType": 5126,
      "type": "VEC3",
      "min": [
        -0.004999999888241291,
        0.019999999552965164,
        -0.004999999888241291
      ],
      "max": [
        0.004999999888241291,
        0.019999999552965164,
        0.004999999888241291
      ]
    },
    {
      "bufferView": 5,
      "byteOffset": 12,
      "count": 30,
      "componentType": 5126,
      "type": "VEC3"
    }
  ],
  "asset": {
    "generator": "zoo.dev",
    "version": "2.0"
  },
  "buffers": [
    {
      "byteLength": 138960,
      "uri": "data:application/octet-stream;base64,"
    }
  ],
  "bufferViews": [
    {
      "buffer": 0,
      "byteLength": 39240,
      "byteOffset": 0,
      "byteStride": 24,
      "target": 34962
    },
    {
      "buffer": 0,
      "byteLength": 33408,
      "byteOffset": 39240,
      "byteStride": 24,
      "target": 34962
    },
    {
      "buffer": 0,
      "byteLength": 33408,
      "byteOffset": 72648,
      "byteStride": 24,
      "target": 34962
    },
    {
      "buffer": 0,
      "byteLength": 31392,
      "byteOffset": 106056,
      "byteStride": 24,
      "target": 34962
    },
    {
      "buffer": 0,
      "byteLength": 792,
      "byteOffset": 137448,
      "byteStride": 24,
      "target": 34962
    },
    {
      "buffer": 0,
      "byteLength": 720,
      "byteOffset": 138240,
      "byteStride": 24,
      "target": 34962
    }
  ],
  "scene": 0,
  "extensions": {
    "KITTYCAD_boundary_representation": {
      "solids": [
        {
          "shells": [
            [
              0,
              1
            ]
          ],
          "mesh": 0,
          "extras": {
            "KITTYCAD": {
              "material": 0
            }
          }
        }
      ],
      "shells": [
        {
          "faces": [
            [
              0,
              1
            ],
            [
              1,
              1
            ],
            [
              2,
              1
            ],
            [
              3,
              1
            ],
            [
              4,
              1
            ],
            [
              5,
              1
            ]
          ]
        }
      ],
      "faces": [
        {
          "surface": [
            0,
            1
          ],
          "loops": [
            [
              0,
              1
            ]
          ]
        },
        {
          "surface": [
            1,
            1
          ],
          "loops": [
            [
              1,
              1
            ]
          ]
        },
        {
          "surface": [
            2,
            1
          ],
          "loops": [
            [
              2,
              1
            ]
          ]
        },
        {
          "surface": [
            3,
            1
          ],
          "loops": [
            [
              3,
              1
            ]
          ]
        },
        {
          "surface": [
            4,
            -1
          ],
          "loops": [
            [
              4,
              1
            ]
          ]
        },
        {
          "surface": [
            5,
            1
          ],
          "loops": [
            [
              5,
              1
            ]
          ]
        }
      ],
      "loops": [
        {
          "edges": [
            [
              0,
              -1
            ],
            [
              1,
              1
            ],
            [
              2,
              1
            ],
            [
              3,
              1
            ]
          ]
        },
        {
          "edges": [
            [
              2,
              -1
            ],
            [
              4,
              1
            ],
            [
              5,
              1
            ],
            [
              6,
              1
            ]
          ]
        },
        {
          "edges": [
            [
              5,
              -1
            ],
            [
              7,
              1
            ],
            [
              8,
              1
            ],
            [
              9,
              1
            ]
          ]
        },
        {
          "edges": [
            [
              8,
              -1
            ],
            [
              10,
              1
            ],
            [
              0,
              1
            ],
            [
              11,
              1
            ]
          ]
        },
        {
          "edges": [
            [
              3,
              -1
            ],
            [
              6,
              -1
            ],
            [
              9,
              -1
            ],
            [
              11,
              -1
            ]
          ]
        },
        {
          "edges": [
            [
              10,
              -1
            ],
            [
              7,
              -1
            ],
            [
              4,
              -1
            ],
            [
              1,
              -1
            ]
          ]
        }
      ],
      "edges": [
        {
          "curve": [
            0,
            1
          ],
          "start": 0,
          "end": 1,
          "t": [
            -1,
            -0
          ]
        },
        {
          "curve": [
            1,
            1
          ],
          "start": 0,
          "end": 2,
          "t": [
            0,
            0.01
          ]
        },
        {
          "curve": [
            2,
            1
          ],
          "start": 2,
          "end": 3,
          "t": [
            -1,
            -0
          ]
        },
        {
          "curve": [
            3,
            1
          ],
          "start": 3,
          "end": 1,
          "t": [
            0,
            0.01
          ]
        },
        {
          "curve": [
            4,
            1
          ],
          "start": 2,
          "end": 4,
          "t": [
            0,
            0.01
          ]
        },
        {
          "curve": [
            5,
            1
          ],
          "start": 4,
          "end": 5,
          "t": [
            -1,
            -0
          ]
        },
        {
          "curve": [
            6,
            1
          ],
          "start": 5,
          "end": 3,
          "t": [
            0,
            0.01
          ]
        },
        {
          "curve": [
            7,
            1
          ],
          "start": 4,
          "end": 6,
          "t": [
            0,
            0.01
          ]
        },
        {
          "curve": [
            8,
            1
          ],
          "start": 6,
          "end": 7,
          "t": [
            -1,
            -0
          ]
        },
        {
          "curve": [
            9,
            1
          ],
          "start": 7,
          "end": 5,
          "t": [
            0,
            0.01
          ]
        },
        {
          "curve": [
            10,
            1
          ],
          "start": 6,
          "end": 0,
          "t": [
            0,
            0.01
          ]
        },
        {
          "curve": [
            11,
            1
          ],
          "start": 1,
          "end": 7,
          "t": [
            0,
            0.01
          ]
        }
      ],
      "vertices": [
        [
          0.005,
          0.02,
          0.005
        ],
        [
          0.005,
          0,
          0.005
        ],
        [
          -0.005,
          0.02,
          0.005
        ],
        [
          -0.005,
          0,
          0.005
        ],
        [
          -0.005,
          0.02,
          -0.005
        ],
        [
          -0.005,
          0,
          -0.005
        ],
        [
          0.005,
          0.02,
          -0.005
        ],
        [
          0.005,
          0,
          -0.005
        ]
      ],
      "surfaces": [
        {
          "type": "nurbs",
          "nurbs": {
            "controlPoints": [
              [
                0.005,
                0,
                0.005
              ],
              [
                0.00480392,
                0,
                0.005
              ],
              [
                0.00460784,
                0,
                0.005
              ],
              [
                0.00441176,
                0,
                0.005
              ],
              [
                0.00421569,
                0,
                0.005
              ],
              [
                0.00401961,
                0,
                0.005
              ],
              [
                0.00382353,
                0,
                0.005
              ],
              [
                0.00362745,
                0,
                0.005
              ],
              [
                0.00343137,
                0,
                0.005
              ],
              [
                0.00323529,
                0,
                0.005
              ],
              [
                0.00303922,
                0,
                0.005
              ],
              [
                0.00284314,
                0,
                0.005
              ],
              [
                0.00264706,
                0,
                0.005
              ],
              [
                0.00245098,
                0,
                0.005
              ],
              [
                0.0022549,
                0,
                0.005
              ],
              [
                0.00205882,
                0,
                0.005
              ],
              [
                0.00186275,
                0,
                0.005
              ],
              [
                0.00166667,
                0,
                0.005
              ],
              [
                0.00147059,
                0,
                0.005
              ],
              [
                0.00127451,
                0,
                0.005
              ],
              [
                0.00107843,
                0,
                0.005
              ],
              [
                0.00088235,
                0,
                0.005
              ],
              [
                0.00068627,
                0,
                0.005
              ],
              [
                0.0004902,
                0,
                0.005
              ],
              [
                0.00029412,
                0,
                0.005
              ],
              [
                0.00009804,
                0,
                0.005
              ],
              [
                -0.00009804,
                0,
                0.005
              ],
              [
                -0.00029412,
                0,
                0.005
              ],
              [
                -0.0004902,
                0,
                0.005
              ],
              [
                -0.00068627,
                0,
                0.005
              ],
              [
                -0.00088235,
                0,
                0.005
              ],
              [
                -0.00107843,
                0,
                0.005
              ],
              [
                -0.00127451,
                0,
                0.005
              ],
              [
                -0.00147059,
                0,
                0.005
              ],
              [
                -0.00166667,
                0,
                0.005
              ],
              [
                -0.00186275,
                0,
                0.005
              ],
              [
                -0.00205882,
                0,
                0.005
              ],
              [
                -0.0022549,
                0,
                0.005
              ],
              [
                -0.00245098,
                0,
                0.005
              ],
              [
                -0.00264706,
                0,
                0.005
              ],
              [
                -0.00284314,
                0,
                0.005
              ],
              [
                -0.00303922,
                0,
                0.005
              ],
              [
                -0.00323529,
                0,
                0.005
              ],
              [
                -0.00343137,
                0,
                0.005
              ],
              [
                -0.00362745,
                0,
                0.005
              ],
              [
                -0.00382353,
                0,
                0.005
              ],
              [
                -0.00401961,
                0,
                0.005
              ],
              [
                -0.00421569,
                0,
                0.005
              ],
              [
                -0.00441176,
                0,
                0.005
              ],
              [
                -0.00460784,
                0,
                0.005
              ],
              [
                -0.00480392,
                0,
                0.005
              ],
              [
                -0.005,
                0,
                0.005
              ],
              [
                0.00106066,
                0.01,
                0.00106066
              ],
              [
                0.0010262,
                0.01,
                0.00109512
              ],
              [
                0.00099006,
                0.01,
                0.00112789
              ],
              [
                0.00095251,
                0.01,
                0.00115876
              ],
              [
                0.00091495,
                0.01,
                0.00118963
              ],
              [
                0.00087598,
                0.01,
                0.0012186
              ],
              [
                0.0008359,
                0.01,
                0.0012455
              ],
              [
                0.00079581,
                0.01,
                0.0012724
              ],
              [
                0.00075462,
                0.01,
                0.00129724
              ],
              [
                0.00071264,
                0.01,
                0.0013199
              ],
              [
                0.00067066,
                0.01,
                0.00134257
              ],
              [
                0.00062788,
                0.01,
                0.00136307
              ],
              [
                0.00058465,
                0.01,
                0.00138137
              ],
              [
                0.00054142,
                0.01,
                0.00139967
              ],
              [
                0.00049772,
                0.01,
                0.00141577
              ],
              [
                0.00045388,
                0.01,
                0.00142968
              ],
              [
                0.00041003,
                0.01,
                0.0014436
              ],
              [
                0.00036604,
                0.01,
                0.00145535
              ],
              [
                0.0003222,
                0.01,
                0.00146499
              ],
              [
                0.00027835,
                0.01,
                0.00147463
              ],
              [
                0.00023465,
                0.01,
                0.00148218
              ],
              [
                0.00019136,
                0.01,
                0.00148774
              ],
              [
                0.00014806,
                0.01,
                0.00149331
              ],
              [
                0.00010517,
                0.01,
                0.00149691
              ],
              [
                0.00006291,
                0.01,
                0.00149868
              ],
              [
                0.00002046,
                0.01,
                0.00150044
              ],
              [
                -0.00002046,
                0.01,
                0.00150044
              ],
              [
                -0.00006291,
                0.01,
                0.00149868
              ],
              [
                -0.00010517,
                0.01,
                0.00149691
              ],
              [
                -0.00014806,
                0.01,
                0.00149331
              ],
              [
                -0.00019136,
                0.01,
                0.00148774
              ],
              [
                -0.00023465,
                0.01,
                0.00148218
              ],
              [
                -0.00027835,
                0.01,
                0.00147463
              ],
              [
                -0.0003222,
                0.01,
                0.00146499
              ],
              [
                -0.00036604,
                0.01,
                0.00145535
              ],
              [
                -0.00041003,
                0.01,
                0.0014436
              ],
              [
                -0.00045388,
                0.01,
                0.00142968
              ],
              [
                -0.00049772,
                0.01,
                0.00141577
              ],
              [
                -0.00054142,
                0.01,
                0.00139967
              ],
              [
                -0.00058465,
                0.01,
                0.00138137
              ],
              [
                -0.00062788,
                0.01,
                0.00136307
              ],
              [
                -0.00067066,
                0.01,
                0.00134257
              ],
              [
                -0.00071264,
                0.01,
                0.0013199
              ],
              [
                -0.00075462,
                0.01,
                0.00129724
              ],
              [
                -0.00079581,
                0.01,
                0.0012724
              ],
              [
                -0.0008359,
                0.01,
                0.0012455
              ],
              [
                -0.00087598,
                0.01,
                0.0012186
              ],
              [
                -0.00091495,
                0.01,
                0.00118963
              ],
              [
                -0.00095251,
                0.01,
                0.00115876
              ],
              [
                -0.00099006,
                0.01,
                0.00112789
              ],
              [
                -0.0010262,
                0.01,
                0.00109512
              ],
              [
                -0.00106066,
                0.01,
                0.00106066
              ],
              [
                0.005,
                0.02,
                0.005
              ],
              [
                0.00480392,
                0.02,
                0.005
              ],
              [
                0.00460784,
                0.02,
                0.005
              ],
              [
                0.00441176,
                0.02,
                0.005
              ],
              [
                0.00421569,
                0.02,
                0.005
              ],
              [
                0.00401961,
                0.02,
                0.005
              ],
              [
                0.00382353,
                0.02,
                0.005
              ],
              [
                0.00362745,
                0.02,
                0.005
              ],
              [
                0.00343137,
                0.02,
                0.005
              ],
              [
                0.00323529,
                0.02,
                0.005
              ],
              [
                0.00303922,
                0.02,
                0.005
              ],
              [
                0.00284314,
                0.02,
                0.005
              ],
              [
                0.00264706,
                0.02,
                0.005
              ],
              [
                0.00245098,
                0.02,
                0.005
              ],
              [
                0.0022549,
                0.02,
                0.005
              ],
              [
                0.00205882,
                0.02,
                0.005
              ],
              [
                0.00186275,
                0.02,
                0.005
              ],
              [
                0.00166667,
                0.02,
                0.005
              ],
              [
                0.00147059,
                0.02,
                0.005
              ],
              [
                0.00127451,
                0.02,
                0.005
              ],
              [
                0.00107843,
                0.02,
                0.005
              ],
              [
                0.00088235,
                0.02,
                0.005
              ],
              [
                0.00068627,
                0.02,
                0.005
              ],
              [
                0.0004902,
                0.02,
                0.005
              ],
              [
                0.00029412,
                0.02,
                0.005
              ],
              [
                0.00009804,
                0.02,
                0.005
              ],
              [
                -0.00009804,
                0.02,
                0.005
              ],
              [
                -0.00029412,
                0.02,
                0.005
              ],
              [
                -0.0004902,
                0.02,
                0.005
              ],
              [
                -0.00068627,
                0.02,
                0.005
              ],
              [
                -0.00088235,
                0.02,
                0.005
              ],
              [
                -0.00107843,
                0.02,
                0.005
              ],
              [
                -0.00127451,
                0.02,
                0.005
              ],
              [
                -0.00147059,
                0.02,
                0.005
              ],
              [
                -0.00166667,
                0.02,
                0.005
              ],
              [
                -0.00186275,
                0.02,
                0.005
              ],
              [
                -0.00205882,
                0.02,
                0.005
              ],
              [
                -0.0022549,
                0.02,
                0.005
              ],
              [
                -0.00245098,
                0.02,
                0.005
              ],
              [
                -0.00264706,
                0.02,
                0.005
              ],
              [
                -0.00284314,
                0.02,
                0.005
              ],
              [
                -0.00303922,
                0.02,
                0.005
              ],
              [
                -0.00323529,
                0.02,
                0.005
              ],
              [
                -0.00343137,
                0.02,
                0.005
              ],
              [
                -0.00362745,
                0.02,
                0.005
              ],
              [
                -0.00382353,
                0.02,
                0.005
              ],
              [
                -0.00401961,
                0.02,
                0.005
              ],
              [
                -0.00421569,
                0.02,
                0.005
              ],
              [
                -0.00441176,
                0.02,
                0.005
              ],
              [
                -0.00460784,
                0.02,
                0.005
              ],
              [
                -0.00480392,
                0.02,
                0.005
              ],
              [
                -0.005,
                0.02,
                0.005
              ]
            ],
            "numControlPoints": [
              3,
              52
            ],
            "numKnots": [
              5,
              56
            ],
            "knotVector": [
              0,
              0,
              0.5,
              1,
              1,
              0,
              0,
              0,
              0,
              0.05882353,
              0.05882353,
              0.05882353,
              0.11764706,
              0.11764706,
              0.11764706,
              0.17647059,
              0.17647059,
              0.17647059,
              0.23529412,
              0.23529412,
              0.23529412,
              0.29411765,
              0.29411765,
              0.29411765,
              0.35294118,
              0.35294118,
              0.35294118,
              0.41176471,
              0.41176471,
              0.41176471,
              0.47058824,
              0.47058824,
              0.47058824,
              0.52941176,
              0.52941176,
              0.52941176,
              0.58823529,
              0.58823529,
              0.58823529,
              0.64705882,
              0.64705882,
              0.64705882,
              0.70588235,
              0.70588235,
              0.70588235,
              0.76470588,
              0.76470588,
              0.76470588,
              0.82352941,
              0.82352941,
              0.82352941,
              0.88235294,
              0.88235294,
              0.88235294,
              0.94117647,
              0.94117647,
              0.94117647,
              1,
              1,
              1,
              1
            ],
            "order": [
              2,
              4
            ]
          }
        },
        {
          "type": "nurbs",
          "nurbs": {
            "controlPoints": [
              [
                -0.005,
                0,
                0.005
              ],
              [
                -0.005,
                0,
                0.00480392
              ],
              [
                -0.005,
                0,
                0.00460784
              ],
              [
                -0.005,
                0,
                0.00441176
              ],
              [
                -0.005,
                0,
                0.00421569
              ],
              [
                -0.005,
                0,
                0.00401961
              ],
              [
                -0.005,
                0,
                0.00382353
              ],
              [
                -0.005,
                0,
                0.00362745
              ],
              [
                -0.005,
                0,
                0.00343137
              ],
              [
                -0.005,
                0,
                0.00323529
              ],
              [
                -0.005,
                0,
                0.00303922
              ],
              [
                -0.005,
                0,
                0.00284314
              ],
              [
                -0.005,
                0,
                0.00264706
              ],
              [
                -0.005,
                0,
                0.00245098
              ],
              [
                -0.005,
                0,
                0.0022549
              ],
              [
                -0.005,
                0,
                0.00205882
              ],
              [
                -0.005,
                0,
                0.00186275
              ],
              [
                -0.005,
                0,
                0.00166667
              ],
              [
                -0.005,
                0,
                0.00147059
              ],
              [
                -0.005,
                0,
                0.00127451
              ],
              [
                -0.005,
                0,
                0.00107843
              ],
              [
                -0.005,
                0,
                0.00088235
              ],
              [
                -0.005,
                0,
                0.00068627
              ],
              [
                -0.005,
                0,
                0.0004902
              ],
              [
                -0.005,
                0,
                0.00029412
              ],
              [
                -0.005,
                0,
                0.00009804
              ],
              [
                -0.005,
                0,
                -0.00009804
              ],
              [
                -0.005,
                0,
                -0.00029412
              ],
              [
                -0.005,
                0,
                -0.0004902
              ],
              [
                -0.005,
                0,
                -0.00068627
              ],
              [
                -0.005,
                0,
                -0.00088235
              ],
              [
                -0.005,
                0,
                -0.00107843
              ],
              [
                -0.005,
                0,
                -0.00127451
              ],
              [
                -0.005,
                0,
                -0.00147059
              ],
              [
                -0.005,
                0,
                -0.00166667
              ],
              [
                -0.005,
                0,
                -0.00186275
              ],
              [
                -0.005,
                0,
                -0.00205882
              ],
              [
                -0.005,
                0,
                -0.0022549
              ],
              [
                -0.005,
                0,
                -0.00245098
              ],
              [
                -0.005,
                0,
                -0.00264706
              ],
              [
                -0.005,
                0,
                -0.00284314
              ],
              [
                -0.005,
                0,
                -0.00303922
              ],
              [
                -0.005,
                0,
                -0.00323529
              ],
              [
                -0.005,
                0,
                -0.00343137
              ],
              [
                -0.005,
                0,
                -0.00362745
              ],
              [
                -0.005,
                0,
                -0.00382353
              ],
              [
                -0.005,
                0,
                -0.00401961
              ],
              [
                -0.005,
                0,
                -0.00421569
              ],
              [
                -0.005,
                0,
                -0.00441176
              ],
              [
                -0.005,
                0,
                -0.00460784
              ],
              [
                -0.005,
                0,
                -0.00480392
              ],
              [
                -0.005,
                0,
                -0.005
              ],
              [
                -0.00106066,
                0.01,
                0.00106066
              ],
              [
                -0.00109512,
                0.01,
                0.0010262
              ],
              [
                -0.00112789,
                0.01,
                0.00099006
              ],
              [
                -0.00115876,
                0.01,
                0.00095251
              ],
              [
                -0.00118963,
                0.01,
                0.00091495
              ],
              [
                -0.0012186,
                0.01,
                0.00087598
              ],
              [
                -0.0012455,
                0.01,
                0.0008359
              ],
              [
                -0.0012724,
                0.01,
                0.00079581
              ],
              [
                -0.00129724,
                0.01,
                0.00075462
              ],
              [
                -0.0013199,
                0.01,
                0.00071264
              ],
              [
                -0.00134257,
                0.01,
                0.00067066
              ],
              [
                -0.00136307,
                0.01,
                0.00062788
              ],
              [
                -0.00138137,
                0.01,
                0.00058465
              ],
              [
                -0.00139967,
                0.01,
                0.00054142
              ],
              [
                -0.00141577,
                0.01,
                0.00049772
              ],
              [
                -0.00142968,
                0.01,
                0.00045388
              ],
              [
                -0.0014436,
                0.01,
                0.00041003
              ],
              [
                -0.00145535,
                0.01,
                0.00036604
              ],
              [
                -0.00146499,
                0.01,
                0.0003222
              ],
              [
                -0.00147463,
                0.01,
                0.00027835
              ],
              [
                -0.00148218,
                0.01,
                0.00023465
              ],
              [
                -0.00148774,
                0.01,
                0.00019136
              ],
              [
                -0.00149331,
                0.01,
                0.00014806
              ],
              [
                -0.00149691,
                0.01,
                0.00010517
              ],
              [
                -0.00149868,
                0.01,
                0.00006291
              ],
              [
                -0.00150044,
                0.01,
                0.00002046
              ],
              [
                -0.00150044,
                0.01,
                -0.00002046
              ],
              [
                -0.00149868,
                0.01,
                -0.00006291
              ],
              [
                -0.00149691,
                0.01,
                -0.00010517
              ],
              [
                -0.00149331,
                0.01,
                -0.00014806
              ],
              [
                -0.00148774,
                0.01,
                -0.00019136
              ],
              [
                -0.00148218,
                0.01,
                -0.00023465
              ],
              [
                -0.00147463,
                0.01,
                -0.00027835
              ],
              [
                -0.00146499,
                0.01,
                -0.0003222
              ],
              [
                -0.00145535,
                0.01,
                -0.00036604
              ],
              [
                -0.0014436,
                0.01,
                -0.00041003
              ],
              [
                -0.00142968,
                0.01,
                -0.00045388
              ],
              [
                -0.00141577,
                0.01,
                -0.00049772
              ],
              [
                -0.00139967,
                0.01,
                -0.00054142
              ],
              [
                -0.00138137,
                0.01,
                -0.00058465
              ],
              [
                -0.00136307,
                0.01,
                -0.00062788
              ],
              [
                -0.00134257,
                0.01,
                -0.00067066
              ],
              [
                -0.0013199,
                0.01,
                -0.00071264
              ],
              [
                -0.00129724,
                0.01,
                -0.00075462
              ],
              [
                -0.0012724,
                0.01,
                -0.00079581
              ],
              [
                -0.0012455,
                0.01,
                -0.0008359
              ],
              [
                -0.0012186,
                0.01,
                -0.00087598
              ],
              [
                -0.00118963,
                0.01,
                -0.00091495
              ],
              [
                -0.00115876,
                0.01,
                -0.00095251
              ],
              [
                -0.00112789,
                0.01,
                -0.00099006
              ],
              [
                -0.00109512,
                0.01,
                -0.0010262
              ],
              [
                -0.00106066,
                0.01,
                -0.00106066
              ],
              [
                -0.005,
                0.02,
                0.005
              ],
              [
                -0.005,
                0.02,
                0.00480392
              ],
              [
                -0.005,
                0.02,
                0.00460784
              ],
              [
                -0.005,
                0.02,
                0.00441176
              ],
              [
                -0.005,
                0.02,
                0.00421569
              ],
              [
                -0.005,
                0.02,
                0.00401961
              ],
              [
                -0.005,
                0.02,
                0.00382353
              ],
              [
                -0.005,
                0.02,
                0.00362745
              ],
              [
                -0.005,
                0.02,
                0.00343137
              ],
              [
                -0.005,
                0.02,
                0.00323529
              ],
              [
                -0.005,
                0.02,
                0.00303922
              ],
              [
                -0.005,
                0.02,
                0.00284314
              ],
              [
                -0.005,
                0.02,
                0.00264706
              ],
              [
                -0.005,
                0.02,
                0.00245098
              ],
              [
                -0.005,
                0.02,
                0.0022549
              ],
              [
                -0.005,
                0.02,
                0.00205882
              ],
              [
                -0.005,
                0.02,
                0.00186275
              ],
              [
                -0.005,
                0.02,
                0.00166667
              ],
              [
                -0.005,
                0.02,
                0.00147059
              ],
              [
                -0.005,
                0.02,
                0.00127451
              ],
              [
                -0.005,
                0.02,
                0.00107843
              ],
              [
                -0.005,
                0.02,
                0.00088235
              ],
              [
                -0.005,
                0.02,
                0.00068627
              ],
              [
                -0.005,
                0.02,
                0.0004902
              ],
              [
                -0.005,
                0.02,
                0.00029412
              ],
              [
                -0.005,
                0.02,
                0.00009804
              ],
              [
                -0.005,
                0.02,
                -0.00009804
              ],
              [
                -0.005,
                0.02,
                -0.00029412
              ],
              [
                -0.005,
                0.02,
                -0.0004902
              ],
              [
                -0.005,
                0.02,
                -0.00068627
              ],
              [
                -0.005,
                0.02,
                -0.00088235
              ],
              [
                -0.005,
                0.02,
                -0.00107843
              ],
              [
                -0.005,
                0.02,
                -0.00127451
              ],
              [
                -0.005,
                0.02,
                -0.00147059
              ],
              [
                -0.005,
                0.02,
                -0.00166667
              ],
              [
                -0.005,
                0.02,
                -0.00186275
              ],
              [
                -0.005,
                0.02,
                -0.00205882
              ],
              [
                -0.005,
                0.02,
                -0.0022549
              ],
              [
                -0.005,
                0.02,
                -0.00245098
              ],
              [
                -0.005,
                0.02,
                -0.00264706
              ],
              [
                -0.005,
                0.02,
                -0.00284314
              ],
              [
                -0.005,
                0.02,
                -0.00303922
              ],
              [
                -0.005,
                0.02,
                -0.00323529
              ],
              [
                -0.005,
                0.02,
                -0.00343137
              ],
              [
                -0.005,
                0.02,
                -0.00362745
              ],
              [
                -0.005,
                0.02,
                -0.00382353
              ],
              [
                -0.005,
                0.02,
                -0.00401961
              ],
              [
                -0.005,
                0.02,
                -0.00421569
              ],
              [
                -0.005,
                0.02,
                -0.00441176
              ],
              [
                -0.005,
                0.02,
                -0.00460784
              ],
              [
                -0.005,
                0.02,
                -0.00480392
              ],
              [
                -0.005,
                0.02,
                -0.005
              ]
            ],
            "numControlPoints": [
              3,
              52
            ],
            "numKnots": [
              5,
              56
            ],
            "knotVector": [
              0,
              0,
              0.5,
              1,
              1,
              0,
              0,
              0,
              0,
              0.05882353,
              0.05882353,
              0.05882353,
              0.11764706,
              0.11764706,
              0.11764706,
              0.17647059,
              0.17647059,
              0.17647059,
              0.23529412,
              0.23529412,
              0.23529412,
              0.29411765,
              0.29411765,
              0.29411765,
              0.35294118,
              0.35294118,
              0.35294118,
              0.41176471,
              0.41176471,
              0.41176471,
              0.47058824,
              0.47058824,
              0.47058824,
              0.52941176,
              0.52941176,
              0.52941176,
              0.58823529,
              0.58823529,
              0.58823529,
              0.64705882,
              0.64705882,
              0.64705882,
              0.70588235,
              0.70588235,
              0.70588235,
              0.76470588,
              0.76470588,
              0.76470588,
              0.82352941,
              0.82352941,
              0.82352941,
              0.88235294,
              0.88235294,
              0.88235294,
              0.94117647,
              0.94117647,
              0.94117647,
              1,
              1,
              1,
              1
            ],
            "order": [
              2,
              4
            ]
          }
        },
        {
          "type": "nurbs",
          "nurbs": {
            "controlPoints": [
              [
                -0.005,
                0,
                -0.005
              ],
              [
                -0.00480392,
                0,
                -0.005
              ],
              [
                -0.00460784,
                0,
                -0.005
              ],
              [
                -0.00441176,
                0,
                -0.005
              ],
              [
                -0.00421569,
                0,
                -0.005
              ],
              [
                -0.00401961,
                0,
                -0.005
              ],
              [
                -0.00382353,
                0,
                -0.005
              ],
              [
                -0.00362745,
                0,
                -0.005
              ],
              [
                -0.00343137,
                0,
                -0.005
              ],
              [
                -0.00323529,
                0,
                -0.005
              ],
              [
                -0.00303922,
                0,
                -0.005
              ],
              [
                -0.00284314,
                0,
                -0.005
              ],
              [
                -0.00264706,
                0,
                -0.005
              ],
              [
                -0.00245098,
                0,
                -0.005
              ],
              [
                -0.0022549,
                0,
                -0.005
              ],
              [
                -0.00205882,
                0,
                -0.005
              ],
              [
                -0.00186275,
                0,
                -0.005
              ],
              [
                -0.00166667,
                0,
                -0.005
              ],
              [
                -0.00147059,
                0,
                -0.005
              ],
              [
                -0.00127451,
                0,
                -0.005
              ],
              [
                -0.00107843,
                0,
                -0.005
              ],
              [
                -0.00088235,
                0,
                -0.005
              ],
              [
                -0.00068627,
                0,
                -0.005
              ],
              [
                -0.0004902,
                0,
                -0.005
              ],
              [
                -0.00029412,
                0,
                -0.005
              ],
              [
                -0.00009804,
                0,
                -0.005
              ],
              [
                0.00009804,
                0,
                -0.005
              ],
              [
                0.00029412,
                0,
                -0.005
              ],
              [
                0.0004902,
                0,
                -0.005
              ],
              [
                0.00068627,
                0,
                -0.005
              ],
              [
                0.00088235,
                0,
                -0.005
              ],
              [
                0.00107843,
                0,
                -0.005
              ],
              [
                0.00127451,
                0,
                -0.005
              ],
              [
                0.00147059,
                0,
                -0.005
              ],
              [
                0.00166667,
                0,
                -0.005
              ],
              [
                0.00186275,
                0,
                -0.005
              ],
              [
                0.00205882,
                0,
                -0.005
              ],
              [
                0.0022549,
                0,
                -0.005
              ],
              [
                0.00245098,
                0,
                -0.005
              ],
              [
                0.00264706,
                0,
                -0.005
              ],
              [
                0.00284314,
                0,
                -0.005
              ],
              [
                0.00303922,
                0,
                -0.005
              ],
              [
                0.00323529,
                0,
                -0.005
              ],
              [
                0.00343137,
                0,
                -0.005
              ],
              [
                0.00362745,
                0,
                -0.005
              ],
              [
                0.00382353,
                0,
                -0.005
              ],
              [
                0.00401961,
                0,
                -0.005
              ],
              [
                0.00421569,
                0,
                -0.005
              ],
              [
                0.00441176,
                0,
                -0.005
              ],
              [
                0.00460784,
                0,
                -0.005
              ],
              [
                0.00480392,
                0,
                -0.005
              ],
              [
                0.005,
                0,
                -0.005
              ],
              [
                -0.00106066,
                0.01,
                -0.00106066
              ],
              [
                -0.0010262,
                0.01,
                -0.00109512
              ],
              [
                -0.00099006,
                0.01,
                -0.00112789
              ],
              [
                -0.00095251,
                0.01,
                -0.00115876
              ],
              [
                -0.00091495,
                0.01,
                -0.00118963
              ],
              [
                -0.00087598,
                0.01,
                -0.0012186
              ],
              [
                -0.0008359,
                0.01,
                -0.0012455
              ],
              [
                -0.00079581,
                0.01,
                -0.0012724
              ],
              [
                -0.00075462,
                0.01,
                -0.00129724
              ],
              [
                -0.00071264,
                0.01,
                -0.0013199
              ],
              [
                -0.00067066,
                0.01,
                -0.00134257
              ],
              [
                -0.00062788,
                0.01,
                -0.00136307
              ],
              [
                -0.00058465,
                0.01,
                -0.00138137
              ],
              [
                -0.00054142,
                0.01,
                -0.00139967
              ],
              [
                -0.00049772,
                0.01,
                -0.00141577
              ],
              [
                -0.00045388,
                0.01,
                -0.00142968
              ],
              [
                -0.00041003,
                0.01,
                -0.0014436
              ],
              [
                -0.00036604,
                0.01,
                -0.00145535
              ],
              [
                -0.0003222,
                0.01,
                -0.00146499
              ],
              [
                -0.00027835,
                0.01,
                -0.00147463
              ],
              [
                -0.00023465,
                0.01,
                -0.00148218
              ],
              [
                -0.00019136,
                0.01,
                -0.00148774
              ],
              [
                -0.00014806,
                0.01,
                -0.00149331
              ],
              [
                -0.00010517,
                0.01,
                -0.00149691
              ],
              [
                -0.00006291,
                0.01,
                -0.00149868
              ],
              [
                -0.00002046,
                0.01,
                -0.00150044
              ],
              [
                0.00002046,
                0.01,
                -0.00150044
              ],
              [
                0.00006291,
                0.01,
                -0.00149868
              ],
              [
                0.00010517,
                0.01,
                -0.00149691
              ],
              [
                0.00014806,
                0.01,
                -0.00149331
              ],
              [
                0.00019136,
                0.01,
                -0.00148774
              ],
              [
                0.00023465,
                0.01,
                -0.00148218
              ],
              [
                0.00027835,
                0.01,
                -0.00147463
              ],
              [
                0.0003222,
                0.01,
                -0.00146499
              ],
              [
                0.00036604,
                0.01,
                -0.00145535
              ],
              [
                0.00041003,
                0.01,
                -0.0014436
              ],
              [
                0.00045388,
                0.01,
                -0.00142968
              ],
              [
                0.00049772,
                0.01,
                -0.00141577
              ],
              [
                0.00054142,
                0.01,
                -0.00139967
              ],
              [
                0.00058465,
                0.01,
                -0.00138137
              ],
              [
                0.00062788,
                0.01,
                -0.00136307
              ],
              [
                0.00067066,
                0.01,
                -0.00134257
              ],
              [
                0.00071264,
                0.01,
                -0.0013199
              ],
              [
                0.00075462,
                0.01,
                -0.00129724
              ],
              [
                0.00079581,
                0.01,
                -0.0012724
              ],
              [
                0.0008359,
                0.01,
                -0.0012455
              ],
              [
                0.00087598,
                0.01,
                -0.0012186
              ],
              [
                0.00091495,
                0.01,
                -0.00118963
              ],
              [
                0.00095251,
                0.01,
                -0.00115876
              ],
              [
                0.00099006,
                0.01,
                -0.00112789
              ],
              [
                0.0010262,
                0.01,
                -0.00109512
              ],
              [
                0.00106066,
                0.01,
                -0.00106066
              ],
              [
                -0.005,
                0.02,
                -0.005
              ],
              [
                -0.00480392,
                0.02,
                -0.005
              ],
              [
                -0.00460784,
                0.02,
                -0.005
              ],
              [
                -0.00441176,
                0.02,
                -0.005
              ],
              [
                -0.00421569,
                0.02,
                -0.005
              ],
              [
                -0.00401961,
                0.02,
                -0.005
              ],
              [
                -0.00382353,
                0.02,
                -0.005
              ],
              [
                -0.00362745,
                0.02,
                -0.005
              ],
              [
                -0.00343137,
                0.02,
                -0.005
              ],
              [
                -0.00323529,
                0.02,
                -0.005
              ],
              [
                -0.00303922,
                0.02,
                -0.005
              ],
              [
                -0.00284314,
                0.02,
                -0.005
              ],
              [
                -0.00264706,
                0.02,
                -0.005
              ],
              [
                -0.00245098,
                0.02,
                -0.005
              ],
              [
                -0.0022549,
                0.02,
                -0.005
              ],
              [
                -0.00205882,
                0.02,
                -0.005
              ],
              [
                -0.00186275,
                0.02,
                -0.005
              ],
              [
                -0.00166667,
                0.02,
                -0.005
              ],
              [
                -0.00147059,
                0.02,
                -0.005
              ],
              [
                -0.00127451,
                0.02,
                -0.005
              ],
              [
                -0.00107843,
                0.02,
                -0.005
              ],
              [
                -0.00088235,
                0.02,
                -0.005
              ],
              [
                -0.00068627,
                0.02,
                -0.005
              ],
              [
                -0.0004902,
                0.02,
                -0.005
              ],
              [
                -0.00029412,
                0.02,
                -0.005
              ],
              [
                -0.00009804,
                0.02,
                -0.005
              ],
              [
                0.00009804,
                0.02,
                -0.005
              ],
              [
                0.00029412,
                0.02,
                -0.005
              ],
              [
                0.0004902,
                0.02,
                -0.005
              ],
              [
                0.00068627,
                0.02,
                -0.005
              ],
              [
                0.00088235,
                0.02,
                -0.005
              ],
              [
                0.00107843,
                0.02,
                -0.005
              ],
              [
                0.00127451,
                0.02,
                -0.005
              ],
              [
                0.00147059,
                0.02,
                -0.005
              ],
              [
                0.00166667,
                0.02,
                -0.005
              ],
              [
                0.00186275,
                0.02,
                -0.005
              ],
              [
                0.00205882,
                0.02,
                -0.005
              ],
              [
                0.0022549,
                0.02,
                -0.005
              ],
              [
                0.00245098,
                0.02,
                -0.005
              ],
              [
                0.00264706,
                0.02,
                -0.005
              ],
              [
                0.00284314,
                0.02,
                -0.005
              ],
              [
                0.00303922,
                0.02,
                -0.005
              ],
              [
                0.00323529,
                0.02,
                -0.005
              ],
              [
                0.00343137,
                0.02,
                -0.005
              ],
              [
                0.00362745,
                0.02,
                -0.005
              ],
              [
                0.00382353,
                0.02,
                -0.005
              ],
              [
                0.00401961,
                0.02,
                -0.005
              ],
              [
                0.00421569,
                0.02,
                -0.005
              ],
              [
                0.00441176,
                0.02,
                -0.005
              ],
              [
                0.00460784,
                0.02,
                -0.005
              ],
              [
                0.00480392,
                0.02,
                -0.005
              ],
              [
                0.005,
                0.02,
                -0.005
              ]
            ],
            "numControlPoints": [
              3,
              52
            ],
            "numKnots": [
              5,
              56
            ],
            "knotVector": [
              0,
              0,
              0.5,
              1,
              1,
              0,
              0,
              0,
              0,
              0.05882353,
              0.05882353,
              0.05882353,
              0.11764706,
              0.11764706,
              0.11764706,
              0.17647059,
              0.17647059,
              0.17647059,
              0.23529412,
              0.23529412,
              0.23529412,
              0.29411765,
              0.29411765,
              0.29411765,
              0.35294118,
              0.35294118,
              0.35294118,
              0.41176471,
              0.41176471,
              0.41176471,
              0.47058824,
              0.47058824,
              0.47058824,
              0.52941176,
              0.52941176,
              0.52941176,
              0.58823529,
              0.58823529,
              0.58823529,
              0.64705882,
              0.64705882,
              0.64705882,
              0.70588235,
              0.70588235,
              0.70588235,
              0.76470588,
              0.76470588,
              0.76470588,
              0.82352941,
              0.82352941,
              0.82352941,
              0.88235294,
              0.88235294,
              0.88235294,
              0.94117647,
              0.94117647,
              0.94117647,
              1,
              1,
              1,
              1
            ],
            "order": [
              2,
              4
            ]
          }
        },
        {
          "type": "nurbs",
          "nurbs": {
            "controlPoints": [
              [
                0.005,
                0,
                -0.005
              ],
              [
                0.005,
                0,
                -0.00480392
              ],
              [
                0.005,
                0,
                -0.00460784
              ],
              [
                0.005,
                0,
                -0.00441176
              ],
              [
                0.005,
                0,
                -0.00421569
              ],
              [
                0.005,
                0,
                -0.00401961
              ],
              [
                0.005,
                0,
                -0.00382353
              ],
              [
                0.005,
                0,
                -0.00362745
              ],
              [
                0.005,
                0,
                -0.00343137
              ],
              [
                0.005,
                0,
                -0.00323529
              ],
              [
                0.005,
                0,
                -0.00303922
              ],
              [
                0.005,
                0,
                -0.00284314
              ],
              [
                0.005,
                0,
                -0.00264706
              ],
              [
                0.005,
                0,
                -0.00245098
              ],
              [
                0.005,
                0,
                -0.0022549
              ],
              [
                0.005,
                0,
                -0.00205882
              ],
              [
                0.005,
                0,
                -0.00186275
              ],
              [
                0.005,
                0,
                -0.00166667
              ],
              [
                0.005,
                0,
                -0.00147059
              ],
              [
                0.005,
                0,
                -0.00127451
              ],
              [
                0.005,
                0,
                -0.00107843
              ],
              [
                0.005,
                0,
                -0.00088235
              ],
              [
                0.005,
                0,
                -0.00068627
              ],
              [
                0.005,
                0,
                -0.0004902
              ],
              [
                0.005,
                0,
                -0.00029412
              ],
              [
                0.005,
                0,
                -0.00009804
              ],
              [
                0.005,
                0,
                0.00009804
              ],
              [
                0.005,
                0,
                0.00029412
              ],
              [
                0.005,
                0,
                0.0004902
              ],
              [
                0.005,
                0,
                0.00068627
              ],
              [
                0.005,
                0,
                0.00088235
              ],
              [
                0.005,
                0,
                0.00107843
              ],
              [
                0.005,
                0,
                0.00127451
              ],
              [
                0.005,
                0,
                0.00147059
              ],
              [
                0.005,
                0,
                0.00166667
              ],
              [
                0.005,
                0,
                0.00186275
              ],
              [
                0.005,
                0,
                0.00205882
              ],
              [
                0.005,
                0,
                0.0022549
              ],
              [
                0.005,
                0,
                0.00245098
              ],
              [
                0.005,
                0,
                0.00264706
              ],
              [
                0.005,
                0,
                0.00284314
              ],
              [
                0.005,
                0,
                0.00303922
              ],
              [
                0.005,
                0,
                0.00323529
              ],
              [
                0.005,
                0,
                0.00343137
              ],
              [
                0.005,
                0,
                0.00362745
              ],
              [
                0.005,
                0,
                0.00382353
              ],
              [
                0.005,
                0,
                0.00401961
              ],
              [
                0.005,
                0,
                0.00421569
              ],
              [
                0.005,
                0,
                0.00441176
              ],
              [
                0.005,
                0,
                0.00460784
              ],
              [
                0.005,
                0,
                0.00480392
              ],
              [
                0.005,
                0,
                0.005
              ],
              [
                0.00106066,
                0.01,
                -0.00106066
              ],
              [
                0.00109512,
                0.01,
                -0.0010262
              ],
              [
                0.00112789,
                0.01,
                -0.00099006
              ],
              [
                0.00115876,
                0.01,
                -0.00095251
              ],
              [
                0.00118963,
                0.01,
                -0.00091495
              ],
              [
                0.0012186,
                0.01,
                -0.00087598
              ],
              [
                0.0012455,
                0.01,
                -0.0008359
              ],
              [
                0.0012724,
                0.01,
                -0.00079581
              ],
              [
                0.00129724,
                0.01,
                -0.00075462
              ],
              [
                0.0013199,
                0.01,
                -0.00071264
              ],
              [
                0.00134257,
                0.01,
                -0.00067066
              ],
              [
                0.00136307,
                0.01,
                -0.00062788
              ],
              [
                0.00138137,
                0.01,
                -0.00058465
              ],
              [
                0.00139967,
                0.01,
                -0.00054142
              ],
              [
                0.00141577,
                0.01,
                -0.00049772
              ],
              [
                0.00142968,
                0.01,
                -0.00045388
              ],
              [
                0.0014436,
                0.01,
                -0.00041003
              ],
              [
                0.00145535,
                0.01,
                -0.00036604
              ],
              [
                0.00146499,
                0.01,
                -0.0003222
              ],
              [
                0.00147463,
                0.01,
                -0.00027835
              ],
              [
                0.00148218,
                0.01,
                -0.00023465
              ],
              [
                0.00148774,
                0.01,
                -0.00019136
              ],
              [
                0.00149331,
                0.01,
                -0.00014806
              ],
              [
                0.00149691,
                0.01,
                -0.00010517
              ],
              [
                0.00149868,
                0.01,
                -0.00006291
              ],
              [
                0.00150044,
                0.01,
                -0.00002046
              ],
              [
                0.00150044,
                0.01,
                0.00002046
              ],
              [
                0.00149868,
                0.01,
                0.00006291
              ],
              [
                0.00149691,
                0.01,
                0.00010517
              ],
              [
                0.00149331,
                0.01,
                0.00014806
              ],
              [
                0.00148774,
                0.01,
                0.00019136
              ],
              [
                0.00148218,
                0.01,
                0.00023465
              ],
              [
                0.00147463,
                0.01,
                0.00027835
              ],
              [
                0.00146499,
                0.01,
                0.0003222
              ],
              [
                0.00145535,
                0.01,
                0.00036604
              ],
              [
                0.0014436,
                0.01,
                0.00041003
              ],
              [
                0.00142968,
                0.01,
                0.00045388
              ],
              [
                0.00141577,
                0.01,
                0.00049772
              ],
              [
                0.00139967,
                0.01,
                0.00054142
              ],
              [
                0.00138137,
                0.01,
                0.00058465
              ],
              [
                0.00136307,
                0.01,
                0.00062788
              ],
              [
                0.00134257,
                0.01,
                0.00067066
              ],
              [
                0.0013199,
                0.01,
                0.00071264
              ],
              [
                0.00129724,
                0.01,
                0.00075462
              ],
              [
                0.0012724,
                0.01,
                0.00079581
              ],
              [
                0.0012455,
                0.01,
                0.0008359
              ],
              [
                0.0012186,
                0.01,
                0.00087598
              ],
              [
                0.00118963,
                0.01,
                0.00091495
              ],
              [
                0.00115876,
                0.01,
                0.00095251
              ],
              [
                0.00112789,
                0.01,
                0.00099006
              ],
              [
                0.00109512,
                0.01,
                0.0010262
              ],
              [
                0.00106066,
                0.01,
                0.00106066
              ],
              [
                0.005,
                0.02,
                -0.005
              ],
              [
                0.005,
                0.02,
                -0.00480392
              ],
              [
                0.005,
                0.02,
                -0.00460784
              ],
              [
                0.005,
                0.02,
                -0.00441176
              ],
              [
                0.005,
                0.02,
                -0.00421569
              ],
              [
                0.005,
                0.02,
                -0.00401961
              ],
              [
                0.005,
                0.02,
                -0.00382353
              ],
              [
                0.005,
                0.02,
                -0.00362745
              ],
              [
                0.005,
                0.02,
                -0.00343137
              ],
              [
                0.005,
                0.02,
                -0.00323529
              ],
              [
                0.005,
                0.02,
                -0.00303922
              ],
              [
                0.005,
                0.02,
                -0.00284314
              ],
              [
                0.005,
                0.02,
                -0.00264706
              ],
              [
                0.005,
                0.02,
                -0.00245098
              ],
              [
                0.005,
                0.02,
                -0.0022549
              ],
              [
                0.005,
                0.02,
                -0.00205882
              ],
              [
                0.005,
                0.02,
                -0.00186275
              ],
              [
                0.005,
                0.02,
                -0.00166667
              ],
              [
                0.005,
                0.02,
                -0.00147059
              ],
              [
                0.005,
                0.02,
                -0.00127451
              ],
              [
                0.005,
                0.02,
                -0.00107843
              ],
              [
                0.005,
                0.02,
                -0.00088235
              ],
              [
                0.005,
                0.02,
                -0.00068627
              ],
              [
                0.005,
                0.02,
                -0.0004902
              ],
              [
                0.005,
                0.02,
                -0.00029412
              ],
              [
                0.005,
                0.02,
                -0.00009804
              ],
              [
                0.005,
                0.02,
                0.00009804
              ],
              [
                0.005,
                0.02,
                0.00029412
              ],
              [
                0.005,
                0.02,
                0.0004902
              ],
              [
                0.005,
                0.02,
                0.00068627
              ],
              [
                0.005,
                0.02,
                0.00088235
              ],
              [
                0.005,
                0.02,
                0.00107843
              ],
              [
                0.005,
                0.02,
                0.00127451
              ],
              [
                0.005,
                0.02,
                0.00147059
              ],
              [
                0.005,
                0.02,
                0.00166667
              ],
              [
                0.005,
                0.02,
                0.00186275
              ],
              [
                0.005,
                0.02,
                0.00205882
              ],
              [
                0.005,
                0.02,
                0.0022549
              ],
              [
                0.005,
                0.02,
                0.00245098
              ],
              [
                0.005,
                0.02,
                0.00264706
              ],
              [
                0.005,
                0.02,
                0.00284314
              ],
              [
                0.005,
                0.02,
                0.00303922
              ],
              [
                0.005,
                0.02,
                0.00323529
              ],
              [
                0.005,
                0.02,
                0.00343137
              ],
              [
                0.005,
                0.02,
                0.00362745
              ],
              [
                0.005,
                0.02,
                0.00382353
              ],
              [
                0.005,
                0.02,
                0.00401961
              ],
              [
                0.005,
                0.02,
                0.00421569
              ],
              [
                0.005,
                0.02,
                0.00441176
              ],
              [
                0.005,
                0.02,
                0.00460784
              ],
              [
                0.005,
                0.02,
                0.00480392
              ],
              [
                0.005,
                0.02,
                0.005
              ]
            ],
            "numControlPoints": [
              3,
              52
            ],
            "numKnots": [
              5,
              56
            ],
            "knotVector": [
              0,
              0,
              0.5,
              1,
              1,
              0,
              0,
              0,
              0,
              0.05882353,
              0.05882353,
              0.05882353,
              0.11764706,
              0.11764706,
              0.11764706,
              0.17647059,
              0.17647059,
              0.17647059,
              0.23529412,
              0.23529412,
              0.23529412,
              0.29411765,
              0.29411765,
              0.29411765,
              0.35294118,
              0.35294118,
              0.35294118,
              0.41176471,
              0.41176471,
              0.41176471,
              0.47058824,
              0.47058824,
              0.47058824,
              0.52941176,
              0.52941176,
              0.52941176,
              0.58823529,
              0.58823529,
              0.58823529,
              0.64705882,
              0.64705882,
              0.64705882,
              0.70588235,
              0.70588235,
              0.70588235,
              0.76470588,
              0.76470588,
              0.76470588,
              0.82352941,
              0.82352941,
              0.82352941,
              0.88235294,
              0.88235294,
              0.88235294,
              0.94117647,
              0.94117647,
              0.94117647,
              1,
              1,
              1,
              1
            ],
            "order": [
              2,
              4
            ]
          }
        },
        {
          "type": "plane",
          "plane": {
            "xAxis": [
              1,
              0,
              0
            ],
            "yAxis": [
              0,
              0,
              -1
            ],
            "origin": [
              0,
              0,
              -0
            ]
          }
        },
        {
          "type": "plane",
          "plane": {
            "xAxis": [
              1,
              0,
              0
            ],
            "yAxis": [
              0,
              0,
              -1
            ],
            "origin": [
              0,
              0.02,
              -0
            ]
          }
        }
      ],
      "curves3D": [
        {
          "type": "nurbs",
          "nurbs": {
            "controlPoints": [
              [
                0.005,
                0.02,
                0.005
              ],
              [
                0.00106066,
                0.01,
                0.00106066
              ],
              [
                0.005,
                0,
                0.005
              ]
            ],
            "order": 2,
            "knotVector": [
              -1,
              -1,
              -0.5,
              -0,
              -0
            ]
          }
        },
        {
          "type": "line",
          "line": {
            "origin": [
              0.005,
              0.02,
              0.005
            ],
            "direction": [
              -1,
              0,
              0
            ]
          }
        },
        {
          "type": "nurbs",
          "nurbs": {
            "controlPoints": [
              [
                -0.005,
                0.02,
                0.005
              ],
              [
                -0.00106066,
                0.01,
                0.00106066
              ],
              [
                -0.005,
                0,
                0.005
              ]
            ],
            "order": 2,
            "knotVector": [
              -1,
              -1,
              -0.5,
              -0,
              -0
            ]
          }
        },
        {
          "type": "line",
          "line": {
            "origin": [
              -0.005,
              0,
              0.005
            ],
            "direction": [
              1,
              0,
              -0
            ]
          }
        },
        {
          "type": "line",
          "line": {
            "origin": [
              -0.005,
              0.02,
              0.005
            ],
            "direction": [
              0,
              0,
              -1
            ]
          }
        },
        {
          "type": "nurbs",
          "nurbs": {
            "controlPoints": [
              [
                -0.005,
                0.02,
                -0.005
              ],
              [
                -0.00106066,
                0.01,
                -0.00106066
              ],
              [
                -0.005,
                0,
                -0.005
              ]
            ],
            "order": 2,
            "knotVector": [
              -1,
              -1,
              -0.5,
              -0,
              -0
            ]
          }
        },
        {
          "type": "line",
          "line": {
            "origin": [
              -0.005,
              0,
              -0.005
            ],
            "direction": [
              0,
              0,
              1
            ]
          }
        },
        {
          "type": "line",
          "line": {
            "origin": [
              -0.005,
              0.02,
              -0.005
            ],
            "direction": [
              1,
              0,
              -0
            ]
          }
        },
        {
          "type": "nurbs",
          "nurbs": {
            "controlPoints": [
              [
                0.005,
                0.02,
                -0.005
              ],
              [
                0.00106066,
                0.01,
                -0.00106066
              ],
              [
                0.005,
                0,
                -0.005
              ]
            ],
            "order": 2,
            "knotVector": [
              -1,
              -1,
              -0.5,
              -0,
              -0
            ]
          }
        },
        {
          "type": "line",
          "line": {
            "origin": [
              0.005,
              0,
              -0.005
            ],
            "direction": [
              -1,
              0,
              0
            ]
          }
        },
        {
          "type": "line",
          "line": {
            "origin": [
              0.005,
              0.02,
              -0.005
            ],
            "direction": [
              0,
              0,
              1
            ]
          }
        },
        {
          "type": "line",
          "line": {
            "origin": [
              0.005,
              0,
              0.005
            ],
            "direction": [
              0,
              0,
              -1
            ]
          }
        }
      ]
    }
  },
  "extensionsUsed": [
    "KITTYCAD_boundary_representation"
  ],
  "materials": [
    {
      "alphaMode": "OPAQUE",
      "doubleSided": false,
      "pbrMetallicRoughness": {
        "baseColorFactor": [
          0.9,
          0.9,
          0.9,
          1
        ],
        "metallicFactor": 1,
        "roughnessFactor": 1
      },
      "emissiveFactor": [
        0,
        0,
        0
      ]
    }
  ],
  "meshes": [
    {
      "primitives": [
        {
          "attributes": {
            "POSITION": 0,
            "NORMAL": 1
          },
          "material": 0
        },
        {
          "attributes": {
            "POSITION": 2,
            "NORMAL": 3
          },
          "material": 0
        },
        {
          "attributes": {
            "POSITION": 4,
            "NORMAL": 5
          },
          "material": 0
        },
        {
          "attributes": {
            "POSITION": 6,
            "NORMAL": 7
          },
          "material": 0
        },
        {
          "attributes": {
            "POSITION": 8,
            "NORMAL": 9
          },
          "material": 0
        },
        {
          "attributes": {
            "POSITION": 10,
            "NORMAL": 11
          },
          "material": 0
        }
      ]
    }
  ],
  "nodes": [
    {
      "children": [
        1
      ]
    },
    {
      "children": [
        2
      ]
    },
    {
      "extensions": {
        "KITTYCAD_boundary_representation": {
          "solid": 0
        }
      },
      "mesh": 0
    }
  ],
  "scenes": [
    {
      "nodes": [
        0
      ]
    }
  ]
}