{
  "accessors": [
    {
      "bufferView": 0,
      "byteOffset": 0,
      "count": 54,
      "componentType": 5126,
      "type": "VEC3",
      "min": [
        -0.0005000000237487257,
        0,
        -0.0005000000237487257
      ],
      "max": [
        0.0005000000237487257,
        0.0010000000474974513,
        -0.0005000000237487257
      ]
    },
    {
      "bufferView": 0,
      "byteOffset": 12,
      "count": 54,
      "componentType": 5126,
      "type": "VEC3"
    },
    {
      "bufferView": 1,
      "byteOffset": 0,
      "count": 6,
      "componentType": 5126,
      "type": "VEC3",
      "min": [
        -0.0005000000237487257,
        0,
        -0.0005000000237487257
      ],
      "max": [
        -0.0005000000237487257,
        0.0010000000474974513,
        0.0005000000237487257
      ]
    },
    {
      "bufferView": 1,
      "byteOffset": 12,
      "count": 6,
      "componentType": 5126,
      "type": "VEC3"
    },
    {
      "bufferView": 2,
      "byteOffset": 0,
      "count": 54,
      "componentType": 5126,
      "type": "VEC3",
      "min": [
        -0.0005000000237487257,
        0,
        0.0005000000237487257
      ],
      "max": [
        0.0005000000237487257,
        0.0010000000474974513,
        0.0005000000237487257
      ]
    },
    {
      "bufferView": 2,
      "byteOffset": 12,
      "count": 54,
      "componentType": 5126,
      "type": "VEC3"
    },
    {
      "bufferView": 3,
      "byteOffset": 0,
      "count": 6,
      "componentType": 5126,
      "type": "VEC3",
      "min": [
        0.0005000000237487257,
        0.00019999999494757503,
        -0.0005000000237487257
      ],
      "max": [
        0.0005000000237487257,
        0.0010000000474974513,
        0.0005000000237487257
      ]
    },
    {
      "bufferView": 3,
      "byteOffset": 12,
      "count": 6,
      "componentType": 5126,
      "type": "VEC3"
    },
    {
      "bufferView": 4,
      "byteOffset": 0,
      "count": 6,
      "componentType": 5126,
      "type": "VEC3",
      "min": [
        -0.0005000000237487257,
        0,
        -0.0005000000237487257
      ],
      "max": [
        0.0003000000142492354,
        0,
        0.0005000000237487257
      ]
    },
    {
      "bufferView": 4,
      "byteOffset": 12,
      "count": 6,
      "componentType": 5126,
      "type": "VEC3"
    },
    {
      "bufferView": 5,
      "byteOffset": 0,
      "count": 6,
      "componentType": 5126,
      "type": "VEC3",
      "min": [
        -0.0005000000237487257,
        0.0010000000474974513,
        -0.0005000000237487257
      ],
      "max": [
        0.0005000000237487257,
        0.0010000000474974513,
        0.0005000000237487257
      ]
    },
    {
      "bufferView": 5,
      "byteOffset": 12,
      "count": 6,
      "componentType": 5126,
      "type": "VEC3"
    },
    {
      "bufferView": 6,
      "byteOffset": 0,
      "count": 96,
      "componentType": 5126,
      "type": "VEC3",
      "min": [
        0.0003000000142492354,
        0,
        -0.0005000000237487257
      ],
      "max": [
        0.0005000000237487257,
        0.00019999999494757503,
        0.0005000000237487257
      ]
    },
    {
      "bufferView": 6,
      "byteOffset": 12,
      "count": 96,
      "componentType": 5126,
      "type": "VEC3"
    }
  ],
  "asset": {
    "generator": "zoo.dev",
    "version": "2.0"
  },
  "buffers": [
    {
      "byteLength": 5472,
      "uri": "data:application/octet-stream;base64,"
    }
  ],
  "bufferViews": [
    {
      "buffer": 0,
      "byteLength": 1296,
      "byteOffset": 0,
      "byteStride": 24,
      "target": 34962
    },
    {
      "buffer": 0,
      "byteLength": 144,
      "byteOffset": 1296,
      "byteStride": 24,
      "target": 34962
    },
    {
      "buffer": 0,
      "byteLength": 1296,
      "byteOffset": 1440,
      "byteStride": 24,
      "target": 34962
    },
    {
      "buffer": 0,
      "byteLength": 144,
      "byteOffset": 2736,
      "byteStride": 24,
      "target": 34962
    },
    {
      "buffer": 0,
      "byteLength": 144,
      "byteOffset": 2880,
      "byteStride": 24,
      "target": 34962
    },
    {
      "buffer": 0,
      "byteLength": 144,
      "byteOffset": 3024,
      "byteStride": 24,
      "target": 34962
    },
    {
      "buffer": 0,
      "byteLength": 2304,
      "byteOffset": 3168,
      "byteStride": 24,
      "target": 34962
    }
  ],
  "scene": 0,
  "extensions": {
    "KITTYCAD_boundary_representation": {
      "solids": [
        {
          "shells": [
            [
              0,
              1
            ]
          ],
          "mesh": 0,
          "extras": {
            "KITTYCAD": {
              "material": 0
            }
          }
        }
      ],
      "shells": [
        {
          "faces": [
            [
              0,
              1
            ],
            [
              1,
              1
            ],
            [
              2,
              1
            ],
            [
              3,
              1
            ],
            [
              4,
              1
            ],
            [
              5,
              1
            ],
            [
              6,
              1
            ]
          ]
        }
      ],
      "faces": [
        {
          "surface": [
            0,
            1
          ],
          "loops": [
            [
              0,
              1
            ]
          ]
        },
        {
          "surface": [
            1,
            1
          ],
          "loops": [
            [
              1,
              1
            ]
          ]
        },
        {
          "surface": [
            2,
            1
          ],
          "loops": [
            [
              2,
              1
            ]
          ]
        },
        {
          "surface": [
            3,
            1
          ],
          "loops": [
            [
              3,
              1
            ]
          ]
        },
        {
          "surface": [
            4,
            -1
          ],
          "loops": [
            [
              4,
              1
            ]
          ]
        },
        {
          "surface": [
            5,
            1
          ],
          "loops": [
            [
              5,
              1
            ]
          ]
        },
        {
          "surface": [
            6,
            1
          ],
          "loops": [
            [
              6,
              1
            ]
          ]
        }
      ],
      "loops": [
        {
          "edges": [
            [
              0,
              1
            ],
            [
              1,
              1
            ],
            [
              2,
              1
            ],
            [
              3,
              -1
            ],
            [
              4,
              -1
            ]
          ]
        },
        {
          "edges": [
            [
              5,
              1
            ],
            [
              6,
              1
            ],
            [
              7,
              -1
            ],
            [
              2,
              -1
            ]
          ]
        },
        {
          "edges": [
            [
              8,
              1
            ],
            [
              9,
              1
            ],
            [
              10,
              -1
            ],
            [
              11,
              -1
            ],
            [
              6,
              -1
            ]
          ]
        },
        {
          "edges": [
            [
              12,
              1
            ],
            [
              4,
              1
            ],
            [
              13,
              -1
            ],
            [
              10,
              1
            ]
          ]
        },
        {
          "edges": [
            [
              14,
              1
            ],
            [
              8,
              -1
            ],
            [
              5,
              -1
            ],
            [
              1,
              -1
            ]
          ]
        },
        {
          "edges": [
            [
              3,
              1
            ],
            [
              7,
              1
            ],
            [
              11,
              1
            ],
            [
              13,
              1
            ]
          ]
        },
        {
          "edges": [
            [
              9,
              -1
            ],
            [
              14,
              -1
            ],
            [
              0,
              -1
            ],
            [
              12,
              -1
            ]
          ]
        }
      ],
      "edges": [
        {
          "curve": [
            0,
            1
          ],
          "start": 0,
          "end": 1,
          "t": [
            0,
            1.5707963267948966
          ]
        },
        {
          "curve": [
            1,
            1
          ],
          "start": 1,
          "end": 2,
          "t": [
            0,
            0.0007999999999999999
          ]
        },
        {
          "curve": [
            2,
            1
          ],
          "start": 2,
          "end": 3,
          "t": [
            0,
            0.001
          ]
        },
        {
          "curve": [
            3,
            1
          ],
          "start": 4,
          "end": 3,
          "t": [
            0,
            0.001
          ]
        },
        {
          "curve": [
            4,
            1
          ],
          "start": 0,
          "end": 4,
          "t": [
            0,
            0.0008
          ]
        },
        {
          "curve": [
            5,
            1
          ],
          "start": 2,
          "end": 5,
          "t": [
            0,
            0.001
          ]
        },
        {
          "curve": [
            6,
            1
          ],
          "start": 5,
          "end": 6,
          "t": [
            0,
            0.001
          ]
        },
        {
          "curve": [
            7,
            1
          ],
          "start": 3,
          "end": 6,
          "t": [
            0,
            0.001
          ]
        },
        {
          "curve": [
            8,
            1
          ],
          "start": 5,
          "end": 7,
          "t": [
            0,
            0.0007999999999999999
          ]
        },
        {
          "curve": [
            9,
            1
          ],
          "start": 7,
          "end": 8,
          "t": [
            0,
            1.5707963267948966
          ]
        },
        {
          "curve": [
            10,
            1
          ],
          "start": 9,
          "end": 8,
          "t": [
            0,
            0.0008
          ]
        },
        {
          "curve": [
            11,
            1
          ],
          "start": 6,
          "end": 9,
          "t": [
            0,
            0.001
          ]
        },
        {
          "curve": [
            12,
            1
          ],
          "start": 8,
          "end": 0,
          "t": [
            0,
            0.001
          ]
        },
        {
          "curve": [
            13,
            1
          ],
          "start": 9,
          "end": 4,
          "t": [
            0,
            0.001
          ]
        },
        {
          "curve": [
            14,
            1
          ],
          "start": 1,
          "end": 7,
          "t": [
            0,
            0.001
          ]
        }
      ],
      "vertices": [
        [
          0.0005,
          0.0002,
          -0.0005
        ],
        [
          0.0003,
          0,
          -0.0005
        ],
        [
          -0.0005,
          0,
          -0.0005
        ],
        [
          -0.0005,
          0.001,
          -0.0005
        ],
        [
          0.0005,
          0.001,
          -0.0005
        ],
        [
          -0.0005,
          0,
          0.0005
        ],
        [
          -0.0005,
          0.001,
          0.0005
        ],
        [
          0.0003,
          0,
          0.0005
        ],
        [
          0.0005,
          0.0002,
          0.0005
        ],
        [
          0.0005,
          0.001,
          0.0005
        ]
      ],
      "surfaces": [
        {
          "type": "plane",
          "plane": {
            "xAxis": [
              1,
              0,
              0
            ],
            "yAxis": [
              0,
              -1,
              0
            ],
            "origin": [
              0,
              0.0005,
              -0.0005
            ]
          }
        },
        {
          "type": "plane",
          "plane": {
            "xAxis": [
              0,
              1,
              0
            ],
            "yAxis": [
              0,
              0,
              -1
            ],
            "origin": [
              -0.0005,
              0.0005,
              -0
            ]
          }
        },
        {
          "type": "plane",
          "plane": {
            "xAxis": [
              1,
              0,
              -0
            ],
            "yAxis": [
              -0,
              1,
              0
            ],
            "origin": [
              0,
              0.0005,
              0.0005
            ]
          }
        },
        {
          "type": "plane",
          "plane": {
            "xAxis": [
              -0,
              1,
              0
            ],
            "yAxis": [
              0,
              -0,
              1
            ],
            "origin": [
              0.0005,
              0.0005,
              -0
            ]
          }
        },
        {
          "type": "plane",
          "plane": {
            "xAxis": [
              1,
              0,
              0
            ],
            "yAxis": [
              0,
              0,
              -1
            ],
            "origin": [
              0,
              0,
              -0
            ]
          }
        },
        {
          "type": "plane",
          "plane": {
            "xAxis": [
              1,
              0,
              0
            ],
            "yAxis": [
              0,
              0,
              -1
            ],
            "origin": [
              0,
              0.001,
              -0
            ]
          }
        },
        {
          "type": "cylinder",
          "cylinder": {
            "xAxis": [
              1,
              -0,
              0
            ],
            "yAxis": [
              0,
              -1,
              -0
            ],
            "origin": [
              0.0003,
              0.0002,
              -0
            ],
            "radius": 0.0002
          }
        }
      ],
      "curves3D": [
        {
          "type": "circle",
          "circle": {
            "xAxis": [
              1,
              0,
              0
            ],
            "yAxis": [
              0,
              -1,
              0
            ],
            "origin": [
              0.0003,
              0.0002,
              -0.0005
            ],
            "radius": 0.0002
          }
        },
        {
          "type": "line",
          "line": {
            "origin": [
              0.0003,
              0,
              -0.0005
            ],
            "direction": [
              -1,
              0,
              0
            ]
          }
        },
        {
          "type": "line",
          "line": {
            "origin": [
              -0.0005,
              0,
              -0.0005
            ],
            "direction": [
              0,
              1,
              0
            ]
          }
        },
        {
          "type": "line",
          "line": {
            "origin": [
              0.0005,
              0.001,
              -0.0005
            ],
            "direction": [
              -1,
              0,
              0
            ]
          }
        },
        {
          "type": "line",
          "line": {
            "origin": [
              0.0005,
              0.0002,
              -0.0005
            ],
            "direction": [
              0,
              1,
              0
            ]
          }
        },
        {
          "type": "line",
          "line": {
            "origin": [
              -0.0005,
              0,
              -0.0005
            ],
            "direction": [
              0,
              0,
              1
            ]
          }
        },
        {
          "type": "line",
          "line": {
            "origin": [
              -0.0005,
              0,
              0.0005
            ],
            "direction": [
              0,
              1,
              0
            ]
          }
        },
        {
          "type": "line",
          "line": {
            "origin": [
              -0.0005,
              0.001,
              -0.0005
            ],
            "direction": [
              0,
              0,
              1
            ]
          }
        },
        {
          "type": "line",
          "line": {
            "origin": [
              -0.0005,
              0,
              0.0005
            ],
            "direction": [
              1,
              0,
              -0
            ]
          }
        },
        {
          "type": "circle",
          "circle": {
            "xAxis": [
              0,
              -1,
              0
            ],
            "yAxis": [
              1,
              0,
              -0
            ],
            "origin": [
              0.0003,
              0.0002,
              0.0005
            ],
            "radius": 0.0002
          }
        },
        {
          "type": "line",
          "line": {
            "origin": [
              0.0005,
              0.001,
              0.0005
            ],
            "direction": [
              0,
              -1,
              0
            ]
          }
        },
        {
          "type": "line",
          "line": {
            "origin": [
              -0.0005,
              0.001,
              0.0005
            ],
            "direction": [
              1,
              0,
              -0
            ]
          }
        },
        {
          "type": "line",
          "line": {
            "origin": [
              0.0005,
              0.0002,
              0.0005
            ],
            "direction": [
              0,
              0,
              -1
            ]
          }
        },
        {
          "type": "line",
          "line": {
            "origin": [
              0.0005,
              0.001,
              0.0005
            ],
            "direction": [
              0,
              0,
              -1
            ]
          }
        },
        {
          "type": "line",
          "line": {
            "origin": [
              0.0003,
              0,
              -0.0005
            ],
            "direction": [
              0,
              0,
              1
            ]
          }
        }
      ]
    }
  },
  "extensionsUsed": [
    "KITTYCAD_boundary_representation"
  ],
  "materials": [
    {
      "alphaMode": "OPAQUE",
      "doubleSided": false,
      "pbrMetallicRoughness": {
        "baseColorFactor": [
          0.9,
          0.9,
          0.9,
          1
        ],
        "metallicFactor": 1,
        "roughnessFactor": 1
      },
      "emissiveFactor": [
        0,
        0,
        0
      ]
    }
  ],
  "meshes": [
    {
      "primitives": [
        {
          "attributes": {
            "POSITION": 0,
            "NORMAL": 1
          },
          "material": 0
        },
        {
          "attributes": {
            "POSITION": 2,
            "NORMAL": 3
          },
          "material": 0
        },
        {
          "attributes": {
            "POSITION": 4,
            "NORMAL": 5
          },
          "material": 0
        },
        {
          "attributes": {
            "POSITION": 6,
            "NORMAL": 7
          },
          "material": 0
        },
        {
          "attributes": {
            "POSITION": 8,
            "NORMAL": 9
          },
          "material": 0
        },
        {
          "attributes": {
            "POSITION": 10,
            "NORMAL": 11
          },
          "material": 0
        },
        {
          "attributes": {
            "POSITION": 12,
            "NORMAL": 13
          },
          "material": 0
        }
      ]
    }
  ],
  "nodes": [
    {
      "children": [
        1
      ]
    },
    {
      "children": [
        2
      ]
    },
    {
      "extensions": {
        "KITTYCAD_boundary_representation": {
          "solid": 0
        }
      },
      "mesh": 0
    }
  ],
  "scenes": [
    {
      "nodes": [
        0
      ]
    }
  ]
}