{
  "accessors": [
    {
      "bufferView": 0,
      "byteOffset": 0,
      "count": 96,
      "componentType": 5126,
      "type": "VEC3",
      "min": [
        -0.0008944271830841899,
        -0.000912870920728892,
        -0.006447209976613522
      ],
      "max": [
        0.001729359501041472,
        0.0008164999890141189,
        -0.0037922996561974287
      ]
    },
    {
      "bufferView": 0,
      "byteOffset": 12,
      "count": 96,
      "componentType": 5126,
      "type": "VEC3"
    },
    {
      "bufferView": 1,
      "byteOffset": 0,
      "count": 90,
      "componentType": 5126,
      "type": "VEC3",
      "min": [
        -0.000912859453819692,
        -0.000912870920728892,
        -0.00657470989972353
      ],
      "max": [
        0.000912859512027353,
        0.000912870920728892,
        -0.005425289738923311
      ]
    },
    {
      "bufferView": 1,
      "byteOffset": 12,
      "count": 90,
      "componentType": 5126,
      "type": "VEC3"
    },
    {
      "bufferView": 2,
      "byteOffset": 0,
      "count": 90,
      "componentType": 5126,
      "type": "VEC3",
      "min": [
        -0.00009635946480557324,
        -0.00009637093171477318,
        -0.004941720049828291
      ],
      "max": [
        0.001729359501041472,
        0.001729370909743011,
        -0.0037922996561974287
      ]
    },
    {
      "bufferView": 2,
      "byteOffset": 12,
      "count": 90,
      "componentType": 5126,
      "type": "VEC3"
    },
    {
      "bufferView": 3,
      "byteOffset": 0,
      "count": 96,
      "componentType": 5126,
      "type": "VEC3",
      "min": [
        -0.000912859453819692,
        -0.0000000000016666665877268505,
        -0.00657470989972353
      ],
      "max": [
        0.0017109200125560164,
        0.001729370909743011,
        -0.0039197951555252075
      ]
    },
    {
      "bufferView": 3,
      "byteOffset": 12,
      "count": 96,
      "componentType": 5126,
      "type": "VEC3"
    },
    {
      "bufferView": 4,
      "byteOffset": 0,
      "count": 384,
      "componentType": 5126,
      "type": "VEC3",
      "min": [
        -0.0010000000474974513,
        0,
        -0.00000000000000000012246468422454102
      ],
      "max": [
        0.0010000000474974513,
        0.0020000000949949026,
        0.0010000000474974513
      ]
    },
    {
      "bufferView": 4,
      "byteOffset": 12,
      "count": 384,
      "componentType": 5126,
      "type": "VEC3"
    },
    {
      "bufferView": 5,
      "byteOffset": 0,
      "count": 234,
      "componentType": 5126,
      "type": "VEC3",
      "min": [
        -0.0010000000474974513,
        0,
        -0.0010000000474974513
      ],
      "max": [
        0.0010000000474974513,
        0,
        0.0010000000474974513
      ]
    },
    {
      "bufferView": 5,
      "byteOffset": 12,
      "count": 234,
      "componentType": 5126,
      "type": "VEC3"
    },
    {
      "bufferView": 6,
      "byteOffset": 0,
      "count": 234,
      "componentType": 5126,
      "type": "VEC3",
      "min": [
        -0.0010000000474974513,
        0.0020000000949949026,
        -0.0010000000474974513
      ],
      "max": [
        0.0010000000474974513,
        0.0020000000949949026,
        0.0010000000474974513
      ]
    },
    {
      "bufferView": 6,
      "byteOffset": 12,
      "count": 234,
      "componentType": 5126,
      "type": "VEC3"
    },
    {
      "bufferView": 7,
      "byteOffset": 0,
      "count": 96,
      "componentType": 5126,
      "type": "VEC3",
      "min": [
        -0.0010000000474974513,
        0,
        -0.0010000000474974513
      ],
      "max": [
        0.0010000000474974513,
        0.0020000000949949026,
        -0
      ]
    },
    {
      "bufferView": 7,
      "byteOffset": 12,
      "count": 96,
      "componentType": 5126,
      "type": "VEC3"
    }
  ],
  "asset": {
    "generator": "zoo.dev",
    "version": "2.0"
  },
  "buffers": [
    {
      "byteLength": 31680,
      "uri": "data:application/octet-stream;base64,"
    }
  ],
  "bufferViews": [
    {
      "buffer": 0,
      "byteLength": 2304,
      "byteOffset": 0,
      "byteStride": 24,
      "target": 34962
    },
    {
      "buffer": 0,
      "byteLength": 2160,
      "byteOffset": 2304,
      "byteStride": 24,
      "target": 34962
    },
    {
      "buffer": 0,
      "byteLength": 2160,
      "byteOffset": 4464,
      "byteStride": 24,
      "target": 34962
    },
    {
      "buffer": 0,
      "byteLength": 2304,
      "byteOffset": 6624,
      "byteStride": 24,
      "target": 34962
    },
    {
      "buffer": 0,
      "byteLength": 9216,
      "byteOffset": 8928,
      "byteStride": 24,
      "target": 34962
    },
    {
      "buffer": 0,
      "byteLength": 5616,
      "byteOffset": 18144,
      "byteStride": 24,
      "target": 34962
    },
    {
      "buffer": 0,
      "byteLength": 5616,
      "byteOffset": 23760,
      "byteStride": 24,
      "target": 34962
    },
    {
      "buffer": 0,
      "byteLength": 2304,
      "byteOffset": 29376,
      "byteStride": 24,
      "target": 34962
    }
  ],
  "scene": 0,
  "extensions": {
    "KITTYCAD_boundary_representation": {
      "solids": [
        {
          "shells": [
            [
              0,
              1
            ]
          ],
          "mesh": 0,
          "extras": {
            "KITTYCAD": {
              "material": 0
            }
          }
        },
        {
          "shells": [
            [
              1,
              1
            ]
          ],
          "mesh": 1,
          "extras": {
            "KITTYCAD": {
              "material": 1
            }
          }
        }
      ],
      "shells": [
        {
          "faces": [
            [
              0,
              1
            ],
            [
              1,
              1
            ],
            [
              2,
              1
            ],
            [
              3,
              1
            ]
          ]
        },
        {
          "faces": [
            [
              4,
              1
            ],
            [
              5,
              1
            ],
            [
              6,
              1
            ],
            [
              7,
              1
            ]
          ]
        }
      ],
      "faces": [
        {
          "surface": [
            0,
            1
          ],
          "loops": [
            [
              0,
              1
            ]
          ]
        },
        {
          "surface": [
            1,
            -1
          ],
          "loops": [
            [
              1,
              1
            ]
          ]
        },
        {
          "surface": [
            2,
            1
          ],
          "loops": [
            [
              2,
              1
            ]
          ]
        },
        {
          "surface": [
            0,
            1
          ],
          "loops": [
            [
              3,
              1
            ]
          ]
        },
        {
          "surface": [
            3,
            1
          ],
          "loops": [
            [
              4,
              1
            ]
          ]
        },
        {
          "surface": [
            4,
            -1
          ],
          "loops": [
            [
              5,
              1
            ]
          ]
        },
        {
          "surface": [
            5,
            1
          ],
          "loops": [
            [
              6,
              1
            ]
          ]
        },
        {
          "surface": [
            3,
            1
          ],
          "loops": [
            [
              7,
              1
            ]
          ]
        }
      ],
      "loops": [
        {
          "edges": [
            [
              0,
              1
            ],
            [
              1,
              1
            ],
            [
              2,
              -1
            ],
            [
              3,
              -1
            ]
          ]
        },
        {
          "edges": [
            [
              1,
              -1
            ],
            [
              4,
              -1
            ]
          ]
        },
        {
          "edges": [
            [
              5,
              1
            ],
            [
              3,
              1
            ]
          ]
        },
        {
          "edges": [
            [
              0,
              -1
            ],
            [
              5,
              -1
            ],
            [
              2,
              1
            ],
            [
              4,
              1
            ]
          ]
        },
        {
          "edges": [
            [
              6,
              1
            ],
            [
              7,
              1
            ],
            [
              8,
              -1
            ],
            [
              9,
              -1
            ]
          ]
        },
        {
          "edges": [
            [
              7,
              -1
            ],
            [
              10,
              -1
            ]
          ]
        },
        {
          "edges": [
            [
              11,
              1
            ],
            [
              9,
              1
            ]
          ]
        },
        {
          "edges": [
            [
              6,
              -1
            ],
            [
              11,
              -1
            ],
            [
              8,
              1
            ],
            [
              10,
              1
            ]
          ]
        }
      ],
      "edges": [
        {
          "curve": [
            0,
            -1
          ],
          "start": 0,
          "end": 1,
          "t": [
            -0.0010000041874912327,
            0.000999996022525423
          ]
        },
        {
          "curve": [
            1,
            1
          ],
          "start": 1,
          "end": 2,
          "t": [
            9.42477796076938,
            12.566368786793223
          ]
        },
        {
          "curve": [
            2,
            -1
          ],
          "start": 3,
          "end": 2,
          "t": [
            -0.0010000001050083284,
            0.0009999960225254229
          ]
        },
        {
          "curve": [
            3,
            1
          ],
          "start": 0,
          "end": 3,
          "t": [
            3.1415963050530893,
            6.283185307179586
          ]
        },
        {
          "curve": [
            1,
            1
          ],
          "start": 2,
          "end": 1,
          "t": [
            6.283183479613638,
            9.42477796076938
          ]
        },
        {
          "curve": [
            3,
            1
          ],
          "start": 3,
          "end": 0,
          "t": [
            0,
            3.1415963050530893
          ]
        },
        {
          "curve": [
            4,
            -1
          ],
          "start": 4,
          "end": 5,
          "t": [
            -0.001,
            0.001
          ]
        },
        {
          "curve": [
            5,
            1
          ],
          "start": 5,
          "end": 6,
          "t": [
            3.141592653589793,
            6.283185307179586
          ]
        },
        {
          "curve": [
            6,
            -1
          ],
          "start": 7,
          "end": 6,
          "t": [
            -0.001,
            0.001
          ]
        },
        {
          "curve": [
            7,
            1
          ],
          "start": 4,
          "end": 7,
          "t": [
            3.141592653589793,
            6.283185307179586
          ]
        },
        {
          "curve": [
            5,
            1
          ],
          "start": 6,
          "end": 5,
          "t": [
            0,
            3.141592653589793
          ]
        },
        {
          "curve": [
            7,
            1
          ],
          "start": 7,
          "end": 4,
          "t": [
            0,
            3.141592653589793
          ]
        }
      ],
      "vertices": [
        [
          -0.00007792652399767586,
          0.0008164966650186417,
          -0.003919795070510482
        ],
        [
          -0.0008944271906665833,
          -0.000000000001666666552693918,
          -0.005552786403833375
        ],
        [
          0.00089443,
          0,
          -0.00644721
        ],
        [
          0.00171092,
          0.0008165,
          -0.00481422
        ],
        [
          -0.001,
          0.002,
          -0.00000000000000000012246467991473531
        ],
        [
          -0.001,
          0,
          -0.00000000000000000012246467991473531
        ],
        [
          0.001,
          0,
          -0
        ],
        [
          0.001,
          0.002,
          -0
        ]
      ],
      "surfaces": [
        {
          "type": "cylinder",
          "cylinder": {
            "xAxis": [
              0.8944271906665826,
              0.0000000016666666102782555,
              -0.44721359616662465
            ],
            "yAxis": [
              -0.18257418746804852,
              0.9128709291752768,
              -0.3651483708536143
            ],
            "origin": [
              0.00040825,
              0.00040825,
              -0.0051835
            ],
            "radius": 0.001
          }
        },
        {
          "type": "plane",
          "plane": {
            "xAxis": [
              0.9128709291752768,
              -0.1825741858350554,
              -0.3651483716701108
            ],
            "yAxis": [
              0,
              0.894427190999916,
              -0.447213595499958
            ],
            "origin": [
              0,
              0,
              -0.006
            ]
          }
        },
        {
          "type": "plane",
          "plane": {
            "xAxis": [
              0.9128709291752768,
              -0.1825741858350554,
              -0.3651483716701108
            ],
            "yAxis": [
              0,
              0.894427190999916,
              -0.447213595499958
            ],
            "origin": [
              0.0008165,
              0.0008165,
              -0.00436701
            ]
          }
        },
        {
          "type": "cylinder",
          "cylinder": {
            "xAxis": [
              1,
              0,
              0
            ],
            "yAxis": [
              0,
              0,
              -1
            ],
            "origin": [
              -0,
              0.001,
              -0
            ],
            "radius": 0.001
          }
        },
        {
          "type": "plane",
          "plane": {
            "xAxis": [
              1,
              0,
              0
            ],
            "yAxis": [
              0,
              0,
              -1
            ],
            "origin": [
              0,
              0,
              -0
            ]
          }
        },
        {
          "type": "plane",
          "plane": {
            "xAxis": [
              1,
              0,
              0
            ],
            "yAxis": [
              0,
              0,
              -1
            ],
            "origin": [
              0,
              0.002,
              -0
            ]
          }
        }
      ],
      "curves3D": [
        {
          "type": "line",
          "line": {
            "origin": [
              -0.00048617719066658264,
              0.0004082499983333335,
              -0.004736286403833375
            ],
            "direction": [
              0.4082482904638631,
              0.4082482904638632,
              0.816496580927726
            ]
          }
        },
        {
          "type": "circle",
          "circle": {
            "xAxis": [
              0.8944271906665825,
              0.000000001666666610278255,
              -0.4472135961666247
            ],
            "yAxis": [
              -0.18257418746804857,
              0.9128709291752768,
              -0.36514837085361423
            ],
            "origin": [
              -0.0000000000000000007589415207398531,
              -0.00000000000000000005421010862427522,
              -0.006
            ],
            "radius": 0.001
          }
        },
        {
          "type": "line",
          "line": {
            "origin": [
              0.0013026771906665827,
              0.00040825000166666656,
              -0.005630713596166625
            ],
            "direction": [
              0.4082482904638631,
              0.4082482904638632,
              0.816496580927726
            ]
          }
        },
        {
          "type": "circle",
          "circle": {
            "xAxis": [
              0.8944271906665825,
              0.000000001666666610278255,
              -0.4472135961666247
            ],
            "yAxis": [
              -0.18257418746804857,
              0.9128709291752768,
              -0.36514837085361423
            ],
            "origin": [
              0.0008164999999999996,
              0.0008165000000000002,
              -0.00436701
            ],
            "radius": 0.001
          }
        },
        {
          "type": "line",
          "line": {
            "origin": [
              -0.001,
              0.001,
              -0.00000000000000000012246467991473531
            ],
            "direction": [
              0,
              1,
              0
            ]
          }
        },
        {
          "type": "circle",
          "circle": {
            "xAxis": [
              1,
              0,
              0
            ],
            "yAxis": [
              0,
              0,
              -1
            ],
            "origin": [
              0,
              0,
              0
            ],
            "radius": 0.001
          }
        },
        {
          "type": "line",
          "line": {
            "origin": [
              0.001,
              0.001,
              0
            ],
            "direction": [
              0,
              1,
              0
            ]
          }
        },
        {
          "type": "circle",
          "circle": {
            "xAxis": [
              1,
              0,
              0
            ],
            "yAxis": [
              0,
              0,
              -1
            ],
            "origin": [
              0,
              0.002,
              0
            ],
            "radius": 0.001
          }
        }
      ]
    }
  },
  "extensionsUsed": [
    "KITTYCAD_boundary_representation"
  ],
  "materials": [
    {
      "alphaMode": "OPAQUE",
      "doubleSided": false,
      "pbrMetallicRoughness": {
        "baseColorFactor": [
          0.9,
          0.9,
          0.9,
          1
        ],
        "metallicFactor": 1,
        "roughnessFactor": 1
      },
      "emissiveFactor": [
        0,
        0,
        0
      ]
    },
    {
      "alphaMode": "OPAQUE",
      "doubleSided": false,
      "pbrMetallicRoughness": {
        "baseColorFactor": [
          0.9,
          0.9,
          0.9,
          1
        ],
        "metallicFactor": 1,
        "roughnessFactor": 1
      },
      "emissiveFactor": [
        0,
        0,
        0
      ]
    }
  ],
  "meshes": [
    {
      "primitives": [
        {
          "attributes": {
            "POSITION": 0,
            "NORMAL": 1
          },
          "material": 0
        },
        {
          "attributes": {
            "POSITION": 2,
            "NORMAL": 3
          },
          "material": 0
        },
        {
          "attributes": {
            "POSITION": 4,
            "NORMAL": 5
          },
          "material": 0
        },
        {
          "attributes": {
            "POSITION": 6,
            "NORMAL": 7
          },
          "material": 0
        }
      ]
    },
    {
      "primitives": [
        {
          "attributes": {
            "POSITION": 8,
            "NORMAL": 9
          },
          "material": 1
        },
        {
          "attributes": {
            "POSITION": 10,
            "NORMAL": 11
          },
          "material": 1
        },
        {
          "attributes": {
            "POSITION": 12,
            "NORMAL": 13
          },
          "material": 1
        },
        {
          "attributes": {
            "POSITION": 14,
            "NORMAL": 15
          },
          "material": 1
        }
      ]
    }
  ],
  "nodes": [
    {
      "children": [
        1
      ]
    },
    {
      "children": [
        2,
        3
      ]
    },
    {
      "extensions": {
        "KITTYCAD_boundary_representation": {
          "solid": 0
        }
      },
      "mesh": 0
    },
    {
      "extensions": {
        "KITTYCAD_boundary_representation": {
          "solid": 1
        }
      },
      "mesh": 1
    }
  ],
  "scenes": [
    {
      "nodes": [
        0
      ]
    }
  ]
}