{
  "accessors": [
    {
      "bufferView": 0,
      "byteOffset": 0,
      "count": 384,
      "componentType": 5126,
      "type": "VEC3",
      "min": [
        0.09000000357627869,
        0,
        -0.0000000000000000012246467905466221
      ],
      "max": [
        0.10999999940395357,
        0.009999999776482582,
        0.009999999776482582
      ]
    },
    {
      "bufferView": 0,
      "byteOffset": 12,
      "count": 384,
      "componentType": 5126,
      "type": "VEC3"
    },
    {
      "bufferView": 1,
      "byteOffset": 0,
      "count": 378,
      "componentType": 5126,
      "type": "VEC3",
      "min": [
        0.09000000357627869,
        0,
        -0.009999999776482582
      ],
      "max": [
        0.10999999940395357,
        0,
        0.009999999776482582
      ]
    },
    {
      "bufferView": 1,
      "byteOffset": 12,
      "count": 378,
      "componentType": 5126,
      "type": "VEC3"
    },
    {
      "bufferView": 2,
      "byteOffset": 0,
      "count": 378,
      "componentType": 5126,
      "type": "VEC3",
      "min": [
        0.09000000357627869,
        0.009999999776482582,
        -0.009999999776482582
      ],
      "max": [
        0.10999999940395357,
        0.009999999776482582,
        0.009999999776482582
      ]
    },
    {
      "bufferView": 2,
      "byteOffset": 12,
      "count": 378,
      "componentType": 5126,
      "type": "VEC3"
    },
    {
      "bufferView": 3,
      "byteOffset": 0,
      "count": 384,
      "componentType": 5126,
      "type": "VEC3",
      "min": [
        0.09000000357627869,
        0,
        -0.009999999776482582
      ],
      "max": [
        0.10999999940395357,
        0.009999999776482582,
        -0
      ]
    },
    {
      "bufferView": 3,
      "byteOffset": 12,
      "count": 384,
      "componentType": 5126,
      "type": "VEC3"
    },
    {
      "bufferView": 4,
      "byteOffset": 0,
      "count": 384,
      "componentType": 5126,
      "type": "VEC3",
      "min": [
        -0.008944272063672543,
        -0.009128709323704244,
        -0.004472136031836271
      ],
      "max": [
        0.013211078010499476,
        0.004082482773810625,
        0.013938450254499912
      ]
    },
    {
      "bufferView": 4,
      "byteOffset": 12,
      "count": 384,
      "componentType": 5126,
      "type": "VEC3"
    },
    {
      "bufferView": 5,
      "byteOffset": 0,
      "count": 378,
      "componentType": 5126,
      "type": "VEC3",
      "min": [
        -0.009128594771027563,
        -0.009128709323704244,
        -0.005773484706878662
      ],
      "max": [
        0.009128594771027563,
        0.009128709323704244,
        0.005773484706878662
      ]
    },
    {
      "bufferView": 5,
      "byteOffset": 12,
      "count": 378,
      "componentType": 5126,
      "type": "VEC3"
    },
    {
      "bufferView": 6,
      "byteOffset": 0,
      "count": 378,
      "componentType": 5126,
      "type": "VEC3",
      "min": [
        -0.00504611199721694,
        -0.005046226549893618,
        0.0023914813064038754
      ],
      "max": [
        0.013211078010499476,
        0.013211192563176157,
        0.013938450254499912
      ]
    },
    {
      "bufferView": 6,
      "byteOffset": 12,
      "count": 378,
      "componentType": 5126,
      "type": "VEC3"
    },
    {
      "bufferView": 7,
      "byteOffset": 0,
      "count": 384,
      "componentType": 5126,
      "type": "VEC3",
      "min": [
        -0.009128594771027563,
        0,
        -0.005773484706878662
      ],
      "max": [
        0.01302675437182188,
        0.013211192563176157,
        0.012637102045118809
      ]
    },
    {
      "bufferView": 7,
      "byteOffset": 12,
      "count": 384,
      "componentType": 5126,
      "type": "VEC3"
    }
  ],
  "asset": {
    "generator": "zoo.dev",
    "version": "2.0"
  },
  "buffers": [
    {
      "byteLength": 73152,
      "uri": "data:application/octet-stream;base64,"
    }
  ],
  "bufferViews": [
    {
      "buffer": 0,
      "byteLength": 9216,
      "byteOffset": 0,
      "byteStride": 24,
      "target": 34962
    },
    {
      "buffer": 0,
      "byteLength": 9072,
      "byteOffset": 9216,
      "byteStride": 24,
      "target": 34962
    },
    {
      "buffer": 0,
      "byteLength": 9072,
      "byteOffset": 18288,
      "byteStride": 24,
      "target": 34962
    },
    {
      "buffer": 0,
      "byteLength": 9216,
      "byteOffset": 27360,
      "byteStride": 24,
      "target": 34962
    },
    {
      "buffer": 0,
      "byteLength": 9216,
      "byteOffset": 36576,
      "byteStride": 24,
      "target": 34962
    },
    {
      "buffer": 0,
      "byteLength": 9072,
      "byteOffset": 45792,
      "byteStride": 24,
      "target": 34962
    },
    {
      "buffer": 0,
      "byteLength": 9072,
      "byteOffset": 54864,
      "byteStride": 24,
      "target": 34962
    },
    {
      "buffer": 0,
      "byteLength": 9216,
      "byteOffset": 63936,
      "byteStride": 24,
      "target": 34962
    }
  ],
  "scene": 0,
  "extensions": {
    "KITTYCAD_boundary_representation": {
      "solids": [
        {
          "shells": [
            [
              0,
              1
            ]
          ],
          "mesh": 0
        },
        {
          "shells": [
            [
              1,
              1
            ]
          ],
          "mesh": 1
        }
      ],
      "shells": [
        {
          "faces": [
            [
              0,
              1
            ],
            [
              1,
              1
            ],
            [
              2,
              1
            ],
            [
              3,
              1
            ]
          ]
        },
        {
          "faces": [
            [
              4,
              1
            ],
            [
              5,
              1
            ],
            [
              6,
              1
            ],
            [
              7,
              1
            ]
          ]
        }
      ],
      "faces": [
        {
          "surface": [
            0,
            1
          ],
          "loops": [
            [
              0,
              1
            ]
          ]
        },
        {
          "surface": [
            1,
            -1
          ],
          "loops": [
            [
              1,
              1
            ]
          ]
        },
        {
          "surface": [
            2,
            1
          ],
          "loops": [
            [
              2,
              1
            ]
          ]
        },
        {
          "surface": [
            0,
            1
          ],
          "loops": [
            [
              3,
              1
            ]
          ]
        },
        {
          "surface": [
            3,
            1
          ],
          "loops": [
            [
              4,
              1
            ]
          ]
        },
        {
          "surface": [
            4,
            -1
          ],
          "loops": [
            [
              5,
              1
            ]
          ]
        },
        {
          "surface": [
            5,
            1
          ],
          "loops": [
            [
              6,
              1
            ]
          ]
        },
        {
          "surface": [
            3,
            1
          ],
          "loops": [
            [
              7,
              1
            ]
          ]
        }
      ],
      "loops": [
        {
          "edges": [
            [
              0,
              1
            ],
            [
              1,
              1
            ],
            [
              2,
              -1
            ],
            [
              3,
              -1
            ]
          ]
        },
        {
          "edges": [
            [
              1,
              -1
            ],
            [
              4,
              -1
            ]
          ]
        },
        {
          "edges": [
            [
              5,
              1
            ],
            [
              3,
              1
            ]
          ]
        },
        {
          "edges": [
            [
              0,
              -1
            ],
            [
              5,
              -1
            ],
            [
              2,
              1
            ],
            [
              4,
              1
            ]
          ]
        },
        {
          "edges": [
            [
              6,
              1
            ],
            [
              7,
              1
            ],
            [
              8,
              -1
            ],
            [
              9,
              -1
            ]
          ]
        },
        {
          "edges": [
            [
              7,
              -1
            ],
            [
              10,
              -1
            ]
          ]
        },
        {
          "edges": [
            [
              11,
              1
            ],
            [
              9,
              1
            ]
          ]
        },
        {
          "edges": [
            [
              6,
              -1
            ],
            [
              11,
              -1
            ],
            [
              8,
              1
            ],
            [
              10,
              1
            ]
          ]
        }
      ],
      "edges": [
        {
          "curve": [
            0,
            -1
          ],
          "start": 0,
          "end": 1,
          "t": [
            -0.004999999999999999,
            0.005000000000000001
          ]
        },
        {
          "curve": [
            1,
            1
          ],
          "start": 1,
          "end": 2,
          "t": [
            3.141592653589793,
            6.283185307179586
          ]
        },
        {
          "curve": [
            2,
            -1
          ],
          "start": 3,
          "end": 2,
          "t": [
            -0.005,
            0.005
          ]
        },
        {
          "curve": [
            3,
            1
          ],
          "start": 0,
          "end": 3,
          "t": [
            3.141592653589793,
            6.283185307179586
          ]
        },
        {
          "curve": [
            1,
            1
          ],
          "start": 2,
          "end": 1,
          "t": [
            0,
            3.141592653589793
          ]
        },
        {
          "curve": [
            3,
            1
          ],
          "start": 3,
          "end": 0,
          "t": [
            0,
            3.141592653589793
          ]
        },
        {
          "curve": [
            4,
            -1
          ],
          "start": 4,
          "end": 5,
          "t": [
            -0.004999999999999994,
            0.005000000000000001
          ]
        },
        {
          "curve": [
            5,
            1
          ],
          "start": 5,
          "end": 6,
          "t": [
            3.1415926535897927,
            6.283185307179586
          ]
        },
        {
          "curve": [
            6,
            -1
          ],
          "start": 7,
          "end": 6,
          "t": [
            -0.005000000000000001,
            0.005000000000000001
          ]
        },
        {
          "curve": [
            7,
            1
          ],
          "start": 4,
          "end": 7,
          "t": [
            3.1415926535897927,
            6.283185307179586
          ]
        },
        {
          "curve": [
            5,
            1
          ],
          "start": 6,
          "end": 5,
          "t": [
            0,
            3.1415926535897927
          ]
        },
        {
          "curve": [
            7,
            1
          ],
          "start": 7,
          "end": 4,
          "t": [
            0,
            3.1415926535897927
          ]
        }
      ],
      "vertices": [
        [
          0.09000000000000001,
          0.01,
          -0.0000000000000000012246467991473532
        ],
        [
          0.09000000000000001,
          0,
          -0.0000000000000000012246467991473532
        ],
        [
          0.11,
          0,
          -0
        ],
        [
          0.11,
          0.01,
          -0
        ],
        [
          -0.00486178900536053,
          0.004082482904638637,
          0.012637101764276838
        ],
        [
          -0.008944271909999163,
          0.0000000000000000043045440197861836,
          0.004472135954999579
        ],
        [
          0.00894427190999916,
          0,
          -0.00447213595499958
        ],
        [
          0.013026754814637793,
          0.0040824829046386315,
          0.003692829854277681
        ]
      ],
      "surfaces": [
        {
          "type": "cylinder",
          "cylinder": {
            "xAxis": [
              1,
              0,
              -0
            ],
            "yAxis": [
              -0,
              0,
              -1
            ],
            "origin": [
              0.1,
              0.005,
              0
            ],
            "radius": 0.01
          }
        },
        {
          "type": "plane",
          "plane": {
            "xAxis": [
              1,
              0,
              0
            ],
            "yAxis": [
              0,
              0,
              -1
            ],
            "origin": [
              0,
              0,
              -0
            ]
          }
        },
        {
          "type": "plane",
          "plane": {
            "xAxis": [
              1,
              0,
              0
            ],
            "yAxis": [
              0,
              0,
              -1
            ],
            "origin": [
              0,
              0.01,
              -0
            ]
          }
        },
        {
          "type": "cylinder",
          "cylinder": {
            "xAxis": [
              0.894427190999916,
              -0.00000000000000011102230246251563,
              -0.4472135954999579
            ],
            "yAxis": [
              -0.18257418583505533,
              0.9128709291752768,
              -0.36514837167011094
            ],
            "origin": [
              0.0020412414523193153,
              0.0020412414523193166,
              0.00408248290463863
            ],
            "radius": 0.010000000000000002
          }
        },
        {
          "type": "plane",
          "plane": {
            "xAxis": [
              0.9128709291752768,
              -0.1825741858350554,
              -0.3651483716701108
            ],
            "yAxis": [
              0,
              0.8944271909999159,
              -0.447213595499958
            ],
            "origin": [
              0,
              0,
              -0
            ]
          }
        },
        {
          "type": "plane",
          "plane": {
            "xAxis": [
              0.9128709291752768,
              -0.1825741858350554,
              -0.3651483716701108
            ],
            "yAxis": [
              0,
              0.8944271909999159,
              -0.447213595499958
            ],
            "origin": [
              0.004082482904638631,
              0.0040824829046386315,
              0.008164965809277261
            ]
          }
        }
      ],
      "curves3D": [
        {
          "type": "line",
          "line": {
            "origin": [
              0.09000000000000001,
              0.005,
              -0.0000000000000000012246467991473532
            ],
            "direction": [
              0,
              1,
              0
            ]
          }
        },
        {
          "type": "circle",
          "circle": {
            "xAxis": [
              1,
              0,
              0
            ],
            "yAxis": [
              0,
              0,
              -1
            ],
            "origin": [
              0.1,
              0,
              0
            ],
            "radius": 0.01
          }
        },
        {
          "type": "line",
          "line": {
            "origin": [
              0.11,
              0.005,
              0
            ],
            "direction": [
              0,
              1,
              0
            ]
          }
        },
        {
          "type": "circle",
          "circle": {
            "xAxis": [
              1,
              0,
              0
            ],
            "yAxis": [
              0,
              0,
              -1
            ],
            "origin": [
              0.1,
              0.01,
              0
            ],
            "radius": 0.01
          }
        },
        {
          "type": "line",
          "line": {
            "origin": [
              -0.006903030457679846,
              0.0020412414523193188,
              0.008554618859638208
            ],
            "direction": [
              0.40824829046386296,
              0.4082482904638631,
              0.8164965809277259
            ]
          }
        },
        {
          "type": "circle",
          "circle": {
            "xAxis": [
              0.894427190999916,
              0,
              -0.447213595499958
            ],
            "yAxis": [
              -0.18257418583505547,
              0.9128709291752768,
              -0.36514837167011094
            ],
            "origin": [
              0.0000000000000000004336808689942019,
              -0.0000000000000000008673617379884035,
              0
            ],
            "radius": 0.010000000000000002
          }
        },
        {
          "type": "line",
          "line": {
            "origin": [
              0.010985513362318476,
              0.0020412414523193153,
              -0.00038965305036095
            ],
            "direction": [
              0.40824829046386296,
              0.4082482904638631,
              0.8164965809277259
            ]
          }
        },
        {
          "type": "circle",
          "circle": {
            "xAxis": [
              0.894427190999916,
              0,
              -0.4472135954999579
            ],
            "yAxis": [
              -0.1825741858350554,
              0.9128709291752768,
              -0.3651483716701109
            ],
            "origin": [
              0.004082482904638632,
              0.0040824829046386315,
              0.00816496580927726
            ],
            "radius": 0.010000000000000002
          }
        }
      ]
    }
  },
  "extensionsUsed": [
    "KITTYCAD_boundary_representation"
  ],
  "meshes": [
    {
      "primitives": [
        {
          "attributes": {
            "POSITION": 0,
            "NORMAL": 1
          }
        },
        {
          "attributes": {
            "POSITION": 2,
            "NORMAL": 3
          }
        },
        {
          "attributes": {
            "POSITION": 4,
            "NORMAL": 5
          }
        },
        {
          "attributes": {
            "POSITION": 6,
            "NORMAL": 7
          }
        }
      ]
    },
    {
      "primitives": [
        {
          "attributes": {
            "POSITION": 8,
            "NORMAL": 9
          }
        },
        {
          "attributes": {
            "POSITION": 10,
            "NORMAL": 11
          }
        },
        {
          "attributes": {
            "POSITION": 12,
            "NORMAL": 13
          }
        },
        {
          "attributes": {
            "POSITION": 14,
            "NORMAL": 15
          }
        }
      ]
    }
  ],
  "nodes": [
    {
      "children": [
        1
      ]
    },
    {
      "children": [
        2,
        3
      ]
    },
    {
      "extensions": {
        "KITTYCAD_boundary_representation": {
          "solid": 0
        }
      },
      "mesh": 0
    },
    {
      "extensions": {
        "KITTYCAD_boundary_representation": {
          "solid": 1
        }
      },
      "mesh": 1
    }
  ],
  "scenes": [
    {
      "nodes": [
        0
      ]
    }
  ]
}