{
  "accessors": [
    {
      "bufferView": 0,
      "byteOffset": 0,
      "count": 294,
      "componentType": 5126,
      "type": "VEC3",
      "min": [
        -0.0027799999807029963,
        0,
        0.003909999970346689
      ],
      "max": [
        0.0027799999807029963,
        0.0007999999797903001,
        0.006689740810543299
      ]
    },
    {
      "bufferView": 0,
      "byteOffset": 12,
      "count": 294,
      "componentType": 5126,
      "type": "VEC3"
    },
    {
      "bufferView": 1,
      "byteOffset": 0,
      "count": 291,
      "componentType": 5126,
      "type": "VEC3",
      "min": [
        -0.0027799999807029963,
        0,
        -0.002779740607365966
      ],
      "max": [
        0.0027799999807029963,
        0.0007999999797903001,
        -0
      ]
    },
    {
      "bufferView": 1,
      "byteOffset": 12,
      "count": 291,
      "componentType": 5126,
      "type": "VEC3"
    },
    {
      "bufferView": 2,
      "byteOffset": 0,
      "count": 6,
      "componentType": 5126,
      "type": "VEC3",
      "min": [
        -0.0027799999807029963,
        0,
        -0
      ],
      "max": [
        -0.0027799999807029963,
        0.0007999999797903001,
        0.003909999970346689
      ]
    },
    {
      "bufferView": 2,
      "byteOffset": 12,
      "count": 6,
      "componentType": 5126,
      "type": "VEC3"
    },
    {
      "bufferView": 3,
      "byteOffset": 0,
      "count": 192,
      "componentType": 5126,
      "type": "VEC3",
      "min": [
        -0.0027799999807029963,
        0,
        -0.0027796956710517406
      ],
      "max": [
        0.0020800000056624413,
        0,
        0.00668969564139843
      ]
    },
    {
      "bufferView": 3,
      "byteOffset": 12,
      "count": 192,
      "componentType": 5126,
      "type": "VEC3"
    },
    {
      "bufferView": 4,
      "byteOffset": 0,
      "count": 48,
      "componentType": 5126,
      "type": "VEC3",
      "min": [
        0.002580000087618828,
        0.0007999999797903001,
        0
      ],
      "max": [
        0.0027799999807029963,
        0.0010000000474974513,
        0.003909999970346689
      ]
    },
    {
      "bufferView": 4,
      "byteOffset": 12,
      "count": 48,
      "componentType": 5126,
      "type": "VEC3"
    },
    {
      "bufferView": 5,
      "byteOffset": 0,
      "count": 48,
      "componentType": 5126,
      "type": "VEC3",
      "min": [
        -0.0027799999807029963,
        0.0007999999797903001,
        0.003909999970346689
      ],
      "max": [
        -0.0025735259987413883,
        0.0010000000474974513,
        0.004106816370040178
      ]
    },
    {
      "bufferView": 5,
      "byteOffset": 12,
      "count": 48,
      "componentType": 5126,
      "type": "VEC3"
    },
    {
      "bufferView": 6,
      "byteOffset": 0,
      "count": 48,
      "componentType": 5126,
      "type": "VEC3",
      "min": [
        0.0025735259987413883,
        0.0007999999797903001,
        -0.00019681654521264136
      ],
      "max": [
        0.0027799999807029963,
        0.0010000000474974513,
        0
      ]
    },
    {
      "bufferView": 6,
      "byteOffset": 12,
      "count": 48,
      "componentType": 5126,
      "type": "VEC3"
    },
    {
      "bufferView": 7,
      "byteOffset": 0,
      "count": 48,
      "componentType": 5126,
      "type": "VEC3",
      "min": [
        -0.0027799999807029963,
        0.0007999999797903001,
        0
      ],
      "max": [
        -0.002580000087618828,
        0.0010000000474974513,
        0.003909999970346689
      ]
    },
    {
      "bufferView": 7,
      "byteOffset": 12,
      "count": 48,
      "componentType": 5126,
      "type": "VEC3"
    },
    {
      "bufferView": 8,
      "byteOffset": 0,
      "count": 198,
      "componentType": 5126,
      "type": "VEC3",
      "min": [
        -0.002580000087618828,
        0.0010000000474974513,
        -0.002578380983322859
      ],
      "max": [
        0.002580000087618828,
        0.0010000000474974513,
        0.006488380953669548
      ]
    },
    {
      "bufferView": 8,
      "byteOffset": 12,
      "count": 198,
      "componentType": 5126,
      "type": "VEC3"
    },
    {
      "bufferView": 9,
      "byteOffset": 0,
      "count": 6,
      "componentType": 5126,
      "type": "VEC3",
      "min": [
        0.0027799999807029963,
        0.000699999975040555,
        0
      ],
      "max": [
        0.0027799999807029963,
        0.0007999999797903001,
        0.003909999970346689
      ]
    },
    {
      "bufferView": 9,
      "byteOffset": 12,
      "count": 6,
      "componentType": 5126,
      "type": "VEC3"
    },
    {
      "bufferView": 10,
      "byteOffset": 0,
      "count": 189,
      "componentType": 5126,
      "type": "VEC3",
      "min": [
        0.0020800000056624413,
        0,
        -0.0018444500165060165
      ],
      "max": [
        0.0027799999807029963,
        0.000699999975040555,
        0.005754449870437384
      ]
    },
    {
      "bufferView": 10,
      "byteOffset": 12,
      "count": 189,
      "componentType": 5126,
      "type": "VEC3"
    },
    {
      "bufferView": 11,
      "byteOffset": 0,
      "count": 633,
      "componentType": 5126,
      "type": "VEC3",
      "min": [
        -0.0027730241417884827,
        0.0007999999797903001,
        0.003909999970346689
      ],
      "max": [
        0.0027799999807029963,
        0.0010000000474974513,
        0.006689740810543299
      ]
    },
    {
      "bufferView": 11,
      "byteOffset": 12,
      "count": 633,
      "componentType": 5126,
      "type": "VEC3"
    },
    {
      "bufferView": 12,
      "byteOffset": 0,
      "count": 633,
      "componentType": 5126,
      "type": "VEC3",
      "min": [
        -0.0027799999807029963,
        0.0007999999797903001,
        -0.002779740607365966
      ],
      "max": [
        0.0027730241417884827,
        0.0010000000474974513,
        0
      ]
    },
    {
      "bufferView": 12,
      "byteOffset": 12,
      "count": 633,
      "componentType": 5126,
      "type": "VEC3"
    }
  ],
  "asset": {
    "generator": "zoo.dev",
    "version": "2.0"
  },
  "buffers": [
    {
      "byteLength": 63216,
      "uri": "data:application/octet-stream;base64,"
    }
  ],
  "bufferViews": [
    {
      "buffer": 0,
      "byteLength": 7056,
      "byteOffset": 0,
      "byteStride": 24,
      "target": 34962
    },
    {
      "buffer": 0,
      "byteLength": 6984,
      "byteOffset": 7056,
      "byteStride": 24,
      "target": 34962
    },
    {
      "buffer": 0,
      "byteLength": 144,
      "byteOffset": 14040,
      "byteStride": 24,
      "target": 34962
    },
    {
      "buffer": 0,
      "byteLength": 4608,
      "byteOffset": 14184,
      "byteStride": 24,
      "target": 34962
    },
    {
      "buffer": 0,
      "byteLength": 1152,
      "byteOffset": 18792,
      "byteStride": 24,
      "target": 34962
    },
    {
      "buffer": 0,
      "byteLength": 1152,
      "byteOffset": 19944,
      "byteStride": 24,
      "target": 34962
    },
    {
      "buffer": 0,
      "byteLength": 1152,
      "byteOffset": 21096,
      "byteStride": 24,
      "target": 34962
    },
    {
      "buffer": 0,
      "byteLength": 1152,
      "byteOffset": 22248,
      "byteStride": 24,
      "target": 34962
    },
    {
      "buffer": 0,
      "byteLength": 4752,
      "byteOffset": 23400,
      "byteStride": 24,
      "target": 34962
    },
    {
      "buffer": 0,
      "byteLength": 144,
      "byteOffset": 28152,
      "byteStride": 24,
      "target": 34962
    },
    {
      "buffer": 0,
      "byteLength": 4536,
      "byteOffset": 28296,
      "byteStride": 24,
      "target": 34962
    },
    {
      "buffer": 0,
      "byteLength": 15192,
      "byteOffset": 32832,
      "byteStride": 24,
      "target": 34962
    },
    {
      "buffer": 0,
      "byteLength": 15192,
      "byteOffset": 48024,
      "byteStride": 24,
      "target": 34962
    }
  ],
  "scene": 0,
  "extensions": {
    "KITTYCAD_boundary_representation": {
      "solids": [
        {
          "shells": [
            [
              0,
              1
            ]
          ],
          "mesh": 0,
          "extras": {
            "KITTYCAD": {
              "material": 0
            }
          }
        }
      ],
      "shells": [
        {
          "faces": [
            [
              0,
              1
            ],
            [
              1,
              1
            ],
            [
              2,
              1
            ],
            [
              3,
              1
            ],
            [
              4,
              1
            ],
            [
              5,
              1
            ],
            [
              6,
              1
            ],
            [
              7,
              1
            ],
            [
              8,
              1
            ],
            [
              9,
              1
            ],
            [
              10,
              1
            ],
            [
              11,
              1
            ],
            [
              12,
              1
            ]
          ]
        }
      ],
      "faces": [
        {
          "surface": [
            0,
            1
          ],
          "loops": [
            [
              0,
              1
            ]
          ],
          "extras": {
            "KITTYCAD": {
              "uuid": "7926dff1-e627-54c1-bbce-d64612f32d6b"
            }
          }
        },
        {
          "surface": [
            1,
            1
          ],
          "loops": [
            [
              1,
              1
            ]
          ],
          "extras": {
            "KITTYCAD": {
              "uuid": "2147b1bc-0e86-58cf-b979-a1abcf613618"
            }
          }
        },
        {
          "surface": [
            2,
            1
          ],
          "loops": [
            [
              2,
              1
            ]
          ],
          "extras": {
            "KITTYCAD": {
              "uuid": "dc700ece-abf1-5d4d-b57d-8fa8eecf901d"
            }
          }
        },
        {
          "surface": [
            3,
            -1
          ],
          "loops": [
            [
              3,
              1
            ]
          ],
          "extras": {
            "KITTYCAD": {
              "uuid": "57dcebaf-f488-5f18-a3d0-8a7c5e588523"
            }
          }
        },
        {
          "surface": [
            4,
            1
          ],
          "loops": [
            [
              4,
              1
            ]
          ],
          "extras": {
            "KITTYCAD": {
              "uuid": "72dddee3-1330-5c4f-b767-659f762ad674"
            }
          }
        },
        {
          "surface": [
            5,
            1
          ],
          "loops": [
            [
              5,
              1
            ]
          ],
          "extras": {
            "KITTYCAD": {
              "uuid": "9700197b-45f4-5326-aea5-9ad8044a1658"
            }
          }
        },
        {
          "surface": [
            6,
            1
          ],
          "loops": [
            [
              6,
              1
            ]
          ],
          "extras": {
            "KITTYCAD": {
              "uuid": "01d0bb6a-52f1-5551-8109-5992382e6bd1"
            }
          }
        },
        {
          "surface": [
            7,
            1
          ],
          "loops": [
            [
              7,
              1
            ]
          ],
          "extras": {
            "KITTYCAD": {
              "uuid": "d27c391a-48c5-5870-82af-504bc5a5ef5e"
            }
          }
        },
        {
          "surface": [
            8,
            1
          ],
          "loops": [
            [
              8,
              1
            ]
          ],
          "extras": {
            "KITTYCAD": {
              "uuid": "6cbdfc69-8158-576b-9986-f2cbbea98a73"
            }
          }
        },
        {
          "surface": [
            9,
            1
          ],
          "loops": [
            [
              9,
              1
            ]
          ],
          "extras": {
            "KITTYCAD": {
              "uuid": "63a00bb7-2cd9-55fe-99a4-505985ed010d"
            }
          }
        },
        {
          "surface": [
            10,
            1
          ],
          "loops": [
            [
              10,
              1
            ]
          ],
          "extras": {
            "KITTYCAD": {
              "uuid": "eedabccb-e42b-5224-a499-7c2981b239e5"
            }
          }
        },
        {
          "surface": [
            5,
            1
          ],
          "loops": [
            [
              11,
              1
            ]
          ],
          "extras": {
            "KITTYCAD": {
              "uuid": "9700197b-45f4-5326-aea5-9ad8044a1658"
            }
          }
        },
        {
          "surface": [
            6,
            1
          ],
          "loops": [
            [
              12,
              1
            ]
          ],
          "extras": {
            "KITTYCAD": {
              "uuid": "01d0bb6a-52f1-5551-8109-5992382e6bd1"
            }
          }
        }
      ],
      "loops": [
        {
          "edges": [
            [
              0,
              1
            ],
            [
              1,
              -1
            ],
            [
              2,
              1
            ],
            [
              3,
              1
            ],
            [
              4,
              1
            ],
            [
              5,
              1
            ],
            [
              6,
              -1
            ]
          ]
        },
        {
          "edges": [
            [
              7,
              1
            ],
            [
              8,
              1
            ],
            [
              9,
              1
            ],
            [
              10,
              1
            ],
            [
              11,
              1
            ],
            [
              12,
              -1
            ],
            [
              13,
              -1
            ]
          ]
        },
        {
          "edges": [
            [
              14,
              1
            ],
            [
              6,
              1
            ],
            [
              15,
              1
            ],
            [
              8,
              -1
            ]
          ]
        },
        {
          "edges": [
            [
              14,
              -1
            ],
            [
              7,
              -1
            ],
            [
              16,
              -1
            ],
            [
              0,
              -1
            ]
          ]
        },
        {
          "edges": [
            [
              17,
              1
            ],
            [
              18,
              1
            ],
            [
              19,
              -1
            ],
            [
              20,
              -1
            ]
          ]
        },
        {
          "edges": [
            [
              21,
              1
            ],
            [
              22,
              1
            ],
            [
              23,
              -1
            ],
            [
              5,
              -1
            ]
          ]
        },
        {
          "edges": [
            [
              24,
              1
            ],
            [
              25,
              1
            ],
            [
              17,
              -1
            ],
            [
              11,
              -1
            ]
          ]
        },
        {
          "edges": [
            [
              23,
              1
            ],
            [
              26,
              1
            ],
            [
              27,
              -1
            ],
            [
              15,
              -1
            ]
          ]
        },
        {
          "edges": [
            [
              18,
              -1
            ],
            [
              25,
              -1
            ],
            [
              28,
              -1
            ],
            [
              26,
              -1
            ],
            [
              22,
              -1
            ],
            [
              29,
              -1
            ]
          ]
        },
        {
          "edges": [
            [
              12,
              1
            ],
            [
              20,
              1
            ],
            [
              2,
              -1
            ],
            [
              30,
              1
            ]
          ]
        },
        {
          "edges": [
            [
              1,
              1
            ],
            [
              16,
              1
            ],
            [
              13,
              1
            ],
            [
              30,
              -1
            ]
          ]
        },
        {
          "edges": [
            [
              21,
              -1
            ],
            [
              4,
              -1
            ],
            [
              3,
              -1
            ],
            [
              19,
              1
            ],
            [
              29,
              1
            ]
          ]
        },
        {
          "edges": [
            [
              24,
              -1
            ],
            [
              10,
              -1
            ],
            [
              9,
              -1
            ],
            [
              27,
              1
            ],
            [
              28,
              1
            ]
          ]
        }
      ],
      "edges": [
        {
          "curve": [
            0,
            1
          ],
          "start": 0,
          "end": 1,
          "t": [
            0,
            2.416143718882394
          ],
          "extras": {
            "KITTYCAD": {
              "uuid": "b620e86e-3390-5b73-897e-9d5291058003"
            }
          }
        },
        {
          "curve": [
            1,
            1
          ],
          "start": 2,
          "end": 1,
          "t": [
            0,
            1
          ],
          "extras": {
            "KITTYCAD": {
              "uuid": "27912dba-5d21-5985-91f4-544c91330973"
            }
          }
        },
        {
          "curve": [
            2,
            1
          ],
          "start": 2,
          "end": 3,
          "t": [
            0,
            0.00010000000000000005
          ],
          "extras": {
            "KITTYCAD": {
              "uuid": "7b08fb01-658f-5ea7-bd1f-a6b091f7b205"
            }
          }
        },
        {
          "curve": [
            3,
            1
          ],
          "start": 3,
          "end": 4,
          "t": [
            0,
            0.09817477042465216
          ],
          "extras": {
            "KITTYCAD": {
              "uuid": "87aff83f-d3c4-56ed-9599-f534ec1dcd0a"
            }
          }
        },
        {
          "curve": [
            3,
            1
          ],
          "start": 4,
          "end": 5,
          "t": [
            0.09817477042465216,
            3.070736057252069
          ],
          "extras": {
            "KITTYCAD": {
              "uuid": "87aff83f-d3c4-56ed-9599-f534ec1dcd0a"
            }
          }
        },
        {
          "curve": [
            3,
            1
          ],
          "start": 5,
          "end": 6,
          "t": [
            3.070736057252069,
            3.141592653589793
          ],
          "extras": {
            "KITTYCAD": {
              "uuid": "87aff83f-d3c4-56ed-9599-f534ec1dcd0a"
            }
          }
        },
        {
          "curve": [
            4,
            1
          ],
          "start": 0,
          "end": 6,
          "t": [
            0,
            0.0008
          ],
          "extras": {
            "KITTYCAD": {
              "uuid": "09298752-a17f-548a-a3ea-1672df9d21b0"
            }
          }
        },
        {
          "curve": [
            5,
            1
          ],
          "start": 7,
          "end": 8,
          "t": [
            6.283185003441374,
            8.699328722323768
          ],
          "extras": {
            "KITTYCAD": {
              "uuid": "ed22babf-097a-522b-8ea6-c0fd4a48d939"
            }
          }
        },
        {
          "curve": [
            6,
            1
          ],
          "start": 8,
          "end": 9,
          "t": [
            0,
            0.0008
          ],
          "extras": {
            "KITTYCAD": {
              "uuid": "fbd99ed1-1a3d-5720-a57f-61901e074ff6"
            }
          }
        },
        {
          "curve": [
            7,
            1
          ],
          "start": 9,
          "end": 10,
          "t": [
            0,
            0.09817477042468098
          ],
          "extras": {
            "KITTYCAD": {
              "uuid": "28afb1bf-673f-5aeb-ac26-bbaa8de4ebf7"
            }
          }
        },
        {
          "curve": [
            7,
            1
          ],
          "start": 10,
          "end": 11,
          "t": [
            0.09817477042468098,
            3.070736057252069
          ],
          "extras": {
            "KITTYCAD": {
              "uuid": "28afb1bf-673f-5aeb-ac26-bbaa8de4ebf7"
            }
          }
        },
        {
          "curve": [
            7,
            1
          ],
          "start": 11,
          "end": 12,
          "t": [
            3.070736057252069,
            3.141592653589793
          ],
          "extras": {
            "KITTYCAD": {
              "uuid": "28afb1bf-673f-5aeb-ac26-bbaa8de4ebf7"
            }
          }
        },
        {
          "curve": [
            8,
            1
          ],
          "start": 13,
          "end": 12,
          "t": [
            0,
            0.00010000000000000005
          ],
          "extras": {
            "KITTYCAD": {
              "uuid": "9d1956dc-639c-5e45-8d36-42af9f5d62a0"
            }
          }
        },
        {
          "curve": [
            9,
            1
          ],
          "start": 7,
          "end": 13,
          "t": [
            0,
            1
          ],
          "extras": {
            "KITTYCAD": {
              "uuid": "f98e9b9b-d07b-5e84-914a-24a70ea06d8c"
            }
          }
        },
        {
          "curve": [
            10,
            1
          ],
          "start": 8,
          "end": 0,
          "t": [
            0,
            0.00391
          ],
          "extras": {
            "KITTYCAD": {
              "uuid": "5178ccdd-325b-5c19-ac1f-2742126e4fdc"
            }
          }
        },
        {
          "curve": [
            11,
            1
          ],
          "start": 6,
          "end": 9,
          "t": [
            0,
            0.00391
          ],
          "extras": {
            "KITTYCAD": {
              "uuid": "49972cb3-9307-54bb-9802-cce9f72a0bda"
            }
          }
        },
        {
          "curve": [
            12,
            1
          ],
          "start": 1,
          "end": 7,
          "t": [
            0,
            0.0075989
          ],
          "extras": {
            "KITTYCAD": {
              "uuid": "f482f92e-b19c-5352-9a17-a086123e74fa"
            }
          }
        },
        {
          "curve": [
            13,
            1
          ],
          "start": 12,
          "end": 14,
          "t": [
            0,
            1.5707963267948966
          ],
          "extras": {
            "KITTYCAD": {
              "uuid": "7ac91073-9d8f-570b-a722-251675b42ad9"
            }
          }
        },
        {
          "curve": [
            14,
            1
          ],
          "start": 14,
          "end": 15,
          "t": [
            0,
            0.00391
          ],
          "extras": {
            "KITTYCAD": {
              "uuid": "64e0c035-e34c-5324-a06c-8c131069ef20"
            }
          }
        },
        {
          "curve": [
            15,
            1
          ],
          "start": 3,
          "end": 15,
          "t": [
            0,
            1.5707963267948966
          ],
          "extras": {
            "KITTYCAD": {
              "uuid": "49b1006a-c36b-5e58-9e77-e599a0d4e202"
            }
          }
        },
        {
          "curve": [
            16,
            1
          ],
          "start": 12,
          "end": 3,
          "t": [
            0,
            0.00391
          ],
          "extras": {
            "KITTYCAD": {
              "uuid": "2bad87be-5e31-5d06-a246-ed8f2fab23c9"
            }
          }
        },
        {
          "curve": [
            17,
            -1
          ],
          "start": 5,
          "end": 16,
          "t": [
            4.71238898038469,
            6.283185307179586
          ]
        },
        {
          "curve": [
            18,
            1
          ],
          "start": 16,
          "end": 17,
          "t": [
            3.070736057252069,
            3.141592653589793
          ],
          "extras": {
            "KITTYCAD": {
              "uuid": "b6238f19-9b61-56f8-b2d3-39435d1660b6"
            }
          }
        },
        {
          "curve": [
            19,
            1
          ],
          "start": 6,
          "end": 17,
          "t": [
            0,
            1.5707963267948966
          ],
          "extras": {
            "KITTYCAD": {
              "uuid": "29e5dd26-776d-5bb8-83f2-e40053fc024a"
            }
          }
        },
        {
          "curve": [
            20,
            -1
          ],
          "start": 11,
          "end": 18,
          "t": [
            4.71238898038469,
            6.283185307179586
          ]
        },
        {
          "curve": [
            21,
            1
          ],
          "start": 18,
          "end": 14,
          "t": [
            3.070736057252069,
            3.141592653589793
          ],
          "extras": {
            "KITTYCAD": {
              "uuid": "0ab187f4-712f-56d2-be7f-c1153d76640e"
            }
          }
        },
        {
          "curve": [
            22,
            1
          ],
          "start": 17,
          "end": 19,
          "t": [
            0,
            0.00391
          ],
          "extras": {
            "KITTYCAD": {
              "uuid": "ceb2329d-ca41-527c-8e60-5622e7935015"
            }
          }
        },
        {
          "curve": [
            23,
            1
          ],
          "start": 9,
          "end": 19,
          "t": [
            0,
            1.5707963267948966
          ],
          "extras": {
            "KITTYCAD": {
              "uuid": "b6d062d9-3ac3-589a-9ec0-603f36babc5e"
            }
          }
        },
        {
          "curve": [
            21,
            1
          ],
          "start": 19,
          "end": 18,
          "t": [
            0,
            3.070736057252069
          ],
          "extras": {
            "KITTYCAD": {
              "uuid": "0ab187f4-712f-56d2-be7f-c1153d76640e"
            }
          }
        },
        {
          "curve": [
            18,
            1
          ],
          "start": 15,
          "end": 16,
          "t": [
            0,
            3.070736057252069
          ],
          "extras": {
            "KITTYCAD": {
              "uuid": "b6238f19-9b61-56f8-b2d3-39435d1660b6"
            }
          }
        },
        {
          "curve": [
            24,
            1
          ],
          "start": 2,
          "end": 13,
          "t": [
            0,
            0.00391
          ],
          "extras": {
            "KITTYCAD": {
              "uuid": "498dfd37-5114-54e6-a175-c4df7742673c"
            }
          }
        }
      ],
      "vertices": [
        [
          -0.00278,
          0,
          0.00391
        ],
        [
          0.00208,
          0,
          0.00575445
        ],
        [
          0.00278,
          0.0007,
          0.00391
        ],
        [
          0.00278,
          0.0008,
          0.00391
        ],
        [
          0.002766613540148715,
          0.0008,
          0.0041824876501160985
        ],
        [
          -0.0027730242057521864,
          0.0008,
          0.004106816549894704
        ],
        [
          -0.00278,
          0.0008,
          0.00391
        ],
        [
          0.00208,
          0,
          -0.00184445
        ],
        [
          -0.00278,
          0,
          -0
        ],
        [
          -0.00278,
          0.0008,
          -0
        ],
        [
          -0.0027666135401487072,
          0.0008,
          -0.0002724876501161783
        ],
        [
          0.0027730242057521864,
          0.0008,
          -0.00019681654989470347
        ],
        [
          0.00278,
          0.0008,
          0
        ],
        [
          0.00278,
          0.0007,
          -0
        ],
        [
          0.00258,
          0.001,
          0
        ],
        [
          0.00258,
          0.001,
          0.00391
        ],
        [
          -0.002573526061453468,
          0.001,
          0.004092657085873502
        ],
        [
          -0.00258,
          0.001,
          0.00391
        ],
        [
          0.002573526061453468,
          0.001,
          -0.00018265708587350175
        ],
        [
          -0.00258,
          0.001,
          -0
        ]
      ],
      "surfaces": [
        {
          "type": "cylinder",
          "cylinder": {
            "xAxis": [
              -1,
              0,
              0
            ],
            "yAxis": [
              0,
              0,
              1
            ],
            "origin": [
              -0,
              0.0005,
              0.00391
            ],
            "radius": 0.00278
          },
          "extras": {
            "KITTYCAD": {
              "uuid": "7926dff1-e627-54c1-bbce-d64612f32d6b"
            }
          }
        },
        {
          "type": "cylinder",
          "cylinder": {
            "xAxis": [
              1,
              0,
              0
            ],
            "yAxis": [
              0,
              0,
              -1
            ],
            "origin": [
              0,
              0.0005,
              0
            ],
            "radius": 0.00278
          },
          "extras": {
            "KITTYCAD": {
              "uuid": "2147b1bc-0e86-58cf-b979-a1abcf613618"
            }
          }
        },
        {
          "type": "plane",
          "plane": {
            "xAxis": [
              0,
              1,
              0
            ],
            "yAxis": [
              0,
              0,
              -1
            ],
            "origin": [
              -0.00278,
              0.0005,
              0.001955
            ]
          },
          "extras": {
            "KITTYCAD": {
              "uuid": "dc700ece-abf1-5d4d-b57d-8fa8eecf901d"
            }
          }
        },
        {
          "type": "plane",
          "plane": {
            "xAxis": [
              1,
              0,
              0
            ],
            "yAxis": [
              0,
              0,
              -1
            ],
            "origin": [
              0,
              0,
              -0
            ]
          },
          "extras": {
            "KITTYCAD": {
              "uuid": "57dcebaf-f488-5f18-a3d0-8a7c5e588523"
            }
          }
        },
        {
          "type": "cylinder",
          "cylinder": {
            "xAxis": [
              1,
              -0,
              -0
            ],
            "yAxis": [
              0,
              1,
              0
            ],
            "origin": [
              0.00258,
              0.0008,
              0.001955
            ],
            "radius": 0.0002
          },
          "extras": {
            "KITTYCAD": {
              "uuid": "72dddee3-1330-5c4f-b767-659f762ad674"
            }
          }
        },
        {
          "type": "torus",
          "torus": {
            "xAxis": [
              0.9974907214935924,
              0,
              -0.07079732010600834
            ],
            "yAxis": [
              0.07079732010600834,
              0,
              0.9974907214935924
            ],
            "origin": [
              -0,
              0.0008,
              0.00391
            ],
            "majorRadius": 0.00258,
            "minorRadius": 0.0002
          },
          "extras": {
            "KITTYCAD": {
              "uuid": "9700197b-45f4-5326-aea5-9ad8044a1658"
            }
          }
        },
        {
          "type": "torus",
          "torus": {
            "xAxis": [
              -0.9974907214935924,
              0,
              0.07079732010600834
            ],
            "yAxis": [
              -0.07079732010600834,
              -0,
              -0.9974907214935924
            ],
            "origin": [
              0,
              0.0008,
              0
            ],
            "majorRadius": 0.00258,
            "minorRadius": 0.0002
          },
          "extras": {
            "KITTYCAD": {
              "uuid": "01d0bb6a-52f1-5551-8109-5992382e6bd1"
            }
          }
        },
        {
          "type": "cylinder",
          "cylinder": {
            "xAxis": [
              -1,
              -0,
              0
            ],
            "yAxis": [
              0,
              1,
              0
            ],
            "origin": [
              -0.00258,
              0.0008,
              0.001955
            ],
            "radius": 0.0002
          },
          "extras": {
            "KITTYCAD": {
              "uuid": "d27c391a-48c5-5870-82af-504bc5a5ef5e"
            }
          }
        },
        {
          "type": "plane",
          "plane": {
            "xAxis": [
              1,
              0,
              0
            ],
            "yAxis": [
              0,
              0,
              -1
            ],
            "origin": [
              0,
              0.001,
              -0
            ]
          },
          "extras": {
            "KITTYCAD": {
              "uuid": "6cbdfc69-8158-576b-9986-f2cbbea98a73"
            }
          }
        },
        {
          "type": "plane",
          "plane": {
            "xAxis": [
              -0,
              1,
              0
            ],
            "yAxis": [
              0,
              -0,
              1
            ],
            "origin": [
              0.00278,
              0.0005,
              0.001955
            ]
          },
          "extras": {
            "KITTYCAD": {
              "uuid": "63a00bb7-2cd9-55fe-99a4-505985ed010d"
            }
          }
        },
        {
          "type": "cylinder",
          "cylinder": {
            "xAxis": [
              0,
              -1,
              0
            ],
            "yAxis": [
              1,
              0,
              -0
            ],
            "origin": [
              0.00208,
              0.0007,
              0.001955
            ],
            "radius": 0.0007
          },
          "extras": {
            "KITTYCAD": {
              "uuid": "eedabccb-e42b-5224-a499-7c2981b239e5"
            }
          }
        }
      ],
      "curves3D": [
        {
          "type": "circle",
          "circle": {
            "xAxis": [
              -1,
              0,
              0
            ],
            "yAxis": [
              0,
              -0,
              1
            ],
            "origin": [
              0,
              0,
              0.00391
            ],
            "radius": 0.00278
          }
        },
        {
          "type": "nurbs",
          "nurbs": {
            "controlPoints": [
              [
                0.00278,
                0.0007,
                0.00391
              ],
              [
                0.00278,
                0.00069447,
                0.00392103
              ],
              [
                0.0027799,
                0.00068616,
                0.00393758
              ],
              [
                0.00277957,
                0.00067508,
                0.00395966
              ],
              [
                0.00277923,
                0.00066676,
                0.00397626
              ],
              [
                0.00277878,
                0.00065843,
                0.00399287
              ],
              [
                0.00277824,
                0.0006501,
                0.00400948
              ],
              [
                0.00277759,
                0.00064178,
                0.00402609
              ],
              [
                0.00277685,
                0.00063348,
                0.00404268
              ],
              [
                0.00277601,
                0.00062518,
                0.00405926
              ],
              [
                0.00277507,
                0.00061691,
                0.00407581
              ],
              [
                0.00277391,
                0.00060773,
                0.00409418
              ],
              [
                0.00277238,
                0.00059673,
                0.00411621
              ],
              [
                0.00277035,
                0.00058392,
                0.00414193
              ],
              [
                0.00276807,
                0.00057112,
                0.00416766
              ],
              [
                0.00276591,
                0.00056015,
                0.00418974
              ],
              [
                0.00276398,
                0.00055102,
                0.00420818
              ],
              [
                0.00276193,
                0.00054189,
                0.00422662
              ],
              [
                0.00275954,
                0.00053188,
                0.00424688
              ],
              [
                0.00275676,
                0.00052101,
                0.00426895
              ],
              [
                0.00275405,
                0.00051108,
                0.00428914
              ],
              [
                0.00275146,
                0.00050208,
                0.00430747
              ],
              [
                0.00274902,
                0.000494,
                0.00432398
              ],
              [
                0.00274648,
                0.00048593,
                0.00434049
              ],
              [
                0.00274384,
                0.00047788,
                0.00435702
              ],
              [
                0.0027411,
                0.00046983,
                0.00437356
              ],
              [
                0.00273825,
                0.0004618,
                0.00439011
              ],
              [
                0.00273529,
                0.0004538,
                0.00440665
              ],
              [
                0.00273224,
                0.00044583,
                0.00442316
              ],
              [
                0.00272909,
                0.00043789,
                0.00443966
              ],
              [
                0.00272584,
                0.00042998,
                0.00445614
              ],
              [
                0.00272249,
                0.0004221,
                0.00447261
              ],
              [
                0.00271904,
                0.00041425,
                0.00448907
              ],
              [
                0.00271548,
                0.00040643,
                0.00450551
              ],
              [
                0.00271183,
                0.00039864,
                0.00452195
              ],
              [
                0.00270807,
                0.00039088,
                0.00453838
              ],
              [
                0.00270421,
                0.00038316,
                0.00455478
              ],
              [
                0.00270025,
                0.00037548,
                0.00457117
              ],
              [
                0.00269573,
                0.00036697,
                0.00458939
              ],
              [
                0.00269061,
                0.00035765,
                0.00460943
              ],
              [
                0.00268483,
                0.00034754,
                0.00463129
              ],
              [
                0.00267887,
                0.0003375,
                0.00465313
              ],
              [
                0.00267272,
                0.00032753,
                0.00467495
              ],
              [
                0.00266639,
                0.00031764,
                0.00469674
              ],
              [
                0.00266041,
                0.00030865,
                0.00471669
              ],
              [
                0.00265485,
                0.00030053,
                0.0047348
              ],
              [
                0.00264973,
                0.00029327,
                0.00475108
              ],
              [
                0.00264451,
                0.00028605,
                0.00476735
              ],
              [
                0.00263919,
                0.0002789,
                0.00478359
              ],
              [
                0.00263377,
                0.00027179,
                0.00479981
              ],
              [
                0.00262762,
                0.00026394,
                0.00481783
              ],
              [
                0.00262069,
                0.00025537,
                0.00483765
              ],
              [
                0.00261294,
                0.00024611,
                0.00485926
              ],
              [
                0.00260566,
                0.0002377,
                0.00487906
              ],
              [
                0.00259889,
                0.00023013,
                0.00489705
              ],
              [
                0.00259269,
                0.00022336999999999997,
                0.00491323
              ],
              [
                0.00258638,
                0.00021666999999999997,
                0.00492939
              ],
              [
                0.00257996,
                0.00021004,
                0.00494551
              ],
              [
                0.00257344,
                0.00020346999999999995,
                0.00496161
              ],
              [
                0.00256682,
                0.00019697,
                0.00497768
              ],
              [
                0.00256009,
                0.00019054,
                0.00499373
              ],
              [
                0.00255324,
                0.00018418000000000004,
                0.00500976
              ],
              [
                0.00254628,
                0.00017787999999999994,
                0.00502577
              ],
              [
                0.00253922,
                0.00017164999999999997,
                0.00504176
              ],
              [
                0.00253204,
                0.00016549999999999996,
                0.00505773
              ],
              [
                0.00252475,
                0.00015941999999999996,
                0.00507367
              ],
              [
                0.00251735,
                0.00015342000000000003,
                0.00508959
              ],
              [
                0.00250984,
                0.00014749,
                0.00510548
              ],
              [
                0.00250222,
                0.00014164000000000006,
                0.00512136
              ],
              [
                0.00249448,
                0.0001358700000000001,
                0.00513722
              ],
              [
                0.00248663,
                0.00013018999999999997,
                0.00515306
              ],
              [
                0.00247866,
                0.00012458,
                0.00516887
              ],
              [
                0.00247058,
                0.00011906999999999998,
                0.00518465
              ],
              [
                0.00246148,
                0.00011304000000000002,
                0.00520216
              ],
              [
                0.00245038,
                0.00010596,
                0.00522311
              ],
              [
                0.00243623,
                0.00009732999999999996,
                0.00524923
              ],
              [
                0.00242077,
                0.00008845000000000001,
                0.00527699
              ],
              [
                0.00240591,
                0.00008043999999999998,
                0.00530292
              ],
              [
                0.0023928,
                0.00007371999999999999,
                0.00532532
              ],
              [
                0.00238048,
                0.00006771999999999995,
                0.00534593
              ],
              [
                0.00236797,
                0.00006192000000000003,
                0.00536648
              ],
              [
                0.00235631,
                0.00005679999999999997,
                0.00538525
              ],
              [
                0.00234556,
                0.000052300000000000024,
                0.00540227
              ],
              [
                0.00233577,
                0.000048369999999999945,
                0.00541754
              ],
              [
                0.00232587,
                0.00004456999999999996,
                0.00543278
              ],
              [
                0.00231585,
                0.00004090000000000007,
                0.00544797
              ],
              [
                0.00230571,
                0.00003736000000000006,
                0.00546313
              ],
              [
                0.00229546,
                0.00003395999999999998,
                0.00547823
              ],
              [
                0.00228511,
                0.00003068999999999999,
                0.00549329
              ],
              [
                0.00227464,
                0.00002756999999999998,
                0.00550829
              ],
              [
                0.00226406,
                0.000024599999999999947,
                0.00552324
              ],
              [
                0.00225337,
                0.00002178,
                0.00553814
              ],
              [
                0.00224256,
                0.000019110000000000025,
                0.00555299
              ],
              [
                0.00223165,
                0.00001659000000000003,
                0.00556779
              ],
              [
                0.00222061,
                0.00001424,
                0.00558254
              ],
              [
                0.00220946,
                0.000012039999999999946,
                0.00559725
              ],
              [
                0.00219819,
                0.000010020000000000016,
                0.00561191
              ],
              [
                0.00218681,
                0.000008160000000000003,
                0.0056265
              ],
              [
                0.00217533,
                0.000006489999999999946,
                0.00564103
              ],
              [
                0.00216376,
                0.000005000000000000013,
                0.00565547
              ],
              [
                0.00215209,
                0.0000036899999999999863,
                0.00566984
              ],
              [
                0.00214033,
                0.0000025700000000000245,
                0.00568412
              ],
              [
                0.00212847,
                0.0000016499999999999588,
                0.00569834
              ],
              [
                0.0021165,
                0.0000009199999999999572,
                0.00571248
              ],
              [
                0.00210041,
                0.0000002199999999999945,
                0.00573124
              ],
              [
                0.0020882,
                0,
                0.0057452
              ],
              [
                0.00208,
                0,
                0.00575445
              ]
            ],
            "order": 4,
            "knotVector": [
              0,
              0,
              0,
              0,
              0.01719103,
              0.02580247,
              0.03442889,
              0.04306628,
              0.05170448,
              0.0603357,
              0.0689601,
              0.07757908,
              0.0861883,
              0.09478426,
              0.10623689,
              0.12056734,
              0.13491271,
              0.14641097,
              0.15505272,
              0.16370347,
              0.17522304,
              0.18672222,
              0.19820126,
              0.20680046,
              0.21540788,
              0.22402628,
              0.23265493,
              0.2412946,
              0.249942,
              0.25858714,
              0.26722201,
              0.27584782,
              0.28447024,
              0.29309114,
              0.3017105,
              0.31033035,
              0.31895044,
              0.32756581,
              0.33617365,
              0.34477857,
              0.35338841,
              0.36488435,
              0.37638894,
              0.38789787,
              0.3994005,
              0.41089619,
              0.42238678,
              0.43100422,
              0.43962162,
              0.44823344,
              0.45683743,
              0.46543893,
              0.47404568,
              0.48553562,
              0.49703338,
              0.50853862,
              0.51717711,
              0.52581955,
              0.53445819,
              0.54308739,
              0.55170854,
              0.56032652,
              0.56894355,
              0.57756075,
              0.58618075,
              0.59480353,
              0.60342448,
              0.61204027,
              0.62065369,
              0.62927008,
              0.63789123,
              0.64651555,
              0.65514143,
              0.66376741,
              0.67239175,
              0.68101344,
              0.69250595,
              0.70687183,
              0.72411287,
              0.73848188,
              0.74997752,
              0.76147302,
              0.77296844,
              0.78446329,
              0.79308293,
              0.80170246,
              0.81032428,
              0.81894954,
              0.82757664,
              0.83620221,
              0.84482384,
              0.85344222,
              0.86206007,
              0.87067866,
              0.87929655,
              0.8879148,
              0.89653942,
              0.90517434,
              0.91381572,
              0.92245599,
              0.93109077,
              0.93971779,
              0.94833419,
              0.95694142,
              0.96554693,
              0.97415779,
              0.98277406,
              1,
              1,
              1,
              1
            ]
          }
        },
        {
          "type": "line",
          "line": {
            "origin": [
              0.00278,
              0.0007,
              0.00391
            ],
            "direction": [
              0,
              1,
              0
            ]
          }
        },
        {
          "type": "circle",
          "circle": {
            "xAxis": [
              1,
              0,
              0
            ],
            "yAxis": [
              -0,
              0,
              1
            ],
            "origin": [
              0,
              0.0008,
              0.00391
            ],
            "radius": 0.00278
          }
        },
        {
          "type": "line",
          "line": {
            "origin": [
              -0.00278,
              0,
              0.00391
            ],
            "direction": [
              0,
              1,
              0
            ]
          }
        },
        {
          "type": "circle",
          "circle": {
            "xAxis": [
              0.7482014405114217,
              0,
              -0.6634716304535059
            ],
            "yAxis": [
              -0.6634716304535059,
              0,
              -0.7482014405114217
            ],
            "origin": [
              0,
              0,
              0
            ],
            "radius": 0.00278
          }
        },
        {
          "type": "line",
          "line": {
            "origin": [
              -0.00278,
              0,
              0
            ],
            "direction": [
              0,
              1,
              0
            ]
          }
        },
        {
          "type": "circle",
          "circle": {
            "xAxis": [
              -1,
              0,
              0
            ],
            "yAxis": [
              -0,
              -0,
              -1
            ],
            "origin": [
              0,
              0.0008,
              0
            ],
            "radius": 0.00278
          }
        },
        {
          "type": "line",
          "line": {
            "origin": [
              0.00278,
              0.0007,
              0
            ],
            "direction": [
              0,
              1,
              0
            ]
          }
        },
        {
          "type": "nurbs",
          "nurbs": {
            "controlPoints": [
              [
                0.00208,
                0,
                -0.00184445
              ],
              [
                0.00208624,
                0,
                -0.00183742
              ],
              [
                0.00209555,
                0.0000001299999999999869,
                -0.00182681
              ],
              [
                0.00210889,
                0.0000005699999999999759,
                -0.00181138
              ],
              [
                0.00212114,
                0.00000116000000000005,
                -0.0017970299999999998
              ],
              [
                0.00213532,
                0.0000021300000000000355,
                -0.0017801700000000002
              ],
              [
                0.00214935,
                0.0000033999999999999742,
                -0.00176319
              ],
              [
                0.00216127,
                0.000004710000000000001,
                -0.0017485399999999998
              ],
              [
                0.00217113,
                0.00000593999999999996,
                -0.0017362699999999998
              ],
              [
                0.00217994,
                0.000007150000000000038,
                -0.0017252
              ],
              [
                0.00218868,
                0.000008470000000000005,
                -0.0017141
              ],
              [
                0.00219735,
                0.000009890000000000027,
                -0.0017029699999999998
              ],
              [
                0.00220595,
                0.00001141,
                -0.00169182
              ],
              [
                0.00221449,
                0.00001301999999999998,
                -0.0016806299999999998
              ],
              [
                0.00222296,
                0.000014739999999999955,
                -0.00166941
              ],
              [
                0.00223137,
                0.00001654,
                -0.0016581499999999995
              ],
              [
                0.00223971,
                0.00001845000000000004,
                -0.00164687
              ],
              [
                0.00224799,
                0.000020439999999999933,
                -0.00163555
              ],
              [
                0.0022562,
                0.00002251999999999994,
                -0.0016242
              ],
              [
                0.00226435,
                0.000024690000000000063,
                -0.00161282
              ],
              [
                0.00227243,
                0.000026949999999999977,
                -0.0016014100000000002
              ],
              [
                0.00228045,
                0.000029300000000000007,
                -0.00158997
              ],
              [
                0.00228841,
                0.000031729999999999996,
                -0.0015785
              ],
              [
                0.00229629,
                0.00003423999999999994,
                -0.0015669999999999998
              ],
              [
                0.00230412,
                0.00003682999999999996,
                -0.0015554799999999995
              ],
              [
                0.00231187,
                0.00003949999999999993,
                -0.0015439299999999998
              ],
              [
                0.00231956,
                0.00004224999999999997,
                -0.00153236
              ],
              [
                0.00232718,
                0.00004507999999999997,
                -0.00152076
              ],
              [
                0.00233473,
                0.000047979999999999984,
                -0.00150913
              ],
              [
                0.00234306,
                0.00005128000000000001,
                -0.00149619
              ],
              [
                0.00235294,
                0.00005537000000000001,
                -0.0014806200000000002
              ],
              [
                0.00236512,
                0.000060639999999999934,
                -0.0014611
              ],
              [
                0.0023787,
                0.00006687000000000002,
                -0.0014389
              ],
              [
                0.00239203,
                0.00007333999999999997,
                -0.00141662
              ],
              [
                0.00240359,
                0.00007924000000000006,
                -0.00139689
              ],
              [
                0.0024127,
                0.00008408999999999999,
                -0.0013810799999999998
              ],
              [
                0.0024202,
                0.00008821000000000002,
                -0.0013678700000000002
              ],
              [
                0.00242689,
                0.00009197999999999996,
                -0.0013559699999999995
              ],
              [
                0.00243352,
                0.00009581,
                -0.0013440500000000005
              ],
              [
                0.00244007,
                0.00009969000000000004,
                -0.00133211
              ],
              [
                0.00244656,
                0.00010363000000000006,
                -0.00132015
              ],
              [
                0.00245299,
                0.00010762999999999994,
                -0.00130818
              ],
              [
                0.00245934,
                0.00011167999999999996,
                -0.00129618
              ],
              [
                0.00246563,
                0.00011579000000000006,
                -0.0012841800000000002
              ],
              [
                0.00247186,
                0.00011994000000000002,
                -0.00127215
              ],
              [
                0.00247802,
                0.00012415000000000006,
                -0.00126011
              ],
              [
                0.00248411,
                0.00012841000000000005,
                -0.0012480499999999997
              ],
              [
                0.00249081,
                0.0001332,
                -0.00123464
              ],
              [
                0.00249875,
                0.00013902999999999995,
                -0.0012185199999999998
              ],
              [
                0.00250785,
                0.00014592999999999995,
                -0.0011996899999999998
              ],
              [
                0.00251679,
                0.00015296000000000005,
                -0.00118081
              ],
              [
                0.00252432,
                0.00015906999999999998,
                -0.0011646
              ],
              [
                0.00253051,
                0.00016421999999999997,
                -0.0011510699999999997
              ],
              [
                0.00253602,
                0.00016890999999999998,
                -0.00113888
              ],
              [
                0.00254147,
                0.00017363000000000003,
                -0.0011266799999999997
              ],
              [
                0.00254685,
                0.0001784,
                -0.0011144600000000005
              ],
              [
                0.00255216,
                0.0001832,
                -0.00110224
              ],
              [
                0.00255741,
                0.00018804,
                -0.0010900099999999998
              ],
              [
                0.00256259,
                0.00019293,
                -0.00107777
              ],
              [
                0.00256827,
                0.00019839,
                -0.0010641699999999997
              ],
              [
                0.002575,
                0.0002050099999999999,
                -0.00104782
              ],
              [
                0.00258325,
                0.00021338,
                -0.0010273499999999998
              ],
              [
                0.00259184,
                0.00022243,
                -0.00100547
              ],
              [
                0.0025997,
                0.00023101999999999997,
                -0.0009849300000000002
              ],
              [
                0.00260638,
                0.00023853000000000004,
                -0.0009671100000000002
              ],
              [
                0.00261243,
                0.00024552,
                -0.00095064
              ],
              [
                0.00261837,
                0.00025258,
                -0.00093416
              ],
              [
                0.00262371,
                0.00025909,
                -0.00091904
              ],
              [
                0.00262849,
                0.00026505,
                -0.00090527
              ],
              [
                0.00263272,
                0.00027045,
                -0.00089288
              ],
              [
                0.00263689,
                0.00027587,
                -0.0008804900000000003
              ],
              [
                0.00264146,
                0.00028193,
                -0.0008666999999999998
              ],
              [
                0.00264685,
                0.00028925,
                -0.0008501300000000002
              ],
              [
                0.00265342,
                0.00029846,
                -0.00082941
              ],
              [
                0.00266066,
                0.00030899,
                -0.00080591
              ],
              [
                0.00266767,
                0.00031961,
                -0.00078239
              ],
              [
                0.00267366,
                0.00032906,
                -0.0007616100000000002
              ],
              [
                0.00267834,
                0.00033667,
                -0.0007449700000000002
              ],
              [
                0.00268215,
                0.00034303,
                -0.0007311000000000002
              ],
              [
                0.0026859,
                0.00034943,
                -0.0007172100000000002
              ],
              [
                0.00269031,
                0.00035714,
                -0.0007005399999999999
              ],
              [
                0.00269567,
                0.00036683,
                -0.0006796699999999998
              ],
              [
                0.00270153,
                0.00037789,
                -0.0006559999999999999
              ],
              [
                0.00270717,
                0.00038902,
                -0.00063232
              ],
              [
                0.00271195,
                0.00039888,
                -0.00061143
              ],
              [
                0.00271566,
                0.00040681,
                -0.00059472
              ],
              [
                0.00271867,
                0.00041344,
                -0.0005807799999999999
              ],
              [
                0.00272161,
                0.00042009,
                -0.0005668299999999999
              ],
              [
                0.00272506,
                0.00042809,
                -0.0005500800000000001
              ],
              [
                0.00272921,
                0.00043814,
                -0.00052913
              ],
              [
                0.00273372,
                0.00044959,
                -0.0005053699999999998
              ],
              [
                0.00273825,
                0.00046176,
                -0.0004801900000000002
              ],
              [
                0.00274231,
                0.00047331,
                -0.0004563900000000001
              ],
              [
                0.00274572,
                0.00048354,
                -0.0004353899999999999
              ],
              [
                0.00274832,
                0.00049175,
                -0.00041858
              ],
              [
                0.00275041,
                0.0004986,
                -0.0004045799999999998
              ],
              [
                0.00275224,
                0.00050479,
                -0.0003919600000000002
              ],
              [
                0.00275401,
                0.00051098,
                -0.00037934000000000015
              ],
              [
                0.00275572,
                0.00051718,
                -0.00036672000000000007
              ],
              [
                0.00275737,
                0.0005234,
                -0.0003541
              ],
              [
                0.00275914,
                0.00053032,
                -0.00034005000000000016
              ],
              [
                0.00276117,
                0.00053865,
                -0.00032318000000000017
              ],
              [
                0.00276341,
                0.00054838,
                -0.00030349999999999995
              ],
              [
                0.00276549,
                0.00055813,
                -0.0002838300000000001
              ],
              [
                0.00276716,
                0.00056649,
                -0.00026698999999999994
              ],
              [
                0.00276848,
                0.00057346,
                -0.00025296
              ],
              [
                0.0027696,
                0.00057973,
                -0.00024034999999999985
              ],
              [
                0.00277067,
                0.00058601,
                -0.00022774000000000015
              ],
              [
                0.00277168,
                0.0005923,
                -0.00021511000000000013
              ],
              [
                0.00277263,
                0.0005986,
                -0.00020247000000000017
              ],
              [
                0.00277362,
                0.00060561,
                -0.0001884199999999999
              ],
              [
                0.00277463,
                0.00061333,
                -0.00017295999999999978
              ],
              [
                0.00277563,
                0.00062176,
                -0.00015609000000000022
              ],
              [
                0.00277645,
                0.0006295,
                -0.0001406300000000001
              ],
              [
                0.00277713,
                0.00063654,
                -0.0001265699999999999
              ],
              [
                0.00277774,
                0.00064358,
                -0.00011251000000000011
              ],
              [
                0.00277832,
                0.00065133,
                -0.00009703000000000012
              ],
              [
                0.00277886,
                0.0006598,
                -0.00008013999999999981
              ],
              [
                0.00277926,
                0.00066756,
                -0.0000646599999999998
              ],
              [
                0.00277955,
                0.00067462,
                -0.00005058000000000016
              ],
              [
                0.00277975,
                0.00068097,
                -0.00003792999999999982
              ],
              [
                0.00277994,
                0.00068943,
                -0.000021070000000000203
              ],
              [
                0.00278,
                0.00069577,
                -0.00000842999999999981
              ],
              [
                0.00278,
                0.0007,
                0
              ]
            ],
            "order": 4,
            "knotVector": [
              0,
              0,
              0,
              0,
              0.01310135,
              0.01966402,
              0.0284295,
              0.03940225,
              0.05038438,
              0.05917966,
              0.06578066,
              0.07237983,
              0.07897152,
              0.08555415,
              0.09213207,
              0.09871036,
              0.1052895,
              0.11186796,
              0.11844668,
              0.12502669,
              0.13160627,
              0.13818387,
              0.14476091,
              0.15133974,
              0.15792036,
              0.16450108,
              0.17108086,
              0.17765991,
              0.18423884,
              0.1908179,
              0.1973967,
              0.20397495,
              0.21274629,
              0.22371179,
              0.23687138,
              0.25003083,
              0.26099619,
              0.26976776,
              0.27634661,
              0.2829259,
              0.28950506,
              0.29608368,
              0.3026622,
              0.30924106,
              0.31581988,
              0.32239835,
              0.32897699,
              0.33555631,
              0.3421359,
              0.34871497,
              0.35748602,
              0.36845005,
              0.37941472,
              0.38818819,
              0.39477086,
              0.40135538,
              0.40793993,
              0.41452258,
              0.42110264,
              0.42768002,
              0.43425428,
              0.44082618,
              0.44959178,
              0.46055652,
              0.47371842,
              0.48468686,
              0.49345749,
              0.50222657,
              0.51099817,
              0.51977179,
              0.52635113,
              0.5329277,
              0.53950418,
              0.54608377,
              0.55486045,
              0.56582722,
              0.57898116,
              0.59213203,
              0.60309329,
              0.61186583,
              0.6184444,
              0.62502107,
              0.63379528,
              0.64477091,
              0.65794143,
              0.67110188,
              0.68205795,
              0.69081706,
              0.69738859,
              0.70396592,
              0.71273949,
              0.72370298,
              0.73685826,
              0.75001809,
              0.76318081,
              0.77414728,
              0.78291441,
              0.78949083,
              0.79607214,
              0.80265302,
              0.8092302,
              0.81580927,
              0.82239708,
              0.83118956,
              0.84217331,
              0.85314882,
              0.86191664,
              0.86848161,
              0.87504159,
              0.88160465,
              0.88817604,
              0.89475275,
              0.90132894,
              0.91009731,
              0.91886807,
              0.92764108,
              0.93422,
              0.94079685,
              0.94957128,
              0.9583506,
              0.96713277,
              0.97371601,
              0.98029258,
              0.98686333,
              1,
              1,
              1,
              1
            ]
          }
        },
        {
          "type": "line",
          "line": {
            "origin": [
              -0.00278,
              0,
              -0
            ],
            "direction": [
              0,
              0,
              1
            ]
          }
        },
        {
          "type": "line",
          "line": {
            "origin": [
              -0.00278,
              0.0008,
              0.00391
            ],
            "direction": [
              0,
              0,
              -1
            ]
          }
        },
        {
          "type": "line",
          "line": {
            "origin": [
              0.00208,
              0,
              0.00575445
            ],
            "direction": [
              0,
              0,
              -1
            ]
          }
        },
        {
          "type": "circle",
          "circle": {
            "xAxis": [
              1,
              0,
              -0
            ],
            "yAxis": [
              -0,
              1,
              0
            ],
            "origin": [
              0.00258,
              0.0008,
              0
            ],
            "radius": 0.0002
          }
        },
        {
          "type": "line",
          "line": {
            "origin": [
              0.00258,
              0.001,
              0
            ],
            "direction": [
              0,
              0,
              1
            ]
          }
        },
        {
          "type": "circle",
          "circle": {
            "xAxis": [
              1,
              0,
              -0
            ],
            "yAxis": [
              -0,
              1,
              0
            ],
            "origin": [
              0.00258,
              0.0008,
              0.00391
            ],
            "radius": 0.0002
          }
        },
        {
          "type": "line",
          "line": {
            "origin": [
              0.00278,
              0.0008,
              0
            ],
            "direction": [
              0,
              0,
              1
            ]
          }
        },
        {
          "type": "circle",
          "circle": {
            "xAxis": [
              -0.9974907214935924,
              0,
              0.07079732010600846
            ],
            "yAxis": [
              0,
              -1,
              0
            ],
            "origin": [
              -0.002573526061453468,
              0.0008,
              0.004092657085873502
            ],
            "radius": 0.0002
          }
        },
        {
          "type": "circle",
          "circle": {
            "xAxis": [
              1,
              0,
              0
            ],
            "yAxis": [
              -0,
              0,
              1
            ],
            "origin": [
              -0,
              0.001,
              0.00391
            ],
            "radius": 0.00258
          }
        },
        {
          "type": "circle",
          "circle": {
            "xAxis": [
              -1,
              0,
              0
            ],
            "yAxis": [
              0,
              1,
              0
            ],
            "origin": [
              -0.00258,
              0.0008,
              0.00391
            ],
            "radius": 0.0002
          }
        },
        {
          "type": "circle",
          "circle": {
            "xAxis": [
              0.9974907214935924,
              0,
              -0.07079732010600846
            ],
            "yAxis": [
              0,
              -1,
              -0
            ],
            "origin": [
              0.002573526061453468,
              0.0008,
              -0.00018265708587350183
            ],
            "radius": 0.0002
          }
        },
        {
          "type": "circle",
          "circle": {
            "xAxis": [
              -1,
              0,
              -0
            ],
            "yAxis": [
              0,
              0,
              -1
            ],
            "origin": [
              0,
              0.001,
              0
            ],
            "radius": 0.00258
          }
        },
        {
          "type": "line",
          "line": {
            "origin": [
              -0.00258,
              0.001,
              0.00391
            ],
            "direction": [
              0,
              0,
              -1
            ]
          }
        },
        {
          "type": "circle",
          "circle": {
            "xAxis": [
              -1,
              0,
              0
            ],
            "yAxis": [
              0,
              1,
              0
            ],
            "origin": [
              -0.00258,
              0.0008,
              0
            ],
            "radius": 0.0002
          }
        },
        {
          "type": "line",
          "line": {
            "origin": [
              0.00278,
              0.0007,
              0.00391
            ],
            "direction": [
              0,
              0,
              -1
            ]
          }
        }
      ]
    }
  },
  "extensionsUsed": [
    "KITTYCAD_boundary_representation"
  ],
  "materials": [
    {
      "alphaMode": "OPAQUE",
      "doubleSided": false,
      "pbrMetallicRoughness": {
        "baseColorFactor": [
          0.9,
          0.9,
          0.9,
          1
        ],
        "metallicFactor": 1,
        "roughnessFactor": 1
      },
      "emissiveFactor": [
        0,
        0,
        0
      ]
    }
  ],
  "meshes": [
    {
      "primitives": [
        {
          "attributes": {
            "POSITION": 0,
            "NORMAL": 1
          },
          "material": 0
        },
        {
          "attributes": {
            "POSITION": 2,
            "NORMAL": 3
          },
          "material": 0
        },
        {
          "attributes": {
            "POSITION": 4,
            "NORMAL": 5
          },
          "material": 0
        },
        {
          "attributes": {
            "POSITION": 6,
            "NORMAL": 7
          },
          "material": 0
        },
        {
          "attributes": {
            "POSITION": 8,
            "NORMAL": 9
          },
          "material": 0
        },
        {
          "attributes": {
            "POSITION": 10,
            "NORMAL": 11
          },
          "material": 0
        },
        {
          "attributes": {
            "POSITION": 12,
            "NORMAL": 13
          },
          "material": 0
        },
        {
          "attributes": {
            "POSITION": 14,
            "NORMAL": 15
          },
          "material": 0
        },
        {
          "attributes": {
            "POSITION": 16,
            "NORMAL": 17
          },
          "material": 0
        },
        {
          "attributes": {
            "POSITION": 18,
            "NORMAL": 19
          },
          "material": 0
        },
        {
          "attributes": {
            "POSITION": 20,
            "NORMAL": 21
          },
          "material": 0
        },
        {
          "attributes": {
            "POSITION": 22,
            "NORMAL": 23
          },
          "material": 0
        },
        {
          "attributes": {
            "POSITION": 24,
            "NORMAL": 25
          },
          "material": 0
        }
      ]
    }
  ],
  "nodes": [
    {
      "children": [
        1
      ]
    },
    {
      "children": [
        2
      ]
    },
    {
      "extensions": {
        "KITTYCAD_boundary_representation": {
          "solid": 0
        }
      },
      "mesh": 0
    }
  ],
  "scenes": [
    {
      "nodes": [
        0
      ]
    }
  ]
}