{
  "accessors": [
    {
      "bufferView": 0,
      "byteOffset": 0,
      "count": 6,
      "componentType": 5126,
      "type": "VEC3",
      "min": [
        -0.0005000000237487257,
        0,
        -0.0005000000237487257
      ],
      "max": [
        -0.0005000000237487257,
        0.0010000000474974513,
        0.0005000000237487257
      ]
    },
    {
      "bufferView": 0,
      "byteOffset": 12,
      "count": 6,
      "componentType": 5126,
      "type": "VEC3"
    },
    {
      "bufferView": 1,
      "byteOffset": 0,
      "count": 6,
      "componentType": 5126,
      "type": "VEC3",
      "min": [
        -0.0005000000237487257,
        0,
        0.0005000000237487257
      ],
      "max": [
        0.0003000000142492354,
        0.0010000000474974513,
        0.0005000000237487257
      ]
    },
    {
      "bufferView": 1,
      "byteOffset": 12,
      "count": 6,
      "componentType": 5126,
      "type": "VEC3"
    },
    {
      "bufferView": 2,
      "byteOffset": 0,
      "count": 6,
      "componentType": 5126,
      "type": "VEC3",
      "min": [
        -0.0005000000237487257,
        -0,
        -0.0005000000237487257
      ],
      "max": [
        0.0003000000142492354,
        -0,
        0.0005000000237487257
      ]
    },
    {
      "bufferView": 2,
      "byteOffset": 12,
      "count": 6,
      "componentType": 5126,
      "type": "VEC3"
    },
    {
      "bufferView": 3,
      "byteOffset": 0,
      "count": 102,
      "componentType": 5126,
      "type": "VEC3",
      "min": [
        -0.0005000000237487257,
        0.0010000000474974513,
        -0.0005000000237487257
      ],
      "max": [
        0.0005000000237487257,
        0.0010000000474974513,
        0.0005000000237487257
      ]
    },
    {
      "bufferView": 3,
      "byteOffset": 12,
      "count": 102,
      "componentType": 5126,
      "type": "VEC3"
    },
    {
      "bufferView": 4,
      "byteOffset": 0,
      "count": 138,
      "componentType": 5126,
      "type": "VEC3",
      "min": [
        0.0003000000142492354,
        0.00000003043014373815822,
        -0.0005000000237487257
      ],
      "max": [
        0.0005000000237487257,
        0.0010000000474974513,
        -0.0003000000142492354
      ]
    },
    {
      "bufferView": 4,
      "byteOffset": 12,
      "count": 138,
      "componentType": 5126,
      "type": "VEC3"
    },
    {
      "bufferView": 5,
      "byteOffset": 0,
      "count": 6,
      "componentType": 5126,
      "type": "VEC3",
      "min": [
        -0.0005000000237487257,
        0,
        -0.0005000000237487257
      ],
      "max": [
        0.0003000000142492354,
        0.0010000000474974513,
        -0.0005000000237487257
      ]
    },
    {
      "bufferView": 5,
      "byteOffset": 12,
      "count": 6,
      "componentType": 5126,
      "type": "VEC3"
    },
    {
      "bufferView": 6,
      "byteOffset": 0,
      "count": 135,
      "componentType": 5126,
      "type": "VEC3",
      "min": [
        0.0003000000142492354,
        -0,
        0.0003000000142492354
      ],
      "max": [
        0.0005000000237487257,
        0.0010000000474974513,
        0.0005000000237487257
      ]
    },
    {
      "bufferView": 6,
      "byteOffset": 12,
      "count": 135,
      "componentType": 5126,
      "type": "VEC3"
    },
    {
      "bufferView": 7,
      "byteOffset": 0,
      "count": 6,
      "componentType": 5126,
      "type": "VEC3",
      "min": [
        0.0005000000237487257,
        0.00019999999494757503,
        -0.0003000000142492354
      ],
      "max": [
        0.0005000000237487257,
        0.0010000000474974513,
        0.0003000000142492354
      ]
    },
    {
      "bufferView": 7,
      "byteOffset": 12,
      "count": 6,
      "componentType": 5126,
      "type": "VEC3"
    },
    {
      "bufferView": 8,
      "byteOffset": 0,
      "count": 177,
      "componentType": 5126,
      "type": "VEC3",
      "min": [
        0.0003000000142492354,
        0,
        -0.0005000000237487257
      ],
      "max": [
        0.0005000000237487257,
        0.00019999999494757503,
        0.0004999657394364476
      ]
    },
    {
      "bufferView": 8,
      "byteOffset": 12,
      "count": 177,
      "componentType": 5126,
      "type": "VEC3"
    }
  ],
  "asset": {
    "generator": "zoo.dev",
    "version": "2.0"
  },
  "buffers": [
    {
      "byteLength": 13968,
      "uri": "data:application/octet-stream;base64,"
    }
  ],
  "bufferViews": [
    {
      "buffer": 0,
      "byteLength": 144,
      "byteOffset": 0,
      "byteStride": 24,
      "target": 34962
    },
    {
      "buffer": 0,
      "byteLength": 144,
      "byteOffset": 144,
      "byteStride": 24,
      "target": 34962
    },
    {
      "buffer": 0,
      "byteLength": 144,
      "byteOffset": 288,
      "byteStride": 24,
      "target": 34962
    },
    {
      "buffer": 0,
      "byteLength": 2448,
      "byteOffset": 432,
      "byteStride": 24,
      "target": 34962
    },
    {
      "buffer": 0,
      "byteLength": 3312,
      "byteOffset": 2880,
      "byteStride": 24,
      "target": 34962
    },
    {
      "buffer": 0,
      "byteLength": 144,
      "byteOffset": 6192,
      "byteStride": 24,
      "target": 34962
    },
    {
      "buffer": 0,
      "byteLength": 3240,
      "byteOffset": 6336,
      "byteStride": 24,
      "target": 34962
    },
    {
      "buffer": 0,
      "byteLength": 144,
      "byteOffset": 9576,
      "byteStride": 24,
      "target": 34962
    },
    {
      "buffer": 0,
      "byteLength": 4248,
      "byteOffset": 9720,
      "byteStride": 24,
      "target": 34962
    }
  ],
  "scene": 0,
  "extensions": {
    "KITTYCAD_boundary_representation": {
      "solids": [
        {
          "shells": [
            [
              0,
              1
            ]
          ],
          "mesh": 0,
          "extras": {
            "KITTYCAD": {
              "material": 0
            }
          }
        }
      ],
      "shells": [
        {
          "faces": [
            [
              0,
              1
            ],
            [
              1,
              1
            ],
            [
              2,
              1
            ],
            [
              3,
              1
            ],
            [
              4,
              1
            ],
            [
              5,
              1
            ],
            [
              6,
              1
            ],
            [
              7,
              1
            ],
            [
              8,
              1
            ]
          ]
        }
      ],
      "faces": [
        {
          "surface": [
            0,
            1
          ],
          "loops": [
            [
              0,
              1
            ]
          ]
        },
        {
          "surface": [
            1,
            1
          ],
          "loops": [
            [
              1,
              1
            ]
          ]
        },
        {
          "surface": [
            2,
            -1
          ],
          "loops": [
            [
              2,
              1
            ]
          ]
        },
        {
          "surface": [
            3,
            1
          ],
          "loops": [
            [
              3,
              1
            ]
          ]
        },
        {
          "surface": [
            4,
            1
          ],
          "loops": [
            [
              4,
              1
            ]
          ]
        },
        {
          "surface": [
            5,
            1
          ],
          "loops": [
            [
              5,
              1
            ]
          ]
        },
        {
          "surface": [
            6,
            1
          ],
          "loops": [
            [
              6,
              1
            ]
          ]
        },
        {
          "surface": [
            7,
            1
          ],
          "loops": [
            [
              7,
              1
            ]
          ]
        },
        {
          "surface": [
            8,
            1
          ],
          "loops": [
            [
              8,
              1
            ]
          ]
        }
      ],
      "loops": [
        {
          "edges": [
            [
              0,
              1
            ],
            [
              1,
              1
            ],
            [
              2,
              -1
            ],
            [
              3,
              -1
            ]
          ]
        },
        {
          "edges": [
            [
              4,
              1
            ],
            [
              5,
              1
            ],
            [
              6,
              -1
            ],
            [
              1,
              -1
            ]
          ]
        },
        {
          "edges": [
            [
              7,
              -1
            ],
            [
              4,
              -1
            ],
            [
              0,
              -1
            ],
            [
              8,
              -1
            ]
          ]
        },
        {
          "edges": [
            [
              9,
              1
            ],
            [
              2,
              1
            ],
            [
              6,
              1
            ],
            [
              10,
              -1
            ],
            [
              11,
              1
            ],
            [
              12,
              1
            ]
          ]
        },
        {
          "edges": [
            [
              13,
              1
            ],
            [
              14,
              -1
            ],
            [
              12,
              -1
            ],
            [
              15,
              -1
            ]
          ]
        },
        {
          "edges": [
            [
              8,
              1
            ],
            [
              3,
              1
            ],
            [
              9,
              -1
            ],
            [
              14,
              1
            ]
          ]
        },
        {
          "edges": [
            [
              16,
              -1
            ],
            [
              17,
              1
            ],
            [
              10,
              1
            ],
            [
              5,
              -1
            ]
          ]
        },
        {
          "edges": [
            [
              15,
              1
            ],
            [
              11,
              -1
            ],
            [
              17,
              -1
            ],
            [
              18,
              1
            ]
          ]
        },
        {
          "edges": [
            [
              16,
              1
            ],
            [
              7,
              1
            ],
            [
              13,
              -1
            ],
            [
              18,
              -1
            ]
          ]
        }
      ],
      "edges": [
        {
          "curve": [
            0,
            1
          ],
          "start": 0,
          "end": 1,
          "t": [
            0,
            0.001
          ]
        },
        {
          "curve": [
            1,
            1
          ],
          "start": 1,
          "end": 2,
          "t": [
            0,
            0.001
          ]
        },
        {
          "curve": [
            2,
            1
          ],
          "start": 3,
          "end": 2,
          "t": [
            0,
            0.001
          ]
        },
        {
          "curve": [
            3,
            1
          ],
          "start": 0,
          "end": 3,
          "t": [
            0,
            0.001
          ]
        },
        {
          "curve": [
            4,
            1
          ],
          "start": 1,
          "end": 4,
          "t": [
            0,
            0.0007999999999999999
          ]
        },
        {
          "curve": [
            5,
            1
          ],
          "start": 4,
          "end": 5,
          "t": [
            0,
            0.001
          ]
        },
        {
          "curve": [
            6,
            1
          ],
          "start": 2,
          "end": 5,
          "t": [
            0,
            0.0007999999999999999
          ]
        },
        {
          "curve": [
            7,
            1
          ],
          "start": 4,
          "end": 6,
          "t": [
            0,
            0.001
          ]
        },
        {
          "curve": [
            8,
            1
          ],
          "start": 6,
          "end": 0,
          "t": [
            0,
            0.0007999999999999999
          ]
        },
        {
          "curve": [
            9,
            1
          ],
          "start": 7,
          "end": 3,
          "t": [
            0,
            0.0007999999999999999
          ]
        },
        {
          "curve": [
            10,
            1
          ],
          "start": 8,
          "end": 5,
          "t": [
            0,
            1.5707963267948966
          ]
        },
        {
          "curve": [
            11,
            1
          ],
          "start": 8,
          "end": 9,
          "t": [
            0,
            0.0006
          ]
        },
        {
          "curve": [
            12,
            1
          ],
          "start": 9,
          "end": 7,
          "t": [
            0,
            1.5707963267948966
          ]
        },
        {
          "curve": [
            13,
            1
          ],
          "start": 10,
          "end": 6,
          "t": [
            0,
            1
          ]
        },
        {
          "curve": [
            14,
            1
          ],
          "start": 7,
          "end": 6,
          "t": [
            0,
            0.001
          ]
        },
        {
          "curve": [
            15,
            1
          ],
          "start": 10,
          "end": 9,
          "t": [
            0,
            0.0008
          ]
        },
        {
          "curve": [
            16,
            1
          ],
          "start": 11,
          "end": 4,
          "t": [
            0,
            1
          ]
        },
        {
          "curve": [
            17,
            1
          ],
          "start": 11,
          "end": 8,
          "t": [
            0,
            0.0008
          ]
        },
        {
          "curve": [
            18,
            1
          ],
          "start": 11,
          "end": 10,
          "t": [
            0,
            0.0006
          ]
        }
      ],
      "vertices": [
        [
          -0.0005,
          0,
          -0.0005
        ],
        [
          -0.0005,
          0,
          0.0005
        ],
        [
          -0.0005,
          0.001,
          0.0005
        ],
        [
          -0.0005,
          0.001,
          -0.0005
        ],
        [
          0.0003,
          -0,
          0.0005
        ],
        [
          0.0003,
          0.001,
          0.0005
        ],
        [
          0.0003,
          0,
          -0.0005
        ],
        [
          0.0003,
          0.001,
          -0.0005
        ],
        [
          0.0005,
          0.001,
          0.0003
        ],
        [
          0.0005,
          0.001,
          -0.0003
        ],
        [
          0.0005,
          0.0002,
          -0.0003
        ],
        [
          0.0005,
          0.0002,
          0.0003
        ]
      ],
      "surfaces": [
        {
          "type": "plane",
          "plane": {
            "xAxis": [
              0,
              1,
              0
            ],
            "yAxis": [
              0,
              0,
              -1
            ],
            "origin": [
              -0.0005,
              0.0005,
              -0
            ]
          }
        },
        {
          "type": "plane",
          "plane": {
            "xAxis": [
              1,
              0,
              -0
            ],
            "yAxis": [
              -0,
              1,
              0
            ],
            "origin": [
              0,
              0.0005,
              0.0005
            ]
          }
        },
        {
          "type": "plane",
          "plane": {
            "xAxis": [
              1,
              0,
              0
            ],
            "yAxis": [
              0,
              0,
              -1
            ],
            "origin": [
              0,
              0,
              -0
            ]
          }
        },
        {
          "type": "plane",
          "plane": {
            "xAxis": [
              1,
              0,
              0
            ],
            "yAxis": [
              0,
              0,
              -1
            ],
            "origin": [
              0,
              0.001,
              -0
            ]
          }
        },
        {
          "type": "cylinder",
          "cylinder": {
            "xAxis": [
              -0,
              0,
              -1
            ],
            "yAxis": [
              1,
              0,
              0
            ],
            "origin": [
              0.0003,
              0.0005,
              -0.0003
            ],
            "radius": 0.0002
          }
        },
        {
          "type": "plane",
          "plane": {
            "xAxis": [
              1,
              0,
              0
            ],
            "yAxis": [
              0,
              -1,
              0
            ],
            "origin": [
              0,
              0.0005,
              -0.0005
            ]
          }
        },
        {
          "type": "cylinder",
          "cylinder": {
            "xAxis": [
              1,
              0,
              0
            ],
            "yAxis": [
              -0,
              0,
              1
            ],
            "origin": [
              0.0003,
              0.0005,
              0.0003
            ],
            "radius": 0.0002
          }
        },
        {
          "type": "plane",
          "plane": {
            "xAxis": [
              -0,
              1,
              0
            ],
            "yAxis": [
              0,
              -0,
              1
            ],
            "origin": [
              0.0005,
              0.0005,
              -0
            ]
          }
        },
        {
          "type": "cylinder",
          "cylinder": {
            "xAxis": [
              -0,
              -1,
              0
            ],
            "yAxis": [
              1,
              0,
              0
            ],
            "origin": [
              0.0003,
              0.0002,
              0
            ],
            "radius": 0.0002
          }
        }
      ],
      "curves3D": [
        {
          "type": "line",
          "line": {
            "origin": [
              -0.0005,
              0,
              -0.0005
            ],
            "direction": [
              0,
              0,
              1
            ]
          }
        },
        {
          "type": "line",
          "line": {
            "origin": [
              -0.0005,
              0,
              0.0005
            ],
            "direction": [
              0,
              1,
              0
            ]
          }
        },
        {
          "type": "line",
          "line": {
            "origin": [
              -0.0005,
              0.001,
              -0.0005
            ],
            "direction": [
              0,
              0,
              1
            ]
          }
        },
        {
          "type": "line",
          "line": {
            "origin": [
              -0.0005,
              0,
              -0.0005
            ],
            "direction": [
              0,
              1,
              0
            ]
          }
        },
        {
          "type": "line",
          "line": {
            "origin": [
              -0.0005,
              0,
              0.0005
            ],
            "direction": [
              1,
              -0,
              0
            ]
          }
        },
        {
          "type": "line",
          "line": {
            "origin": [
              0.0003,
              0,
              0.0005
            ],
            "direction": [
              0,
              1,
              0
            ]
          }
        },
        {
          "type": "line",
          "line": {
            "origin": [
              -0.0005,
              0.001,
              0.0005
            ],
            "direction": [
              1,
              0,
              -0
            ]
          }
        },
        {
          "type": "line",
          "line": {
            "origin": [
              0.0003,
              0,
              0.0005
            ],
            "direction": [
              0,
              0,
              -1
            ]
          }
        },
        {
          "type": "line",
          "line": {
            "origin": [
              0.0003,
              0,
              -0.0005
            ],
            "direction": [
              -1,
              0,
              0
            ]
          }
        },
        {
          "type": "line",
          "line": {
            "origin": [
              0.0003,
              0.001,
              -0.0005
            ],
            "direction": [
              -1,
              0,
              0
            ]
          }
        },
        {
          "type": "circle",
          "circle": {
            "xAxis": [
              1,
              0,
              0
            ],
            "yAxis": [
              -0,
              0,
              1
            ],
            "origin": [
              0.0003,
              0.001,
              0.0003
            ],
            "radius": 0.0002
          }
        },
        {
          "type": "line",
          "line": {
            "origin": [
              0.0005,
              0.001,
              0.0003
            ],
            "direction": [
              0,
              0,
              -1
            ]
          }
        },
        {
          "type": "circle",
          "circle": {
            "xAxis": [
              1,
              0,
              0
            ],
            "yAxis": [
              0,
              0,
              -1
            ],
            "origin": [
              0.0003,
              0.001,
              -0.0003
            ],
            "radius": 0.0002
          }
        },
        {
          "type": "nurbs",
          "nurbs": {
            "controlPoints": [
              [
                0.0005,
                0.0002,
                -0.0003
              ],
              [
                0.0005,
                0.00019807,
                -0.00030193
              ],
              [
                0.00049995,
                0.00019474,
                -0.00030526
              ],
              [
                0.00049975,
                0.00018975000000000003,
                -0.00031025
              ],
              [
                0.00049948,
                0.0001853,
                -0.0003147
              ],
              [
                0.00049912,
                0.00018114,
                -0.00031886
              ],
              [
                0.00049877,
                0.00017781000000000003,
                -0.00032219
              ],
              [
                0.00049844,
                0.00017504,
                -0.00032496
              ],
              [
                0.00049808,
                0.00017226999999999998,
                -0.00032773
              ],
              [
                0.00049759,
                0.00016896,
                -0.00033104
              ],
              [
                0.0004969,
                0.00016481999999999998,
                -0.00033518
              ],
              [
                0.00049601,
                0.00016014999999999996,
                -0.00033985
              ],
              [
                0.00049494,
                0.00015521999999999997,
                -0.00034478
              ],
              [
                0.00049375,
                0.00015028999999999997,
                -0.00034971
              ],
              [
                0.00049249,
                0.00014564,
                -0.00035436
              ],
              [
                0.00049128,
                0.00014155,
                -0.00035845
              ],
              [
                0.00049025,
                0.00013829,
                -0.00036171
              ],
              [
                0.00048935,
                0.00013558,
                -0.00036442
              ],
              [
                0.00048841,
                0.00013288999999999998,
                -0.00036711
              ],
              [
                0.00048723,
                0.00012965999999999995,
                -0.00037034
              ],
              [
                0.00048568,
                0.00012564,
                -0.00037436
              ],
              [
                0.00048392,
                0.00012136999999999998,
                -0.00037863
              ],
              [
                0.00048216,
                0.00011739,
                -0.00038261
              ],
              [
                0.00048068,
                0.00011422,
                -0.00038578
              ],
              [
                0.00047941,
                0.0001116,
                -0.0003884
              ],
              [
                0.00047823,
                0.00010924999999999996,
                -0.00039075
              ],
              [
                0.00047702,
                0.0001069,
                -0.0003931
              ],
              [
                0.00047577,
                0.00010457,
                -0.00039543
              ],
              [
                0.00047449,
                0.00010223999999999996,
                -0.00039776
              ],
              [
                0.00047302,
                0.00009966,
                -0.00040034
              ],
              [
                0.0004712,
                0.00009657999999999996,
                -0.00040342
              ],
              [
                0.00046884,
                0.00009276,
                -0.00040724
              ],
              [
                0.00046604,
                0.00008846,
                -0.00041154
              ],
              [
                0.0004631,
                0.00008421999999999998,
                -0.00041578
              ],
              [
                0.0004604,
                0.00008051,
                -0.00041949
              ],
              [
                0.00045798,
                0.00007733000000000002,
                -0.00042267
              ],
              [
                0.00045549,
                0.00007417999999999997,
                -0.00042582
              ],
              [
                0.00045251,
                0.00007057999999999999,
                -0.00042942
              ],
              [
                0.00044901,
                0.00006655000000000002,
                -0.00043345
              ],
              [
                0.00044514,
                0.00006236000000000002,
                -0.00043764
              ],
              [
                0.00044134,
                0.00005847000000000003,
                -0.00044153
              ],
              [
                0.00043787,
                0.000055099999999999984,
                -0.0004449
              ],
              [
                0.00043502,
                0.000052440000000000006,
                -0.00044756
              ],
              [
                0.00043259,
                0.00005026,
                -0.00044974
              ],
              [
                0.00043036,
                0.000048309999999999976,
                -0.00045169
              ],
              [
                0.0004281,
                0.00004639999999999999,
                -0.0004536
              ],
              [
                0.00042579,
                0.0000445,
                -0.0004555
              ],
              [
                0.00042344,
                0.00004262999999999999,
                -0.00045737
              ],
              [
                0.00042105,
                0.00004079000000000002,
                -0.00045921
              ],
              [
                0.00041862,
                0.00003896999999999999,
                -0.00046103
              ],
              [
                0.00041615,
                0.00003717999999999999,
                -0.00046282
              ],
              [
                0.00041365,
                0.00003541999999999998,
                -0.00046458
              ],
              [
                0.00041109,
                0.000033680000000000016,
                -0.00046632
              ],
              [
                0.0004085,
                0.00003198000000000003,
                -0.00046802
              ],
              [
                0.00040585,
                0.000030299999999999978,
                -0.0004697
              ],
              [
                0.00040316,
                0.00002865000000000002,
                -0.00047135
              ],
              [
                0.00040043,
                0.000027039999999999985,
                -0.00047296
              ],
              [
                0.00039767,
                0.00002545999999999999,
                -0.00047454
              ],
              [
                0.00039487,
                0.000023919999999999978,
                -0.00047608
              ],
              [
                0.00039204,
                0.000022429999999999987,
                -0.00047757
              ],
              [
                0.00038885,
                0.000020810000000000013,
                -0.00047919
              ],
              [
                0.0003853,
                0.00001908999999999998,
                -0.00048091
              ],
              [
                0.00038136,
                0.000017279999999999997,
                -0.00048272
              ],
              [
                0.00037768,
                0.000015690000000000007,
                -0.00048431
              ],
              [
                0.00037427,
                0.000014290000000000028,
                -0.00048571
              ],
              [
                0.00037116,
                0.000013080000000000004,
                -0.00048692
              ],
              [
                0.000368,
                0.000011900000000000018,
                -0.0004881
              ],
              [
                0.00036481,
                0.000010779999999999948,
                -0.00048922
              ],
              [
                0.00036159,
                0.000009710000000000014,
                -0.00049029
              ],
              [
                0.00035836,
                0.00000869,
                -0.00049131
              ],
              [
                0.0003551,
                0.000007729999999999955,
                -0.00049227
              ],
              [
                0.00035183,
                0.0000068200000000000465,
                -0.00049318
              ],
              [
                0.00034853,
                0.000005969999999999999,
                -0.00049403
              ],
              [
                0.0003452,
                0.000005169999999999979,
                -0.00049483
              ],
              [
                0.00034184,
                0.000004410000000000048,
                -0.00049559
              ],
              [
                0.00033843,
                0.000003720000000000026,
                -0.00049628
              ],
              [
                0.00033499,
                0.0000030699999999999825,
                -0.00049693
              ],
              [
                0.00033152,
                0.0000024899999999999575,
                -0.00049751
              ],
              [
                0.00032802,
                0.000001959999999999961,
                -0.00049804
              ],
              [
                0.00032453,
                0.0000014999999999999825,
                -0.0004985
              ],
              [
                0.00032104,
                0.0000010999999999999723,
                -0.0004989
              ],
              [
                0.00031755,
                0.0000007600000000000402,
                -0.00049924
              ],
              [
                0.00031406,
                0.0000004799999999999683,
                -0.00049952
              ],
              [
                0.00031056,
                0.0000002700000000000228,
                -0.00049973
              ],
              [
                0.00030588,
                0.00000005999999999996893,
                -0.00049994
              ],
              [
                0.00030235,
                0,
                -0.0005
              ],
              [
                0.0003,
                0,
                -0.0005
              ]
            ],
            "order": 4,
            "knotVector": [
              0,
              0,
              0,
              0,
              0.02148964,
              0.03691383,
              0.05545432,
              0.07091427,
              0.08326451,
              0.09252016,
              0.10178718,
              0.11413966,
              0.12954541,
              0.14800508,
              0.16646682,
              0.18497669,
              0.20354492,
              0.21902528,
              0.23139128,
              0.2406395,
              0.24989744,
              0.26224868,
              0.27767659,
              0.2961881,
              0.31161659,
              0.32396383,
              0.33321091,
              0.34244367,
              0.35167252,
              0.36090982,
              0.37015965,
              0.37941999,
              0.3917842,
              0.40724299,
              0.42578354,
              0.44430302,
              0.45972371,
              0.47205619,
              0.48439564,
              0.49983164,
              0.51836514,
              0.53690361,
              0.55543441,
              0.57086918,
              0.58321079,
              0.59246762,
              0.60172532,
              0.61098143,
              0.62023619,
              0.6294938,
              0.6387558,
              0.64801706,
              0.65727202,
              0.66652284,
              0.67578177,
              0.68506298,
              0.69436858,
              0.70368542,
              0.71299611,
              0.72229241,
              0.73157302,
              0.74083513,
              0.75007567,
              0.76236407,
              0.77464891,
              0.78695381,
              0.79623601,
              0.80556171,
              0.81490655,
              0.82424075,
              0.83354854,
              0.84282105,
              0.85204686,
              0.86123406,
              0.87041748,
              0.87962896,
              0.88887259,
              0.89814538,
              0.90746016,
              0.91681717,
              0.92618143,
              0.93550209,
              0.94475075,
              0.9539428,
              0.96311945,
              0.97231665,
              0.98154123,
              1,
              1,
              1,
              1
            ]
          }
        },
        {
          "type": "line",
          "line": {
            "origin": [
              0.0003,
              0.001,
              -0.0005
            ],
            "direction": [
              0,
              -1,
              0
            ]
          }
        },
        {
          "type": "line",
          "line": {
            "origin": [
              0.0005,
              0.0002,
              -0.0003
            ],
            "direction": [
              0,
              1,
              0
            ]
          }
        },
        {
          "type": "nurbs",
          "nurbs": {
            "controlPoints": [
              [
                0.0005,
                0.0002,
                0.0003
              ],
              [
                0.0005,
                0.00019828,
                0.00030172
              ],
              [
                0.00049997,
                0.00019570000000000004,
                0.0003043
              ],
              [
                0.00049986,
                0.00019225000000000004,
                0.00030775
              ],
              [
                0.00049974,
                0.00018964999999999995,
                0.00031035
              ],
              [
                0.00049957,
                0.00018676,
                0.00031324
              ],
              [
                0.00049931,
                0.0001833,
                0.0003167
              ],
              [
                0.00049891,
                0.00017898000000000002,
                0.00032102
              ],
              [
                0.00049837,
                0.00017438000000000002,
                0.00032562
              ],
              [
                0.00049776,
                0.00017007000000000003,
                0.00032993
              ],
              [
                0.0004972,
                0.00016662999999999997,
                0.00033337
              ],
              [
                0.00049669,
                0.00016376,
                0.00033624
              ],
              [
                0.0004962,
                0.00016118000000000005,
                0.00033882
              ],
              [
                0.00049568,
                0.00015861,
                0.00034139
              ],
              [
                0.00049505,
                0.00015576,
                0.00034424
              ],
              [
                0.00049425,
                0.00015235,
                0.00034765
              ],
              [
                0.00049317,
                0.00014811000000000002,
                0.00035189
              ],
              [
                0.00049182,
                0.00014331,
                0.00035669
              ],
              [
                0.00049034,
                0.00013852,
                0.00036148
              ],
              [
                0.00048892,
                0.0001343,
                0.0003657
              ],
              [
                0.00048771,
                0.00013093999999999996,
                0.00036906
              ],
              [
                0.00048665,
                0.00012814,
                0.00037186
              ],
              [
                0.00048556,
                0.00012534999999999998,
                0.00037465
              ],
              [
                0.00048419,
                0.00012202000000000004,
                0.00037798
              ],
              [
                0.00048251,
                0.00011815999999999997,
                0.00038184
              ],
              [
                0.00048074,
                0.00011433,
                0.00038567
              ],
              [
                0.00047914,
                0.00011105000000000002,
                0.00038895
              ],
              [
                0.00047777,
                0.00010834,
                0.00039166
              ],
              [
                0.00047649,
                0.00010590000000000004,
                0.0003941
              ],
              [
                0.00047517,
                0.00010346999999999998,
                0.00039653
              ],
              [
                0.00047382,
                0.00010105999999999998,
                0.00039894
              ],
              [
                0.00047243,
                0.00009865,
                0.00040135
              ],
              [
                0.00047084,
                0.000096,
                0.000404
              ],
              [
                0.00046904,
                0.00009309,
                0.00040691
              ],
              [
                0.00046701,
                0.00008994,
                0.00041006
              ],
              [
                0.00046508,
                0.00008708000000000001,
                0.00041292
              ],
              [
                0.00046328,
                0.00008449,
                0.00041551
              ],
              [
                0.00046162,
                0.00008218,
                0.00041782
              ],
              [
                0.00045992,
                0.00007988,
                0.00042012
              ],
              [
                0.00045817,
                0.00007759,
                0.00042241
              ],
              [
                0.00045639,
                0.00007532000000000003,
                0.00042468
              ],
              [
                0.00045456,
                0.00007306000000000001,
                0.00042694
              ],
              [
                0.00045269,
                0.00007081999999999998,
                0.00042918
              ],
              [
                0.00045079,
                0.00006859999999999999,
                0.0004314
              ],
              [
                0.00044884,
                0.00006639999999999999,
                0.0004336
              ],
              [
                0.00044685,
                0.00006420999999999998,
                0.00043579
              ],
              [
                0.00044482,
                0.00006205000000000002,
                0.00043795
              ],
              [
                0.00044252,
                0.00005967,
                0.00044033
              ],
              [
                0.00043969,
                0.000056840000000000005,
                0.00044316
              ],
              [
                0.00043629,
                0.00005359000000000001,
                0.00044641
              ],
              [
                0.00043278,
                0.00005040999999999997,
                0.00044959
              ],
              [
                0.00042968,
                0.00004772000000000001,
                0.00045228
              ],
              [
                0.00042704,
                0.00004552000000000001,
                0.00045448
              ],
              [
                0.00042435,
                0.00004334,
                0.00045666
              ],
              [
                0.00042133,
                0.00004098999999999997,
                0.00045901
              ],
              [
                0.00041796,
                0.000038469999999999976,
                0.00046153
              ],
              [
                0.0004148,
                0.00003622,
                0.00046378
              ],
              [
                0.00041188,
                0.00003421000000000001,
                0.00046579
              ],
              [
                0.0004092,
                0.00003244000000000001,
                0.00046756
              ],
              [
                0.00040648,
                0.00003068999999999999,
                0.00046931
              ],
              [
                0.00040372,
                0.000028990000000000005,
                0.00047101
              ],
              [
                0.0004009,
                0.000027310000000000008,
                0.00047269
              ],
              [
                0.00039804,
                0.00002566999999999999,
                0.00047433
              ],
              [
                0.00039513,
                0.00002406000000000001,
                0.00047594
              ],
              [
                0.00039217,
                0.000022500000000000005,
                0.0004775
              ],
              [
                0.00038918,
                0.000020969999999999984,
                0.00047903
              ],
              [
                0.00038615,
                0.00001948999999999999,
                0.00048051
              ],
              [
                0.00038308,
                0.000018059999999999973,
                0.00048194
              ],
              [
                0.00037999,
                0.000016679999999999983,
                0.00048332
              ],
              [
                0.00037685,
                0.000015339999999999972,
                0.00048466
              ],
              [
                0.00037368,
                0.000014059999999999984,
                0.00048594
              ],
              [
                0.00037047,
                0.000012819999999999976,
                0.00048718
              ],
              [
                0.00036721,
                0.000011619999999999946,
                0.00048838
              ],
              [
                0.0003639,
                0.000010470000000000054,
                0.00048953
              ],
              [
                0.00036054,
                0.000009369999999999971,
                0.00049063
              ],
              [
                0.00035714,
                0.000008320000000000029,
                0.00049168
              ],
              [
                0.0003537,
                0.000007330000000000053,
                0.00049267
              ],
              [
                0.00035026,
                0.000006409999999999988,
                0.00049359
              ],
              [
                0.00034679,
                0.00000553999999999995,
                0.00049446
              ],
              [
                0.00034332,
                0.000004740000000000039,
                0.00049526
              ],
              [
                0.00033984,
                0.000003999999999999989,
                0.000496
              ],
              [
                0.00033633,
                0.0000033200000000000156,
                0.00049668
              ],
              [
                0.00033277,
                0.0000026899999999999624,
                0.00049731
              ],
              [
                0.00032918,
                0.0000021300000000000355,
                0.00049787
              ],
              [
                0.00032556,
                0.0000016299999999999691,
                0.00049837
              ],
              [
                0.00032191,
                0.00000118999999999998,
                0.00049881
              ],
              [
                0.00031824,
                0.0000008200000000000091,
                0.00049918
              ],
              [
                0.00031456,
                0.0000005199999999999476,
                0.00049948
              ],
              [
                0.00031089,
                0.0000002900000000000125,
                0.00049971
              ],
              [
                0.00030604,
                0.00000007000000000001796,
                0.00049993
              ],
              [
                0.00030241,
                0,
                0.0005
              ],
              [
                0.0003,
                0,
                0.0005
              ]
            ],
            "order": 4,
            "knotVector": [
              0,
              0,
              0,
              0,
              0.01911101,
              0.02869827,
              0.03831399,
              0.04795179,
              0.06079579,
              0.07681104,
              0.09602426,
              0.11205054,
              0.12490885,
              0.13455145,
              0.14416598,
              0.15377154,
              0.16338725,
              0.17618625,
              0.19215588,
              0.21131872,
              0.23052624,
              0.24657627,
              0.25944571,
              0.2691049,
              0.27874949,
              0.29158013,
              0.30759243,
              0.32359731,
              0.33639999,
              0.3460183,
              0.35564644,
              0.3652729,
              0.37488975,
              0.38449963,
              0.39410965,
              0.40692219,
              0.41972982,
              0.43253234,
              0.44213356,
              0.45174183,
              0.46135801,
              0.47098063,
              0.48060905,
              0.49024031,
              0.49986772,
              0.50948704,
              0.51910062,
              0.52871339,
              0.53832679,
              0.54793991,
              0.56075761,
              0.57677791,
              0.59279807,
              0.60561562,
              0.61523716,
              0.62486661,
              0.63770516,
              0.65053521,
              0.66335346,
              0.6729558,
              0.68255569,
              0.69215594,
              0.70176376,
              0.71139134,
              0.72104426,
              0.73071457,
              0.7403863,
              0.75004699,
              0.75968782,
              0.76930106,
              0.77888756,
              0.78845838,
              0.79802654,
              0.80760077,
              0.81719913,
              0.82685051,
              0.83655896,
              0.84628822,
              0.85599323,
              0.86565603,
              0.87527054,
              0.88482239,
              0.89432752,
              0.90384609,
              0.91342709,
              0.92306374,
              0.93272786,
              0.94241861,
              0.95213489,
              0.96184176,
              0.97149186,
              0.98106207,
              1,
              1,
              1,
              1
            ]
          }
        },
        {
          "type": "line",
          "line": {
            "origin": [
              0.0005,
              0.0002,
              0.0003
            ],
            "direction": [
              0,
              1,
              0
            ]
          }
        },
        {
          "type": "line",
          "line": {
            "origin": [
              0.0005,
              0.0002,
              0.0003
            ],
            "direction": [
              0,
              0,
              -1
            ]
          }
        }
      ]
    }
  },
  "extensionsUsed": [
    "KITTYCAD_boundary_representation"
  ],
  "materials": [
    {
      "alphaMode": "OPAQUE",
      "doubleSided": false,
      "pbrMetallicRoughness": {
        "baseColorFactor": [
          0.9,
          0.9,
          0.9,
          1
        ],
        "metallicFactor": 1,
        "roughnessFactor": 1
      },
      "emissiveFactor": [
        0,
        0,
        0
      ]
    }
  ],
  "meshes": [
    {
      "primitives": [
        {
          "attributes": {
            "POSITION": 0,
            "NORMAL": 1
          },
          "material": 0
        },
        {
          "attributes": {
            "POSITION": 2,
            "NORMAL": 3
          },
          "material": 0
        },
        {
          "attributes": {
            "POSITION": 4,
            "NORMAL": 5
          },
          "material": 0
        },
        {
          "attributes": {
            "POSITION": 6,
            "NORMAL": 7
          },
          "material": 0
        },
        {
          "attributes": {
            "POSITION": 8,
            "NORMAL": 9
          },
          "material": 0
        },
        {
          "attributes": {
            "POSITION": 10,
            "NORMAL": 11
          },
          "material": 0
        },
        {
          "attributes": {
            "POSITION": 12,
            "NORMAL": 13
          },
          "material": 0
        },
        {
          "attributes": {
            "POSITION": 14,
            "NORMAL": 15
          },
          "material": 0
        },
        {
          "attributes": {
            "POSITION": 16,
            "NORMAL": 17
          },
          "material": 0
        }
      ]
    }
  ],
  "nodes": [
    {
      "children": [
        1
      ]
    },
    {
      "children": [
        2
      ]
    },
    {
      "extensions": {
        "KITTYCAD_boundary_representation": {
          "solid": 0
        }
      },
      "mesh": 0
    }
  ],
  "scenes": [
    {
      "nodes": [
        0
      ]
    }
  ]
}