{
  "accessors": [
    {
      "bufferView": 0,
      "byteOffset": 0,
      "count": 15,
      "componentType": 5126,
      "type": "VEC3",
      "min": [
        0.0023814199957996607,
        0.0004299999854993075,
        -0
      ],
      "max": [
        0.004379999823868275,
        0.004490179941058159,
        0.004999999888241291
      ]
    },
    {
      "bufferView": 0,
      "byteOffset": 12,
      "count": 15,
      "componentType": 5126,
      "type": "VEC3"
    },
    {
      "bufferView": 1,
      "byteOffset": 0,
      "count": 15,
      "componentType": 5126,
      "type": "VEC3",
      "min": [
        0.0007999999797903001,
        0.0005699999746866524,
        -0
      ],
      "max": [
        0.0020110199693590403,
        0.004461280070245266,
        0.004999999888241291
      ]
    },
    {
      "bufferView": 1,
      "byteOffset": 12,
      "count": 15,
      "componentType": 5126,
      "type": "VEC3"
    },
    {
      "bufferView": 2,
      "byteOffset": 0,
      "count": 6,
      "componentType": 5126,
      "type": "VEC3",
      "min": [
        0.0007999999797903001,
        0.0004299999854993075,
        -0
      ],
      "max": [
        0.004379999823868275,
        0.0005699999746866524,
        0.004999999888241291
      ]
    },
    {
      "bufferView": 2,
      "byteOffset": 12,
      "count": 6,
      "componentType": 5126,
      "type": "VEC3"
    },
    {
      "bufferView": 3,
      "byteOffset": 0,
      "count": 51,
      "componentType": 5126,
      "type": "VEC3",
      "min": [
        0.0007999999797903001,
        0.0004299999854993075,
        -0
      ],
      "max": [
        0.004379999823868275,
        0.004601345397531986,
        -0
      ]
    },
    {
      "bufferView": 3,
      "byteOffset": 12,
      "count": 51,
      "componentType": 5126,
      "type": "VEC3"
    },
    {
      "bufferView": 4,
      "byteOffset": 0,
      "count": 51,
      "componentType": 5126,
      "type": "VEC3",
      "min": [
        0.0007999999797903001,
        0.0004299999854993075,
        0.004999999888241291
      ],
      "max": [
        0.004379999823868275,
        0.004601345397531986,
        0.004999999888241291
      ]
    },
    {
      "bufferView": 4,
      "byteOffset": 12,
      "count": 51,
      "componentType": 5126,
      "type": "VEC3"
    },
    {
      "bufferView": 5,
      "byteOffset": 0,
      "count": 99,
      "componentType": 5126,
      "type": "VEC3",
      "min": [
        0.0013726300094276669,
        0.002409999957308173,
        0.0016929269768297672
      ],
      "max": [
        0.0034053700510412455,
        0.004594894591718912,
        0.002589999930933118
      ]
    },
    {
      "bufferView": 5,
      "byteOffset": 12,
      "count": 99,
      "componentType": 5126,
      "type": "VEC3"
    },
    {
      "bufferView": 6,
      "byteOffset": 0,
      "count": 99,
      "componentType": 5126,
      "type": "VEC3",
      "min": [
        0.0013726300094276669,
        0.002409999957308173,
        0.002589999930933118
      ],
      "max": [
        0.0034053700510412455,
        0.004599877633154392,
        0.0030519270803779364
      ]
    },
    {
      "bufferView": 6,
      "byteOffset": 12,
      "count": 99,
      "componentType": 5126,
      "type": "VEC3"
    },
    {
      "bufferView": 7,
      "byteOffset": 0,
      "count": 144,
      "componentType": 5126,
      "type": "VEC3",
      "min": [
        0.0020110199693590403,
        0.004461280070245266,
        0
      ],
      "max": [
        0.0023814199957996607,
        0.004601345397531986,
        0.0017477900255471468
      ]
    },
    {
      "bufferView": 7,
      "byteOffset": 12,
      "count": 144,
      "componentType": 5126,
      "type": "VEC3"
    },
    {
      "bufferView": 8,
      "byteOffset": 0,
      "count": 144,
      "componentType": 5126,
      "type": "VEC3",
      "min": [
        0.0020110199693590403,
        0.004461280070245266,
        0.0030226900707930326
      ],
      "max": [
        0.0023814199957996607,
        0.004601345397531986,
        0.004999999888241291
      ]
    },
    {
      "bufferView": 8,
      "byteOffset": 12,
      "count": 144,
      "componentType": 5126,
      "type": "VEC3"
    }
  ],
  "asset": {
    "generator": "zoo.dev",
    "version": "2.0"
  },
  "buffers": [
    {
      "byteLength": 14976,
      "uri": "data:application/octet-stream;base64,"
    }
  ],
  "bufferViews": [
    {
      "buffer": 0,
      "byteLength": 360,
      "byteOffset": 0,
      "byteStride": 24,
      "target": 34962
    },
    {
      "buffer": 0,
      "byteLength": 360,
      "byteOffset": 360,
      "byteStride": 24,
      "target": 34962
    },
    {
      "buffer": 0,
      "byteLength": 144,
      "byteOffset": 720,
      "byteStride": 24,
      "target": 34962
    },
    {
      "buffer": 0,
      "byteLength": 1224,
      "byteOffset": 864,
      "byteStride": 24,
      "target": 34962
    },
    {
      "buffer": 0,
      "byteLength": 1224,
      "byteOffset": 2088,
      "byteStride": 24,
      "target": 34962
    },
    {
      "buffer": 0,
      "byteLength": 2376,
      "byteOffset": 3312,
      "byteStride": 24,
      "target": 34962
    },
    {
      "buffer": 0,
      "byteLength": 2376,
      "byteOffset": 5688,
      "byteStride": 24,
      "target": 34962
    },
    {
      "buffer": 0,
      "byteLength": 3456,
      "byteOffset": 8064,
      "byteStride": 24,
      "target": 34962
    },
    {
      "buffer": 0,
      "byteLength": 3456,
      "byteOffset": 11520,
      "byteStride": 24,
      "target": 34962
    }
  ],
  "scene": 0,
  "extensions": {
    "KITTYCAD_boundary_representation": {
      "solids": [
        {
          "shells": [
            [
              0,
              1
            ]
          ],
          "mesh": 0,
          "extras": {
            "KITTYCAD": {
              "material": 0
            }
          }
        }
      ],
      "shells": [
        {
          "faces": [
            [
              0,
              1
            ],
            [
              1,
              1
            ],
            [
              2,
              1
            ],
            [
              3,
              1
            ],
            [
              4,
              1
            ],
            [
              5,
              1
            ],
            [
              6,
              1
            ],
            [
              7,
              1
            ],
            [
              8,
              1
            ]
          ]
        }
      ],
      "faces": [
        {
          "surface": [
            0,
            1
          ],
          "loops": [
            [
              0,
              1
            ]
          ]
        },
        {
          "surface": [
            1,
            1
          ],
          "loops": [
            [
              1,
              1
            ]
          ]
        },
        {
          "surface": [
            2,
            1
          ],
          "loops": [
            [
              2,
              1
            ]
          ]
        },
        {
          "surface": [
            3,
            -1
          ],
          "loops": [
            [
              3,
              1
            ]
          ]
        },
        {
          "surface": [
            4,
            1
          ],
          "loops": [
            [
              4,
              1
            ]
          ]
        },
        {
          "surface": [
            5,
            -1
          ],
          "loops": [
            [
              5,
              1
            ]
          ]
        },
        {
          "surface": [
            6,
            -1
          ],
          "loops": [
            [
              6,
              1
            ]
          ]
        },
        {
          "surface": [
            7,
            -1
          ],
          "loops": [
            [
              7,
              1
            ]
          ]
        },
        {
          "surface": [
            8,
            -1
          ],
          "loops": [
            [
              8,
              1
            ]
          ]
        }
      ],
      "loops": [
        {
          "edges": [
            [
              0,
              1
            ],
            [
              1,
              1
            ],
            [
              2,
              1
            ],
            [
              3,
              1
            ],
            [
              4,
              1
            ],
            [
              5,
              1
            ],
            [
              6,
              -1
            ]
          ]
        },
        {
          "edges": [
            [
              7,
              1
            ],
            [
              8,
              1
            ],
            [
              9,
              1
            ],
            [
              10,
              1
            ],
            [
              11,
              1
            ],
            [
              12,
              1
            ],
            [
              13,
              1
            ]
          ]
        },
        {
          "edges": [
            [
              14,
              1
            ],
            [
              6,
              1
            ],
            [
              15,
              -1
            ],
            [
              8,
              -1
            ]
          ]
        },
        {
          "edges": [
            [
              14,
              -1
            ],
            [
              7,
              -1
            ],
            [
              16,
              1
            ],
            [
              0,
              -1
            ]
          ]
        },
        {
          "edges": [
            [
              5,
              -1
            ],
            [
              17,
              1
            ],
            [
              9,
              -1
            ],
            [
              15,
              1
            ]
          ]
        },
        {
          "edges": [
            [
              2,
              -1
            ],
            [
              18,
              1
            ],
            [
              12,
              -1
            ],
            [
              19,
              -1
            ]
          ]
        },
        {
          "edges": [
            [
              11,
              -1
            ],
            [
              20,
              1
            ],
            [
              3,
              -1
            ],
            [
              19,
              1
            ]
          ]
        },
        {
          "edges": [
            [
              16,
              -1
            ],
            [
              13,
              -1
            ],
            [
              18,
              -1
            ],
            [
              1,
              -1
            ]
          ]
        },
        {
          "edges": [
            [
              20,
              -1
            ],
            [
              10,
              -1
            ],
            [
              17,
              -1
            ],
            [
              4,
              -1
            ]
          ]
        }
      ],
      "edges": [
        {
          "curve": [
            0,
            1
          ],
          "start": 0,
          "end": 1,
          "t": [
            0,
            0.004525415301251366
          ]
        },
        {
          "curve": [
            1,
            1
          ],
          "start": 1,
          "end": 2,
          "t": [
            0,
            0.00173592
          ]
        },
        {
          "curve": [
            2,
            1
          ],
          "start": 2,
          "end": 3,
          "t": [
            0,
            0.0024708450136137635
          ]
        },
        {
          "curve": [
            3,
            1
          ],
          "start": 3,
          "end": 4,
          "t": [
            0,
            0.0023596947046175274
          ]
        },
        {
          "curve": [
            4,
            1
          ],
          "start": 4,
          "end": 5,
          "t": [
            0,
            0.00197121
          ]
        },
        {
          "curve": [
            5,
            1
          ],
          "start": 5,
          "end": 6,
          "t": [
            0,
            0.004525415301251366
          ]
        },
        {
          "curve": [
            6,
            1
          ],
          "start": 0,
          "end": 6,
          "t": [
            0,
            0.005
          ]
        },
        {
          "curve": [
            7,
            1
          ],
          "start": 7,
          "end": 8,
          "t": [
            0,
            0.004075368631032044
          ]
        },
        {
          "curve": [
            8,
            1
          ],
          "start": 8,
          "end": 9,
          "t": [
            0,
            0.005
          ]
        },
        {
          "curve": [
            9,
            1
          ],
          "start": 9,
          "end": 10,
          "t": [
            0,
            0.004075368631032044
          ]
        },
        {
          "curve": [
            10,
            1
          ],
          "start": 10,
          "end": 11,
          "t": [
            0,
            0.00197731
          ]
        },
        {
          "curve": [
            11,
            1
          ],
          "start": 11,
          "end": 12,
          "t": [
            0,
            0.002191463453174613
          ]
        },
        {
          "curve": [
            12,
            1
          ],
          "start": 12,
          "end": 13,
          "t": [
            0,
            0.0023075114549228133
          ]
        },
        {
          "curve": [
            13,
            1
          ],
          "start": 13,
          "end": 7,
          "t": [
            0,
            0.00174779
          ]
        },
        {
          "curve": [
            14,
            1
          ],
          "start": 8,
          "end": 0,
          "t": [
            0,
            0.003582736384385544
          ]
        },
        {
          "curve": [
            15,
            1
          ],
          "start": 9,
          "end": 6,
          "t": [
            0,
            0.003582736384385544
          ]
        },
        {
          "curve": [
            16,
            1
          ],
          "start": 7,
          "end": 1,
          "t": [
            0.000003825875043051513,
            2.3824495136131643
          ]
        },
        {
          "curve": [
            17,
            1
          ],
          "start": 5,
          "end": 10,
          "t": [
            0.000011434033490473494,
            2.3824571217716106
          ]
        },
        {
          "curve": [
            18,
            1
          ],
          "start": 2,
          "end": 13,
          "t": [
            0,
            1
          ]
        },
        {
          "curve": [
            19,
            1
          ],
          "start": 3,
          "end": 12,
          "t": [
            0,
            0.00203274
          ]
        },
        {
          "curve": [
            20,
            1
          ],
          "start": 11,
          "end": 4,
          "t": [
            -1,
            -0
          ]
        }
      ],
      "vertices": [
        [
          0.00438,
          0.00043,
          -0
        ],
        [
          0.00238142,
          0.00449018,
          -0
        ],
        [
          0.00238142,
          0.00449018,
          0.00173592
        ],
        [
          0.00340537,
          0.00241,
          0.00259
        ],
        [
          0.00238142,
          0.00449018,
          0.00302879
        ],
        [
          0.00238142,
          0.00449018,
          0.005
        ],
        [
          0.00438,
          0.00043,
          0.005
        ],
        [
          0.00201102,
          0.00446128,
          -0
        ],
        [
          0.0008,
          0.00057,
          -0
        ],
        [
          0.0008,
          0.00057,
          0.005
        ],
        [
          0.00201102,
          0.00446128,
          0.005
        ],
        [
          0.00201102,
          0.00446128,
          0.00302269
        ],
        [
          0.00137263,
          0.00241,
          0.00259
        ],
        [
          0.00201102,
          0.00446128,
          0.00174779
        ]
      ],
      "surfaces": [
        {
          "type": "plane",
          "plane": {
            "xAxis": [
              0.4416347591922584,
              -0.8971949283590474,
              0
            ],
            "yAxis": [
              0,
              0,
              -1
            ],
            "origin": [
              0.00327,
              0.002685,
              0.0025
            ]
          }
        },
        {
          "type": "plane",
          "plane": {
            "xAxis": [
              0.2971550891122045,
              0.954829227147304,
              0
            ],
            "yAxis": [
              0,
              0,
              -1
            ],
            "origin": [
              0.00148,
              0.002755,
              0.0025
            ]
          }
        },
        {
          "type": "plane",
          "plane": {
            "xAxis": [
              0.9992362304979936,
              -0.039076280019474614,
              0
            ],
            "yAxis": [
              0,
              0,
              1
            ],
            "origin": [
              0.00259,
              0.0005,
              0.0025
            ]
          }
        },
        {
          "type": "plane",
          "plane": {
            "xAxis": [
              1,
              0,
              0
            ],
            "yAxis": [
              0,
              1,
              0
            ],
            "origin": [
              0,
              0,
              0
            ]
          }
        },
        {
          "type": "plane",
          "plane": {
            "xAxis": [
              1,
              0,
              -0
            ],
            "yAxis": [
              -0,
              1,
              0
            ],
            "origin": [
              0,
              0,
              0.005
            ]
          }
        },
        {
          "type": "plane",
          "plane": {
            "xAxis": [
              1,
              0,
              0
            ],
            "yAxis": [
              0,
              -0.9250636810249224,
              0.379812040420812
            ],
            "origin": [
              0.01,
              0.004395,
              0.001775
            ]
          }
        },
        {
          "type": "plane",
          "plane": {
            "xAxis": [
              1,
              0,
              0
            ],
            "yAxis": [
              -0,
              0.9784686027297912,
              0.20639572057581537
            ],
            "origin": [
              0.01,
              0.00433,
              0.002995
            ]
          }
        },
        {
          "type": "nurbs",
          "nurbs": {
            "controlPoints": [
              [
                0.00238142,
                0.00449018,
                -0
              ],
              [
                0.00216,
                0.00494,
                -0
              ],
              [
                0.00201102,
                0.00446128,
                -0
              ],
              [
                0.00238142,
                0.00449018,
                0.00086796
              ],
              [
                0.00216,
                0.00494,
                0.00077562
              ],
              [
                0.00201102,
                0.00446128,
                0.00087389
              ],
              [
                0.00238142,
                0.00449018,
                0.00173592
              ],
              [
                0.00216,
                0.00494,
                0.00155123
              ],
              [
                0.00201102,
                0.00446128,
                0.00174779
              ]
            ],
            "numControlPoints": [
              3,
              3
            ],
            "numKnots": [
              6,
              6
            ],
            "knotVector": [
              0,
              0,
              0,
              1,
              1,
              1,
              0,
              0,
              0,
              1,
              1,
              1
            ],
            "weights": [
              1,
              0.37051726,
              1,
              1,
              0.35663466,
              1,
              1,
              0.34275206,
              1
            ],
            "order": [
              3,
              3
            ]
          }
        },
        {
          "type": "nurbs",
          "nurbs": {
            "controlPoints": [
              [
                0.00238142,
                0.00449018,
                0.00302879
              ],
              [
                0.00216,
                0.00494,
                0.00312367
              ],
              [
                0.00201102,
                0.00446128,
                0.00302269
              ],
              [
                0.00238142,
                0.00449018,
                0.00401439
              ],
              [
                0.00216,
                0.00494,
                0.00406184
              ],
              [
                0.00201102,
                0.00446128,
                0.00401135
              ],
              [
                0.00238142,
                0.00449018,
                0.005
              ],
              [
                0.00216,
                0.00494,
                0.005
              ],
              [
                0.00201102,
                0.00446128,
                0.005
              ]
            ],
            "numControlPoints": [
              3,
              3
            ],
            "numKnots": [
              6,
              6
            ],
            "knotVector": [
              0,
              0,
              0,
              1,
              1,
              1,
              0,
              0,
              0,
              1,
              1,
              1
            ],
            "weights": [
              1,
              0.3625395,
              1,
              1,
              0.36652838,
              1,
              1,
              0.37051726,
              1
            ],
            "order": [
              3,
              3
            ]
          }
        }
      ],
      "curves3D": [
        {
          "type": "line",
          "line": {
            "origin": [
              0.00438,
              0.00043,
              -0
            ],
            "direction": [
              -0.4416346052145432,
              0.8971950041529404,
              0
            ]
          }
        },
        {
          "type": "line",
          "line": {
            "origin": [
              0.00238142,
              0.00449018,
              -0
            ],
            "direction": [
              0,
              0,
              1
            ]
          }
        },
        {
          "type": "line",
          "line": {
            "origin": [
              0.00238142,
              0.00449018,
              0.00173592
            ],
            "direction": [
              0.4144128807587205,
              -0.8418901179712636,
              0.34566312143992195
            ]
          }
        },
        {
          "type": "line",
          "line": {
            "origin": [
              0.00340537,
              0.00241,
              0.00259
            ],
            "direction": [
              -0.4339332533129397,
              0.8815462423717084,
              0.18595202131079144
            ]
          }
        },
        {
          "type": "line",
          "line": {
            "origin": [
              0.00238142,
              0.00449018,
              0.00302879
            ],
            "direction": [
              0,
              0,
              1
            ]
          }
        },
        {
          "type": "line",
          "line": {
            "origin": [
              0.00238142,
              0.00449018,
              0.005
            ],
            "direction": [
              0.4416346052145432,
              -0.8971950041529404,
              0
            ]
          }
        },
        {
          "type": "line",
          "line": {
            "origin": [
              0.00438,
              0.00043,
              -0
            ],
            "direction": [
              0,
              0,
              1
            ]
          }
        },
        {
          "type": "line",
          "line": {
            "origin": [
              0.00201102,
              0.00446128,
              -0
            ],
            "direction": [
              -0.29715594088314956,
              -0.954828962064856,
              0
            ]
          }
        },
        {
          "type": "line",
          "line": {
            "origin": [
              0.0008,
              0.00057,
              -0
            ],
            "direction": [
              0,
              0,
              1
            ]
          }
        },
        {
          "type": "line",
          "line": {
            "origin": [
              0.0008,
              0.00057,
              0.005
            ],
            "direction": [
              0.29715594088314956,
              0.954828962064856,
              0
            ]
          }
        },
        {
          "type": "line",
          "line": {
            "origin": [
              0.00201102,
              0.00446128,
              0.005
            ],
            "direction": [
              0,
              0,
              -1
            ]
          }
        },
        {
          "type": "line",
          "line": {
            "origin": [
              0.00201102,
              0.00446128,
              0.00302269
            ],
            "direction": [
              -0.2913076186943529,
              -0.9360320369607168,
              -0.19744340220376197
            ]
          }
        },
        {
          "type": "line",
          "line": {
            "origin": [
              0.00137263,
              0.00241,
              0.00259
            ],
            "direction": [
              0.27665734817396803,
              0.8889576671976327,
              -0.36498627047039817
            ]
          }
        },
        {
          "type": "line",
          "line": {
            "origin": [
              0.00201102,
              0.00446128,
              0.00174779
            ],
            "direction": [
              0,
              0,
              -1
            ]
          }
        },
        {
          "type": "line",
          "line": {
            "origin": [
              0.0008,
              0.00057,
              -0
            ],
            "direction": [
              0.9992362306092434,
              -0.039076277174663145,
              0
            ]
          }
        },
        {
          "type": "line",
          "line": {
            "origin": [
              0.0008,
              0.00057,
              0.005
            ],
            "direction": [
              0.9992362306092434,
              -0.039076277174663145,
              0
            ]
          }
        },
        {
          "type": "circle",
          "circle": {
            "xAxis": [
              -0.954829227147304,
              0.2971550891122045,
              0
            ],
            "yAxis": [
              0.2971550891122045,
              0.954829227147304,
              0
            ],
            "origin": [
              0.00220198,
              0.00440185,
              -0
            ],
            "radius": 0.0002
          }
        },
        {
          "type": "circle",
          "circle": {
            "xAxis": [
              0.8971949283590474,
              0.4416347591922584,
              -0
            ],
            "yAxis": [
              -0.4416347591922584,
              0.8971949283590474,
              0
            ],
            "origin": [
              0.00220198,
              0.00440185,
              0.005
            ],
            "radius": 0.0002
          }
        },
        {
          "type": "nurbs",
          "nurbs": {
            "controlPoints": [
              [
                0.00238142,
                0.00449018,
                0.00173592
              ],
              [
                0.00216,
                0.00494,
                0.00155123
              ],
              [
                0.00201102,
                0.00446128,
                0.00174779
              ]
            ],
            "order": 3,
            "knotVector": [
              0,
              0,
              0,
              1,
              1,
              1
            ],
            "weights": [
              1,
              0.34275206,
              1
            ]
          }
        },
        {
          "type": "line",
          "line": {
            "origin": [
              0.00340537,
              0.00241,
              0.00259
            ],
            "direction": [
              -1,
              0,
              0
            ]
          }
        },
        {
          "type": "nurbs",
          "nurbs": {
            "controlPoints": [
              [
                0.00201102,
                0.00446128,
                0.00302269
              ],
              [
                0.00216,
                0.00494,
                0.00312367
              ],
              [
                0.00238142,
                0.00449018,
                0.00302879
              ]
            ],
            "order": 3,
            "knotVector": [
              -1,
              -1,
              -1,
              -0,
              -0,
              -0
            ],
            "weights": [
              1,
              0.3625395,
              1
            ]
          }
        }
      ]
    }
  },
  "extensionsUsed": [
    "KITTYCAD_boundary_representation"
  ],
  "materials": [
    {
      "alphaMode": "OPAQUE",
      "doubleSided": false,
      "pbrMetallicRoughness": {
        "baseColorFactor": [
          0.9,
          0.9,
          0.9,
          1
        ],
        "metallicFactor": 1,
        "roughnessFactor": 1
      },
      "emissiveFactor": [
        0,
        0,
        0
      ]
    }
  ],
  "meshes": [
    {
      "primitives": [
        {
          "attributes": {
            "POSITION": 0,
            "NORMAL": 1
          },
          "material": 0
        },
        {
          "attributes": {
            "POSITION": 2,
            "NORMAL": 3
          },
          "material": 0
        },
        {
          "attributes": {
            "POSITION": 4,
            "NORMAL": 5
          },
          "material": 0
        },
        {
          "attributes": {
            "POSITION": 6,
            "NORMAL": 7
          },
          "material": 0
        },
        {
          "attributes": {
            "POSITION": 8,
            "NORMAL": 9
          },
          "material": 0
        },
        {
          "attributes": {
            "POSITION": 10,
            "NORMAL": 11
          },
          "material": 0
        },
        {
          "attributes": {
            "POSITION": 12,
            "NORMAL": 13
          },
          "material": 0
        },
        {
          "attributes": {
            "POSITION": 14,
            "NORMAL": 15
          },
          "material": 0
        },
        {
          "attributes": {
            "POSITION": 16,
            "NORMAL": 17
          },
          "material": 0
        }
      ]
    }
  ],
  "nodes": [
    {
      "children": [
        1
      ]
    },
    {
      "children": [
        2
      ]
    },
    {
      "extensions": {
        "KITTYCAD_boundary_representation": {
          "solid": 0
        }
      },
      "mesh": 0
    }
  ],
  "scenes": [
    {
      "nodes": [
        0
      ]
    }
  ]
}