{
  "accessors": [
    {
      "bufferView": 0,
      "byteOffset": 0,
      "count": 3120,
      "componentType": 5126,
      "type": "VEC3",
      "min": [
        -0.25,
        -0.20000000298023224,
        0
      ],
      "max": [
        -0.14917828142642975,
        -0.15000000596046448,
        0.02613211609423161
      ]
    },
    {
      "bufferView": 0,
      "byteOffset": 12,
      "count": 3120,
      "componentType": 5126,
      "type": "VEC3"
    },
    {
      "bufferView": 1,
      "byteOffset": 0,
      "count": 381,
      "componentType": 5126,
      "type": "VEC3",
      "min": [
        -0.25,
        -0.25,
        0
      ],
      "max": [
        -0.15000000596046448,
        -0.15000000596046448,
        0
      ]
    },
    {
      "bufferView": 1,
      "byteOffset": 12,
      "count": 381,
      "componentType": 5126,
      "type": "VEC3"
    },
    {
      "bufferView": 2,
      "byteOffset": 0,
      "count": 381,
      "componentType": 5126,
      "type": "VEC3",
      "min": [
        -0.24863047897815704,
        -0.25,
        0.015679270029067993
      ],
      "max": [
        -0.14917828142642975,
        -0.15000000596046448,
        0.02613211609423161
      ]
    },
    {
      "bufferView": 2,
      "byteOffset": 12,
      "count": 381,
      "componentType": 5126,
      "type": "VEC3"
    },
    {
      "bufferView": 3,
      "byteOffset": 0,
      "count": 3072,
      "componentType": 5126,
      "type": "VEC3",
      "min": [
        -0.25,
        -0.25,
        -0
      ],
      "max": [
        -0.14917828142642975,
        -0.20000000298023224,
        0.02613211609423161
      ]
    },
    {
      "bufferView": 3,
      "byteOffset": 12,
      "count": 3072,
      "componentType": 5126,
      "type": "VEC3"
    },
    {
      "bufferView": 4,
      "byteOffset": 0,
      "count": 12288,
      "componentType": 5126,
      "type": "VEC3",
      "min": [
        -0.25,
        0.20000000298023224,
        -0.000000000000000030616171314629196
      ],
      "max": [
        0.2400425672531128,
        0.25,
        0.24999277293682096
      ]
    },
    {
      "bufferView": 4,
      "byteOffset": 12,
      "count": 12288,
      "componentType": 5126,
      "type": "VEC3"
    },
    {
      "bufferView": 5,
      "byteOffset": 0,
      "count": 186,
      "componentType": 5126,
      "type": "VEC3",
      "min": [
        0.15000000596046448,
        0.15000000596046448,
        0
      ],
      "max": [
        0.25,
        0.25,
        0
      ]
    },
    {
      "bufferView": 5,
      "byteOffset": 12,
      "count": 186,
      "componentType": 5126,
      "type": "VEC3"
    },
    {
      "bufferView": 6,
      "byteOffset": 0,
      "count": 186,
      "componentType": 5126,
      "type": "VEC3",
      "min": [
        0.1440255492925644,
        0.15000000596046448,
        0.041912324726581573
      ],
      "max": [
        0.2400425672531128,
        0.25,
        0.06985387206077576
      ]
    },
    {
      "bufferView": 6,
      "byteOffset": 12,
      "count": 186,
      "componentType": 5126,
      "type": "VEC3"
    },
    {
      "bufferView": 7,
      "byteOffset": 0,
      "count": 12288,
      "componentType": 5126,
      "type": "VEC3",
      "min": [
        -0.25,
        0.15000000596046448,
        -0.000000000000000030616171314629196
      ],
      "max": [
        0.2400425672531128,
        0.20000000298023224,
        0.24999277293682096
      ]
    },
    {
      "bufferView": 7,
      "byteOffset": 12,
      "count": 12288,
      "componentType": 5126,
      "type": "VEC3"
    },
    {
      "bufferView": 8,
      "byteOffset": 0,
      "count": 24576,
      "componentType": 5126,
      "type": "VEC3",
      "min": [
        -0.25,
        0.20000000298023224,
        -0.25
      ],
      "max": [
        0.25,
        0.25,
        -0
      ]
    },
    {
      "bufferView": 8,
      "byteOffset": 12,
      "count": 24576,
      "componentType": 5126,
      "type": "VEC3"
    },
    {
      "bufferView": 9,
      "byteOffset": 0,
      "count": 24576,
      "componentType": 5126,
      "type": "VEC3",
      "min": [
        -0.25,
        0.15000000596046448,
        -0.25
      ],
      "max": [
        0.25,
        0.20000000298023224,
        0
      ]
    },
    {
      "bufferView": 9,
      "byteOffset": 12,
      "count": 24576,
      "componentType": 5126,
      "type": "VEC3"
    }
  ],
  "asset": {
    "generator": "zoo.dev",
    "version": "2.0"
  },
  "buffers": [
    {
      "byteLength": 1945296,
      "uri": "data:application/octet-stream;base64,"
    }
  ],
  "bufferViews": [
    {
      "buffer": 0,
      "byteLength": 74880,
      "byteOffset": 0,
      "byteStride": 24,
      "target": 34962
    },
    {
      "buffer": 0,
      "byteLength": 9144,
      "byteOffset": 74880,
      "byteStride": 24,
      "target": 34962
    },
    {
      "buffer": 0,
      "byteLength": 9144,
      "byteOffset": 84024,
      "byteStride": 24,
      "target": 34962
    },
    {
      "buffer": 0,
      "byteLength": 73728,
      "byteOffset": 93168,
      "byteStride": 24,
      "target": 34962
    },
    {
      "buffer": 0,
      "byteLength": 294912,
      "byteOffset": 166896,
      "byteStride": 24,
      "target": 34962
    },
    {
      "buffer": 0,
      "byteLength": 4464,
      "byteOffset": 461808,
      "byteStride": 24,
      "target": 34962
    },
    {
      "buffer": 0,
      "byteLength": 4464,
      "byteOffset": 466272,
      "byteStride": 24,
      "target": 34962
    },
    {
      "buffer": 0,
      "byteLength": 294912,
      "byteOffset": 470736,
      "byteStride": 24,
      "target": 34962
    },
    {
      "buffer": 0,
      "byteLength": 589824,
      "byteOffset": 765648,
      "byteStride": 24,
      "target": 34962
    },
    {
      "buffer": 0,
      "byteLength": 589824,
      "byteOffset": 1355472,
      "byteStride": 24,
      "target": 34962
    }
  ],
  "scene": 0,
  "extensions": {
    "KITTYCAD_boundary_representation": {
      "solids": [
        {
          "shells": [
            [
              0,
              1
            ]
          ],
          "mesh": 0
        },
        {
          "shells": [
            [
              1,
              1
            ]
          ],
          "mesh": 1
        }
      ],
      "shells": [
        {
          "faces": [
            [
              0,
              1
            ],
            [
              1,
              1
            ],
            [
              2,
              1
            ],
            [
              3,
              1
            ]
          ]
        },
        {
          "faces": [
            [
              4,
              1
            ],
            [
              5,
              1
            ],
            [
              6,
              1
            ],
            [
              7,
              1
            ],
            [
              8,
              1
            ],
            [
              9,
              1
            ]
          ]
        }
      ],
      "faces": [
        {
          "surface": [
            0,
            1
          ],
          "loops": [
            [
              0,
              1
            ]
          ]
        },
        {
          "surface": [
            1,
            -1
          ],
          "loops": [
            [
              1,
              1
            ]
          ]
        },
        {
          "surface": [
            2,
            1
          ],
          "loops": [
            [
              2,
              1
            ]
          ]
        },
        {
          "surface": [
            0,
            1
          ],
          "loops": [
            [
              3,
              1
            ]
          ]
        },
        {
          "surface": [
            3,
            1
          ],
          "loops": [
            [
              4,
              1
            ]
          ]
        },
        {
          "surface": [
            4,
            1
          ],
          "loops": [
            [
              5,
              1
            ]
          ]
        },
        {
          "surface": [
            5,
            -1
          ],
          "loops": [
            [
              6,
              1
            ]
          ]
        },
        {
          "surface": [
            3,
            1
          ],
          "loops": [
            [
              7,
              1
            ]
          ]
        },
        {
          "surface": [
            3,
            1
          ],
          "loops": [
            [
              8,
              1
            ]
          ]
        },
        {
          "surface": [
            3,
            1
          ],
          "loops": [
            [
              9,
              1
            ]
          ]
        }
      ],
      "loops": [
        {
          "edges": [
            [
              0,
              1
            ],
            [
              1,
              -1
            ],
            [
              2,
              -1
            ],
            [
              3,
              -1
            ]
          ]
        },
        {
          "edges": [
            [
              4,
              1
            ],
            [
              1,
              1
            ]
          ]
        },
        {
          "edges": [
            [
              3,
              1
            ],
            [
              5,
              1
            ]
          ]
        },
        {
          "edges": [
            [
              0,
              -1
            ],
            [
              5,
              -1
            ],
            [
              2,
              1
            ],
            [
              4,
              -1
            ]
          ]
        },
        {
          "edges": [
            [
              6,
              1
            ],
            [
              7,
              1
            ],
            [
              8,
              -1
            ],
            [
              9,
              1
            ]
          ]
        },
        {
          "edges": [
            [
              10,
              -1
            ],
            [
              11,
              -1
            ]
          ]
        },
        {
          "edges": [
            [
              12,
              -1
            ],
            [
              9,
              -1
            ]
          ]
        },
        {
          "edges": [
            [
              6,
              -1
            ],
            [
              12,
              1
            ],
            [
              8,
              1
            ],
            [
              13,
              1
            ]
          ]
        },
        {
          "edges": [
            [
              14,
              1
            ],
            [
              10,
              1
            ],
            [
              15,
              -1
            ],
            [
              7,
              -1
            ]
          ]
        },
        {
          "edges": [
            [
              14,
              -1
            ],
            [
              13,
              -1
            ],
            [
              15,
              1
            ],
            [
              11,
              1
            ]
          ]
        }
      ],
      "edges": [
        {
          "curve": [
            0,
            -1
          ],
          "start": 0,
          "end": 1,
          "t": [
            0,
            0.10471975511965947
          ]
        },
        {
          "curve": [
            1,
            1
          ],
          "start": 2,
          "end": 1,
          "t": [
            3.141592653589793,
            6.283185307179586
          ]
        },
        {
          "curve": [
            2,
            -1
          ],
          "start": 3,
          "end": 2,
          "t": [
            0,
            0.10471975511965947
          ]
        },
        {
          "curve": [
            3,
            1
          ],
          "start": 0,
          "end": 3,
          "t": [
            0,
            3.141592653589793
          ]
        },
        {
          "curve": [
            1,
            1
          ],
          "start": 1,
          "end": 2,
          "t": [
            0,
            3.141592653589793
          ]
        },
        {
          "curve": [
            3,
            1
          ],
          "start": 3,
          "end": 0,
          "t": [
            3.141592653589793,
            6.283185307179586
          ]
        },
        {
          "curve": [
            4,
            -1
          ],
          "start": 4,
          "end": 5,
          "t": [
            3.141592653589793,
            6
          ]
        },
        {
          "curve": [
            5,
            -1
          ],
          "start": 5,
          "end": 6,
          "t": [
            0,
            3.141592653589793
          ]
        },
        {
          "curve": [
            6,
            -1
          ],
          "start": 7,
          "end": 6,
          "t": [
            3.141592653589793,
            6
          ]
        },
        {
          "curve": [
            7,
            1
          ],
          "start": 7,
          "end": 4,
          "t": [
            0,
            3.141592653589793
          ]
        },
        {
          "curve": [
            8,
            1
          ],
          "start": 8,
          "end": 9,
          "t": [
            3.141592653589793,
            6.283185307179586
          ]
        },
        {
          "curve": [
            8,
            1
          ],
          "start": 9,
          "end": 8,
          "t": [
            0,
            3.141592653589793
          ]
        },
        {
          "curve": [
            7,
            1
          ],
          "start": 4,
          "end": 7,
          "t": [
            3.141592653589793,
            6.283185307179586
          ]
        },
        {
          "curve": [
            5,
            -1
          ],
          "start": 6,
          "end": 5,
          "t": [
            3.141592653589793,
            6.283185307179586
          ]
        },
        {
          "curve": [
            9,
            -1
          ],
          "start": 5,
          "end": 8,
          "t": [
            0,
            3.141592653589793
          ]
        },
        {
          "curve": [
            10,
            -1
          ],
          "start": 6,
          "end": 9,
          "t": [
            0,
            3.141592653589793
          ]
        }
      ],
      "vertices": [
        [
          -0.149178284305241,
          -0.2,
          0.01567926949014802
        ],
        [
          -0.15,
          -0.2,
          -0
        ],
        [
          -0.25,
          -0.2,
          -0
        ],
        [
          -0.24863047384206832,
          -0.2,
          0.026132115816913364
        ],
        [
          0.14402554299755488,
          0.2,
          0.04191232472983888
        ],
        [
          -0.14999999999999994,
          0.2,
          -0.000000000000000018369701987210288
        ],
        [
          -0.25,
          0.2,
          -0.00000000000000003061616997868383
        ],
        [
          0.2400425716625915,
          0.2,
          0.06985387454973148
        ],
        [
          0.15000000000000002,
          0.2,
          -0
        ],
        [
          0.25,
          0.2,
          -0
        ]
      ],
      "surfaces": [
        {
          "type": "torus",
          "torus": {
            "xAxis": [
              -1,
              0,
              -0
            ],
            "yAxis": [
              0,
              0,
              1
            ],
            "origin": [
              0,
              -0.2,
              -0
            ],
            "majorRadius": 0.20000000000000004,
            "minorRadius": 0.05
          }
        },
        {
          "type": "plane",
          "plane": {
            "xAxis": [
              1,
              0,
              0
            ],
            "yAxis": [
              0,
              1,
              0
            ],
            "origin": [
              0,
              0,
              0
            ]
          }
        },
        {
          "type": "plane",
          "plane": {
            "xAxis": [
              0.9945218953682734,
              0,
              -0.10452846326765348
            ],
            "yAxis": [
              -0,
              1,
              0
            ],
            "origin": [
              0,
              0,
              -0
            ]
          }
        },
        {
          "type": "torus",
          "torus": {
            "xAxis": [
              1,
              0,
              -0
            ],
            "yAxis": [
              -0,
              0,
              -1
            ],
            "origin": [
              0,
              0.2,
              -0
            ],
            "majorRadius": 0.2,
            "minorRadius": 0.05
          }
        },
        {
          "type": "plane",
          "plane": {
            "xAxis": [
              1,
              0,
              0
            ],
            "yAxis": [
              0,
              1,
              0
            ],
            "origin": [
              0,
              0,
              0
            ]
          }
        },
        {
          "type": "plane",
          "plane": {
            "xAxis": [
              0.960170286650366,
              0,
              0.2794154981989259
            ],
            "yAxis": [
              0,
              1,
              -0
            ],
            "origin": [
              0,
              0,
              -0
            ]
          }
        }
      ],
      "curves3D": [
        {
          "type": "circle",
          "circle": {
            "xAxis": [
              -1,
              0,
              0
            ],
            "yAxis": [
              0,
              -0,
              1
            ],
            "origin": [
              0,
              -0.2,
              0
            ],
            "radius": 0.15000000000000002
          }
        },
        {
          "type": "circle",
          "circle": {
            "xAxis": [
              1,
              -0,
              0
            ],
            "yAxis": [
              0,
              -1,
              -0
            ],
            "origin": [
              -0.2,
              -0.2,
              -0
            ],
            "radius": 0.05
          }
        },
        {
          "type": "circle",
          "circle": {
            "xAxis": [
              -1,
              0,
              -0
            ],
            "yAxis": [
              0,
              0,
              1
            ],
            "origin": [
              0,
              -0.2,
              -0
            ],
            "radius": 0.25000000000000006
          }
        },
        {
          "type": "circle",
          "circle": {
            "xAxis": [
              0.9945218953682734,
              0,
              -0.10452846326765348
            ],
            "yAxis": [
              -0,
              1,
              0
            ],
            "origin": [
              -0.19890437907365463,
              -0.2,
              0.02090569265353069
            ],
            "radius": 0.05
          }
        },
        {
          "type": "circle",
          "circle": {
            "xAxis": [
              1,
              0,
              0
            ],
            "yAxis": [
              0,
              0,
              -1
            ],
            "origin": [
              0,
              0.2,
              0
            ],
            "radius": 0.14999999999999997
          }
        },
        {
          "type": "circle",
          "circle": {
            "xAxis": [
              -1,
              0,
              -0.00000000000000012246467991473532
            ],
            "yAxis": [
              0,
              1,
              0
            ],
            "origin": [
              -0.2,
              0.2,
              -0.000000000000000024492935982947065
            ],
            "radius": 0.05
          }
        },
        {
          "type": "circle",
          "circle": {
            "xAxis": [
              1,
              0,
              -0
            ],
            "yAxis": [
              -0,
              0,
              -1
            ],
            "origin": [
              0,
              0.2,
              -0
            ],
            "radius": 0.25
          }
        },
        {
          "type": "circle",
          "circle": {
            "xAxis": [
              0.960170286650366,
              0,
              0.2794154981989259
            ],
            "yAxis": [
              0,
              1,
              -0
            ],
            "origin": [
              0.19203405733007317,
              0.2,
              0.055883099639785175
            ],
            "radius": 0.05
          }
        },
        {
          "type": "circle",
          "circle": {
            "xAxis": [
              1,
              -0,
              0
            ],
            "yAxis": [
              0,
              -1,
              -0
            ],
            "origin": [
              0.2,
              0.2,
              -0
            ],
            "radius": 0.05
          }
        },
        {
          "type": "circle",
          "circle": {
            "xAxis": [
              1,
              0,
              0
            ],
            "yAxis": [
              0,
              0,
              -1
            ],
            "origin": [
              0,
              0.2,
              0
            ],
            "radius": 0.14999999999999997
          }
        },
        {
          "type": "circle",
          "circle": {
            "xAxis": [
              1,
              0,
              -0
            ],
            "yAxis": [
              -0,
              0,
              -1
            ],
            "origin": [
              0,
              0.2,
              -0
            ],
            "radius": 0.25
          }
        }
      ]
    }
  },
  "extensionsUsed": [
    "KITTYCAD_boundary_representation"
  ],
  "meshes": [
    {
      "primitives": [
        {
          "attributes": {
            "POSITION": 0,
            "NORMAL": 1
          }
        },
        {
          "attributes": {
            "POSITION": 2,
            "NORMAL": 3
          }
        },
        {
          "attributes": {
            "POSITION": 4,
            "NORMAL": 5
          }
        },
        {
          "attributes": {
            "POSITION": 6,
            "NORMAL": 7
          }
        }
      ]
    },
    {
      "primitives": [
        {
          "attributes": {
            "POSITION": 8,
            "NORMAL": 9
          }
        },
        {
          "attributes": {
            "POSITION": 10,
            "NORMAL": 11
          }
        },
        {
          "attributes": {
            "POSITION": 12,
            "NORMAL": 13
          }
        },
        {
          "attributes": {
            "POSITION": 14,
            "NORMAL": 15
          }
        },
        {
          "attributes": {
            "POSITION": 16,
            "NORMAL": 17
          }
        },
        {
          "attributes": {
            "POSITION": 18,
            "NORMAL": 19
          }
        }
      ]
    }
  ],
  "nodes": [
    {
      "children": [
        1
      ]
    },
    {
      "children": [
        2,
        3
      ]
    },
    {
      "extensions": {
        "KITTYCAD_boundary_representation": {
          "solid": 0
        }
      },
      "mesh": 0
    },
    {
      "extensions": {
        "KITTYCAD_boundary_representation": {
          "solid": 1
        }
      },
      "mesh": 1
    }
  ],
  "scenes": [
    {
      "nodes": [
        0
      ]
    }
  ]
}