{
  "accessors": [
    {
      "bufferView": 0,
      "byteOffset": 0,
      "count": 6,
      "componentType": 5126,
      "type": "VEC3",
      "min": [
        -0.0005000000237487257,
        0.0010000000474974513,
        -0.0005000000237487257
      ],
      "max": [
        0.0005000000237487257,
        0.0010000000474974513,
        0.0005000000237487257
      ]
    },
    {
      "bufferView": 0,
      "byteOffset": 12,
      "count": 6,
      "componentType": 5126,
      "type": "VEC3"
    },
    {
      "bufferView": 1,
      "byteOffset": 0,
      "count": 6,
      "componentType": 5126,
      "type": "VEC3",
      "min": [
        -0.0005000000237487257,
        0.00019999999494757503,
        -0.0005000000237487257
      ],
      "max": [
        -0.0005000000237487257,
        0.0010000000474974513,
        0.0005000000237487257
      ]
    },
    {
      "bufferView": 1,
      "byteOffset": 12,
      "count": 6,
      "componentType": 5126,
      "type": "VEC3"
    },
    {
      "bufferView": 2,
      "byteOffset": 0,
      "count": 177,
      "componentType": 5126,
      "type": "VEC3",
      "min": [
        -0.0005000000237487257,
        0,
        -0.0005000000237487257
      ],
      "max": [
        -0.0003000000142492354,
        0.00019999999494757503,
        0.0004999695811420679
      ]
    },
    {
      "bufferView": 2,
      "byteOffset": 12,
      "count": 177,
      "componentType": 5126,
      "type": "VEC3"
    },
    {
      "bufferView": 3,
      "byteOffset": 0,
      "count": 6,
      "componentType": 5126,
      "type": "VEC3",
      "min": [
        -0.0003000000142492354,
        0,
        -0.0003000000142492354
      ],
      "max": [
        0.0003000000142492354,
        0,
        0.0003000000142492354
      ]
    },
    {
      "bufferView": 3,
      "byteOffset": 12,
      "count": 6,
      "componentType": 5126,
      "type": "VEC3"
    },
    {
      "bufferView": 4,
      "byteOffset": 0,
      "count": 174,
      "componentType": 5126,
      "type": "VEC3",
      "min": [
        -0.0004999657394364476,
        0,
        -0.0005000000237487257
      ],
      "max": [
        0.0005000000237487257,
        0.00019999999494757503,
        -0.0003000000142492354
      ]
    },
    {
      "bufferView": 4,
      "byteOffset": 12,
      "count": 174,
      "componentType": 5126,
      "type": "VEC3"
    },
    {
      "bufferView": 5,
      "byteOffset": 0,
      "count": 6,
      "componentType": 5126,
      "type": "VEC3",
      "min": [
        -0.0005000000237487257,
        0.00019999999494757503,
        -0.0005000000237487257
      ],
      "max": [
        0.0005000000237487257,
        0.0010000000474974513,
        -0.0005000000237487257
      ]
    },
    {
      "bufferView": 5,
      "byteOffset": 12,
      "count": 6,
      "componentType": 5126,
      "type": "VEC3"
    },
    {
      "bufferView": 6,
      "byteOffset": 0,
      "count": 180,
      "componentType": 5126,
      "type": "VEC3",
      "min": [
        -0.0005000000237487257,
        0,
        0.0003000000142492354
      ],
      "max": [
        0.0004999695811420679,
        0.00019999999494757503,
        0.0005000000237487257
      ]
    },
    {
      "bufferView": 6,
      "byteOffset": 12,
      "count": 180,
      "componentType": 5126,
      "type": "VEC3"
    },
    {
      "bufferView": 7,
      "byteOffset": 0,
      "count": 6,
      "componentType": 5126,
      "type": "VEC3",
      "min": [
        -0.0005000000237487257,
        0.00019999999494757503,
        0.0005000000237487257
      ],
      "max": [
        0.0005000000237487257,
        0.0010000000474974513,
        0.0005000000237487257
      ]
    },
    {
      "bufferView": 7,
      "byteOffset": 12,
      "count": 6,
      "componentType": 5126,
      "type": "VEC3"
    },
    {
      "bufferView": 8,
      "byteOffset": 0,
      "count": 177,
      "componentType": 5126,
      "type": "VEC3",
      "min": [
        0.0003000000142492354,
        0,
        -0.0004998653312213719
      ],
      "max": [
        0.0005000000237487257,
        0.00019999999494757503,
        0.0005000000237487257
      ]
    },
    {
      "bufferView": 8,
      "byteOffset": 12,
      "count": 177,
      "componentType": 5126,
      "type": "VEC3"
    },
    {
      "bufferView": 9,
      "byteOffset": 0,
      "count": 6,
      "componentType": 5126,
      "type": "VEC3",
      "min": [
        0.0005000000237487257,
        0.00019999999494757503,
        -0.0005000000237487257
      ],
      "max": [
        0.0005000000237487257,
        0.0010000000474974513,
        0.0005000000237487257
      ]
    },
    {
      "bufferView": 9,
      "byteOffset": 12,
      "count": 6,
      "componentType": 5126,
      "type": "VEC3"
    }
  ],
  "asset": {
    "generator": "zoo.dev",
    "version": "2.0"
  },
  "buffers": [
    {
      "byteLength": 17856,
      "uri": "data:application/octet-stream;base64,"
    }
  ],
  "bufferViews": [
    {
      "buffer": 0,
      "byteLength": 144,
      "byteOffset": 0,
      "byteStride": 24,
      "target": 34962
    },
    {
      "buffer": 0,
      "byteLength": 144,
      "byteOffset": 144,
      "byteStride": 24,
      "target": 34962
    },
    {
      "buffer": 0,
      "byteLength": 4248,
      "byteOffset": 288,
      "byteStride": 24,
      "target": 34962
    },
    {
      "buffer": 0,
      "byteLength": 144,
      "byteOffset": 4536,
      "byteStride": 24,
      "target": 34962
    },
    {
      "buffer": 0,
      "byteLength": 4176,
      "byteOffset": 4680,
      "byteStride": 24,
      "target": 34962
    },
    {
      "buffer": 0,
      "byteLength": 144,
      "byteOffset": 8856,
      "byteStride": 24,
      "target": 34962
    },
    {
      "buffer": 0,
      "byteLength": 4320,
      "byteOffset": 9000,
      "byteStride": 24,
      "target": 34962
    },
    {
      "buffer": 0,
      "byteLength": 144,
      "byteOffset": 13320,
      "byteStride": 24,
      "target": 34962
    },
    {
      "buffer": 0,
      "byteLength": 4248,
      "byteOffset": 13464,
      "byteStride": 24,
      "target": 34962
    },
    {
      "buffer": 0,
      "byteLength": 144,
      "byteOffset": 17712,
      "byteStride": 24,
      "target": 34962
    }
  ],
  "scene": 0,
  "extensions": {
    "KITTYCAD_boundary_representation": {
      "solids": [
        {
          "shells": [
            [
              0,
              1
            ]
          ],
          "mesh": 0,
          "extras": {
            "KITTYCAD": {
              "material": 0
            }
          }
        }
      ],
      "shells": [
        {
          "faces": [
            [
              0,
              1
            ],
            [
              1,
              1
            ],
            [
              2,
              1
            ],
            [
              3,
              1
            ],
            [
              4,
              1
            ],
            [
              5,
              1
            ],
            [
              6,
              1
            ],
            [
              7,
              1
            ],
            [
              8,
              1
            ],
            [
              9,
              1
            ]
          ]
        }
      ],
      "faces": [
        {
          "surface": [
            0,
            1
          ],
          "loops": [
            [
              0,
              1
            ]
          ]
        },
        {
          "surface": [
            1,
            1
          ],
          "loops": [
            [
              1,
              1
            ]
          ]
        },
        {
          "surface": [
            2,
            1
          ],
          "loops": [
            [
              2,
              1
            ]
          ]
        },
        {
          "surface": [
            3,
            -1
          ],
          "loops": [
            [
              3,
              1
            ]
          ]
        },
        {
          "surface": [
            4,
            1
          ],
          "loops": [
            [
              4,
              1
            ]
          ]
        },
        {
          "surface": [
            5,
            1
          ],
          "loops": [
            [
              5,
              1
            ]
          ]
        },
        {
          "surface": [
            6,
            1
          ],
          "loops": [
            [
              6,
              1
            ]
          ]
        },
        {
          "surface": [
            7,
            1
          ],
          "loops": [
            [
              7,
              1
            ]
          ]
        },
        {
          "surface": [
            8,
            1
          ],
          "loops": [
            [
              8,
              1
            ]
          ]
        },
        {
          "surface": [
            9,
            1
          ],
          "loops": [
            [
              9,
              1
            ]
          ]
        }
      ],
      "loops": [
        {
          "edges": [
            [
              0,
              1
            ],
            [
              1,
              1
            ],
            [
              2,
              1
            ],
            [
              3,
              1
            ]
          ]
        },
        {
          "edges": [
            [
              4,
              1
            ],
            [
              1,
              -1
            ],
            [
              5,
              -1
            ],
            [
              6,
              1
            ]
          ]
        },
        {
          "edges": [
            [
              7,
              -1
            ],
            [
              8,
              1
            ],
            [
              9,
              1
            ],
            [
              6,
              -1
            ]
          ]
        },
        {
          "edges": [
            [
              10,
              -1
            ],
            [
              11,
              -1
            ],
            [
              12,
              -1
            ],
            [
              8,
              -1
            ]
          ]
        },
        {
          "edges": [
            [
              13,
              1
            ],
            [
              10,
              1
            ],
            [
              7,
              1
            ],
            [
              14,
              -1
            ]
          ]
        },
        {
          "edges": [
            [
              5,
              1
            ],
            [
              0,
              -1
            ],
            [
              15,
              -1
            ],
            [
              14,
              1
            ]
          ]
        },
        {
          "edges": [
            [
              9,
              -1
            ],
            [
              12,
              1
            ],
            [
              16,
              1
            ],
            [
              17,
              -1
            ]
          ]
        },
        {
          "edges": [
            [
              18,
              1
            ],
            [
              2,
              -1
            ],
            [
              4,
              -1
            ],
            [
              17,
              1
            ]
          ]
        },
        {
          "edges": [
            [
              16,
              -1
            ],
            [
              11,
              1
            ],
            [
              13,
              -1
            ],
            [
              19,
              -1
            ]
          ]
        },
        {
          "edges": [
            [
              15,
              1
            ],
            [
              3,
              -1
            ],
            [
              18,
              -1
            ],
            [
              19,
              1
            ]
          ]
        }
      ],
      "edges": [
        {
          "curve": [
            0,
            1
          ],
          "start": 0,
          "end": 1,
          "t": [
            0,
            0.001
          ]
        },
        {
          "curve": [
            1,
            1
          ],
          "start": 1,
          "end": 2,
          "t": [
            0,
            0.001
          ]
        },
        {
          "curve": [
            2,
            1
          ],
          "start": 2,
          "end": 3,
          "t": [
            0,
            0.001
          ]
        },
        {
          "curve": [
            3,
            1
          ],
          "start": 3,
          "end": 0,
          "t": [
            0,
            0.001
          ]
        },
        {
          "curve": [
            4,
            1
          ],
          "start": 4,
          "end": 2,
          "t": [
            0,
            0.0008
          ]
        },
        {
          "curve": [
            5,
            1
          ],
          "start": 5,
          "end": 1,
          "t": [
            0,
            0.0008
          ]
        },
        {
          "curve": [
            6,
            1
          ],
          "start": 5,
          "end": 4,
          "t": [
            0,
            0.001
          ]
        },
        {
          "curve": [
            7,
            1
          ],
          "start": 6,
          "end": 5,
          "t": [
            0,
            1
          ]
        },
        {
          "curve": [
            8,
            1
          ],
          "start": 6,
          "end": 7,
          "t": [
            0,
            0.0006
          ]
        },
        {
          "curve": [
            9,
            1
          ],
          "start": 7,
          "end": 4,
          "t": [
            0,
            1
          ]
        },
        {
          "curve": [
            10,
            1
          ],
          "start": 8,
          "end": 6,
          "t": [
            0,
            0.0006
          ]
        },
        {
          "curve": [
            11,
            1
          ],
          "start": 9,
          "end": 8,
          "t": [
            0,
            0.0006
          ]
        },
        {
          "curve": [
            12,
            1
          ],
          "start": 7,
          "end": 9,
          "t": [
            0,
            0.0006
          ]
        },
        {
          "curve": [
            13,
            1
          ],
          "start": 10,
          "end": 8,
          "t": [
            0,
            1
          ]
        },
        {
          "curve": [
            14,
            1
          ],
          "start": 10,
          "end": 5,
          "t": [
            0,
            0.001
          ]
        },
        {
          "curve": [
            15,
            1
          ],
          "start": 10,
          "end": 0,
          "t": [
            0,
            0.0008
          ]
        },
        {
          "curve": [
            16,
            1
          ],
          "start": 9,
          "end": 11,
          "t": [
            0,
            1
          ]
        },
        {
          "curve": [
            17,
            1
          ],
          "start": 4,
          "end": 11,
          "t": [
            0,
            0.001
          ]
        },
        {
          "curve": [
            18,
            1
          ],
          "start": 11,
          "end": 3,
          "t": [
            0,
            0.0008
          ]
        },
        {
          "curve": [
            19,
            1
          ],
          "start": 11,
          "end": 10,
          "t": [
            0,
            0.001
          ]
        }
      ],
      "vertices": [
        [
          0.0005,
          0.001,
          -0.0005
        ],
        [
          -0.0005,
          0.001,
          -0.0005
        ],
        [
          -0.0005,
          0.001,
          0.0005
        ],
        [
          0.0005,
          0.001,
          0.0005
        ],
        [
          -0.0005,
          0.0002,
          0.0005
        ],
        [
          -0.0005,
          0.0002,
          -0.0005
        ],
        [
          -0.0003,
          0,
          -0.0003
        ],
        [
          -0.0003,
          0,
          0.0003
        ],
        [
          0.0003,
          0,
          -0.0003
        ],
        [
          0.0003,
          0,
          0.0003
        ],
        [
          0.0005,
          0.0002,
          -0.0005
        ],
        [
          0.0005,
          0.0002,
          0.0005
        ]
      ],
      "surfaces": [
        {
          "type": "plane",
          "plane": {
            "xAxis": [
              1,
              0,
              0
            ],
            "yAxis": [
              0,
              0,
              -1
            ],
            "origin": [
              0,
              0.001,
              -0
            ]
          }
        },
        {
          "type": "plane",
          "plane": {
            "xAxis": [
              0,
              1,
              0
            ],
            "yAxis": [
              0,
              0,
              -1
            ],
            "origin": [
              -0.0005,
              0.0005,
              -0
            ]
          }
        },
        {
          "type": "cylinder",
          "cylinder": {
            "xAxis": [
              0,
              -1,
              0
            ],
            "yAxis": [
              -1,
              -0,
              -0
            ],
            "origin": [
              -0.0003,
              0.0002,
              -0
            ],
            "radius": 0.0002
          }
        },
        {
          "type": "plane",
          "plane": {
            "xAxis": [
              1,
              0,
              0
            ],
            "yAxis": [
              0,
              0,
              -1
            ],
            "origin": [
              0,
              0,
              -0
            ]
          }
        },
        {
          "type": "cylinder",
          "cylinder": {
            "xAxis": [
              0,
              -1,
              0
            ],
            "yAxis": [
              0,
              0,
              -1
            ],
            "origin": [
              0,
              0.0002,
              -0.0003
            ],
            "radius": 0.0002
          }
        },
        {
          "type": "plane",
          "plane": {
            "xAxis": [
              1,
              0,
              0
            ],
            "yAxis": [
              0,
              -1,
              0
            ],
            "origin": [
              0,
              0.0005,
              -0.0005
            ]
          }
        },
        {
          "type": "cylinder",
          "cylinder": {
            "xAxis": [
              0,
              -1,
              -0
            ],
            "yAxis": [
              -0,
              -0,
              1
            ],
            "origin": [
              -0,
              0.0002,
              0.0003
            ],
            "radius": 0.0002
          }
        },
        {
          "type": "plane",
          "plane": {
            "xAxis": [
              1,
              0,
              -0
            ],
            "yAxis": [
              -0,
              1,
              0
            ],
            "origin": [
              0,
              0.0005,
              0.0005
            ]
          }
        },
        {
          "type": "cylinder",
          "cylinder": {
            "xAxis": [
              -0,
              -1,
              0
            ],
            "yAxis": [
              1,
              0,
              0
            ],
            "origin": [
              0.0003,
              0.0002,
              0
            ],
            "radius": 0.0002
          }
        },
        {
          "type": "plane",
          "plane": {
            "xAxis": [
              -0,
              1,
              0
            ],
            "yAxis": [
              0,
              -0,
              1
            ],
            "origin": [
              0.0005,
              0.0005,
              -0
            ]
          }
        }
      ],
      "curves3D": [
        {
          "type": "line",
          "line": {
            "origin": [
              0.0005,
              0.001,
              -0.0005
            ],
            "direction": [
              -1,
              0,
              0
            ]
          }
        },
        {
          "type": "line",
          "line": {
            "origin": [
              -0.0005,
              0.001,
              -0.0005
            ],
            "direction": [
              0,
              0,
              1
            ]
          }
        },
        {
          "type": "line",
          "line": {
            "origin": [
              -0.0005,
              0.001,
              0.0005
            ],
            "direction": [
              1,
              0,
              -0
            ]
          }
        },
        {
          "type": "line",
          "line": {
            "origin": [
              0.0005,
              0.001,
              0.0005
            ],
            "direction": [
              0,
              0,
              -1
            ]
          }
        },
        {
          "type": "line",
          "line": {
            "origin": [
              -0.0005,
              0.0002,
              0.0005
            ],
            "direction": [
              0,
              1,
              0
            ]
          }
        },
        {
          "type": "line",
          "line": {
            "origin": [
              -0.0005,
              0.0002,
              -0.0005
            ],
            "direction": [
              0,
              1,
              0
            ]
          }
        },
        {
          "type": "line",
          "line": {
            "origin": [
              -0.0005,
              0.0002,
              -0.0005
            ],
            "direction": [
              0,
              0,
              1
            ]
          }
        },
        {
          "type": "nurbs",
          "nurbs": {
            "controlPoints": [
              [
                -0.0003,
                0,
                -0.0003
              ],
              [
                -0.00030172,
                0,
                -0.00030172
              ],
              [
                -0.0003043,
                0.00000003000000000001157,
                -0.0003043
              ],
              [
                -0.00030775,
                0.00000014000000000000882,
                -0.00030775
              ],
              [
                -0.00031035,
                0.0000002600000000000009,
                -0.00031035
              ],
              [
                -0.00031324,
                0.0000004299999999999942,
                -0.00031324
              ],
              [
                -0.0003167,
                0.0000006899999999999951,
                -0.0003167
              ],
              [
                -0.00032102,
                0.0000010900000000000048,
                -0.00032102
              ],
              [
                -0.00032562,
                0.0000016299999999999965,
                -0.00032562
              ],
              [
                -0.00032993,
                0.0000022400000000000057,
                -0.00032993
              ],
              [
                -0.00033337,
                0.0000027999999999999867,
                -0.00033337
              ],
              [
                -0.00033624,
                0.0000033099999999999937,
                -0.00033624
              ],
              [
                -0.00033882,
                0.000003800000000000011,
                -0.00033882
              ],
              [
                -0.00034139,
                0.000004320000000000013,
                -0.00034139
              ],
              [
                -0.00034424,
                0.000004950000000000012,
                -0.00034424
              ],
              [
                -0.00034765,
                0.000005750000000000004,
                -0.00034765
              ],
              [
                -0.00035189,
                0.000006829999999999987,
                -0.00035189
              ],
              [
                -0.00035669,
                0.000008179999999999993,
                -0.00035669
              ],
              [
                -0.00036148,
                0.000009660000000000013,
                -0.00036148
              ],
              [
                -0.0003657,
                0.000011080000000000007,
                -0.0003657
              ],
              [
                -0.00036906,
                0.000012290000000000006,
                -0.00036906
              ],
              [
                -0.00037186,
                0.00001335,
                -0.00037186
              ],
              [
                -0.00037465,
                0.000014440000000000004,
                -0.00037465
              ],
              [
                -0.00037798,
                0.00001581,
                -0.00037798
              ],
              [
                -0.00038184,
                0.000017489999999999997,
                -0.00038184
              ],
              [
                -0.00038567,
                0.00001926,
                -0.00038567
              ],
              [
                -0.00038895,
                0.000020860000000000017,
                -0.00038895
              ],
              [
                -0.00039166,
                0.00002223000000000001,
                -0.00039166
              ],
              [
                -0.0003941,
                0.000023509999999999997,
                -0.0003941
              ],
              [
                -0.00039653,
                0.00002482999999999999,
                -0.00039653
              ],
              [
                -0.00039894,
                0.000026179999999999997,
                -0.00039894
              ],
              [
                -0.00040135,
                0.00002757000000000001,
                -0.00040135
              ],
              [
                -0.000404,
                0.00002916,
                -0.000404
              ],
              [
                -0.00040691,
                0.00003095999999999999,
                -0.00040691
              ],
              [
                -0.00041006,
                0.000032989999999999994,
                -0.00041006
              ],
              [
                -0.00041292,
                0.00003492,
                -0.00041292
              ],
              [
                -0.00041551,
                0.00003671999999999999,
                -0.00041551
              ],
              [
                -0.00041782,
                0.000038379999999999995,
                -0.00041782
              ],
              [
                -0.00042012,
                0.00004008000000000001,
                -0.00042012
              ],
              [
                -0.00042241,
                0.00004183,
                -0.00042241
              ],
              [
                -0.00042468,
                0.00004361,
                -0.00042468
              ],
              [
                -0.00042694,
                0.00004544,
                -0.00042694
              ],
              [
                -0.00042918,
                0.000047310000000000006,
                -0.00042918
              ],
              [
                -0.0004314,
                0.00004921,
                -0.0004314
              ],
              [
                -0.0004336,
                0.00005115999999999999,
                -0.0004336
              ],
              [
                -0.00043579,
                0.00005314999999999999,
                -0.00043579
              ],
              [
                -0.00043795,
                0.00005518,
                -0.00043795
              ],
              [
                -0.00044033,
                0.00005748,
                -0.00044033
              ],
              [
                -0.00044316,
                0.00006031,
                -0.00044316
              ],
              [
                -0.00044641,
                0.00006371,
                -0.00044641
              ],
              [
                -0.00044959,
                0.00006722,
                -0.00044959
              ],
              [
                -0.00045228,
                0.00007031999999999999,
                -0.00045228
              ],
              [
                -0.00045448,
                0.00007296,
                -0.00045448
              ],
              [
                -0.00045666,
                0.00007565,
                -0.00045666
              ],
              [
                -0.00045901,
                0.00007867,
                -0.00045901
              ],
              [
                -0.00046153,
                0.00008204,
                -0.00046153
              ],
              [
                -0.00046378,
                0.0000852,
                -0.00046378
              ],
              [
                -0.00046579,
                0.00008812,
                -0.00046579
              ],
              [
                -0.00046756,
                0.0000908,
                -0.00046756
              ],
              [
                -0.00046931,
                0.00009352,
                -0.00046931
              ],
              [
                -0.00047101,
                0.00009628,
                -0.00047101
              ],
              [
                -0.00047269,
                0.0000991,
                -0.00047269
              ],
              [
                -0.00047433,
                0.00010196,
                -0.00047433
              ],
              [
                -0.00047594,
                0.00010487,
                -0.00047594
              ],
              [
                -0.0004775,
                0.00010783,
                -0.0004775
              ],
              [
                -0.00047903,
                0.00011082,
                -0.00047903
              ],
              [
                -0.00048051,
                0.00011385,
                -0.00048051
              ],
              [
                -0.00048194,
                0.00011692,
                -0.00048194
              ],
              [
                -0.00048332,
                0.00012001,
                -0.00048332
              ],
              [
                -0.00048466,
                0.00012315,
                -0.00048466
              ],
              [
                -0.00048594,
                0.00012632,
                -0.00048594
              ],
              [
                -0.00048718,
                0.00012953,
                -0.00048718
              ],
              [
                -0.00048838,
                0.00013279,
                -0.00048838
              ],
              [
                -0.00048953,
                0.0001361,
                -0.00048953
              ],
              [
                -0.00049063,
                0.00013946,
                -0.00049063
              ],
              [
                -0.00049168,
                0.00014286,
                -0.00049168
              ],
              [
                -0.00049267,
                0.0001463,
                -0.00049267
              ],
              [
                -0.00049359,
                0.00014974,
                -0.00049359
              ],
              [
                -0.00049446,
                0.00015321,
                -0.00049446
              ],
              [
                -0.00049526,
                0.00015668,
                -0.00049526
              ],
              [
                -0.000496,
                0.00016016,
                -0.000496
              ],
              [
                -0.00049668,
                0.00016367,
                -0.00049668
              ],
              [
                -0.00049731,
                0.00016723,
                -0.00049731
              ],
              [
                -0.00049787,
                0.00017082,
                -0.00049787
              ],
              [
                -0.00049837,
                0.00017444,
                -0.00049837
              ],
              [
                -0.00049881,
                0.00017809,
                -0.00049881
              ],
              [
                -0.00049918,
                0.00018176,
                -0.00049918
              ],
              [
                -0.00049948,
                0.00018544,
                -0.00049948
              ],
              [
                -0.00049971,
                0.00018911,
                -0.00049971
              ],
              [
                -0.00049993,
                0.00019396,
                -0.00049993
              ],
              [
                -0.0005,
                0.00019759,
                -0.0005
              ],
              [
                -0.0005,
                0.0002,
                -0.0005
              ]
            ],
            "order": 4,
            "knotVector": [
              0,
              0,
              0,
              0,
              0.01911101,
              0.02869827,
              0.03831399,
              0.04795179,
              0.06079579,
              0.07681104,
              0.09602426,
              0.11205054,
              0.12490885,
              0.13455145,
              0.14416598,
              0.15377154,
              0.16338725,
              0.17618625,
              0.19215588,
              0.21131872,
              0.23052624,
              0.24657627,
              0.25944571,
              0.2691049,
              0.27874949,
              0.29158013,
              0.30759243,
              0.32359731,
              0.33639999,
              0.3460183,
              0.35564644,
              0.3652729,
              0.37488975,
              0.38449963,
              0.39410965,
              0.40692219,
              0.41972982,
              0.43253234,
              0.44213356,
              0.45174183,
              0.46135801,
              0.47098063,
              0.48060905,
              0.49024031,
              0.49986772,
              0.50948704,
              0.51910062,
              0.52871339,
              0.53832679,
              0.54793991,
              0.56075761,
              0.57677791,
              0.59279807,
              0.60561562,
              0.61523716,
              0.62486661,
              0.63770516,
              0.65053521,
              0.66335346,
              0.6729558,
              0.68255569,
              0.69215594,
              0.70176376,
              0.71139134,
              0.72104426,
              0.73071457,
              0.7403863,
              0.75004699,
              0.75968782,
              0.76930106,
              0.77888756,
              0.78845838,
              0.79802654,
              0.80760077,
              0.81719913,
              0.82685051,
              0.83655896,
              0.84628822,
              0.85599323,
              0.86565603,
              0.87527054,
              0.88482239,
              0.89432752,
              0.90384609,
              0.91342709,
              0.92306374,
              0.93272786,
              0.94241861,
              0.95213489,
              0.96184176,
              0.97149186,
              0.98106207,
              1,
              1,
              1,
              1
            ]
          }
        },
        {
          "type": "line",
          "line": {
            "origin": [
              -0.0003,
              0,
              -0.0003
            ],
            "direction": [
              0,
              0,
              1
            ]
          }
        },
        {
          "type": "nurbs",
          "nurbs": {
            "controlPoints": [
              [
                -0.0003,
                0,
                0.0003
              ],
              [
                -0.00030193,
                0,
                0.00030193
              ],
              [
                -0.00030526,
                0.000000050000000000001215,
                0.00030526
              ],
              [
                -0.00031025,
                0.0000002500000000000061,
                0.00031025
              ],
              [
                -0.0003147,
                0.0000005200000000000018,
                0.0003147
              ],
              [
                -0.00031886,
                0.0000008800000000000051,
                0.00031886
              ],
              [
                -0.00032219,
                0.0000012299999999999863,
                0.00032219
              ],
              [
                -0.00032496,
                0.0000015600000000000054,
                0.00032496
              ],
              [
                -0.00032773,
                0.0000019200000000000087,
                0.00032773
              ],
              [
                -0.00033104,
                0.000002409999999999999,
                0.00033104
              ],
              [
                -0.00033518,
                0.000003099999999999994,
                0.00033518
              ],
              [
                -0.00033985,
                0.000003989999999999994,
                0.00033985
              ],
              [
                -0.00034478,
                0.000005060000000000009,
                0.00034478
              ],
              [
                -0.00034971,
                0.000006249999999999989,
                0.00034971
              ],
              [
                -0.00035436,
                0.000007509999999999987,
                0.00035436
              ],
              [
                -0.00035845,
                0.000008720000000000011,
                0.00035845
              ],
              [
                -0.00036171,
                0.000009749999999999991,
                0.00036171
              ],
              [
                -0.00036442,
                0.000010649999999999988,
                0.00036442
              ],
              [
                -0.00036711,
                0.000011589999999999987,
                0.00036711
              ],
              [
                -0.00037034,
                0.00001277,
                0.00037034
              ],
              [
                -0.00037436,
                0.000014320000000000012,
                0.00037436
              ],
              [
                -0.00037863,
                0.000016079999999999995,
                0.00037863
              ],
              [
                -0.00038261,
                0.000017840000000000005,
                0.00038261
              ],
              [
                -0.00038578,
                0.00001932,
                0.00038578
              ],
              [
                -0.0003884,
                0.00002058999999999999,
                0.0003884
              ],
              [
                -0.00039075,
                0.000021770000000000003,
                0.00039075
              ],
              [
                -0.0003931,
                0.00002298,
                0.0003931
              ],
              [
                -0.00039543,
                0.000024230000000000003,
                0.00039543
              ],
              [
                -0.00039776,
                0.00002550999999999999,
                0.00039776
              ],
              [
                -0.00040034,
                0.00002697999999999999,
                0.00040034
              ],
              [
                -0.00040342,
                0.000028799999999999995,
                0.00040342
              ],
              [
                -0.00040724,
                0.00003115999999999999,
                0.00040724
              ],
              [
                -0.00041154,
                0.00003396000000000001,
                0.00041154
              ],
              [
                -0.00041578,
                0.0000369,
                0.00041578
              ],
              [
                -0.00041949,
                0.000039600000000000014,
                0.00041949
              ],
              [
                -0.00042267,
                0.00004202000000000001,
                0.00042267
              ],
              [
                -0.00042582,
                0.00004450999999999999,
                0.00042582
              ],
              [
                -0.00042942,
                0.000047489999999999994,
                0.00042942
              ],
              [
                -0.00043345,
                0.00005099,
                0.00043345
              ],
              [
                -0.00043764,
                0.00005486,
                0.00043764
              ],
              [
                -0.00044153,
                0.00005866000000000001,
                0.00044153
              ],
              [
                -0.0004449,
                0.00006213,
                0.0004449
              ],
              [
                -0.00044756,
                0.00006497999999999999,
                0.00044756
              ],
              [
                -0.00044974,
                0.00006740999999999998,
                0.00044974
              ],
              [
                -0.00045169,
                0.00006964000000000002,
                0.00045169
              ],
              [
                -0.0004536,
                0.00007189999999999999,
                0.0004536
              ],
              [
                -0.0004555,
                0.00007420999999999998,
                0.0004555
              ],
              [
                -0.00045737,
                0.00007656000000000001,
                0.00045737
              ],
              [
                -0.00045921,
                0.00007895,
                0.00045921
              ],
              [
                -0.00046103,
                0.00008138,
                0.00046103
              ],
              [
                -0.00046282,
                0.00008385,
                0.00046282
              ],
              [
                -0.00046458,
                0.00008635,
                0.00046458
              ],
              [
                -0.00046632,
                0.00008891,
                0.00046632
              ],
              [
                -0.00046802,
                0.0000915,
                0.00046802
              ],
              [
                -0.0004697,
                0.00009415,
                0.0004697
              ],
              [
                -0.00047135,
                0.00009684,
                0.00047135
              ],
              [
                -0.00047296,
                0.00009957,
                0.00047296
              ],
              [
                -0.00047454,
                0.00010233,
                0.00047454
              ],
              [
                -0.00047608,
                0.00010513,
                0.00047608
              ],
              [
                -0.00047757,
                0.00010796,
                0.00047757
              ],
              [
                -0.00047919,
                0.00011115,
                0.00047919
              ],
              [
                -0.00048091,
                0.0001147,
                0.00048091
              ],
              [
                -0.00048272,
                0.00011864,
                0.00048272
              ],
              [
                -0.00048431,
                0.00012232,
                0.00048431
              ],
              [
                -0.00048571,
                0.00012573,
                0.00048571
              ],
              [
                -0.00048692,
                0.00012884,
                0.00048692
              ],
              [
                -0.0004881,
                0.000132,
                0.0004881
              ],
              [
                -0.00048922,
                0.00013519,
                0.00048922
              ],
              [
                -0.00049029,
                0.00013841,
                0.00049029
              ],
              [
                -0.00049131,
                0.00014164,
                0.00049131
              ],
              [
                -0.00049227,
                0.0001449,
                0.00049227
              ],
              [
                -0.00049318,
                0.00014817,
                0.00049318
              ],
              [
                -0.00049403,
                0.00015147,
                0.00049403
              ],
              [
                -0.00049483,
                0.0001548,
                0.00049483
              ],
              [
                -0.00049559,
                0.00015816,
                0.00049559
              ],
              [
                -0.00049628,
                0.00016157,
                0.00049628
              ],
              [
                -0.00049693,
                0.00016501,
                0.00049693
              ],
              [
                -0.00049751,
                0.00016848,
                0.00049751
              ],
              [
                -0.00049804,
                0.00017198,
                0.00049804
              ],
              [
                -0.0004985,
                0.00017547,
                0.0004985
              ],
              [
                -0.0004989,
                0.00017896,
                0.0004989
              ],
              [
                -0.00049924,
                0.00018245,
                0.00049924
              ],
              [
                -0.00049952,
                0.00018594,
                0.00049952
              ],
              [
                -0.00049973,
                0.00018944,
                0.00049973
              ],
              [
                -0.00049994,
                0.00019412,
                0.00049994
              ],
              [
                -0.0005,
                0.00019765,
                0.0005
              ],
              [
                -0.0005,
                0.0002,
                0.0005
              ]
            ],
            "order": 4,
            "knotVector": [
              0,
              0,
              0,
              0,
              0.02148964,
              0.03691383,
              0.05545432,
              0.07091427,
              0.08326451,
              0.09252016,
              0.10178718,
              0.11413966,
              0.12954541,
              0.14800508,
              0.16646682,
              0.18497669,
              0.20354492,
              0.21902528,
              0.23139128,
              0.2406395,
              0.24989744,
              0.26224868,
              0.27767659,
              0.2961881,
              0.31161659,
              0.32396383,
              0.33321091,
              0.34244367,
              0.35167252,
              0.36090982,
              0.37015965,
              0.37941999,
              0.3917842,
              0.40724299,
              0.42578354,
              0.44430302,
              0.45972371,
              0.47205619,
              0.48439564,
              0.49983164,
              0.51836514,
              0.53690361,
              0.55543441,
              0.57086918,
              0.58321079,
              0.59246762,
              0.60172532,
              0.61098143,
              0.62023619,
              0.6294938,
              0.6387558,
              0.64801706,
              0.65727202,
              0.66652284,
              0.67578177,
              0.68506298,
              0.69436858,
              0.70368542,
              0.71299611,
              0.72229241,
              0.73157302,
              0.74083513,
              0.75007567,
              0.76236407,
              0.77464891,
              0.78695381,
              0.79623601,
              0.80556171,
              0.81490655,
              0.82424075,
              0.83354854,
              0.84282105,
              0.85204686,
              0.86123406,
              0.87041748,
              0.87962896,
              0.88887259,
              0.89814538,
              0.90746016,
              0.91681717,
              0.92618143,
              0.93550209,
              0.94475075,
              0.9539428,
              0.96311945,
              0.97231665,
              0.98154123,
              1,
              1,
              1,
              1
            ]
          }
        },
        {
          "type": "line",
          "line": {
            "origin": [
              0.0003,
              0,
              -0.0003
            ],
            "direction": [
              -1,
              0,
              0
            ]
          }
        },
        {
          "type": "line",
          "line": {
            "origin": [
              0.0003,
              0,
              0.0003
            ],
            "direction": [
              0,
              0,
              -1
            ]
          }
        },
        {
          "type": "line",
          "line": {
            "origin": [
              -0.0003,
              0,
              0.0003
            ],
            "direction": [
              1,
              0,
              -0
            ]
          }
        },
        {
          "type": "nurbs",
          "nurbs": {
            "controlPoints": [
              [
                0.0005,
                0.0002,
                -0.0005
              ],
              [
                0.0005,
                0.00019759,
                -0.0005
              ],
              [
                0.00049993,
                0.00019396,
                -0.00049993
              ],
              [
                0.00049971,
                0.00018911,
                -0.00049971
              ],
              [
                0.00049948,
                0.00018544,
                -0.00049948
              ],
              [
                0.00049918,
                0.00018176,
                -0.00049918
              ],
              [
                0.00049881,
                0.00017809,
                -0.00049881
              ],
              [
                0.00049837,
                0.00017444,
                -0.00049837
              ],
              [
                0.00049787,
                0.00017082,
                -0.00049787
              ],
              [
                0.00049731,
                0.00016723,
                -0.00049731
              ],
              [
                0.00049668,
                0.00016367,
                -0.00049668
              ],
              [
                0.000496,
                0.00016016,
                -0.000496
              ],
              [
                0.00049526,
                0.00015668,
                -0.00049526
              ],
              [
                0.00049446,
                0.00015321,
                -0.00049446
              ],
              [
                0.00049359,
                0.00014974,
                -0.00049359
              ],
              [
                0.00049267,
                0.0001463,
                -0.00049267
              ],
              [
                0.00049168,
                0.00014286,
                -0.00049168
              ],
              [
                0.00049063,
                0.00013946,
                -0.00049063
              ],
              [
                0.00048953,
                0.0001361,
                -0.00048953
              ],
              [
                0.00048838,
                0.00013279,
                -0.00048838
              ],
              [
                0.00048718,
                0.00012953,
                -0.00048718
              ],
              [
                0.00048594,
                0.00012632,
                -0.00048594
              ],
              [
                0.00048466,
                0.00012315,
                -0.00048466
              ],
              [
                0.00048332,
                0.00012001,
                -0.00048332
              ],
              [
                0.00048194,
                0.00011692,
                -0.00048194
              ],
              [
                0.00048051,
                0.00011385,
                -0.00048051
              ],
              [
                0.00047903,
                0.00011082,
                -0.00047903
              ],
              [
                0.0004775,
                0.00010783,
                -0.0004775
              ],
              [
                0.00047594,
                0.00010487,
                -0.00047594
              ],
              [
                0.00047433,
                0.00010196,
                -0.00047433
              ],
              [
                0.00047269,
                0.0000991,
                -0.00047269
              ],
              [
                0.00047101,
                0.00009628,
                -0.00047101
              ],
              [
                0.00046931,
                0.00009352,
                -0.00046931
              ],
              [
                0.00046756,
                0.0000908,
                -0.00046756
              ],
              [
                0.00046579,
                0.00008812,
                -0.00046579
              ],
              [
                0.00046378,
                0.0000852,
                -0.00046378
              ],
              [
                0.00046153,
                0.00008204,
                -0.00046153
              ],
              [
                0.00045901,
                0.00007867,
                -0.00045901
              ],
              [
                0.00045666,
                0.00007565,
                -0.00045666
              ],
              [
                0.00045448,
                0.00007296,
                -0.00045448
              ],
              [
                0.00045228,
                0.00007031999999999999,
                -0.00045228
              ],
              [
                0.00044959,
                0.00006722,
                -0.00044959
              ],
              [
                0.00044641,
                0.00006371,
                -0.00044641
              ],
              [
                0.00044316,
                0.00006031,
                -0.00044316
              ],
              [
                0.00044033,
                0.00005748,
                -0.00044033
              ],
              [
                0.00043795,
                0.00005518,
                -0.00043795
              ],
              [
                0.00043579,
                0.00005314999999999999,
                -0.00043579
              ],
              [
                0.0004336,
                0.00005115999999999999,
                -0.0004336
              ],
              [
                0.0004314,
                0.00004921,
                -0.0004314
              ],
              [
                0.00042918,
                0.000047310000000000006,
                -0.00042918
              ],
              [
                0.00042694,
                0.00004544,
                -0.00042694
              ],
              [
                0.00042468,
                0.00004361,
                -0.00042468
              ],
              [
                0.00042241,
                0.00004183,
                -0.00042241
              ],
              [
                0.00042012,
                0.00004008000000000001,
                -0.00042012
              ],
              [
                0.00041782,
                0.000038379999999999995,
                -0.00041782
              ],
              [
                0.00041551,
                0.00003671999999999999,
                -0.00041551
              ],
              [
                0.00041292,
                0.00003492,
                -0.00041292
              ],
              [
                0.00041006,
                0.000032989999999999994,
                -0.00041006
              ],
              [
                0.00040691,
                0.00003095999999999999,
                -0.00040691
              ],
              [
                0.000404,
                0.00002916,
                -0.000404
              ],
              [
                0.00040135,
                0.00002757000000000001,
                -0.00040135
              ],
              [
                0.00039894,
                0.000026179999999999997,
                -0.00039894
              ],
              [
                0.00039653,
                0.00002482999999999999,
                -0.00039653
              ],
              [
                0.0003941,
                0.000023509999999999997,
                -0.0003941
              ],
              [
                0.00039166,
                0.00002223000000000001,
                -0.00039166
              ],
              [
                0.00038895,
                0.000020860000000000017,
                -0.00038895
              ],
              [
                0.00038567,
                0.00001926,
                -0.00038567
              ],
              [
                0.00038184,
                0.000017489999999999997,
                -0.00038184
              ],
              [
                0.00037798,
                0.00001581,
                -0.00037798
              ],
              [
                0.00037465,
                0.000014440000000000004,
                -0.00037465
              ],
              [
                0.00037186,
                0.00001335,
                -0.00037186
              ],
              [
                0.00036906,
                0.000012290000000000006,
                -0.00036906
              ],
              [
                0.0003657,
                0.000011080000000000007,
                -0.0003657
              ],
              [
                0.00036148,
                0.000009660000000000013,
                -0.00036148
              ],
              [
                0.00035669,
                0.000008179999999999993,
                -0.00035669
              ],
              [
                0.00035189,
                0.000006829999999999987,
                -0.00035189
              ],
              [
                0.00034765,
                0.000005750000000000004,
                -0.00034765
              ],
              [
                0.00034424,
                0.000004950000000000012,
                -0.00034424
              ],
              [
                0.00034139,
                0.000004320000000000013,
                -0.00034139
              ],
              [
                0.00033882,
                0.000003800000000000011,
                -0.00033882
              ],
              [
                0.00033624,
                0.0000033099999999999937,
                -0.00033624
              ],
              [
                0.00033337,
                0.0000027999999999999867,
                -0.00033337
              ],
              [
                0.00032993,
                0.0000022400000000000057,
                -0.00032993
              ],
              [
                0.00032562,
                0.0000016299999999999965,
                -0.00032562
              ],
              [
                0.00032102,
                0.0000010900000000000048,
                -0.00032102
              ],
              [
                0.0003167,
                0.0000006899999999999951,
                -0.0003167
              ],
              [
                0.00031324,
                0.0000004299999999999942,
                -0.00031324
              ],
              [
                0.00031035,
                0.0000002600000000000009,
                -0.00031035
              ],
              [
                0.00030775,
                0.00000014000000000000882,
                -0.00030775
              ],
              [
                0.0003043,
                0.00000003000000000001157,
                -0.0003043
              ],
              [
                0.00030172,
                0,
                -0.00030172
              ],
              [
                0.0003,
                0,
                -0.0003
              ]
            ],
            "order": 4,
            "knotVector": [
              0,
              0,
              0,
              0,
              0.01893793,
              0.02850814,
              0.03815824,
              0.04786511,
              0.05758139,
              0.06727214,
              0.07693626,
              0.08657291,
              0.09615391,
              0.10567248,
              0.11517761,
              0.12472946,
              0.13434397,
              0.14400677,
              0.15371178,
              0.16344104,
              0.17314949,
              0.18280087,
              0.19239923,
              0.20197346,
              0.21154162,
              0.22111244,
              0.23069894,
              0.24031218,
              0.24995301,
              0.2596137,
              0.26928543,
              0.27895574,
              0.28860866,
              0.29823624,
              0.30784406,
              0.31744431,
              0.3270442,
              0.33664654,
              0.34946479,
              0.36229484,
              0.37513339,
              0.38476284,
              0.39438438,
              0.40720193,
              0.42322209,
              0.43924239,
              0.45206009,
              0.46167321,
              0.47128661,
              0.48089938,
              0.49051296,
              0.50013228,
              0.50975969,
              0.51939095,
              0.52901937,
              0.53864199,
              0.54825817,
              0.55786644,
              0.56746766,
              0.58027018,
              0.59307781,
              0.60589035,
              0.61550037,
              0.62511025,
              0.6347271,
              0.64435356,
              0.6539817,
              0.66360001,
              0.67640269,
              0.69240757,
              0.70841987,
              0.72125051,
              0.7308951,
              0.74055429,
              0.75342373,
              0.76947376,
              0.78868128,
              0.80784412,
              0.82381375,
              0.83661275,
              0.84622846,
              0.85583402,
              0.86544855,
              0.87509115,
              0.88794946,
              0.90397574,
              0.92318896,
              0.93920421,
              0.95204821,
              0.96168601,
              0.97130173,
              0.98088899,
              1,
              1,
              1,
              1
            ]
          }
        },
        {
          "type": "line",
          "line": {
            "origin": [
              0.0005,
              0.0002,
              -0.0005
            ],
            "direction": [
              -1,
              0,
              0
            ]
          }
        },
        {
          "type": "line",
          "line": {
            "origin": [
              0.0005,
              0.0002,
              -0.0005
            ],
            "direction": [
              0,
              1,
              0
            ]
          }
        },
        {
          "type": "nurbs",
          "nurbs": {
            "controlPoints": [
              [
                0.0003,
                0,
                0.0003
              ],
              [
                0.00030193,
                0,
                0.00030193
              ],
              [
                0.00030526,
                0.000000050000000000001215,
                0.00030526
              ],
              [
                0.00031025,
                0.0000002500000000000061,
                0.00031025
              ],
              [
                0.0003147,
                0.0000005200000000000018,
                0.0003147
              ],
              [
                0.00031886,
                0.0000008800000000000051,
                0.00031886
              ],
              [
                0.00032219,
                0.0000012299999999999863,
                0.00032219
              ],
              [
                0.00032496,
                0.0000015600000000000054,
                0.00032496
              ],
              [
                0.00032773,
                0.0000019200000000000087,
                0.00032773
              ],
              [
                0.00033104,
                0.000002409999999999999,
                0.00033104
              ],
              [
                0.00033518,
                0.000003099999999999994,
                0.00033518
              ],
              [
                0.00033985,
                0.000003989999999999994,
                0.00033985
              ],
              [
                0.00034478,
                0.000005060000000000009,
                0.00034478
              ],
              [
                0.00034971,
                0.000006249999999999989,
                0.00034971
              ],
              [
                0.00035436,
                0.000007509999999999987,
                0.00035436
              ],
              [
                0.00035845,
                0.000008720000000000011,
                0.00035845
              ],
              [
                0.00036171,
                0.000009749999999999991,
                0.00036171
              ],
              [
                0.00036442,
                0.000010649999999999988,
                0.00036442
              ],
              [
                0.00036711,
                0.000011589999999999987,
                0.00036711
              ],
              [
                0.00037034,
                0.00001277,
                0.00037034
              ],
              [
                0.00037436,
                0.000014320000000000012,
                0.00037436
              ],
              [
                0.00037863,
                0.000016079999999999995,
                0.00037863
              ],
              [
                0.00038261,
                0.000017840000000000005,
                0.00038261
              ],
              [
                0.00038578,
                0.00001932,
                0.00038578
              ],
              [
                0.0003884,
                0.00002058999999999999,
                0.0003884
              ],
              [
                0.00039075,
                0.000021770000000000003,
                0.00039075
              ],
              [
                0.0003931,
                0.00002298,
                0.0003931
              ],
              [
                0.00039543,
                0.000024230000000000003,
                0.00039543
              ],
              [
                0.00039776,
                0.00002550999999999999,
                0.00039776
              ],
              [
                0.00040034,
                0.00002697999999999999,
                0.00040034
              ],
              [
                0.00040342,
                0.000028799999999999995,
                0.00040342
              ],
              [
                0.00040724,
                0.00003115999999999999,
                0.00040724
              ],
              [
                0.00041154,
                0.00003396000000000001,
                0.00041154
              ],
              [
                0.00041578,
                0.0000369,
                0.00041578
              ],
              [
                0.00041949,
                0.000039600000000000014,
                0.00041949
              ],
              [
                0.00042267,
                0.00004202000000000001,
                0.00042267
              ],
              [
                0.00042582,
                0.00004450999999999999,
                0.00042582
              ],
              [
                0.00042942,
                0.000047489999999999994,
                0.00042942
              ],
              [
                0.00043345,
                0.00005099,
                0.00043345
              ],
              [
                0.00043764,
                0.00005486,
                0.00043764
              ],
              [
                0.00044153,
                0.00005866000000000001,
                0.00044153
              ],
              [
                0.0004449,
                0.00006213,
                0.0004449
              ],
              [
                0.00044756,
                0.00006497999999999999,
                0.00044756
              ],
              [
                0.00044974,
                0.00006740999999999998,
                0.00044974
              ],
              [
                0.00045169,
                0.00006964000000000002,
                0.00045169
              ],
              [
                0.0004536,
                0.00007189999999999999,
                0.0004536
              ],
              [
                0.0004555,
                0.00007420999999999998,
                0.0004555
              ],
              [
                0.00045737,
                0.00007656000000000001,
                0.00045737
              ],
              [
                0.00045921,
                0.00007895,
                0.00045921
              ],
              [
                0.00046103,
                0.00008138,
                0.00046103
              ],
              [
                0.00046282,
                0.00008385,
                0.00046282
              ],
              [
                0.00046458,
                0.00008635,
                0.00046458
              ],
              [
                0.00046632,
                0.00008891,
                0.00046632
              ],
              [
                0.00046802,
                0.0000915,
                0.00046802
              ],
              [
                0.0004697,
                0.00009415,
                0.0004697
              ],
              [
                0.00047135,
                0.00009684,
                0.00047135
              ],
              [
                0.00047296,
                0.00009957,
                0.00047296
              ],
              [
                0.00047454,
                0.00010233,
                0.00047454
              ],
              [
                0.00047608,
                0.00010513,
                0.00047608
              ],
              [
                0.00047757,
                0.00010796,
                0.00047757
              ],
              [
                0.00047919,
                0.00011115,
                0.00047919
              ],
              [
                0.00048091,
                0.0001147,
                0.00048091
              ],
              [
                0.00048272,
                0.00011864,
                0.00048272
              ],
              [
                0.00048431,
                0.00012232,
                0.00048431
              ],
              [
                0.00048571,
                0.00012573,
                0.00048571
              ],
              [
                0.00048692,
                0.00012884,
                0.00048692
              ],
              [
                0.0004881,
                0.000132,
                0.0004881
              ],
              [
                0.00048922,
                0.00013519,
                0.00048922
              ],
              [
                0.00049029,
                0.00013841,
                0.00049029
              ],
              [
                0.00049131,
                0.00014164,
                0.00049131
              ],
              [
                0.00049227,
                0.0001449,
                0.00049227
              ],
              [
                0.00049318,
                0.00014817,
                0.00049318
              ],
              [
                0.00049403,
                0.00015147,
                0.00049403
              ],
              [
                0.00049483,
                0.0001548,
                0.00049483
              ],
              [
                0.00049559,
                0.00015816,
                0.00049559
              ],
              [
                0.00049628,
                0.00016157,
                0.00049628
              ],
              [
                0.00049693,
                0.00016501,
                0.00049693
              ],
              [
                0.00049751,
                0.00016848,
                0.00049751
              ],
              [
                0.00049804,
                0.00017198,
                0.00049804
              ],
              [
                0.0004985,
                0.00017547,
                0.0004985
              ],
              [
                0.0004989,
                0.00017896,
                0.0004989
              ],
              [
                0.00049924,
                0.00018245,
                0.00049924
              ],
              [
                0.00049952,
                0.00018594,
                0.00049952
              ],
              [
                0.00049973,
                0.00018944,
                0.00049973
              ],
              [
                0.00049994,
                0.00019412,
                0.00049994
              ],
              [
                0.0005,
                0.00019765,
                0.0005
              ],
              [
                0.0005,
                0.0002,
                0.0005
              ]
            ],
            "order": 4,
            "knotVector": [
              0,
              0,
              0,
              0,
              0.02148964,
              0.03691383,
              0.05545432,
              0.07091427,
              0.08326451,
              0.09252016,
              0.10178718,
              0.11413966,
              0.12954541,
              0.14800508,
              0.16646682,
              0.18497669,
              0.20354492,
              0.21902528,
              0.23139128,
              0.2406395,
              0.24989744,
              0.26224868,
              0.27767659,
              0.2961881,
              0.31161659,
              0.32396383,
              0.33321091,
              0.34244367,
              0.35167252,
              0.36090982,
              0.37015965,
              0.37941999,
              0.3917842,
              0.40724299,
              0.42578354,
              0.44430302,
              0.45972371,
              0.47205619,
              0.48439564,
              0.49983164,
              0.51836514,
              0.53690361,
              0.55543441,
              0.57086918,
              0.58321079,
              0.59246762,
              0.60172532,
              0.61098143,
              0.62023619,
              0.6294938,
              0.6387558,
              0.64801706,
              0.65727202,
              0.66652284,
              0.67578177,
              0.68506298,
              0.69436858,
              0.70368542,
              0.71299611,
              0.72229241,
              0.73157302,
              0.74083513,
              0.75007567,
              0.76236407,
              0.77464891,
              0.78695381,
              0.79623601,
              0.80556171,
              0.81490655,
              0.82424075,
              0.83354854,
              0.84282105,
              0.85204686,
              0.86123406,
              0.87041748,
              0.87962896,
              0.88887259,
              0.89814538,
              0.90746016,
              0.91681717,
              0.92618143,
              0.93550209,
              0.94475075,
              0.9539428,
              0.96311945,
              0.97231665,
              0.98154123,
              1,
              1,
              1,
              1
            ]
          }
        },
        {
          "type": "line",
          "line": {
            "origin": [
              -0.0005,
              0.0002,
              0.0005
            ],
            "direction": [
              1,
              0,
              -0
            ]
          }
        },
        {
          "type": "line",
          "line": {
            "origin": [
              0.0005,
              0.0002,
              0.0005
            ],
            "direction": [
              0,
              1,
              0
            ]
          }
        },
        {
          "type": "line",
          "line": {
            "origin": [
              0.0005,
              0.0002,
              0.0005
            ],
            "direction": [
              0,
              0,
              -1
            ]
          }
        }
      ]
    }
  },
  "extensionsUsed": [
    "KITTYCAD_boundary_representation"
  ],
  "materials": [
    {
      "alphaMode": "OPAQUE",
      "doubleSided": false,
      "pbrMetallicRoughness": {
        "baseColorFactor": [
          0.9,
          0.9,
          0.9,
          1
        ],
        "metallicFactor": 1,
        "roughnessFactor": 1
      },
      "emissiveFactor": [
        0,
        0,
        0
      ]
    }
  ],
  "meshes": [
    {
      "primitives": [
        {
          "attributes": {
            "POSITION": 0,
            "NORMAL": 1
          },
          "material": 0
        },
        {
          "attributes": {
            "POSITION": 2,
            "NORMAL": 3
          },
          "material": 0
        },
        {
          "attributes": {
            "POSITION": 4,
            "NORMAL": 5
          },
          "material": 0
        },
        {
          "attributes": {
            "POSITION": 6,
            "NORMAL": 7
          },
          "material": 0
        },
        {
          "attributes": {
            "POSITION": 8,
            "NORMAL": 9
          },
          "material": 0
        },
        {
          "attributes": {
            "POSITION": 10,
            "NORMAL": 11
          },
          "material": 0
        },
        {
          "attributes": {
            "POSITION": 12,
            "NORMAL": 13
          },
          "material": 0
        },
        {
          "attributes": {
            "POSITION": 14,
            "NORMAL": 15
          },
          "material": 0
        },
        {
          "attributes": {
            "POSITION": 16,
            "NORMAL": 17
          },
          "material": 0
        },
        {
          "attributes": {
            "POSITION": 18,
            "NORMAL": 19
          },
          "material": 0
        }
      ]
    }
  ],
  "nodes": [
    {
      "children": [
        1
      ]
    },
    {
      "children": [
        2
      ]
    },
    {
      "extensions": {
        "KITTYCAD_boundary_representation": {
          "solid": 0
        }
      },
      "mesh": 0
    }
  ],
  "scenes": [
    {
      "nodes": [
        0
      ]
    }
  ]
}