{
  "accessors": [
    {
      "bufferView": 0,
      "byteOffset": 0,
      "count": 6,
      "componentType": 5126,
      "type": "VEC3",
      "min": [
        0.002795000094920397,
        0,
        0.00039000000106170774
      ],
      "max": [
        0.002795000094920397,
        0.004999999888241291,
        0.0053900000639259815
      ]
    },
    {
      "bufferView": 0,
      "byteOffset": 12,
      "count": 6,
      "componentType": 5126,
      "type": "VEC3"
    },
    {
      "bufferView": 1,
      "byteOffset": 0,
      "count": 6,
      "componentType": 5126,
      "type": "VEC3",
      "min": [
        -0.002205000026151538,
        0,
        0.00039000000106170774
      ],
      "max": [
        0.002795000094920397,
        0.004999999888241291,
        0.00039000000106170774
      ]
    },
    {
      "bufferView": 1,
      "byteOffset": 12,
      "count": 6,
      "componentType": 5126,
      "type": "VEC3"
    },
    {
      "bufferView": 2,
      "byteOffset": 0,
      "count": 6,
      "componentType": 5126,
      "type": "VEC3",
      "min": [
        -0.002205000026151538,
        0,
        0.00039000000106170774
      ],
      "max": [
        -0.002205000026151538,
        0.004999999888241291,
        0.0053900000639259815
      ]
    },
    {
      "bufferView": 2,
      "byteOffset": 12,
      "count": 6,
      "componentType": 5126,
      "type": "VEC3"
    },
    {
      "bufferView": 3,
      "byteOffset": 0,
      "count": 6,
      "componentType": 5126,
      "type": "VEC3",
      "min": [
        -0.002205000026151538,
        0,
        0.0053900000639259815
      ],
      "max": [
        0.002795000094920397,
        0.004999999888241291,
        0.0053900000639259815
      ]
    },
    {
      "bufferView": 3,
      "byteOffset": 12,
      "count": 6,
      "componentType": 5126,
      "type": "VEC3"
    },
    {
      "bufferView": 4,
      "byteOffset": 0,
      "count": 6,
      "componentType": 5126,
      "type": "VEC3",
      "min": [
        -0.002205000026151538,
        0,
        0.00039000000106170774
      ],
      "max": [
        0.002795000094920397,
        0,
        0.0053900000639259815
      ]
    },
    {
      "bufferView": 4,
      "byteOffset": 12,
      "count": 6,
      "componentType": 5126,
      "type": "VEC3"
    },
    {
      "bufferView": 5,
      "byteOffset": 0,
      "count": 6,
      "componentType": 5126,
      "type": "VEC3",
      "min": [
        -0.002205000026151538,
        0.004999999888241291,
        0.00039000000106170774
      ],
      "max": [
        0.002795000094920397,
        0.004999999888241291,
        0.0053900000639259815
      ]
    },
    {
      "bufferView": 5,
      "byteOffset": 12,
      "count": 6,
      "componentType": 5126,
      "type": "VEC3"
    },
    {
      "bufferView": 6,
      "byteOffset": 0,
      "count": 6,
      "componentType": 5126,
      "type": "VEC3",
      "min": [
        0.002795000094920397,
        0.006188690196722746,
        0.0002757699985522777
      ],
      "max": [
        0.002795000094920397,
        0.013259760104119778,
        0.007346840109676123
      ]
    },
    {
      "bufferView": 6,
      "byteOffset": 12,
      "count": 6,
      "componentType": 5126,
      "type": "VEC3"
    },
    {
      "bufferView": 7,
      "byteOffset": 0,
      "count": 6,
      "componentType": 5126,
      "type": "VEC3",
      "min": [
        -0.002205000026151538,
        0.009724229574203491,
        0.0002757699985522777
      ],
      "max": [
        0.002795000094920397,
        0.013259760104119778,
        0.003811310045421123
      ]
    },
    {
      "bufferView": 7,
      "byteOffset": 12,
      "count": 6,
      "componentType": 5126,
      "type": "VEC3"
    },
    {
      "bufferView": 8,
      "byteOffset": 0,
      "count": 6,
      "componentType": 5126,
      "type": "VEC3",
      "min": [
        -0.002205000026151538,
        0.006188690196722746,
        0.0002757699985522777
      ],
      "max": [
        -0.002205000026151538,
        0.013259760104119778,
        0.007346840109676123
      ]
    },
    {
      "bufferView": 8,
      "byteOffset": 12,
      "count": 6,
      "componentType": 5126,
      "type": "VEC3"
    },
    {
      "bufferView": 9,
      "byteOffset": 0,
      "count": 6,
      "componentType": 5126,
      "type": "VEC3",
      "min": [
        -0.002205000026151538,
        0.006188690196722746,
        0.003811310045421123
      ],
      "max": [
        0.002795000094920397,
        0.009724229574203491,
        0.007346840109676123
      ]
    },
    {
      "bufferView": 9,
      "byteOffset": 12,
      "count": 6,
      "componentType": 5126,
      "type": "VEC3"
    },
    {
      "bufferView": 10,
      "byteOffset": 0,
      "count": 6,
      "componentType": 5126,
      "type": "VEC3",
      "min": [
        -0.002205000026151538,
        0.006188690196722746,
        0.0002757699985522777
      ],
      "max": [
        0.002795000094920397,
        0.009724229574203491,
        0.003811310045421123
      ]
    },
    {
      "bufferView": 10,
      "byteOffset": 12,
      "count": 6,
      "componentType": 5126,
      "type": "VEC3"
    },
    {
      "bufferView": 11,
      "byteOffset": 0,
      "count": 6,
      "componentType": 5126,
      "type": "VEC3",
      "min": [
        -0.002205000026151538,
        0.009724229574203491,
        0.003811310045421123
      ],
      "max": [
        0.002795000094920397,
        0.013259760104119778,
        0.007346840109676123
      ]
    },
    {
      "bufferView": 11,
      "byteOffset": 12,
      "count": 6,
      "componentType": 5126,
      "type": "VEC3"
    },
    {
      "bufferView": 12,
      "byteOffset": 0,
      "count": 6,
      "componentType": 5126,
      "type": "VEC3",
      "min": [
        0.0019763601012527943,
        0.018023639917373657,
        0.00039000000106170774
      ],
      "max": [
        0.005511899944394827,
        0.02155916951596737,
        0.0053900000639259815
      ]
    },
    {
      "bufferView": 12,
      "byteOffset": 12,
      "count": 6,
      "componentType": 5126,
      "type": "VEC3"
    },
    {
      "bufferView": 13,
      "byteOffset": 0,
      "count": 6,
      "componentType": 5126,
      "type": "VEC3",
      "min": [
        -0.001559169963002205,
        0.018023639917373657,
        0.00039000000106170774
      ],
      "max": [
        0.005511899944394827,
        0.02509469911456108,
        0.00039000000106170774
      ]
    },
    {
      "bufferView": 13,
      "byteOffset": 12,
      "count": 6,
      "componentType": 5126,
      "type": "VEC3"
    },
    {
      "bufferView": 14,
      "byteOffset": 0,
      "count": 6,
      "componentType": 5126,
      "type": "VEC3",
      "min": [
        -0.001559169963002205,
        0.02155916951596737,
        0.00039000000106170774
      ],
      "max": [
        0.0019763601012527943,
        0.02509469911456108,
        0.0053900000639259815
      ]
    },
    {
      "bufferView": 14,
      "byteOffset": 12,
      "count": 6,
      "componentType": 5126,
      "type": "VEC3"
    },
    {
      "bufferView": 15,
      "byteOffset": 0,
      "count": 6,
      "componentType": 5126,
      "type": "VEC3",
      "min": [
        -0.001559169963002205,
        0.018023639917373657,
        0.0053900000639259815
      ],
      "max": [
        0.005511899944394827,
        0.02509469911456108,
        0.0053900000639259815
      ]
    },
    {
      "bufferView": 15,
      "byteOffset": 12,
      "count": 6,
      "componentType": 5126,
      "type": "VEC3"
    },
    {
      "bufferView": 16,
      "byteOffset": 0,
      "count": 6,
      "componentType": 5126,
      "type": "VEC3",
      "min": [
        -0.001559169963002205,
        0.018023639917373657,
        0.00039000000106170774
      ],
      "max": [
        0.0019763601012527943,
        0.02155916951596737,
        0.0053900000639259815
      ]
    },
    {
      "bufferView": 16,
      "byteOffset": 12,
      "count": 6,
      "componentType": 5126,
      "type": "VEC3"
    },
    {
      "bufferView": 17,
      "byteOffset": 0,
      "count": 6,
      "componentType": 5126,
      "type": "VEC3",
      "min": [
        0.0019763601012527943,
        0.02155916951596737,
        0.00039000000106170774
      ],
      "max": [
        0.005511899944394827,
        0.02509469911456108,
        0.0053900000639259815
      ]
    },
    {
      "bufferView": 17,
      "byteOffset": 12,
      "count": 6,
      "componentType": 5126,
      "type": "VEC3"
    },
    {
      "bufferView": 18,
      "byteOffset": 0,
      "count": 6,
      "componentType": 5126,
      "type": "VEC3",
      "min": [
        0.0022521400824189186,
        0.029999999329447743,
        -0.0017005900153890252
      ],
      "max": [
        0.005787670146673918,
        0.03500000014901161,
        0.001834940048865974
      ]
    },
    {
      "bufferView": 18,
      "byteOffset": 12,
      "count": 6,
      "componentType": 5126,
      "type": "VEC3"
    },
    {
      "bufferView": 19,
      "byteOffset": 0,
      "count": 6,
      "componentType": 5126,
      "type": "VEC3",
      "min": [
        -0.0012833999935537577,
        0.029999999329447743,
        -0.0017005900153890252
      ],
      "max": [
        0.0022521400824189186,
        0.03500000014901161,
        0.001834940048865974
      ]
    },
    {
      "bufferView": 19,
      "byteOffset": 12,
      "count": 6,
      "componentType": 5126,
      "type": "VEC3"
    },
    {
      "bufferView": 20,
      "byteOffset": 0,
      "count": 6,
      "componentType": 5126,
      "type": "VEC3",
      "min": [
        -0.0012833999935537577,
        0.029999999329447743,
        0.001834940048865974
      ],
      "max": [
        0.0022521400824189186,
        0.03500000014901161,
        0.005370480008423328
      ]
    },
    {
      "bufferView": 20,
      "byteOffset": 12,
      "count": 6,
      "componentType": 5126,
      "type": "VEC3"
    },
    {
      "bufferView": 21,
      "byteOffset": 0,
      "count": 6,
      "componentType": 5126,
      "type": "VEC3",
      "min": [
        0.0022521400824189186,
        0.029999999329447743,
        0.001834940048865974
      ],
      "max": [
        0.005787670146673918,
        0.03500000014901161,
        0.005370480008423328
      ]
    },
    {
      "bufferView": 21,
      "byteOffset": 12,
      "count": 6,
      "componentType": 5126,
      "type": "VEC3"
    },
    {
      "bufferView": 22,
      "byteOffset": 0,
      "count": 6,
      "componentType": 5126,
      "type": "VEC3",
      "min": [
        -0.0012833999935537577,
        0.029999999329447743,
        -0.0017005900153890252
      ],
      "max": [
        0.005787670146673918,
        0.029999999329447743,
        0.005370480008423328
      ]
    },
    {
      "bufferView": 22,
      "byteOffset": 12,
      "count": 6,
      "componentType": 5126,
      "type": "VEC3"
    },
    {
      "bufferView": 23,
      "byteOffset": 0,
      "count": 6,
      "componentType": 5126,
      "type": "VEC3",
      "min": [
        -0.0012833999935537577,
        0.03500000014901161,
        -0.0017005900153890252
      ],
      "max": [
        0.005787670146673918,
        0.03500000014901161,
        0.005370480008423328
      ]
    },
    {
      "bufferView": 23,
      "byteOffset": 12,
      "count": 6,
      "componentType": 5126,
      "type": "VEC3"
    }
  ],
  "asset": {
    "generator": "zoo.dev",
    "version": "2.0"
  },
  "buffers": [
    {
      "byteLength": 3456,
      "uri": "data:application/octet-stream;base64,"
    }
  ],
  "bufferViews": [
    {
      "buffer": 0,
      "byteLength": 144,
      "byteOffset": 0,
      "byteStride": 24,
      "target": 34962
    },
    {
      "buffer": 0,
      "byteLength": 144,
      "byteOffset": 144,
      "byteStride": 24,
      "target": 34962
    },
    {
      "buffer": 0,
      "byteLength": 144,
      "byteOffset": 288,
      "byteStride": 24,
      "target": 34962
    },
    {
      "buffer": 0,
      "byteLength": 144,
      "byteOffset": 432,
      "byteStride": 24,
      "target": 34962
    },
    {
      "buffer": 0,
      "byteLength": 144,
      "byteOffset": 576,
      "byteStride": 24,
      "target": 34962
    },
    {
      "buffer": 0,
      "byteLength": 144,
      "byteOffset": 720,
      "byteStride": 24,
      "target": 34962
    },
    {
      "buffer": 0,
      "byteLength": 144,
      "byteOffset": 864,
      "byteStride": 24,
      "target": 34962
    },
    {
      "buffer": 0,
      "byteLength": 144,
      "byteOffset": 1008,
      "byteStride": 24,
      "target": 34962
    },
    {
      "buffer": 0,
      "byteLength": 144,
      "byteOffset": 1152,
      "byteStride": 24,
      "target": 34962
    },
    {
      "buffer": 0,
      "byteLength": 144,
      "byteOffset": 1296,
      "byteStride": 24,
      "target": 34962
    },
    {
      "buffer": 0,
      "byteLength": 144,
      "byteOffset": 1440,
      "byteStride": 24,
      "target": 34962
    },
    {
      "buffer": 0,
      "byteLength": 144,
      "byteOffset": 1584,
      "byteStride": 24,
      "target": 34962
    },
    {
      "buffer": 0,
      "byteLength": 144,
      "byteOffset": 1728,
      "byteStride": 24,
      "target": 34962
    },
    {
      "buffer": 0,
      "byteLength": 144,
      "byteOffset": 1872,
      "byteStride": 24,
      "target": 34962
    },
    {
      "buffer": 0,
      "byteLength": 144,
      "byteOffset": 2016,
      "byteStride": 24,
      "target": 34962
    },
    {
      "buffer": 0,
      "byteLength": 144,
      "byteOffset": 2160,
      "byteStride": 24,
      "target": 34962
    },
    {
      "buffer": 0,
      "byteLength": 144,
      "byteOffset": 2304,
      "byteStride": 24,
      "target": 34962
    },
    {
      "buffer": 0,
      "byteLength": 144,
      "byteOffset": 2448,
      "byteStride": 24,
      "target": 34962
    },
    {
      "buffer": 0,
      "byteLength": 144,
      "byteOffset": 2592,
      "byteStride": 24,
      "target": 34962
    },
    {
      "buffer": 0,
      "byteLength": 144,
      "byteOffset": 2736,
      "byteStride": 24,
      "target": 34962
    },
    {
      "buffer": 0,
      "byteLength": 144,
      "byteOffset": 2880,
      "byteStride": 24,
      "target": 34962
    },
    {
      "buffer": 0,
      "byteLength": 144,
      "byteOffset": 3024,
      "byteStride": 24,
      "target": 34962
    },
    {
      "buffer": 0,
      "byteLength": 144,
      "byteOffset": 3168,
      "byteStride": 24,
      "target": 34962
    },
    {
      "buffer": 0,
      "byteLength": 144,
      "byteOffset": 3312,
      "byteStride": 24,
      "target": 34962
    }
  ],
  "scene": 0,
  "extensions": {
    "KITTYCAD_boundary_representation": {
      "solids": [
        {
          "shells": [
            [
              0,
              1
            ]
          ],
          "mesh": 0,
          "extras": {
            "KITTYCAD": {
              "material": 0
            }
          }
        },
        {
          "shells": [
            [
              1,
              1
            ]
          ],
          "mesh": 1,
          "extras": {
            "KITTYCAD": {
              "material": 1
            }
          }
        },
        {
          "shells": [
            [
              2,
              1
            ]
          ],
          "mesh": 2,
          "extras": {
            "KITTYCAD": {
              "material": 2
            }
          }
        },
        {
          "shells": [
            [
              3,
              1
            ]
          ],
          "mesh": 3,
          "extras": {
            "KITTYCAD": {
              "material": 3
            }
          }
        }
      ],
      "shells": [
        {
          "faces": [
            [
              0,
              1
            ],
            [
              1,
              1
            ],
            [
              2,
              1
            ],
            [
              3,
              1
            ],
            [
              4,
              1
            ],
            [
              5,
              1
            ]
          ]
        },
        {
          "faces": [
            [
              6,
              1
            ],
            [
              7,
              1
            ],
            [
              8,
              1
            ],
            [
              9,
              1
            ],
            [
              10,
              1
            ],
            [
              11,
              1
            ]
          ]
        },
        {
          "faces": [
            [
              12,
              1
            ],
            [
              13,
              1
            ],
            [
              14,
              1
            ],
            [
              15,
              1
            ],
            [
              16,
              1
            ],
            [
              17,
              1
            ]
          ]
        },
        {
          "faces": [
            [
              18,
              1
            ],
            [
              19,
              1
            ],
            [
              20,
              1
            ],
            [
              21,
              1
            ],
            [
              22,
              1
            ],
            [
              23,
              1
            ]
          ]
        }
      ],
      "faces": [
        {
          "surface": [
            0,
            1
          ],
          "loops": [
            [
              0,
              1
            ]
          ]
        },
        {
          "surface": [
            1,
            1
          ],
          "loops": [
            [
              1,
              1
            ]
          ]
        },
        {
          "surface": [
            2,
            1
          ],
          "loops": [
            [
              2,
              1
            ]
          ]
        },
        {
          "surface": [
            3,
            1
          ],
          "loops": [
            [
              3,
              1
            ]
          ]
        },
        {
          "surface": [
            4,
            -1
          ],
          "loops": [
            [
              4,
              1
            ]
          ]
        },
        {
          "surface": [
            5,
            1
          ],
          "loops": [
            [
              5,
              1
            ]
          ]
        },
        {
          "surface": [
            6,
            1
          ],
          "loops": [
            [
              6,
              1
            ]
          ]
        },
        {
          "surface": [
            7,
            1
          ],
          "loops": [
            [
              7,
              1
            ]
          ]
        },
        {
          "surface": [
            8,
            1
          ],
          "loops": [
            [
              8,
              1
            ]
          ]
        },
        {
          "surface": [
            9,
            1
          ],
          "loops": [
            [
              9,
              1
            ]
          ]
        },
        {
          "surface": [
            10,
            -1
          ],
          "loops": [
            [
              10,
              1
            ]
          ]
        },
        {
          "surface": [
            11,
            1
          ],
          "loops": [
            [
              11,
              1
            ]
          ]
        },
        {
          "surface": [
            12,
            1
          ],
          "loops": [
            [
              12,
              1
            ]
          ]
        },
        {
          "surface": [
            13,
            1
          ],
          "loops": [
            [
              13,
              1
            ]
          ]
        },
        {
          "surface": [
            14,
            1
          ],
          "loops": [
            [
              14,
              1
            ]
          ]
        },
        {
          "surface": [
            15,
            1
          ],
          "loops": [
            [
              15,
              1
            ]
          ]
        },
        {
          "surface": [
            16,
            -1
          ],
          "loops": [
            [
              16,
              1
            ]
          ]
        },
        {
          "surface": [
            17,
            1
          ],
          "loops": [
            [
              17,
              1
            ]
          ]
        },
        {
          "surface": [
            18,
            1
          ],
          "loops": [
            [
              18,
              1
            ]
          ]
        },
        {
          "surface": [
            19,
            1
          ],
          "loops": [
            [
              19,
              1
            ]
          ]
        },
        {
          "surface": [
            20,
            1
          ],
          "loops": [
            [
              20,
              1
            ]
          ]
        },
        {
          "surface": [
            21,
            1
          ],
          "loops": [
            [
              21,
              1
            ]
          ]
        },
        {
          "surface": [
            22,
            -1
          ],
          "loops": [
            [
              22,
              1
            ]
          ]
        },
        {
          "surface": [
            23,
            1
          ],
          "loops": [
            [
              23,
              1
            ]
          ]
        }
      ],
      "loops": [
        {
          "edges": [
            [
              0,
              1
            ],
            [
              1,
              1
            ],
            [
              2,
              -1
            ],
            [
              3,
              -1
            ]
          ]
        },
        {
          "edges": [
            [
              4,
              1
            ],
            [
              5,
              1
            ],
            [
              6,
              -1
            ],
            [
              1,
              -1
            ]
          ]
        },
        {
          "edges": [
            [
              7,
              1
            ],
            [
              8,
              1
            ],
            [
              9,
              -1
            ],
            [
              5,
              -1
            ]
          ]
        },
        {
          "edges": [
            [
              10,
              1
            ],
            [
              3,
              1
            ],
            [
              11,
              -1
            ],
            [
              8,
              -1
            ]
          ]
        },
        {
          "edges": [
            [
              10,
              -1
            ],
            [
              7,
              -1
            ],
            [
              4,
              -1
            ],
            [
              0,
              -1
            ]
          ]
        },
        {
          "edges": [
            [
              2,
              1
            ],
            [
              6,
              1
            ],
            [
              9,
              1
            ],
            [
              11,
              1
            ]
          ]
        },
        {
          "edges": [
            [
              12,
              1
            ],
            [
              13,
              1
            ],
            [
              14,
              -1
            ],
            [
              15,
              -1
            ]
          ]
        },
        {
          "edges": [
            [
              16,
              1
            ],
            [
              17,
              1
            ],
            [
              18,
              -1
            ],
            [
              13,
              -1
            ]
          ]
        },
        {
          "edges": [
            [
              19,
              1
            ],
            [
              20,
              1
            ],
            [
              21,
              -1
            ],
            [
              17,
              -1
            ]
          ]
        },
        {
          "edges": [
            [
              22,
              1
            ],
            [
              15,
              1
            ],
            [
              23,
              -1
            ],
            [
              20,
              -1
            ]
          ]
        },
        {
          "edges": [
            [
              22,
              -1
            ],
            [
              19,
              -1
            ],
            [
              16,
              -1
            ],
            [
              12,
              -1
            ]
          ]
        },
        {
          "edges": [
            [
              14,
              1
            ],
            [
              18,
              1
            ],
            [
              21,
              1
            ],
            [
              23,
              1
            ]
          ]
        },
        {
          "edges": [
            [
              24,
              1
            ],
            [
              25,
              1
            ],
            [
              26,
              -1
            ],
            [
              27,
              -1
            ]
          ]
        },
        {
          "edges": [
            [
              28,
              1
            ],
            [
              29,
              1
            ],
            [
              30,
              -1
            ],
            [
              25,
              -1
            ]
          ]
        },
        {
          "edges": [
            [
              31,
              1
            ],
            [
              32,
              1
            ],
            [
              33,
              -1
            ],
            [
              29,
              -1
            ]
          ]
        },
        {
          "edges": [
            [
              34,
              1
            ],
            [
              27,
              1
            ],
            [
              35,
              -1
            ],
            [
              32,
              -1
            ]
          ]
        },
        {
          "edges": [
            [
              34,
              -1
            ],
            [
              31,
              -1
            ],
            [
              28,
              -1
            ],
            [
              24,
              -1
            ]
          ]
        },
        {
          "edges": [
            [
              26,
              1
            ],
            [
              30,
              1
            ],
            [
              33,
              1
            ],
            [
              35,
              1
            ]
          ]
        },
        {
          "edges": [
            [
              36,
              1
            ],
            [
              37,
              1
            ],
            [
              38,
              -1
            ],
            [
              39,
              -1
            ]
          ]
        },
        {
          "edges": [
            [
              40,
              1
            ],
            [
              41,
              1
            ],
            [
              42,
              -1
            ],
            [
              37,
              -1
            ]
          ]
        },
        {
          "edges": [
            [
              43,
              1
            ],
            [
              44,
              1
            ],
            [
              45,
              -1
            ],
            [
              41,
              -1
            ]
          ]
        },
        {
          "edges": [
            [
              46,
              1
            ],
            [
              39,
              1
            ],
            [
              47,
              -1
            ],
            [
              44,
              -1
            ]
          ]
        },
        {
          "edges": [
            [
              46,
              -1
            ],
            [
              43,
              -1
            ],
            [
              40,
              -1
            ],
            [
              36,
              -1
            ]
          ]
        },
        {
          "edges": [
            [
              38,
              1
            ],
            [
              42,
              1
            ],
            [
              45,
              1
            ],
            [
              47,
              1
            ]
          ]
        }
      ],
      "edges": [
        {
          "curve": [
            0,
            1
          ],
          "start": 0,
          "end": 1,
          "t": [
            0,
            0.005
          ]
        },
        {
          "curve": [
            1,
            1
          ],
          "start": 1,
          "end": 2,
          "t": [
            0,
            0.005
          ]
        },
        {
          "curve": [
            2,
            1
          ],
          "start": 3,
          "end": 2,
          "t": [
            0,
            0.005
          ]
        },
        {
          "curve": [
            3,
            1
          ],
          "start": 0,
          "end": 3,
          "t": [
            0,
            0.005
          ]
        },
        {
          "curve": [
            4,
            1
          ],
          "start": 1,
          "end": 4,
          "t": [
            0,
            0.005
          ]
        },
        {
          "curve": [
            5,
            1
          ],
          "start": 4,
          "end": 5,
          "t": [
            0,
            0.005
          ]
        },
        {
          "curve": [
            6,
            1
          ],
          "start": 2,
          "end": 5,
          "t": [
            0,
            0.005
          ]
        },
        {
          "curve": [
            7,
            1
          ],
          "start": 4,
          "end": 6,
          "t": [
            0,
            0.005
          ]
        },
        {
          "curve": [
            8,
            1
          ],
          "start": 6,
          "end": 7,
          "t": [
            0,
            0.005
          ]
        },
        {
          "curve": [
            9,
            1
          ],
          "start": 5,
          "end": 7,
          "t": [
            0,
            0.005
          ]
        },
        {
          "curve": [
            10,
            1
          ],
          "start": 6,
          "end": 0,
          "t": [
            0,
            0.005
          ]
        },
        {
          "curve": [
            11,
            1
          ],
          "start": 7,
          "end": 3,
          "t": [
            0,
            0.005
          ]
        },
        {
          "curve": [
            12,
            1
          ],
          "start": 8,
          "end": 9,
          "t": [
            0,
            0.005000008618312572
          ]
        },
        {
          "curve": [
            13,
            1
          ],
          "start": 9,
          "end": 10,
          "t": [
            0,
            0.005000001547249761
          ]
        },
        {
          "curve": [
            14,
            1
          ],
          "start": 11,
          "end": 10,
          "t": [
            0,
            0.004999994476176948
          ]
        },
        {
          "curve": [
            15,
            1
          ],
          "start": 8,
          "end": 11,
          "t": [
            0,
            0.005000001547249761
          ]
        },
        {
          "curve": [
            16,
            1
          ],
          "start": 9,
          "end": 12,
          "t": [
            0,
            0.005
          ]
        },
        {
          "curve": [
            17,
            1
          ],
          "start": 12,
          "end": 13,
          "t": [
            0,
            0.005000001547249761
          ]
        },
        {
          "curve": [
            18,
            1
          ],
          "start": 10,
          "end": 13,
          "t": [
            0,
            0.005
          ]
        },
        {
          "curve": [
            19,
            1
          ],
          "start": 12,
          "end": 14,
          "t": [
            0,
            0.005000008618312572
          ]
        },
        {
          "curve": [
            20,
            1
          ],
          "start": 14,
          "end": 15,
          "t": [
            0,
            0.005000001547249761
          ]
        },
        {
          "curve": [
            21,
            1
          ],
          "start": 13,
          "end": 15,
          "t": [
            0,
            0.004999994476176948
          ]
        },
        {
          "curve": [
            22,
            1
          ],
          "start": 14,
          "end": 8,
          "t": [
            0,
            0.005
          ]
        },
        {
          "curve": [
            23,
            1
          ],
          "start": 15,
          "end": 11,
          "t": [
            0,
            0.005
          ]
        },
        {
          "curve": [
            24,
            1
          ],
          "start": 16,
          "end": 17,
          "t": [
            0,
            0.005
          ]
        },
        {
          "curve": [
            25,
            1
          ],
          "start": 17,
          "end": 18,
          "t": [
            0,
            0.005000001547249759
          ]
        },
        {
          "curve": [
            26,
            1
          ],
          "start": 19,
          "end": 18,
          "t": [
            0,
            0.005
          ]
        },
        {
          "curve": [
            27,
            1
          ],
          "start": 16,
          "end": 19,
          "t": [
            0,
            0.005000001547249759
          ]
        },
        {
          "curve": [
            28,
            1
          ],
          "start": 17,
          "end": 20,
          "t": [
            0,
            0.0049999944761769475
          ]
        },
        {
          "curve": [
            29,
            1
          ],
          "start": 20,
          "end": 21,
          "t": [
            0,
            0.00499999447617695
          ]
        },
        {
          "curve": [
            30,
            1
          ],
          "start": 18,
          "end": 21,
          "t": [
            0,
            0.005000001547249762
          ]
        },
        {
          "curve": [
            31,
            1
          ],
          "start": 20,
          "end": 22,
          "t": [
            0,
            0.005
          ]
        },
        {
          "curve": [
            32,
            1
          ],
          "start": 22,
          "end": 23,
          "t": [
            0,
            0.00499999447617695
          ]
        },
        {
          "curve": [
            33,
            1
          ],
          "start": 21,
          "end": 23,
          "t": [
            0,
            0.005
          ]
        },
        {
          "curve": [
            34,
            1
          ],
          "start": 22,
          "end": 16,
          "t": [
            0,
            0.0049999944761769475
          ]
        },
        {
          "curve": [
            35,
            1
          ],
          "start": 23,
          "end": 19,
          "t": [
            0,
            0.005000001547249762
          ]
        },
        {
          "curve": [
            36,
            1
          ],
          "start": 24,
          "end": 25,
          "t": [
            0,
            0.004999994476176948
          ]
        },
        {
          "curve": [
            37,
            1
          ],
          "start": 25,
          "end": 26,
          "t": [
            0,
            0.0050000000000000044
          ]
        },
        {
          "curve": [
            38,
            1
          ],
          "start": 27,
          "end": 26,
          "t": [
            0,
            0.004999994476176948
          ]
        },
        {
          "curve": [
            39,
            1
          ],
          "start": 24,
          "end": 27,
          "t": [
            0,
            0.0050000000000000044
          ]
        },
        {
          "curve": [
            40,
            1
          ],
          "start": 25,
          "end": 28,
          "t": [
            0,
            0.005000001547249761
          ]
        },
        {
          "curve": [
            41,
            1
          ],
          "start": 28,
          "end": 29,
          "t": [
            0,
            0.0050000000000000044
          ]
        },
        {
          "curve": [
            42,
            1
          ],
          "start": 26,
          "end": 29,
          "t": [
            0,
            0.005000001547249761
          ]
        },
        {
          "curve": [
            43,
            1
          ],
          "start": 28,
          "end": 30,
          "t": [
            0,
            0.005000008618312572
          ]
        },
        {
          "curve": [
            44,
            1
          ],
          "start": 30,
          "end": 31,
          "t": [
            0,
            0.0050000000000000044
          ]
        },
        {
          "curve": [
            45,
            1
          ],
          "start": 29,
          "end": 31,
          "t": [
            0,
            0.005000008618312572
          ]
        },
        {
          "curve": [
            46,
            1
          ],
          "start": 30,
          "end": 24,
          "t": [
            0,
            0.005000001547249761
          ]
        },
        {
          "curve": [
            47,
            1
          ],
          "start": 31,
          "end": 27,
          "t": [
            0,
            0.005000001547249761
          ]
        }
      ],
      "vertices": [
        [
          0.002795,
          0,
          0.00539
        ],
        [
          0.002795,
          0,
          0.00039
        ],
        [
          0.002795,
          0.005,
          0.00039
        ],
        [
          0.002795,
          0.005,
          0.00539
        ],
        [
          -0.002205,
          0,
          0.00039
        ],
        [
          -0.002205,
          0.005,
          0.00039
        ],
        [
          -0.002205,
          0,
          0.00539
        ],
        [
          -0.002205,
          0.005,
          0.00539
        ],
        [
          0.002795,
          0.00618869,
          0.00381131
        ],
        [
          0.002795,
          0.00972423,
          0.00027577
        ],
        [
          0.002795,
          0.01325976,
          0.00381131
        ],
        [
          0.002795,
          0.00972423,
          0.00734684
        ],
        [
          -0.002205,
          0.00972423,
          0.00027577
        ],
        [
          -0.002205,
          0.01325976,
          0.00381131
        ],
        [
          -0.002205,
          0.00618869,
          0.00381131
        ],
        [
          -0.002205,
          0.00972423,
          0.00734684
        ],
        [
          0.00197636,
          0.01802364,
          0.00539
        ],
        [
          0.00197636,
          0.01802364,
          0.00039
        ],
        [
          0.0055119,
          0.02155917,
          0.00039
        ],
        [
          0.0055119,
          0.02155917,
          0.00539
        ],
        [
          -0.00155917,
          0.02155917,
          0.00039
        ],
        [
          0.00197636,
          0.0250947,
          0.00039
        ],
        [
          -0.00155917,
          0.02155917,
          0.00539
        ],
        [
          0.00197636,
          0.0250947,
          0.00539
        ],
        [
          0.00578767,
          0.03,
          0.00183494
        ],
        [
          0.00225214,
          0.03,
          -0.00170059
        ],
        [
          0.00225214,
          0.035,
          -0.00170059
        ],
        [
          0.00578767,
          0.035,
          0.00183494
        ],
        [
          -0.0012834,
          0.03,
          0.00183494
        ],
        [
          -0.0012834,
          0.035,
          0.00183494
        ],
        [
          0.00225214,
          0.03,
          0.00537048
        ],
        [
          0.00225214,
          0.035,
          0.00537048
        ]
      ],
      "surfaces": [
        {
          "type": "plane",
          "plane": {
            "xAxis": [
              -0,
              1,
              0
            ],
            "yAxis": [
              0,
              -0,
              1
            ],
            "origin": [
              0.002795,
              0.0025,
              0.00289
            ]
          }
        },
        {
          "type": "plane",
          "plane": {
            "xAxis": [
              1,
              0,
              0
            ],
            "yAxis": [
              0,
              -1,
              0
            ],
            "origin": [
              0.000295,
              0.0025,
              0.00039
            ]
          }
        },
        {
          "type": "plane",
          "plane": {
            "xAxis": [
              0,
              1,
              0
            ],
            "yAxis": [
              0,
              0,
              -1
            ],
            "origin": [
              -0.002205,
              0.0025,
              0.00289
            ]
          }
        },
        {
          "type": "plane",
          "plane": {
            "xAxis": [
              1,
              0,
              -0
            ],
            "yAxis": [
              -0,
              1,
              0
            ],
            "origin": [
              0.000295,
              0.0025,
              0.00539
            ]
          }
        },
        {
          "type": "plane",
          "plane": {
            "xAxis": [
              1,
              0,
              0
            ],
            "yAxis": [
              0,
              0,
              -1
            ],
            "origin": [
              0,
              0,
              -0
            ]
          }
        },
        {
          "type": "plane",
          "plane": {
            "xAxis": [
              1,
              0,
              0
            ],
            "yAxis": [
              0,
              0,
              -1
            ],
            "origin": [
              0,
              0.005,
              -0
            ]
          }
        },
        {
          "type": "plane",
          "plane": {
            "xAxis": [
              0,
              1,
              0
            ],
            "yAxis": [
              -0,
              0,
              1
            ],
            "origin": [
              0.002795,
              0.00972423,
              0.00381131
            ]
          }
        },
        {
          "type": "plane",
          "plane": {
            "xAxis": [
              1,
              0,
              0
            ],
            "yAxis": [
              0,
              -0.7071067811865476,
              -0.7071067811865476
            ],
            "origin": [
              0.000295,
              0.011492,
              0.00204354
            ]
          }
        },
        {
          "type": "plane",
          "plane": {
            "xAxis": [
              0,
              1,
              0
            ],
            "yAxis": [
              0,
              0,
              -1
            ],
            "origin": [
              -0.002205,
              0.00972423,
              0.00381131
            ]
          }
        },
        {
          "type": "plane",
          "plane": {
            "xAxis": [
              1,
              0,
              0
            ],
            "yAxis": [
              -0,
              0.7071067811865476,
              0.7071067811865476
            ],
            "origin": [
              0.000295,
              0.00795646,
              0.00557907
            ]
          }
        },
        {
          "type": "plane",
          "plane": {
            "xAxis": [
              1,
              0,
              -0
            ],
            "yAxis": [
              -0,
              0.7071067811865476,
              -0.7071067811865476
            ],
            "origin": [
              0,
              0.01,
              -0
            ]
          }
        },
        {
          "type": "plane",
          "plane": {
            "xAxis": [
              1,
              0,
              -0
            ],
            "yAxis": [
              -0,
              0.7071067811865476,
              -0.7071067811865476
            ],
            "origin": [
              0,
              0.01353553,
              0.00353553
            ]
          }
        },
        {
          "type": "plane",
          "plane": {
            "xAxis": [
              0.7071067811865476,
              0.7071067811865476,
              0
            ],
            "yAxis": [
              -0,
              0,
              1
            ],
            "origin": [
              0.00374413,
              0.0197914,
              0.00289
            ]
          }
        },
        {
          "type": "plane",
          "plane": {
            "xAxis": [
              1,
              0,
              0
            ],
            "yAxis": [
              0,
              -1,
              0
            ],
            "origin": [
              0.00197636,
              0.02155917,
              0.00039
            ]
          }
        },
        {
          "type": "plane",
          "plane": {
            "xAxis": [
              0.7071067811865476,
              0.7071067811865476,
              0
            ],
            "yAxis": [
              0,
              0,
              -1
            ],
            "origin": [
              0.0002086,
              0.02332694,
              0.00289
            ]
          }
        },
        {
          "type": "plane",
          "plane": {
            "xAxis": [
              1,
              0,
              -0
            ],
            "yAxis": [
              -0,
              1,
              0
            ],
            "origin": [
              0.00197636,
              0.02155917,
              0.00539
            ]
          }
        },
        {
          "type": "plane",
          "plane": {
            "xAxis": [
              0.7071067811865476,
              -0.7071067811865476,
              0
            ],
            "yAxis": [
              0,
              0,
              -1
            ],
            "origin": [
              0,
              0.02,
              -0
            ]
          }
        },
        {
          "type": "plane",
          "plane": {
            "xAxis": [
              0.7071067811865476,
              -0.7071067811865476,
              0
            ],
            "yAxis": [
              0,
              0,
              -1
            ],
            "origin": [
              0.00353553,
              0.02353553,
              -0
            ]
          }
        },
        {
          "type": "plane",
          "plane": {
            "xAxis": [
              0.7071067811865476,
              0,
              0.7071067811865476
            ],
            "yAxis": [
              0,
              -1,
              0
            ],
            "origin": [
              0.0040199,
              0.0325,
              0.00006718
            ]
          }
        },
        {
          "type": "plane",
          "plane": {
            "xAxis": [
              0.7071067811865476,
              0,
              -0.7071067811865476
            ],
            "yAxis": [
              0,
              -1,
              -0
            ],
            "origin": [
              0.00048437,
              0.0325,
              0.00006718
            ]
          }
        },
        {
          "type": "plane",
          "plane": {
            "xAxis": [
              0.7071067811865476,
              0,
              0.7071067811865476
            ],
            "yAxis": [
              0,
              1,
              -0
            ],
            "origin": [
              0.00048437,
              0.0325,
              0.00360271
            ]
          }
        },
        {
          "type": "plane",
          "plane": {
            "xAxis": [
              0.7071067811865476,
              0,
              -0.7071067811865476
            ],
            "yAxis": [
              -0,
              1,
              0
            ],
            "origin": [
              0.0040199,
              0.0325,
              0.00360271
            ]
          }
        },
        {
          "type": "plane",
          "plane": {
            "xAxis": [
              1,
              0,
              0
            ],
            "yAxis": [
              0,
              0,
              -1
            ],
            "origin": [
              0,
              0.03,
              -0
            ]
          }
        },
        {
          "type": "plane",
          "plane": {
            "xAxis": [
              1,
              0,
              0
            ],
            "yAxis": [
              0,
              0,
              -1
            ],
            "origin": [
              0,
              0.035,
              -0
            ]
          }
        }
      ],
      "curves3D": [
        {
          "type": "line",
          "line": {
            "origin": [
              0.002795,
              0,
              0.00539
            ],
            "direction": [
              0,
              0,
              -1
            ]
          }
        },
        {
          "type": "line",
          "line": {
            "origin": [
              0.002795,
              0,
              0.00039
            ],
            "direction": [
              0,
              1,
              0
            ]
          }
        },
        {
          "type": "line",
          "line": {
            "origin": [
              0.002795,
              0.005,
              0.00539
            ],
            "direction": [
              0,
              0,
              -1
            ]
          }
        },
        {
          "type": "line",
          "line": {
            "origin": [
              0.002795,
              0,
              0.00539
            ],
            "direction": [
              0,
              1,
              0
            ]
          }
        },
        {
          "type": "line",
          "line": {
            "origin": [
              0.002795,
              0,
              0.00039
            ],
            "direction": [
              -1,
              0,
              0
            ]
          }
        },
        {
          "type": "line",
          "line": {
            "origin": [
              -0.002205,
              0,
              0.00039
            ],
            "direction": [
              0,
              1,
              0
            ]
          }
        },
        {
          "type": "line",
          "line": {
            "origin": [
              0.002795,
              0.005,
              0.00039
            ],
            "direction": [
              -1,
              0,
              0
            ]
          }
        },
        {
          "type": "line",
          "line": {
            "origin": [
              -0.002205,
              0,
              0.00039
            ],
            "direction": [
              0,
              0,
              1
            ]
          }
        },
        {
          "type": "line",
          "line": {
            "origin": [
              -0.002205,
              0,
              0.00539
            ],
            "direction": [
              0,
              1,
              0
            ]
          }
        },
        {
          "type": "line",
          "line": {
            "origin": [
              -0.002205,
              0.005,
              0.00039
            ],
            "direction": [
              0,
              0,
              1
            ]
          }
        },
        {
          "type": "line",
          "line": {
            "origin": [
              -0.002205,
              0,
              0.00539
            ],
            "direction": [
              1,
              0,
              -0
            ]
          }
        },
        {
          "type": "line",
          "line": {
            "origin": [
              -0.002205,
              0.005,
              0.00539
            ],
            "direction": [
              1,
              0,
              -0
            ]
          }
        },
        {
          "type": "line",
          "line": {
            "origin": [
              0.002795,
              0.00618869,
              0.00381131
            ],
            "direction": [
              0,
              0.7071067811865476,
              -0.7071067811865476
            ]
          }
        },
        {
          "type": "line",
          "line": {
            "origin": [
              0.002795,
              0.00972423,
              0.00027577
            ],
            "direction": [
              0,
              0.7071057811861499,
              0.707107781185531
            ]
          }
        },
        {
          "type": "line",
          "line": {
            "origin": [
              0.002795,
              0.00972423,
              0.00734684
            ],
            "direction": [
              0,
              0.7071067811865476,
              -0.7071067811865476
            ]
          }
        },
        {
          "type": "line",
          "line": {
            "origin": [
              0.002795,
              0.00618869,
              0.00381131
            ],
            "direction": [
              0,
              0.707107781185531,
              0.7071057811861499
            ]
          }
        },
        {
          "type": "line",
          "line": {
            "origin": [
              0.002795,
              0.00972423,
              0.00027577
            ],
            "direction": [
              -1,
              0,
              0
            ]
          }
        },
        {
          "type": "line",
          "line": {
            "origin": [
              -0.002205,
              0.00972423,
              0.00027577
            ],
            "direction": [
              0,
              0.7071057811861499,
              0.707107781185531
            ]
          }
        },
        {
          "type": "line",
          "line": {
            "origin": [
              0.002795,
              0.01325976,
              0.00381131
            ],
            "direction": [
              -1,
              0,
              0
            ]
          }
        },
        {
          "type": "line",
          "line": {
            "origin": [
              -0.002205,
              0.00972423,
              0.00027577
            ],
            "direction": [
              0,
              -0.7071067811865476,
              0.7071067811865476
            ]
          }
        },
        {
          "type": "line",
          "line": {
            "origin": [
              -0.002205,
              0.00618869,
              0.00381131
            ],
            "direction": [
              0,
              0.707107781185531,
              0.7071057811861499
            ]
          }
        },
        {
          "type": "line",
          "line": {
            "origin": [
              -0.002205,
              0.01325976,
              0.00381131
            ],
            "direction": [
              0,
              -0.7071067811865476,
              0.7071067811865476
            ]
          }
        },
        {
          "type": "line",
          "line": {
            "origin": [
              -0.002205,
              0.00618869,
              0.00381131
            ],
            "direction": [
              1,
              0,
              -0
            ]
          }
        },
        {
          "type": "line",
          "line": {
            "origin": [
              -0.002205,
              0.00972423,
              0.00734684
            ],
            "direction": [
              1,
              0,
              -0
            ]
          }
        },
        {
          "type": "line",
          "line": {
            "origin": [
              0.00197636,
              0.01802364,
              0.00539
            ],
            "direction": [
              0,
              0,
              -1
            ]
          }
        },
        {
          "type": "line",
          "line": {
            "origin": [
              0.00197636,
              0.01802364,
              0.00039
            ],
            "direction": [
              0.7071077811855312,
              0.7071057811861498,
              0
            ]
          }
        },
        {
          "type": "line",
          "line": {
            "origin": [
              0.0055119,
              0.02155917,
              0.00539
            ],
            "direction": [
              0,
              0,
              -1
            ]
          }
        },
        {
          "type": "line",
          "line": {
            "origin": [
              0.00197636,
              0.01802364,
              0.00539
            ],
            "direction": [
              0.7071077811855312,
              0.7071057811861498,
              0
            ]
          }
        },
        {
          "type": "line",
          "line": {
            "origin": [
              0.00197636,
              0.01802364,
              0.00039
            ],
            "direction": [
              -0.7071067811865477,
              0.7071067811865475,
              0
            ]
          }
        },
        {
          "type": "line",
          "line": {
            "origin": [
              -0.00155917,
              0.02155917,
              0.00039
            ],
            "direction": [
              0.7071067811865474,
              0.7071067811865477,
              0
            ]
          }
        },
        {
          "type": "line",
          "line": {
            "origin": [
              0.0055119,
              0.02155917,
              0.00039
            ],
            "direction": [
              -0.7071077811855309,
              0.7071057811861501,
              0
            ]
          }
        },
        {
          "type": "line",
          "line": {
            "origin": [
              -0.00155917,
              0.02155917,
              0.00039
            ],
            "direction": [
              0,
              0,
              1
            ]
          }
        },
        {
          "type": "line",
          "line": {
            "origin": [
              -0.00155917,
              0.02155917,
              0.00539
            ],
            "direction": [
              0.7071067811865474,
              0.7071067811865477,
              0
            ]
          }
        },
        {
          "type": "line",
          "line": {
            "origin": [
              0.00197636,
              0.0250947,
              0.00039
            ],
            "direction": [
              0,
              0,
              1
            ]
          }
        },
        {
          "type": "line",
          "line": {
            "origin": [
              -0.00155917,
              0.02155917,
              0.00539
            ],
            "direction": [
              0.7071067811865477,
              -0.7071067811865475,
              0
            ]
          }
        },
        {
          "type": "line",
          "line": {
            "origin": [
              0.00197636,
              0.0250947,
              0.00539
            ],
            "direction": [
              0.7071077811855309,
              -0.7071057811861501,
              0
            ]
          }
        },
        {
          "type": "line",
          "line": {
            "origin": [
              0.00578767,
              0.03,
              0.00183494
            ],
            "direction": [
              -0.7071067811865476,
              0,
              -0.7071067811865476
            ]
          }
        },
        {
          "type": "line",
          "line": {
            "origin": [
              0.00225214,
              0.03,
              -0.00170059
            ],
            "direction": [
              0,
              1,
              0
            ]
          }
        },
        {
          "type": "line",
          "line": {
            "origin": [
              0.00578767,
              0.035,
              0.00183494
            ],
            "direction": [
              -0.7071067811865476,
              0,
              -0.7071067811865476
            ]
          }
        },
        {
          "type": "line",
          "line": {
            "origin": [
              0.00578767,
              0.03,
              0.00183494
            ],
            "direction": [
              0,
              1,
              0
            ]
          }
        },
        {
          "type": "line",
          "line": {
            "origin": [
              0.00225214,
              0.03,
              -0.00170059
            ],
            "direction": [
              -0.707107781185531,
              0,
              0.7071057811861499
            ]
          }
        },
        {
          "type": "line",
          "line": {
            "origin": [
              -0.0012834,
              0.03,
              0.00183494
            ],
            "direction": [
              0,
              1,
              0
            ]
          }
        },
        {
          "type": "line",
          "line": {
            "origin": [
              0.00225214,
              0.035,
              -0.00170059
            ],
            "direction": [
              -0.707107781185531,
              0,
              0.7071057811861499
            ]
          }
        },
        {
          "type": "line",
          "line": {
            "origin": [
              -0.0012834,
              0.03,
              0.00183494
            ],
            "direction": [
              0.7071067811865476,
              0,
              0.7071067811865476
            ]
          }
        },
        {
          "type": "line",
          "line": {
            "origin": [
              0.00225214,
              0.03,
              0.00537048
            ],
            "direction": [
              0,
              1,
              0
            ]
          }
        },
        {
          "type": "line",
          "line": {
            "origin": [
              -0.0012834,
              0.035,
              0.00183494
            ],
            "direction": [
              0.7071067811865476,
              0,
              0.7071067811865476
            ]
          }
        },
        {
          "type": "line",
          "line": {
            "origin": [
              0.00225214,
              0.03,
              0.00537048
            ],
            "direction": [
              0.7071057811861499,
              0,
              -0.707107781185531
            ]
          }
        },
        {
          "type": "line",
          "line": {
            "origin": [
              0.00225214,
              0.035,
              0.00537048
            ],
            "direction": [
              0.7071057811861499,
              0,
              -0.707107781185531
            ]
          }
        }
      ]
    }
  },
  "extensionsUsed": [
    "KITTYCAD_boundary_representation"
  ],
  "materials": [
    {
      "alphaMode": "OPAQUE",
      "doubleSided": false,
      "pbrMetallicRoughness": {
        "baseColorFactor": [
          0.9,
          0.9,
          0.9,
          1
        ],
        "metallicFactor": 1,
        "roughnessFactor": 1
      },
      "emissiveFactor": [
        0,
        0,
        0
      ]
    },
    {
      "alphaMode": "OPAQUE",
      "doubleSided": false,
      "pbrMetallicRoughness": {
        "baseColorFactor": [
          0,
          1,
          0,
          1
        ],
        "metallicFactor": 1,
        "roughnessFactor": 1
      },
      "emissiveFactor": [
        0,
        0,
        0
      ]
    },
    {
      "alphaMode": "OPAQUE",
      "doubleSided": false,
      "pbrMetallicRoughness": {
        "baseColorFactor": [
          0,
          1,
          0.88235295,
          1
        ],
        "metallicFactor": 1,
        "roughnessFactor": 1
      },
      "emissiveFactor": [
        0,
        0,
        0
      ]
    },
    {
      "alphaMode": "OPAQUE",
      "doubleSided": false,
      "pbrMetallicRoughness": {
        "baseColorFactor": [
          0.34901962,
          0,
          1,
          1
        ],
        "metallicFactor": 1,
        "roughnessFactor": 1
      },
      "emissiveFactor": [
        0,
        0,
        0
      ]
    }
  ],
  "meshes": [
    {
      "primitives": [
        {
          "attributes": {
            "POSITION": 0,
            "NORMAL": 1
          },
          "material": 0
        },
        {
          "attributes": {
            "POSITION": 2,
            "NORMAL": 3
          },
          "material": 0
        },
        {
          "attributes": {
            "POSITION": 4,
            "NORMAL": 5
          },
          "material": 0
        },
        {
          "attributes": {
            "POSITION": 6,
            "NORMAL": 7
          },
          "material": 0
        },
        {
          "attributes": {
            "POSITION": 8,
            "NORMAL": 9
          },
          "material": 0
        },
        {
          "attributes": {
            "POSITION": 10,
            "NORMAL": 11
          },
          "material": 0
        }
      ]
    },
    {
      "primitives": [
        {
          "attributes": {
            "POSITION": 12,
            "NORMAL": 13
          },
          "material": 1
        },
        {
          "attributes": {
            "POSITION": 14,
            "NORMAL": 15
          },
          "material": 1
        },
        {
          "attributes": {
            "POSITION": 16,
            "NORMAL": 17
          },
          "material": 1
        },
        {
          "attributes": {
            "POSITION": 18,
            "NORMAL": 19
          },
          "material": 1
        },
        {
          "attributes": {
            "POSITION": 20,
            "NORMAL": 21
          },
          "material": 1
        },
        {
          "attributes": {
            "POSITION": 22,
            "NORMAL": 23
          },
          "material": 1
        }
      ]
    },
    {
      "primitives": [
        {
          "attributes": {
            "POSITION": 24,
            "NORMAL": 25
          },
          "material": 2
        },
        {
          "attributes": {
            "POSITION": 26,
            "NORMAL": 27
          },
          "material": 2
        },
        {
          "attributes": {
            "POSITION": 28,
            "NORMAL": 29
          },
          "material": 2
        },
        {
          "attributes": {
            "POSITION": 30,
            "NORMAL": 31
          },
          "material": 2
        },
        {
          "attributes": {
            "POSITION": 32,
            "NORMAL": 33
          },
          "material": 2
        },
        {
          "attributes": {
            "POSITION": 34,
            "NORMAL": 35
          },
          "material": 2
        }
      ]
    },
    {
      "primitives": [
        {
          "attributes": {
            "POSITION": 36,
            "NORMAL": 37
          },
          "material": 3
        },
        {
          "attributes": {
            "POSITION": 38,
            "NORMAL": 39
          },
          "material": 3
        },
        {
          "attributes": {
            "POSITION": 40,
            "NORMAL": 41
          },
          "material": 3
        },
        {
          "attributes": {
            "POSITION": 42,
            "NORMAL": 43
          },
          "material": 3
        },
        {
          "attributes": {
            "POSITION": 44,
            "NORMAL": 45
          },
          "material": 3
        },
        {
          "attributes": {
            "POSITION": 46,
            "NORMAL": 47
          },
          "material": 3
        }
      ]
    }
  ],
  "nodes": [
    {
      "children": [
        1
      ]
    },
    {
      "children": [
        2,
        3,
        4,
        5
      ]
    },
    {
      "extensions": {
        "KITTYCAD_boundary_representation": {
          "solid": 0
        }
      },
      "mesh": 0
    },
    {
      "extensions": {
        "KITTYCAD_boundary_representation": {
          "solid": 1
        }
      },
      "mesh": 1
    },
    {
      "extensions": {
        "KITTYCAD_boundary_representation": {
          "solid": 2
        }
      },
      "mesh": 2
    },
    {
      "extensions": {
        "KITTYCAD_boundary_representation": {
          "solid": 3
        }
      },
      "mesh": 3
    }
  ],
  "scenes": [
    {
      "nodes": [
        0
      ]
    }
  ]
}