{
  "accessors": [
    {
      "bufferView": 0,
      "byteOffset": 0,
      "count": 384,
      "componentType": 5126,
      "type": "VEC3",
      "min": [
        0.02800000086426735,
        0,
        -0.00000000000000000024492936844908204
      ],
      "max": [
        0.03200000151991844,
        0.004000000189989805,
        0.0020000000949949026
      ]
    },
    {
      "bufferView": 0,
      "byteOffset": 12,
      "count": 384,
      "componentType": 5126,
      "type": "VEC3"
    },
    {
      "bufferView": 1,
      "byteOffset": 0,
      "count": 234,
      "componentType": 5126,
      "type": "VEC3",
      "min": [
        0.02800000086426735,
        0,
        -0.0020000000949949026
      ],
      "max": [
        0.03200000151991844,
        0,
        0.0020000000949949026
      ]
    },
    {
      "bufferView": 1,
      "byteOffset": 12,
      "count": 234,
      "componentType": 5126,
      "type": "VEC3"
    },
    {
      "bufferView": 2,
      "byteOffset": 0,
      "count": 234,
      "componentType": 5126,
      "type": "VEC3",
      "min": [
        0.02800000086426735,
        0.004000000189989805,
        -0.0020000000949949026
      ],
      "max": [
        0.03200000151991844,
        0.004000000189989805,
        0.0020000000949949026
      ]
    },
    {
      "bufferView": 2,
      "byteOffset": 12,
      "count": 234,
      "componentType": 5126,
      "type": "VEC3"
    },
    {
      "bufferView": 3,
      "byteOffset": 0,
      "count": 96,
      "componentType": 5126,
      "type": "VEC3",
      "min": [
        0.02800000086426735,
        0,
        -0.0020000000949949026
      ],
      "max": [
        0.03200000151991844,
        0.004000000189989805,
        0
      ]
    },
    {
      "bufferView": 3,
      "byteOffset": 12,
      "count": 96,
      "componentType": 5126,
      "type": "VEC3"
    },
    {
      "bufferView": 4,
      "byteOffset": 0,
      "count": 384,
      "componentType": 5126,
      "type": "VEC3",
      "min": [
        0.017999999225139618,
        0,
        -0.00000000000000000024492936844908204
      ],
      "max": [
        0.02199999988079071,
        0.004000000189989805,
        0.0020000000949949026
      ]
    },
    {
      "bufferView": 4,
      "byteOffset": 12,
      "count": 384,
      "componentType": 5126,
      "type": "VEC3"
    },
    {
      "bufferView": 5,
      "byteOffset": 0,
      "count": 234,
      "componentType": 5126,
      "type": "VEC3",
      "min": [
        0.017999999225139618,
        0,
        -0.0020000000949949026
      ],
      "max": [
        0.02199999988079071,
        0,
        0.0020000000949949026
      ]
    },
    {
      "bufferView": 5,
      "byteOffset": 12,
      "count": 234,
      "componentType": 5126,
      "type": "VEC3"
    },
    {
      "bufferView": 6,
      "byteOffset": 0,
      "count": 234,
      "componentType": 5126,
      "type": "VEC3",
      "min": [
        0.017999999225139618,
        0.004000000189989805,
        -0.0020000000949949026
      ],
      "max": [
        0.02199999988079071,
        0.004000000189989805,
        0.0020000000949949026
      ]
    },
    {
      "bufferView": 6,
      "byteOffset": 12,
      "count": 234,
      "componentType": 5126,
      "type": "VEC3"
    },
    {
      "bufferView": 7,
      "byteOffset": 0,
      "count": 96,
      "componentType": 5126,
      "type": "VEC3",
      "min": [
        0.017999999225139618,
        0,
        -0.0020000000949949026
      ],
      "max": [
        0.02199999988079071,
        0.004000000189989805,
        0
      ]
    },
    {
      "bufferView": 7,
      "byteOffset": 12,
      "count": 96,
      "componentType": 5126,
      "type": "VEC3"
    },
    {
      "bufferView": 8,
      "byteOffset": 0,
      "count": 384,
      "componentType": 5126,
      "type": "VEC3",
      "min": [
        0.00800000037997961,
        0,
        -0.00000000000000000024492936844908204
      ],
      "max": [
        0.012000000104308128,
        0.004000000189989805,
        0.0020000000949949026
      ]
    },
    {
      "bufferView": 8,
      "byteOffset": 12,
      "count": 384,
      "componentType": 5126,
      "type": "VEC3"
    },
    {
      "bufferView": 9,
      "byteOffset": 0,
      "count": 234,
      "componentType": 5126,
      "type": "VEC3",
      "min": [
        0.00800000037997961,
        0,
        -0.0020000000949949026
      ],
      "max": [
        0.012000000104308128,
        0,
        0.0020000000949949026
      ]
    },
    {
      "bufferView": 9,
      "byteOffset": 12,
      "count": 234,
      "componentType": 5126,
      "type": "VEC3"
    },
    {
      "bufferView": 10,
      "byteOffset": 0,
      "count": 234,
      "componentType": 5126,
      "type": "VEC3",
      "min": [
        0.00800000037997961,
        0.004000000189989805,
        -0.0020000000949949026
      ],
      "max": [
        0.012000000104308128,
        0.004000000189989805,
        0.0020000000949949026
      ]
    },
    {
      "bufferView": 10,
      "byteOffset": 12,
      "count": 234,
      "componentType": 5126,
      "type": "VEC3"
    },
    {
      "bufferView": 11,
      "byteOffset": 0,
      "count": 96,
      "componentType": 5126,
      "type": "VEC3",
      "min": [
        0.00800000037997961,
        0,
        -0.0020000000949949026
      ],
      "max": [
        0.012000000104308128,
        0.004000000189989805,
        0
      ]
    },
    {
      "bufferView": 11,
      "byteOffset": 12,
      "count": 96,
      "componentType": 5126,
      "type": "VEC3"
    },
    {
      "bufferView": 12,
      "byteOffset": 0,
      "count": 384,
      "componentType": 5126,
      "type": "VEC3",
      "min": [
        -0.0020000000949949026,
        0,
        -0.00000000000000000024492936844908204
      ],
      "max": [
        0.0020000000949949026,
        0.004000000189989805,
        0.0020000000949949026
      ]
    },
    {
      "bufferView": 12,
      "byteOffset": 12,
      "count": 384,
      "componentType": 5126,
      "type": "VEC3"
    },
    {
      "bufferView": 13,
      "byteOffset": 0,
      "count": 234,
      "componentType": 5126,
      "type": "VEC3",
      "min": [
        -0.0020000000949949026,
        0,
        -0.0020000000949949026
      ],
      "max": [
        0.0020000000949949026,
        0,
        0.0020000000949949026
      ]
    },
    {
      "bufferView": 13,
      "byteOffset": 12,
      "count": 234,
      "componentType": 5126,
      "type": "VEC3"
    },
    {
      "bufferView": 14,
      "byteOffset": 0,
      "count": 234,
      "componentType": 5126,
      "type": "VEC3",
      "min": [
        -0.0020000000949949026,
        0.004000000189989805,
        -0.0020000000949949026
      ],
      "max": [
        0.0020000000949949026,
        0.004000000189989805,
        0.0020000000949949026
      ]
    },
    {
      "bufferView": 14,
      "byteOffset": 12,
      "count": 234,
      "componentType": 5126,
      "type": "VEC3"
    },
    {
      "bufferView": 15,
      "byteOffset": 0,
      "count": 96,
      "componentType": 5126,
      "type": "VEC3",
      "min": [
        -0.0020000000949949026,
        0,
        -0.0020000000949949026
      ],
      "max": [
        0.0020000000949949026,
        0.004000000189989805,
        0
      ]
    },
    {
      "bufferView": 15,
      "byteOffset": 12,
      "count": 96,
      "componentType": 5126,
      "type": "VEC3"
    }
  ],
  "asset": {
    "generator": "zoo.dev",
    "version": "2.0"
  },
  "buffers": [
    {
      "byteLength": 91008,
      "uri": "data:application/octet-stream;base64,"
    }
  ],
  "bufferViews": [
    {
      "buffer": 0,
      "byteLength": 9216,
      "byteOffset": 0,
      "byteStride": 24,
      "target": 34962
    },
    {
      "buffer": 0,
      "byteLength": 5616,
      "byteOffset": 9216,
      "byteStride": 24,
      "target": 34962
    },
    {
      "buffer": 0,
      "byteLength": 5616,
      "byteOffset": 14832,
      "byteStride": 24,
      "target": 34962
    },
    {
      "buffer": 0,
      "byteLength": 2304,
      "byteOffset": 20448,
      "byteStride": 24,
      "target": 34962
    },
    {
      "buffer": 0,
      "byteLength": 9216,
      "byteOffset": 22752,
      "byteStride": 24,
      "target": 34962
    },
    {
      "buffer": 0,
      "byteLength": 5616,
      "byteOffset": 31968,
      "byteStride": 24,
      "target": 34962
    },
    {
      "buffer": 0,
      "byteLength": 5616,
      "byteOffset": 37584,
      "byteStride": 24,
      "target": 34962
    },
    {
      "buffer": 0,
      "byteLength": 2304,
      "byteOffset": 43200,
      "byteStride": 24,
      "target": 34962
    },
    {
      "buffer": 0,
      "byteLength": 9216,
      "byteOffset": 45504,
      "byteStride": 24,
      "target": 34962
    },
    {
      "buffer": 0,
      "byteLength": 5616,
      "byteOffset": 54720,
      "byteStride": 24,
      "target": 34962
    },
    {
      "buffer": 0,
      "byteLength": 5616,
      "byteOffset": 60336,
      "byteStride": 24,
      "target": 34962
    },
    {
      "buffer": 0,
      "byteLength": 2304,
      "byteOffset": 65952,
      "byteStride": 24,
      "target": 34962
    },
    {
      "buffer": 0,
      "byteLength": 9216,
      "byteOffset": 68256,
      "byteStride": 24,
      "target": 34962
    },
    {
      "buffer": 0,
      "byteLength": 5616,
      "byteOffset": 77472,
      "byteStride": 24,
      "target": 34962
    },
    {
      "buffer": 0,
      "byteLength": 5616,
      "byteOffset": 83088,
      "byteStride": 24,
      "target": 34962
    },
    {
      "buffer": 0,
      "byteLength": 2304,
      "byteOffset": 88704,
      "byteStride": 24,
      "target": 34962
    }
  ],
  "scene": 0,
  "extensions": {
    "KITTYCAD_boundary_representation": {
      "solids": [
        {
          "shells": [
            [
              0,
              1
            ]
          ],
          "mesh": 0,
          "extras": {
            "KITTYCAD": {
              "material": 0
            }
          }
        },
        {
          "shells": [
            [
              1,
              1
            ]
          ],
          "mesh": 1,
          "extras": {
            "KITTYCAD": {
              "material": 1
            }
          }
        },
        {
          "shells": [
            [
              2,
              1
            ]
          ],
          "mesh": 2,
          "extras": {
            "KITTYCAD": {
              "material": 2
            }
          }
        },
        {
          "shells": [
            [
              3,
              1
            ]
          ],
          "mesh": 3,
          "extras": {
            "KITTYCAD": {
              "material": 3
            }
          }
        }
      ],
      "shells": [
        {
          "faces": [
            [
              0,
              1
            ],
            [
              1,
              1
            ],
            [
              2,
              1
            ],
            [
              3,
              1
            ]
          ]
        },
        {
          "faces": [
            [
              4,
              1
            ],
            [
              5,
              1
            ],
            [
              6,
              1
            ],
            [
              7,
              1
            ]
          ]
        },
        {
          "faces": [
            [
              8,
              1
            ],
            [
              9,
              1
            ],
            [
              10,
              1
            ],
            [
              11,
              1
            ]
          ]
        },
        {
          "faces": [
            [
              12,
              1
            ],
            [
              13,
              1
            ],
            [
              14,
              1
            ],
            [
              15,
              1
            ]
          ]
        }
      ],
      "faces": [
        {
          "surface": [
            0,
            1
          ],
          "loops": [
            [
              0,
              1
            ]
          ]
        },
        {
          "surface": [
            1,
            -1
          ],
          "loops": [
            [
              1,
              1
            ]
          ]
        },
        {
          "surface": [
            2,
            1
          ],
          "loops": [
            [
              2,
              1
            ]
          ]
        },
        {
          "surface": [
            0,
            1
          ],
          "loops": [
            [
              3,
              1
            ]
          ]
        },
        {
          "surface": [
            3,
            1
          ],
          "loops": [
            [
              4,
              1
            ]
          ]
        },
        {
          "surface": [
            4,
            -1
          ],
          "loops": [
            [
              5,
              1
            ]
          ]
        },
        {
          "surface": [
            5,
            1
          ],
          "loops": [
            [
              6,
              1
            ]
          ]
        },
        {
          "surface": [
            3,
            1
          ],
          "loops": [
            [
              7,
              1
            ]
          ]
        },
        {
          "surface": [
            6,
            1
          ],
          "loops": [
            [
              8,
              1
            ]
          ]
        },
        {
          "surface": [
            7,
            -1
          ],
          "loops": [
            [
              9,
              1
            ]
          ]
        },
        {
          "surface": [
            8,
            1
          ],
          "loops": [
            [
              10,
              1
            ]
          ]
        },
        {
          "surface": [
            6,
            1
          ],
          "loops": [
            [
              11,
              1
            ]
          ]
        },
        {
          "surface": [
            9,
            1
          ],
          "loops": [
            [
              12,
              1
            ]
          ]
        },
        {
          "surface": [
            10,
            -1
          ],
          "loops": [
            [
              13,
              1
            ]
          ]
        },
        {
          "surface": [
            11,
            1
          ],
          "loops": [
            [
              14,
              1
            ]
          ]
        },
        {
          "surface": [
            9,
            1
          ],
          "loops": [
            [
              15,
              1
            ]
          ]
        }
      ],
      "loops": [
        {
          "edges": [
            [
              0,
              1
            ],
            [
              1,
              1
            ],
            [
              2,
              -1
            ],
            [
              3,
              -1
            ]
          ]
        },
        {
          "edges": [
            [
              1,
              -1
            ],
            [
              4,
              -1
            ]
          ]
        },
        {
          "edges": [
            [
              5,
              1
            ],
            [
              3,
              1
            ]
          ]
        },
        {
          "edges": [
            [
              0,
              -1
            ],
            [
              5,
              -1
            ],
            [
              2,
              1
            ],
            [
              4,
              1
            ]
          ]
        },
        {
          "edges": [
            [
              6,
              1
            ],
            [
              7,
              1
            ],
            [
              8,
              -1
            ],
            [
              9,
              -1
            ]
          ]
        },
        {
          "edges": [
            [
              7,
              -1
            ],
            [
              10,
              -1
            ]
          ]
        },
        {
          "edges": [
            [
              11,
              1
            ],
            [
              9,
              1
            ]
          ]
        },
        {
          "edges": [
            [
              6,
              -1
            ],
            [
              11,
              -1
            ],
            [
              8,
              1
            ],
            [
              10,
              1
            ]
          ]
        },
        {
          "edges": [
            [
              12,
              1
            ],
            [
              13,
              1
            ],
            [
              14,
              -1
            ],
            [
              15,
              -1
            ]
          ]
        },
        {
          "edges": [
            [
              13,
              -1
            ],
            [
              16,
              -1
            ]
          ]
        },
        {
          "edges": [
            [
              17,
              1
            ],
            [
              15,
              1
            ]
          ]
        },
        {
          "edges": [
            [
              12,
              -1
            ],
            [
              17,
              -1
            ],
            [
              14,
              1
            ],
            [
              16,
              1
            ]
          ]
        },
        {
          "edges": [
            [
              18,
              1
            ],
            [
              19,
              1
            ],
            [
              20,
              -1
            ],
            [
              21,
              -1
            ]
          ]
        },
        {
          "edges": [
            [
              19,
              -1
            ],
            [
              22,
              -1
            ]
          ]
        },
        {
          "edges": [
            [
              23,
              1
            ],
            [
              21,
              1
            ]
          ]
        },
        {
          "edges": [
            [
              18,
              -1
            ],
            [
              23,
              -1
            ],
            [
              20,
              1
            ],
            [
              22,
              1
            ]
          ]
        }
      ],
      "edges": [
        {
          "curve": [
            0,
            -1
          ],
          "start": 0,
          "end": 1,
          "t": [
            -0.002,
            0.002
          ]
        },
        {
          "curve": [
            1,
            1
          ],
          "start": 1,
          "end": 2,
          "t": [
            3.141592653589793,
            6.283185307179586
          ]
        },
        {
          "curve": [
            2,
            -1
          ],
          "start": 3,
          "end": 2,
          "t": [
            -0.002,
            0.002
          ]
        },
        {
          "curve": [
            3,
            1
          ],
          "start": 0,
          "end": 3,
          "t": [
            3.141592653589793,
            6.283185307179586
          ]
        },
        {
          "curve": [
            1,
            1
          ],
          "start": 2,
          "end": 1,
          "t": [
            0,
            3.141592653589793
          ]
        },
        {
          "curve": [
            3,
            1
          ],
          "start": 3,
          "end": 0,
          "t": [
            0,
            3.141592653589793
          ]
        },
        {
          "curve": [
            4,
            -1
          ],
          "start": 4,
          "end": 5,
          "t": [
            -0.002,
            0.002
          ]
        },
        {
          "curve": [
            5,
            1
          ],
          "start": 5,
          "end": 6,
          "t": [
            3.141592653589793,
            6.283185307179586
          ]
        },
        {
          "curve": [
            6,
            -1
          ],
          "start": 7,
          "end": 6,
          "t": [
            -0.002,
            0.002
          ]
        },
        {
          "curve": [
            7,
            1
          ],
          "start": 4,
          "end": 7,
          "t": [
            3.141592653589793,
            6.283185307179586
          ]
        },
        {
          "curve": [
            5,
            1
          ],
          "start": 6,
          "end": 5,
          "t": [
            0,
            3.141592653589793
          ]
        },
        {
          "curve": [
            7,
            1
          ],
          "start": 7,
          "end": 4,
          "t": [
            0,
            3.141592653589793
          ]
        },
        {
          "curve": [
            8,
            -1
          ],
          "start": 8,
          "end": 9,
          "t": [
            -0.002,
            0.002
          ]
        },
        {
          "curve": [
            9,
            1
          ],
          "start": 9,
          "end": 10,
          "t": [
            3.141592653589793,
            6.283185307179586
          ]
        },
        {
          "curve": [
            10,
            -1
          ],
          "start": 11,
          "end": 10,
          "t": [
            -0.002,
            0.002
          ]
        },
        {
          "curve": [
            11,
            1
          ],
          "start": 8,
          "end": 11,
          "t": [
            3.141592653589793,
            6.283185307179586
          ]
        },
        {
          "curve": [
            9,
            1
          ],
          "start": 10,
          "end": 9,
          "t": [
            0,
            3.141592653589793
          ]
        },
        {
          "curve": [
            11,
            1
          ],
          "start": 11,
          "end": 8,
          "t": [
            0,
            3.141592653589793
          ]
        },
        {
          "curve": [
            12,
            -1
          ],
          "start": 12,
          "end": 13,
          "t": [
            -0.002,
            0.002
          ]
        },
        {
          "curve": [
            13,
            1
          ],
          "start": 13,
          "end": 14,
          "t": [
            3.141592653589793,
            6.283185307179586
          ]
        },
        {
          "curve": [
            14,
            -1
          ],
          "start": 15,
          "end": 14,
          "t": [
            -0.002,
            0.002
          ]
        },
        {
          "curve": [
            15,
            1
          ],
          "start": 12,
          "end": 15,
          "t": [
            3.141592653589793,
            6.283185307179586
          ]
        },
        {
          "curve": [
            13,
            1
          ],
          "start": 14,
          "end": 13,
          "t": [
            0,
            3.141592653589793
          ]
        },
        {
          "curve": [
            15,
            1
          ],
          "start": 15,
          "end": 12,
          "t": [
            0,
            3.141592653589793
          ]
        }
      ],
      "vertices": [
        [
          0.027999999999999997,
          0.004,
          -0.00000000000000000024492935982947063
        ],
        [
          0.027999999999999997,
          0,
          -0.00000000000000000024492935982947063
        ],
        [
          0.032,
          0,
          0
        ],
        [
          0.032,
          0.004,
          0
        ],
        [
          0.018000000000000002,
          0.004,
          -0.00000000000000000024492935982947063
        ],
        [
          0.018000000000000002,
          0,
          -0.00000000000000000024492935982947063
        ],
        [
          0.022,
          0,
          0
        ],
        [
          0.022,
          0.004,
          0
        ],
        [
          0.008,
          0.004,
          -0.00000000000000000024492935982947063
        ],
        [
          0.008,
          0,
          -0.00000000000000000024492935982947063
        ],
        [
          0.012,
          0,
          0
        ],
        [
          0.012,
          0.004,
          0
        ],
        [
          -0.002,
          0.004,
          -0.00000000000000000024492935982947063
        ],
        [
          -0.002,
          0,
          -0.00000000000000000024492935982947063
        ],
        [
          0.002,
          0,
          0
        ],
        [
          0.002,
          0.004,
          0
        ]
      ],
      "surfaces": [
        {
          "type": "cylinder",
          "cylinder": {
            "xAxis": [
              1,
              0,
              0
            ],
            "yAxis": [
              0,
              0,
              -1
            ],
            "origin": [
              0.03,
              0.002,
              0
            ],
            "radius": 0.002
          }
        },
        {
          "type": "plane",
          "plane": {
            "xAxis": [
              1,
              0,
              0
            ],
            "yAxis": [
              0,
              0,
              -1
            ],
            "origin": [
              0.03,
              0,
              -0
            ]
          }
        },
        {
          "type": "plane",
          "plane": {
            "xAxis": [
              1,
              0,
              0
            ],
            "yAxis": [
              0,
              0,
              -1
            ],
            "origin": [
              0.03,
              0.004,
              -0
            ]
          }
        },
        {
          "type": "cylinder",
          "cylinder": {
            "xAxis": [
              1,
              0,
              0
            ],
            "yAxis": [
              0,
              0,
              -1
            ],
            "origin": [
              0.02,
              0.002,
              0
            ],
            "radius": 0.002
          }
        },
        {
          "type": "plane",
          "plane": {
            "xAxis": [
              1,
              0,
              0
            ],
            "yAxis": [
              0,
              0,
              -1
            ],
            "origin": [
              0.02,
              0,
              -0
            ]
          }
        },
        {
          "type": "plane",
          "plane": {
            "xAxis": [
              1,
              0,
              0
            ],
            "yAxis": [
              0,
              0,
              -1
            ],
            "origin": [
              0.02,
              0.004,
              -0
            ]
          }
        },
        {
          "type": "cylinder",
          "cylinder": {
            "xAxis": [
              1,
              0,
              -0
            ],
            "yAxis": [
              -0,
              0,
              -1
            ],
            "origin": [
              0.01,
              0.002,
              0
            ],
            "radius": 0.002
          }
        },
        {
          "type": "plane",
          "plane": {
            "xAxis": [
              1,
              0,
              0
            ],
            "yAxis": [
              0,
              0,
              -1
            ],
            "origin": [
              0.01,
              0,
              -0
            ]
          }
        },
        {
          "type": "plane",
          "plane": {
            "xAxis": [
              1,
              0,
              0
            ],
            "yAxis": [
              0,
              0,
              -1
            ],
            "origin": [
              0.01,
              0.004,
              -0
            ]
          }
        },
        {
          "type": "cylinder",
          "cylinder": {
            "xAxis": [
              1,
              0,
              0
            ],
            "yAxis": [
              0,
              0,
              -1
            ],
            "origin": [
              0,
              0.002,
              0
            ],
            "radius": 0.002
          }
        },
        {
          "type": "plane",
          "plane": {
            "xAxis": [
              1,
              0,
              0
            ],
            "yAxis": [
              0,
              0,
              -1
            ],
            "origin": [
              0,
              0,
              -0
            ]
          }
        },
        {
          "type": "plane",
          "plane": {
            "xAxis": [
              1,
              0,
              0
            ],
            "yAxis": [
              0,
              0,
              -1
            ],
            "origin": [
              0,
              0.004,
              -0
            ]
          }
        }
      ],
      "curves3D": [
        {
          "type": "line",
          "line": {
            "origin": [
              0.027999999999999997,
              0.002,
              -0.00000000000000000024492935982947063
            ],
            "direction": [
              0,
              1,
              0
            ]
          }
        },
        {
          "type": "circle",
          "circle": {
            "xAxis": [
              1,
              0,
              0
            ],
            "yAxis": [
              0,
              0,
              -1
            ],
            "origin": [
              0.03,
              0,
              0
            ],
            "radius": 0.002
          }
        },
        {
          "type": "line",
          "line": {
            "origin": [
              0.032,
              0.002,
              0
            ],
            "direction": [
              0,
              1,
              0
            ]
          }
        },
        {
          "type": "circle",
          "circle": {
            "xAxis": [
              1,
              0,
              0
            ],
            "yAxis": [
              0,
              0,
              -1
            ],
            "origin": [
              0.03,
              0.004,
              0
            ],
            "radius": 0.002
          }
        },
        {
          "type": "line",
          "line": {
            "origin": [
              0.018000000000000002,
              0.002,
              -0.00000000000000000024492935982947063
            ],
            "direction": [
              0,
              1,
              0
            ]
          }
        },
        {
          "type": "circle",
          "circle": {
            "xAxis": [
              1,
              0,
              0
            ],
            "yAxis": [
              0,
              0,
              -1
            ],
            "origin": [
              0.02,
              0,
              0
            ],
            "radius": 0.002
          }
        },
        {
          "type": "line",
          "line": {
            "origin": [
              0.022,
              0.002,
              0
            ],
            "direction": [
              0,
              1,
              0
            ]
          }
        },
        {
          "type": "circle",
          "circle": {
            "xAxis": [
              1,
              0,
              0
            ],
            "yAxis": [
              0,
              0,
              -1
            ],
            "origin": [
              0.02,
              0.004,
              0
            ],
            "radius": 0.002
          }
        },
        {
          "type": "line",
          "line": {
            "origin": [
              0.008,
              0.002,
              -0.00000000000000000024492935982947063
            ],
            "direction": [
              0,
              1,
              0
            ]
          }
        },
        {
          "type": "circle",
          "circle": {
            "xAxis": [
              1,
              0,
              0
            ],
            "yAxis": [
              0,
              0,
              -1
            ],
            "origin": [
              0.01,
              0,
              0
            ],
            "radius": 0.002
          }
        },
        {
          "type": "line",
          "line": {
            "origin": [
              0.012,
              0.002,
              0
            ],
            "direction": [
              0,
              1,
              0
            ]
          }
        },
        {
          "type": "circle",
          "circle": {
            "xAxis": [
              1,
              0,
              0
            ],
            "yAxis": [
              0,
              0,
              -1
            ],
            "origin": [
              0.01,
              0.004,
              0
            ],
            "radius": 0.002
          }
        },
        {
          "type": "line",
          "line": {
            "origin": [
              -0.002,
              0.002,
              -0.00000000000000000024492935982947063
            ],
            "direction": [
              0,
              1,
              0
            ]
          }
        },
        {
          "type": "circle",
          "circle": {
            "xAxis": [
              1,
              0,
              0
            ],
            "yAxis": [
              0,
              0,
              -1
            ],
            "origin": [
              0,
              0,
              0
            ],
            "radius": 0.002
          }
        },
        {
          "type": "line",
          "line": {
            "origin": [
              0.002,
              0.002,
              0
            ],
            "direction": [
              0,
              1,
              0
            ]
          }
        },
        {
          "type": "circle",
          "circle": {
            "xAxis": [
              1,
              0,
              0
            ],
            "yAxis": [
              0,
              0,
              -1
            ],
            "origin": [
              0,
              0.004,
              0
            ],
            "radius": 0.002
          }
        }
      ]
    }
  },
  "extensionsUsed": [
    "KITTYCAD_boundary_representation"
  ],
  "materials": [
    {
      "alphaMode": "OPAQUE",
      "doubleSided": false,
      "pbrMetallicRoughness": {
        "baseColorFactor": [
          0.9,
          0.9,
          0.9,
          1
        ],
        "metallicFactor": 1,
        "roughnessFactor": 1
      },
      "emissiveFactor": [
        0,
        0,
        0
      ]
    },
    {
      "alphaMode": "OPAQUE",
      "doubleSided": false,
      "pbrMetallicRoughness": {
        "baseColorFactor": [
          0.9,
          0.9,
          0.9,
          1
        ],
        "metallicFactor": 1,
        "roughnessFactor": 1
      },
      "emissiveFactor": [
        0,
        0,
        0
      ]
    },
    {
      "alphaMode": "OPAQUE",
      "doubleSided": false,
      "pbrMetallicRoughness": {
        "baseColorFactor": [
          0.9,
          0.9,
          0.9,
          1
        ],
        "metallicFactor": 1,
        "roughnessFactor": 1
      },
      "emissiveFactor": [
        0,
        0,
        0
      ]
    },
    {
      "alphaMode": "OPAQUE",
      "doubleSided": false,
      "pbrMetallicRoughness": {
        "baseColorFactor": [
          0.9,
          0.9,
          0.9,
          1
        ],
        "metallicFactor": 1,
        "roughnessFactor": 1
      },
      "emissiveFactor": [
        0,
        0,
        0
      ]
    }
  ],
  "meshes": [
    {
      "primitives": [
        {
          "attributes": {
            "POSITION": 0,
            "NORMAL": 1
          },
          "material": 0
        },
        {
          "attributes": {
            "POSITION": 2,
            "NORMAL": 3
          },
          "material": 0
        },
        {
          "attributes": {
            "POSITION": 4,
            "NORMAL": 5
          },
          "material": 0
        },
        {
          "attributes": {
            "POSITION": 6,
            "NORMAL": 7
          },
          "material": 0
        }
      ]
    },
    {
      "primitives": [
        {
          "attributes": {
            "POSITION": 8,
            "NORMAL": 9
          },
          "material": 1
        },
        {
          "attributes": {
            "POSITION": 10,
            "NORMAL": 11
          },
          "material": 1
        },
        {
          "attributes": {
            "POSITION": 12,
            "NORMAL": 13
          },
          "material": 1
        },
        {
          "attributes": {
            "POSITION": 14,
            "NORMAL": 15
          },
          "material": 1
        }
      ]
    },
    {
      "primitives": [
        {
          "attributes": {
            "POSITION": 16,
            "NORMAL": 17
          },
          "material": 2
        },
        {
          "attributes": {
            "POSITION": 18,
            "NORMAL": 19
          },
          "material": 2
        },
        {
          "attributes": {
            "POSITION": 20,
            "NORMAL": 21
          },
          "material": 2
        },
        {
          "attributes": {
            "POSITION": 22,
            "NORMAL": 23
          },
          "material": 2
        }
      ]
    },
    {
      "primitives": [
        {
          "attributes": {
            "POSITION": 24,
            "NORMAL": 25
          },
          "material": 3
        },
        {
          "attributes": {
            "POSITION": 26,
            "NORMAL": 27
          },
          "material": 3
        },
        {
          "attributes": {
            "POSITION": 28,
            "NORMAL": 29
          },
          "material": 3
        },
        {
          "attributes": {
            "POSITION": 30,
            "NORMAL": 31
          },
          "material": 3
        }
      ]
    }
  ],
  "nodes": [
    {
      "children": [
        1
      ]
    },
    {
      "children": [
        2,
        3,
        4,
        5
      ]
    },
    {
      "extensions": {
        "KITTYCAD_boundary_representation": {
          "solid": 0
        }
      },
      "mesh": 0
    },
    {
      "extensions": {
        "KITTYCAD_boundary_representation": {
          "solid": 1
        }
      },
      "mesh": 1
    },
    {
      "extensions": {
        "KITTYCAD_boundary_representation": {
          "solid": 2
        }
      },
      "mesh": 2
    },
    {
      "extensions": {
        "KITTYCAD_boundary_representation": {
          "solid": 3
        }
      },
      "mesh": 3
    }
  ],
  "scenes": [
    {
      "nodes": [
        0
      ]
    }
  ]
}