{
  "accessors": [
    {
      "bufferView": 0,
      "byteOffset": 0,
      "count": 6,
      "componentType": 5126,
      "type": "VEC3",
      "min": [
        0,
        0,
        -0
      ],
      "max": [
        0.019999999552965164,
        0.009999999776482582,
        -0
      ]
    },
    {
      "bufferView": 0,
      "byteOffset": 12,
      "count": 6,
      "componentType": 5126,
      "type": "VEC3"
    }
  ],
  "asset": {
    "generator": "zoo.dev",
    "version": "2.0"
  },
  "buffers": [
    {
      "byteLength": 144,
      "uri": "data:application/octet-stream;base64,"
    }
  ],
  "bufferViews": [
    {
      "buffer": 0,
      "byteLength": 144,
      "byteOffset": 0,
      "byteStride": 24,
      "target": 34962
    }
  ],
  "scene": 0,
  "extensions": {
    "KITTYCAD_boundary_representation": {
      "solids": [
        {
          "shells": [
            [
              0,
              1
            ]
          ],
          "mesh": 0,
          "extras": {
            "KITTYCAD": {
              "material": 0
            }
          }
        }
      ],
      "shells": [
        {
          "faces": [
            [
              0,
              1
            ]
          ]
        }
      ],
      "faces": [
        {
          "surface": [
            0,
            1
          ],
          "loops": [
            [
              0,
              1
            ]
          ]
        }
      ],
      "loops": [
        {
          "edges": [
            [
              0,
              1
            ],
            [
              1,
              1
            ],
            [
              2,
              1
            ],
            [
              3,
              1
            ]
          ]
        }
      ],
      "edges": [
        {
          "curve": [
            0,
            1
          ],
          "start": 0,
          "end": 1,
          "t": [
            0,
            0.02
          ]
        },
        {
          "curve": [
            1,
            1
          ],
          "start": 1,
          "end": 2,
          "t": [
            0,
            0.01
          ]
        },
        {
          "curve": [
            2,
            1
          ],
          "start": 2,
          "end": 3,
          "t": [
            0,
            0.02
          ]
        },
        {
          "curve": [
            3,
            1
          ],
          "start": 3,
          "end": 0,
          "t": [
            0,
            0.01
          ]
        }
      ],
      "vertices": [
        [
          0,
          0,
          -0
        ],
        [
          0.02,
          0,
          -0
        ],
        [
          0.02,
          0.01,
          -0
        ],
        [
          0,
          0.01,
          -0
        ]
      ],
      "surfaces": [
        {
          "type": "plane",
          "plane": {
            "xAxis": [
              1,
              0,
              -0
            ],
            "yAxis": [
              -0,
              1,
              0
            ],
            "origin": [
              0.01,
              0.005,
              -0
            ]
          }
        }
      ],
      "curves3D": [
        {
          "type": "line",
          "line": {
            "origin": [
              0,
              0,
              -0
            ],
            "direction": [
              1,
              0,
              -0
            ]
          }
        },
        {
          "type": "line",
          "line": {
            "origin": [
              0.02,
              0,
              -0
            ],
            "direction": [
              0,
              1,
              0
            ]
          }
        },
        {
          "type": "line",
          "line": {
            "origin": [
              0.02,
              0.01,
              -0
            ],
            "direction": [
              -1,
              0,
              0
            ]
          }
        },
        {
          "type": "line",
          "line": {
            "origin": [
              0,
              0.01,
              -0
            ],
            "direction": [
              0,
              -1,
              0
            ]
          }
        }
      ]
    }
  },
  "extensionsUsed": [
    "KITTYCAD_boundary_representation"
  ],
  "materials": [
    {
      "alphaMode": "OPAQUE",
      "doubleSided": false,
      "pbrMetallicRoughness": {
        "baseColorFactor": [
          0.9,
          0.9,
          0.9,
          1
        ],
        "metallicFactor": 1,
        "roughnessFactor": 1
      },
      "emissiveFactor": [
        0,
        0,
        0
      ]
    }
  ],
  "meshes": [
    {
      "primitives": [
        {
          "attributes": {
            "POSITION": 0,
            "NORMAL": 1
          },
          "material": 0
        }
      ]
    }
  ],
  "nodes": [
    {
      "children": [
        1
      ]
    },
    {
      "children": [
        2
      ]
    },
    {
      "extensions": {
        "KITTYCAD_boundary_representation": {
          "solid": 0
        }
      },
      "mesh": 0
    }
  ],
  "scenes": [
    {
      "nodes": [
        0
      ]
    }
  ]
}