{
  "accessors": [
    {
      "bufferView": 0,
      "byteOffset": 0,
      "count": 9,
      "componentType": 5126,
      "type": "VEC3",
      "min": [
        -0.0005000000237487257,
        0,
        -0.0005000000237487257
      ],
      "max": [
        0.0005000000237487257,
        0.0010000000474974513,
        -0.0005000000237487257
      ]
    },
    {
      "bufferView": 0,
      "byteOffset": 12,
      "count": 9,
      "componentType": 5126,
      "type": "VEC3"
    },
    {
      "bufferView": 1,
      "byteOffset": 0,
      "count": 6,
      "componentType": 5126,
      "type": "VEC3",
      "min": [
        -0.0005000000237487257,
        0,
        -0.0005000000237487257
      ],
      "max": [
        -0.0005000000237487257,
        0.0010000000474974513,
        0.0005000000237487257
      ]
    },
    {
      "bufferView": 1,
      "byteOffset": 12,
      "count": 6,
      "componentType": 5126,
      "type": "VEC3"
    },
    {
      "bufferView": 2,
      "byteOffset": 0,
      "count": 9,
      "componentType": 5126,
      "type": "VEC3",
      "min": [
        -0.0005000000237487257,
        0,
        0.0005000000237487257
      ],
      "max": [
        0.0005000000237487257,
        0.0010000000474974513,
        0.0005000000237487257
      ]
    },
    {
      "bufferView": 2,
      "byteOffset": 12,
      "count": 9,
      "componentType": 5126,
      "type": "VEC3"
    },
    {
      "bufferView": 3,
      "byteOffset": 0,
      "count": 6,
      "componentType": 5126,
      "type": "VEC3",
      "min": [
        0.0005000000237487257,
        0,
        -0.0005000000237487257
      ],
      "max": [
        0.0005000000237487257,
        0.0007999999797903001,
        0.0005000000237487257
      ]
    },
    {
      "bufferView": 3,
      "byteOffset": 12,
      "count": 6,
      "componentType": 5126,
      "type": "VEC3"
    },
    {
      "bufferView": 4,
      "byteOffset": 0,
      "count": 6,
      "componentType": 5126,
      "type": "VEC3",
      "min": [
        -0.0005000000237487257,
        0,
        -0.0005000000237487257
      ],
      "max": [
        0.0005000000237487257,
        0,
        0.0005000000237487257
      ]
    },
    {
      "bufferView": 4,
      "byteOffset": 12,
      "count": 6,
      "componentType": 5126,
      "type": "VEC3"
    },
    {
      "bufferView": 5,
      "byteOffset": 0,
      "count": 12,
      "componentType": 5126,
      "type": "VEC3",
      "min": [
        -0.0005000000237487257,
        0.0010000000474974513,
        -0.0005000000237487257
      ],
      "max": [
        0.0003000000142492354,
        0.0010000000474974513,
        0.0005000000237487257
      ]
    },
    {
      "bufferView": 5,
      "byteOffset": 12,
      "count": 12,
      "componentType": 5126,
      "type": "VEC3"
    },
    {
      "bufferView": 6,
      "byteOffset": 0,
      "count": 27,
      "componentType": 5126,
      "type": "VEC3",
      "min": [
        0.0003000000142492354,
        0.0007999999797903001,
        -0.0005000000237487257
      ],
      "max": [
        0.0005000000237487257,
        0.0010000000474974513,
        0.0005000000237487257
      ]
    },
    {
      "bufferView": 6,
      "byteOffset": 12,
      "count": 27,
      "componentType": 5126,
      "type": "VEC3"
    },
    {
      "bufferView": 7,
      "byteOffset": 0,
      "count": 6,
      "componentType": 5126,
      "type": "VEC3",
      "min": [
        0.0004166500002611429,
        0.0008550600032322109,
        -0.00026000000070780516
      ],
      "max": [
        0.0007277799886651337,
        0.0011661900207400322,
        0.0003699999942909926
      ]
    },
    {
      "bufferView": 7,
      "byteOffset": 12,
      "count": 6,
      "componentType": 5126,
      "type": "VEC3"
    },
    {
      "bufferView": 8,
      "byteOffset": 0,
      "count": 6,
      "componentType": 5126,
      "type": "VEC3",
      "min": [
        0.00031765998573973775,
        0.0008550600032322109,
        -0.00026000000070780516
      ],
      "max": [
        0.0007277799886651337,
        0.001265179947949946,
        0.00019999999494757503
      ]
    },
    {
      "bufferView": 8,
      "byteOffset": 12,
      "count": 6,
      "componentType": 5126,
      "type": "VEC3"
    },
    {
      "bufferView": 9,
      "byteOffset": 0,
      "count": 6,
      "componentType": 5126,
      "type": "VEC3",
      "min": [
        0.00031765998573973775,
        0.0008833499741740525,
        0.00019999999494757503
      ],
      "max": [
        0.0006994999712333083,
        0.001265179947949946,
        0.0003699999942909926
      ]
    },
    {
      "bufferView": 9,
      "byteOffset": 12,
      "count": 6,
      "componentType": 5126,
      "type": "VEC3"
    },
    {
      "bufferView": 10,
      "byteOffset": 0,
      "count": 3,
      "componentType": 5126,
      "type": "VEC3",
      "min": [
        0.0006004999740980566,
        0.0011379000497981906,
        -0.00026000000070780516
      ],
      "max": [
        0.0007277799886651337,
        0.001265179947949946,
        0.0003699999942909926
      ]
    },
    {
      "bufferView": 10,
      "byteOffset": 12,
      "count": 3,
      "componentType": 5126,
      "type": "VEC3"
    }
  ],
  "asset": {
    "generator": "zoo.dev",
    "version": "2.0"
  },
  "buffers": [
    {
      "byteLength": 2304,
      "uri": "data:application/octet-stream;base64,"
    }
  ],
  "bufferViews": [
    {
      "buffer": 0,
      "byteLength": 216,
      "byteOffset": 0,
      "byteStride": 24,
      "target": 34962
    },
    {
      "buffer": 0,
      "byteLength": 144,
      "byteOffset": 216,
      "byteStride": 24,
      "target": 34962
    },
    {
      "buffer": 0,
      "byteLength": 216,
      "byteOffset": 360,
      "byteStride": 24,
      "target": 34962
    },
    {
      "buffer": 0,
      "byteLength": 144,
      "byteOffset": 576,
      "byteStride": 24,
      "target": 34962
    },
    {
      "buffer": 0,
      "byteLength": 144,
      "byteOffset": 720,
      "byteStride": 24,
      "target": 34962
    },
    {
      "buffer": 0,
      "byteLength": 288,
      "byteOffset": 864,
      "byteStride": 24,
      "target": 34962
    },
    {
      "buffer": 0,
      "byteLength": 648,
      "byteOffset": 1152,
      "byteStride": 24,
      "target": 34962
    },
    {
      "buffer": 0,
      "byteLength": 144,
      "byteOffset": 1800,
      "byteStride": 24,
      "target": 34962
    },
    {
      "buffer": 0,
      "byteLength": 144,
      "byteOffset": 1944,
      "byteStride": 24,
      "target": 34962
    },
    {
      "buffer": 0,
      "byteLength": 144,
      "byteOffset": 2088,
      "byteStride": 24,
      "target": 34962
    },
    {
      "buffer": 0,
      "byteLength": 72,
      "byteOffset": 2232,
      "byteStride": 24,
      "target": 34962
    }
  ],
  "scene": 0,
  "extensions": {
    "KITTYCAD_boundary_representation": {
      "solids": [
        {
          "shells": [
            [
              0,
              1
            ]
          ],
          "mesh": 0,
          "extras": {
            "KITTYCAD": {
              "material": 0
            }
          }
        }
      ],
      "shells": [
        {
          "faces": [
            [
              0,
              1
            ],
            [
              1,
              1
            ],
            [
              2,
              1
            ],
            [
              3,
              1
            ],
            [
              4,
              1
            ],
            [
              5,
              1
            ],
            [
              6,
              1
            ],
            [
              7,
              1
            ],
            [
              8,
              1
            ],
            [
              9,
              1
            ],
            [
              10,
              1
            ]
          ]
        }
      ],
      "faces": [
        {
          "surface": [
            0,
            1
          ],
          "loops": [
            [
              0,
              1
            ]
          ]
        },
        {
          "surface": [
            1,
            1
          ],
          "loops": [
            [
              1,
              1
            ]
          ]
        },
        {
          "surface": [
            2,
            1
          ],
          "loops": [
            [
              2,
              1
            ]
          ]
        },
        {
          "surface": [
            3,
            1
          ],
          "loops": [
            [
              3,
              1
            ]
          ]
        },
        {
          "surface": [
            4,
            -1
          ],
          "loops": [
            [
              4,
              1
            ]
          ]
        },
        {
          "surface": [
            5,
            1
          ],
          "loops": [
            [
              5,
              1
            ]
          ]
        },
        {
          "surface": [
            6,
            1
          ],
          "loops": [
            [
              6,
              1
            ],
            [
              7,
              1
            ]
          ]
        },
        {
          "surface": [
            7,
            1
          ],
          "loops": [
            [
              8,
              1
            ]
          ]
        },
        {
          "surface": [
            8,
            1
          ],
          "loops": [
            [
              9,
              1
            ]
          ]
        },
        {
          "surface": [
            9,
            1
          ],
          "loops": [
            [
              10,
              1
            ]
          ]
        },
        {
          "surface": [
            10,
            1
          ],
          "loops": [
            [
              11,
              1
            ]
          ]
        }
      ],
      "loops": [
        {
          "edges": [
            [
              0,
              1
            ],
            [
              1,
              1
            ],
            [
              2,
              -1
            ],
            [
              3,
              -1
            ],
            [
              4,
              -1
            ]
          ]
        },
        {
          "edges": [
            [
              5,
              1
            ],
            [
              6,
              1
            ],
            [
              7,
              -1
            ],
            [
              1,
              -1
            ]
          ]
        },
        {
          "edges": [
            [
              8,
              1
            ],
            [
              9,
              -1
            ],
            [
              10,
              -1
            ],
            [
              11,
              -1
            ],
            [
              6,
              -1
            ]
          ]
        },
        {
          "edges": [
            [
              12,
              1
            ],
            [
              4,
              1
            ],
            [
              13,
              -1
            ],
            [
              9,
              1
            ]
          ]
        },
        {
          "edges": [
            [
              12,
              -1
            ],
            [
              8,
              -1
            ],
            [
              5,
              -1
            ],
            [
              0,
              -1
            ]
          ]
        },
        {
          "edges": [
            [
              2,
              1
            ],
            [
              7,
              1
            ],
            [
              11,
              1
            ],
            [
              14,
              -1
            ]
          ]
        },
        {
          "edges": [
            [
              13,
              1
            ],
            [
              3,
              1
            ],
            [
              14,
              1
            ],
            [
              10,
              1
            ]
          ]
        },
        {
          "edges": [
            [
              15,
              -1
            ],
            [
              16,
              -1
            ],
            [
              17,
              -1
            ]
          ]
        },
        {
          "edges": [
            [
              17,
              1
            ],
            [
              18,
              1
            ],
            [
              19,
              -1
            ],
            [
              20,
              -1
            ]
          ]
        },
        {
          "edges": [
            [
              16,
              1
            ],
            [
              21,
              1
            ],
            [
              22,
              -1
            ],
            [
              18,
              -1
            ]
          ]
        },
        {
          "edges": [
            [
              15,
              1
            ],
            [
              20,
              1
            ],
            [
              23,
              -1
            ],
            [
              21,
              -1
            ]
          ]
        },
        {
          "edges": [
            [
              19,
              1
            ],
            [
              22,
              1
            ],
            [
              23,
              1
            ]
          ]
        }
      ],
      "edges": [
        {
          "curve": [
            0,
            1
          ],
          "start": 0,
          "end": 1,
          "t": [
            0,
            0.001
          ]
        },
        {
          "curve": [
            1,
            1
          ],
          "start": 1,
          "end": 2,
          "t": [
            0,
            0.001
          ]
        },
        {
          "curve": [
            2,
            1
          ],
          "start": 3,
          "end": 2,
          "t": [
            0,
            0.0007999999999999999
          ]
        },
        {
          "curve": [
            3,
            1
          ],
          "start": 4,
          "end": 3,
          "t": [
            0,
            0.000282842712474619
          ]
        },
        {
          "curve": [
            4,
            1
          ],
          "start": 0,
          "end": 4,
          "t": [
            0,
            0.0008
          ]
        },
        {
          "curve": [
            5,
            1
          ],
          "start": 1,
          "end": 5,
          "t": [
            0,
            0.001
          ]
        },
        {
          "curve": [
            6,
            1
          ],
          "start": 5,
          "end": 6,
          "t": [
            0,
            0.001
          ]
        },
        {
          "curve": [
            7,
            1
          ],
          "start": 2,
          "end": 6,
          "t": [
            0,
            0.001
          ]
        },
        {
          "curve": [
            8,
            1
          ],
          "start": 5,
          "end": 7,
          "t": [
            0,
            0.001
          ]
        },
        {
          "curve": [
            9,
            1
          ],
          "start": 8,
          "end": 7,
          "t": [
            0,
            0.0008
          ]
        },
        {
          "curve": [
            10,
            1
          ],
          "start": 9,
          "end": 8,
          "t": [
            0,
            0.000282842712474619
          ]
        },
        {
          "curve": [
            11,
            1
          ],
          "start": 6,
          "end": 9,
          "t": [
            0,
            0.0007999999999999999
          ]
        },
        {
          "curve": [
            12,
            1
          ],
          "start": 7,
          "end": 0,
          "t": [
            0,
            0.001
          ]
        },
        {
          "curve": [
            13,
            1
          ],
          "start": 8,
          "end": 4,
          "t": [
            0,
            0.001
          ]
        },
        {
          "curve": [
            14,
            1
          ],
          "start": 3,
          "end": 9,
          "t": [
            0,
            0.001
          ]
        },
        {
          "curve": [
            15,
            1
          ],
          "start": 10,
          "end": 11,
          "t": [
            0,
            0.00022022270591380897
          ]
        },
        {
          "curve": [
            16,
            1
          ],
          "start": 12,
          "end": 10,
          "t": [
            0,
            0.0004939639630580352
          ]
        },
        {
          "curve": [
            17,
            1
          ],
          "start": 11,
          "end": 12,
          "t": [
            0,
            0.0006312690774939002
          ]
        },
        {
          "curve": [
            18,
            1
          ],
          "start": 12,
          "end": 13,
          "t": [
            0,
            0.0003999961639816062
          ]
        },
        {
          "curve": [
            19,
            1
          ],
          "start": 14,
          "end": 13,
          "t": [
            0,
            0.0006312686294280747
          ]
        },
        {
          "curve": [
            20,
            1
          ],
          "start": 11,
          "end": 14,
          "t": [
            0,
            0.0004000032351119174
          ]
        },
        {
          "curve": [
            21,
            1
          ],
          "start": 10,
          "end": 15,
          "t": [
            0,
            0.0003999961639816063
          ]
        },
        {
          "curve": [
            22,
            1
          ],
          "start": 13,
          "end": 15,
          "t": [
            0,
            0.0004939639630580353
          ]
        },
        {
          "curve": [
            23,
            1
          ],
          "start": 15,
          "end": 14,
          "t": [
            0,
            0.00022022720109014695
          ]
        }
      ],
      "vertices": [
        [
          0.0005,
          0,
          -0.0005
        ],
        [
          -0.0005,
          0,
          -0.0005
        ],
        [
          -0.0005,
          0.001,
          -0.0005
        ],
        [
          0.0003,
          0.001,
          -0.0005
        ],
        [
          0.0005,
          0.0008,
          -0.0005
        ],
        [
          -0.0005,
          0,
          0.0005
        ],
        [
          -0.0005,
          0.001,
          0.0005
        ],
        [
          0.0005,
          0,
          0.0005
        ],
        [
          0.0005,
          0.0008,
          0.0005
        ],
        [
          0.0003,
          0.001,
          0.0005
        ],
        [
          0.00031766,
          0.00098234,
          0.0002
        ],
        [
          0.00041665,
          0.00088335,
          0.00037
        ],
        [
          0.00044494,
          0.00085506,
          -0.00026
        ],
        [
          0.00072778,
          0.0011379,
          -0.00026
        ],
        [
          0.0006995,
          0.00116619,
          0.00037
        ],
        [
          0.0006005,
          0.00126518,
          0.0002
        ]
      ],
      "surfaces": [
        {
          "type": "plane",
          "plane": {
            "xAxis": [
              1,
              0,
              0
            ],
            "yAxis": [
              0,
              -1,
              0
            ],
            "origin": [
              0,
              0.0005,
              -0.0005
            ]
          }
        },
        {
          "type": "plane",
          "plane": {
            "xAxis": [
              0,
              1,
              0
            ],
            "yAxis": [
              0,
              0,
              -1
            ],
            "origin": [
              -0.0005,
              0.0005,
              -0
            ]
          }
        },
        {
          "type": "plane",
          "plane": {
            "xAxis": [
              1,
              0,
              -0
            ],
            "yAxis": [
              -0,
              1,
              0
            ],
            "origin": [
              0,
              0.0005,
              0.0005
            ]
          }
        },
        {
          "type": "plane",
          "plane": {
            "xAxis": [
              -0,
              1,
              0
            ],
            "yAxis": [
              0,
              -0,
              1
            ],
            "origin": [
              0.0005,
              0.0005,
              -0
            ]
          }
        },
        {
          "type": "plane",
          "plane": {
            "xAxis": [
              1,
              0,
              0
            ],
            "yAxis": [
              0,
              0,
              -1
            ],
            "origin": [
              0,
              0,
              -0
            ]
          }
        },
        {
          "type": "plane",
          "plane": {
            "xAxis": [
              1,
              0,
              0
            ],
            "yAxis": [
              0,
              0,
              -1
            ],
            "origin": [
              0,
              0.001,
              -0
            ]
          }
        },
        {
          "type": "plane",
          "plane": {
            "xAxis": [
              0.7071067811865476,
              -0.7071067811865476,
              0
            ],
            "yAxis": [
              0,
              0,
              -1
            ],
            "origin": [
              0.00009645,
              0.00120355,
              -0.00025
            ]
          }
        },
        {
          "type": "plane",
          "plane": {
            "xAxis": [
              0.7085248958299268,
              0.7028581139775912,
              -0.06311056650874701
            ],
            "yAxis": [
              0.0000000000000000069388939039072276,
              0.08943153597401712,
              0.9959929720501688
            ],
            "origin": [
              0.00057222,
              0.00101062,
              0.000055
            ]
          }
        },
        {
          "type": "plane",
          "plane": {
            "xAxis": [
              0.7525911531845454,
              0.5761515456480926,
              -0.3188353063819473
            ],
            "yAxis": [
              0,
              -0.4841929783660208,
              -0.8749612332561039
            ],
            "origin": [
              0.00052272,
              0.00106012,
              -0.00003
            ]
          }
        },
        {
          "type": "plane",
          "plane": {
            "xAxis": [
              0.837891315411878,
              0.3555808946544538,
              0.4141260326447626
            ],
            "yAxis": [
              0.000000000000000027755575615628914,
              0.758698941477702,
              -0.6514414142504409
            ],
            "origin": [
              0.00050858,
              0.00107426,
              0.000285
            ]
          }
        },
        {
          "type": "plane",
          "plane": {
            "xAxis": [
              0.7071067811865476,
              -0.7071067811865476,
              0
            ],
            "yAxis": [
              0,
              0,
              -1
            ],
            "origin": [
              0.00093284,
              0.00093284,
              -0
            ]
          }
        }
      ],
      "curves3D": [
        {
          "type": "line",
          "line": {
            "origin": [
              0.0005,
              0,
              -0.0005
            ],
            "direction": [
              -1,
              0,
              0
            ]
          }
        },
        {
          "type": "line",
          "line": {
            "origin": [
              -0.0005,
              0,
              -0.0005
            ],
            "direction": [
              0,
              1,
              0
            ]
          }
        },
        {
          "type": "line",
          "line": {
            "origin": [
              0.0003,
              0.001,
              -0.0005
            ],
            "direction": [
              -1,
              0,
              0
            ]
          }
        },
        {
          "type": "line",
          "line": {
            "origin": [
              0.0005,
              0.0008,
              -0.0005
            ],
            "direction": [
              -0.7071067811865477,
              0.7071067811865475,
              0
            ]
          }
        },
        {
          "type": "line",
          "line": {
            "origin": [
              0.0005,
              0,
              -0.0005
            ],
            "direction": [
              0,
              1,
              0
            ]
          }
        },
        {
          "type": "line",
          "line": {
            "origin": [
              -0.0005,
              0,
              -0.0005
            ],
            "direction": [
              0,
              0,
              1
            ]
          }
        },
        {
          "type": "line",
          "line": {
            "origin": [
              -0.0005,
              0,
              0.0005
            ],
            "direction": [
              0,
              1,
              0
            ]
          }
        },
        {
          "type": "line",
          "line": {
            "origin": [
              -0.0005,
              0.001,
              -0.0005
            ],
            "direction": [
              0,
              0,
              1
            ]
          }
        },
        {
          "type": "line",
          "line": {
            "origin": [
              -0.0005,
              0,
              0.0005
            ],
            "direction": [
              1,
              0,
              -0
            ]
          }
        },
        {
          "type": "line",
          "line": {
            "origin": [
              0.0005,
              0.0008,
              0.0005
            ],
            "direction": [
              0,
              -1,
              0
            ]
          }
        },
        {
          "type": "line",
          "line": {
            "origin": [
              0.0003,
              0.001,
              0.0005
            ],
            "direction": [
              0.7071067811865477,
              -0.7071067811865475,
              0
            ]
          }
        },
        {
          "type": "line",
          "line": {
            "origin": [
              -0.0005,
              0.001,
              0.0005
            ],
            "direction": [
              1,
              0,
              -0
            ]
          }
        },
        {
          "type": "line",
          "line": {
            "origin": [
              0.0005,
              0,
              0.0005
            ],
            "direction": [
              0,
              0,
              -1
            ]
          }
        },
        {
          "type": "line",
          "line": {
            "origin": [
              0.0005,
              0.0008,
              0.0005
            ],
            "direction": [
              0,
              0,
              -1
            ]
          }
        },
        {
          "type": "line",
          "line": {
            "origin": [
              0.0003,
              0.001,
              -0.0005
            ],
            "direction": [
              0,
              0,
              1
            ]
          }
        },
        {
          "type": "line",
          "line": {
            "origin": [
              0.00031766,
              0.00098234,
              0.0002
            ],
            "direction": [
              0.4494995172693175,
              -0.44949951726931736,
              0.771945832263703
            ]
          }
        },
        {
          "type": "line",
          "line": {
            "origin": [
              0.00044494,
              0.00085506,
              -0.00026
            ],
            "direction": [
              -0.2576706187472345,
              0.2576706187472343,
              0.9312420224994332
            ]
          }
        },
        {
          "type": "line",
          "line": {
            "origin": [
              0.00041665,
              0.00088335,
              0.00037
            ],
            "direction": [
              0.04481448721092052,
              -0.04481448721092043,
              -0.997989640964296
            ]
          }
        },
        {
          "type": "line",
          "line": {
            "origin": [
              0.00044494,
              0.00085506,
              -0.00026
            ],
            "direction": [
              0.7071067811865476,
              0.7071067811865476,
              0
            ]
          }
        },
        {
          "type": "line",
          "line": {
            "origin": [
              0.0006995,
              0.00116619,
              0.00037
            ],
            "direction": [
              0.044798677902973726,
              -0.04481451901962938,
              -0.997990349323672
            ]
          }
        },
        {
          "type": "line",
          "line": {
            "origin": [
              0.00041665,
              0.00088335,
              0.00037
            ],
            "direction": [
              0.7071192809749677,
              0.7070942811771602,
              0
            ]
          }
        },
        {
          "type": "line",
          "line": {
            "origin": [
              0.00031766,
              0.00098234,
              0.0002
            ],
            "direction": [
              0.7071067811865475,
              0.7071067811865477,
              0
            ]
          }
        },
        {
          "type": "line",
          "line": {
            "origin": [
              0.00072778,
              0.0011379,
              -0.00026
            ],
            "direction": [
              -0.2576706187472345,
              0.2576706187472345,
              0.9312420224994332
            ]
          }
        },
        {
          "type": "line",
          "line": {
            "origin": [
              0.0006005,
              0.00126518,
              0.0002
            ],
            "direction": [
              0.449535749943422,
              -0.44949034229191337,
              0.7719300756604213
            ]
          }
        }
      ]
    }
  },
  "extensionsUsed": [
    "KITTYCAD_boundary_representation"
  ],
  "materials": [
    {
      "alphaMode": "OPAQUE",
      "doubleSided": false,
      "pbrMetallicRoughness": {
        "baseColorFactor": [
          0.9,
          0.9,
          0.9,
          1
        ],
        "metallicFactor": 1,
        "roughnessFactor": 1
      },
      "emissiveFactor": [
        0,
        0,
        0
      ]
    }
  ],
  "meshes": [
    {
      "primitives": [
        {
          "attributes": {
            "POSITION": 0,
            "NORMAL": 1
          },
          "material": 0
        },
        {
          "attributes": {
            "POSITION": 2,
            "NORMAL": 3
          },
          "material": 0
        },
        {
          "attributes": {
            "POSITION": 4,
            "NORMAL": 5
          },
          "material": 0
        },
        {
          "attributes": {
            "POSITION": 6,
            "NORMAL": 7
          },
          "material": 0
        },
        {
          "attributes": {
            "POSITION": 8,
            "NORMAL": 9
          },
          "material": 0
        },
        {
          "attributes": {
            "POSITION": 10,
            "NORMAL": 11
          },
          "material": 0
        },
        {
          "attributes": {
            "POSITION": 12,
            "NORMAL": 13
          },
          "material": 0
        },
        {
          "attributes": {
            "POSITION": 14,
            "NORMAL": 15
          },
          "material": 0
        },
        {
          "attributes": {
            "POSITION": 16,
            "NORMAL": 17
          },
          "material": 0
        },
        {
          "attributes": {
            "POSITION": 18,
            "NORMAL": 19
          },
          "material": 0
        },
        {
          "attributes": {
            "POSITION": 20,
            "NORMAL": 21
          },
          "material": 0
        }
      ]
    }
  ],
  "nodes": [
    {
      "children": [
        1
      ]
    },
    {
      "children": [
        2
      ]
    },
    {
      "extensions": {
        "KITTYCAD_boundary_representation": {
          "solid": 0
        }
      },
      "mesh": 0
    }
  ],
  "scenes": [
    {
      "nodes": [
        0
      ]
    }
  ]
}