{
  "accessors": [
    {
      "bufferView": 0,
      "byteOffset": 0,
      "count": 15,
      "componentType": 5126,
      "type": "VEC3",
      "min": [
        0.00215999991632998,
        0.0004299999854993075,
        -0
      ],
      "max": [
        0.004379999823868275,
        0.004939999897032976,
        0.004999999888241291
      ]
    },
    {
      "bufferView": 0,
      "byteOffset": 12,
      "count": 15,
      "componentType": 5126,
      "type": "VEC3"
    },
    {
      "bufferView": 1,
      "byteOffset": 0,
      "count": 15,
      "componentType": 5126,
      "type": "VEC3",
      "min": [
        0.0007999999797903001,
        0.0005699999746866524,
        -0
      ],
      "max": [
        0.00215999991632998,
        0.004939999897032976,
        0.004999999888241291
      ]
    },
    {
      "bufferView": 1,
      "byteOffset": 12,
      "count": 15,
      "componentType": 5126,
      "type": "VEC3"
    },
    {
      "bufferView": 2,
      "byteOffset": 0,
      "count": 6,
      "componentType": 5126,
      "type": "VEC3",
      "min": [
        0.0007999999797903001,
        0.0004299999854993075,
        -0
      ],
      "max": [
        0.004379999823868275,
        0.0005699999746866524,
        0.004999999888241291
      ]
    },
    {
      "bufferView": 2,
      "byteOffset": 12,
      "count": 6,
      "componentType": 5126,
      "type": "VEC3"
    },
    {
      "bufferView": 3,
      "byteOffset": 0,
      "count": 3,
      "componentType": 5126,
      "type": "VEC3",
      "min": [
        0.0007999999797903001,
        0.0004299999854993075,
        -0
      ],
      "max": [
        0.004379999823868275,
        0.004939999897032976,
        -0
      ]
    },
    {
      "bufferView": 3,
      "byteOffset": 12,
      "count": 3,
      "componentType": 5126,
      "type": "VEC3"
    },
    {
      "bufferView": 4,
      "byteOffset": 0,
      "count": 3,
      "componentType": 5126,
      "type": "VEC3",
      "min": [
        0.0007999999797903001,
        0.0004299999854993075,
        0.004999999888241291
      ],
      "max": [
        0.004379999823868275,
        0.004939999897032976,
        0.004999999888241291
      ]
    },
    {
      "bufferView": 4,
      "byteOffset": 12,
      "count": 3,
      "componentType": 5126,
      "type": "VEC3"
    },
    {
      "bufferView": 5,
      "byteOffset": 0,
      "count": 3,
      "componentType": 5126,
      "type": "VEC3",
      "min": [
        0.0013726300094276669,
        0.002409999957308173,
        0.0015512299723923206
      ],
      "max": [
        0.0034053700510412455,
        0.004939999897032976,
        0.002589999930933118
      ]
    },
    {
      "bufferView": 5,
      "byteOffset": 12,
      "count": 3,
      "componentType": 5126,
      "type": "VEC3"
    },
    {
      "bufferView": 6,
      "byteOffset": 0,
      "count": 3,
      "componentType": 5126,
      "type": "VEC3",
      "min": [
        0.0013726300094276669,
        0.002409999957308173,
        0.002589999930933118
      ],
      "max": [
        0.0034053700510412455,
        0.004939999897032976,
        0.003123669885098934
      ]
    },
    {
      "bufferView": 6,
      "byteOffset": 12,
      "count": 3,
      "componentType": 5126,
      "type": "VEC3"
    }
  ],
  "asset": {
    "generator": "zoo.dev",
    "version": "2.0"
  },
  "buffers": [
    {
      "byteLength": 1152,
      "uri": "data:application/octet-stream;base64,"
    }
  ],
  "bufferViews": [
    {
      "buffer": 0,
      "byteLength": 360,
      "byteOffset": 0,
      "byteStride": 24,
      "target": 34962
    },
    {
      "buffer": 0,
      "byteLength": 360,
      "byteOffset": 360,
      "byteStride": 24,
      "target": 34962
    },
    {
      "buffer": 0,
      "byteLength": 144,
      "byteOffset": 720,
      "byteStride": 24,
      "target": 34962
    },
    {
      "buffer": 0,
      "byteLength": 72,
      "byteOffset": 864,
      "byteStride": 24,
      "target": 34962
    },
    {
      "buffer": 0,
      "byteLength": 72,
      "byteOffset": 936,
      "byteStride": 24,
      "target": 34962
    },
    {
      "buffer": 0,
      "byteLength": 72,
      "byteOffset": 1008,
      "byteStride": 24,
      "target": 34962
    },
    {
      "buffer": 0,
      "byteLength": 72,
      "byteOffset": 1080,
      "byteStride": 24,
      "target": 34962
    }
  ],
  "scene": 0,
  "extensions": {
    "KITTYCAD_boundary_representation": {
      "solids": [
        {
          "shells": [
            [
              0,
              1
            ]
          ],
          "mesh": 0,
          "extras": {
            "KITTYCAD": {
              "material": 0
            }
          }
        }
      ],
      "shells": [
        {
          "faces": [
            [
              0,
              1
            ],
            [
              1,
              1
            ],
            [
              2,
              1
            ],
            [
              3,
              1
            ],
            [
              4,
              1
            ],
            [
              5,
              1
            ],
            [
              6,
              1
            ]
          ]
        }
      ],
      "faces": [
        {
          "surface": [
            0,
            1
          ],
          "loops": [
            [
              0,
              1
            ]
          ]
        },
        {
          "surface": [
            1,
            1
          ],
          "loops": [
            [
              1,
              1
            ]
          ]
        },
        {
          "surface": [
            2,
            1
          ],
          "loops": [
            [
              2,
              1
            ]
          ]
        },
        {
          "surface": [
            3,
            -1
          ],
          "loops": [
            [
              3,
              1
            ]
          ]
        },
        {
          "surface": [
            4,
            1
          ],
          "loops": [
            [
              4,
              1
            ]
          ]
        },
        {
          "surface": [
            5,
            -1
          ],
          "loops": [
            [
              5,
              1
            ]
          ]
        },
        {
          "surface": [
            6,
            -1
          ],
          "loops": [
            [
              6,
              1
            ]
          ]
        }
      ],
      "loops": [
        {
          "edges": [
            [
              0,
              1
            ],
            [
              1,
              1
            ],
            [
              2,
              -1
            ],
            [
              3,
              -1
            ],
            [
              4,
              1
            ],
            [
              5,
              -1
            ],
            [
              6,
              -1
            ]
          ]
        },
        {
          "edges": [
            [
              7,
              1
            ],
            [
              8,
              1
            ],
            [
              9,
              -1
            ],
            [
              4,
              -1
            ],
            [
              10,
              -1
            ],
            [
              11,
              -1
            ],
            [
              1,
              -1
            ]
          ]
        },
        {
          "edges": [
            [
              12,
              1
            ],
            [
              6,
              1
            ],
            [
              13,
              -1
            ],
            [
              8,
              -1
            ]
          ]
        },
        {
          "edges": [
            [
              12,
              -1
            ],
            [
              7,
              -1
            ],
            [
              0,
              -1
            ]
          ]
        },
        {
          "edges": [
            [
              5,
              1
            ],
            [
              9,
              1
            ],
            [
              13,
              1
            ]
          ]
        },
        {
          "edges": [
            [
              2,
              1
            ],
            [
              11,
              1
            ],
            [
              14,
              -1
            ]
          ]
        },
        {
          "edges": [
            [
              10,
              1
            ],
            [
              3,
              1
            ],
            [
              14,
              1
            ]
          ]
        }
      ],
      "edges": [
        {
          "curve": [
            0,
            1
          ],
          "start": 0,
          "end": 1,
          "t": [
            0,
            0.005026778292306117
          ]
        },
        {
          "curve": [
            1,
            1
          ],
          "start": 1,
          "end": 2,
          "t": [
            0,
            0.00155123
          ]
        },
        {
          "curve": [
            2,
            1
          ],
          "start": 3,
          "end": 2,
          "t": [
            0,
            0.003005143848437209
          ]
        },
        {
          "curve": [
            3,
            1
          ],
          "start": 4,
          "end": 3,
          "t": [
            0,
            0.002869956464094882
          ]
        },
        {
          "curve": [
            4,
            1
          ],
          "start": 4,
          "end": 5,
          "t": [
            0,
            0.0018763300000000005
          ]
        },
        {
          "curve": [
            5,
            1
          ],
          "start": 6,
          "end": 5,
          "t": [
            0,
            0.005026778292306117
          ]
        },
        {
          "curve": [
            6,
            1
          ],
          "start": 0,
          "end": 6,
          "t": [
            0,
            0.005
          ]
        },
        {
          "curve": [
            7,
            1
          ],
          "start": 1,
          "end": 7,
          "t": [
            0,
            0.004576734643826316
          ]
        },
        {
          "curve": [
            8,
            1
          ],
          "start": 7,
          "end": 8,
          "t": [
            0,
            0.005
          ]
        },
        {
          "curve": [
            9,
            1
          ],
          "start": 5,
          "end": 8,
          "t": [
            0,
            0.004576734643826316
          ]
        },
        {
          "curve": [
            10,
            1
          ],
          "start": 9,
          "end": 4,
          "t": [
            0,
            0.0027028975537004727
          ]
        },
        {
          "curve": [
            11,
            1
          ],
          "start": 2,
          "end": 9,
          "t": [
            0,
            0.002846031382434143
          ]
        },
        {
          "curve": [
            12,
            1
          ],
          "start": 7,
          "end": 0,
          "t": [
            0,
            0.003582736384385544
          ]
        },
        {
          "curve": [
            13,
            1
          ],
          "start": 8,
          "end": 6,
          "t": [
            0,
            0.003582736384385544
          ]
        },
        {
          "curve": [
            14,
            1
          ],
          "start": 3,
          "end": 9,
          "t": [
            0,
            0.00203274
          ]
        }
      ],
      "vertices": [
        [
          0.00438,
          0.00043,
          -0
        ],
        [
          0.00216,
          0.00494,
          -0
        ],
        [
          0.00216,
          0.00494,
          0.00155123
        ],
        [
          0.00340537,
          0.00241,
          0.00259
        ],
        [
          0.00216,
          0.00494,
          0.00312367
        ],
        [
          0.00216,
          0.00494,
          0.005
        ],
        [
          0.00438,
          0.00043,
          0.005
        ],
        [
          0.0008,
          0.00057,
          -0
        ],
        [
          0.0008,
          0.00057,
          0.005
        ],
        [
          0.00137263,
          0.00241,
          0.00259
        ]
      ],
      "surfaces": [
        {
          "type": "plane",
          "plane": {
            "xAxis": [
              0.4416347591922584,
              -0.8971949283590474,
              0
            ],
            "yAxis": [
              0,
              0,
              -1
            ],
            "origin": [
              0.00327,
              0.002685,
              0.0025
            ]
          }
        },
        {
          "type": "plane",
          "plane": {
            "xAxis": [
              0.2971550891122045,
              0.954829227147304,
              0
            ],
            "yAxis": [
              0,
              0,
              -1
            ],
            "origin": [
              0.00148,
              0.002755,
              0.0025
            ]
          }
        },
        {
          "type": "plane",
          "plane": {
            "xAxis": [
              0.9992362304979936,
              -0.039076280019474614,
              0
            ],
            "yAxis": [
              0,
              0,
              1
            ],
            "origin": [
              0.00259,
              0.0005,
              0.0025
            ]
          }
        },
        {
          "type": "plane",
          "plane": {
            "xAxis": [
              1,
              0,
              0
            ],
            "yAxis": [
              0,
              1,
              0
            ],
            "origin": [
              0,
              0,
              0
            ]
          }
        },
        {
          "type": "plane",
          "plane": {
            "xAxis": [
              1,
              0,
              -0
            ],
            "yAxis": [
              -0,
              1,
              0
            ],
            "origin": [
              0,
              0,
              0.005
            ]
          }
        },
        {
          "type": "plane",
          "plane": {
            "xAxis": [
              1,
              0,
              0
            ],
            "yAxis": [
              0,
              -0.9250636810249224,
              0.379812040420812
            ],
            "origin": [
              0.01,
              0.004395,
              0.001775
            ]
          }
        },
        {
          "type": "plane",
          "plane": {
            "xAxis": [
              1,
              0,
              0
            ],
            "yAxis": [
              -0,
              0.9784686027297912,
              0.20639572057581537
            ],
            "origin": [
              0.01,
              0.00433,
              0.002995
            ]
          }
        }
      ],
      "curves3D": [
        {
          "type": "line",
          "line": {
            "origin": [
              0.00438,
              0.00043,
              -0
            ],
            "direction": [
              -0.4416347550871473,
              0.8971949303797451,
              0
            ]
          }
        },
        {
          "type": "line",
          "line": {
            "origin": [
              0.00216,
              0.00494,
              -0
            ],
            "direction": [
              0,
              0,
              1
            ]
          }
        },
        {
          "type": "line",
          "line": {
            "origin": [
              0.00340537,
              0.00241,
              0.00259
            ],
            "direction": [
              -0.4144127744991776,
              0.8418898154628098,
              -0.3456639856159299
            ]
          }
        },
        {
          "type": "line",
          "line": {
            "origin": [
              0.00216,
              0.00494,
              0.00312367
            ],
            "direction": [
              0.4339334117365299,
              -0.881546473492553,
              -0.18595055593232043
            ]
          }
        },
        {
          "type": "line",
          "line": {
            "origin": [
              0.00216,
              0.00494,
              0.00312367
            ],
            "direction": [
              0,
              0,
              1
            ]
          }
        },
        {
          "type": "line",
          "line": {
            "origin": [
              0.00438,
              0.00043,
              0.005
            ],
            "direction": [
              -0.4416347550871473,
              0.8971949303797451,
              0
            ]
          }
        },
        {
          "type": "line",
          "line": {
            "origin": [
              0.00438,
              0.00043,
              -0
            ],
            "direction": [
              0,
              0,
              1
            ]
          }
        },
        {
          "type": "line",
          "line": {
            "origin": [
              0.00216,
              0.00494,
              -0
            ],
            "direction": [
              -0.29715509109415855,
              -0.9548292265304946,
              0
            ]
          }
        },
        {
          "type": "line",
          "line": {
            "origin": [
              0.0008,
              0.00057,
              -0
            ],
            "direction": [
              0,
              0,
              1
            ]
          }
        },
        {
          "type": "line",
          "line": {
            "origin": [
              0.00216,
              0.00494,
              0.005
            ],
            "direction": [
              -0.29715509109415855,
              -0.9548292265304946,
              0
            ]
          }
        },
        {
          "type": "line",
          "line": {
            "origin": [
              0.00137263,
              0.00241,
              0.00259
            ],
            "direction": [
              0.2913058983393694,
              0.9360325168581538,
              0.19744366532477897
            ]
          }
        },
        {
          "type": "line",
          "line": {
            "origin": [
              0.00216,
              0.00494,
              0.00155123
            ],
            "direction": [
              -0.27665541738565835,
              -0.8889571687843268,
              0.3649889479122906
            ]
          }
        },
        {
          "type": "line",
          "line": {
            "origin": [
              0.0008,
              0.00057,
              -0
            ],
            "direction": [
              0.9992362306092434,
              -0.039076277174663145,
              0
            ]
          }
        },
        {
          "type": "line",
          "line": {
            "origin": [
              0.0008,
              0.00057,
              0.005
            ],
            "direction": [
              0.9992362306092434,
              -0.039076277174663145,
              0
            ]
          }
        },
        {
          "type": "line",
          "line": {
            "origin": [
              0.00340537,
              0.00241,
              0.00259
            ],
            "direction": [
              -1,
              0,
              0
            ]
          }
        }
      ]
    }
  },
  "extensionsUsed": [
    "KITTYCAD_boundary_representation"
  ],
  "materials": [
    {
      "alphaMode": "OPAQUE",
      "doubleSided": false,
      "pbrMetallicRoughness": {
        "baseColorFactor": [
          0.9,
          0.9,
          0.9,
          1
        ],
        "metallicFactor": 1,
        "roughnessFactor": 1
      },
      "emissiveFactor": [
        0,
        0,
        0
      ]
    }
  ],
  "meshes": [
    {
      "primitives": [
        {
          "attributes": {
            "POSITION": 0,
            "NORMAL": 1
          },
          "material": 0
        },
        {
          "attributes": {
            "POSITION": 2,
            "NORMAL": 3
          },
          "material": 0
        },
        {
          "attributes": {
            "POSITION": 4,
            "NORMAL": 5
          },
          "material": 0
        },
        {
          "attributes": {
            "POSITION": 6,
            "NORMAL": 7
          },
          "material": 0
        },
        {
          "attributes": {
            "POSITION": 8,
            "NORMAL": 9
          },
          "material": 0
        },
        {
          "attributes": {
            "POSITION": 10,
            "NORMAL": 11
          },
          "material": 0
        },
        {
          "attributes": {
            "POSITION": 12,
            "NORMAL": 13
          },
          "material": 0
        }
      ]
    }
  ],
  "nodes": [
    {
      "children": [
        1
      ]
    },
    {
      "children": [
        2
      ]
    },
    {
      "extensions": {
        "KITTYCAD_boundary_representation": {
          "solid": 0
        }
      },
      "mesh": 0
    }
  ],
  "scenes": [
    {
      "nodes": [
        0
      ]
    }
  ]
}