{
  "accessors": [
    {
      "bufferView": 0,
      "byteOffset": 0,
      "count": 2706,
      "componentType": 5126,
      "type": "VEC3",
      "min": [
        -0.001829999964684248,
        -0.001829999964684248,
        -0.0000000000000000002241103698044646
      ],
      "max": [
        0.001829999964684248,
        0.001829999964684248,
        0.0018282774835824969
      ]
    },
    {
      "bufferView": 0,
      "byteOffset": 12,
      "count": 2706,
      "componentType": 5126,
      "type": "VEC3"
    },
    {
      "bufferView": 1,
      "byteOffset": 0,
      "count": 2706,
      "componentType": 5126,
      "type": "VEC3",
      "min": [
        -0.001829999964684248,
        -0.001829999964684248,
        -0.0018282774835824969
      ],
      "max": [
        0.001829999964684248,
        0.001829999964684248,
        0.0000000000000000004482207396089292
      ]
    },
    {
      "bufferView": 1,
      "byteOffset": 12,
      "count": 2706,
      "componentType": 5126,
      "type": "VEC3"
    }
  ],
  "asset": {
    "generator": "zoo.dev",
    "version": "2.0"
  },
  "buffers": [
    {
      "byteLength": 129888,
      "uri": "data:application/octet-stream;base64,"
    }
  ],
  "bufferViews": [
    {
      "buffer": 0,
      "byteLength": 64944,
      "byteOffset": 0,
      "byteStride": 24,
      "target": 34962
    },
    {
      "buffer": 0,
      "byteLength": 64944,
      "byteOffset": 64944,
      "byteStride": 24,
      "target": 34962
    }
  ],
  "scene": 0,
  "extensions": {
    "KITTYCAD_boundary_representation": {
      "solids": [
        {
          "shells": [
            [
              0,
              1
            ]
          ],
          "mesh": 0,
          "extras": {
            "KITTYCAD": {
              "material": 0
            }
          }
        }
      ],
      "shells": [
        {
          "faces": [
            [
              0,
              1
            ],
            [
              1,
              1
            ]
          ]
        }
      ],
      "faces": [
        {
          "surface": [
            0,
            1
          ],
          "loops": [
            [
              0,
              1
            ]
          ]
        },
        {
          "surface": [
            0,
            1
          ],
          "loops": [
            [
              1,
              1
            ]
          ]
        }
      ],
      "loops": [
        {
          "edges": [
            [
              0,
              1
            ],
            [
              1,
              1
            ]
          ]
        },
        {
          "edges": [
            [
              0,
              -1
            ],
            [
              1,
              -1
            ]
          ]
        }
      ],
      "edges": [
        {
          "curve": [
            0,
            -1
          ],
          "start": 0,
          "end": 1,
          "t": [
            -1.5707963267948966,
            1.5707963267948966
          ]
        },
        {
          "curve": [
            1,
            1
          ],
          "start": 1,
          "end": 0,
          "t": [
            -1.5707963267948966,
            1.5707963267948966
          ]
        }
      ],
      "vertices": [
        [
          0,
          0.00183,
          0
        ],
        [
          0.00000000000000000022411036424396564,
          -0.00183,
          0.000000000000000000000000000000000027445604022711994
        ]
      ],
      "surfaces": [
        {
          "type": "sphere",
          "sphere": {
            "xAxis": [
              1,
              0,
              -0
            ],
            "yAxis": [
              -0,
              0,
              -1
            ],
            "origin": [
              -0,
              0,
              -0
            ],
            "radius": 0.00183
          }
        }
      ],
      "curves3D": [
        {
          "type": "circle",
          "circle": {
            "xAxis": [
              -1,
              0,
              -0.00000000000000012246467991473532
            ],
            "yAxis": [
              0,
              1,
              0
            ],
            "origin": [
              0,
              0,
              0
            ],
            "radius": 0.00183
          }
        },
        {
          "type": "circle",
          "circle": {
            "xAxis": [
              1,
              0,
              0.00000000000000024492935982947064
            ],
            "yAxis": [
              0,
              1,
              -0
            ],
            "origin": [
              0,
              0,
              0
            ],
            "radius": 0.00183
          }
        }
      ]
    }
  },
  "extensionsUsed": [
    "KITTYCAD_boundary_representation"
  ],
  "materials": [
    {
      "alphaMode": "OPAQUE",
      "doubleSided": false,
      "pbrMetallicRoughness": {
        "baseColorFactor": [
          0.9,
          0.9,
          0.9,
          1
        ],
        "metallicFactor": 1,
        "roughnessFactor": 1
      },
      "emissiveFactor": [
        0,
        0,
        0
      ]
    }
  ],
  "meshes": [
    {
      "primitives": [
        {
          "attributes": {
            "POSITION": 0,
            "NORMAL": 1
          },
          "material": 0
        },
        {
          "attributes": {
            "POSITION": 2,
            "NORMAL": 3
          },
          "material": 0
        }
      ]
    }
  ],
  "nodes": [
    {
      "children": [
        1
      ]
    },
    {
      "children": [
        2
      ]
    },
    {
      "extensions": {
        "KITTYCAD_boundary_representation": {
          "solid": 0
        }
      },
      "mesh": 0
    }
  ],
  "scenes": [
    {
      "nodes": [
        0
      ]
    }
  ]
}