{
  "accessors": [
    {
      "bufferView": 0,
      "byteOffset": 0,
      "count": 7122,
      "componentType": 5126,
      "type": "VEC3",
      "min": [
        0.05000000074505806,
        -0.000000000000000012246467698671066,
        -0.25980761647224426
      ],
      "max": [
        0.30000001192092896,
        0.10000000149011612,
        0.00000000000000003673940557755504
      ]
    },
    {
      "bufferView": 0,
      "byteOffset": 12,
      "count": 7122,
      "componentType": 5126,
      "type": "VEC3"
    },
    {
      "bufferView": 1,
      "byteOffset": 0,
      "count": 249,
      "componentType": 5126,
      "type": "VEC3",
      "min": [
        -0.30000001192092896,
        -0.10000000149011612,
        0
      ],
      "max": [
        -0.10000000149011612,
        0.10000000149011612,
        0
      ]
    },
    {
      "bufferView": 1,
      "byteOffset": 12,
      "count": 249,
      "componentType": 5126,
      "type": "VEC3"
    },
    {
      "bufferView": 2,
      "byteOffset": 0,
      "count": 213,
      "componentType": 5126,
      "type": "VEC3",
      "min": [
        0.05000000074505806,
        -0.10000000149011612,
        -0.25980761647224426
      ],
      "max": [
        0.15000000596046448,
        0.10000000149011612,
        -0.08660253882408142
      ]
    },
    {
      "bufferView": 2,
      "byteOffset": 12,
      "count": 213,
      "componentType": 5126,
      "type": "VEC3"
    },
    {
      "bufferView": 3,
      "byteOffset": 0,
      "count": 7116,
      "componentType": 5126,
      "type": "VEC3",
      "min": [
        0.05000000074505806,
        -0.10000000149011612,
        -0.25980761647224426
      ],
      "max": [
        0.30000001192092896,
        0.000000000000000012246467698671066,
        0.00000000000000003673940557755504
      ]
    },
    {
      "bufferView": 3,
      "byteOffset": 12,
      "count": 7116,
      "componentType": 5126,
      "type": "VEC3"
    },
    {
      "bufferView": 4,
      "byteOffset": 0,
      "count": 16776,
      "componentType": 5126,
      "type": "VEC3",
      "min": [
        -0.30000001192092896,
        -0.000000000000000012246467698671066,
        0
      ],
      "max": [
        0.30000001192092896,
        0.10000000149011612,
        0.30000001192092896
      ]
    },
    {
      "bufferView": 4,
      "byteOffset": 12,
      "count": 16776,
      "componentType": 5126,
      "type": "VEC3"
    },
    {
      "bufferView": 5,
      "byteOffset": 0,
      "count": 17022,
      "componentType": 5126,
      "type": "VEC3",
      "min": [
        -0.30000001192092896,
        -0.10000000149011612,
        -0
      ],
      "max": [
        0.30000001192092896,
        0.000000000000000012246467698671066,
        0.30000001192092896
      ]
    },
    {
      "bufferView": 5,
      "byteOffset": 12,
      "count": 17022,
      "componentType": 5126,
      "type": "VEC3"
    }
  ],
  "asset": {
    "generator": "zoo.dev",
    "version": "2.0"
  },
  "buffers": [
    {
      "byteLength": 1163952,
      "uri": "data:application/octet-stream;base64,"
    }
  ],
  "bufferViews": [
    {
      "buffer": 0,
      "byteLength": 170928,
      "byteOffset": 0,
      "byteStride": 24,
      "target": 34962
    },
    {
      "buffer": 0,
      "byteLength": 5976,
      "byteOffset": 170928,
      "byteStride": 24,
      "target": 34962
    },
    {
      "buffer": 0,
      "byteLength": 5112,
      "byteOffset": 176904,
      "byteStride": 24,
      "target": 34962
    },
    {
      "buffer": 0,
      "byteLength": 170784,
      "byteOffset": 182016,
      "byteStride": 24,
      "target": 34962
    },
    {
      "buffer": 0,
      "byteLength": 402624,
      "byteOffset": 352800,
      "byteStride": 24,
      "target": 34962
    },
    {
      "buffer": 0,
      "byteLength": 408528,
      "byteOffset": 755424,
      "byteStride": 24,
      "target": 34962
    }
  ],
  "scene": 0,
  "extensions": {
    "KITTYCAD_boundary_representation": {
      "solids": [
        {
          "shells": [
            [
              0,
              1
            ]
          ],
          "mesh": 0
        }
      ],
      "shells": [
        {
          "faces": [
            [
              0,
              1
            ],
            [
              1,
              1
            ],
            [
              2,
              1
            ],
            [
              3,
              1
            ],
            [
              4,
              1
            ],
            [
              5,
              1
            ]
          ]
        }
      ],
      "faces": [
        {
          "surface": [
            0,
            1
          ],
          "loops": [
            [
              0,
              1
            ]
          ]
        },
        {
          "surface": [
            1,
            -1
          ],
          "loops": [
            [
              1,
              1
            ]
          ]
        },
        {
          "surface": [
            2,
            1
          ],
          "loops": [
            [
              2,
              1
            ]
          ]
        },
        {
          "surface": [
            0,
            1
          ],
          "loops": [
            [
              3,
              1
            ]
          ]
        },
        {
          "surface": [
            0,
            1
          ],
          "loops": [
            [
              4,
              1
            ]
          ]
        },
        {
          "surface": [
            0,
            1
          ],
          "loops": [
            [
              5,
              1
            ]
          ]
        }
      ],
      "loops": [
        {
          "edges": [
            [
              0,
              1
            ],
            [
              1,
              1
            ],
            [
              2,
              -1
            ],
            [
              3,
              -1
            ]
          ]
        },
        {
          "edges": [
            [
              4,
              1
            ],
            [
              5,
              1
            ]
          ]
        },
        {
          "edges": [
            [
              3,
              1
            ],
            [
              6,
              1
            ]
          ]
        },
        {
          "edges": [
            [
              0,
              -1
            ],
            [
              6,
              -1
            ],
            [
              2,
              1
            ],
            [
              7,
              1
            ]
          ]
        },
        {
          "edges": [
            [
              8,
              1
            ],
            [
              5,
              -1
            ],
            [
              9,
              -1
            ],
            [
              1,
              -1
            ]
          ]
        },
        {
          "edges": [
            [
              8,
              -1
            ],
            [
              7,
              -1
            ],
            [
              9,
              1
            ],
            [
              4,
              -1
            ]
          ]
        }
      ],
      "edges": [
        {
          "curve": [
            0,
            -1
          ],
          "start": 0,
          "end": 1,
          "t": [
            3.141592653589793,
            4.18879020478639
          ]
        },
        {
          "curve": [
            1,
            -1
          ],
          "start": 1,
          "end": 2,
          "t": [
            0,
            3.141592653589793
          ]
        },
        {
          "curve": [
            2,
            -1
          ],
          "start": 3,
          "end": 2,
          "t": [
            3.141592653589793,
            4.188790204786391
          ]
        },
        {
          "curve": [
            3,
            1
          ],
          "start": 0,
          "end": 3,
          "t": [
            0,
            3.141592653589793
          ]
        },
        {
          "curve": [
            4,
            1
          ],
          "start": 4,
          "end": 5,
          "t": [
            0,
            3.141592653589793
          ]
        },
        {
          "curve": [
            4,
            1
          ],
          "start": 5,
          "end": 4,
          "t": [
            3.141592653589793,
            6.283185307179586
          ]
        },
        {
          "curve": [
            3,
            1
          ],
          "start": 3,
          "end": 0,
          "t": [
            3.141592653589793,
            6.283185307179586
          ]
        },
        {
          "curve": [
            1,
            -1
          ],
          "start": 2,
          "end": 1,
          "t": [
            3.141592653589793,
            6.283185307179586
          ]
        },
        {
          "curve": [
            5,
            -1
          ],
          "start": 1,
          "end": 4,
          "t": [
            0,
            3.141592653589793
          ]
        },
        {
          "curve": [
            6,
            -1
          ],
          "start": 2,
          "end": 5,
          "t": [
            0,
            3.141592653589793
          ]
        }
      ],
      "vertices": [
        [
          0.05000000000000005,
          0,
          -0.08660254037844384
        ],
        [
          0.10000000000000006,
          0.000000000000000012246467991473533,
          0.000000000000000012246467991473533
        ],
        [
          0.3,
          -0.00000000000000000734788079488412,
          0.00000000000000003673940397442061
        ],
        [
          0.15000000000000013,
          0.000000000000000012246467991473533,
          -0.2598076211353315
        ],
        [
          -0.1,
          0,
          -0
        ],
        [
          -0.30000000000000004,
          -0.000000000000000012246467991473533,
          -0
        ]
      ],
      "surfaces": [
        {
          "type": "torus",
          "torus": {
            "xAxis": [
              -1,
              0,
              -0
            ],
            "yAxis": [
              0,
              0,
              1
            ],
            "origin": [
              0,
              0,
              -0
            ],
            "majorRadius": 0.20000000000000004,
            "minorRadius": 0.1
          }
        },
        {
          "type": "plane",
          "plane": {
            "xAxis": [
              1,
              0,
              0
            ],
            "yAxis": [
              0,
              1,
              0
            ],
            "origin": [
              0,
              0,
              0
            ]
          }
        },
        {
          "type": "plane",
          "plane": {
            "xAxis": [
              0.5000000000000004,
              0,
              -0.8660254037844384
            ],
            "yAxis": [
              0,
              -1,
              -0
            ],
            "origin": [
              0,
              0,
              -0
            ]
          }
        }
      ],
      "curves3D": [
        {
          "type": "circle",
          "circle": {
            "xAxis": [
              -1,
              0,
              0
            ],
            "yAxis": [
              0,
              -0,
              1
            ],
            "origin": [
              0,
              0.000000000000000012246467991473533,
              0
            ],
            "radius": 0.10000000000000003
          }
        },
        {
          "type": "circle",
          "circle": {
            "xAxis": [
              1,
              0,
              0.00000000000000012246467991473532
            ],
            "yAxis": [
              0,
              1,
              -0
            ],
            "origin": [
              0.20000000000000004,
              0,
              0.000000000000000024492935982947068
            ],
            "radius": 0.1
          }
        },
        {
          "type": "circle",
          "circle": {
            "xAxis": [
              -1,
              0,
              -0
            ],
            "yAxis": [
              0,
              0,
              1
            ],
            "origin": [
              0,
              0,
              -0
            ],
            "radius": 0.30000000000000004
          }
        },
        {
          "type": "circle",
          "circle": {
            "xAxis": [
              -0.5000000000000004,
              0,
              0.8660254037844384
            ],
            "yAxis": [
              0,
              1,
              0
            ],
            "origin": [
              0.10000000000000007,
              0,
              -0.17320508075688767
            ],
            "radius": 0.1
          }
        },
        {
          "type": "circle",
          "circle": {
            "xAxis": [
              1,
              -0,
              0
            ],
            "yAxis": [
              0,
              -1,
              -0
            ],
            "origin": [
              -0.2,
              0,
              -0
            ],
            "radius": 0.1
          }
        },
        {
          "type": "circle",
          "circle": {
            "xAxis": [
              -1,
              0,
              0
            ],
            "yAxis": [
              0,
              -0,
              1
            ],
            "origin": [
              0,
              0.000000000000000012246467991473533,
              0
            ],
            "radius": 0.10000000000000003
          }
        },
        {
          "type": "circle",
          "circle": {
            "xAxis": [
              -1,
              0,
              -0
            ],
            "yAxis": [
              0,
              0,
              1
            ],
            "origin": [
              0,
              0,
              -0
            ],
            "radius": 0.30000000000000004
          }
        }
      ]
    }
  },
  "extensionsUsed": [
    "KITTYCAD_boundary_representation"
  ],
  "meshes": [
    {
      "primitives": [
        {
          "attributes": {
            "POSITION": 0,
            "NORMAL": 1
          }
        },
        {
          "attributes": {
            "POSITION": 2,
            "NORMAL": 3
          }
        },
        {
          "attributes": {
            "POSITION": 4,
            "NORMAL": 5
          }
        },
        {
          "attributes": {
            "POSITION": 6,
            "NORMAL": 7
          }
        },
        {
          "attributes": {
            "POSITION": 8,
            "NORMAL": 9
          }
        },
        {
          "attributes": {
            "POSITION": 10,
            "NORMAL": 11
          }
        }
      ]
    }
  ],
  "nodes": [
    {
      "children": [
        1
      ]
    },
    {
      "children": [
        2
      ]
    },
    {
      "extensions": {
        "KITTYCAD_boundary_representation": {
          "solid": 0
        }
      },
      "mesh": 0
    }
  ],
  "scenes": [
    {
      "nodes": [
        0
      ]
    }
  ]
}