{
  "accessors": [
    {
      "bufferView": 0,
      "byteOffset": 0,
      "count": 6,
      "componentType": 5126,
      "type": "VEC3",
      "min": [
        0,
        -0.004110000096261501,
        -0.005289999768137932
      ],
      "max": [
        0.0010000000474974513,
        0.005140000022947788,
        -0.0004900000058114529
      ]
    },
    {
      "bufferView": 0,
      "byteOffset": 12,
      "count": 6,
      "componentType": 5126,
      "type": "VEC3"
    },
    {
      "bufferView": 1,
      "byteOffset": 0,
      "count": 6,
      "componentType": 5126,
      "type": "VEC3",
      "min": [
        0,
        -0.004110000096261501,
        -0.0004900000058114529
      ],
      "max": [
        0.0010000000474974513,
        0.005140000022947788,
        0.004310000222176313
      ]
    },
    {
      "bufferView": 1,
      "byteOffset": 12,
      "count": 6,
      "componentType": 5126,
      "type": "VEC3"
    },
    {
      "bufferView": 2,
      "byteOffset": 0,
      "count": 6,
      "componentType": 5126,
      "type": "VEC3",
      "min": [
        0,
        -0.004110000096261501,
        -0.005289999768137932
      ],
      "max": [
        0.0010000000474974513,
        -0.004110000096261501,
        0.004310000222176313
      ]
    },
    {
      "bufferView": 2,
      "byteOffset": 12,
      "count": 6,
      "componentType": 5126,
      "type": "VEC3"
    },
    {
      "bufferView": 3,
      "byteOffset": 0,
      "count": 3,
      "componentType": 5126,
      "type": "VEC3",
      "min": [
        0,
        -0.004110000096261501,
        -0.005289999768137932
      ],
      "max": [
        0,
        0.005140000022947788,
        0.004310000222176313
      ]
    },
    {
      "bufferView": 3,
      "byteOffset": 12,
      "count": 3,
      "componentType": 5126,
      "type": "VEC3"
    },
    {
      "bufferView": 4,
      "byteOffset": 0,
      "count": 3,
      "componentType": 5126,
      "type": "VEC3",
      "min": [
        0.0010000000474974513,
        -0.004110000096261501,
        -0.005289999768137932
      ],
      "max": [
        0.0010000000474974513,
        0.005140000022947788,
        0.004310000222176313
      ]
    },
    {
      "bufferView": 4,
      "byteOffset": 12,
      "count": 3,
      "componentType": 5126,
      "type": "VEC3"
    }
  ],
  "asset": {
    "generator": "zoo.dev",
    "version": "2.0"
  },
  "buffers": [
    {
      "byteLength": 576,
      "uri": "data:application/octet-stream;base64,"
    }
  ],
  "bufferViews": [
    {
      "buffer": 0,
      "byteLength": 144,
      "byteOffset": 0,
      "byteStride": 24,
      "target": 34962
    },
    {
      "buffer": 0,
      "byteLength": 144,
      "byteOffset": 144,
      "byteStride": 24,
      "target": 34962
    },
    {
      "buffer": 0,
      "byteLength": 144,
      "byteOffset": 288,
      "byteStride": 24,
      "target": 34962
    },
    {
      "buffer": 0,
      "byteLength": 72,
      "byteOffset": 432,
      "byteStride": 24,
      "target": 34962
    },
    {
      "buffer": 0,
      "byteLength": 72,
      "byteOffset": 504,
      "byteStride": 24,
      "target": 34962
    }
  ],
  "scene": 0,
  "extensions": {
    "KITTYCAD_boundary_representation": {
      "solids": [
        {
          "shells": [
            [
              0,
              1
            ]
          ],
          "mesh": 0,
          "extras": {
            "KITTYCAD": {
              "material": 0
            }
          }
        }
      ],
      "shells": [
        {
          "faces": [
            [
              0,
              1
            ],
            [
              1,
              1
            ],
            [
              2,
              1
            ],
            [
              3,
              1
            ],
            [
              4,
              1
            ]
          ]
        }
      ],
      "faces": [
        {
          "surface": [
            0,
            1
          ],
          "loops": [
            [
              0,
              1
            ]
          ]
        },
        {
          "surface": [
            1,
            1
          ],
          "loops": [
            [
              1,
              1
            ]
          ]
        },
        {
          "surface": [
            2,
            1
          ],
          "loops": [
            [
              2,
              1
            ]
          ]
        },
        {
          "surface": [
            3,
            -1
          ],
          "loops": [
            [
              3,
              1
            ]
          ]
        },
        {
          "surface": [
            4,
            1
          ],
          "loops": [
            [
              4,
              1
            ]
          ]
        }
      ],
      "loops": [
        {
          "edges": [
            [
              0,
              1
            ],
            [
              1,
              1
            ],
            [
              2,
              -1
            ],
            [
              3,
              -1
            ]
          ]
        },
        {
          "edges": [
            [
              4,
              1
            ],
            [
              5,
              1
            ],
            [
              6,
              -1
            ],
            [
              1,
              -1
            ]
          ]
        },
        {
          "edges": [
            [
              7,
              1
            ],
            [
              3,
              1
            ],
            [
              8,
              -1
            ],
            [
              5,
              -1
            ]
          ]
        },
        {
          "edges": [
            [
              7,
              -1
            ],
            [
              4,
              -1
            ],
            [
              0,
              -1
            ]
          ]
        },
        {
          "edges": [
            [
              2,
              1
            ],
            [
              6,
              1
            ],
            [
              8,
              1
            ]
          ]
        }
      ],
      "edges": [
        {
          "curve": [
            0,
            1
          ],
          "start": 0,
          "end": 1,
          "t": [
            0,
            0.01042125232397719
          ]
        },
        {
          "curve": [
            1,
            1
          ],
          "start": 1,
          "end": 2,
          "t": [
            0,
            0.001
          ]
        },
        {
          "curve": [
            2,
            1
          ],
          "start": 3,
          "end": 2,
          "t": [
            0,
            0.01042125232397719
          ]
        },
        {
          "curve": [
            3,
            1
          ],
          "start": 0,
          "end": 3,
          "t": [
            0,
            0.001
          ]
        },
        {
          "curve": [
            4,
            1
          ],
          "start": 1,
          "end": 4,
          "t": [
            0,
            0.01042125232397719
          ]
        },
        {
          "curve": [
            5,
            1
          ],
          "start": 4,
          "end": 5,
          "t": [
            0,
            0.001
          ]
        },
        {
          "curve": [
            6,
            1
          ],
          "start": 2,
          "end": 5,
          "t": [
            0,
            0.01042125232397719
          ]
        },
        {
          "curve": [
            7,
            1
          ],
          "start": 4,
          "end": 0,
          "t": [
            0,
            0.0096
          ]
        },
        {
          "curve": [
            8,
            1
          ],
          "start": 5,
          "end": 3,
          "t": [
            0,
            0.0096
          ]
        }
      ],
      "vertices": [
        [
          0,
          -0.00411,
          -0.00529
        ],
        [
          0,
          0.00514,
          -0.00049
        ],
        [
          0.001,
          0.00514,
          -0.00049
        ],
        [
          0.001,
          -0.00411,
          -0.00529
        ],
        [
          0,
          -0.00411,
          0.00431
        ],
        [
          0.001,
          -0.00411,
          0.00431
        ]
      ],
      "surfaces": [
        {
          "type": "plane",
          "plane": {
            "xAxis": [
              1,
              0,
              0
            ],
            "yAxis": [
              0,
              -0.8876092548955045,
              -0.4605972325403699
            ],
            "origin": [
              0.0005,
              0.000515,
              -0.00289
            ]
          }
        },
        {
          "type": "plane",
          "plane": {
            "xAxis": [
              1,
              0,
              -0
            ],
            "yAxis": [
              -0,
              0.8876092548955045,
              -0.4605972325403699
            ],
            "origin": [
              0.0005,
              0.000515,
              0.00191
            ]
          }
        },
        {
          "type": "plane",
          "plane": {
            "xAxis": [
              1,
              0,
              0
            ],
            "yAxis": [
              -0,
              0,
              1
            ],
            "origin": [
              0.0005,
              -0.00411,
              -0.00049
            ]
          }
        },
        {
          "type": "plane",
          "plane": {
            "xAxis": [
              -0,
              1,
              0
            ],
            "yAxis": [
              0,
              -0,
              1
            ],
            "origin": [
              0,
              0,
              -0
            ]
          }
        },
        {
          "type": "plane",
          "plane": {
            "xAxis": [
              -0,
              1,
              0
            ],
            "yAxis": [
              0,
              -0,
              1
            ],
            "origin": [
              0.001,
              0,
              -0
            ]
          }
        }
      ],
      "curves3D": [
        {
          "type": "line",
          "line": {
            "origin": [
              0,
              -0.00411,
              -0.00529
            ],
            "direction": [
              0,
              0.8876092539010522,
              0.46059723445676226
            ]
          }
        },
        {
          "type": "line",
          "line": {
            "origin": [
              0,
              0.00514,
              -0.00049
            ],
            "direction": [
              1,
              0,
              -0
            ]
          }
        },
        {
          "type": "line",
          "line": {
            "origin": [
              0.001,
              -0.00411,
              -0.00529
            ],
            "direction": [
              0,
              0.8876092539010522,
              0.46059723445676226
            ]
          }
        },
        {
          "type": "line",
          "line": {
            "origin": [
              0,
              -0.00411,
              -0.00529
            ],
            "direction": [
              1,
              0,
              -0
            ]
          }
        },
        {
          "type": "line",
          "line": {
            "origin": [
              0,
              0.00514,
              -0.00049
            ],
            "direction": [
              0,
              -0.8876092539010522,
              0.4605972344567622
            ]
          }
        },
        {
          "type": "line",
          "line": {
            "origin": [
              0,
              -0.00411,
              0.00431
            ],
            "direction": [
              1,
              0,
              -0
            ]
          }
        },
        {
          "type": "line",
          "line": {
            "origin": [
              0.001,
              0.00514,
              -0.00049
            ],
            "direction": [
              0,
              -0.8876092539010522,
              0.4605972344567622
            ]
          }
        },
        {
          "type": "line",
          "line": {
            "origin": [
              0,
              -0.00411,
              0.00431
            ],
            "direction": [
              0,
              0,
              -1
            ]
          }
        },
        {
          "type": "line",
          "line": {
            "origin": [
              0.001,
              -0.00411,
              0.00431
            ],
            "direction": [
              0,
              0,
              -1
            ]
          }
        }
      ]
    }
  },
  "extensionsUsed": [
    "KITTYCAD_boundary_representation"
  ],
  "materials": [
    {
      "alphaMode": "OPAQUE",
      "doubleSided": false,
      "pbrMetallicRoughness": {
        "baseColorFactor": [
          0.9,
          0.9,
          0.9,
          1
        ],
        "metallicFactor": 1,
        "roughnessFactor": 1
      },
      "emissiveFactor": [
        0,
        0,
        0
      ]
    }
  ],
  "meshes": [
    {
      "primitives": [
        {
          "attributes": {
            "POSITION": 0,
            "NORMAL": 1
          },
          "material": 0
        },
        {
          "attributes": {
            "POSITION": 2,
            "NORMAL": 3
          },
          "material": 0
        },
        {
          "attributes": {
            "POSITION": 4,
            "NORMAL": 5
          },
          "material": 0
        },
        {
          "attributes": {
            "POSITION": 6,
            "NORMAL": 7
          },
          "material": 0
        },
        {
          "attributes": {
            "POSITION": 8,
            "NORMAL": 9
          },
          "material": 0
        }
      ]
    }
  ],
  "nodes": [
    {
      "children": [
        1
      ]
    },
    {
      "children": [
        2
      ]
    },
    {
      "extensions": {
        "KITTYCAD_boundary_representation": {
          "solid": 0
        }
      },
      "mesh": 0
    }
  ],
  "scenes": [
    {
      "nodes": [
        0
      ]
    }
  ]
}