{
  "accessors": [
    {
      "bufferView": 0,
      "byteOffset": 0,
      "count": 9,
      "componentType": 5126,
      "type": "VEC3",
      "min": [
        0,
        -0.004110000096261501,
        -0.005289999768137932
      ],
      "max": [
        0.0010000000474974513,
        0.005140000022947788,
        -0.0004900000058114529
      ]
    },
    {
      "bufferView": 0,
      "byteOffset": 12,
      "count": 9,
      "componentType": 5126,
      "type": "VEC3"
    },
    {
      "bufferView": 1,
      "byteOffset": 0,
      "count": 9,
      "componentType": 5126,
      "type": "VEC3",
      "min": [
        0,
        -0.004110000096261501,
        -0.0004900000058114529
      ],
      "max": [
        0.0010000000474974513,
        0.005140000022947788,
        0.004310000222176313
      ]
    },
    {
      "bufferView": 1,
      "byteOffset": 12,
      "count": 9,
      "componentType": 5126,
      "type": "VEC3"
    },
    {
      "bufferView": 2,
      "byteOffset": 0,
      "count": 6,
      "componentType": 5126,
      "type": "VEC3",
      "min": [
        0,
        -0.004110000096261501,
        -0.005289999768137932
      ],
      "max": [
        0.0010000000474974513,
        -0.004110000096261501,
        0.004310000222176313
      ]
    },
    {
      "bufferView": 2,
      "byteOffset": 12,
      "count": 6,
      "componentType": 5126,
      "type": "VEC3"
    },
    {
      "bufferView": 3,
      "byteOffset": 0,
      "count": 3,
      "componentType": 5126,
      "type": "VEC3",
      "min": [
        0,
        -0.004110000096261501,
        -0.005289999768137932
      ],
      "max": [
        0,
        0.005140000022947788,
        0.004310000222176313
      ]
    },
    {
      "bufferView": 3,
      "byteOffset": 12,
      "count": 3,
      "componentType": 5126,
      "type": "VEC3"
    },
    {
      "bufferView": 4,
      "byteOffset": 0,
      "count": 24,
      "componentType": 5126,
      "type": "VEC3",
      "min": [
        0.0010000000474974513,
        -0.004110000096261501,
        -0.005289999768137932
      ],
      "max": [
        0.0010000000474974513,
        0.005140000022947788,
        0.004310000222176313
      ]
    },
    {
      "bufferView": 4,
      "byteOffset": 12,
      "count": 24,
      "componentType": 5126,
      "type": "VEC3"
    },
    {
      "bufferView": 5,
      "byteOffset": 0,
      "count": 6,
      "componentType": 5126,
      "type": "VEC3",
      "min": [
        0.0010000000474974513,
        -0.0012499999720603228,
        -0.0016799999866634607
      ],
      "max": [
        0.0020000000949949026,
        -0.0011399999493733048,
        0.0012600000482052565
      ]
    },
    {
      "bufferView": 5,
      "byteOffset": 12,
      "count": 6,
      "componentType": 5126,
      "type": "VEC3"
    },
    {
      "bufferView": 6,
      "byteOffset": 0,
      "count": 6,
      "componentType": 5126,
      "type": "VEC3",
      "min": [
        0.0010000000474974513,
        -0.0011399999493733048,
        -0.0016799999866634607
      ],
      "max": [
        0.0020000000949949026,
        0.0007600000244565308,
        0.0003000000142492354
      ]
    },
    {
      "bufferView": 6,
      "byteOffset": 12,
      "count": 6,
      "componentType": 5126,
      "type": "VEC3"
    },
    {
      "bufferView": 7,
      "byteOffset": 0,
      "count": 6,
      "componentType": 5126,
      "type": "VEC3",
      "min": [
        0.0010000000474974513,
        -0.0012499999720603228,
        0.0003000000142492354
      ],
      "max": [
        0.0020000000949949026,
        0.0007600000244565308,
        0.0012600000482052565
      ]
    },
    {
      "bufferView": 7,
      "byteOffset": 12,
      "count": 6,
      "componentType": 5126,
      "type": "VEC3"
    },
    {
      "bufferView": 8,
      "byteOffset": 0,
      "count": 3,
      "componentType": 5126,
      "type": "VEC3",
      "min": [
        0.0020000000949949026,
        -0.0012499999720603228,
        -0.0016799999866634607
      ],
      "max": [
        0.0020000000949949026,
        0.0007600000244565308,
        0.0012600000482052565
      ]
    },
    {
      "bufferView": 8,
      "byteOffset": 12,
      "count": 3,
      "componentType": 5126,
      "type": "VEC3"
    }
  ],
  "asset": {
    "generator": "zoo.dev",
    "version": "2.0"
  },
  "buffers": [
    {
      "byteLength": 1728,
      "uri": "data:application/octet-stream;base64,"
    }
  ],
  "bufferViews": [
    {
      "buffer": 0,
      "byteLength": 216,
      "byteOffset": 0,
      "byteStride": 24,
      "target": 34962
    },
    {
      "buffer": 0,
      "byteLength": 216,
      "byteOffset": 216,
      "byteStride": 24,
      "target": 34962
    },
    {
      "buffer": 0,
      "byteLength": 144,
      "byteOffset": 432,
      "byteStride": 24,
      "target": 34962
    },
    {
      "buffer": 0,
      "byteLength": 72,
      "byteOffset": 576,
      "byteStride": 24,
      "target": 34962
    },
    {
      "buffer": 0,
      "byteLength": 576,
      "byteOffset": 648,
      "byteStride": 24,
      "target": 34962
    },
    {
      "buffer": 0,
      "byteLength": 144,
      "byteOffset": 1224,
      "byteStride": 24,
      "target": 34962
    },
    {
      "buffer": 0,
      "byteLength": 144,
      "byteOffset": 1368,
      "byteStride": 24,
      "target": 34962
    },
    {
      "buffer": 0,
      "byteLength": 144,
      "byteOffset": 1512,
      "byteStride": 24,
      "target": 34962
    },
    {
      "buffer": 0,
      "byteLength": 72,
      "byteOffset": 1656,
      "byteStride": 24,
      "target": 34962
    }
  ],
  "scene": 0,
  "extensions": {
    "KITTYCAD_boundary_representation": {
      "solids": [
        {
          "shells": [
            [
              0,
              1
            ]
          ],
          "mesh": 0,
          "extras": {
            "KITTYCAD": {
              "material": 0
            }
          }
        }
      ],
      "shells": [
        {
          "faces": [
            [
              0,
              1
            ],
            [
              1,
              1
            ],
            [
              2,
              1
            ],
            [
              3,
              1
            ],
            [
              4,
              1
            ],
            [
              5,
              1
            ],
            [
              6,
              1
            ],
            [
              7,
              1
            ],
            [
              8,
              1
            ]
          ]
        }
      ],
      "faces": [
        {
          "surface": [
            0,
            1
          ],
          "loops": [
            [
              0,
              1
            ]
          ]
        },
        {
          "surface": [
            1,
            1
          ],
          "loops": [
            [
              1,
              1
            ]
          ]
        },
        {
          "surface": [
            2,
            1
          ],
          "loops": [
            [
              2,
              1
            ]
          ]
        },
        {
          "surface": [
            3,
            -1
          ],
          "loops": [
            [
              3,
              1
            ]
          ]
        },
        {
          "surface": [
            4,
            1
          ],
          "loops": [
            [
              4,
              1
            ],
            [
              5,
              1
            ]
          ]
        },
        {
          "surface": [
            5,
            1
          ],
          "loops": [
            [
              6,
              1
            ]
          ]
        },
        {
          "surface": [
            6,
            1
          ],
          "loops": [
            [
              7,
              1
            ]
          ]
        },
        {
          "surface": [
            7,
            1
          ],
          "loops": [
            [
              8,
              1
            ]
          ]
        },
        {
          "surface": [
            8,
            1
          ],
          "loops": [
            [
              9,
              1
            ]
          ]
        }
      ],
      "loops": [
        {
          "edges": [
            [
              0,
              1
            ],
            [
              1,
              1
            ],
            [
              2,
              -1
            ],
            [
              3,
              -1
            ]
          ]
        },
        {
          "edges": [
            [
              4,
              1
            ],
            [
              5,
              1
            ],
            [
              6,
              -1
            ],
            [
              1,
              -1
            ]
          ]
        },
        {
          "edges": [
            [
              7,
              1
            ],
            [
              3,
              1
            ],
            [
              8,
              -1
            ],
            [
              5,
              -1
            ]
          ]
        },
        {
          "edges": [
            [
              7,
              -1
            ],
            [
              4,
              -1
            ],
            [
              0,
              -1
            ]
          ]
        },
        {
          "edges": [
            [
              2,
              1
            ],
            [
              6,
              1
            ],
            [
              8,
              1
            ]
          ]
        },
        {
          "edges": [
            [
              9,
              -1
            ],
            [
              10,
              -1
            ],
            [
              11,
              -1
            ]
          ]
        },
        {
          "edges": [
            [
              11,
              1
            ],
            [
              12,
              1
            ],
            [
              13,
              -1
            ],
            [
              14,
              -1
            ]
          ]
        },
        {
          "edges": [
            [
              10,
              1
            ],
            [
              15,
              1
            ],
            [
              16,
              -1
            ],
            [
              12,
              -1
            ]
          ]
        },
        {
          "edges": [
            [
              9,
              1
            ],
            [
              14,
              1
            ],
            [
              17,
              -1
            ],
            [
              15,
              -1
            ]
          ]
        },
        {
          "edges": [
            [
              13,
              1
            ],
            [
              16,
              1
            ],
            [
              17,
              1
            ]
          ]
        }
      ],
      "edges": [
        {
          "curve": [
            0,
            1
          ],
          "start": 0,
          "end": 1,
          "t": [
            0,
            0.01042125232397719
          ]
        },
        {
          "curve": [
            1,
            1
          ],
          "start": 1,
          "end": 2,
          "t": [
            0,
            0.001
          ]
        },
        {
          "curve": [
            2,
            1
          ],
          "start": 3,
          "end": 2,
          "t": [
            0,
            0.01042125232397719
          ]
        },
        {
          "curve": [
            3,
            1
          ],
          "start": 0,
          "end": 3,
          "t": [
            0,
            0.001
          ]
        },
        {
          "curve": [
            4,
            1
          ],
          "start": 1,
          "end": 4,
          "t": [
            0,
            0.01042125232397719
          ]
        },
        {
          "curve": [
            5,
            1
          ],
          "start": 4,
          "end": 5,
          "t": [
            0,
            0.001
          ]
        },
        {
          "curve": [
            6,
            1
          ],
          "start": 2,
          "end": 5,
          "t": [
            0,
            0.01042125232397719
          ]
        },
        {
          "curve": [
            7,
            1
          ],
          "start": 4,
          "end": 0,
          "t": [
            0,
            0.0096
          ]
        },
        {
          "curve": [
            8,
            1
          ],
          "start": 5,
          "end": 3,
          "t": [
            0,
            0.0096
          ]
        },
        {
          "curve": [
            9,
            1
          ],
          "start": 6,
          "end": 7,
          "t": [
            0,
            0.002227487373701589
          ]
        },
        {
          "curve": [
            10,
            1
          ],
          "start": 8,
          "end": 6,
          "t": [
            0,
            0.0027441574298862664
          ]
        },
        {
          "curve": [
            11,
            1
          ],
          "start": 7,
          "end": 8,
          "t": [
            0,
            0.002942057103456695
          ]
        },
        {
          "curve": [
            12,
            1
          ],
          "start": 8,
          "end": 9,
          "t": [
            0,
            0.001
          ]
        },
        {
          "curve": [
            13,
            1
          ],
          "start": 10,
          "end": 9,
          "t": [
            0,
            0.002942057103456695
          ]
        },
        {
          "curve": [
            14,
            1
          ],
          "start": 7,
          "end": 10,
          "t": [
            0,
            0.001
          ]
        },
        {
          "curve": [
            15,
            1
          ],
          "start": 6,
          "end": 11,
          "t": [
            0,
            0.001
          ]
        },
        {
          "curve": [
            16,
            1
          ],
          "start": 9,
          "end": 11,
          "t": [
            0,
            0.0027441574298862664
          ]
        },
        {
          "curve": [
            17,
            1
          ],
          "start": 11,
          "end": 10,
          "t": [
            0,
            0.002227487373701589
          ]
        }
      ],
      "vertices": [
        [
          0,
          -0.00411,
          -0.00529
        ],
        [
          0,
          0.00514,
          -0.00049
        ],
        [
          0.001,
          0.00514,
          -0.00049
        ],
        [
          0.001,
          -0.00411,
          -0.00529
        ],
        [
          0,
          -0.00411,
          0.00431
        ],
        [
          0.001,
          -0.00411,
          0.00431
        ],
        [
          0.001,
          0.00076,
          0.0003
        ],
        [
          0.001,
          -0.00125,
          0.00126
        ],
        [
          0.001,
          -0.00114,
          -0.00168
        ],
        [
          0.002,
          -0.00114,
          -0.00168
        ],
        [
          0.002,
          -0.00125,
          0.00126
        ],
        [
          0.002,
          0.00076,
          0.0003
        ]
      ],
      "surfaces": [
        {
          "type": "plane",
          "plane": {
            "xAxis": [
              1,
              0,
              0
            ],
            "yAxis": [
              0,
              -0.8876092548955045,
              -0.4605972325403699
            ],
            "origin": [
              0.0005,
              0.000515,
              -0.00289
            ]
          }
        },
        {
          "type": "plane",
          "plane": {
            "xAxis": [
              1,
              0,
              -0
            ],
            "yAxis": [
              -0,
              0.8876092548955045,
              -0.4605972325403699
            ],
            "origin": [
              0.0005,
              0.000515,
              0.00191
            ]
          }
        },
        {
          "type": "plane",
          "plane": {
            "xAxis": [
              1,
              0,
              0
            ],
            "yAxis": [
              -0,
              0,
              1
            ],
            "origin": [
              0.0005,
              -0.00411,
              -0.00049
            ]
          }
        },
        {
          "type": "plane",
          "plane": {
            "xAxis": [
              -0,
              1,
              0
            ],
            "yAxis": [
              0,
              -0,
              1
            ],
            "origin": [
              0,
              0,
              -0
            ]
          }
        },
        {
          "type": "plane",
          "plane": {
            "xAxis": [
              -0,
              1,
              0
            ],
            "yAxis": [
              0,
              -0,
              1
            ],
            "origin": [
              0.001,
              0,
              -0
            ]
          }
        },
        {
          "type": "plane",
          "plane": {
            "xAxis": [
              1,
              0,
              0
            ],
            "yAxis": [
              0,
              -0.037388810149408674,
              0.999300793993286
            ],
            "origin": [
              0.0015,
              -0.001195,
              -0.00021
            ]
          }
        },
        {
          "type": "plane",
          "plane": {
            "xAxis": [
              1,
              0,
              0
            ],
            "yAxis": [
              0,
              -0.6923800997189933,
              -0.7215329497071613
            ],
            "origin": [
              0.0015,
              -0.00019,
              -0.00069
            ]
          }
        },
        {
          "type": "plane",
          "plane": {
            "xAxis": [
              1,
              0,
              -0
            ],
            "yAxis": [
              -0,
              0.9023620193119682,
              -0.4309788696713878
            ],
            "origin": [
              0.0015,
              -0.000245,
              0.00078
            ]
          }
        },
        {
          "type": "plane",
          "plane": {
            "xAxis": [
              -0,
              1,
              0
            ],
            "yAxis": [
              0,
              -0,
              1
            ],
            "origin": [
              0.002,
              0,
              -0
            ]
          }
        }
      ],
      "curves3D": [
        {
          "type": "line",
          "line": {
            "origin": [
              0,
              -0.00411,
              -0.00529
            ],
            "direction": [
              0,
              0.8876092539010522,
              0.46059723445676226
            ]
          }
        },
        {
          "type": "line",
          "line": {
            "origin": [
              0,
              0.00514,
              -0.00049
            ],
            "direction": [
              1,
              0,
              -0
            ]
          }
        },
        {
          "type": "line",
          "line": {
            "origin": [
              0.001,
              -0.00411,
              -0.00529
            ],
            "direction": [
              0,
              0.8876092539010522,
              0.46059723445676226
            ]
          }
        },
        {
          "type": "line",
          "line": {
            "origin": [
              0,
              -0.00411,
              -0.00529
            ],
            "direction": [
              1,
              0,
              -0
            ]
          }
        },
        {
          "type": "line",
          "line": {
            "origin": [
              0,
              0.00514,
              -0.00049
            ],
            "direction": [
              0,
              -0.8876092539010522,
              0.4605972344567622
            ]
          }
        },
        {
          "type": "line",
          "line": {
            "origin": [
              0,
              -0.00411,
              0.00431
            ],
            "direction": [
              1,
              0,
              -0
            ]
          }
        },
        {
          "type": "line",
          "line": {
            "origin": [
              0.001,
              0.00514,
              -0.00049
            ],
            "direction": [
              0,
              -0.8876092539010522,
              0.4605972344567622
            ]
          }
        },
        {
          "type": "line",
          "line": {
            "origin": [
              0,
              -0.00411,
              0.00431
            ],
            "direction": [
              0,
              0,
              -1
            ]
          }
        },
        {
          "type": "line",
          "line": {
            "origin": [
              0.001,
              -0.00411,
              0.00431
            ],
            "direction": [
              0,
              0,
              -1
            ]
          }
        },
        {
          "type": "line",
          "line": {
            "origin": [
              0.001,
              0.00076,
              0.0003
            ],
            "direction": [
              0,
              -0.9023620172804064,
              0.4309788739249703
            ]
          }
        },
        {
          "type": "line",
          "line": {
            "origin": [
              0.001,
              -0.00114,
              -0.00168
            ],
            "direction": [
              0,
              0.6923801015595329,
              0.7215329479409869
            ]
          }
        },
        {
          "type": "line",
          "line": {
            "origin": [
              0.001,
              -0.00125,
              0.00126
            ],
            "direction": [
              0,
              0.037388805224330406,
              -0.9993007941775576
            ]
          }
        },
        {
          "type": "line",
          "line": {
            "origin": [
              0.001,
              -0.00114,
              -0.00168
            ],
            "direction": [
              1,
              0,
              -0
            ]
          }
        },
        {
          "type": "line",
          "line": {
            "origin": [
              0.002,
              -0.00125,
              0.00126
            ],
            "direction": [
              0,
              0.037388805224330406,
              -0.9993007941775576
            ]
          }
        },
        {
          "type": "line",
          "line": {
            "origin": [
              0.001,
              -0.00125,
              0.00126
            ],
            "direction": [
              1,
              0,
              -0
            ]
          }
        },
        {
          "type": "line",
          "line": {
            "origin": [
              0.001,
              0.00076,
              0.0003
            ],
            "direction": [
              1,
              0,
              -0
            ]
          }
        },
        {
          "type": "line",
          "line": {
            "origin": [
              0.002,
              -0.00114,
              -0.00168
            ],
            "direction": [
              0,
              0.6923801015595329,
              0.7215329479409869
            ]
          }
        },
        {
          "type": "line",
          "line": {
            "origin": [
              0.002,
              0.00076,
              0.0003
            ],
            "direction": [
              0,
              -0.9023620172804064,
              0.4309788739249703
            ]
          }
        }
      ]
    }
  },
  "extensionsUsed": [
    "KITTYCAD_boundary_representation"
  ],
  "materials": [
    {
      "alphaMode": "OPAQUE",
      "doubleSided": false,
      "pbrMetallicRoughness": {
        "baseColorFactor": [
          0.9,
          0.9,
          0.9,
          1
        ],
        "metallicFactor": 1,
        "roughnessFactor": 1
      },
      "emissiveFactor": [
        0,
        0,
        0
      ]
    }
  ],
  "meshes": [
    {
      "primitives": [
        {
          "attributes": {
            "POSITION": 0,
            "NORMAL": 1
          },
          "material": 0
        },
        {
          "attributes": {
            "POSITION": 2,
            "NORMAL": 3
          },
          "material": 0
        },
        {
          "attributes": {
            "POSITION": 4,
            "NORMAL": 5
          },
          "material": 0
        },
        {
          "attributes": {
            "POSITION": 6,
            "NORMAL": 7
          },
          "material": 0
        },
        {
          "attributes": {
            "POSITION": 8,
            "NORMAL": 9
          },
          "material": 0
        },
        {
          "attributes": {
            "POSITION": 10,
            "NORMAL": 11
          },
          "material": 0
        },
        {
          "attributes": {
            "POSITION": 12,
            "NORMAL": 13
          },
          "material": 0
        },
        {
          "attributes": {
            "POSITION": 14,
            "NORMAL": 15
          },
          "material": 0
        },
        {
          "attributes": {
            "POSITION": 16,
            "NORMAL": 17
          },
          "material": 0
        }
      ]
    }
  ],
  "nodes": [
    {
      "children": [
        1
      ]
    },
    {
      "children": [
        2
      ]
    },
    {
      "extensions": {
        "KITTYCAD_boundary_representation": {
          "solid": 0
        }
      },
      "mesh": 0
    }
  ],
  "scenes": [
    {
      "nodes": [
        0
      ]
    }
  ]
}