{
  "accessors": [
    {
      "bufferView": 0,
      "byteOffset": 0,
      "count": 384,
      "componentType": 5126,
      "type": "VEC3",
      "min": [
        -0.009999999776482582,
        -0.009999999776482582,
        0
      ],
      "max": [
        0.009999999776482582,
        0.0000000000000000012246467905466221,
        0.0020000000949949026
      ]
    },
    {
      "bufferView": 0,
      "byteOffset": 12,
      "count": 384,
      "componentType": 5126,
      "type": "VEC3"
    },
    {
      "bufferView": 1,
      "byteOffset": 0,
      "count": 378,
      "componentType": 5126,
      "type": "VEC3",
      "min": [
        -0.009999999776482582,
        -0.009999999776482582,
        0
      ],
      "max": [
        0.009999999776482582,
        0.009999999776482582,
        0
      ]
    },
    {
      "bufferView": 1,
      "byteOffset": 12,
      "count": 378,
      "componentType": 5126,
      "type": "VEC3"
    },
    {
      "bufferView": 2,
      "byteOffset": 0,
      "count": 750,
      "componentType": 5126,
      "type": "VEC3",
      "min": [
        -0.009999999776482582,
        -0.009999999776482582,
        0.0020000000949949026
      ],
      "max": [
        0.009999999776482582,
        0.009999999776482582,
        0.0020000000949949026
      ]
    },
    {
      "bufferView": 2,
      "byteOffset": 12,
      "count": 750,
      "componentType": 5126,
      "type": "VEC3"
    },
    {
      "bufferView": 3,
      "byteOffset": 0,
      "count": 96,
      "componentType": 5126,
      "type": "VEC3",
      "min": [
        -0.0004799999878741801,
        0.007309999782592058,
        0.0020000000949949026
      ],
      "max": [
        0.0004799999878741801,
        0.007790000177919865,
        0.004000000189989805
      ]
    },
    {
      "bufferView": 3,
      "byteOffset": 12,
      "count": 96,
      "componentType": 5126,
      "type": "VEC3"
    },
    {
      "bufferView": 4,
      "byteOffset": 0,
      "count": 66,
      "componentType": 5126,
      "type": "VEC3",
      "min": [
        -0.0004799999878741801,
        0.007309999782592058,
        0.004000000189989805
      ],
      "max": [
        0.0004799999878741801,
        0.008270000107586384,
        0.004000000189989805
      ]
    },
    {
      "bufferView": 4,
      "byteOffset": 12,
      "count": 66,
      "componentType": 5126,
      "type": "VEC3"
    },
    {
      "bufferView": 5,
      "byteOffset": 0,
      "count": 48,
      "componentType": 5126,
      "type": "VEC3",
      "min": [
        0.006270446348935366,
        0.0034191065933555365,
        0.0020000000949949026
      ],
      "max": [
        0.006986340042203665,
        0.004310692194849253,
        0.004000000189989805
      ]
    },
    {
      "bufferView": 5,
      "byteOffset": 12,
      "count": 48,
      "componentType": 5126,
      "type": "VEC3"
    },
    {
      "bufferView": 6,
      "byteOffset": 0,
      "count": 42,
      "componentType": 5126,
      "type": "VEC3",
      "min": [
        0.006270446348935366,
        0.0034191065933555365,
        0.004000000189989805
      ],
      "max": [
        0.007222233340144157,
        0.0043708933517336845,
        0.004000000189989805
      ]
    },
    {
      "bufferView": 6,
      "byteOffset": 12,
      "count": 42,
      "componentType": 5126,
      "type": "VEC3"
    },
    {
      "bufferView": 7,
      "byteOffset": 0,
      "count": 48,
      "componentType": 5126,
      "type": "VEC3",
      "min": [
        0.006270446348935366,
        -0.004310689866542816,
        0.0020000000949949026
      ],
      "max": [
        0.006986340042203665,
        -0.0034191065933555365,
        0.004000000189989805
      ]
    },
    {
      "bufferView": 7,
      "byteOffset": 12,
      "count": 48,
      "componentType": 5126,
      "type": "VEC3"
    },
    {
      "bufferView": 8,
      "byteOffset": 0,
      "count": 42,
      "componentType": 5126,
      "type": "VEC3",
      "min": [
        0.006270446348935366,
        -0.0043708933517336845,
        0.004000000189989805
      ],
      "max": [
        0.007222233340144157,
        -0.0034191065933555365,
        0.004000000189989805
      ]
    },
    {
      "bufferView": 8,
      "byteOffset": 12,
      "count": 42,
      "componentType": 5126,
      "type": "VEC3"
    },
    {
      "bufferView": 9,
      "byteOffset": 0,
      "count": 96,
      "componentType": 5126,
      "type": "VEC3",
      "min": [
        -0.0004799999878741801,
        -0.007790000177919865,
        0.0020000000949949026
      ],
      "max": [
        0.0004799999878741801,
        -0.007309999782592058,
        0.004000000189989805
      ]
    },
    {
      "bufferView": 9,
      "byteOffset": 12,
      "count": 96,
      "componentType": 5126,
      "type": "VEC3"
    },
    {
      "bufferView": 10,
      "byteOffset": 0,
      "count": 66,
      "componentType": 5126,
      "type": "VEC3",
      "min": [
        -0.0004799999878741801,
        -0.008270000107586384,
        0.004000000189989805
      ],
      "max": [
        0.0004799999878741801,
        -0.007309999782592058,
        0.004000000189989805
      ]
    },
    {
      "bufferView": 10,
      "byteOffset": 12,
      "count": 66,
      "componentType": 5126,
      "type": "VEC3"
    },
    {
      "bufferView": 11,
      "byteOffset": 0,
      "count": 48,
      "componentType": 5126,
      "type": "VEC3",
      "min": [
        -0.006986340042203665,
        -0.004310692194849253,
        0.0020000000949949026
      ],
      "max": [
        -0.006270446348935366,
        -0.0034191065933555365,
        0.004000000189989805
      ]
    },
    {
      "bufferView": 11,
      "byteOffset": 12,
      "count": 48,
      "componentType": 5126,
      "type": "VEC3"
    },
    {
      "bufferView": 12,
      "byteOffset": 0,
      "count": 42,
      "componentType": 5126,
      "type": "VEC3",
      "min": [
        -0.007222233340144157,
        -0.0043708933517336845,
        0.004000000189989805
      ],
      "max": [
        -0.006270446348935366,
        -0.0034191065933555365,
        0.004000000189989805
      ]
    },
    {
      "bufferView": 12,
      "byteOffset": 12,
      "count": 42,
      "componentType": 5126,
      "type": "VEC3"
    },
    {
      "bufferView": 13,
      "byteOffset": 0,
      "count": 48,
      "componentType": 5126,
      "type": "VEC3",
      "min": [
        -0.006986340042203665,
        0.0034191065933555365,
        0.0020000000949949026
      ],
      "max": [
        -0.006270446348935366,
        0.004310689866542816,
        0.004000000189989805
      ]
    },
    {
      "bufferView": 13,
      "byteOffset": 12,
      "count": 48,
      "componentType": 5126,
      "type": "VEC3"
    },
    {
      "bufferView": 14,
      "byteOffset": 0,
      "count": 42,
      "componentType": 5126,
      "type": "VEC3",
      "min": [
        -0.007222233340144157,
        0.0034191065933555365,
        0.004000000189989805
      ],
      "max": [
        -0.006270446348935366,
        0.0043708933517336845,
        0.004000000189989805
      ]
    },
    {
      "bufferView": 14,
      "byteOffset": 12,
      "count": 42,
      "componentType": 5126,
      "type": "VEC3"
    },
    {
      "bufferView": 15,
      "byteOffset": 0,
      "count": 384,
      "componentType": 5126,
      "type": "VEC3",
      "min": [
        -0.009999999776482582,
        0,
        0
      ],
      "max": [
        0.009999999776482582,
        0.009999999776482582,
        0.0020000000949949026
      ]
    },
    {
      "bufferView": 15,
      "byteOffset": 12,
      "count": 384,
      "componentType": 5126,
      "type": "VEC3"
    },
    {
      "bufferView": 16,
      "byteOffset": 0,
      "count": 48,
      "componentType": 5126,
      "type": "VEC3",
      "min": [
        -0.0004799999878741801,
        0.007790000177919865,
        0.0020000000949949026
      ],
      "max": [
        0.0004799999878741801,
        0.008270000107586384,
        0.004000000189989805
      ]
    },
    {
      "bufferView": 16,
      "byteOffset": 12,
      "count": 48,
      "componentType": 5126,
      "type": "VEC3"
    },
    {
      "bufferView": 17,
      "byteOffset": 0,
      "count": 48,
      "componentType": 5126,
      "type": "VEC3",
      "min": [
        0.006506340112537146,
        0.003479310078546405,
        0.0020000000949949026
      ],
      "max": [
        0.007222233340144157,
        0.0043708933517336845,
        0.004000000189989805
      ]
    },
    {
      "bufferView": 17,
      "byteOffset": 12,
      "count": 48,
      "componentType": 5126,
      "type": "VEC3"
    },
    {
      "bufferView": 18,
      "byteOffset": 0,
      "count": 48,
      "componentType": 5126,
      "type": "VEC3",
      "min": [
        0.006506340112537146,
        -0.0043708933517336845,
        0.0020000000949949026
      ],
      "max": [
        0.007222233340144157,
        -0.0034793077502399683,
        0.004000000189989805
      ]
    },
    {
      "bufferView": 18,
      "byteOffset": 12,
      "count": 48,
      "componentType": 5126,
      "type": "VEC3"
    },
    {
      "bufferView": 19,
      "byteOffset": 0,
      "count": 48,
      "componentType": 5126,
      "type": "VEC3",
      "min": [
        -0.0004799999878741801,
        -0.008270000107586384,
        0.0020000000949949026
      ],
      "max": [
        0.0004799999878741801,
        -0.007790000177919865,
        0.004000000189989805
      ]
    },
    {
      "bufferView": 19,
      "byteOffset": 12,
      "count": 48,
      "componentType": 5126,
      "type": "VEC3"
    },
    {
      "bufferView": 20,
      "byteOffset": 0,
      "count": 48,
      "componentType": 5126,
      "type": "VEC3",
      "min": [
        -0.007222233340144157,
        -0.0043708933517336845,
        0.0020000000949949026
      ],
      "max": [
        -0.006506340112537146,
        -0.003479310078546405,
        0.004000000189989805
      ]
    },
    {
      "bufferView": 20,
      "byteOffset": 12,
      "count": 48,
      "componentType": 5126,
      "type": "VEC3"
    },
    {
      "bufferView": 21,
      "byteOffset": 0,
      "count": 48,
      "componentType": 5126,
      "type": "VEC3",
      "min": [
        -0.007222233340144157,
        0.0034793077502399683,
        0.0020000000949949026
      ],
      "max": [
        -0.006506340112537146,
        0.0043708933517336845,
        0.004000000189989805
      ]
    },
    {
      "bufferView": 21,
      "byteOffset": 12,
      "count": 48,
      "componentType": 5126,
      "type": "VEC3"
    }
  ],
  "asset": {
    "generator": "zoo.dev",
    "version": "2.0"
  },
  "buffers": [
    {
      "byteLength": 68832,
      "uri": "data:application/octet-stream;base64,"
    }
  ],
  "bufferViews": [
    {
      "buffer": 0,
      "byteLength": 9216,
      "byteOffset": 0,
      "byteStride": 24,
      "target": 34962
    },
    {
      "buffer": 0,
      "byteLength": 9072,
      "byteOffset": 9216,
      "byteStride": 24,
      "target": 34962
    },
    {
      "buffer": 0,
      "byteLength": 18000,
      "byteOffset": 18288,
      "byteStride": 24,
      "target": 34962
    },
    {
      "buffer": 0,
      "byteLength": 2304,
      "byteOffset": 36288,
      "byteStride": 24,
      "target": 34962
    },
    {
      "buffer": 0,
      "byteLength": 1584,
      "byteOffset": 38592,
      "byteStride": 24,
      "target": 34962
    },
    {
      "buffer": 0,
      "byteLength": 1152,
      "byteOffset": 40176,
      "byteStride": 24,
      "target": 34962
    },
    {
      "buffer": 0,
      "byteLength": 1008,
      "byteOffset": 41328,
      "byteStride": 24,
      "target": 34962
    },
    {
      "buffer": 0,
      "byteLength": 1152,
      "byteOffset": 42336,
      "byteStride": 24,
      "target": 34962
    },
    {
      "buffer": 0,
      "byteLength": 1008,
      "byteOffset": 43488,
      "byteStride": 24,
      "target": 34962
    },
    {
      "buffer": 0,
      "byteLength": 2304,
      "byteOffset": 44496,
      "byteStride": 24,
      "target": 34962
    },
    {
      "buffer": 0,
      "byteLength": 1584,
      "byteOffset": 46800,
      "byteStride": 24,
      "target": 34962
    },
    {
      "buffer": 0,
      "byteLength": 1152,
      "byteOffset": 48384,
      "byteStride": 24,
      "target": 34962
    },
    {
      "buffer": 0,
      "byteLength": 1008,
      "byteOffset": 49536,
      "byteStride": 24,
      "target": 34962
    },
    {
      "buffer": 0,
      "byteLength": 1152,
      "byteOffset": 50544,
      "byteStride": 24,
      "target": 34962
    },
    {
      "buffer": 0,
      "byteLength": 1008,
      "byteOffset": 51696,
      "byteStride": 24,
      "target": 34962
    },
    {
      "buffer": 0,
      "byteLength": 9216,
      "byteOffset": 52704,
      "byteStride": 24,
      "target": 34962
    },
    {
      "buffer": 0,
      "byteLength": 1152,
      "byteOffset": 61920,
      "byteStride": 24,
      "target": 34962
    },
    {
      "buffer": 0,
      "byteLength": 1152,
      "byteOffset": 63072,
      "byteStride": 24,
      "target": 34962
    },
    {
      "buffer": 0,
      "byteLength": 1152,
      "byteOffset": 64224,
      "byteStride": 24,
      "target": 34962
    },
    {
      "buffer": 0,
      "byteLength": 1152,
      "byteOffset": 65376,
      "byteStride": 24,
      "target": 34962
    },
    {
      "buffer": 0,
      "byteLength": 1152,
      "byteOffset": 66528,
      "byteStride": 24,
      "target": 34962
    },
    {
      "buffer": 0,
      "byteLength": 1152,
      "byteOffset": 67680,
      "byteStride": 24,
      "target": 34962
    }
  ],
  "scene": 0,
  "extensions": {
    "KITTYCAD_boundary_representation": {
      "solids": [
        {
          "shells": [
            [
              0,
              1
            ]
          ],
          "mesh": 0,
          "extras": {
            "KITTYCAD": {
              "material": 0
            }
          }
        }
      ],
      "shells": [
        {
          "faces": [
            [
              0,
              1
            ],
            [
              1,
              1
            ],
            [
              2,
              1
            ],
            [
              3,
              1
            ],
            [
              4,
              1
            ],
            [
              5,
              1
            ],
            [
              6,
              1
            ],
            [
              7,
              1
            ],
            [
              8,
              1
            ],
            [
              9,
              1
            ],
            [
              10,
              1
            ],
            [
              11,
              1
            ],
            [
              12,
              1
            ],
            [
              13,
              1
            ],
            [
              14,
              1
            ],
            [
              15,
              1
            ],
            [
              16,
              1
            ],
            [
              17,
              1
            ],
            [
              18,
              1
            ],
            [
              19,
              1
            ],
            [
              20,
              1
            ],
            [
              21,
              1
            ]
          ]
        }
      ],
      "faces": [
        {
          "surface": [
            0,
            1
          ],
          "loops": [
            [
              0,
              1
            ]
          ]
        },
        {
          "surface": [
            1,
            -1
          ],
          "loops": [
            [
              1,
              1
            ]
          ]
        },
        {
          "surface": [
            2,
            1
          ],
          "loops": [
            [
              2,
              1
            ],
            [
              3,
              1
            ],
            [
              4,
              1
            ],
            [
              5,
              1
            ],
            [
              6,
              1
            ],
            [
              7,
              1
            ],
            [
              8,
              1
            ]
          ]
        },
        {
          "surface": [
            3,
            1
          ],
          "loops": [
            [
              9,
              1
            ]
          ]
        },
        {
          "surface": [
            4,
            1
          ],
          "loops": [
            [
              10,
              1
            ]
          ]
        },
        {
          "surface": [
            5,
            1
          ],
          "loops": [
            [
              11,
              1
            ]
          ]
        },
        {
          "surface": [
            6,
            1
          ],
          "loops": [
            [
              12,
              1
            ]
          ]
        },
        {
          "surface": [
            7,
            1
          ],
          "loops": [
            [
              13,
              1
            ]
          ]
        },
        {
          "surface": [
            8,
            1
          ],
          "loops": [
            [
              14,
              1
            ]
          ]
        },
        {
          "surface": [
            9,
            1
          ],
          "loops": [
            [
              15,
              1
            ]
          ]
        },
        {
          "surface": [
            10,
            1
          ],
          "loops": [
            [
              16,
              1
            ]
          ]
        },
        {
          "surface": [
            11,
            1
          ],
          "loops": [
            [
              17,
              1
            ]
          ]
        },
        {
          "surface": [
            12,
            1
          ],
          "loops": [
            [
              18,
              1
            ]
          ]
        },
        {
          "surface": [
            13,
            1
          ],
          "loops": [
            [
              19,
              1
            ]
          ]
        },
        {
          "surface": [
            14,
            1
          ],
          "loops": [
            [
              20,
              1
            ]
          ]
        },
        {
          "surface": [
            0,
            1
          ],
          "loops": [
            [
              21,
              1
            ]
          ]
        },
        {
          "surface": [
            3,
            1
          ],
          "loops": [
            [
              22,
              1
            ]
          ]
        },
        {
          "surface": [
            5,
            1
          ],
          "loops": [
            [
              23,
              1
            ]
          ]
        },
        {
          "surface": [
            7,
            1
          ],
          "loops": [
            [
              24,
              1
            ]
          ]
        },
        {
          "surface": [
            9,
            1
          ],
          "loops": [
            [
              25,
              1
            ]
          ]
        },
        {
          "surface": [
            11,
            1
          ],
          "loops": [
            [
              26,
              1
            ]
          ]
        },
        {
          "surface": [
            13,
            1
          ],
          "loops": [
            [
              27,
              1
            ]
          ]
        }
      ],
      "loops": [
        {
          "edges": [
            [
              0,
              1
            ],
            [
              1,
              1
            ],
            [
              2,
              -1
            ],
            [
              3,
              -1
            ]
          ]
        },
        {
          "edges": [
            [
              1,
              -1
            ],
            [
              4,
              -1
            ]
          ]
        },
        {
          "edges": [
            [
              5,
              1
            ],
            [
              3,
              1
            ]
          ]
        },
        {
          "edges": [
            [
              6,
              -1
            ],
            [
              7,
              -1
            ]
          ]
        },
        {
          "edges": [
            [
              8,
              -1
            ],
            [
              9,
              -1
            ]
          ]
        },
        {
          "edges": [
            [
              10,
              -1
            ],
            [
              11,
              -1
            ]
          ]
        },
        {
          "edges": [
            [
              12,
              -1
            ],
            [
              13,
              -1
            ]
          ]
        },
        {
          "edges": [
            [
              14,
              -1
            ],
            [
              15,
              -1
            ]
          ]
        },
        {
          "edges": [
            [
              16,
              -1
            ],
            [
              17,
              -1
            ]
          ]
        },
        {
          "edges": [
            [
              18,
              1
            ],
            [
              6,
              1
            ],
            [
              19,
              -1
            ],
            [
              20,
              -1
            ]
          ]
        },
        {
          "edges": [
            [
              21,
              1
            ],
            [
              20,
              1
            ]
          ]
        },
        {
          "edges": [
            [
              22,
              1
            ],
            [
              8,
              1
            ],
            [
              23,
              -1
            ],
            [
              24,
              -1
            ]
          ]
        },
        {
          "edges": [
            [
              25,
              1
            ],
            [
              24,
              1
            ]
          ]
        },
        {
          "edges": [
            [
              26,
              1
            ],
            [
              10,
              1
            ],
            [
              27,
              -1
            ],
            [
              28,
              -1
            ]
          ]
        },
        {
          "edges": [
            [
              29,
              1
            ],
            [
              28,
              1
            ]
          ]
        },
        {
          "edges": [
            [
              30,
              1
            ],
            [
              12,
              1
            ],
            [
              31,
              -1
            ],
            [
              32,
              -1
            ]
          ]
        },
        {
          "edges": [
            [
              33,
              1
            ],
            [
              32,
              1
            ]
          ]
        },
        {
          "edges": [
            [
              34,
              1
            ],
            [
              14,
              1
            ],
            [
              35,
              -1
            ],
            [
              36,
              -1
            ]
          ]
        },
        {
          "edges": [
            [
              37,
              1
            ],
            [
              36,
              1
            ]
          ]
        },
        {
          "edges": [
            [
              38,
              1
            ],
            [
              16,
              1
            ],
            [
              39,
              -1
            ],
            [
              40,
              -1
            ]
          ]
        },
        {
          "edges": [
            [
              41,
              1
            ],
            [
              40,
              1
            ]
          ]
        },
        {
          "edges": [
            [
              0,
              -1
            ],
            [
              5,
              -1
            ],
            [
              2,
              1
            ],
            [
              4,
              1
            ]
          ]
        },
        {
          "edges": [
            [
              18,
              -1
            ],
            [
              21,
              -1
            ],
            [
              19,
              1
            ],
            [
              7,
              1
            ]
          ]
        },
        {
          "edges": [
            [
              22,
              -1
            ],
            [
              25,
              -1
            ],
            [
              23,
              1
            ],
            [
              9,
              1
            ]
          ]
        },
        {
          "edges": [
            [
              26,
              -1
            ],
            [
              29,
              -1
            ],
            [
              27,
              1
            ],
            [
              11,
              1
            ]
          ]
        },
        {
          "edges": [
            [
              30,
              -1
            ],
            [
              33,
              -1
            ],
            [
              31,
              1
            ],
            [
              13,
              1
            ]
          ]
        },
        {
          "edges": [
            [
              34,
              -1
            ],
            [
              37,
              -1
            ],
            [
              35,
              1
            ],
            [
              15,
              1
            ]
          ]
        },
        {
          "edges": [
            [
              38,
              -1
            ],
            [
              41,
              -1
            ],
            [
              39,
              1
            ],
            [
              17,
              1
            ]
          ]
        }
      ],
      "edges": [
        {
          "curve": [
            0,
            -1
          ],
          "start": 0,
          "end": 1,
          "t": [
            -0.001,
            0.001
          ]
        },
        {
          "curve": [
            1,
            1
          ],
          "start": 1,
          "end": 2,
          "t": [
            3.141592653589793,
            6.283185307179586
          ]
        },
        {
          "curve": [
            2,
            -1
          ],
          "start": 3,
          "end": 2,
          "t": [
            -0.001,
            0.001
          ]
        },
        {
          "curve": [
            3,
            1
          ],
          "start": 0,
          "end": 3,
          "t": [
            3.141592653589793,
            6.283185307179586
          ]
        },
        {
          "curve": [
            1,
            1
          ],
          "start": 2,
          "end": 1,
          "t": [
            0,
            3.141592653589793
          ]
        },
        {
          "curve": [
            3,
            1
          ],
          "start": 3,
          "end": 0,
          "t": [
            0,
            3.141592653589793
          ]
        },
        {
          "curve": [
            4,
            1
          ],
          "start": 4,
          "end": 5,
          "t": [
            3.141592653589792,
            6.283185307179586
          ]
        },
        {
          "curve": [
            4,
            1
          ],
          "start": 5,
          "end": 4,
          "t": [
            0,
            3.141592653589792
          ]
        },
        {
          "curve": [
            5,
            1
          ],
          "start": 6,
          "end": 7,
          "t": [
            3.1415926535897936,
            6.2831875905219645
          ]
        },
        {
          "curve": [
            5,
            1
          ],
          "start": 7,
          "end": 6,
          "t": [
            0.0000022833423782272196,
            3.1415926535897936
          ]
        },
        {
          "curve": [
            6,
            1
          ],
          "start": 8,
          "end": 9,
          "t": [
            9.42477796076938,
            12.566368331016792
          ]
        },
        {
          "curve": [
            6,
            1
          ],
          "start": 9,
          "end": 8,
          "t": [
            6.283183023837207,
            9.42477796076938
          ]
        },
        {
          "curve": [
            7,
            1
          ],
          "start": 10,
          "end": 11,
          "t": [
            3.141592653589792,
            6.283185307179586
          ]
        },
        {
          "curve": [
            7,
            1
          ],
          "start": 11,
          "end": 10,
          "t": [
            0,
            3.141592653589792
          ]
        },
        {
          "curve": [
            8,
            1
          ],
          "start": 12,
          "end": 13,
          "t": [
            3.1415926535897936,
            6.2831875905219645
          ]
        },
        {
          "curve": [
            8,
            1
          ],
          "start": 13,
          "end": 12,
          "t": [
            0.0000022833423782272196,
            3.1415926535897936
          ]
        },
        {
          "curve": [
            9,
            1
          ],
          "start": 14,
          "end": 15,
          "t": [
            9.42477796076938,
            12.566368331016792
          ]
        },
        {
          "curve": [
            9,
            1
          ],
          "start": 15,
          "end": 14,
          "t": [
            6.283183023837207,
            9.42477796076938
          ]
        },
        {
          "curve": [
            10,
            -1
          ],
          "start": 16,
          "end": 4,
          "t": [
            -0.001,
            0.0009999999999999996
          ]
        },
        {
          "curve": [
            11,
            -1
          ],
          "start": 17,
          "end": 5,
          "t": [
            -0.001,
            0.001
          ]
        },
        {
          "curve": [
            12,
            1
          ],
          "start": 16,
          "end": 17,
          "t": [
            3.141592653589792,
            6.283185307179586
          ]
        },
        {
          "curve": [
            12,
            1
          ],
          "start": 17,
          "end": 16,
          "t": [
            0,
            3.141592653589792
          ]
        },
        {
          "curve": [
            13,
            -1
          ],
          "start": 18,
          "end": 6,
          "t": [
            -0.001,
            0.0009999999999999996
          ]
        },
        {
          "curve": [
            14,
            -1
          ],
          "start": 19,
          "end": 7,
          "t": [
            -0.001,
            0.001
          ]
        },
        {
          "curve": [
            15,
            1
          ],
          "start": 18,
          "end": 19,
          "t": [
            3.1415926535897936,
            6.2831875905219645
          ]
        },
        {
          "curve": [
            15,
            1
          ],
          "start": 19,
          "end": 18,
          "t": [
            0.0000022833423782272196,
            3.1415926535897936
          ]
        },
        {
          "curve": [
            16,
            -1
          ],
          "start": 20,
          "end": 8,
          "t": [
            -0.001,
            0.0009999999999999996
          ]
        },
        {
          "curve": [
            17,
            -1
          ],
          "start": 21,
          "end": 9,
          "t": [
            -0.001,
            0.001
          ]
        },
        {
          "curve": [
            18,
            1
          ],
          "start": 20,
          "end": 21,
          "t": [
            9.42477796076938,
            12.566368331016792
          ]
        },
        {
          "curve": [
            18,
            1
          ],
          "start": 21,
          "end": 20,
          "t": [
            6.283183023837207,
            9.42477796076938
          ]
        },
        {
          "curve": [
            19,
            -1
          ],
          "start": 22,
          "end": 10,
          "t": [
            -0.001,
            0.0009999999999999996
          ]
        },
        {
          "curve": [
            20,
            -1
          ],
          "start": 23,
          "end": 11,
          "t": [
            -0.001,
            0.001
          ]
        },
        {
          "curve": [
            21,
            1
          ],
          "start": 22,
          "end": 23,
          "t": [
            3.141592653589792,
            6.283185307179586
          ]
        },
        {
          "curve": [
            21,
            1
          ],
          "start": 23,
          "end": 22,
          "t": [
            0,
            3.141592653589792
          ]
        },
        {
          "curve": [
            22,
            -1
          ],
          "start": 24,
          "end": 12,
          "t": [
            -0.001,
            0.0009999999999999996
          ]
        },
        {
          "curve": [
            23,
            -1
          ],
          "start": 25,
          "end": 13,
          "t": [
            -0.001,
            0.001
          ]
        },
        {
          "curve": [
            24,
            1
          ],
          "start": 24,
          "end": 25,
          "t": [
            3.1415926535897936,
            6.2831875905219645
          ]
        },
        {
          "curve": [
            24,
            1
          ],
          "start": 25,
          "end": 24,
          "t": [
            0.0000022833423782272196,
            3.1415926535897936
          ]
        },
        {
          "curve": [
            25,
            -1
          ],
          "start": 26,
          "end": 14,
          "t": [
            -0.001,
            0.0009999999999999996
          ]
        },
        {
          "curve": [
            26,
            -1
          ],
          "start": 27,
          "end": 15,
          "t": [
            -0.001,
            0.001
          ]
        },
        {
          "curve": [
            27,
            1
          ],
          "start": 26,
          "end": 27,
          "t": [
            9.42477796076938,
            12.566368331016792
          ]
        },
        {
          "curve": [
            27,
            1
          ],
          "start": 27,
          "end": 26,
          "t": [
            6.283183023837207,
            9.42477796076938
          ]
        }
      ],
      "vertices": [
        [
          -0.01,
          0.0000000000000000012246467991473532,
          0.002
        ],
        [
          -0.01,
          0.0000000000000000012246467991473532,
          0
        ],
        [
          0.01,
          0,
          -0
        ],
        [
          0.01,
          0,
          0.002
        ],
        [
          -0.00048,
          0.007790000000000001,
          0.002
        ],
        [
          0.00048,
          0.00779,
          0.002
        ],
        [
          0.006506339999213419,
          0.004310692193362398,
          0.002
        ],
        [
          0.00698634,
          0.00347931,
          0.002
        ],
        [
          0.006986340000786581,
          -0.0034793078066376023,
          0.002
        ],
        [
          0.00650634,
          -0.00431069,
          0.002
        ],
        [
          0.00048,
          -0.007790000000000001,
          0.002
        ],
        [
          -0.00048,
          -0.00779,
          0.002
        ],
        [
          -0.006506339999213419,
          -0.004310692193362398,
          0.002
        ],
        [
          -0.00698634,
          -0.00347931,
          0.002
        ],
        [
          -0.006986340000786581,
          0.0034793078066376023,
          0.002
        ],
        [
          -0.00650634,
          0.00431069,
          0.002
        ],
        [
          -0.00048,
          0.007790000000000001,
          0.004
        ],
        [
          0.00048,
          0.00779,
          0.004
        ],
        [
          0.006506339999213419,
          0.004310692193362398,
          0.004
        ],
        [
          0.00698634,
          0.00347931,
          0.004
        ],
        [
          0.006986340000786581,
          -0.0034793078066376023,
          0.004
        ],
        [
          0.00650634,
          -0.00431069,
          0.004
        ],
        [
          0.00048,
          -0.007790000000000001,
          0.004
        ],
        [
          -0.00048,
          -0.00779,
          0.004
        ],
        [
          -0.006506339999213419,
          -0.004310692193362398,
          0.004
        ],
        [
          -0.00698634,
          -0.00347931,
          0.004
        ],
        [
          -0.006986340000786581,
          0.0034793078066376023,
          0.004
        ],
        [
          -0.00650634,
          0.00431069,
          0.004
        ]
      ],
      "surfaces": [
        {
          "type": "cylinder",
          "cylinder": {
            "xAxis": [
              1,
              0,
              -0
            ],
            "yAxis": [
              -0,
              1,
              0
            ],
            "origin": [
              0,
              -0,
              0.001
            ],
            "radius": 0.01
          }
        },
        {
          "type": "plane",
          "plane": {
            "xAxis": [
              1,
              0,
              0
            ],
            "yAxis": [
              0,
              1,
              0
            ],
            "origin": [
              0,
              0,
              0
            ]
          }
        },
        {
          "type": "plane",
          "plane": {
            "xAxis": [
              1,
              0,
              -0
            ],
            "yAxis": [
              -0,
              1,
              0
            ],
            "origin": [
              0,
              0,
              0.002
            ]
          }
        },
        {
          "type": "cylinder",
          "cylinder": {
            "xAxis": [
              1,
              0,
              -0
            ],
            "yAxis": [
              -0,
              1,
              0
            ],
            "origin": [
              -0,
              0.00779,
              0.003
            ],
            "radius": 0.00048
          }
        },
        {
          "type": "plane",
          "plane": {
            "xAxis": [
              1,
              0,
              -0
            ],
            "yAxis": [
              -0,
              1,
              0
            ],
            "origin": [
              0,
              0,
              0.004
            ]
          }
        },
        {
          "type": "cylinder",
          "cylinder": {
            "xAxis": [
              0.5000000016387101,
              -0.8660254028383291,
              0
            ],
            "yAxis": [
              0.8660254028383291,
              0.5000000016387101,
              -0
            ],
            "origin": [
              0.00674634,
              0.003895,
              0.003
            ],
            "radius": 0.00048
          }
        },
        {
          "type": "plane",
          "plane": {
            "xAxis": [
              1,
              0,
              -0
            ],
            "yAxis": [
              -0,
              1,
              0
            ],
            "origin": [
              0,
              0,
              0.004
            ]
          }
        },
        {
          "type": "cylinder",
          "cylinder": {
            "xAxis": [
              -0.5000000016387101,
              -0.8660254028383291,
              0
            ],
            "yAxis": [
              0.8660254028383291,
              -0.5000000016387101,
              0
            ],
            "origin": [
              0.00674634,
              -0.003895,
              0.003
            ],
            "radius": 0.00048
          }
        },
        {
          "type": "plane",
          "plane": {
            "xAxis": [
              1,
              0,
              0
            ],
            "yAxis": [
              -0,
              1,
              0
            ],
            "origin": [
              0,
              0,
              0.004
            ]
          }
        },
        {
          "type": "cylinder",
          "cylinder": {
            "xAxis": [
              -1,
              -0,
              0
            ],
            "yAxis": [
              0,
              -1,
              0
            ],
            "origin": [
              0,
              -0.00779,
              0.003
            ],
            "radius": 0.00048
          }
        },
        {
          "type": "plane",
          "plane": {
            "xAxis": [
              1,
              0,
              0
            ],
            "yAxis": [
              -0,
              1,
              0
            ],
            "origin": [
              0,
              0,
              0.004
            ]
          }
        },
        {
          "type": "cylinder",
          "cylinder": {
            "xAxis": [
              -0.5000000016387101,
              0.8660254028383291,
              0
            ],
            "yAxis": [
              -0.8660254028383291,
              -0.5000000016387101,
              0
            ],
            "origin": [
              -0.00674634,
              -0.003895,
              0.003
            ],
            "radius": 0.00048
          }
        },
        {
          "type": "plane",
          "plane": {
            "xAxis": [
              1,
              0,
              0
            ],
            "yAxis": [
              0,
              1,
              -0
            ],
            "origin": [
              0,
              0,
              0.004
            ]
          }
        },
        {
          "type": "cylinder",
          "cylinder": {
            "xAxis": [
              0.5000000016387101,
              0.8660254028383291,
              -0
            ],
            "yAxis": [
              -0.8660254028383291,
              0.5000000016387101,
              0
            ],
            "origin": [
              -0.00674634,
              0.003895,
              0.003
            ],
            "radius": 0.00048
          }
        },
        {
          "type": "plane",
          "plane": {
            "xAxis": [
              1,
              0,
              -0
            ],
            "yAxis": [
              -0,
              1,
              0
            ],
            "origin": [
              0,
              0,
              0.004
            ]
          }
        }
      ],
      "curves3D": [
        {
          "type": "line",
          "line": {
            "origin": [
              -0.01,
              0.0000000000000000012246467991473532,
              0.001
            ],
            "direction": [
              0,
              0,
              1
            ]
          }
        },
        {
          "type": "circle",
          "circle": {
            "xAxis": [
              1,
              0,
              -0
            ],
            "yAxis": [
              -0,
              1,
              0
            ],
            "origin": [
              0,
              0,
              0
            ],
            "radius": 0.01
          }
        },
        {
          "type": "line",
          "line": {
            "origin": [
              0.01,
              0,
              0.001
            ],
            "direction": [
              0,
              0,
              1
            ]
          }
        },
        {
          "type": "circle",
          "circle": {
            "xAxis": [
              1,
              0,
              -0
            ],
            "yAxis": [
              -0,
              1,
              0
            ],
            "origin": [
              0,
              0,
              0.002
            ],
            "radius": 0.01
          }
        },
        {
          "type": "circle",
          "circle": {
            "xAxis": [
              1,
              0,
              -0
            ],
            "yAxis": [
              -0,
              1,
              0
            ],
            "origin": [
              0,
              0.00779,
              0.002
            ],
            "radius": 0.00048
          }
        },
        {
          "type": "circle",
          "circle": {
            "xAxis": [
              0.5000000016387101,
              -0.8660254028383291,
              0
            ],
            "yAxis": [
              0.8660254028383291,
              0.5000000016387101,
              -0
            ],
            "origin": [
              0.00674634,
              0.003895,
              0.002
            ],
            "radius": 0.00048
          }
        },
        {
          "type": "circle",
          "circle": {
            "xAxis": [
              -0.5000000016387101,
              -0.8660254028383291,
              0
            ],
            "yAxis": [
              0.8660254028383291,
              -0.5000000016387101,
              0
            ],
            "origin": [
              0.00674634,
              -0.003895,
              0.002
            ],
            "radius": 0.00048
          }
        },
        {
          "type": "circle",
          "circle": {
            "xAxis": [
              -1,
              0,
              0
            ],
            "yAxis": [
              0,
              -1,
              0
            ],
            "origin": [
              0,
              -0.00779,
              0.002
            ],
            "radius": 0.00048
          }
        },
        {
          "type": "circle",
          "circle": {
            "xAxis": [
              -0.5000000016387101,
              0.8660254028383291,
              0
            ],
            "yAxis": [
              -0.8660254028383291,
              -0.5000000016387101,
              0
            ],
            "origin": [
              -0.00674634,
              -0.003895,
              0.002
            ],
            "radius": 0.00048
          }
        },
        {
          "type": "circle",
          "circle": {
            "xAxis": [
              0.5000000016387101,
              0.8660254028383291,
              0
            ],
            "yAxis": [
              -0.8660254028383291,
              0.5000000016387101,
              0
            ],
            "origin": [
              -0.00674634,
              0.003895,
              0.002
            ],
            "radius": 0.00048
          }
        },
        {
          "type": "line",
          "line": {
            "origin": [
              -0.00048,
              0.00779,
              0.003
            ],
            "direction": [
              0,
              0,
              1
            ]
          }
        },
        {
          "type": "line",
          "line": {
            "origin": [
              0.00048,
              0.00779,
              0.003
            ],
            "direction": [
              0,
              0,
              1
            ]
          }
        },
        {
          "type": "circle",
          "circle": {
            "xAxis": [
              1,
              0,
              -0
            ],
            "yAxis": [
              -0,
              1,
              0
            ],
            "origin": [
              0,
              0.00779,
              0.004
            ],
            "radius": 0.00048
          }
        },
        {
          "type": "line",
          "line": {
            "origin": [
              0.006506339999213419,
              0.004310692193362398,
              0.003
            ],
            "direction": [
              0,
              0,
              1
            ]
          }
        },
        {
          "type": "line",
          "line": {
            "origin": [
              0.006986340000786581,
              0.0034793078066376023,
              0.003
            ],
            "direction": [
              0,
              0,
              1
            ]
          }
        },
        {
          "type": "circle",
          "circle": {
            "xAxis": [
              0.5000000016387101,
              -0.8660254028383291,
              0
            ],
            "yAxis": [
              0.8660254028383291,
              0.5000000016387101,
              -0
            ],
            "origin": [
              0.00674634,
              0.003895,
              0.004
            ],
            "radius": 0.00048
          }
        },
        {
          "type": "line",
          "line": {
            "origin": [
              0.006986340000786581,
              -0.0034793078066376023,
              0.003
            ],
            "direction": [
              0,
              0,
              1
            ]
          }
        },
        {
          "type": "line",
          "line": {
            "origin": [
              0.006506339999213419,
              -0.004310692193362398,
              0.003
            ],
            "direction": [
              0,
              0,
              1
            ]
          }
        },
        {
          "type": "circle",
          "circle": {
            "xAxis": [
              -0.5000000016387101,
              -0.8660254028383291,
              0
            ],
            "yAxis": [
              0.8660254028383291,
              -0.5000000016387101,
              0
            ],
            "origin": [
              0.00674634,
              -0.003895,
              0.004
            ],
            "radius": 0.00048
          }
        },
        {
          "type": "line",
          "line": {
            "origin": [
              0.00048,
              -0.00779,
              0.003
            ],
            "direction": [
              0,
              0,
              1
            ]
          }
        },
        {
          "type": "line",
          "line": {
            "origin": [
              -0.00048,
              -0.00779,
              0.003
            ],
            "direction": [
              0,
              0,
              1
            ]
          }
        },
        {
          "type": "circle",
          "circle": {
            "xAxis": [
              -1,
              0,
              0
            ],
            "yAxis": [
              0,
              -1,
              0
            ],
            "origin": [
              0,
              -0.00779,
              0.004
            ],
            "radius": 0.00048
          }
        },
        {
          "type": "line",
          "line": {
            "origin": [
              -0.006506339999213419,
              -0.004310692193362398,
              0.003
            ],
            "direction": [
              0,
              0,
              1
            ]
          }
        },
        {
          "type": "line",
          "line": {
            "origin": [
              -0.006986340000786581,
              -0.0034793078066376023,
              0.003
            ],
            "direction": [
              0,
              0,
              1
            ]
          }
        },
        {
          "type": "circle",
          "circle": {
            "xAxis": [
              -0.5000000016387101,
              0.8660254028383291,
              0
            ],
            "yAxis": [
              -0.8660254028383291,
              -0.5000000016387101,
              0
            ],
            "origin": [
              -0.00674634,
              -0.003895,
              0.004
            ],
            "radius": 0.00048
          }
        },
        {
          "type": "line",
          "line": {
            "origin": [
              -0.006986340000786581,
              0.0034793078066376023,
              0.003
            ],
            "direction": [
              0,
              0,
              1
            ]
          }
        },
        {
          "type": "line",
          "line": {
            "origin": [
              -0.006506339999213419,
              0.004310692193362398,
              0.003
            ],
            "direction": [
              0,
              0,
              1
            ]
          }
        },
        {
          "type": "circle",
          "circle": {
            "xAxis": [
              0.5000000016387101,
              0.8660254028383291,
              0
            ],
            "yAxis": [
              -0.8660254028383291,
              0.5000000016387101,
              0
            ],
            "origin": [
              -0.00674634,
              0.003895,
              0.004
            ],
            "radius": 0.00048
          }
        }
      ]
    }
  },
  "extensionsUsed": [
    "KITTYCAD_boundary_representation"
  ],
  "materials": [
    {
      "alphaMode": "OPAQUE",
      "doubleSided": false,
      "pbrMetallicRoughness": {
        "baseColorFactor": [
          0.9,
          0.9,
          0.9,
          1
        ],
        "metallicFactor": 1,
        "roughnessFactor": 1
      },
      "emissiveFactor": [
        0,
        0,
        0
      ]
    }
  ],
  "meshes": [
    {
      "primitives": [
        {
          "attributes": {
            "POSITION": 0,
            "NORMAL": 1
          },
          "material": 0
        },
        {
          "attributes": {
            "POSITION": 2,
            "NORMAL": 3
          },
          "material": 0
        },
        {
          "attributes": {
            "POSITION": 4,
            "NORMAL": 5
          },
          "material": 0
        },
        {
          "attributes": {
            "POSITION": 6,
            "NORMAL": 7
          },
          "material": 0
        },
        {
          "attributes": {
            "POSITION": 8,
            "NORMAL": 9
          },
          "material": 0
        },
        {
          "attributes": {
            "POSITION": 10,
            "NORMAL": 11
          },
          "material": 0
        },
        {
          "attributes": {
            "POSITION": 12,
            "NORMAL": 13
          },
          "material": 0
        },
        {
          "attributes": {
            "POSITION": 14,
            "NORMAL": 15
          },
          "material": 0
        },
        {
          "attributes": {
            "POSITION": 16,
            "NORMAL": 17
          },
          "material": 0
        },
        {
          "attributes": {
            "POSITION": 18,
            "NORMAL": 19
          },
          "material": 0
        },
        {
          "attributes": {
            "POSITION": 20,
            "NORMAL": 21
          },
          "material": 0
        },
        {
          "attributes": {
            "POSITION": 22,
            "NORMAL": 23
          },
          "material": 0
        },
        {
          "attributes": {
            "POSITION": 24,
            "NORMAL": 25
          },
          "material": 0
        },
        {
          "attributes": {
            "POSITION": 26,
            "NORMAL": 27
          },
          "material": 0
        },
        {
          "attributes": {
            "POSITION": 28,
            "NORMAL": 29
          },
          "material": 0
        },
        {
          "attributes": {
            "POSITION": 30,
            "NORMAL": 31
          },
          "material": 0
        },
        {
          "attributes": {
            "POSITION": 32,
            "NORMAL": 33
          },
          "material": 0
        },
        {
          "attributes": {
            "POSITION": 34,
            "NORMAL": 35
          },
          "material": 0
        },
        {
          "attributes": {
            "POSITION": 36,
            "NORMAL": 37
          },
          "material": 0
        },
        {
          "attributes": {
            "POSITION": 38,
            "NORMAL": 39
          },
          "material": 0
        },
        {
          "attributes": {
            "POSITION": 40,
            "NORMAL": 41
          },
          "material": 0
        },
        {
          "attributes": {
            "POSITION": 42,
            "NORMAL": 43
          },
          "material": 0
        }
      ]
    }
  ],
  "nodes": [
    {
      "children": [
        1
      ]
    },
    {
      "children": [
        2
      ]
    },
    {
      "extensions": {
        "KITTYCAD_boundary_representation": {
          "solid": 0
        }
      },
      "mesh": 0
    }
  ],
  "scenes": [
    {
      "nodes": [
        0
      ]
    }
  ]
}