{
  "accessors": [
    {
      "bufferView": 0,
      "byteOffset": 0,
      "count": 6,
      "componentType": 5126,
      "type": "VEC3",
      "min": [
        0,
        0,
        -0.007818309590220451
      ],
      "max": [
        0.006234900094568729,
        0.0010000000474974513,
        -0
      ]
    },
    {
      "bufferView": 0,
      "byteOffset": 12,
      "count": 6,
      "componentType": 5126,
      "type": "VEC3"
    },
    {
      "bufferView": 1,
      "byteOffset": 0,
      "count": 6,
      "componentType": 5126,
      "type": "VEC3",
      "min": [
        0.004009690135717392,
        0,
        -0.01756758987903595
      ],
      "max": [
        0.006234900094568729,
        0.0010000000474974513,
        -0.007818309590220451
      ]
    },
    {
      "bufferView": 1,
      "byteOffset": 12,
      "count": 6,
      "componentType": 5126,
      "type": "VEC3"
    },
    {
      "bufferView": 2,
      "byteOffset": 0,
      "count": 6,
      "componentType": 5126,
      "type": "VEC3",
      "min": [
        -0.004999999888241291,
        0,
        -0.021906429901719093
      ],
      "max": [
        0.004009690135717392,
        0.0010000000474974513,
        -0.01756758987903595
      ]
    },
    {
      "bufferView": 2,
      "byteOffset": 12,
      "count": 6,
      "componentType": 5126,
      "type": "VEC3"
    },
    {
      "bufferView": 3,
      "byteOffset": 0,
      "count": 6,
      "componentType": 5126,
      "type": "VEC3",
      "min": [
        -0.014009689912199974,
        0,
        -0.021906429901719093
      ],
      "max": [
        -0.004999999888241291,
        0.0010000000474974513,
        -0.01756758987903595
      ]
    },
    {
      "bufferView": 3,
      "byteOffset": 12,
      "count": 6,
      "componentType": 5126,
      "type": "VEC3"
    },
    {
      "bufferView": 4,
      "byteOffset": 0,
      "count": 6,
      "componentType": 5126,
      "type": "VEC3",
      "min": [
        -0.016234900802373886,
        0,
        -0.01756758987903595
      ],
      "max": [
        -0.014009689912199974,
        0.0010000000474974513,
        -0.007818309590220451
      ]
    },
    {
      "bufferView": 4,
      "byteOffset": 12,
      "count": 6,
      "componentType": 5126,
      "type": "VEC3"
    },
    {
      "bufferView": 5,
      "byteOffset": 0,
      "count": 6,
      "componentType": 5126,
      "type": "VEC3",
      "min": [
        -0.016234900802373886,
        0,
        -0.007818309590220451
      ],
      "max": [
        -0.009999999776482582,
        0.0010000000474974513,
        0
      ]
    },
    {
      "bufferView": 5,
      "byteOffset": 12,
      "count": 6,
      "componentType": 5126,
      "type": "VEC3"
    },
    {
      "bufferView": 6,
      "byteOffset": 0,
      "count": 6,
      "componentType": 5126,
      "type": "VEC3",
      "min": [
        -0.009999999776482582,
        0,
        0
      ],
      "max": [
        0,
        0.0010000000474974513,
        0
      ]
    },
    {
      "bufferView": 6,
      "byteOffset": 12,
      "count": 6,
      "componentType": 5126,
      "type": "VEC3"
    },
    {
      "bufferView": 7,
      "byteOffset": 0,
      "count": 15,
      "componentType": 5126,
      "type": "VEC3",
      "min": [
        -0.016234900802373886,
        0,
        -0.021906429901719093
      ],
      "max": [
        0.006234900094568729,
        0,
        0
      ]
    },
    {
      "bufferView": 7,
      "byteOffset": 12,
      "count": 15,
      "componentType": 5126,
      "type": "VEC3"
    },
    {
      "bufferView": 8,
      "byteOffset": 0,
      "count": 15,
      "componentType": 5126,
      "type": "VEC3",
      "min": [
        -0.016234900802373886,
        0.0010000000474974513,
        -0.021906429901719093
      ],
      "max": [
        0.006234900094568729,
        0.0010000000474974513,
        0
      ]
    },
    {
      "bufferView": 8,
      "byteOffset": 12,
      "count": 15,
      "componentType": 5126,
      "type": "VEC3"
    }
  ],
  "asset": {
    "generator": "zoo.dev",
    "version": "2.0"
  },
  "buffers": [
    {
      "byteLength": 1728,
      "uri": "data:application/octet-stream;base64,"
    }
  ],
  "bufferViews": [
    {
      "buffer": 0,
      "byteLength": 144,
      "byteOffset": 0,
      "byteStride": 24,
      "target": 34962
    },
    {
      "buffer": 0,
      "byteLength": 144,
      "byteOffset": 144,
      "byteStride": 24,
      "target": 34962
    },
    {
      "buffer": 0,
      "byteLength": 144,
      "byteOffset": 288,
      "byteStride": 24,
      "target": 34962
    },
    {
      "buffer": 0,
      "byteLength": 144,
      "byteOffset": 432,
      "byteStride": 24,
      "target": 34962
    },
    {
      "buffer": 0,
      "byteLength": 144,
      "byteOffset": 576,
      "byteStride": 24,
      "target": 34962
    },
    {
      "buffer": 0,
      "byteLength": 144,
      "byteOffset": 720,
      "byteStride": 24,
      "target": 34962
    },
    {
      "buffer": 0,
      "byteLength": 144,
      "byteOffset": 864,
      "byteStride": 24,
      "target": 34962
    },
    {
      "buffer": 0,
      "byteLength": 360,
      "byteOffset": 1008,
      "byteStride": 24,
      "target": 34962
    },
    {
      "buffer": 0,
      "byteLength": 360,
      "byteOffset": 1368,
      "byteStride": 24,
      "target": 34962
    }
  ],
  "scene": 0,
  "extensions": {
    "KITTYCAD_boundary_representation": {
      "solids": [
        {
          "shells": [
            [
              0,
              1
            ]
          ],
          "mesh": 0,
          "extras": {
            "KITTYCAD": {
              "material": 0
            }
          }
        }
      ],
      "shells": [
        {
          "faces": [
            [
              0,
              1
            ],
            [
              1,
              1
            ],
            [
              2,
              1
            ],
            [
              3,
              1
            ],
            [
              4,
              1
            ],
            [
              5,
              1
            ],
            [
              6,
              1
            ],
            [
              7,
              1
            ],
            [
              8,
              1
            ]
          ]
        }
      ],
      "faces": [
        {
          "surface": [
            0,
            1
          ],
          "loops": [
            [
              0,
              1
            ]
          ]
        },
        {
          "surface": [
            1,
            1
          ],
          "loops": [
            [
              1,
              1
            ]
          ]
        },
        {
          "surface": [
            2,
            1
          ],
          "loops": [
            [
              2,
              1
            ]
          ]
        },
        {
          "surface": [
            3,
            1
          ],
          "loops": [
            [
              3,
              1
            ]
          ]
        },
        {
          "surface": [
            4,
            1
          ],
          "loops": [
            [
              4,
              1
            ]
          ]
        },
        {
          "surface": [
            5,
            1
          ],
          "loops": [
            [
              5,
              1
            ]
          ]
        },
        {
          "surface": [
            6,
            1
          ],
          "loops": [
            [
              6,
              1
            ]
          ]
        },
        {
          "surface": [
            7,
            -1
          ],
          "loops": [
            [
              7,
              1
            ]
          ]
        },
        {
          "surface": [
            8,
            1
          ],
          "loops": [
            [
              8,
              1
            ]
          ]
        }
      ],
      "loops": [
        {
          "edges": [
            [
              0,
              1
            ],
            [
              1,
              1
            ],
            [
              2,
              -1
            ],
            [
              3,
              -1
            ]
          ]
        },
        {
          "edges": [
            [
              4,
              1
            ],
            [
              5,
              1
            ],
            [
              6,
              -1
            ],
            [
              1,
              -1
            ]
          ]
        },
        {
          "edges": [
            [
              7,
              1
            ],
            [
              8,
              1
            ],
            [
              9,
              -1
            ],
            [
              5,
              -1
            ]
          ]
        },
        {
          "edges": [
            [
              10,
              1
            ],
            [
              11,
              1
            ],
            [
              12,
              -1
            ],
            [
              8,
              -1
            ]
          ]
        },
        {
          "edges": [
            [
              13,
              1
            ],
            [
              14,
              1
            ],
            [
              15,
              -1
            ],
            [
              11,
              -1
            ]
          ]
        },
        {
          "edges": [
            [
              16,
              1
            ],
            [
              17,
              1
            ],
            [
              18,
              -1
            ],
            [
              14,
              -1
            ]
          ]
        },
        {
          "edges": [
            [
              19,
              1
            ],
            [
              3,
              1
            ],
            [
              20,
              -1
            ],
            [
              17,
              -1
            ]
          ]
        },
        {
          "edges": [
            [
              19,
              -1
            ],
            [
              16,
              -1
            ],
            [
              13,
              -1
            ],
            [
              10,
              -1
            ],
            [
              7,
              -1
            ],
            [
              4,
              -1
            ],
            [
              0,
              -1
            ]
          ]
        },
        {
          "edges": [
            [
              2,
              1
            ],
            [
              6,
              1
            ],
            [
              9,
              1
            ],
            [
              12,
              1
            ],
            [
              15,
              1
            ],
            [
              18,
              1
            ],
            [
              20,
              1
            ]
          ]
        }
      ],
      "edges": [
        {
          "curve": [
            0,
            1
          ],
          "start": 0,
          "end": 1,
          "t": [
            0,
            0.009999997463304678
          ]
        },
        {
          "curve": [
            1,
            1
          ],
          "start": 1,
          "end": 2,
          "t": [
            0,
            0.001
          ]
        },
        {
          "curve": [
            2,
            1
          ],
          "start": 3,
          "end": 2,
          "t": [
            0,
            0.009999997463304678
          ]
        },
        {
          "curve": [
            3,
            1
          ],
          "start": 0,
          "end": 3,
          "t": [
            0,
            0.001
          ]
        },
        {
          "curve": [
            4,
            1
          ],
          "start": 1,
          "end": 4,
          "t": [
            0,
            0.01000000100312495
          ]
        },
        {
          "curve": [
            5,
            1
          ],
          "start": 4,
          "end": 5,
          "t": [
            0,
            0.001
          ]
        },
        {
          "curve": [
            6,
            1
          ],
          "start": 2,
          "end": 5,
          "t": [
            0,
            0.01000000100312495
          ]
        },
        {
          "curve": [
            7,
            1
          ],
          "start": 4,
          "end": 6,
          "t": [
            0,
            0.010000002322084731
          ]
        },
        {
          "curve": [
            8,
            1
          ],
          "start": 6,
          "end": 7,
          "t": [
            0,
            0.001
          ]
        },
        {
          "curve": [
            9,
            1
          ],
          "start": 5,
          "end": 7,
          "t": [
            0,
            0.010000002322084731
          ]
        },
        {
          "curve": [
            10,
            1
          ],
          "start": 6,
          "end": 8,
          "t": [
            0,
            0.010000002322084731
          ]
        },
        {
          "curve": [
            11,
            1
          ],
          "start": 8,
          "end": 9,
          "t": [
            0,
            0.001
          ]
        },
        {
          "curve": [
            12,
            1
          ],
          "start": 7,
          "end": 9,
          "t": [
            0,
            0.010000002322084731
          ]
        },
        {
          "curve": [
            13,
            1
          ],
          "start": 8,
          "end": 10,
          "t": [
            0,
            0.01000000100312495
          ]
        },
        {
          "curve": [
            14,
            1
          ],
          "start": 10,
          "end": 11,
          "t": [
            0,
            0.001
          ]
        },
        {
          "curve": [
            15,
            1
          ],
          "start": 9,
          "end": 11,
          "t": [
            0,
            0.01000000100312495
          ]
        },
        {
          "curve": [
            16,
            1
          ],
          "start": 10,
          "end": 12,
          "t": [
            0,
            0.009999997463304678
          ]
        },
        {
          "curve": [
            17,
            1
          ],
          "start": 12,
          "end": 13,
          "t": [
            0,
            0.001
          ]
        },
        {
          "curve": [
            18,
            1
          ],
          "start": 11,
          "end": 13,
          "t": [
            0,
            0.009999997463304678
          ]
        },
        {
          "curve": [
            19,
            1
          ],
          "start": 12,
          "end": 0,
          "t": [
            0,
            0.01
          ]
        },
        {
          "curve": [
            20,
            1
          ],
          "start": 13,
          "end": 3,
          "t": [
            0,
            0.01
          ]
        }
      ],
      "vertices": [
        [
          0,
          0,
          -0
        ],
        [
          0.0062349,
          0,
          -0.00781831
        ],
        [
          0.0062349,
          0.001,
          -0.00781831
        ],
        [
          0,
          0.001,
          -0
        ],
        [
          0.00400969,
          0,
          -0.01756759
        ],
        [
          0.00400969,
          0.001,
          -0.01756759
        ],
        [
          -0.005,
          0,
          -0.02190643
        ],
        [
          -0.005,
          0.001,
          -0.02190643
        ],
        [
          -0.01400969,
          0,
          -0.01756759
        ],
        [
          -0.01400969,
          0.001,
          -0.01756759
        ],
        [
          -0.0162349,
          0,
          -0.00781831
        ],
        [
          -0.0162349,
          0.001,
          -0.00781831
        ],
        [
          -0.01,
          0,
          0
        ],
        [
          -0.01,
          0.001,
          0
        ]
      ],
      "surfaces": [
        {
          "type": "plane",
          "plane": {
            "xAxis": [
              0.6234898019256387,
              0,
              -0.7818314824146747
            ],
            "yAxis": [
              -0,
              1,
              0
            ],
            "origin": [
              0.00311745,
              0.0005,
              -0.00390916
            ]
          }
        },
        {
          "type": "plane",
          "plane": {
            "xAxis": [
              0.22252093066922807,
              0,
              0.9749279129320796
            ],
            "yAxis": [
              0,
              -1,
              0
            ],
            "origin": [
              0.00512229,
              0.0005,
              -0.01269295
            ]
          }
        },
        {
          "type": "plane",
          "plane": {
            "xAxis": [
              0.9009688679523392,
              0,
              0.4338837390138984
            ],
            "yAxis": [
              0,
              -1,
              0
            ],
            "origin": [
              -0.00049516,
              0.0005,
              -0.01973701
            ]
          }
        },
        {
          "type": "plane",
          "plane": {
            "xAxis": [
              0.9009688679523392,
              0,
              -0.4338837390138984
            ],
            "yAxis": [
              0,
              -1,
              -0
            ],
            "origin": [
              -0.00950484,
              0.0005,
              -0.01973701
            ]
          }
        },
        {
          "type": "plane",
          "plane": {
            "xAxis": [
              0.22252093066922807,
              0,
              -0.9749279129320796
            ],
            "yAxis": [
              0,
              -1,
              -0
            ],
            "origin": [
              -0.01512229,
              0.0005,
              -0.01269295
            ]
          }
        },
        {
          "type": "plane",
          "plane": {
            "xAxis": [
              0.6234898019256387,
              0,
              0.7818314824146747
            ],
            "yAxis": [
              0,
              1,
              -0
            ],
            "origin": [
              -0.01311745,
              0.0005,
              -0.00390916
            ]
          }
        },
        {
          "type": "plane",
          "plane": {
            "xAxis": [
              1,
              0,
              -0
            ],
            "yAxis": [
              -0,
              1,
              0
            ],
            "origin": [
              -0.005,
              0.0005,
              0
            ]
          }
        },
        {
          "type": "plane",
          "plane": {
            "xAxis": [
              1,
              0,
              0
            ],
            "yAxis": [
              0,
              0,
              -1
            ],
            "origin": [
              0,
              0,
              -0
            ]
          }
        },
        {
          "type": "plane",
          "plane": {
            "xAxis": [
              1,
              0,
              0
            ],
            "yAxis": [
              0,
              0,
              -1
            ],
            "origin": [
              0,
              0.001,
              -0
            ]
          }
        }
      ],
      "curves3D": [
        {
          "type": "line",
          "line": {
            "origin": [
              0,
              0,
              -0
            ],
            "direction": [
              0.6234901581604567,
              0,
              -0.7818311983267544
            ]
          }
        },
        {
          "type": "line",
          "line": {
            "origin": [
              0.0062349,
              0,
              -0.00781831
            ],
            "direction": [
              0,
              1,
              0
            ]
          }
        },
        {
          "type": "line",
          "line": {
            "origin": [
              0,
              0.001,
              -0
            ],
            "direction": [
              0.6234901581604567,
              0,
              -0.7818311983267544
            ]
          }
        },
        {
          "type": "line",
          "line": {
            "origin": [
              0,
              0,
              -0
            ],
            "direction": [
              0,
              1,
              0
            ]
          }
        },
        {
          "type": "line",
          "line": {
            "origin": [
              0.0062349,
              0,
              -0.00781831
            ],
            "direction": [
              -0.2225209776783655,
              0,
              -0.9749279022025498
            ]
          }
        },
        {
          "type": "line",
          "line": {
            "origin": [
              0.00400969,
              0,
              -0.01756759
            ],
            "direction": [
              0,
              1,
              0
            ]
          }
        },
        {
          "type": "line",
          "line": {
            "origin": [
              0.0062349,
              0.001,
              -0.00781831
            ],
            "direction": [
              -0.2225209776783655,
              0,
              -0.9749279022025498
            ]
          }
        },
        {
          "type": "line",
          "line": {
            "origin": [
              0.00400969,
              0,
              -0.01756759
            ],
            "direction": [
              -0.9009687907874128,
              0,
              -0.43388389924848225
            ]
          }
        },
        {
          "type": "line",
          "line": {
            "origin": [
              -0.005,
              0,
              -0.02190643
            ],
            "direction": [
              0,
              1,
              0
            ]
          }
        },
        {
          "type": "line",
          "line": {
            "origin": [
              0.00400969,
              0.001,
              -0.01756759
            ],
            "direction": [
              -0.9009687907874128,
              0,
              -0.43388389924848225
            ]
          }
        },
        {
          "type": "line",
          "line": {
            "origin": [
              -0.005,
              0,
              -0.02190643
            ],
            "direction": [
              -0.9009687907874128,
              0,
              0.43388389924848225
            ]
          }
        },
        {
          "type": "line",
          "line": {
            "origin": [
              -0.01400969,
              0,
              -0.01756759
            ],
            "direction": [
              0,
              1,
              0
            ]
          }
        },
        {
          "type": "line",
          "line": {
            "origin": [
              -0.005,
              0.001,
              -0.02190643
            ],
            "direction": [
              -0.9009687907874128,
              0,
              0.43388389924848225
            ]
          }
        },
        {
          "type": "line",
          "line": {
            "origin": [
              -0.01400969,
              0,
              -0.01756759
            ],
            "direction": [
              -0.2225209776783655,
              0,
              0.9749279022025498
            ]
          }
        },
        {
          "type": "line",
          "line": {
            "origin": [
              -0.0162349,
              0,
              -0.00781831
            ],
            "direction": [
              0,
              1,
              0
            ]
          }
        },
        {
          "type": "line",
          "line": {
            "origin": [
              -0.01400969,
              0.001,
              -0.01756759
            ],
            "direction": [
              -0.2225209776783655,
              0,
              0.9749279022025498
            ]
          }
        },
        {
          "type": "line",
          "line": {
            "origin": [
              -0.0162349,
              0,
              -0.00781831
            ],
            "direction": [
              0.6234901581604567,
              0,
              0.7818311983267544
            ]
          }
        },
        {
          "type": "line",
          "line": {
            "origin": [
              -0.01,
              0,
              0
            ],
            "direction": [
              0,
              1,
              0
            ]
          }
        },
        {
          "type": "line",
          "line": {
            "origin": [
              -0.0162349,
              0.001,
              -0.00781831
            ],
            "direction": [
              0.6234901581604567,
              0,
              0.7818311983267544
            ]
          }
        },
        {
          "type": "line",
          "line": {
            "origin": [
              -0.01,
              0,
              0
            ],
            "direction": [
              1,
              0,
              -0
            ]
          }
        },
        {
          "type": "line",
          "line": {
            "origin": [
              -0.01,
              0.001,
              0
            ],
            "direction": [
              1,
              0,
              -0
            ]
          }
        }
      ]
    }
  },
  "extensionsUsed": [
    "KITTYCAD_boundary_representation"
  ],
  "materials": [
    {
      "alphaMode": "OPAQUE",
      "doubleSided": false,
      "pbrMetallicRoughness": {
        "baseColorFactor": [
          0.9,
          0.9,
          0.9,
          1
        ],
        "metallicFactor": 1,
        "roughnessFactor": 1
      },
      "emissiveFactor": [
        0,
        0,
        0
      ]
    }
  ],
  "meshes": [
    {
      "primitives": [
        {
          "attributes": {
            "POSITION": 0,
            "NORMAL": 1
          },
          "material": 0
        },
        {
          "attributes": {
            "POSITION": 2,
            "NORMAL": 3
          },
          "material": 0
        },
        {
          "attributes": {
            "POSITION": 4,
            "NORMAL": 5
          },
          "material": 0
        },
        {
          "attributes": {
            "POSITION": 6,
            "NORMAL": 7
          },
          "material": 0
        },
        {
          "attributes": {
            "POSITION": 8,
            "NORMAL": 9
          },
          "material": 0
        },
        {
          "attributes": {
            "POSITION": 10,
            "NORMAL": 11
          },
          "material": 0
        },
        {
          "attributes": {
            "POSITION": 12,
            "NORMAL": 13
          },
          "material": 0
        },
        {
          "attributes": {
            "POSITION": 14,
            "NORMAL": 15
          },
          "material": 0
        },
        {
          "attributes": {
            "POSITION": 16,
            "NORMAL": 17
          },
          "material": 0
        }
      ]
    }
  ],
  "nodes": [
    {
      "children": [
        1
      ]
    },
    {
      "children": [
        2
      ]
    },
    {
      "extensions": {
        "KITTYCAD_boundary_representation": {
          "solid": 0
        }
      },
      "mesh": 0
    }
  ],
  "scenes": [
    {
      "nodes": [
        0
      ]
    }
  ]
}