{
  "accessors": [
    {
      "bufferView": 0,
      "byteOffset": 0,
      "count": 6,
      "componentType": 5126,
      "type": "VEC3",
      "min": [
        0.002795000094920397,
        0,
        0.00039000000106170774
      ],
      "max": [
        0.002795000094920397,
        0.0010000000474974513,
        0.0053900000639259815
      ]
    },
    {
      "bufferView": 0,
      "byteOffset": 12,
      "count": 6,
      "componentType": 5126,
      "type": "VEC3"
    },
    {
      "bufferView": 1,
      "byteOffset": 0,
      "count": 6,
      "componentType": 5126,
      "type": "VEC3",
      "min": [
        -0.002205000026151538,
        0,
        0.00039000000106170774
      ],
      "max": [
        0.002795000094920397,
        0.0010000000474974513,
        0.00039000000106170774
      ]
    },
    {
      "bufferView": 1,
      "byteOffset": 12,
      "count": 6,
      "componentType": 5126,
      "type": "VEC3"
    },
    {
      "bufferView": 2,
      "byteOffset": 0,
      "count": 6,
      "componentType": 5126,
      "type": "VEC3",
      "min": [
        -0.002205000026151538,
        0,
        0.00039000000106170774
      ],
      "max": [
        -0.002205000026151538,
        0.0010000000474974513,
        0.0053900000639259815
      ]
    },
    {
      "bufferView": 2,
      "byteOffset": 12,
      "count": 6,
      "componentType": 5126,
      "type": "VEC3"
    },
    {
      "bufferView": 3,
      "byteOffset": 0,
      "count": 6,
      "componentType": 5126,
      "type": "VEC3",
      "min": [
        -0.002205000026151538,
        0,
        0.0053900000639259815
      ],
      "max": [
        0.002795000094920397,
        0.0010000000474974513,
        0.0053900000639259815
      ]
    },
    {
      "bufferView": 3,
      "byteOffset": 12,
      "count": 6,
      "componentType": 5126,
      "type": "VEC3"
    },
    {
      "bufferView": 4,
      "byteOffset": 0,
      "count": 6,
      "componentType": 5126,
      "type": "VEC3",
      "min": [
        -0.002205000026151538,
        0,
        0.00039000000106170774
      ],
      "max": [
        0.002795000094920397,
        0,
        0.0053900000639259815
      ]
    },
    {
      "bufferView": 4,
      "byteOffset": 12,
      "count": 6,
      "componentType": 5126,
      "type": "VEC3"
    },
    {
      "bufferView": 5,
      "byteOffset": 0,
      "count": 6,
      "componentType": 5126,
      "type": "VEC3",
      "min": [
        -0.002205000026151538,
        0.0010000000474974513,
        0.00039000000106170774
      ],
      "max": [
        0.002795000094920397,
        0.0010000000474974513,
        0.0053900000639259815
      ]
    },
    {
      "bufferView": 5,
      "byteOffset": 12,
      "count": 6,
      "componentType": 5126,
      "type": "VEC3"
    },
    {
      "bufferView": 6,
      "byteOffset": 0,
      "count": 6,
      "componentType": 5126,
      "type": "VEC3",
      "min": [
        0.002795000094920397,
        -0.0013950299471616745,
        0.0003767099988181144
      ],
      "max": [
        0.002795000094920397,
        0.0008649899973534048,
        0.005465160124003887
      ]
    },
    {
      "bufferView": 6,
      "byteOffset": 12,
      "count": 6,
      "componentType": 5126,
      "type": "VEC3"
    },
    {
      "bufferView": 7,
      "byteOffset": 0,
      "count": 6,
      "componentType": 5126,
      "type": "VEC3",
      "min": [
        -0.002205000026151538,
        -0.00010094000026583672,
        0.0003767099988181144
      ],
      "max": [
        0.002795000094920397,
        0.0008649899973534048,
        0.0006355299847200513
      ]
    },
    {
      "bufferView": 7,
      "byteOffset": 12,
      "count": 6,
      "componentType": 5126,
      "type": "VEC3"
    },
    {
      "bufferView": 8,
      "byteOffset": 0,
      "count": 6,
      "componentType": 5126,
      "type": "VEC3",
      "min": [
        -0.002205000026151538,
        -0.0013950299471616745,
        0.0003767099988181144
      ],
      "max": [
        -0.002205000026151538,
        0.0008649899973534048,
        0.005465160124003887
      ]
    },
    {
      "bufferView": 8,
      "byteOffset": 12,
      "count": 6,
      "componentType": 5126,
      "type": "VEC3"
    },
    {
      "bufferView": 9,
      "byteOffset": 0,
      "count": 6,
      "componentType": 5126,
      "type": "VEC3",
      "min": [
        -0.002205000026151538,
        -0.0013950299471616745,
        0.005206339992582798
      ],
      "max": [
        0.002795000094920397,
        -0.0004291099903639406,
        0.005465160124003887
      ]
    },
    {
      "bufferView": 9,
      "byteOffset": 12,
      "count": 6,
      "componentType": 5126,
      "type": "VEC3"
    },
    {
      "bufferView": 10,
      "byteOffset": 0,
      "count": 6,
      "componentType": 5126,
      "type": "VEC3",
      "min": [
        -0.002205000026151538,
        -0.0013950299471616745,
        0.0003767099988181144
      ],
      "max": [
        0.002795000094920397,
        -0.00010094000026583672,
        0.005206339992582798
      ]
    },
    {
      "bufferView": 10,
      "byteOffset": 12,
      "count": 6,
      "componentType": 5126,
      "type": "VEC3"
    },
    {
      "bufferView": 11,
      "byteOffset": 0,
      "count": 6,
      "componentType": 5126,
      "type": "VEC3",
      "min": [
        -0.002205000026151538,
        -0.0004291099903639406,
        0.0006355299847200513
      ],
      "max": [
        0.002795000094920397,
        0.0008649899973534048,
        0.005465160124003887
      ]
    },
    {
      "bufferView": 11,
      "byteOffset": 12,
      "count": 6,
      "componentType": 5126,
      "type": "VEC3"
    },
    {
      "bufferView": 12,
      "byteOffset": 0,
      "count": 6,
      "componentType": 5126,
      "type": "VEC3",
      "min": [
        0.002795000094920397,
        -0.0026950000319629908,
        0.00033775001065805554
      ],
      "max": [
        0.002795000094920397,
        0.0006710300222039223,
        0.005167880095541477
      ]
    },
    {
      "bufferView": 12,
      "byteOffset": 12,
      "count": 6,
      "componentType": 5126,
      "type": "VEC3"
    },
    {
      "bufferView": 13,
      "byteOffset": 0,
      "count": 6,
      "componentType": 5126,
      "type": "VEC3",
      "min": [
        -0.002205000026151538,
        -0.00019500000053085387,
        0.00033775001065805554
      ],
      "max": [
        0.002795000094920397,
        0.0006710300222039223,
        0.0008377499761991203
      ]
    },
    {
      "bufferView": 13,
      "byteOffset": 12,
      "count": 6,
      "componentType": 5126,
      "type": "VEC3"
    },
    {
      "bufferView": 14,
      "byteOffset": 0,
      "count": 6,
      "componentType": 5126,
      "type": "VEC3",
      "min": [
        -0.002205000026151538,
        -0.0026950000319629908,
        0.00033775001065805554
      ],
      "max": [
        -0.002205000026151538,
        0.0006710300222039223,
        0.005167880095541477
      ]
    },
    {
      "bufferView": 14,
      "byteOffset": 12,
      "count": 6,
      "componentType": 5126,
      "type": "VEC3"
    },
    {
      "bufferView": 15,
      "byteOffset": 0,
      "count": 6,
      "componentType": 5126,
      "type": "VEC3",
      "min": [
        -0.002205000026151538,
        -0.0026950000319629908,
        0.004667880013585091
      ],
      "max": [
        0.002795000094920397,
        -0.001828970038332045,
        0.005167880095541477
      ]
    },
    {
      "bufferView": 15,
      "byteOffset": 12,
      "count": 6,
      "componentType": 5126,
      "type": "VEC3"
    },
    {
      "bufferView": 16,
      "byteOffset": 0,
      "count": 6,
      "componentType": 5126,
      "type": "VEC3",
      "min": [
        -0.002205000026151538,
        -0.0026950000319629908,
        0.00033775001065805554
      ],
      "max": [
        0.002795000094920397,
        -0.00019500000053085387,
        0.004667880013585091
      ]
    },
    {
      "bufferView": 16,
      "byteOffset": 12,
      "count": 6,
      "componentType": 5126,
      "type": "VEC3"
    },
    {
      "bufferView": 17,
      "byteOffset": 0,
      "count": 6,
      "componentType": 5126,
      "type": "VEC3",
      "min": [
        -0.002205000026151538,
        -0.001828970038332045,
        0.0008377499761991203
      ],
      "max": [
        0.002795000094920397,
        0.0006710300222039223,
        0.005167880095541477
      ]
    },
    {
      "bufferView": 17,
      "byteOffset": 12,
      "count": 6,
      "componentType": 5126,
      "type": "VEC3"
    },
    {
      "bufferView": 18,
      "byteOffset": 0,
      "count": 6,
      "componentType": 5126,
      "type": "VEC3",
      "min": [
        0.002795000094920397,
        -0.003811310045421123,
        0.0002757699985522777
      ],
      "max": [
        0.002795000094920397,
        0.0004313400131650269,
        0.004518410190939903
      ]
    },
    {
      "bufferView": 18,
      "byteOffset": 12,
      "count": 6,
      "componentType": 5126,
      "type": "VEC3"
    },
    {
      "bufferView": 19,
      "byteOffset": 0,
      "count": 6,
      "componentType": 5126,
      "type": "VEC3",
      "min": [
        -0.002205000026151538,
        -0.0002757699985522777,
        0.0002757699985522777
      ],
      "max": [
        0.002795000094920397,
        0.0004313400131650269,
        0.0009828800102695825
      ]
    },
    {
      "bufferView": 19,
      "byteOffset": 12,
      "count": 6,
      "componentType": 5126,
      "type": "VEC3"
    },
    {
      "bufferView": 20,
      "byteOffset": 0,
      "count": 6,
      "componentType": 5126,
      "type": "VEC3",
      "min": [
        -0.002205000026151538,
        -0.003811310045421123,
        0.0002757699985522777
      ],
      "max": [
        -0.002205000026151538,
        0.0004313400131650269,
        0.004518410190939903
      ]
    },
    {
      "bufferView": 20,
      "byteOffset": 12,
      "count": 6,
      "componentType": 5126,
      "type": "VEC3"
    },
    {
      "bufferView": 21,
      "byteOffset": 0,
      "count": 6,
      "componentType": 5126,
      "type": "VEC3",
      "min": [
        -0.002205000026151538,
        -0.003811310045421123,
        0.003811310045421123
      ],
      "max": [
        0.002795000094920397,
        -0.003104199888184666,
        0.004518410190939903
      ]
    },
    {
      "bufferView": 21,
      "byteOffset": 12,
      "count": 6,
      "componentType": 5126,
      "type": "VEC3"
    },
    {
      "bufferView": 22,
      "byteOffset": 0,
      "count": 6,
      "componentType": 5126,
      "type": "VEC3",
      "min": [
        -0.002205000026151538,
        -0.003811310045421123,
        0.0002757699985522777
      ],
      "max": [
        0.002795000094920397,
        -0.0002757699985522777,
        0.003811310045421123
      ]
    },
    {
      "bufferView": 22,
      "byteOffset": 12,
      "count": 6,
      "componentType": 5126,
      "type": "VEC3"
    },
    {
      "bufferView": 23,
      "byteOffset": 0,
      "count": 6,
      "componentType": 5126,
      "type": "VEC3",
      "min": [
        -0.002205000026151538,
        -0.003104199888184666,
        0.0009828800102695825
      ],
      "max": [
        0.002795000094920397,
        0.0004313400131650269,
        0.004518410190939903
      ]
    },
    {
      "bufferView": 23,
      "byteOffset": 12,
      "count": 6,
      "componentType": 5126,
      "type": "VEC3"
    }
  ],
  "asset": {
    "generator": "zoo.dev",
    "version": "2.0"
  },
  "buffers": [
    {
      "byteLength": 3456,
      "uri": "data:application/octet-stream;base64,"
    }
  ],
  "bufferViews": [
    {
      "buffer": 0,
      "byteLength": 144,
      "byteOffset": 0,
      "byteStride": 24,
      "target": 34962
    },
    {
      "buffer": 0,
      "byteLength": 144,
      "byteOffset": 144,
      "byteStride": 24,
      "target": 34962
    },
    {
      "buffer": 0,
      "byteLength": 144,
      "byteOffset": 288,
      "byteStride": 24,
      "target": 34962
    },
    {
      "buffer": 0,
      "byteLength": 144,
      "byteOffset": 432,
      "byteStride": 24,
      "target": 34962
    },
    {
      "buffer": 0,
      "byteLength": 144,
      "byteOffset": 576,
      "byteStride": 24,
      "target": 34962
    },
    {
      "buffer": 0,
      "byteLength": 144,
      "byteOffset": 720,
      "byteStride": 24,
      "target": 34962
    },
    {
      "buffer": 0,
      "byteLength": 144,
      "byteOffset": 864,
      "byteStride": 24,
      "target": 34962
    },
    {
      "buffer": 0,
      "byteLength": 144,
      "byteOffset": 1008,
      "byteStride": 24,
      "target": 34962
    },
    {
      "buffer": 0,
      "byteLength": 144,
      "byteOffset": 1152,
      "byteStride": 24,
      "target": 34962
    },
    {
      "buffer": 0,
      "byteLength": 144,
      "byteOffset": 1296,
      "byteStride": 24,
      "target": 34962
    },
    {
      "buffer": 0,
      "byteLength": 144,
      "byteOffset": 1440,
      "byteStride": 24,
      "target": 34962
    },
    {
      "buffer": 0,
      "byteLength": 144,
      "byteOffset": 1584,
      "byteStride": 24,
      "target": 34962
    },
    {
      "buffer": 0,
      "byteLength": 144,
      "byteOffset": 1728,
      "byteStride": 24,
      "target": 34962
    },
    {
      "buffer": 0,
      "byteLength": 144,
      "byteOffset": 1872,
      "byteStride": 24,
      "target": 34962
    },
    {
      "buffer": 0,
      "byteLength": 144,
      "byteOffset": 2016,
      "byteStride": 24,
      "target": 34962
    },
    {
      "buffer": 0,
      "byteLength": 144,
      "byteOffset": 2160,
      "byteStride": 24,
      "target": 34962
    },
    {
      "buffer": 0,
      "byteLength": 144,
      "byteOffset": 2304,
      "byteStride": 24,
      "target": 34962
    },
    {
      "buffer": 0,
      "byteLength": 144,
      "byteOffset": 2448,
      "byteStride": 24,
      "target": 34962
    },
    {
      "buffer": 0,
      "byteLength": 144,
      "byteOffset": 2592,
      "byteStride": 24,
      "target": 34962
    },
    {
      "buffer": 0,
      "byteLength": 144,
      "byteOffset": 2736,
      "byteStride": 24,
      "target": 34962
    },
    {
      "buffer": 0,
      "byteLength": 144,
      "byteOffset": 2880,
      "byteStride": 24,
      "target": 34962
    },
    {
      "buffer": 0,
      "byteLength": 144,
      "byteOffset": 3024,
      "byteStride": 24,
      "target": 34962
    },
    {
      "buffer": 0,
      "byteLength": 144,
      "byteOffset": 3168,
      "byteStride": 24,
      "target": 34962
    },
    {
      "buffer": 0,
      "byteLength": 144,
      "byteOffset": 3312,
      "byteStride": 24,
      "target": 34962
    }
  ],
  "scene": 0,
  "extensions": {
    "KITTYCAD_boundary_representation": {
      "solids": [
        {
          "shells": [
            [
              0,
              1
            ]
          ],
          "mesh": 0,
          "extras": {
            "KITTYCAD": {
              "material": 0
            }
          }
        },
        {
          "shells": [
            [
              1,
              1
            ]
          ],
          "mesh": 1,
          "extras": {
            "KITTYCAD": {
              "material": 1
            }
          }
        },
        {
          "shells": [
            [
              2,
              1
            ]
          ],
          "mesh": 2,
          "extras": {
            "KITTYCAD": {
              "material": 2
            }
          }
        },
        {
          "shells": [
            [
              3,
              1
            ]
          ],
          "mesh": 3,
          "extras": {
            "KITTYCAD": {
              "material": 3
            }
          }
        }
      ],
      "shells": [
        {
          "faces": [
            [
              0,
              1
            ],
            [
              1,
              1
            ],
            [
              2,
              1
            ],
            [
              3,
              1
            ],
            [
              4,
              1
            ],
            [
              5,
              1
            ]
          ]
        },
        {
          "faces": [
            [
              6,
              1
            ],
            [
              7,
              1
            ],
            [
              8,
              1
            ],
            [
              9,
              1
            ],
            [
              10,
              1
            ],
            [
              11,
              1
            ]
          ]
        },
        {
          "faces": [
            [
              12,
              1
            ],
            [
              13,
              1
            ],
            [
              14,
              1
            ],
            [
              15,
              1
            ],
            [
              16,
              1
            ],
            [
              17,
              1
            ]
          ]
        },
        {
          "faces": [
            [
              18,
              1
            ],
            [
              19,
              1
            ],
            [
              20,
              1
            ],
            [
              21,
              1
            ],
            [
              22,
              1
            ],
            [
              23,
              1
            ]
          ]
        }
      ],
      "faces": [
        {
          "surface": [
            0,
            1
          ],
          "loops": [
            [
              0,
              1
            ]
          ]
        },
        {
          "surface": [
            1,
            1
          ],
          "loops": [
            [
              1,
              1
            ]
          ]
        },
        {
          "surface": [
            2,
            1
          ],
          "loops": [
            [
              2,
              1
            ]
          ]
        },
        {
          "surface": [
            3,
            1
          ],
          "loops": [
            [
              3,
              1
            ]
          ]
        },
        {
          "surface": [
            4,
            -1
          ],
          "loops": [
            [
              4,
              1
            ]
          ]
        },
        {
          "surface": [
            5,
            1
          ],
          "loops": [
            [
              5,
              1
            ]
          ]
        },
        {
          "surface": [
            6,
            1
          ],
          "loops": [
            [
              6,
              1
            ]
          ]
        },
        {
          "surface": [
            7,
            1
          ],
          "loops": [
            [
              7,
              1
            ]
          ]
        },
        {
          "surface": [
            8,
            1
          ],
          "loops": [
            [
              8,
              1
            ]
          ]
        },
        {
          "surface": [
            9,
            1
          ],
          "loops": [
            [
              9,
              1
            ]
          ]
        },
        {
          "surface": [
            10,
            -1
          ],
          "loops": [
            [
              10,
              1
            ]
          ]
        },
        {
          "surface": [
            11,
            1
          ],
          "loops": [
            [
              11,
              1
            ]
          ]
        },
        {
          "surface": [
            12,
            1
          ],
          "loops": [
            [
              12,
              1
            ]
          ]
        },
        {
          "surface": [
            13,
            1
          ],
          "loops": [
            [
              13,
              1
            ]
          ]
        },
        {
          "surface": [
            14,
            1
          ],
          "loops": [
            [
              14,
              1
            ]
          ]
        },
        {
          "surface": [
            15,
            1
          ],
          "loops": [
            [
              15,
              1
            ]
          ]
        },
        {
          "surface": [
            16,
            -1
          ],
          "loops": [
            [
              16,
              1
            ]
          ]
        },
        {
          "surface": [
            17,
            1
          ],
          "loops": [
            [
              17,
              1
            ]
          ]
        },
        {
          "surface": [
            18,
            1
          ],
          "loops": [
            [
              18,
              1
            ]
          ]
        },
        {
          "surface": [
            19,
            1
          ],
          "loops": [
            [
              19,
              1
            ]
          ]
        },
        {
          "surface": [
            20,
            1
          ],
          "loops": [
            [
              20,
              1
            ]
          ]
        },
        {
          "surface": [
            21,
            1
          ],
          "loops": [
            [
              21,
              1
            ]
          ]
        },
        {
          "surface": [
            22,
            -1
          ],
          "loops": [
            [
              22,
              1
            ]
          ]
        },
        {
          "surface": [
            23,
            1
          ],
          "loops": [
            [
              23,
              1
            ]
          ]
        }
      ],
      "loops": [
        {
          "edges": [
            [
              0,
              1
            ],
            [
              1,
              1
            ],
            [
              2,
              -1
            ],
            [
              3,
              -1
            ]
          ]
        },
        {
          "edges": [
            [
              4,
              1
            ],
            [
              5,
              1
            ],
            [
              6,
              -1
            ],
            [
              1,
              -1
            ]
          ]
        },
        {
          "edges": [
            [
              7,
              1
            ],
            [
              8,
              1
            ],
            [
              9,
              -1
            ],
            [
              5,
              -1
            ]
          ]
        },
        {
          "edges": [
            [
              10,
              1
            ],
            [
              3,
              1
            ],
            [
              11,
              -1
            ],
            [
              8,
              -1
            ]
          ]
        },
        {
          "edges": [
            [
              10,
              -1
            ],
            [
              7,
              -1
            ],
            [
              4,
              -1
            ],
            [
              0,
              -1
            ]
          ]
        },
        {
          "edges": [
            [
              2,
              1
            ],
            [
              6,
              1
            ],
            [
              9,
              1
            ],
            [
              11,
              1
            ]
          ]
        },
        {
          "edges": [
            [
              12,
              1
            ],
            [
              13,
              1
            ],
            [
              14,
              -1
            ],
            [
              15,
              -1
            ]
          ]
        },
        {
          "edges": [
            [
              16,
              1
            ],
            [
              17,
              1
            ],
            [
              18,
              -1
            ],
            [
              13,
              -1
            ]
          ]
        },
        {
          "edges": [
            [
              19,
              1
            ],
            [
              20,
              1
            ],
            [
              21,
              -1
            ],
            [
              17,
              -1
            ]
          ]
        },
        {
          "edges": [
            [
              22,
              1
            ],
            [
              15,
              1
            ],
            [
              23,
              -1
            ],
            [
              20,
              -1
            ]
          ]
        },
        {
          "edges": [
            [
              22,
              -1
            ],
            [
              19,
              -1
            ],
            [
              16,
              -1
            ],
            [
              12,
              -1
            ]
          ]
        },
        {
          "edges": [
            [
              14,
              1
            ],
            [
              18,
              1
            ],
            [
              21,
              1
            ],
            [
              23,
              1
            ]
          ]
        },
        {
          "edges": [
            [
              24,
              1
            ],
            [
              25,
              1
            ],
            [
              26,
              -1
            ],
            [
              27,
              -1
            ]
          ]
        },
        {
          "edges": [
            [
              28,
              1
            ],
            [
              29,
              1
            ],
            [
              30,
              -1
            ],
            [
              25,
              -1
            ]
          ]
        },
        {
          "edges": [
            [
              31,
              1
            ],
            [
              32,
              1
            ],
            [
              33,
              -1
            ],
            [
              29,
              -1
            ]
          ]
        },
        {
          "edges": [
            [
              34,
              1
            ],
            [
              27,
              1
            ],
            [
              35,
              -1
            ],
            [
              32,
              -1
            ]
          ]
        },
        {
          "edges": [
            [
              34,
              -1
            ],
            [
              31,
              -1
            ],
            [
              28,
              -1
            ],
            [
              24,
              -1
            ]
          ]
        },
        {
          "edges": [
            [
              26,
              1
            ],
            [
              30,
              1
            ],
            [
              33,
              1
            ],
            [
              35,
              1
            ]
          ]
        },
        {
          "edges": [
            [
              36,
              1
            ],
            [
              37,
              1
            ],
            [
              38,
              -1
            ],
            [
              39,
              -1
            ]
          ]
        },
        {
          "edges": [
            [
              40,
              1
            ],
            [
              41,
              1
            ],
            [
              42,
              -1
            ],
            [
              37,
              -1
            ]
          ]
        },
        {
          "edges": [
            [
              43,
              1
            ],
            [
              44,
              1
            ],
            [
              45,
              -1
            ],
            [
              41,
              -1
            ]
          ]
        },
        {
          "edges": [
            [
              46,
              1
            ],
            [
              39,
              1
            ],
            [
              47,
              -1
            ],
            [
              44,
              -1
            ]
          ]
        },
        {
          "edges": [
            [
              46,
              -1
            ],
            [
              43,
              -1
            ],
            [
              40,
              -1
            ],
            [
              36,
              -1
            ]
          ]
        },
        {
          "edges": [
            [
              38,
              1
            ],
            [
              42,
              1
            ],
            [
              45,
              1
            ],
            [
              47,
              1
            ]
          ]
        }
      ],
      "edges": [
        {
          "curve": [
            0,
            1
          ],
          "start": 0,
          "end": 1,
          "t": [
            0,
            0.005
          ]
        },
        {
          "curve": [
            1,
            1
          ],
          "start": 1,
          "end": 2,
          "t": [
            0,
            0.001
          ]
        },
        {
          "curve": [
            2,
            1
          ],
          "start": 3,
          "end": 2,
          "t": [
            0,
            0.005
          ]
        },
        {
          "curve": [
            3,
            1
          ],
          "start": 0,
          "end": 3,
          "t": [
            0,
            0.001
          ]
        },
        {
          "curve": [
            4,
            1
          ],
          "start": 1,
          "end": 4,
          "t": [
            0,
            0.005
          ]
        },
        {
          "curve": [
            5,
            1
          ],
          "start": 4,
          "end": 5,
          "t": [
            0,
            0.001
          ]
        },
        {
          "curve": [
            6,
            1
          ],
          "start": 2,
          "end": 5,
          "t": [
            0,
            0.005
          ]
        },
        {
          "curve": [
            7,
            1
          ],
          "start": 4,
          "end": 6,
          "t": [
            0,
            0.005
          ]
        },
        {
          "curve": [
            8,
            1
          ],
          "start": 6,
          "end": 7,
          "t": [
            0,
            0.001
          ]
        },
        {
          "curve": [
            9,
            1
          ],
          "start": 5,
          "end": 7,
          "t": [
            0,
            0.005
          ]
        },
        {
          "curve": [
            10,
            1
          ],
          "start": 6,
          "end": 0,
          "t": [
            0,
            0.005
          ]
        },
        {
          "curve": [
            11,
            1
          ],
          "start": 7,
          "end": 3,
          "t": [
            0,
            0.005
          ]
        },
        {
          "curve": [
            12,
            1
          ],
          "start": 8,
          "end": 9,
          "t": [
            0,
            0.004999999486499974
          ]
        },
        {
          "curve": [
            13,
            1
          ],
          "start": 9,
          "end": 10,
          "t": [
            0,
            0.0010000042786408466
          ]
        },
        {
          "curve": [
            14,
            1
          ],
          "start": 11,
          "end": 10,
          "t": [
            0,
            0.005000002074689569
          ]
        },
        {
          "curve": [
            15,
            1
          ],
          "start": 8,
          "end": 11,
          "t": [
            0,
            0.0009999946193855243
          ]
        },
        {
          "curve": [
            16,
            1
          ],
          "start": 9,
          "end": 12,
          "t": [
            0,
            0.005
          ]
        },
        {
          "curve": [
            17,
            1
          ],
          "start": 12,
          "end": 13,
          "t": [
            0,
            0.0010000042786408466
          ]
        },
        {
          "curve": [
            18,
            1
          ],
          "start": 10,
          "end": 13,
          "t": [
            0,
            0.005
          ]
        },
        {
          "curve": [
            19,
            1
          ],
          "start": 12,
          "end": 14,
          "t": [
            0,
            0.004999999486499974
          ]
        },
        {
          "curve": [
            20,
            1
          ],
          "start": 14,
          "end": 15,
          "t": [
            0,
            0.0009999946193855243
          ]
        },
        {
          "curve": [
            21,
            1
          ],
          "start": 13,
          "end": 15,
          "t": [
            0,
            0.005000002074689569
          ]
        },
        {
          "curve": [
            22,
            1
          ],
          "start": 14,
          "end": 8,
          "t": [
            0,
            0.005
          ]
        },
        {
          "curve": [
            23,
            1
          ],
          "start": 15,
          "end": 11,
          "t": [
            0,
            0.005
          ]
        },
        {
          "curve": [
            24,
            1
          ],
          "start": 16,
          "end": 17,
          "t": [
            0,
            0.005000002581689333
          ]
        },
        {
          "curve": [
            25,
            1
          ],
          "start": 17,
          "end": 18,
          "t": [
            0,
            0.001000003980442078
          ]
        },
        {
          "curve": [
            26,
            1
          ],
          "start": 19,
          "end": 18,
          "t": [
            0,
            0.005000002581689333
          ]
        },
        {
          "curve": [
            27,
            1
          ],
          "start": 16,
          "end": 19,
          "t": [
            0,
            0.0010000039804420775
          ]
        },
        {
          "curve": [
            28,
            1
          ],
          "start": 17,
          "end": 20,
          "t": [
            0,
            0.005
          ]
        },
        {
          "curve": [
            29,
            1
          ],
          "start": 20,
          "end": 21,
          "t": [
            0,
            0.001000003980442078
          ]
        },
        {
          "curve": [
            30,
            1
          ],
          "start": 18,
          "end": 21,
          "t": [
            0,
            0.005
          ]
        },
        {
          "curve": [
            31,
            1
          ],
          "start": 20,
          "end": 22,
          "t": [
            0,
            0.005000002581689333
          ]
        },
        {
          "curve": [
            32,
            1
          ],
          "start": 22,
          "end": 23,
          "t": [
            0,
            0.0010000039804420775
          ]
        },
        {
          "curve": [
            33,
            1
          ],
          "start": 21,
          "end": 23,
          "t": [
            0,
            0.005000002581689333
          ]
        },
        {
          "curve": [
            34,
            1
          ],
          "start": 22,
          "end": 16,
          "t": [
            0,
            0.005
          ]
        },
        {
          "curve": [
            35,
            1
          ],
          "start": 23,
          "end": 19,
          "t": [
            0,
            0.005
          ]
        },
        {
          "curve": [
            36,
            1
          ],
          "start": 24,
          "end": 25,
          "t": [
            0,
            0.005000008618312572
          ]
        },
        {
          "curve": [
            37,
            1
          ],
          "start": 25,
          "end": 26,
          "t": [
            0,
            0.001000004552089639
          ]
        },
        {
          "curve": [
            38,
            1
          ],
          "start": 27,
          "end": 26,
          "t": [
            0,
            0.00500000154724976
          ]
        },
        {
          "curve": [
            39,
            1
          ],
          "start": 24,
          "end": 27,
          "t": [
            0,
            0.000999997481046827
          ]
        },
        {
          "curve": [
            40,
            1
          ],
          "start": 25,
          "end": 28,
          "t": [
            0,
            0.005
          ]
        },
        {
          "curve": [
            41,
            1
          ],
          "start": 28,
          "end": 29,
          "t": [
            0,
            0.001000004552089639
          ]
        },
        {
          "curve": [
            42,
            1
          ],
          "start": 26,
          "end": 29,
          "t": [
            0,
            0.005
          ]
        },
        {
          "curve": [
            43,
            1
          ],
          "start": 28,
          "end": 30,
          "t": [
            0,
            0.005000008618312572
          ]
        },
        {
          "curve": [
            44,
            1
          ],
          "start": 30,
          "end": 31,
          "t": [
            0,
            0.000999997481046827
          ]
        },
        {
          "curve": [
            45,
            1
          ],
          "start": 29,
          "end": 31,
          "t": [
            0,
            0.00500000154724976
          ]
        },
        {
          "curve": [
            46,
            1
          ],
          "start": 30,
          "end": 24,
          "t": [
            0,
            0.005
          ]
        },
        {
          "curve": [
            47,
            1
          ],
          "start": 31,
          "end": 27,
          "t": [
            0,
            0.005
          ]
        }
      ],
      "vertices": [
        [
          0.002795,
          0,
          0.00539
        ],
        [
          0.002795,
          0,
          0.00039
        ],
        [
          0.002795,
          0.001,
          0.00039
        ],
        [
          0.002795,
          0.001,
          0.00539
        ],
        [
          -0.002205,
          0,
          0.00039
        ],
        [
          -0.002205,
          0.001,
          0.00039
        ],
        [
          -0.002205,
          0,
          0.00539
        ],
        [
          -0.002205,
          0.001,
          0.00539
        ],
        [
          0.002795,
          -0.00139503,
          0.00520634
        ],
        [
          0.002795,
          -0.00010094,
          0.00037671
        ],
        [
          0.002795,
          0.00086499,
          0.00063553
        ],
        [
          0.002795,
          -0.00042911,
          0.00546516
        ],
        [
          -0.002205,
          -0.00010094,
          0.00037671
        ],
        [
          -0.002205,
          0.00086499,
          0.00063553
        ],
        [
          -0.002205,
          -0.00139503,
          0.00520634
        ],
        [
          -0.002205,
          -0.00042911,
          0.00546516
        ],
        [
          0.002795,
          -0.002695,
          0.00466788
        ],
        [
          0.002795,
          -0.000195,
          0.00033775
        ],
        [
          0.002795,
          0.00067103,
          0.00083775
        ],
        [
          0.002795,
          -0.00182897,
          0.00516788
        ],
        [
          -0.002205,
          -0.000195,
          0.00033775
        ],
        [
          -0.002205,
          0.00067103,
          0.00083775
        ],
        [
          -0.002205,
          -0.002695,
          0.00466788
        ],
        [
          -0.002205,
          -0.00182897,
          0.00516788
        ],
        [
          0.002795,
          -0.00381131,
          0.00381131
        ],
        [
          0.002795,
          -0.00027577,
          0.00027577
        ],
        [
          0.002795,
          0.00043134,
          0.00098288
        ],
        [
          0.002795,
          -0.0031042,
          0.00451841
        ],
        [
          -0.002205,
          -0.00027577,
          0.00027577
        ],
        [
          -0.002205,
          0.00043134,
          0.00098288
        ],
        [
          -0.002205,
          -0.00381131,
          0.00381131
        ],
        [
          -0.002205,
          -0.0031042,
          0.00451841
        ]
      ],
      "surfaces": [
        {
          "type": "plane",
          "plane": {
            "xAxis": [
              -0,
              1,
              0
            ],
            "yAxis": [
              0,
              -0,
              1
            ],
            "origin": [
              0.002795,
              0.0005,
              0.00289
            ]
          }
        },
        {
          "type": "plane",
          "plane": {
            "xAxis": [
              1,
              0,
              0
            ],
            "yAxis": [
              0,
              -1,
              0
            ],
            "origin": [
              0.000295,
              0.0005,
              0.00039
            ]
          }
        },
        {
          "type": "plane",
          "plane": {
            "xAxis": [
              0,
              1,
              0
            ],
            "yAxis": [
              0,
              0,
              -1
            ],
            "origin": [
              -0.002205,
              0.0005,
              0.00289
            ]
          }
        },
        {
          "type": "plane",
          "plane": {
            "xAxis": [
              1,
              0,
              -0
            ],
            "yAxis": [
              -0,
              1,
              0
            ],
            "origin": [
              0.000295,
              0.0005,
              0.00539
            ]
          }
        },
        {
          "type": "plane",
          "plane": {
            "xAxis": [
              1,
              0,
              0
            ],
            "yAxis": [
              0,
              0,
              -1
            ],
            "origin": [
              0,
              0,
              -0
            ]
          }
        },
        {
          "type": "plane",
          "plane": {
            "xAxis": [
              1,
              0,
              0
            ],
            "yAxis": [
              0,
              0,
              -1
            ],
            "origin": [
              0,
              0.001,
              -0
            ]
          }
        },
        {
          "type": "plane",
          "plane": {
            "xAxis": [
              0,
              1,
              0
            ],
            "yAxis": [
              -0,
              0,
              1
            ],
            "origin": [
              0.002795,
              -0.00026502,
              0.00292094
            ]
          }
        },
        {
          "type": "plane",
          "plane": {
            "xAxis": [
              1,
              0,
              0
            ],
            "yAxis": [
              0,
              -0.965925825313284,
              -0.2588190487441982
            ],
            "origin": [
              0.000295,
              0.00038202,
              0.00050612
            ]
          }
        },
        {
          "type": "plane",
          "plane": {
            "xAxis": [
              0,
              1,
              0
            ],
            "yAxis": [
              0,
              0,
              -1
            ],
            "origin": [
              -0.002205,
              -0.00026502,
              0.00292094
            ]
          }
        },
        {
          "type": "plane",
          "plane": {
            "xAxis": [
              1,
              0,
              0
            ],
            "yAxis": [
              -0,
              0.965925825313284,
              0.2588190487441982
            ],
            "origin": [
              0.000295,
              -0.00091207,
              0.00533575
            ]
          }
        },
        {
          "type": "plane",
          "plane": {
            "xAxis": [
              1,
              0,
              -0
            ],
            "yAxis": [
              -0,
              0.2588190487441982,
              -0.965925825313284
            ],
            "origin": [
              0,
              0,
              -0
            ]
          }
        },
        {
          "type": "plane",
          "plane": {
            "xAxis": [
              1,
              0,
              -0
            ],
            "yAxis": [
              -0,
              0.2588190487441982,
              -0.965925825313284
            ],
            "origin": [
              0,
              0.00096593,
              0.00025882
            ]
          }
        },
        {
          "type": "plane",
          "plane": {
            "xAxis": [
              0,
              1,
              0
            ],
            "yAxis": [
              -0,
              0,
              1
            ],
            "origin": [
              0.002795,
              -0.00101199,
              0.00275281
            ]
          }
        },
        {
          "type": "plane",
          "plane": {
            "xAxis": [
              1,
              0,
              0
            ],
            "yAxis": [
              0,
              -0.8660254028383291,
              -0.5000000016387101
            ],
            "origin": [
              0.000295,
              0.00023801,
              0.00058775
            ]
          }
        },
        {
          "type": "plane",
          "plane": {
            "xAxis": [
              0,
              1,
              0
            ],
            "yAxis": [
              0,
              0,
              -1
            ],
            "origin": [
              -0.002205,
              -0.00101199,
              0.00275281
            ]
          }
        },
        {
          "type": "plane",
          "plane": {
            "xAxis": [
              1,
              0,
              0
            ],
            "yAxis": [
              -0,
              0.8660254028383291,
              0.5000000016387101
            ],
            "origin": [
              0.000295,
              -0.00226199,
              0.00491788
            ]
          }
        },
        {
          "type": "plane",
          "plane": {
            "xAxis": [
              1,
              0,
              -0
            ],
            "yAxis": [
              -0,
              0.5000000016387101,
              -0.8660254028383291
            ],
            "origin": [
              0,
              0,
              -0
            ]
          }
        },
        {
          "type": "plane",
          "plane": {
            "xAxis": [
              1,
              0,
              -0
            ],
            "yAxis": [
              -0,
              0.5000000016387101,
              -0.8660254028383291
            ],
            "origin": [
              0,
              0.00086603,
              0.0005
            ]
          }
        },
        {
          "type": "plane",
          "plane": {
            "xAxis": [
              0,
              1,
              0
            ],
            "yAxis": [
              -0,
              0,
              1
            ],
            "origin": [
              0.002795,
              -0.00168999,
              0.00239709
            ]
          }
        },
        {
          "type": "plane",
          "plane": {
            "xAxis": [
              1,
              0,
              0
            ],
            "yAxis": [
              0,
              -0.7071067811865476,
              -0.7071067811865476
            ],
            "origin": [
              0.000295,
              0.00007778,
              0.00062933
            ]
          }
        },
        {
          "type": "plane",
          "plane": {
            "xAxis": [
              0,
              1,
              0
            ],
            "yAxis": [
              0,
              0,
              -1
            ],
            "origin": [
              -0.002205,
              -0.00168999,
              0.00239709
            ]
          }
        },
        {
          "type": "plane",
          "plane": {
            "xAxis": [
              1,
              0,
              0
            ],
            "yAxis": [
              -0,
              0.7071067811865476,
              0.7071067811865476
            ],
            "origin": [
              0.000295,
              -0.00345775,
              0.00416486
            ]
          }
        },
        {
          "type": "plane",
          "plane": {
            "xAxis": [
              1,
              0,
              -0
            ],
            "yAxis": [
              -0,
              0.7071067811865476,
              -0.7071067811865476
            ],
            "origin": [
              0,
              0,
              -0
            ]
          }
        },
        {
          "type": "plane",
          "plane": {
            "xAxis": [
              1,
              0,
              -0
            ],
            "yAxis": [
              -0,
              0.7071067811865476,
              -0.7071067811865476
            ],
            "origin": [
              0,
              0.00070711,
              0.00070711
            ]
          }
        }
      ],
      "curves3D": [
        {
          "type": "line",
          "line": {
            "origin": [
              0.002795,
              0,
              0.00539
            ],
            "direction": [
              0,
              0,
              -1
            ]
          }
        },
        {
          "type": "line",
          "line": {
            "origin": [
              0.002795,
              0,
              0.00039
            ],
            "direction": [
              0,
              1,
              0
            ]
          }
        },
        {
          "type": "line",
          "line": {
            "origin": [
              0.002795,
              0.001,
              0.00539
            ],
            "direction": [
              0,
              0,
              -1
            ]
          }
        },
        {
          "type": "line",
          "line": {
            "origin": [
              0.002795,
              0,
              0.00539
            ],
            "direction": [
              0,
              1,
              0
            ]
          }
        },
        {
          "type": "line",
          "line": {
            "origin": [
              0.002795,
              0,
              0.00039
            ],
            "direction": [
              -1,
              0,
              0
            ]
          }
        },
        {
          "type": "line",
          "line": {
            "origin": [
              -0.002205,
              0,
              0.00039
            ],
            "direction": [
              0,
              1,
              0
            ]
          }
        },
        {
          "type": "line",
          "line": {
            "origin": [
              0.002795,
              0.001,
              0.00039
            ],
            "direction": [
              -1,
              0,
              0
            ]
          }
        },
        {
          "type": "line",
          "line": {
            "origin": [
              -0.002205,
              0,
              0.00039
            ],
            "direction": [
              0,
              0,
              1
            ]
          }
        },
        {
          "type": "line",
          "line": {
            "origin": [
              -0.002205,
              0,
              0.00539
            ],
            "direction": [
              0,
              1,
              0
            ]
          }
        },
        {
          "type": "line",
          "line": {
            "origin": [
              -0.002205,
              0.001,
              0.00039
            ],
            "direction": [
              0,
              0,
              1
            ]
          }
        },
        {
          "type": "line",
          "line": {
            "origin": [
              -0.002205,
              0,
              0.00539
            ],
            "direction": [
              1,
              0,
              -0
            ]
          }
        },
        {
          "type": "line",
          "line": {
            "origin": [
              -0.002205,
              0.001,
              0.00539
            ],
            "direction": [
              1,
              0,
              -0
            ]
          }
        },
        {
          "type": "line",
          "line": {
            "origin": [
              0.002795,
              -0.00139503,
              0.00520634
            ],
            "direction": [
              0,
              0.25881802658061265,
              -0.9659260992006156
            ]
          }
        },
        {
          "type": "line",
          "line": {
            "origin": [
              0.002795,
              -0.00010094,
              0.00037671
            ],
            "direction": [
              0,
              0.96592586715013,
              0.25881889260691426
            ]
          }
        },
        {
          "type": "line",
          "line": {
            "origin": [
              0.002795,
              -0.00042911,
              0.00546516
            ],
            "direction": [
              0,
              0.25881989260581373,
              -0.965925599200847
            ]
          }
        },
        {
          "type": "line",
          "line": {
            "origin": [
              0.002795,
              -0.00139503,
              0.00520634
            ],
            "direction": [
              0,
              0.9659251972710988,
              0.2588213926181316
            ]
          }
        },
        {
          "type": "line",
          "line": {
            "origin": [
              0.002795,
              -0.00010094,
              0.00037671
            ],
            "direction": [
              -1,
              0,
              0
            ]
          }
        },
        {
          "type": "line",
          "line": {
            "origin": [
              -0.002205,
              -0.00010094,
              0.00037671
            ],
            "direction": [
              0,
              0.96592586715013,
              0.25881889260691426
            ]
          }
        },
        {
          "type": "line",
          "line": {
            "origin": [
              0.002795,
              0.00086499,
              0.00063553
            ],
            "direction": [
              -1,
              0,
              0
            ]
          }
        },
        {
          "type": "line",
          "line": {
            "origin": [
              -0.002205,
              -0.00010094,
              0.00037671
            ],
            "direction": [
              0,
              -0.25881802658061265,
              0.9659260992006156
            ]
          }
        },
        {
          "type": "line",
          "line": {
            "origin": [
              -0.002205,
              -0.00139503,
              0.00520634
            ],
            "direction": [
              0,
              0.9659251972710988,
              0.2588213926181316
            ]
          }
        },
        {
          "type": "line",
          "line": {
            "origin": [
              -0.002205,
              0.00086499,
              0.00063553
            ],
            "direction": [
              0,
              -0.25881989260581373,
              0.965925599200847
            ]
          }
        },
        {
          "type": "line",
          "line": {
            "origin": [
              -0.002205,
              -0.00139503,
              0.00520634
            ],
            "direction": [
              1,
              0,
              -0
            ]
          }
        },
        {
          "type": "line",
          "line": {
            "origin": [
              -0.002205,
              -0.00042911,
              0.00546516
            ],
            "direction": [
              1,
              0,
              -0
            ]
          }
        },
        {
          "type": "line",
          "line": {
            "origin": [
              0.002795,
              -0.002695,
              0.00466788
            ],
            "direction": [
              0,
              0.4999997418312,
              -0.8660255528382136
            ]
          }
        },
        {
          "type": "line",
          "line": {
            "origin": [
              0.002795,
              -0.000195,
              0.00033775
            ],
            "direction": [
              0,
              0.8660265528314685,
              0.49999800978688297
            ]
          }
        },
        {
          "type": "line",
          "line": {
            "origin": [
              0.002795,
              -0.00182897,
              0.00516788
            ],
            "direction": [
              0,
              0.4999997418312,
              -0.8660255528382136
            ]
          }
        },
        {
          "type": "line",
          "line": {
            "origin": [
              0.002795,
              -0.002695,
              0.00466788
            ],
            "direction": [
              0,
              0.8660265528314686,
              0.4999980097868827
            ]
          }
        },
        {
          "type": "line",
          "line": {
            "origin": [
              0.002795,
              -0.000195,
              0.00033775
            ],
            "direction": [
              -1,
              0,
              0
            ]
          }
        },
        {
          "type": "line",
          "line": {
            "origin": [
              -0.002205,
              -0.000195,
              0.00033775
            ],
            "direction": [
              0,
              0.8660265528314685,
              0.49999800978688297
            ]
          }
        },
        {
          "type": "line",
          "line": {
            "origin": [
              0.002795,
              0.00067103,
              0.00083775
            ],
            "direction": [
              -1,
              0,
              0
            ]
          }
        },
        {
          "type": "line",
          "line": {
            "origin": [
              -0.002205,
              -0.000195,
              0.00033775
            ],
            "direction": [
              0,
              -0.4999997418312,
              0.8660255528382136
            ]
          }
        },
        {
          "type": "line",
          "line": {
            "origin": [
              -0.002205,
              -0.002695,
              0.00466788
            ],
            "direction": [
              0,
              0.8660265528314686,
              0.4999980097868827
            ]
          }
        },
        {
          "type": "line",
          "line": {
            "origin": [
              -0.002205,
              0.00067103,
              0.00083775
            ],
            "direction": [
              0,
              -0.4999997418312,
              0.8660255528382136
            ]
          }
        },
        {
          "type": "line",
          "line": {
            "origin": [
              -0.002205,
              -0.002695,
              0.00466788
            ],
            "direction": [
              1,
              0,
              -0
            ]
          }
        },
        {
          "type": "line",
          "line": {
            "origin": [
              -0.002205,
              -0.00182897,
              0.00516788
            ],
            "direction": [
              1,
              0,
              -0
            ]
          }
        },
        {
          "type": "line",
          "line": {
            "origin": [
              0.002795,
              -0.00381131,
              0.00381131
            ],
            "direction": [
              0,
              0.7071067811865476,
              -0.7071067811865476
            ]
          }
        },
        {
          "type": "line",
          "line": {
            "origin": [
              0.002795,
              -0.00027577,
              0.00027577
            ],
            "direction": [
              0,
              0.7071067811865476,
              0.7071067811865476
            ]
          }
        },
        {
          "type": "line",
          "line": {
            "origin": [
              0.002795,
              -0.0031042,
              0.00451841
            ],
            "direction": [
              0,
              0.7071077811855311,
              -0.7071057811861499
            ]
          }
        },
        {
          "type": "line",
          "line": {
            "origin": [
              0.002795,
              -0.00381131,
              0.00381131
            ],
            "direction": [
              0,
              0.7071117811814648,
              0.7071017811562749
            ]
          }
        },
        {
          "type": "line",
          "line": {
            "origin": [
              0.002795,
              -0.00027577,
              0.00027577
            ],
            "direction": [
              -1,
              0,
              0
            ]
          }
        },
        {
          "type": "line",
          "line": {
            "origin": [
              -0.002205,
              -0.00027577,
              0.00027577
            ],
            "direction": [
              0,
              0.7071067811865476,
              0.7071067811865476
            ]
          }
        },
        {
          "type": "line",
          "line": {
            "origin": [
              0.002795,
              0.00043134,
              0.00098288
            ],
            "direction": [
              -1,
              0,
              0
            ]
          }
        },
        {
          "type": "line",
          "line": {
            "origin": [
              -0.002205,
              -0.00027577,
              0.00027577
            ],
            "direction": [
              0,
              -0.7071067811865476,
              0.7071067811865476
            ]
          }
        },
        {
          "type": "line",
          "line": {
            "origin": [
              -0.002205,
              -0.00381131,
              0.00381131
            ],
            "direction": [
              0,
              0.7071117811814648,
              0.7071017811562749
            ]
          }
        },
        {
          "type": "line",
          "line": {
            "origin": [
              -0.002205,
              0.00043134,
              0.00098288
            ],
            "direction": [
              0,
              -0.7071077811855311,
              0.7071057811861499
            ]
          }
        },
        {
          "type": "line",
          "line": {
            "origin": [
              -0.002205,
              -0.00381131,
              0.00381131
            ],
            "direction": [
              1,
              0,
              -0
            ]
          }
        },
        {
          "type": "line",
          "line": {
            "origin": [
              -0.002205,
              -0.0031042,
              0.00451841
            ],
            "direction": [
              1,
              0,
              -0
            ]
          }
        }
      ]
    }
  },
  "extensionsUsed": [
    "KITTYCAD_boundary_representation"
  ],
  "materials": [
    {
      "alphaMode": "OPAQUE",
      "doubleSided": false,
      "pbrMetallicRoughness": {
        "baseColorFactor": [
          0.9,
          0.9,
          0.9,
          1
        ],
        "metallicFactor": 1,
        "roughnessFactor": 1
      },
      "emissiveFactor": [
        0,
        0,
        0
      ]
    },
    {
      "alphaMode": "OPAQUE",
      "doubleSided": false,
      "pbrMetallicRoughness": {
        "baseColorFactor": [
          0,
          1,
          0,
          1
        ],
        "metallicFactor": 1,
        "roughnessFactor": 1
      },
      "emissiveFactor": [
        0,
        0,
        0
      ]
    },
    {
      "alphaMode": "OPAQUE",
      "doubleSided": false,
      "pbrMetallicRoughness": {
        "baseColorFactor": [
          0,
          1,
          0.88235295,
          1
        ],
        "metallicFactor": 1,
        "roughnessFactor": 1
      },
      "emissiveFactor": [
        0,
        0,
        0
      ]
    },
    {
      "alphaMode": "OPAQUE",
      "doubleSided": false,
      "pbrMetallicRoughness": {
        "baseColorFactor": [
          1,
          0.91764706,
          0,
          1
        ],
        "metallicFactor": 1,
        "roughnessFactor": 1
      },
      "emissiveFactor": [
        0,
        0,
        0
      ]
    }
  ],
  "meshes": [
    {
      "primitives": [
        {
          "attributes": {
            "POSITION": 0,
            "NORMAL": 1
          },
          "material": 0
        },
        {
          "attributes": {
            "POSITION": 2,
            "NORMAL": 3
          },
          "material": 0
        },
        {
          "attributes": {
            "POSITION": 4,
            "NORMAL": 5
          },
          "material": 0
        },
        {
          "attributes": {
            "POSITION": 6,
            "NORMAL": 7
          },
          "material": 0
        },
        {
          "attributes": {
            "POSITION": 8,
            "NORMAL": 9
          },
          "material": 0
        },
        {
          "attributes": {
            "POSITION": 10,
            "NORMAL": 11
          },
          "material": 0
        }
      ]
    },
    {
      "primitives": [
        {
          "attributes": {
            "POSITION": 12,
            "NORMAL": 13
          },
          "material": 1
        },
        {
          "attributes": {
            "POSITION": 14,
            "NORMAL": 15
          },
          "material": 1
        },
        {
          "attributes": {
            "POSITION": 16,
            "NORMAL": 17
          },
          "material": 1
        },
        {
          "attributes": {
            "POSITION": 18,
            "NORMAL": 19
          },
          "material": 1
        },
        {
          "attributes": {
            "POSITION": 20,
            "NORMAL": 21
          },
          "material": 1
        },
        {
          "attributes": {
            "POSITION": 22,
            "NORMAL": 23
          },
          "material": 1
        }
      ]
    },
    {
      "primitives": [
        {
          "attributes": {
            "POSITION": 24,
            "NORMAL": 25
          },
          "material": 2
        },
        {
          "attributes": {
            "POSITION": 26,
            "NORMAL": 27
          },
          "material": 2
        },
        {
          "attributes": {
            "POSITION": 28,
            "NORMAL": 29
          },
          "material": 2
        },
        {
          "attributes": {
            "POSITION": 30,
            "NORMAL": 31
          },
          "material": 2
        },
        {
          "attributes": {
            "POSITION": 32,
            "NORMAL": 33
          },
          "material": 2
        },
        {
          "attributes": {
            "POSITION": 34,
            "NORMAL": 35
          },
          "material": 2
        }
      ]
    },
    {
      "primitives": [
        {
          "attributes": {
            "POSITION": 36,
            "NORMAL": 37
          },
          "material": 3
        },
        {
          "attributes": {
            "POSITION": 38,
            "NORMAL": 39
          },
          "material": 3
        },
        {
          "attributes": {
            "POSITION": 40,
            "NORMAL": 41
          },
          "material": 3
        },
        {
          "attributes": {
            "POSITION": 42,
            "NORMAL": 43
          },
          "material": 3
        },
        {
          "attributes": {
            "POSITION": 44,
            "NORMAL": 45
          },
          "material": 3
        },
        {
          "attributes": {
            "POSITION": 46,
            "NORMAL": 47
          },
          "material": 3
        }
      ]
    }
  ],
  "nodes": [
    {
      "children": [
        1
      ]
    },
    {
      "children": [
        2,
        3,
        4,
        5
      ]
    },
    {
      "extensions": {
        "KITTYCAD_boundary_representation": {
          "solid": 0
        }
      },
      "mesh": 0
    },
    {
      "extensions": {
        "KITTYCAD_boundary_representation": {
          "solid": 1
        }
      },
      "mesh": 1
    },
    {
      "extensions": {
        "KITTYCAD_boundary_representation": {
          "solid": 2
        }
      },
      "mesh": 2
    },
    {
      "extensions": {
        "KITTYCAD_boundary_representation": {
          "solid": 3
        }
      },
      "mesh": 3
    }
  ],
  "scenes": [
    {
      "nodes": [
        0
      ]
    }
  ]
}